<svg xmlns="http://www.w3.org/2000/svg" viewBox="0 0 164.19 27.41"><defs><style>.cls-1{fill:#f5d25f;}</style></defs><title>5star</title><g id="Layer_2" data-name="Layer 2"><g id="Layer_1-2" data-name="Layer 1"><path class="cls-1" d="M15.35.62l3.58,7.25a1.11,1.11,0,0,0,.83.61l8,1.16a1.11,1.11,0,0,1,.61,1.89l-5.79,5.64a1.11,1.11,0,0,0-.32,1l1.37,8A1.11,1.11,0,0,1,22,27.28l-7.16-3.76a1.11,1.11,0,0,0-1,0L6.68,27.28a1.11,1.11,0,0,1-1.61-1.17l1.37-8a1.11,1.11,0,0,0-.32-1L.34,11.52A1.11,1.11,0,0,1,.95,9.63l8-1.16a1.11,1.11,0,0,0,.83-.61L13.36.62A1.11,1.11,0,0,1,15.35.62Z"/><path class="cls-1" d="M48,.62l3.58,7.25a1.11,1.11,0,0,0,.83.61l8,1.16A1.11,1.11,0,0,1,61,11.52l-5.79,5.64a1.11,1.11,0,0,0-.32,1l1.37,8a1.11,1.11,0,0,1-1.61,1.17l-7.16-3.76a1.11,1.11,0,0,0-1,0l-7.16,3.76a1.11,1.11,0,0,1-1.61-1.17l1.37-8a1.11,1.11,0,0,0-.32-1L33,11.52a1.11,1.11,0,0,1,.61-1.89l8-1.16a1.11,1.11,0,0,0,.83-.61L46,.62A1.11,1.11,0,0,1,48,.62Z"/><path class="cls-1" d="M82,.62l3.58,7.25a1.11,1.11,0,0,0,.83.61l8,1.16A1.11,1.11,0,0,1,95,11.52l-5.79,5.64a1.11,1.11,0,0,0-.32,1l1.37,8a1.11,1.11,0,0,1-1.61,1.17l-7.16-3.76a1.11,1.11,0,0,0-1,0l-7.16,3.76a1.11,1.11,0,0,1-1.61-1.17l1.37-8a1.11,1.11,0,0,0-.32-1L67,11.52a1.11,1.11,0,0,1,.61-1.89l8-1.16a1.11,1.11,0,0,0,.83-.61L80,.62A1.11,1.11,0,0,1,82,.62Z"/><path class="cls-1" d="M115.57.62l3.58,7.25a1.11,1.11,0,0,0,.83.61l8,1.16a1.11,1.11,0,0,1,.61,1.89l-5.79,5.64a1.11,1.11,0,0,0-.32,1l1.37,8a1.11,1.11,0,0,1-1.61,1.17l-7.16-3.76a1.11,1.11,0,0,0-1,0l-7.16,3.76a1.11,1.11,0,0,1-1.61-1.17l1.37-8a1.11,1.11,0,0,0-.32-1l-5.79-5.64a1.11,1.11,0,0,1,.61-1.89l8-1.16a1.11,1.11,0,0,0,.83-.61L113.58.62A1.11,1.11,0,0,1,115.57.62Z"/><path class="cls-1" d="M150.83.62l3.58,7.25a1.11,1.11,0,0,0,.83.61l8,1.16a1.11,1.11,0,0,1,.61,1.89l-5.79,5.64a1.11,1.11,0,0,0-.32,1l1.37,8a1.11,1.11,0,0,1-1.61,1.17l-7.16-3.76a1.11,1.11,0,0,0-1,0l-7.16,3.76a1.11,1.11,0,0,1-1.61-1.17l1.37-8a1.11,1.11,0,0,0-.32-1l-5.79-5.64a1.11,1.11,0,0,1,.61-1.89l8-1.16a1.11,1.11,0,0,0,.83-.61L148.84.62A1.11,1.11,0,0,1,150.83.62Z"/></g></g></svg>