<?xml version="1.0" encoding="UTF-8"?>
<svg width="560px" height="464px" viewBox="0 0 560 464" version="1.1" xmlns="http://www.w3.org/2000/svg" xmlns:xlink="http://www.w3.org/1999/xlink">
    <!-- Generator: Sketch 51.3 (57544) - http://www.bohemiancoding.com/sketch -->
    <title>Group 2</title>
    <desc>Created with Sketch.</desc>
    <defs>
        <linearGradient x1="49.9918456%" y1="100.006561%" x2="49.9918456%" y2="-0.00738164758%" id="linearGradient-1">
            <stop stop-color="#808080" stop-opacity="0.25" offset="0%"></stop>
            <stop stop-color="#808080" stop-opacity="0.12" offset="54%"></stop>
            <stop stop-color="#808080" stop-opacity="0.1" offset="100%"></stop>
        </linearGradient>
        <linearGradient x1="5%" y1="34%" x2="5%" y2="0%" id="linearGradient-2">
            <stop stop-color="#808080" stop-opacity="0.25" offset="0%"></stop>
            <stop stop-color="#808080" stop-opacity="0.12" offset="54%"></stop>
            <stop stop-color="#808080" stop-opacity="0.1" offset="100%"></stop>
        </linearGradient>
        <linearGradient x1="49.8877121%" y1="100.026358%" x2="49.8877121%" y2="0.0115245955%" id="linearGradient-3">
            <stop stop-color="#808080" stop-opacity="0.25" offset="0%"></stop>
            <stop stop-color="#808080" stop-opacity="0.12" offset="54%"></stop>
            <stop stop-color="#808080" stop-opacity="0.1" offset="100%"></stop>
        </linearGradient>
    </defs>
    <g id="Welcome" stroke="none" stroke-width="1" fill="none" fill-rule="evenodd">
        <g id="Full-HD-+-AI" transform="translate(-201.000000, -313.000000)">
            <g id="Group-2" transform="translate(201.000000, 313.000000)">
                <g id="undraw_drone_delivery_5vrm">
                    <ellipse id="Oval-6" fill="#FB1D5C" cx="368.226415" cy="95.6537585" rx="95.6226415" ry="95.6537585"></ellipse>
                    <polygon id="Shape" fill="#FEC5D5" fill-rule="nonzero" points="531.598933 169.371458 509.400296 169.371458 509.400296 206.757317 483.112437 206.757317 483.112437 148.926067 463.834674 148.926067 463.834674 105.698668 448.061958 105.698668 448.061958 61.3029613 415.348177 61.3029613 415.348177 105.698668 399.575462 105.698668 399.575462 148.926067 380.881873 148.926067 380.881873 96.9363576 370.366729 96.9363576 370.366729 70.6494259 363.940808 70.6494259 363.940808 96.9363576 326.55363 96.9363576 326.55363 262.836105 297.929072 262.836105 297.929072 245.311483 280.403833 245.311483 280.403833 262.836105 251.779275 262.836105 251.779275 206.757317 200.371906 206.757317 200.371906 169.371458 178.173269 169.371458 178.173269 206.757317 177.004919 278.608264 153.637933 278.608264 153.637933 236.549173 125.59755 236.549173 125.59755 278.608264 102.230564 278.608264 102.230564 148.926067 84.1211499 148.926067 84.1211499 105.698668 17.5252396 105.698668 17.5252396 148.926067 0 148.926067 0 377.330296 102.230564 377.330296 177.004919 377.330296 251.779275 377.330296 326.55363 377.330296 380.881873 377.330296 483.112437 377.330296 557.886792 377.330296 557.886792 206.757317 531.598933 206.757317"></polygon>
                    <rect id="Rectangle-path" fill="#FFFFFF" fill-rule="nonzero" opacity="0.953683036" x="11.6226415" y="161.712984" width="24.3018868" height="13.7403189"></rect>
                    <rect id="Rectangle-path" fill="#FFFFFF" fill-rule="nonzero" opacity="0.953683036" transform="translate(77.660377, 168.583144) rotate(-180.000000) translate(-77.660377, -168.583144) " x="65.509434" y="161.712984" width="24.3018868" height="13.7403189"></rect>
                    <rect id="Rectangle-path" fill="#FFFFFF" fill-rule="nonzero" opacity="0.953683036" x="11.6226415" y="189.193622" width="24.3018868" height="13.7403189"></rect>
                    <rect id="Rectangle-path" fill="#FFFFFF" fill-rule="nonzero" opacity="0.953683036" transform="translate(77.660377, 196.063781) rotate(-180.000000) translate(-77.660377, -196.063781) " x="65.509434" y="189.193622" width="24.3018868" height="13.7403189"></rect>
                    <rect id="Rectangle-path" fill="#FFFFFF" fill-rule="nonzero" opacity="0.953683036" x="11.6226415" y="216.67426" width="24.3018868" height="13.7403189"></rect>
                    <rect id="Rectangle-path" fill="#FFFFFF" fill-rule="nonzero" opacity="0.953683036" transform="translate(77.660377, 223.544419) rotate(-180.000000) translate(-77.660377, -223.544419) " x="65.509434" y="216.67426" width="24.3018868" height="13.7403189"></rect>
                    <rect id="Rectangle-path" fill="#FFFFFF" fill-rule="nonzero" opacity="0.953683036" x="11.6226415" y="244.154897" width="24.3018868" height="13.7403189"></rect>
                    <rect id="Rectangle-path" fill="#FFFFFF" fill-rule="nonzero" opacity="0.953683036" transform="translate(77.660377, 251.025057) rotate(-180.000000) translate(-77.660377, -251.025057) " x="65.509434" y="244.154897" width="24.3018868" height="13.7403189"></rect>
                    <rect id="Rectangle-path" fill="#FFFFFF" fill-rule="nonzero" opacity="0.953683036" x="11.6226415" y="271.635535" width="24.3018868" height="13.7403189"></rect>
                    <rect id="Rectangle-path" fill="#FFFFFF" fill-rule="nonzero" opacity="0.953683036" transform="translate(77.660377, 278.505695) rotate(-180.000000) translate(-77.660377, -278.505695) " x="65.509434" y="271.635535" width="24.3018868" height="13.7403189"></rect>
                    <rect id="Rectangle-path" fill="#FFFFFF" fill-rule="nonzero" opacity="0.953683036" x="11.6226415" y="299.116173" width="24.3018868" height="13.7403189"></rect>
                    <rect id="Rectangle-path" fill="#FFFFFF" fill-rule="nonzero" opacity="0.953683036" transform="translate(77.660377, 305.986333) rotate(-180.000000) translate(-77.660377, -305.986333) " x="65.509434" y="299.116173" width="24.3018868" height="13.7403189"></rect>
                    <rect id="Rectangle-path" fill="#FFFFFF" fill-rule="nonzero" opacity="0.953683036" x="11.6226415" y="326.596811" width="24.3018868" height="13.7403189"></rect>
                    <rect id="Rectangle-path" fill="#FFFFFF" fill-rule="nonzero" opacity="0.953683036" transform="translate(77.660377, 333.466970) rotate(-180.000000) translate(-77.660377, -333.466970) " x="65.509434" y="326.596811" width="24.3018868" height="13.7403189"></rect>
                    <rect id="Rectangle-path" fill="#FFFFFF" fill-rule="nonzero" opacity="0.953683036" x="110.943396" y="292.774487" width="57.0566038" height="7.39863326"></rect>
                    <rect id="Rectangle-path" fill="#FFFFFF" fill-rule="nonzero" opacity="0.953683036" x="110.943396" y="303.343964" width="57.0566038" height="7.39863326"></rect>
                    <rect id="Rectangle-path" fill="#FFFFFF" fill-rule="nonzero" opacity="0.953683036" x="110.943396" y="313.91344" width="57.0566038" height="7.39863326"></rect>
                    <rect id="Rectangle-path" fill="#FFFFFF" fill-rule="nonzero" opacity="0.953683036" x="259.924528" y="295.94533" width="57.0566038" height="7.39863326"></rect>
                    <rect id="Rectangle-path" fill="#FFFFFF" fill-rule="nonzero" opacity="0.953683036" x="259.924528" y="306.514806" width="57.0566038" height="7.39863326"></rect>
                    <rect id="Rectangle-path" fill="#FFFFFF" fill-rule="nonzero" opacity="0.953683036" x="259.924528" y="317.084282" width="57.0566038" height="7.39863326"></rect>
                    <rect id="Rectangle-path" fill="#FFFFFF" fill-rule="nonzero" opacity="0.953683036" x="110.943396" y="324.482916" width="57.0566038" height="7.39863326"></rect>
                    <rect id="Rectangle-path" fill="#FFFFFF" fill-rule="nonzero" opacity="0.953683036" x="110.943396" y="335.052392" width="57.0566038" height="7.39863326"></rect>
                    <rect id="Rectangle-path" fill="#FFFFFF" fill-rule="nonzero" opacity="0.4" x="110.943396" y="344.56492" width="57.0566038" height="7.39863326"></rect>
                    <rect id="Rectangle-path" fill="#FFFFFF" fill-rule="nonzero" opacity="0.4" x="189.132075" y="219.845103" width="15.8490566" height="20.0820046"></rect>
                    <rect id="Rectangle-path" fill="#FFFFFF" fill-rule="nonzero" opacity="0.953683036" transform="translate(231.924528, 229.886105) rotate(-180.000000) translate(-231.924528, -229.886105) " x="224" y="219.845103" width="15.8490566" height="20.0820046"></rect>
                    <rect id="Rectangle-path" fill="#FFFFFF" fill-rule="nonzero" opacity="0.4" x="189.132075" y="252.610478" width="15.8490566" height="20.0820046"></rect>
                    <rect id="Rectangle-path" fill="#FFFFFF" fill-rule="nonzero" opacity="0.953683036" transform="translate(231.924528, 262.651481) rotate(-180.000000) translate(-231.924528, -262.651481) " x="224" y="252.610478" width="15.8490566" height="20.0820046"></rect>
                    <rect id="Rectangle-path" fill="#FFFFFF" fill-rule="nonzero" opacity="0.4" x="189.132075" y="285.375854" width="15.8490566" height="20.0820046"></rect>
                    <rect id="Rectangle-path" fill="#FFFFFF" fill-rule="nonzero" opacity="0.953683036" transform="translate(231.924528, 295.416856) rotate(-180.000000) translate(-231.924528, -295.416856) " x="224" y="285.375854" width="15.8490566" height="20.0820046"></rect>
                    <rect id="Rectangle-path" fill="#FFFFFF" fill-rule="nonzero" opacity="0.4" x="189.132075" y="318.14123" width="15.8490566" height="20.0820046"></rect>
                    <rect id="Rectangle-path" fill="#FFFFFF" fill-rule="nonzero" opacity="0.953683036" transform="translate(231.924528, 328.182232) rotate(-180.000000) translate(-231.924528, -328.182232) " x="224" y="318.14123" width="15.8490566" height="20.0820046"></rect>
                    <rect id="Rectangle-path" fill="#FFFFFF" fill-rule="nonzero" opacity="0.953683036" x="326.490566" y="109.922551" width="21.1320755" height="26.4236902"></rect>
                    <rect id="Rectangle-path" fill="#FFFFFF" fill-rule="nonzero" opacity="0.953683036" x="326.490566" y="149.029613" width="21.1320755" height="26.4236902"></rect>
                    <rect id="Rectangle-path" fill="#FFFFFF" fill-rule="nonzero" opacity="0.953683036" x="326.490566" y="187.079727" width="21.1320755" height="26.4236902"></rect>
                    <rect id="Rectangle-path" fill="#FFFFFF" fill-rule="nonzero" opacity="0.953683036" x="326.490566" y="226.186788" width="21.1320755" height="26.4236902"></rect>
                    <rect id="Rectangle-path" fill="#FFFFFF" fill-rule="nonzero" opacity="0.953683036" x="326.490566" y="264.236902" width="21.1320755" height="26.4236902"></rect>
                    <rect id="Rectangle-path" fill="#FFFFFF" fill-rule="nonzero" opacity="0.953683036" x="326.490566" y="303.343964" width="21.1320755" height="26.4236902"></rect>
                    <rect id="Rectangle-path" fill="#FFFFFF" fill-rule="nonzero" opacity="0.944810268" x="393.056604" y="164.883827" width="78.1886792" height="23.2528474"></rect>
                    <rect id="Rectangle-path" fill="#FFFFFF" fill-rule="nonzero" opacity="0.944810268" x="393.056604" y="214.560364" width="78.1886792" height="23.2528474"></rect>
                    <rect id="Rectangle-path" fill="#FFFFFF" fill-rule="nonzero" opacity="0.944810268" x="393.056604" y="263.179954" width="78.1886792" height="23.2528474"></rect>
                    <rect id="Rectangle-path" fill="#FFFFFF" fill-rule="nonzero" opacity="0.944810268" x="393.056604" y="312.856492" width="78.1886792" height="23.2528474"></rect>
                    <rect id="Rectangle-path" fill="#FFFFFF" fill-rule="nonzero" opacity="0.953683036" x="17.9622642" y="117.321185" width="10.5660377" height="22.1958998"></rect>
                    <rect id="Rectangle-path" fill="#FFFFFF" fill-rule="nonzero" opacity="0.944810268" x="531.471698" y="219.845103" width="26.4150943" height="33.8223235"></rect>
                    <rect id="Rectangle-path" fill="#FFFFFF" fill-rule="nonzero" opacity="0.944810268" x="531.471698" y="269.52164" width="26.4150943" height="33.8223235"></rect>
                    <rect id="Rectangle-path" fill="#FFFFFF" fill-rule="nonzero" opacity="0.944810268" x="531.471698" y="318.14123" width="26.4150943" height="33.8223235"></rect>
                    <path d="M154.523103,89.1378735 L150.549146,89.1378735 C151.573007,89.1851637 152.539714,88.6586312 153.065595,87.7672494 C153.591475,86.8758676 153.591475,85.7638047 153.065595,84.8724229 C152.539714,83.9810411 151.573007,83.4545086 150.549146,83.5017988 L118.358937,83.5017988 C116.872173,83.5704697 115.701635,84.8118108 115.701635,86.3198361 C115.701635,87.8278615 116.872173,89.0692026 118.358937,89.1378735 L122.332894,89.1378735 C121.309033,89.0905832 120.342326,89.6171157 119.816446,90.5084975 C119.290565,91.3998793 119.290565,92.5119423 119.816446,93.4033241 C120.342326,94.2947059 121.309033,94.8212384 122.332894,94.7739481 L116.77051,94.7739481 C115.283745,94.842619 114.113208,96.0839601 114.113208,97.5919855 C114.113208,99.1000108 115.283745,100.341352 116.77051,100.410023 L148.960718,100.410023 C150.447483,100.341352 151.61802,99.1000108 151.61802,97.5919855 C151.61802,96.0839601 150.447483,94.842619 148.960718,94.7739481 L154.523103,94.7739481 C155.546965,94.8212384 156.513672,94.2947059 157.039552,93.4033241 C157.565432,92.5119423 157.565432,91.3998793 157.039552,90.5084975 C156.513672,89.6171157 155.546965,89.0905832 154.523103,89.1378735 Z" id="Shape" fill="#252223" fill-rule="nonzero" opacity="0.1"></path>
                    <path d="M298.167571,159.952384 L294.120376,159.952384 C295.163107,159.999666 296.14763,159.473225 296.683202,158.581998 C297.218774,157.690771 297.218774,156.578901 296.683202,155.687674 C296.14763,154.796447 295.163107,154.270006 294.120376,154.317288 L261.336923,154.317288 C259.822758,154.385947 258.630648,155.627073 258.630648,157.134836 C258.630648,158.642599 259.822758,159.883725 261.336923,159.952384 L265.384117,159.952384 C264.341387,159.905102 263.356864,160.431543 262.821292,161.32277 C262.28572,162.213997 262.28572,163.325867 262.821292,164.217094 C263.356864,165.108321 264.341387,165.634762 265.384117,165.58748 L259.719221,165.58748 C258.676491,165.540198 257.691968,166.066639 257.156396,166.957866 C256.620824,167.849093 256.620824,168.960962 257.156396,169.852189 C257.691968,170.743416 258.676491,171.269857 259.719221,171.222575 L292.502675,171.222575 C293.545405,171.269857 294.529928,170.743416 295.0655,169.852189 C295.601072,168.960962 295.601072,167.849093 295.0655,166.957866 C294.529928,166.066639 293.545405,165.540198 292.502675,165.58748 L298.167571,165.58748 C299.210302,165.634762 300.194825,165.108321 300.730396,164.217094 C301.265968,163.325867 301.265968,162.213997 300.730396,161.32277 C300.194825,160.431543 299.210302,159.905102 298.167571,159.952384 Z" id="Shape" fill="#252223" fill-rule="nonzero" opacity="0.1"></path>
                    <path d="M543.299647,66.9409943 L539.252452,66.9409943 C540.295182,66.9882763 541.279705,66.4618352 541.815277,65.5706083 C542.350849,64.6793813 542.350849,63.5675115 541.815277,62.6762845 C541.279705,61.7850576 540.295182,61.2586165 539.252452,61.3058985 L506.468998,61.3058985 C504.954833,61.3745575 503.762724,62.615683 503.762724,64.1234464 C503.762724,65.6312098 504.954833,66.8723353 506.468998,66.9409943 L510.516193,66.9409943 C509.473462,66.8937123 508.48894,67.4201533 507.953368,68.3113803 C507.417796,69.2026072 507.417796,70.314477 507.953368,71.205704 C508.48894,72.096931 509.473462,72.623372 510.516193,72.57609 L504.851297,72.57609 C503.808566,72.528808 502.824043,73.055249 502.288471,73.946476 C501.752899,74.837703 501.752899,75.9495728 502.288471,76.8407997 C502.824043,77.7320267 503.808566,78.2584678 504.851297,78.2111857 L537.634751,78.2111857 C538.677481,78.2584678 539.662004,77.7320267 540.197576,76.8407997 C540.733148,75.9495728 540.733148,74.837703 540.197576,73.946476 C539.662004,73.055249 538.677481,72.528808 537.634751,72.57609 L543.299647,72.57609 C544.342377,72.623372 545.3269,72.096931 545.862472,71.205704 C546.398044,70.314477 546.398044,69.2026072 545.862472,68.3113803 C545.3269,67.4201533 544.342377,66.8937123 543.299647,66.9409943 Z" id="Shape" fill="#252223" fill-rule="nonzero" opacity="0.1"></path>
                    <path d="M465.298606,47.0425341 C460.384699,46.9953977 455.473508,47.2925966 450.600842,47.9319637 C450.600842,45.976785 449.021647,44.3917995 447.073612,44.3917995 C445.125577,44.3917995 443.546382,45.976785 443.546382,47.9319637 C438.673716,47.2925966 433.762525,46.9953977 428.848619,47.0425341 C417.975422,47.0425341 409.154432,48.2128363 409.154432,49.6991201 C409.154432,51.1854039 417.969592,52.3557061 428.848619,52.3557061 C433.762525,52.4028425 438.673716,52.1056436 443.546382,51.4662764 C443.546233,51.8921359 443.623279,52.3144697 443.773757,52.7126483 C443.127601,53.1121156 442.715522,53.8021652 442.669122,54.5624221 C442.622722,55.3226789 442.947805,56.0580495 443.540552,56.533685 C441.809957,57.1260897 440.407225,58.4214199 439.675174,60.1031068 C438.699712,59.3553128 437.519879,58.9245241 436.293698,58.8684379 L399.674637,57.2300148 C396.972151,53.6004163 392.721334,51.4639604 388.206767,51.4662764 L365.154424,51.4662764 C360.601766,51.4641657 356.319881,53.6368588 353.622422,57.3177875 L318.839853,58.880141 C317.705102,58.9303147 316.607621,59.3015404 315.674091,59.9509675 C314.988928,58.4776111 313.781221,57.3134597 312.286784,56.6858243 C313.051648,56.1969083 313.464776,55.307315 313.345993,54.4050172 C313.22721,53.5027194 312.598057,52.7513456 311.732922,52.4785878 C311.830481,52.1501009 311.879587,51.8090454 311.878675,51.4662764 C316.751339,52.1056625 321.662532,52.4028615 326.576438,52.3557061 C337.449635,52.3557061 346.270625,51.1854039 346.270625,49.6991201 C346.270625,48.2128363 337.455465,47.0425341 326.576438,47.0425341 C321.662532,46.9953977 316.751341,47.2925966 311.878675,47.9319637 C311.878675,45.9929435 310.312532,44.4210571 308.380596,44.4210571 C306.44866,44.4210571 304.882516,45.9929435 304.882516,47.9319637 C300.00985,47.2925966 295.098659,46.9953977 290.184753,47.0425341 C279.311556,47.0425341 270.490566,48.2128363 270.490566,49.6991201 C270.490566,51.1854039 279.305726,52.3557061 290.184753,52.3557061 C295.098659,52.4028425 300.00985,52.1056436 304.882516,51.4662764 C304.882367,51.8921359 304.959413,52.3144697 305.109891,52.7126483 C304.443974,53.1226024 304.026806,53.8399789 303.998673,54.6235411 C303.97054,55.4071033 304.335178,56.1527563 304.969968,56.6097547 C302.44341,57.5658168 300.769778,59.9911147 300.766443,62.7011777 L300.766443,67.0664049 C300.769526,70.643771 303.644558,73.5502366 307.208739,73.5791368 L309.791488,73.5791368 C311.844648,73.5791876 313.776249,72.6022471 314.997796,70.9459568 C316.070959,71.9500192 317.47239,72.5263797 318.938965,72.5668253 L353.045239,73.5264732 C354.134022,75.2513885 355.574608,76.7251773 357.272085,77.8507398 C354.007211,81.1802496 341.274202,95.9436121 343.326408,121.95943 C343.326408,121.95943 345.384445,125.79217 350.672375,121.95943 C350.672375,121.95943 347.290898,92.9710444 366.221338,81.0339619 C366.878677,82.9290373 368.658766,84.199155 370.658068,84.1996293 L373.077573,84.1996293 C367.430491,86.4352354 364.164417,92.3843823 365.29808,98.36996 C366.431743,104.355538 371.64494,108.686919 377.715444,108.686919 C383.785948,108.686919 388.999144,104.355538 390.132807,98.36996 C391.26647,92.3843823 388.000396,86.4352354 382.353314,84.1996293 L384.772819,84.1996293 C386.772121,84.199155 388.55221,82.9290373 389.209549,81.0339619 C408.139989,92.9710444 404.758512,121.95943 404.758512,121.95943 C410.046442,125.79217 412.104479,121.95943 412.104479,121.95943 C414.436532,92.1635359 397.406715,77.1251525 397.406715,77.1251525 L397.097718,77.1251525 C398.351434,76.1293511 399.431173,74.9309545 400.292631,73.5791368 L436.194585,72.5726769 C437.738088,72.5373755 439.209267,71.9090464 440.304829,70.8172235 C441.516786,72.5699901 443.507864,73.615094 445.633569,73.6142458 L448.216318,73.6142458 C451.803279,73.6142458 454.711085,70.6957767 454.711085,67.0956625 L454.711085,62.7304352 C454.710417,60.1586081 453.203177,57.8275719 450.863198,56.7794485 C451.677569,56.3270327 452.145903,55.4319021 452.054666,54.5021886 C451.963428,53.572475 451.330093,52.7862514 450.443429,52.5019939 C450.540988,52.173507 450.590093,51.8324515 450.589182,51.4896825 C455.461846,52.1290686 460.373038,52.4262676 465.286945,52.3791122 C476.160142,52.3791122 484.981132,51.2088099 484.981132,49.7225261 C484.981132,48.2362423 476.177632,47.0425341 465.298606,47.0425341 Z" id="Shape" fill="url(#linearGradient-1)" fill-rule="nonzero"></path>
                    <ellipse id="Oval" fill="#FFFFFF" fill-rule="nonzero" cx="378.792453" cy="95.6537585" rx="12.1509434" ry="12.1548975"></ellipse>
                    <ellipse id="Oval" fill="#E0E0E0" fill-rule="nonzero" cx="377.735849" cy="95.6537585" rx="7.9245283" ry="7.92710706"></ellipse>
                    <ellipse id="Oval" fill="#FB1D5C" fill-rule="nonzero" cx="378.264151" cy="95.1252847" rx="5.28301887" ry="5.28473804"></ellipse>
                    <ellipse id="Oval" fill="#FB1D5C" fill-rule="nonzero" opacity="0.25" cx="378.264151" cy="95.1252847" rx="5.28301887" ry="5.28473804"></ellipse>
                    <path d="M359.549937,77.1629521 C359.549937,77.1629521 343.507535,91.1772179 345.718675,118.905361 C345.718675,118.905361 347.656331,122.47536 352.637215,118.905361 C352.637215,118.905361 348.488418,83.7483862 376.150943,77.1571754 L359.549937,77.1629521 Z" id="Shape" fill="#FFFFFF" fill-rule="nonzero"></path>
                    <path d="M396.956832,77.1629521 C396.956832,77.1629521 413.006741,91.1772179 410.812827,118.905361 C410.812827,118.905361 408.874966,122.47536 403.893559,118.905361 C403.893559,118.905361 408.042792,83.7483862 380.377358,77.1571754 L396.956832,77.1629521 Z" id="Shape" fill="#FFFFFF" fill-rule="nonzero"></path>
                    <rect id="Rectangle-path" fill="#FFFFFF" fill-rule="nonzero" x="352.90566" y="52.8473804" width="48.6037736" height="27.4806378" rx="13.7403189"></rect>
                    <path d="M360.755055,73.9841304 L322.551614,72.9033075 C319.449733,72.8169266 316.979952,70.2533174 316.981132,67.1212005 L316.981132,65.6446666 C316.981166,62.5523751 319.391632,60.0074451 322.452141,59.8684657 L360.655582,58.1379679 C362.217948,58.06702 363.741124,58.6439215 364.871585,59.7347751 C366.002046,60.8256286 366.641492,62.3355783 366.641509,63.9141688 L366.641509,68.2079295 C366.640518,69.7684482 366.014652,71.2623063 364.906117,72.3500786 C363.797582,73.4378509 362.300509,74.0271685 360.755055,73.9841304 Z" id="Shape" fill="#E0E0E0" fill-rule="nonzero"></path>
                    <path d="M395.773247,73.9841304 L433.976688,72.9033075 C437.078569,72.8169266 439.54835,70.2533174 439.547169,67.1212005 L439.547169,65.6446666 C439.547136,62.5523751 437.13667,60.0074451 434.076161,59.8684657 L395.87272,58.1379679 C394.310354,58.06702 392.787178,58.6439215 391.656717,59.7347751 C390.526256,60.8256286 389.88681,62.3355783 389.886792,63.9141688 L389.886792,68.2079295 C389.887784,69.7684482 390.513649,71.2623063 391.622185,72.3500786 C392.73072,73.4378509 394.227793,74.0271685 395.773247,73.9841304 Z" id="Shape" fill="#E0E0E0" fill-rule="nonzero"></path>
                    <rect id="Rectangle-path" fill="#FFFFFF" fill-rule="nonzero" x="305.358491" y="58.1321185" width="14.7924528" height="16.9111617" rx="7.39622642"></rect>
                    <rect id="Rectangle-path" fill="#FFFFFF" fill-rule="nonzero" x="436.377358" y="58.1321185" width="14.7924528" height="16.9111617" rx="7.39622642"></rect>
                    <rect id="Rectangle-path" fill="#FFFFFF" fill-rule="nonzero" x="308.528302" y="53.904328" width="8.45283019" height="4.22779043" rx="2.11389522"></rect>
                    <rect id="Rectangle-path" fill="#FFFFFF" fill-rule="nonzero" x="309.584906" y="46.5056948" width="6.33962264" height="9.51252847" rx="3.16981132"></rect>
                    <ellipse id="Oval" fill="#E0E0E0" fill-rule="nonzero" cx="295.320755" cy="51.261959" rx="18.490566" ry="2.64236902"></ellipse>
                    <ellipse id="Oval" fill="#E0E0E0" fill-rule="nonzero" cx="330.188679" cy="51.261959" rx="18.490566" ry="2.64236902"></ellipse>
                    <rect id="Rectangle-path" fill="#FFFFFF" fill-rule="nonzero" x="439.54717" y="53.904328" width="8.45283019" height="4.22779043" rx="2.11389522"></rect>
                    <rect id="Rectangle-path" fill="#FFFFFF" fill-rule="nonzero" x="440.603774" y="46.5056948" width="6.33962264" height="9.51252847" rx="3.16981132"></rect>
                    <ellipse id="Oval" fill="#E0E0E0" fill-rule="nonzero" cx="426.339623" cy="51.261959" rx="18.490566" ry="2.64236902"></ellipse>
                    <ellipse id="Oval" fill="#E0E0E0" fill-rule="nonzero" cx="461.207547" cy="51.261959" rx="18.490566" ry="2.64236902"></ellipse>
                    <rect id="Rectangle-path" fill="#E0E0E0" fill-rule="nonzero" x="367.698113" y="75.0432802" width="22.1886792" height="8.45558087" rx="4.22779043"></rect>
                    <polygon id="Shape" fill="#FFDD00" fill-rule="nonzero" points="348.679245 121.548975 348.679245 171.225513 398.334059 171.225513 411.018868 171.225513 411.018868 121.548975 398.334059 121.548975"></polygon>
                    <rect id="Rectangle-path" fill="#000000" fill-rule="nonzero" opacity="0.25" x="398.339623" y="121.548975" width="12.6792453" height="49.6765376"></rect>
                    <rect id="Rectangle-path" fill="#000000" fill-rule="nonzero" opacity="0.25" x="355.018868" y="130.004556" width="9.50943396" height="5.28473804"></rect>
                    <path d="M376.424546,114.981408 C378.604819,117.851553 378.24144,121.548975 378.24144,121.548975 C378.24144,121.548975 374.377512,120.597888 372.185127,117.727743 C369.992741,114.857598 369.15697,111.91992 370.368233,111.160175 C371.579495,110.400431 374.244273,112.105635 376.424546,114.981408 Z" id="Shape" fill="#67647E" fill-rule="nonzero"></path>
                    <path d="M380.103756,114.981408 C377.923483,117.851553 378.286862,121.548975 378.286862,121.548975 C378.286862,121.548975 382.15079,120.597888 384.343175,117.727743 C386.535561,114.857598 387.371332,111.91992 386.160069,111.160175 C384.948807,110.400431 382.284029,112.105635 380.103756,114.981408 Z" id="Shape" fill="#67647E" fill-rule="nonzero"></path>
                    <path d="M119.512453,250.496583 L119.396226,250.855945 C119.44561,250.739867 119.484508,250.6196 119.512453,250.496583 Z" id="Shape" fill="url(#linearGradient-2)" fill-rule="nonzero"></path>
                    <path d="M307.022605,413.061542 C307.06349,413.003039 307.104376,412.950386 307.13358,412.891882 L307.197829,412.769024 C307.227033,412.710521 307.262078,412.657868 307.285441,412.599364 L307.332168,412.476506 C307.332168,412.418003 307.378894,412.359499 307.396417,412.300996 C307.413939,412.242492 307.396417,412.224941 307.425621,412.183988 C307.454825,412.143036 307.454825,412.066981 307.466506,412.002627 C307.478188,411.938273 307.466506,411.932423 307.466506,411.89147 C307.466506,411.850518 307.466506,411.768613 307.466506,411.704259 C307.466506,411.639905 307.466506,411.639905 307.466506,411.604803 C307.466506,411.5697 307.466506,411.476095 307.466506,411.411741 C307.466506,411.347387 307.466506,411.353237 307.466506,411.323985 C307.466506,411.294734 307.466506,411.189427 307.466506,411.125073 L307.466506,411.049018 C307.466506,410.978814 307.466506,410.90861 307.41978,410.838405 L307.41978,410.774051 C307.41978,410.697997 307.373053,410.627792 307.34969,410.551738 L307.34969,410.504935 C307.322433,410.42693 307.291282,410.350875 307.256237,410.276771 L307.256237,410.241669 C307.221192,410.159764 307.182253,410.079809 307.139421,410.001804 L306.999241,409.750238 C306.46112,408.914981 305.783418,408.178779 304.995843,407.573904 C298.973965,410.060308 291.561974,407.217032 291.561974,407.217032 C291.561974,407.217032 281.632593,402.250077 282.351013,403.665864 C282.590486,404.145593 282.467829,405.099202 282.199152,406.163968 C277.444731,405.163556 274.822206,402.606949 273.397048,400.313607 L278.811481,394.463247 C278.811481,394.463247 256.844185,382.042932 254.367681,375.654339 C251.891176,369.265745 239.841581,351.170581 239.841581,351.170581 C239.841581,351.170581 235.945759,336.977607 228.860853,333.78331 C228.860853,333.78331 214.731928,316.875769 206.47886,302.378576 C209.399266,295.071476 213.487835,283.657423 212.564987,278.784073 C211.396824,272.711399 212.605872,261.232992 213.09066,257.172842 C217.009845,260.449044 232.949422,273.419292 239.134842,273.109223 C241.360192,272.998067 243.754925,271.804593 246.003638,270.213295 C251.353822,266.820086 256.143288,260.688908 256.143288,260.688908 C255.419027,260.759113 254.829105,260.103872 254.350159,258.992304 C260.266901,252.556908 272.520926,239.311692 273.858472,239.042575 C275.610716,238.685703 285.195489,222.012177 279.880349,218.461008 C274.56521,214.909839 265.0038,227.687026 264.647511,230.161728 C264.408037,231.846632 256.996047,239.241488 252.253307,243.82817 C252.253307,243.711163 252.253307,243.646809 252.253307,243.646809 L251.552409,243.997831 C251.552409,243.775517 251.552409,243.646809 251.552409,243.646809 L239.315907,249.772136 L228.878376,235.485556 C228.878376,235.485556 226.045582,220.227817 218.948995,217.741414 C211.852408,215.25501 206.613199,207.596889 206.613199,207.596889 C206.547408,207.845499 206.494767,208.097415 206.455497,208.351585 C206.099207,207.877706 205.906461,207.596889 205.906461,207.596889 C205.906461,207.596889 205.906461,207.661243 205.859734,207.766549 C205.324655,205.582017 205.188122,203.318608 205.456718,201.085438 L205.556012,201.026934 C205.596898,200.751967 205.643624,200.488701 205.690351,200.237136 C213.17746,195.688644 216.227093,186.345838 212.868709,178.245631 C214.67352,176.981953 217.290204,176.198005 219.515553,175.238546 C222.662231,173.952706 225.418696,171.86534 227.511626,169.183423 C226.292562,168.877733 225.014079,168.903991 223.808551,169.259478 C223.656689,167.615526 225.560794,165.749262 224.077228,164.497284 C223.166061,163.719187 221.466385,163.789391 220.169724,164.175515 C218.873064,164.561638 217.687379,165.193477 216.308947,165.345587 C213.908374,165.638105 211.636298,164.473883 209.92494,163.216056 C208.213582,161.958228 206.601517,160.483937 204.311919,159.887201 C199.761926,158.717128 195.252819,161.414145 190.685304,162.560815 C183.349243,164.397828 179.003679,166.363549 178.647389,171.043838 C177.703202,171.67942 176.833304,172.419256 176.054069,173.249423 C174.477514,174.622132 173.387327,176.469448 172.946756,178.514748 C172.32763,181.697344 173.612609,184.950144 175.166265,187.781718 C176.048228,189.402268 180.288658,197.797535 183.168178,196.691817 C183.965202,197.60895 184.853729,198.44208 185.819907,199.17822 C185.726454,200.14353 185.592115,201.12054 185.440254,202.1034 C184.790501,202.458913 184.08557,202.702186 183.355084,202.822995 C181.77,203.117864 180.160218,203.258926 178.548095,203.244221 C176.028149,203.225554 173.511024,203.071272 171.007607,202.782042 C168.574325,202.500507 166.126849,202.359865 163.677387,202.360816 C162.456413,202.356785 161.236033,202.415365 160.021039,202.536327 L159.834133,202.536327 L159.109872,202.624083 L158.998896,202.624083 L158.210387,202.75279 L158.122775,202.75279 L157.480285,202.881498 L157.334265,202.91075 L156.680094,203.06871 L156.037605,203.250071 L155.93247,203.279323 L155.43016,203.437283 L155.319185,203.472385 C154.939532,203.601093 154.583242,203.741501 154.244475,203.88191 L154.139341,203.928713 L153.718802,204.110074 L153.642871,204.145176 L153.169766,204.36749 L153.12888,204.36749 L152.720023,204.572252 L152.620729,204.624906 L152.223554,204.829668 L151.721244,205.092935 L151.417522,205.250894 L151.277342,205.326949 L150.862645,205.537562 C147.317272,207.29267 112.955772,216.536239 106.933895,234.988276 L107.056552,235.099433 L107.190891,235.22229 C107.091597,235.491407 106.992303,235.760523 106.904691,236.02964 C106.904691,236.02964 107.488772,236.556172 108.399939,237.410325 C106.782034,244.465859 102.448151,262.49667 100.170234,263.350822 C97.3374401,264.415588 94.1483566,286.061921 101.589552,285.354027 C109.030747,284.646134 109.030747,267.258863 109.030747,267.258863 C109.030747,267.258863 113.937029,254.083852 117.552492,247.39689 C118.175799,248.229629 118.655535,249.161006 118.971809,250.15241 L118.971809,250.228464 L118.971809,250.15826 C119.059433,250.462604 119.073448,250.783472 119.012695,251.094318 C119.363144,250.064654 121.179636,245.337563 124.970323,245.969402 C129.018006,246.648044 144.309253,231.559965 145.757775,230.114926 C145.72273,230.5069 145.676003,230.99833 145.629277,231.565815 C145.629277,231.899285 145.570869,232.256157 145.541665,232.642281 L145.541665,232.765139 L145.541665,233.057657 L145.541665,233.250719 L145.541665,233.549087 L145.541665,233.7597 L145.541665,234.058068 L145.541665,234.327185 L145.512461,234.765962 L145.512461,235.122834 L145.512461,235.374399 L145.512461,235.731271 L145.512461,235.971136 L145.512461,236.345559 L145.512461,236.597125 L145.512461,237.00665 L145.512461,237.240664 L145.471575,237.884204 L145.471575,237.971959 L145.43653,238.556995 L145.43653,238.761758 L145.43653,239.253188 L145.43653,239.487203 L145.43653,239.990334 L145.43653,240.200947 L145.407326,240.785983 L145.407326,240.90299 C145.407326,241.156506 145.395644,241.411971 145.372281,241.669387 L145.372281,241.71619 C145.372281,241.950204 145.362546,242.184219 145.343077,242.418233 L145.343077,242.622996 L145.343077,243.208032 L145.343077,243.442046 C145.343077,243.637058 145.343077,243.83207 145.343077,244.027082 L145.343077,244.225995 C145.343077,244.760327 145.325555,245.300511 145.29051,245.846544 L145.29051,245.963552 C145.29051,246.193666 145.29051,246.42378 145.29051,246.653894 L145.29051,246.864507 C145.29051,247.07122 145.29051,247.277933 145.29051,247.484645 L145.29051,247.701109 C145.29051,247.927323 145.29051,248.155487 145.29051,248.385601 L145.29051,248.520159 C145.29051,249.077893 145.29051,249.639528 145.29051,250.205063 C145.29051,250.263566 145.29051,250.32207 145.29051,250.386424 C145.29051,250.604837 145.29051,250.823251 145.29051,251.041664 C145.29051,251.115769 145.29051,251.191824 145.29051,251.269828 C145.29051,251.476541 145.29051,251.685204 145.29051,251.895817 C145.29051,251.954321 145.29051,252.012824 145.29051,252.071328 C145.29051,259.811354 145.763616,267.69179 147.498337,272.184866 C148.4188,274.600178 148.909072,277.158513 148.946858,279.743532 C148.78323,284.41719 147.560899,288.99242 145.372281,293.123306 L145.786979,292.994598 L145.711048,293.129156 L145.93884,293.058952 C145.588391,293.790247 145.354759,294.193922 145.354759,294.193922 C145.354759,294.193922 145.86875,294.030112 146.785758,293.760995 C145.477416,298.38278 144.607135,305.496818 147.124525,314.424468 C147.124525,314.424468 148.543842,322.228848 147.480814,325.072124 C146.417787,327.915399 145.354759,350.620647 145.354759,350.620647 C145.354759,350.620647 143.228703,353.458072 139.332881,351.685413 C135.437059,349.912753 87.6124875,343.881032 87.6124875,343.881032 C87.6124875,343.881032 87.5015121,344.074094 87.3146061,344.419265 C85.8427214,343.957087 83.7225065,343.249193 82.1746912,342.599803 C82.7587724,341.792453 83.2786047,341.330275 83.7166657,341.394629 C83.7166657,341.394629 81.1642306,340.160203 78.384004,339.183193 L77.8758533,339.007682 L77.3793842,338.843872 L77.3443394,338.843872 L76.8712336,338.697613 L76.8186662,338.697613 L76.3864461,338.574755 L76.2988339,338.574755 L75.8899771,338.469449 L75.7848424,338.469449 L75.393508,338.381693 L75.2825326,338.381693 L74.9320838,338.311489 L74.7977452,338.311489 L74.4823413,338.258836 L74.3304802,338.258836 L74.0442804,338.223733 L73.8865784,338.223733 L73.6179011,338.223733 L73.0747055,338.223733 L72.8585954,338.223733 L72.7184159,338.223733 L72.5256691,338.264686 L72.3971713,338.264686 L72.2336285,338.32319 L72.1168123,338.364142 C72.0643841,338.390137 72.0136611,338.419448 71.9649512,338.451898 L71.877339,338.504551 C71.8060303,338.557006 71.7413121,338.617901 71.6845922,338.685912 C69.9323484,340.815443 60.0029674,381.621706 64.5996867,384.459131 L64.996862,384.698996 L65.1604047,384.792601 L65.370674,384.909609 L65.5751024,385.014915 L65.7211227,385.09097 L65.9430736,385.196276 L66.054049,385.24893 L66.2818407,385.348386 L66.3636121,385.383488 L66.5972446,385.471243 L66.6498119,385.471243 L66.8892852,385.547298 L66.9184893,385.547298 C69.4884467,386.243491 70.3412053,383.862394 73.4543583,378.76088 C76.5032624,373.764672 80.4224475,367.463834 83.8451635,365.12954 C83.9210941,365.299201 83.9970247,365.468861 84.078796,365.632671 C84.078796,365.632671 119.859613,369.534862 132.966396,373.823176 C146.073179,378.11149 156.329645,383.768788 164.85139,373.823176 C172.479491,364.913077 180.101752,336.018148 181.591159,330.161937 L181.81311,329.284383 L181.81311,329.208328 L181.81311,329.132274 L210.152731,350.778607 L222.552776,365.328453 C222.552776,365.328453 239.91167,389.812211 243.100754,390.169083 C246.289837,390.525955 260.652395,413.956647 260.652395,413.956647 L261.18975,413.371611 C261.318248,414.021001 261.417541,414.617738 261.493472,415.12672 C260.32531,417.940743 261.40586,421.333952 262.468888,423.568789 L262.515614,423.662395 L262.638271,423.90811 L262.70252,424.036818 L262.819336,424.264982 L262.877745,424.376139 L263.000402,424.610154 L263.064651,424.72131 L263.158104,424.890971 L263.20483,424.978726 L263.327487,425.189339 L263.380054,425.277095 L263.455985,425.399952 L263.496871,425.470157 L263.590324,425.622266 L263.625369,425.68077 L263.683777,425.768525 L263.683777,425.809477 L263.742185,425.903083 L263.77723,425.949886 C263.77723,425.949886 300.977364,417.08074 305.579924,414.249166 C305.725944,414.16141 305.860283,414.067804 305.988781,413.974199 L306.105597,413.880593 L306.339229,413.693381 L306.456046,413.582224 L306.637111,413.412564 L306.742246,413.289706 L306.882425,413.125896 L307.022605,413.061542 Z" id="Shape" fill="url(#linearGradient-3)" fill-rule="nonzero"></path>
                    <path d="M90.7223038,343.895682 C90.7223038,343.895682 82.5297092,341.430542 82.1888326,340.376605 C81.8479559,339.322668 75.0188679,359.722598 75.0188679,359.722598 L81.8479559,364.646925 C81.8479559,364.646925 89.0179206,360.425223 92.7733412,361.127848 C96.5287618,361.830472 90.7223038,343.895682 90.7223038,343.895682 Z" id="Shape" fill="#4C4C56" fill-rule="nonzero"></path>
                    <path d="M269.345559,393.18451 C269.345559,393.18451 270.371324,402.71461 281.672115,403.739096 C292.972907,404.763581 274.138254,413.269195 274.138254,413.269195 L259.76017,414.323462 C259.76017,414.323462 259.418249,408.36715 257.019004,403.768877 C254.619759,399.170604 269.345559,393.18451 269.345559,393.18451 Z" id="Shape" fill="#4C4C56" fill-rule="nonzero"></path>
                    <path d="M150.238431,287.842222 C150.238431,287.842222 143.689373,297.831736 148.172151,313.681997 C148.172151,313.681997 149.549671,321.263064 148.516531,324.015574 C147.483391,326.768085 146.45025,348.823157 146.45025,348.823157 C146.45025,348.823157 144.38397,351.581499 140.613301,349.855349 C136.842632,348.129198 90.2696127,342.274282 90.2696127,342.274282 C90.2696127,342.274282 82.6815785,355.366201 86.8199757,363.268005 C86.8199757,363.268005 121.649053,367.058539 134.408624,371.193136 C147.168195,375.327733 157.172726,380.838586 165.443684,371.193136 C173.714641,361.547686 181.997272,327.782781 181.997272,327.782781 L209.582695,348.776505 L221.653506,362.900615 C221.653506,362.900615 238.551475,386.670176 241.656732,387.014239 C244.761989,387.358303 259.24346,410.095672 259.24346,410.095672 L276.830189,391.148837 C276.830189,391.148837 255.414421,379.141593 253.003761,372.936781 C250.593101,366.73197 238.86667,349.167221 238.86667,349.167221 C238.86667,349.167221 235.072653,335.387174 228.179216,332.284769 C228.179216,332.284769 203.348833,302.65446 200.938173,288.874414 C198.527513,275.094367 159.548365,281.649074 159.548365,281.649074 L150.238431,287.842222 Z" id="Shape" fill="#2A1EBD" fill-rule="nonzero"></path>
                    <path d="M253.011022,372.768621 C250.594669,366.54647 238.874775,348.910214 238.874775,348.910214 C238.874775,348.910214 235.080985,335.078659 228.187959,331.964657 C228.187959,331.964657 203.35906,302.223596 200.948544,288.392042 C200.452433,285.541442 198.39795,283.557144 195.456303,282.205011 L190.646944,296.692145 L184.080769,316.476594 C182.814226,320.293003 181.611887,324.548416 181.746128,328.493599 C181.91539,327.838019 182.002939,327.475109 182.002939,327.475109 L209.586713,348.547304 L221.656803,362.724208 C221.656803,362.724208 238.553762,386.582615 241.658833,386.927965 C244.763905,387.273315 259.244511,410.095672 259.244511,410.095672 L276.830189,391.078016 C276.830189,391.078016 255.421538,378.996625 253.011022,372.768621 Z" id="Shape" fill="#2A1EBD" fill-rule="nonzero" opacity="0.1"></path>
                    <path d="M206.02259,199.282314 C206.02259,199.282314 203.152148,206.718223 206.872241,213.638887 C210.592334,220.559552 205.345166,232.837584 201.952303,233.546045 C198.55944,234.254506 184.993731,225.243589 183.977594,219.365123 C182.961457,213.486656 188.386593,201.37842 185.699859,193.421412 L206.02259,199.282314 Z" id="Shape" fill="#FDC2CC" fill-rule="nonzero"></path>
                    <path d="M458.566038,404.083162 C454.406006,406.226386 450.04732,408.077618 445.747062,409.92301 C429.860647,416.627155 413.734679,423.389699 396.66803,425.690599 C364.638119,430.006246 331.556515,418.320711 300.069979,425.591321 C273.689999,431.676443 251.873201,450.323077 226.100866,458.62734 C214.117403,462.487479 201.648992,464 189.069568,464 L187.416072,464 C185.858008,463.980534 184.311629,463.941602 182.776935,463.883203 C170.02223,463.404336 157.21494,461.518065 144.711472,459.106208 C105.232065,451.514406 65.0515291,437.598048 34.8679245,411.978636 C122.760291,395.901535 303.797648,371.269058 458.566038,404.083162 Z" id="Shape" fill="#252223" fill-rule="nonzero" opacity="0.1"></path>
                    <path d="M277.931185,407.797265 C277.931185,407.797265 280.354481,402.229911 279.687196,400.833654 C279.019912,399.437397 288.637004,404.333134 288.637004,404.333134 C288.637004,404.333134 295.901039,407.119756 301.777825,404.680725 C301.777825,404.680725 306.963914,408.510122 302.468523,411.290853 C297.973133,414.071584 261.664662,422.779043 261.664662,422.779043 C261.664662,422.779043 256.133224,414.772658 260.628615,410.248079 L277.931185,407.797265 Z" id="Shape" fill="#8F8F8F" fill-rule="nonzero"></path>
                    <path d="M187.648871,211.389522 C187.648871,211.389522 198.32469,233.125603 210.038355,217.597328 C210.038355,217.597328 221.75202,241.400731 217.962134,245.196661 C215.267136,247.823293 212.389301,250.254912 209.350345,252.473168 L203.152423,295.94533 C203.152423,295.94533 168.017258,283.868432 153.207547,285.941594 L175.946867,231.432034 L187.648871,211.389522 Z" id="Shape" fill="#000000" fill-rule="nonzero" opacity="0.1"></path>
                    <path d="M187.648871,210.332574 C187.648871,210.332574 198.32469,232.076164 210.038355,216.542525 C210.038355,216.542525 221.75202,240.354151 217.962134,244.151392 C215.266148,246.768876 212.388337,249.191554 209.350345,251.401203 L203.152423,294.888383 C203.152423,294.888383 168.017258,282.807312 153.207547,284.88119 L175.946867,230.3528 L187.648871,210.332574 Z" id="Shape" fill="#FFFFFF" fill-rule="nonzero"></path>
                    <path d="M111.231356,235.699317 C111.231356,235.699317 105.293153,262.78652 102.46063,263.826979 C99.6281065,264.867438 96.522426,286.052829 103.862046,285.35919 C111.201665,284.665551 111.231356,267.647874 111.231356,267.647874 C111.231356,267.647874 118.951021,247.156122 122.104207,244.722506 C125.257393,242.28889 111.231356,235.699317 111.231356,235.699317 Z" id="Shape" fill="#FDC2CC" fill-rule="nonzero"></path>
                    <path d="M246.188679,248.703355 C246.188679,248.703355 261.95801,234.232589 262.307912,231.817878 C262.657814,229.403167 272.11704,217.002986 277.371507,220.44424 C282.625973,223.885495 273.166747,240.082721 271.440958,240.432679 C269.715168,240.782637 249.017551,263.179954 249.017551,263.179954 L246.188679,248.703355 Z" id="Shape" fill="#FDC2CC" fill-rule="nonzero"></path>
                    <path d="M185.910306,205.047836 C185.910306,205.047836 184.00456,207.289463 171.186215,205.911796 C158.367871,204.53413 155.24831,206.945046 151.788647,208.672967 C148.328984,210.400887 114.723343,219.361557 108.830189,237.277059 C108.830189,237.277059 121.994499,249.004737 120.610634,252.104486 C120.610634,252.104486 122.369785,246.266916 126.47447,246.932399 C130.579154,247.597882 146.9158,231.410301 146.9158,231.410301 C146.9158,231.410301 143.79624,261.765664 147.953699,272.448417 C152.111158,283.13117 145.877901,293.831435 145.877901,293.831435 C145.877901,293.831435 175.326083,284.491323 188.490394,289.003765 C188.490394,289.003765 196.11338,254.859819 189.528293,241.065642 C182.943205,227.271464 192.301887,214.16612 192.301887,214.16612 L185.910306,205.047836 Z" id="Shape" fill="#000000" fill-rule="nonzero" opacity="0.1"></path>
                    <path d="M186.950669,203.990888 C186.950669,203.990888 185.045324,206.232073 172.22968,204.854678 C159.414037,203.477284 156.295134,205.887724 152.8362,207.615304 C149.377266,209.342884 115.778705,218.301787 109.886792,236.213755 C109.886792,236.213755 123.048329,247.93912 121.664756,251.038258 C121.664756,251.038258 123.423536,245.20184 127.527356,245.867192 C131.631176,246.532543 147.964379,230.348155 147.964379,230.348155 C147.964379,230.348155 144.845476,260.697531 149.002059,271.378177 C153.158643,282.058823 146.932562,292.774487 146.932562,292.774487 C146.932562,292.774487 176.374539,283.436218 189.536075,287.947769 C189.536075,287.947769 197.157455,253.810557 190.573756,240.0191 C183.990056,226.227643 193.358491,213.119047 193.358491,213.119047 L186.950669,203.990888 Z" id="Shape" fill="#000000" fill-rule="nonzero" opacity="0.1"></path>
                    <path d="M185.894065,203.990888 C185.894065,203.990888 183.98872,206.232515 171.173077,204.854849 C158.357433,203.477182 155.23853,205.888099 151.779596,207.616019 C148.320662,209.34394 114.722102,218.30461 108.830189,236.220111 C108.830189,236.220111 121.991726,247.947789 120.608152,251.047539 C120.608152,251.047539 122.366932,245.209969 126.470752,245.875452 C130.574572,246.540935 146.907775,230.353354 146.907775,230.353354 C146.907775,230.353354 143.788872,260.708717 147.945456,271.391469 C152.102039,282.074222 145.870095,292.774487 145.870095,292.774487 C145.870095,292.774487 175.312072,283.434376 188.473609,287.946817 C188.473609,287.946817 196.094989,253.802871 189.511289,240.008694 C182.927589,226.214517 192.301887,213.120848 192.301887,213.120848 L185.894065,203.990888 Z" id="Shape" fill="#FB1D5C" fill-rule="nonzero"></path>
                    <path d="M204.702282,210.332574 C204.702282,210.332574 209.675817,217.735971 216.529661,220.149362 C223.383505,222.562753 226.128525,237.369547 226.128525,237.369547 L236.412193,251.488467 L248.756076,245.309253 C248.756076,245.309253 249.098478,262.185501 252.528302,261.841564 C252.528302,261.841564 243.956644,272.865047 237.096997,273.208984 C230.237349,273.552922 211.045425,256.968146 211.045425,256.968146 C211.045425,256.968146 208.991013,272.124707 210.360621,279.353221 C211.730229,286.581735 201.788963,308.628702 201.788963,308.628702 L188.075472,305.871373 C188.075472,305.871373 195.277521,278.321409 204.191581,273.844394 C204.191581,273.844394 204.191581,255.24846 202.821973,250.771445 C201.452365,246.29443 211.736033,229.418182 210.366424,225.972979 C209.594569,224.043432 206.576788,219.910355 205.050488,216.156191 C204.34994,214.295207 204.228515,212.264404 204.702282,210.332574 Z" id="Shape" fill="#F8E71C" fill-rule="nonzero" opacity="0.1"></path>
                    <path d="M205.763192,209.275626 C205.763192,209.275626 210.736279,216.67639 217.589506,219.088923 C224.442733,221.501455 227.187505,236.302982 227.187505,236.302982 L237.470247,250.41688 L249.813019,244.222382 C249.813019,244.222382 250.155391,261.092627 253.584906,260.748812 C253.584906,260.748812 245.01402,271.768374 238.15499,272.112189 C231.29596,272.456004 212.099961,255.929575 212.099961,255.929575 C212.099961,255.929575 210.045734,271.080744 211.415218,278.306687 C212.784703,285.532629 202.844332,307.571754 202.844332,307.571754 L189.132075,304.815407 C189.132075,304.815407 196.333477,277.275242 205.246734,272.799819 C205.246734,272.799819 205.246734,254.2105 203.877249,249.735077 C202.507764,245.259655 212.790506,228.38941 211.421021,224.945432 C210.649235,223.016572 207.631726,218.884964 206.105563,215.132136 C205.399809,213.260615 205.280352,211.21722 205.763192,209.275626 Z" id="Shape" fill="#000000" fill-rule="nonzero" opacity="0.1"></path>
                    <path d="M205.757389,209.275626 C205.757389,209.275626 210.730476,216.67639 217.583703,219.088923 C224.43693,221.501455 227.181703,236.302982 227.181703,236.302982 L237.470247,250.41688 L249.813019,244.222382 C249.813019,244.222382 250.155391,261.092627 253.584906,260.748812 C253.584906,260.748812 245.01402,271.768374 238.15499,272.112189 C231.29596,272.456004 212.099961,255.929575 212.099961,255.929575 C212.099961,255.929575 210.045734,271.080744 211.415218,278.306687 C212.784703,285.532629 202.844332,307.571754 202.844332,307.571754 L189.132075,304.815407 C189.132075,304.815407 196.333477,277.275242 205.246734,272.799819 C205.246734,272.799819 205.246734,254.2105 203.877249,249.735077 C202.507764,245.259655 212.790506,228.38941 211.421021,224.945432 C210.649235,223.016572 207.631726,218.884964 206.105563,215.132136 C205.397883,213.261217 205.276401,211.21781 205.757389,209.275626 Z" id="Shape" fill="#FB1D5C" fill-rule="nonzero"></path>
                    <path d="M86.044646,340.463321 C86.044646,340.463321 76.2091555,335.603952 74.5096194,337.684021 C72.8100834,339.764089 63.3133517,379.684949 67.7229587,382.46425 C72.1325657,385.24355 72.4713246,383.157606 76.2034138,376.911525 C79.935503,370.665444 85.0226277,362.333418 88.754717,362.680097 C88.754717,362.680097 77.8972081,358.860762 78.2417087,357.47405 C78.5862092,356.087338 83.6733339,340.116643 86.044646,340.463321 Z" id="Shape" fill="#8F8F8F" fill-rule="nonzero"></path>
                    <path d="M185.543497,201.571038 C191.251457,205.779725 199.010796,206.204024 205.167416,202.644121 C205.337427,201.477585 205.629037,200.33092 206.037736,199.221858 L184.90566,193.421412 C185.77598,195.840198 185.835591,198.670816 185.543497,201.571038 Z" id="Shape" fill="#000000" fill-rule="nonzero" opacity="0.1"></path>
                    <path d="M198.351665,188.055808 C202.55089,188.412129 207.683276,187.636269 209.228824,184.820185 C209.677908,184.009842 209.771224,183.096051 210.22614,182.308697 C211.54423,179.97537 215.311868,179.02135 218.338809,177.711008 C221.398292,176.480547 224.07831,174.483533 226.113208,171.91792 C224.926497,171.625666 223.682062,171.651462 222.508873,171.992633 C222.363066,170.423671 224.200227,168.630573 222.771324,167.435174 C221.884821,166.693796 220.234293,166.762762 218.968693,167.130577 C217.703093,167.498392 216.559971,168.101838 215.212719,168.279999 C212.879817,168.561607 210.669391,167.446668 209.001366,166.239774 C207.33334,165.032881 205.770296,163.624839 203.542374,163.055875 C199.121523,161.906453 194.729833,164.521388 190.291486,165.613339 C181.187333,167.86046 176.772315,170.297235 179.245192,178.096065 C181.07652,183.871911 190.711408,187.406385 198.351665,188.055808 Z" id="Shape" fill="#865A61" fill-rule="nonzero"></path>
                    <ellipse id="Oval" fill="#FDC2CC" fill-rule="nonzero" cx="196" cy="187.6082" rx="17.4339623" ry="17.4396355"></ellipse>
                    <path d="M183.038727,184.81061 C183.879464,181.459863 186.307605,178.334424 189.688189,177.404303 C192.563155,176.612834 195.620379,177.473629 198.430673,178.473076 C201.240967,179.472523 204.104175,180.639507 207.084968,180.466193 C210.065762,180.292878 213.193537,178.270876 213.416949,175.347638 C213.471,174.895352 213.395669,174.437216 213.199416,174.02467 C212.895983,173.539449 212.468211,173.141022 211.958889,172.86924 C207.590586,170.130871 202.622597,167.975994 197.442955,168.056874 C193.180479,168.1262 189.106141,169.697585 185.143508,171.245861 C180.146123,173.198538 174.460862,175.93113 173.431989,181.119011 C172.844061,184.180901 174.084589,187.294785 175.607321,190.033154 C176.489213,191.616093 180.757568,199.923635 183.57962,198.55445 C184.7202,198.022953 182.497834,186.95971 183.038727,184.81061 Z" id="Shape" fill="#000000" fill-rule="nonzero" opacity="0.1"></path>
                    <path d="M184.095331,183.753662 C184.936067,180.402915 187.364209,177.277477 190.744793,176.347356 C193.619759,175.555886 196.676983,176.416681 199.487277,177.416128 C202.297571,178.415575 205.160779,179.58256 208.141572,179.409245 C211.122365,179.235931 214.250141,177.213928 214.473553,174.29069 C214.527603,173.838405 214.452273,173.380268 214.25602,172.967723 C213.952586,172.482502 213.524815,172.084074 213.015493,171.812293 C208.64719,169.073923 203.679201,166.919046 198.499559,166.999926 C194.237083,167.069252 190.162744,168.640637 186.200112,170.188913 C181.202727,172.14159 175.517466,174.874182 174.488593,180.062063 C173.900665,183.123953 175.141193,186.237837 176.663925,188.976206 C177.545817,190.559145 181.814171,198.866688 184.636224,197.497503 C185.776804,196.966005 183.560317,185.902762 184.095331,183.753662 Z" id="Shape" fill="#865A61" fill-rule="nonzero"></path>
                    <path d="M68.8050418,382.84278 C64.2659417,380.061132 74.0415557,340.106553 75.7910006,338.024727 C76.5534275,337.113194 78.9293628,337.530735 81.3584906,338.295247 C78.604297,337.336666 75.6196023,336.630963 74.7448798,337.707161 C72.9717938,339.788986 63.2198209,379.743566 67.758921,382.525214 C68.5307034,383.04737 69.3860941,383.435152 70.2885237,383.671982 C69.7760878,383.428638 69.2804984,383.151625 68.8050418,382.84278 Z" id="Shape" fill="#FFFFFF" fill-rule="nonzero" opacity="0.5"></path>
                    <path d="M304.784204,405.867882 C305.256793,407.037934 305.115016,408.436147 303.15968,409.623751 C298.622828,412.390925 261.979476,421.031765 261.979476,421.031765 C261.615159,420.491076 261.281851,419.930515 260.981132,419.352739 C261.370699,420.174224 261.820878,420.966155 262.32801,421.722096 C262.32801,421.722096 298.95364,413.081256 303.508214,410.314082 C305.853436,408.886618 305.587605,407.178341 304.784204,405.867882 Z" id="Shape" fill="#FFFFFF" fill-rule="nonzero" opacity="0.5"></path>
                    <path d="M364.670098,303.343964 C364.670098,303.343964 375.859937,314.675179 369.544765,331.491124 C363.229594,348.307068 380.377358,376.273349 380.377358,376.273349 L379.853015,376.185826 C356.868327,372.101454 345.448008,345.459677 358.228163,325.68548 C362.976065,318.327775 366.876951,309.703915 364.670098,303.343964 Z" id="Shape" fill="#FB1D5C" fill-rule="nonzero"></path>
                    <path d="M365.117202,303.343964 C365.117202,303.343964 371.703784,317.236664 365.117202,328.56788 C358.53062,339.899096 363.991495,371.704686 381.433962,376.273349" id="Shape" stroke="#535461"></path>
                    <path d="M344.45283,349.992044 C344.45283,349.992044 357.421851,347.921866 358.604045,359.568817 C359.786239,371.215767 383.54717,372.828512 383.54717,372.828512 L383.102384,373.127603 C363.484985,386.029562 344.733748,381.33794 347.560479,364.213522 C348.613919,357.844646 348.52028,351.446447 344.45283,349.992044 Z" id="Shape" fill="#FB1D5C" fill-rule="nonzero"></path>
                    <path d="M344.45283,349.992044 C344.45283,349.992044 357.421851,347.921866 358.604045,359.568817 C359.786239,371.215767 383.54717,372.828512 383.54717,372.828512 L383.102384,373.127603 C363.484985,386.029562 344.733748,381.33794 347.560479,364.213522 C348.613919,357.844646 348.52028,351.446447 344.45283,349.992044 Z" id="Shape" fill="#F5F5F5" fill-rule="nonzero" opacity="0.2"></path>
                    <path d="M344.45283,349.849658 C344.45283,349.849658 354.520545,352.100731 353.695226,361.414692 C352.869908,370.728654 368.650465,381.894688 383.54717,373.045234" id="Shape" stroke="#535461"></path>
                    <path d="M394.113208,374.600771 C394.113208,374.600771 386.037438,373.002237 383.888148,370.876587 C381.738857,368.750937 372.046775,365.021023 370.969233,367.685247 C369.891692,370.349471 356.434007,379.396375 365.587318,380.99491 C374.740629,382.593444 387.120773,383.126289 389.808834,382.060599 C392.496895,380.99491 394.113208,374.600771 394.113208,374.600771 Z" id="Shape" fill="#A8A8A8" fill-rule="nonzero"></path>
                    <path d="M365.565441,379.883388 C374.720194,381.560886 387.102289,382.120052 389.790773,381.00172 C391.841902,380.14794 393.267262,376.065427 393.846677,374.159453 L394.113208,374.219579 C394.113208,374.219579 392.49664,380.923557 389.808156,382.035876 C387.119671,383.148196 374.743371,382.595042 365.582823,380.917544 C362.940692,380.436542 362.187452,379.300172 362.471366,377.857163 C362.679955,378.801132 363.624401,379.522636 365.565441,379.883388 Z" id="Shape" fill="#000000" fill-rule="nonzero" opacity="0.2"></path>
                    <path d="M541.167815,387.899772 C541.167815,387.899772 548.746202,361.740061 539.745075,342.489031 C535.91846,334.437854 534.764994,325.342445 536.457857,316.568354 C537.292465,312.409045 538.500342,308.336204 540.066339,304.400911" id="Shape" stroke="#535461" stroke-width="2"></path>
                    <path d="M534.641509,292.824007 C534.641509,296.064967 540.45283,305.457859 540.45283,305.457859 C540.45283,305.457859 546.264151,296.059075 546.264151,292.824007 C545.980228,289.799565 543.475161,287.489749 540.478981,287.489749 C537.482802,287.489749 534.977734,289.799565 534.693811,292.824007 L534.641509,292.824007 Z" id="Shape" fill="#FB1D5C" fill-rule="nonzero"></path>
                    <path d="M525.828636,310.810937 C527.626039,313.500846 537.811321,318.14123 537.811321,318.14123 C537.811321,318.14123 537.625589,307.19528 535.834178,304.511193 C533.920768,302.146067 530.468224,301.587078 527.869101,303.221594 C525.269977,304.856111 524.380323,308.145789 525.816654,310.810937 L525.828636,310.810937 Z" id="Shape" fill="#FB1D5C" fill-rule="nonzero"></path>
                    <path d="M525.741304,340.635849 C528.688389,342.034366 539.924528,341.070066 539.924528,341.070066 C539.924528,341.070066 534.06637,332.007906 531.119285,330.609389 C529.191414,329.490362 526.757079,329.486841 524.82555,330.600285 C522.89402,331.713729 521.794615,333.754299 521.983144,335.875982 C522.171674,337.997665 523.615995,339.838719 525.717295,340.635849 L525.741304,340.635849 Z" id="Shape" fill="#FB1D5C" fill-rule="nonzero"></path>
                    <path d="M531.332644,364.044579 C533.980617,365.914497 545.207547,366.76082 545.207547,366.76082 C545.207547,366.76082 541.073832,356.759334 538.425859,354.889417 C535.781149,353.378737 532.367153,354.029926 530.53379,356.394757 C528.700426,358.759588 529.045999,362.066318 531.332644,364.038861 L531.332644,364.044579 Z" id="Shape" fill="#FB1D5C" fill-rule="nonzero"></path>
                    <path d="M549.05642,317.957627 C546.698368,320.123734 535.698113,322.369021 535.698113,322.369021 C535.698113,322.369021 538.39132,312.047491 540.749373,309.881383 C543.155563,308.048283 546.643072,308.248083 548.797293,310.342452 C550.951515,312.43682 551.063805,315.736802 549.05642,317.957627 Z" id="Shape" fill="#FB1D5C" fill-rule="nonzero"></path>
                    <path d="M555.164356,344.86364 C552.217271,346.262156 540.981132,345.297857 540.981132,345.297857 C540.981132,345.297857 546.83929,336.235696 549.786375,334.83718 C551.714246,333.718153 554.148581,333.714631 556.080111,334.828075 C558.01164,335.941519 559.111046,337.98209 558.922516,340.103773 C558.733986,342.225455 557.289666,344.06651 555.188365,344.86364 L555.164356,344.86364 Z" id="Shape" fill="#FB1D5C" fill-rule="nonzero"></path>
                    <path d="M558.025847,372.50016 C555.377873,374.370077 544.150943,375.216401 544.150943,375.216401 C544.150943,375.216401 548.284658,365.214915 550.932632,363.344998 C553.577341,361.834318 556.991338,362.485507 558.824701,364.850338 C560.658064,367.215169 560.312492,370.521899 558.025847,372.494441 L558.025847,372.50016 Z" id="Shape" fill="#FB1D5C" fill-rule="nonzero"></path>
                    <path d="M557.886792,386.167812 C557.886792,386.167812 543.892216,383.292512 540.160329,379.458779 C536.428442,375.625047 519.63495,368.916014 517.769007,373.70818 C515.903063,378.500346 492.578769,394.79371 508.439289,397.66901 C524.299809,400.544309 545.75816,401.502743 550.417224,399.585876 C555.076287,397.66901 557.886792,386.167812 557.886792,386.167812 Z" id="Shape" fill="#A8A8A8" fill-rule="nonzero"></path>
                    <path d="M508.436831,395.083112 C524.299998,397.804667 545.761931,398.711851 550.421772,396.897482 C553.974612,395.516983 556.443633,388.879321 557.417331,385.785877 L557.886792,385.881667 C557.886792,385.881667 555.08741,396.767884 550.421772,398.582253 C545.756135,400.396623 524.294202,399.489438 508.436831,396.767884 C503.858131,395.984662 502.548275,394.136485 503.04092,391.803724 C503.435036,393.32509 505.028887,394.497105 508.436831,395.083112 Z" id="Shape" fill="#000000" fill-rule="nonzero" opacity="0.2"></path>
                </g>
            </g>
        </g>
    </g>
</svg>