<?xml version="1.0" encoding="UTF-8"?>
<svg width="152px" height="153px" viewBox="0 0 152 153" version="1.1" xmlns="http://www.w3.org/2000/svg" xmlns:xlink="http://www.w3.org/1999/xlink">
    <!-- Generator: Sketch 51.3 (57544) - http://www.bohemiancoding.com/sketch -->
    <title>Group 2</title>
    <desc>Created with Sketch.</desc>
    <defs></defs>
    <g id="Page-1" stroke="none" stroke-width="1" fill="none" fill-rule="evenodd">
        <g id="Group-2" fill="#89E0A7" fill-rule="nonzero">
            <path d="M151.150706,76.3970457 C151.150706,107.098319 132.828487,134.776547 104.727671,146.525416 C76.6268557,158.274285 44.2814175,151.780055 22.7739842,130.070977 C1.26655093,108.361898 -5.16735674,75.7132017 6.47238228,47.3489237 C18.1121213,18.9846456 45.5332597,0.490644783 75.9493636,0.490644783 C117.481918,0.490644783 151.150706,34.4750981 151.150706,76.3970457 Z M67.259163,116.578617 L123.043025,60.2717468 C123.954858,59.353883 124.46733,58.1074805 124.46733,56.8076436 C124.46733,55.5078067 123.954858,54.2614043 123.043025,53.3435404 L116.179172,46.4659789 C115.271549,45.54621 114.038385,45.0291823 112.752262,45.0291823 C111.46614,45.0291823 110.232975,45.54621 109.325353,46.4659789 L63.8272363,92.3906682 L42.5834089,70.8970223 C40.6849547,68.991306 37.6180095,68.991306 35.7195554,70.8970223 L28.8557018,77.8657444 C26.9676868,79.7819977 26.9676868,82.8776975 28.8557018,84.7939508 L60.3953095,116.619132 C61.3046477,117.539514 62.539473,118.056791 63.8272363,118.056791 C65.1149996,118.056791 66.3498248,117.539514 67.259163,116.619132 L67.259163,116.578617 Z" id="Shape"></path>
        </g>
    </g>
</svg>