<?xml version="1.0" encoding="UTF-8"?>
<svg width="53px" height="42px" viewBox="0 0 53 42" version="1.1" xmlns="http://www.w3.org/2000/svg" xmlns:xlink="http://www.w3.org/1999/xlink">
    <!-- Generator: Sketch 51.3 (57544) - http://www.bohemiancoding.com/sketch -->
    <title>cookies</title>
    <desc>Created with Sketch.</desc>
    <defs></defs>
    <g id="Welcome" stroke="none" stroke-width="1" fill="none" fill-rule="evenodd">
        <g id="Cookie-Bar" transform="translate(-458.000000, -49.000000)" fill-rule="nonzero">
            <g id="Group-2" transform="translate(438.000000, 40.000000)">
                <g id="cookies" transform="translate(20.000000, 9.000000)">
                    <path d="M48.6514308,11.5120118 C46.4129304,11.5115756 44.5405076,9.906439 44.3240946,7.80249846 C42.1776332,8.81232012 39.5707458,7.98788688 38.5012683,5.96093707 C37.5135519,4.08884111 38.1763023,1.81477942 40.0392557,0.683582863 C30.4966432,-1.94337115 20.5057303,3.23223753 17.7238878,12.2435328 C14.9420453,21.254828 20.4228143,30.6894631 29.9654267,33.3164171 C39.5080391,35.9433711 49.4989521,30.7677625 52.2807946,21.7564672 C53.4356132,18.0155469 53.1941406,14.013447 51.5966801,10.4206193 C50.7959289,11.122369 49.7438891,11.5122299 48.6514308,11.5120118 Z" id="Shape" fill="#FFD782"></path>
                    <ellipse id="Oval" fill="#D3843D" cx="15.5" cy="27" rx="15.5" ry="15"></ellipse>
                    <g id="Group" transform="translate(24.000000, 7.000000)" fill="#B5554E">
                        <ellipse id="Oval" cx="1.83045977" cy="1.85319444" rx="1.83045977" ry="1.74603175"></ellipse>
                        <ellipse id="Oval" cx="18.5242529" cy="16.9039881" rx="3.07700287" ry="2.93507937"></ellipse>
                    </g>
                    <path d="M33.6077778,15.4574752 L35.457483,13.6077661 C36.267836,12.7974113 37.5817775,12.7974113 38.3922353,13.6077661 C39.2025882,14.4181208 39.2025882,15.7320652 38.3922353,16.5425248 L36.5424253,18.3922339 C35.7320723,19.2025887 34.4181308,19.2025887 33.607673,18.3922339 C32.7974249,17.5817744 32.7974249,16.2679348 33.6077778,15.4574752 Z" id="Shape" fill="#D3843D"></path>
                    <path d="M6.35227886,30.3741136 L4.62581388,28.6476719 C3.79139537,27.8132647 3.79139537,26.4603206 4.62581388,25.6258054 C5.46023238,24.7913982 6.81319472,24.7913982 7.64772114,25.6258054 L9.37418612,27.3522471 C10.2086046,28.1866544 10.2086046,29.5395985 9.37418612,30.3741136 C8.5396597,31.2086288 7.18669736,31.2086288 6.35227886,30.3741136 Z" id="Shape" fill="#FFD782"></path>
                    <g id="Group" transform="translate(11.000000, 19.000000)" fill="#B5554E">
                        <ellipse id="Oval" cx="1.83045977" cy="17.0961575" rx="1.83045977" ry="1.69918699"></ellipse>
                        <ellipse id="Oval" cx="10.9827586" cy="1.80347459" rx="1.83045977" ry="1.69918699"></ellipse>
                    </g>
                    <path d="M47.9970753,20 C47.7309955,20 47.4759501,19.8941743 47.2878635,19.7060953 L45.2816066,17.6999201 C44.8967814,17.3014435 44.9076905,16.6663637 45.3061832,16.2815542 C45.6948955,15.9061486 46.3111926,15.9061486 46.7000302,16.2815542 L48.7062871,18.2877294 C49.0980088,18.6795605 49.0978834,19.3146404 48.7060363,19.7063461 C48.5180751,19.8942996 48.2630297,20 47.9970753,20 Z" id="Shape" fill="#D3843D"></path>
                    <g id="Group" transform="translate(14.000000, 25.000000)" fill="#B5554E">
                        <path d="M20.1350575,6.84251944 C19.6296218,6.8424125 19.219942,6.4593375 19.2200564,5.98675 C19.2200564,5.75992083 19.3164987,5.54250278 19.4879899,5.38208611 L21.3184497,3.670975 C21.6820248,3.34265556 22.2613653,3.35206667 22.6125848,3.69193611 C22.955224,4.02346389 22.955224,4.54920278 22.6125848,4.88073056 L20.782125,6.59184167 C20.6105194,6.75225833 20.3778222,6.84251944 20.1350575,6.84251944 Z" id="Shape"></path>
                        <path d="M0.915229885,3.42029722 C0.409794181,3.42019028 0.000114403736,3.03711528 0.000228807471,2.56452778 C0.000228807471,2.33769861 0.0966711566,2.12028056 0.268162356,1.95986389 L2.09862213,0.248752778 C2.4621972,-0.0794597222 3.04165212,-0.0701555556 3.39275718,0.269713889 C3.73528197,0.601241667 3.73528197,1.12687361 3.39275718,1.45850833 L1.56229741,3.16961944 C1.39069181,3.33003611 1.15799461,3.42029722 0.915229885,3.42029722 Z" id="Shape"></path>
                        <path d="M13.7284483,4.27585278 C13.4856835,4.27585278 13.2529864,4.18559167 13.0813807,4.025175 L11.250921,2.31406389 C10.8997015,1.97419444 10.909769,1.43262778 11.2733441,1.10430833 C11.6279957,0.784116667 12.1902901,0.784116667 12.545056,1.10430833 L14.3755158,2.81541944 C14.7329131,3.14962083 14.7327987,3.69129444 14.375287,4.02538889 C14.2037958,4.18569861 13.9710986,4.27585278 13.7284483,4.27585278 Z" id="Shape"></path>
                    </g>
                    <path d="M34.0008596,9.99999937 C33.666275,10.0003744 33.3536878,9.8333818 33.1679603,9.55501921 L31.168202,6.55515299 C30.8617391,6.09567348 30.9857241,5.47470118 31.4451685,5.16821484 C31.904613,4.86172851 32.5255379,4.98572298 32.8320009,5.44520249 L34.8317591,8.44506871 C35.1382221,8.90442323 35.014362,9.52539553 34.5549176,9.83188187 C34.3908124,9.94137698 34.1980857,9.99987438 34.0008596,9.99999937 Z" id="Shape" fill="#D3843D"></path>
                    <g id="Group" transform="translate(8.000000, 17.000000)" fill="#FFD782">
                        <polygon id="Shape" points="9.39636015 13.4878581 9.39636015 17.9473176 13.667433 17.9473176"></polygon>
                        <polygon id="Shape" points="4.2710728 0.10947973 0 0.10947973 0 4.56893919"></polygon>
                    </g>
                </g>
            </g>
        </g>
    </g>
</svg>