<?xml version="1.0" encoding="utf-8"?>
<!-- Generator: Adobe Illustrator 23.0.1, SVG Export Plug-In . SVG Version: 6.00 Build 0)  -->
<svg version="1.1" id="Ebene_1" xmlns="http://www.w3.org/2000/svg" xmlns:xlink="http://www.w3.org/1999/xlink" x="0px" y="0px"
	 viewBox="0 0 76 31" style="enable-background:new 0 0 76 31;" xml:space="preserve">
<style type="text/css">
	.st0{enable-background:new    ;}
	.st1{fill:#FB1D5C;}
</style>
<title>Zeichenfläche 1</title>
<g class="st0">
	<path d="M5.6,7.5c2.6,0,3.8,1.9,3.9,3.8c0,1.9-1.2,3.9-3.9,3.9c-0.9,0-2,0-2.9,0V7.5H5.6z M3.9,14h1.7c1.9,0,2.7-1.4,2.6-2.7
		c0-1.3-0.8-2.6-2.6-2.6H3.9V14z"/>
</g>
<g class="st0">
	<path d="M15,9.8h1.1v5.4H15L15,14.3c-0.4,0.7-1.2,1-1.9,1c-1.6,0-2.8-1-2.8-2.9c0-1.8,1.2-2.8,2.8-2.8c0.8,0,1.5,0.4,1.8,1L15,9.8z
		 M11.4,12.5c0,1.1,0.8,1.8,1.8,1.8c2.3,0,2.3-3.6,0-3.6C12.2,10.7,11.4,11.4,11.4,12.5z"/>
	<path d="M19.4,8.2v1.6H21v1h-1.6v2.6c0,0.6,0.3,0.9,0.8,0.9c0.2,0,0.5-0.1,0.7-0.2l0.3,1c-0.4,0.2-0.7,0.2-1.2,0.2
		c-1.1,0-1.8-0.7-1.8-1.9v-2.6h-1v-1h1V8.3L19.4,8.2z"/>
	<path d="M26.5,9.8h1.1v5.4h-1.1l-0.1-0.9c-0.4,0.7-1.2,1-1.9,1c-1.6,0-2.8-1-2.8-2.9c0-1.8,1.2-2.8,2.8-2.8c0.8,0,1.5,0.4,1.8,1
		L26.5,9.8z M22.9,12.5c0,1.1,0.8,1.8,1.8,1.8c2.3,0,2.3-3.6,0-3.6C23.7,10.7,22.9,11.4,22.9,12.5z"/>
	<path d="M36.6,9.2c-0.4-0.5-1.1-0.8-1.9-0.9c-1,0-1.8,0.4-1.8,1.2c0,0.7,0.9,1,1.9,1.1c1.6,0.2,3.1,0.7,3.1,2.4
		c0,1.7-1.6,2.4-3.2,2.4c-1.5,0-2.6-0.5-3.3-1.7l0.9-0.6c0.6,0.9,1.5,1.3,2.4,1.3c0.9,0,1.9-0.3,1.9-1.3c0-0.8-0.9-1.1-2-1.3
		c-1.5-0.2-3-0.6-3-2.2c0-1.6,1.6-2.2,3-2.2c1.1,0,2.2,0.3,2.9,1.3L36.6,9.2z"/>
	<path d="M43.7,14.5c-0.6,0.6-1.3,0.8-2.1,0.8c-1.6,0-2.9-1-2.9-2.8s1.3-2.8,2.9-2.8c0.7,0,1.4,0.2,2,0.8l-0.7,0.8
		c-0.3-0.3-0.8-0.5-1.2-0.5c-1,0-1.7,0.7-1.7,1.8c0,1.1,0.8,1.7,1.7,1.7c0.5,0,0.9-0.1,1.3-0.5L43.7,14.5z"/>
	<path d="M45.3,7.5c0.4,0,0.7,0.2,0.7,0.7c0,0.5-0.4,0.7-0.7,0.7c-0.4,0-0.7-0.2-0.7-0.7C44.6,7.7,44.9,7.5,45.3,7.5z M45.8,9.7v5.4
		h-1.1V9.7H45.8z"/>
	<path d="M48.2,12.9c0.1,0.8,0.8,1.4,1.8,1.4c0.5,0,1.2-0.2,1.6-0.6l0.7,0.7c-0.6,0.6-1.5,0.9-2.3,0.9c-1.8,0-2.9-1.1-2.9-2.9
		c0-1.7,1.2-2.8,2.8-2.8c1.8,0,2.9,1.1,2.7,3.3H48.2z M51.5,11.9c-0.1-0.9-0.7-1.3-1.6-1.3c-0.8,0-1.5,0.5-1.7,1.3H51.5z"/>
	<path d="M57.9,15.2v-2.9c0-0.9-0.5-1.6-1.5-1.6c-0.9,0-1.5,0.7-1.5,1.6v2.8h-1.1V9.8h1l0.1,0.8c0.5-0.6,1.1-0.9,1.8-0.9
		c1.3,0,2.3,0.9,2.3,2.6v2.9H57.9z"/>
</g>
<g class="st0">
	<path d="M65.1,14.5c-0.6,0.6-1.3,0.8-2.1,0.8c-1.6,0-2.9-1-2.9-2.8s1.3-2.8,2.9-2.8c0.7,0,1.4,0.2,2,0.8l-0.7,0.8
		c-0.3-0.3-0.8-0.5-1.2-0.5c-1,0-1.7,0.7-1.7,1.8c0,1.1,0.8,1.7,1.7,1.7c0.5,0,0.9-0.1,1.3-0.5L65.1,14.5z"/>
</g>
<g class="st0">
	<path d="M66.8,12.9c0.1,0.8,0.8,1.4,1.8,1.4c0.5,0,1.2-0.2,1.6-0.6l0.7,0.7c-0.6,0.6-1.5,0.9-2.3,0.9c-1.8,0-2.9-1.1-2.9-2.9
		c0-1.7,1.2-2.8,2.8-2.8c1.7,0,2.9,1.1,2.7,3.3H66.8z M70.1,11.9c-0.1-0.9-0.7-1.3-1.6-1.3c-0.8,0-1.5,0.5-1.7,1.3H70.1z"/>
</g>
<g class="st0">
	<path class="st1" d="M8.1,17.2l-2.4,3.7H5.5L3,17.2v5.6H2.6v-6.3c0.2,0,0.3,0,0.6,0l2.4,3.7l2.4-3.7h0.6v6.3H8.1V17.2z"/>
</g>
<g class="st0">
	<path class="st1" d="M9.8,20.6c0-1.3,1-2.3,2.3-2.3s2.4,0.8,2.2,2.5h-4c0.1,1,0.9,1.7,1.8,1.7c0.6,0,1.3-0.2,1.6-0.7l0.3,0.3
		c-0.4,0.6-1.2,0.9-1.9,0.9C10.8,22.9,9.8,22,9.8,20.6z M13.8,20.4c0-1.1-0.7-1.7-1.8-1.7c-0.9,0-1.7,0.6-1.8,1.7H13.8z"/>
</g>
<g class="st0">
	<path class="st1" d="M15,20.6c0-1.3,1-2.3,2.3-2.3s2.4,0.8,2.2,2.5h-4c0.1,1,0.9,1.7,1.8,1.7c0.6,0,1.3-0.2,1.6-0.7l0.3,0.3
		c-0.4,0.6-1.2,0.9-1.9,0.9C16.1,22.9,15,22,15,20.6z M19.1,20.4c0-1.1-0.7-1.7-1.8-1.7c-0.9,0-1.7,0.6-1.8,1.7H19.1z"/>
</g>
<g class="st0">
	<path class="st1" d="M21.5,17v1.3H23v0.4h-1.5v2.7c0,0.6,0.1,1,0.8,1c0.2,0,0.5-0.1,0.7-0.2l0.2,0.4c-0.3,0.1-0.6,0.2-0.8,0.2
		c-0.9,0-1.3-0.6-1.3-1.4v-2.7h-0.9v-0.4H21v-1.3L21.5,17z"/>
	<path class="st1" d="M27.4,22.8V22c-0.3,0.6-1,0.9-1.6,0.9c-1.2,0-2-0.7-2-2v-2.6h0.4v2.6c0,1,0.6,1.5,1.6,1.5
		c0.9,0,1.6-0.7,1.6-1.6v-2.5h0.4v4.5H27.4z"/>
	<path class="st1" d="M29.8,25h-0.4v-6.6h0.4v1.1c0.4-0.7,1.1-1.1,1.9-1.1c1.2,0,2.2,0.9,2.2,2.3c0,1.5-1,2.3-2.3,2.3
		c-0.8,0-1.5-0.4-1.8-1.1V25z M33.4,20.6c0-1.3-0.8-1.9-1.8-1.9c-1,0-1.8,0.8-1.8,1.9c0,1.1,0.8,1.9,1.8,1.9
		C32.6,22.5,33.4,21.8,33.4,20.6z"/>
</g>
<g class="st0">
	<path class="st1" d="M43.1,17.2l-2.4,3.7h-0.2l-2.4-3.7v5.6h-0.5v-6.3c0.2,0,0.3,0,0.6,0l2.4,3.7l2.4-3.7h0.6v6.3h-0.5V17.2z"/>
</g>
<g class="st0">
	<path class="st1" d="M48.6,22.8V22c-0.3,0.6-1,0.9-1.6,0.9c-1.2,0-2-0.7-2-2v-2.6h0.4v2.6c0,1,0.6,1.5,1.6,1.5
		c0.9,0,1.6-0.7,1.6-1.6v-2.5h0.4v4.5H48.6z M46.2,16.5c0.2,0,0.4,0.1,0.4,0.4c0,0.2-0.2,0.4-0.4,0.4c-0.2,0-0.4-0.1-0.4-0.4
		C45.8,16.6,46,16.5,46.2,16.5z M48.1,16.5c0.2,0,0.4,0.1,0.4,0.4c0,0.2-0.2,0.4-0.4,0.4c-0.2,0-0.4-0.1-0.4-0.4
		C47.7,16.6,47.9,16.5,48.1,16.5z"/>
	<path class="st1" d="M51,18.4v0.8c0.3-0.6,1-0.9,1.6-0.9c1.2,0,2,0.7,2,2v2.6h-0.4v-2.6c0-1-0.6-1.5-1.6-1.5
		c-0.9,0-1.6,0.7-1.6,1.6v2.5h-0.4v-4.4H51z"/>
	<path class="st1" d="M58.9,19.2c-0.4-0.4-0.9-0.5-1.4-0.5c-0.7,0-1.3,0.3-1.3,0.8c0,0.6,0.8,0.7,1.4,0.8c0.8,0.1,1.9,0.3,1.8,1.3
		c0,1-1,1.2-1.8,1.2S56,22.6,55.6,22l0.3-0.3c0.4,0.5,1,0.8,1.6,0.8c0.5,0,1.4-0.1,1.4-0.8c0-0.6-0.7-0.8-1.4-0.9
		c-0.9-0.1-1.7-0.3-1.7-1.2c0-0.9,0.8-1.2,1.7-1.2c0.6,0,1.2,0.2,1.7,0.6L58.9,19.2z"/>
</g>
<g class="st0">
	<path class="st1" d="M61.4,17v1.3h1.5v0.4h-1.5v2.7c0,0.6,0.1,1,0.8,1c0.2,0,0.5-0.1,0.7-0.2l0.2,0.4c-0.3,0.1-0.6,0.2-0.8,0.2
		c-0.9,0-1.3-0.6-1.3-1.4v-2.7H60v-0.4H61v-1.3L61.4,17z"/>
</g>
<g class="st0">
	<path class="st1" d="M63.5,20.6c0-1.3,1-2.3,2.3-2.3c1.3,0,2.4,0.8,2.2,2.5h-4c0.1,1,0.9,1.7,1.8,1.7c0.6,0,1.3-0.2,1.6-0.7
		l0.3,0.3c-0.4,0.6-1.2,0.9-1.9,0.9C64.5,22.9,63.5,22,63.5,20.6z M67.6,20.4c0-1.1-0.7-1.7-1.8-1.7c-0.9,0-1.7,0.6-1.8,1.7H67.6z"
		/>
</g>
<g class="st0">
	<path class="st1" d="M69.5,18.4l0,0.8c0.3-0.6,0.9-0.8,1.5-0.8c0.3,0,0.6,0.1,0.9,0.3l-0.2,0.4c-0.2-0.1-0.5-0.2-0.8-0.2
		c-0.8,0-1.5,0.7-1.5,1.5v2.6h-0.4v-4.4H69.5z"/>
</g>
</svg>
