<?xml version="1.0" encoding="UTF-8"?>
<svg width="560px" height="464px" viewBox="0 0 560 464" version="1.1" xmlns="http://www.w3.org/2000/svg" xmlns:xlink="http://www.w3.org/1999/xlink">
    <!-- Generator: Sketch 51.3 (57544) - http://www.bohemiancoding.com/sketch -->
    <title>Group 6</title>
    <desc>Created with Sketch.</desc>
    <defs>
        <linearGradient x1="49.9994739%" y1="100%" x2="49.9994739%" y2="5.2796072e-15%" id="linearGradient-1">
            <stop stop-color="#808080" stop-opacity="0.25" offset="0%"></stop>
            <stop stop-color="#808080" stop-opacity="0.12" offset="54%"></stop>
            <stop stop-color="#808080" stop-opacity="0.1" offset="100%"></stop>
        </linearGradient>
        <linearGradient x1="53.7124043%" y1="100.268653%" x2="46.1399664%" y2="-0.806583791%" id="linearGradient-2">
            <stop stop-color="#808080" stop-opacity="0.25" offset="0%"></stop>
            <stop stop-color="#808080" stop-opacity="0.12" offset="54%"></stop>
            <stop stop-color="#808080" stop-opacity="0.1" offset="100%"></stop>
        </linearGradient>
    </defs>
    <g id="Welcome" stroke="none" stroke-width="1" fill="none" fill-rule="evenodd">
        <g id="Full-HD-+-Data-Science" transform="translate(-30.000000, -814.000000)">
            <g id="Group-6" transform="translate(30.000000, 814.000000)">
                <g id="undraw_setup_analytics_8qkl">
                    <path d="M110.523871,4.72456865 C110.523871,4.72456865 108.578065,13.0179344 122.178065,36.4603645 C135.778065,59.9027947 134.833548,63.2235237 134.049032,69.9269988 C133.264516,76.6304739 133.310968,80.3007533 125.409032,88.5321021 C125.409032,88.5321021 101.734194,97.0227947 98.5703226,102.316792 C95.4064516,107.61079 103.79871,126.858615 103.79871,126.858615 C103.79871,126.858615 111.860645,150.239028 82.9109677,159.208943 C82.9109677,159.208943 60.2580645,159.24277 53.9767742,164.694629 C53.9767742,164.694629 56.4077419,155.206027 48.8516129,141.252199 C41.2954839,127.298372 51.7058065,113.694095 51.7058065,113.694095 C51.7058065,113.694095 60.0877419,108.653803 65.4090323,108.264787 C70.7303226,107.875772 72.4180645,105.214678 68.996129,98.5337546 C68.996129,98.5337546 64.0464516,95.7147995 57.1922581,101.753001 C50.3380645,107.791203 45.2180645,112.092928 39.2464516,111.585516 C33.2748387,111.078104 24.7587097,108.326804 19.1690323,96.2560389 C13.5793548,84.1852734 10.6374194,67.1193196 6.4516129,59.3277278 C2.26580645,51.5361361 0,49.8278493 0,49.8278493 C0,49.8278493 5.29032258,54.2141434 23.556129,39.3244228 C41.8219355,24.4347023 51.3548387,30.8055407 51.3548387,30.8055407 C51.3548387,30.8055407 66.0335484,35.112904 68.3870968,63.3870231 C68.3870968,63.3870231 72.6554839,90.3305954 81.3316129,74.0088457 C81.3316129,74.0088457 78.3948387,64.8190522 72.5264516,51.288068 C66.6580645,37.7570838 82.363871,25.021045 93.8632258,20.7587849 C105.362581,16.4965249 110.523871,4.72456865 110.523871,4.72456865 Z" id="Shape" fill="#FB1D5C" fill-rule="nonzero"></path>
                    <path d="M15.9948387,55.7983961 L15.9432258,55.6574484 C19.556129,54.0111786 36.2219355,63.8718834 49.5483871,72.4358688 L49.476129,72.5655407 C30.6787097,60.4891373 18.7870968,54.5355043 15.9948387,55.7983961 Z" id="Shape" fill="#444053" fill-rule="nonzero"></path>
                    <path d="M49.2025806,72.3794897 L49.3470968,72.294921 C59.9896774,79.1449818 72.7587097,87.8386391 82.3225806,94.8973026 C83.2309677,95.5682139 84.1754839,96.2334872 85.1406452,96.8592953 L84.9909677,97.124277 C84.0258065,96.4928311 83.076129,95.8275577 82.1625806,95.1510085 C72.6090323,88.097983 59.84,79.2239125 49.2025806,72.3794897 Z" id="Shape" fill="#444053" fill-rule="nonzero"></path>
                    <path d="M84.7122581,96.9551397 L84.9496774,96.752175 C104.134194,109.330352 131.122581,106.336622 131.36,106.336622 L128.381935,110.029453 C128.144516,110.046367 104.030968,109.617886 84.7122581,96.9551397 Z" id="Shape" fill="#444053" fill-rule="nonzero"></path>
                    <path d="M103.31871,23.6735844 C103.31871,23.6735844 97.0374194,42.7804617 101.811613,56.243791 C106.585806,69.7071203 96.6503226,103.066634 96.6503226,103.066634 C96.6503226,103.066634 93.3522581,117.099392 88.0464516,120.606173 C88.0464516,120.606173 80.3509677,131.041944 75.84,132.237181 C71.3290323,133.432418 60.9548387,144.020413 61.2283871,149.878202" id="Shape" stroke="#444053"></path>
                    <path d="M111.814194,25.021045 C111.814194,25.021045 107.385806,34.8310085 100.794839,34.7464399" id="Shape" stroke="#444053"></path>
                    <path d="M120.691613,37.7739976 C120.691613,37.7739976 118.012903,51.2655164 101.419355,55.0372783" id="Shape" stroke="#444053"></path>
                    <path d="M127.602581,57.8787849 C127.602581,57.8787849 119.793548,71.545079 102.967742,69.8818955" id="Shape" stroke="#444053"></path>
                    <path d="M126.141935,83.4805346 C126.141935,83.4805346 111.447742,93.9952369 100.335484,88.222017" id="Shape" stroke="#444053"></path>
                    <path d="M92.9341935,25.021045 C92.9341935,25.021045 96.7741935,33.8951154 101.021935,31.2227461" id="Shape" stroke="#444053"></path>
                    <path d="M78.8748387,38.501288 C78.8748387,38.501288 84.036129,50.4085541 100.185806,48.3168894" id="Shape" stroke="#444053"></path>
                    <path d="M77.316129,56.4072904 C77.316129,56.4072904 91.52,65.8338761 103.04,63.2799028" id="Shape" stroke="#444053"></path>
                    <path d="M84.7948387,75.491616 C84.7948387,75.491616 96.036129,85.2846659 101.310968,83.0351397" id="Shape" stroke="#444053"></path>
                    <path d="M82.1625806,82.7927096 C82.1625806,82.7927096 85.2025806,93.0818955 82.2141935,95.0269745" id="Shape" stroke="#444053"></path>
                    <path d="M72.2064516,98.2236695 C72.2064516,98.2236695 78.0025806,91.9373998 76.3870968,90.7816282" id="Shape" stroke="#444053"></path>
                    <path d="M61.5587097,46.0053463 C61.5587097,46.0053463 66.6322581,72.3287485 60.0412903,79.4325152" id="Shape" stroke="#444053"></path>
                    <path d="M40.3458065,108.636889 C40.3458065,108.636889 63.3083871,92.5293803 65.3109677,83.0125881" id="Shape" stroke="#444053"></path>
                    <path d="M27.0451613,97.2821385 C27.0451613,97.2821385 48.6451613,86.2825759 54.5032258,75.745322" id="Shape" stroke="#444053"></path>
                    <path d="M41.5483871,37.5710328 C41.5483871,37.5710328 52,56.6158931 45.4709677,69.9439125" id="Shape" stroke="#444053" stroke-width="0.75"></path>
                    <path d="M20,79.9850304 C20,79.9850304 36,72.9094532 39.236129,66.0932199" id="Shape" stroke="#444053" stroke-width="0.75"></path>
                    <path d="M23.3754839,43.3780802 C23.3754839,43.3780802 28.7277419,54.1577643 26.2348387,58.8428676" id="Shape" stroke="#444053" stroke-width="0.75"></path>
                    <path d="M78.8283871,107.154119 C78.8283871,107.154119 93.28,105.039903 94.8283871,109.161215" id="Shape" stroke="#444053"></path>
                    <path d="M101.935484,139.504447 C101.935484,139.504447 101.156129,122.241166 92.1290323,115.565881" id="Shape" stroke="#444053"></path>
                    <path d="M62.3070968,114.100024 C62.3070968,114.100024 77.476129,116.056379 82.8387097,126.864253" id="Shape" stroke="#444053"></path>
                    <path d="M87.7470968,152.026245 C87.7470968,152.026245 90.0903226,139.380413 79.0090323,130.438688" id="Shape" stroke="#444053"></path>
                    <path d="M51.3806452,129.378761 C51.3806452,129.378761 63.963871,128.674022 70.7045161,135.20836" id="Shape" stroke="#444053"></path>
                    <path d="M68.7225806,154.377254 C68.7225806,154.377254 67.5458065,144.341774 64.2632258,142.441798" id="Shape" stroke="#444053"></path>
                    <path d="M263.891613,111.281069 C235.571613,126.847339 204.59871,133.635383 174.4,138.867363 C144.20129,144.099344 113.71871,148.13045 83.9587097,159.067995 C64.8206452,166.104107 44.5935484,177.498323 35.1587097,195.201361 C26.0645161,212.19966 29.4245161,230.325541 34.2348387,246.122965 C37.8477419,258.002041 42.4929032,270.022066 52.3819355,277.283694 C59.2567742,282.323985 68.1806452,284.68627 75.6748387,288.976719 C101.744516,303.888991 105.971613,338.866586 101.770323,371.042139 C99.7987097,386.134824 96.4129032,401.424836 96.4593548,416.218712 C96.5058065,431.012588 100.412903,445.671154 111.15871,454.409915 C121.811613,463.069745 137.806452,464.828773 153.48129,463.430571 C185.331613,460.611616 217.357419,446.184204 247.860645,430.679951 C315.40129,396.361993 380.098065,355.447679 444.645161,314.634848 C468.52129,299.530887 492.505806,284.353633 514.487742,266.464544 C526.694194,256.530547 538.745806,245.119417 544.381935,231.464399 C551.56129,214.133463 546.085161,195.252102 531.612903,187.454872 C507.354839,174.374921 466.797419,191.621288 445.87871,174.53842 C434.322581,165.134386 432.815484,147.927485 434.699355,131.774872 C438.735484,97.0678979 455.416774,58.814678 442.683871,29.4468044 C433.940645,9.27436209 410.931613,-2.46376671 385.806452,0.439756987 C359.483871,3.48422843 330.312258,22.3881409 322.467097,47.8714945 C314.405161,74.115966 288.898065,97.5076549 263.891613,111.281069 Z" id="Shape" fill="#2A1EBD" fill-rule="nonzero" opacity="0.1"></path>
                    <ellipse id="Oval" fill="#FB1D5C" fill-rule="nonzero" opacity="0.1" cx="331.788387" cy="429.225371" rx="51.6696774" ry="13.9425516"></ellipse>
                    <rect id="Rectangle-path" fill="url(#linearGradient-1)" fill-rule="nonzero" x="69.5019355" y="76.5120778" width="490.492903" height="303.505614" rx="12.49"></rect>
                    <rect id="Rectangle-path" fill="#FFFFFF" fill-rule="nonzero" x="70.2812903" y="80.7799757" width="488.990968" height="298.22853" rx="12.49"></rect>
                    <rect id="Rectangle-path" fill="#FFFFFF" fill-rule="nonzero" x="70.2812903" y="80.7799757" width="488.990968" height="298.22853" rx="12.49"></rect>
                    <rect id="Rectangle-path" fill="#5A5773" fill-rule="nonzero" opacity="0.04" x="70.2812903" y="80.7799757" width="488.990968" height="298.22853" rx="12.49"></rect>
                    <path d="M556.794839,77.3577643 L72.7690323,77.3577643 C71.3979408,77.3577643 70.2864516,78.5718941 70.2864516,80.069599 L70.2864516,91.548384 L559.277419,91.548384 L559.277419,80.069599 C559.277419,78.5718941 558.16593,77.3577643 556.794839,77.3577643 Z" id="Shape" fill="#5A5773" fill-rule="nonzero"></path>
                    <g id="4856ee63-6c9d-47e3-9e79-3603b2312fc4" transform="translate(76.387097, 80.622114)" fill="#FFFFFF" fill-rule="nonzero">
                        <ellipse id="Oval" cx="3.65935484" cy="3.82250304" rx="3.35483871" ry="3.66464156"></ellipse>
                        <ellipse id="Oval" cx="12.6916129" cy="3.82250304" rx="3.35483871" ry="3.66464156"></ellipse>
                        <ellipse id="Oval" cx="21.723871" cy="3.82250304" rx="3.35483871" ry="3.66464156"></ellipse>
                    </g>
                    <rect id="Rectangle-path" fill="#FFDD00" fill-rule="nonzero" opacity="0.1" x="103.014194" y="157.562673" width="407.741935" height="171.392467" rx="10.19"></rect>
                    <rect id="Rectangle-path" fill="#FFFFFF" fill-rule="nonzero" transform="translate(314.760695, 232.151242) rotate(1.460000) translate(-314.760695, -232.151242) " x="110.889727" y="146.455009" width="407.741935" height="171.392467" rx="10.19"></rect>
                    <path d="M173.945806,177.176962 L457.981935,185.064399" id="Shape" stroke="#5A5773" fill="#F4F4F7" fill-rule="nonzero" opacity="0.2"></path>
                    <path d="M173.383226,201.414338 L457.419355,209.301774" id="Shape" stroke="#5A5773" fill="#F4F4F7" fill-rule="nonzero" opacity="0.2"></path>
                    <path d="M172.820645,225.646075 L456.856774,233.533512" id="Shape" stroke="#5A5773" fill="#F4F4F7" fill-rule="nonzero" opacity="0.2"></path>
                    <path d="M172.252903,249.883451 L456.294194,257.770887" id="Shape" stroke="#5A5773" fill="#F4F4F7" fill-rule="nonzero" opacity="0.2"></path>
                    <path d="M198.069677,244.020024 L197.352258,274.831203" id="Shape" stroke="#5A5773" opacity="0.2" stroke-dasharray="12"></path>
                    <path d="M171.690323,274.120826 L455.726452,282.002625" id="Shape" stroke="#5A5773" fill="#F4F4F7" fill-rule="nonzero" opacity="0.2"></path>
                    <path d="M229.476129,275.721993 L230.544516,229.789939" id="Shape" stroke="#5A5773" opacity="0.2" stroke-dasharray="12"></path>
                    <path d="M417.372903,226.159125 C412.309677,226.638348 407.365161,223.537497 404.335484,220.278785 C401.197419,216.896039 398.92129,212.735261 396.722581,208.687242 C396.025806,207.407436 395.303226,206.088165 394.575484,204.813998 C390.740645,198.172539 386.910968,193.707315 382.529032,190.758688 C380.923457,189.678606 379.202081,188.818915 377.403871,188.199077 C377.231327,188.64674 376.984612,189.055764 376.676129,189.405589 C376.013339,190.159545 375.103797,190.595483 374.147097,190.61774 L373.976774,190.61774 C372.203959,190.565633 370.727878,189.115676 370.492903,187.195529 C368.867441,187.279751 367.263813,187.639224 365.739355,188.261094 C361.233548,190.115966 357.811613,194.101968 354.699355,198.031592 C350.931613,202.778712 347.298065,207.756987 343.912258,212.836744 C343.224086,213.862843 342.535914,214.894581 341.847742,215.931956 C338.172903,221.536039 334.374194,227.326173 329.460645,231.853414 C322.864516,237.964909 314.931613,240.597813 308.237419,238.900802 C300.206452,236.865516 294.461935,229.11339 290.35871,222.58469 C289.842581,221.739004 289.326452,220.893317 288.769032,220.030717 C284.939355,213.829016 280.980645,207.418712 275.138065,203.680778 C267.442581,198.747606 256.815484,199.598931 249.847742,205.693512 C246.451613,208.66469 243.901935,212.701434 241.429677,216.602868 C240.583226,217.94469 239.705806,219.331616 238.802581,220.662163 C234.157419,227.478396 229.476129,231.176865 224.428387,231.977448 C222.42678,232.219914 220.406768,232.219914 218.405161,231.977448 C217.073548,231.875966 215.695484,231.763208 214.348387,231.802673 C207.512223,232.121348 201.32884,236.329735 198.054194,242.892442 L197.341935,275.344253 L420.469677,281.545954 L421.71871,227.856136 C420.945235,228.315596 420.029287,228.393697 419.199913,228.070907 C418.370539,227.748118 417.706155,227.054957 417.372903,226.164763 L417.372903,226.159125 Z" id="Shape" fill="#FB1D5C" fill-rule="nonzero" opacity="0.2"></path>
                    <path d="M264.232258,200.472807 L262.461935,276.640972" id="Shape" stroke="#5A5773" opacity="0.2" stroke-dasharray="12"></path>
                    <path d="M295.349677,229.615164 L294.234839,277.520486" id="Shape" stroke="#5A5773" opacity="0.2" stroke-dasharray="12"></path>
                    <path d="M326.296774,235.23616 L325.295484,278.383086" id="Shape" stroke="#5A5773" opacity="0.2" stroke-dasharray="12"></path>
                    <path d="M356.330323,196.622114 L354.410323,279.189307" id="Shape" stroke="#5A5773" opacity="0.2" stroke-dasharray="12"></path>
                    <path d="M386.895484,193.741142 L384.887742,280.040632" id="Shape" stroke="#5A5773" opacity="0.2" stroke-dasharray="12"></path>
                    <path d="M420.748387,226.187315 L419.468387,280.999077" id="Shape" stroke="#5A5773" opacity="0.2" stroke-dasharray="12"></path>
                    <path d="M377.094194,184.393487 C376.401854,183.667063 375.473314,183.271491 374.513548,183.294095 C372.756474,183.329175 371.277365,184.740233 371.009032,186.637375 C370.976976,186.861114 370.963159,187.087518 370.967742,187.313925 C370.967742,187.466148 370.967742,187.618372 370.99871,187.764957 C371.108397,188.648258 371.488604,189.464981 372.077419,190.082139 C372.718164,190.77929 373.578557,191.182657 374.482581,191.209721 L374.652903,191.209721 C375.610656,191.190431 376.522193,190.756454 377.187097,190.003208 C377.49404,189.65204 377.740558,189.243343 377.914839,188.796695 C378.049529,188.445956 378.136473,188.075563 378.172903,187.697303 C378.18576,187.526574 378.18576,187.354981 378.172903,187.184253 C378.167508,186.134289 377.779306,185.129957 377.094194,184.393487 Z M376.913548,188.452783 C376.798117,188.727319 376.639105,188.977366 376.443871,189.191349 C375.771192,189.949951 374.766755,190.234188 373.841498,189.927772 C372.916242,189.621355 372.2254,188.775694 372.051613,187.736768 C372.023146,187.590264 372.007591,187.441118 372.005161,187.291373 C371.999686,187.063909 372.020495,186.836599 372.067097,186.614824 C372.328196,185.349019 373.346573,184.441397 374.534194,184.416039 L374.652903,184.416039 C376.03012,184.454813 377.1366,185.668434 377.166452,187.172977 C377.166452,187.229356 377.166452,187.291373 377.166452,187.347752 C377.157308,187.731891 377.07097,188.109137 376.913548,188.452783 Z" id="Shape" fill="#FB1D5C" fill-rule="nonzero"></path>
                    <ellipse id="Oval" fill="#FB1D5C" fill-rule="nonzero" cx="420.779355" cy="225.448748" rx="3.09677419" ry="3.38274605"></ellipse>
                    <path d="M372.005161,187.291373 C372.007591,187.441118 372.023146,187.590264 372.051613,187.736768 C371.700645,187.736768 371.349677,187.736768 371.019355,187.764957 C369.392284,187.849778 367.78704,188.209222 366.260645,188.830522 C361.754839,190.685395 358.332903,194.671397 355.215484,198.601021 C351.447742,203.342503 347.814194,208.326416 344.423226,213.400535 C343.736774,214.426634 343.060645,215.46401 342.35871,216.501385 C338.67871,222.105468 334.88,227.889964 329.971613,232.422843 C323.370323,238.5287 315.432258,241.161604 308.732903,239.464593 C300.712258,237.434945 294.967742,229.677181 290.83871,223.148481 C290.322581,222.308433 289.775484,221.457108 289.249032,220.594508 C285.414194,214.392807 281.450323,207.982503 275.607742,204.244569 C267.912258,199.311397 257.274839,200.162722 250.317419,206.257303 C246.967742,209.222843 244.387097,213.259587 241.914839,217.161021 C241.063226,218.502843 240.185806,219.895407 239.282581,221.220316 C234.637419,228.036549 229.950968,231.735018 224.903226,232.535601 C222.901475,232.775198 220.881751,232.775198 218.88,232.535601 C217.529669,232.401165 216.173892,232.342829 214.818065,232.360826 C207.47385,232.694547 200.927843,237.518244 197.894194,244.831883 L196.944516,244.380851 C200.146043,236.673206 207.045554,231.589185 214.787097,231.233244 C216.179168,231.210935 217.571323,231.271161 218.957419,231.413657 C220.883808,231.641994 222.827159,231.641994 224.753548,231.413657 C229.517419,230.663815 233.997419,227.106294 238.451613,220.543767 C239.344516,219.230134 240.216774,217.848846 241.063226,216.512661 C243.576774,212.566124 246.178065,208.444812 249.687742,205.366513 C257.298211,198.863971 267.752449,198.033006 276.144516,203.263572 C282.193548,207.136817 286.224516,213.654241 290.126452,219.963062 C290.642581,220.808748 291.15871,221.654435 291.710968,222.505759 C295.710968,228.865322 301.285161,236.414484 308.980645,238.359563 C315.36,239.977643 322.962581,237.434945 329.316129,231.554605 C334.110968,227.11757 337.883871,221.406367 341.522581,215.836112 C342.19871,214.798736 342.885161,213.761361 343.587097,212.729623 C346.99871,207.655504 350.647742,202.626488 354.425806,197.851179 C357.630968,193.814435 361.135484,189.715674 365.889032,187.770595 C367.535184,187.106095 369.26603,186.725676 371.019355,186.643013 C371.365161,186.643013 371.72129,186.609186 372.051613,186.643013 C372.012326,186.856308 371.996729,187.073999 372.005161,187.291373 Z" id="Shape" fill="#FB1D5C" fill-rule="nonzero"></path>
                    <path d="M420.96,225.978712 C414.905806,228.448117 408.505806,224.760923 404.861935,220.848214 C401.723871,217.465468 399.447742,213.299052 397.249032,209.251033 C396.552258,207.976865 395.829677,206.651956 395.096774,205.383426 C391.261935,198.73633 387.432258,194.271106 383.045161,191.322479 C381.438938,190.245163 379.717666,189.387417 377.92,188.768505 C377.589677,188.650109 377.254194,188.548627 376.887742,188.452783 C377.044432,188.11085 377.130751,187.735616 377.140645,187.35339 C377.48129,187.449235 377.816774,187.556355 378.172903,187.669113 C380.069717,188.318629 381.885006,189.223916 383.576774,190.364034 C388.108387,193.402868 392.04129,197.980851 395.963871,204.78017 C396.701935,206.065614 397.424516,207.390522 398.131613,208.681604 C400.299355,212.661968 402.539355,216.783281 405.579355,220.041993 C409.00129,223.71791 414.993548,227.207776 420.593548,224.924423 L420.96,225.978712 Z" id="Shape" fill="#FB1D5C" fill-rule="nonzero"></path>
                    <rect id="Rectangle-path" fill="#FB1D5C" fill-rule="nonzero" opacity="0.5" transform="translate(179.259510, 174.804390) rotate(1.460000) translate(-179.259510, -174.804390) " x="173.994994" y="172.26733" width="10.5290323" height="5.07411908" rx="0.9"></rect>
                    <rect id="Rectangle-path" fill="#FB1D5C" fill-rule="nonzero" transform="translate(178.689326, 199.035011) rotate(1.460000) translate(-178.689326, -199.035011) " x="173.424809" y="196.497951" width="10.5290323" height="5.07411908" rx="0.9"></rect>
                    <rect id="Rectangle-path" fill="#FB1D5C" fill-rule="nonzero" opacity="0.5" transform="translate(178.124169, 223.277050) rotate(1.460000) translate(-178.124169, -223.277050) " x="172.859653" y="220.73999" width="10.5290323" height="5.07411908" rx="0.9"></rect>
                    <rect id="Rectangle-path" fill="#FB1D5C" fill-rule="nonzero" opacity="0.5" transform="translate(177.559144, 247.507814) rotate(1.460000) translate(-177.559144, -247.507814) " x="172.294628" y="244.970755" width="10.5290323" height="5.07411908" rx="0.9"></rect>
                    <rect id="Rectangle-path" fill="#FB1D5C" fill-rule="nonzero" opacity="0.5" transform="translate(176.993988, 271.744215) rotate(1.460000) translate(-176.993988, -271.744215) " x="171.729472" y="269.207156" width="10.5290323" height="5.07411908" rx="0.9"></rect>
                    <rect id="Rectangle-path" fill="#FB1D5C" fill-rule="nonzero" opacity="0.5" transform="translate(196.521410, 282.438042) rotate(1.460000) translate(-196.521410, -282.438042) " x="191.256894" y="279.900982" width="10.5290323" height="5.07411908" rx="0.9"></rect>
                    <rect id="Rectangle-path" fill="#FB1D5C" fill-rule="nonzero" opacity="0.5" transform="translate(229.284440, 283.349628) rotate(1.460000) translate(-229.284440, -283.349628) " x="224.019924" y="280.812569" width="10.5290323" height="5.07411908" rx="0.9"></rect>
                    <rect id="Rectangle-path" fill="#FB1D5C" fill-rule="nonzero" transform="translate(261.092284, 285.808439) rotate(1.718358) translate(-261.092284, -285.808439) " x="255.825399" y="283.270238" width="10.5337693" height="5.07640192" rx="0.9"></rect>
                    <rect id="Rectangle-path" fill="#FB1D5C" fill-rule="nonzero" opacity="0.5" transform="translate(294.042112, 285.151403) rotate(1.460000) translate(-294.042112, -285.151403) " x="288.777596" y="282.614344" width="10.5290323" height="5.07411908" rx="0.9"></rect>
                    <rect id="Rectangle-path" fill="#FB1D5C" fill-rule="nonzero" opacity="0.5" transform="translate(325.098361, 286.021095) rotate(1.460000) translate(-325.098361, -286.021095) " x="319.833845" y="283.484035" width="10.5290323" height="5.07411908" rx="0.9"></rect>
                    <rect id="Rectangle-path" fill="#FB1D5C" fill-rule="nonzero" transform="translate(354.210749, 286.825517) rotate(1.460000) translate(-354.210749, -286.825517) " x="348.946233" y="284.288457" width="10.5290323" height="5.07411908" rx="0.9"></rect>
                    <rect id="Rectangle-path" fill="#FB1D5C" fill-rule="nonzero" transform="translate(384.906089, 287.679519) rotate(1.460000) translate(-384.906089, -287.679519) " x="379.641573" y="285.142459" width="10.5290323" height="5.07411908" rx="0.9"></rect>
                    <rect id="Rectangle-path" fill="#FB1D5C" fill-rule="nonzero" transform="translate(418.138890, 290.959403) rotate(1.718358) translate(-418.138890, -290.959403) " x="412.872006" y="288.421202" width="10.5337693" height="5.07640192" rx="1.39"></rect>
                    <path d="M506.255484,341.369818 C508.69319,341.369626 510.79155,343.250464 511.267282,345.86208 C511.743015,348.473696 510.463621,351.088712 508.211532,352.107879 C505.959443,353.127046 503.361902,352.26651 502.007471,350.052542 C500.65304,347.838575 500.91895,344.887803 502.642581,343.004812 C503.599139,341.955408 504.899785,341.36681 506.255484,341.369818 Z M506.255484,340.50158 C503.864304,340.501584 501.708771,342.075616 500.794673,344.489221 C499.880576,346.902826 500.388077,349.680294 502.080374,351.525637 C503.772671,353.37098 506.31622,353.920491 508.524181,352.917763 C510.732143,351.915035 512.169338,349.557701 512.165161,346.945711 C512.163793,345.235125 511.540399,343.595195 510.43212,342.386686 C509.32384,341.178177 507.821459,340.500084 506.255484,340.50158 Z" id="Shape" fill="#FB1D5C" fill-rule="nonzero"></path>
                    <path d="M504.670968,348.851324 L504.980645,348.400292 C505.282762,348.724118 505.687726,348.90793 506.110968,348.913341 C506.627097,348.913341 507.034839,348.625808 507.034839,348.169137 C507.034839,347.712467 506.658065,347.346002 505.615484,347.346002 L505.615484,346.827315 C506.544516,346.827315 506.895484,346.48904 506.895484,346.049283 C506.895484,345.609526 506.580645,345.400923 506.12129,345.400923 C505.75901,345.413257 505.412834,345.567315 505.145806,345.835043 L504.815484,345.400923 C505.18382,345.045935 505.655959,344.846036 506.147097,344.837132 C506.947097,344.837132 507.540645,345.259976 507.540645,345.998542 C507.540645,346.51723 507.194839,346.861142 506.689032,347.047193 L506.689032,347.075383 C507.22672,347.137343 507.645262,347.613585 507.68,348.202965 C507.68,349.003548 506.988387,349.488408 506.162581,349.488408 C505.60579,349.512619 505.065053,349.281664 504.670968,348.851324 Z" id="Shape" fill="#FB1D5C" fill-rule="nonzero"></path>
                    <path d="M530.663226,341.747558 C533.100932,341.747366 535.199292,343.628204 535.675024,346.23982 C536.150757,348.851436 534.871363,351.466452 532.619274,352.485619 C530.367185,353.504786 527.769644,352.64425 526.415213,350.430282 C525.060782,348.216315 525.326692,345.265543 527.050323,343.382552 C528.006555,342.332616 529.307413,341.743922 530.663226,341.747558 Z M530.663226,340.87932 C527.399401,340.87932 524.753548,343.769504 524.753548,347.334727 C524.753548,350.899949 527.399401,353.790134 530.663226,353.790134 C533.927051,353.790134 536.572903,350.899949 536.572903,347.334727 C536.574274,345.622188 535.95209,343.979359 534.843513,342.768411 C533.734936,341.557462 532.23099,340.877822 530.663226,340.87932 Z" id="Shape" fill="#5A5773" fill-rule="nonzero"></path>
                    <path d="M530.740645,346.658177 C530.740645,346.38192 530.740645,346.032369 530.776774,345.756112 L530.740645,345.756112 C530.596129,345.998542 530.430968,346.240972 530.286452,346.483402 L529.254194,347.954897 L532.046452,347.954897 L532.046452,348.546877 L528.531613,348.546877 L528.531613,348.073293 L530.627097,345.062649 L531.396129,345.062649 L531.396129,349.854872 L530.756129,349.854872 L530.740645,346.658177 Z" id="Shape" fill="#5A5773" fill-rule="nonzero"></path>
                    <path d="M517.197419,343.647533 C517.408147,343.421904 517.745401,343.421904 517.956129,343.647533 L520.619355,346.567971 C520.720285,346.674236 520.777304,346.820775 520.777304,346.9739 C520.777304,347.127026 520.720285,347.273565 520.619355,347.37983 L517.997419,350.255164 C517.8996,350.372722 517.760917,350.439745 517.615484,350.439745 C517.470051,350.439745 517.331367,350.372722 517.233548,350.255164 C517.127633,350.14843 517.067389,349.998187 517.067389,349.840778 C517.067389,349.683368 517.127633,349.533126 517.233548,349.426391 L519.483871,346.945711 L517.197419,344.476306 C517.089799,344.369454 517.028442,344.217964 517.028442,344.059101 C517.028442,343.900238 517.089799,343.748748 517.197419,343.641896 L517.197419,343.647533 Z" id="Shape" fill="#5A5773" fill-rule="nonzero"></path>
                    <path d="M512.655484,346.945711 C512.651309,349.513119 514.064473,351.83005 516.23513,352.814662 C518.405787,353.799275 520.905747,353.257341 522.567708,351.441907 C524.229669,349.626472 524.725788,346.895653 523.824413,344.524547 C522.923038,342.15344 520.801977,340.609778 518.451613,340.614338 C515.251679,340.617446 512.65833,343.450278 512.655484,346.945711 Z M513.548387,346.945711 C513.544083,344.381409 515.199282,342.171181 517.501089,341.667569 C519.802895,341.163957 522.109688,342.507342 523.009832,344.875644 C523.909976,347.243945 523.152559,349.977005 521.20108,351.402337 C519.2496,352.827668 516.648028,352.547963 514.988387,350.734386 C514.063233,349.733136 513.544487,348.368304 513.548387,346.945711 Z" id="Shape" fill="#5A5773" fill-rule="nonzero"></path>
                    <rect id="Rectangle-path" fill="#5A5773" fill-rule="nonzero" opacity="0.2" x="85.723871" y="106.58469" width="117.285161" height="13.4464156" rx="3.86"></rect>
                    <path d="M365.00129,426.868724 C364.144516,423.485978 363.587097,420.497886 363.587097,420.497886 C363.587097,420.497886 363.623226,416.776865 361.997419,414.042479 L361.966452,413.112224 L361.723871,406.233973 C362.113967,404.967253 362.602633,403.739342 363.184516,402.563694 C364.247742,400.353633 362.833548,392.483111 362.833548,392.483111 C362.833548,392.483111 358.234839,381.494824 359.009032,374.368505 C359.783226,367.242187 349.274839,343.275431 349.274839,343.275431 C349.249241,340.923286 349.470907,338.575704 349.935484,336.278785 C350.017082,335.795581 350.041368,335.302909 350.007742,334.812928 C350.007742,334.750911 350.007742,334.70017 350.007742,334.632515 C350.007742,334.632515 350.007742,334.671981 350.007742,334.688894 C349.703226,330.026343 346.012903,321.411616 346.012903,321.411616 L345.87871,304.706488 C345.87871,304.706488 347.690323,294.772491 343.700645,281.715091 C342.312258,277.15966 341.393548,273.506294 340.794839,270.676063 C340.727742,270.36034 340.660645,270.050255 340.603871,269.757084 C347.829677,268.240486 353.305806,267.005784 353.305806,267.005784 C353.305806,267.005784 348.428387,247.977837 345.470968,244.736039 C342.513548,241.494241 339.870968,231.030279 339.870968,231.030279 C339.870968,231.030279 337.914839,217.527485 340.16,213.462552 C342.405161,209.397618 342.508387,202.547558 342.508387,202.547558 C342.508387,202.547558 347.803871,197.992126 348.418065,196.047047 C349.032258,194.101968 350.012903,189.72695 349.935484,187.443597 C349.858065,185.160243 349.099355,183.153147 349.285161,181.940996 C349.470968,180.728846 347.494194,176.246707 348.325161,174.047922 C348.535645,173.373353 348.633542,172.662982 348.614194,171.95062 C348.614194,171.95062 348.614194,171.905516 348.614194,171.888603 C348.614194,171.871689 348.614194,171.888603 348.614194,171.860413 C348.555113,169.97105 348.32868,168.092376 347.938065,166.250693 C346.314131,164.861336 344.438888,163.864032 342.436129,163.324617 L342.296774,162.817205 L341.935484,161.458469 C341.749677,161.334435 341.569032,161.227315 341.388387,161.13147 L341.357419,160.640972 L341.23871,158.695893 L341.935484,154.298323 C343.339355,146.602576 333.992258,145.841458 333.992258,145.841458 C333.388029,144.694678 332.414773,143.834526 331.261935,143.428433 C329.362581,142.785711 331.354839,154.907217 332.258065,155.645784 C332.934194,156.209575 335.107097,159.941871 336.154839,161.77983 L336.32,162.078639 C336.174372,162.238159 336.038182,162.407638 335.912258,162.586051 L336.36129,165.218955 L336.428387,165.619247 C335.843532,166.480823 335.37589,167.430313 335.04,168.438202 C335.04,168.438202 336.815484,170.41147 336.557419,172.7061 C336.299355,175.000729 337.259355,177.808408 337.305806,177.960632 C337.202581,177.836598 335.953548,176.472224 334.771613,176.866877 C333.589677,177.261531 330.28129,178.496233 330.28129,178.496233 C330.28129,178.496233 327.79871,179.060024 328.046452,179.674557 C328.294194,180.289089 326.456774,182.989648 326.456774,182.989648 L319.499355,176.32 C319.427097,176.117035 319.349677,175.91407 319.282581,175.69983 C318.968661,174.719433 318.737167,173.709833 318.590968,172.683548 C319.315495,172.459136 320.024401,172.178403 320.712258,171.843499 C321.408506,171.550533 322.029904,171.078673 322.523871,170.467849 C323.169032,169.560146 323.256774,168.364909 323.494194,167.259878 C323.948387,165.106197 325.042581,163.15548 325.770323,161.092005 C327.021531,157.625926 327.350736,153.844208 326.72,150.182649 C326.572828,149.050237 326.181918,147.97209 325.579355,147.036695 C324.423226,145.435529 322.415484,144.849186 320.934194,143.59757 C319.452903,142.345954 318.436129,140.378323 316.717419,139.459344 C315.169032,138.636209 313.310968,138.816622 311.607742,139.2 C308.259427,139.9359 305.066535,141.34897 302.193548,143.366416 C301.23871,144.037327 300.190968,144.815358 299.055484,144.640583 C298.085161,144.48836 297.347097,143.676501 296.696774,142.898469 C296.696774,142.864642 296.696774,142.830814 296.722581,142.796987 L296.645161,142.701142 C295.995637,144.454785 295.706678,146.34287 295.79871,148.231932 C295.79871,148.525103 295.819355,148.818275 295.860645,149.111446 C295.860645,149.212928 295.860645,149.314411 295.886452,149.415893 C295.891611,149.500368 295.891611,149.585124 295.886452,149.669599 C295.889768,149.800428 295.877625,149.931179 295.850323,150.058615 C295.721489,150.441184 295.519095,150.789151 295.256774,151.079077 C295.063185,151.340564 294.890507,151.619726 294.740645,151.913487 C294.740645,151.812005 294.792258,151.710522 294.823226,151.614678 C294.4179,152.314394 294.204745,153.126393 294.209032,153.954411 C294.193281,154.557179 294.395378,155.142494 294.771613,155.583767 C295.120391,155.929173 295.498926,156.236931 295.901935,156.502746 C295.796454,157.314829 295.758449,158.135672 295.788387,158.955237 C295.980227,163.922597 298.542543,168.416296 302.539355,170.794848 L302.787097,171.415018 C303.731613,173.844957 304.48,176.692102 304.289032,179.358834 C304.289032,179.55616 304.252903,179.747849 304.227097,179.922625 C304.144516,180.024107 304.067097,180.131227 303.994839,180.238348 C303.994839,180.238348 292.913548,180.802139 290.214194,178.349648 C287.514839,175.897157 283.850323,184.929089 283.850323,184.929089 C283.850323,184.929089 279.907097,185.938275 279.086452,185.132053 C278.265806,184.325832 273.630968,185.239174 273.630968,185.239174 C271.661385,183.471721 269.150046,182.588883 266.606452,182.769769 C265.011609,181.546359 263.264928,180.578131 261.419355,179.894435 L261.295484,179.849332 C260.48468,179.564719 259.62585,179.481886 258.781935,179.606902 C258.781935,179.606902 253.16129,174.91616 251.47871,172.339635 C249.796129,169.763111 241.87871,160.285784 241.842581,160.246318 L241.806452,159.767096 L241.672258,158.346343 C241.448892,158.392261 241.223047,158.422393 240.996129,158.436549 C240.951398,158.297481 240.894624,158.133981 240.825806,157.946051 C240.340939,156.581163 239.755805,155.261347 239.076129,153.999514 C239.076129,153.999514 239.014194,152.195383 239.47871,151.74435 C239.943226,151.293317 239.029677,144.696962 239.029677,144.696962 C239.029677,144.696962 233.677419,132.361215 229.605161,141.911835 C229.605161,141.911835 221.501935,148.322139 228.732903,155.081993 C228.732903,155.081993 231.571613,156.435091 232.005161,157.585225 C232.289032,158.335067 233.310968,160.40418 233.997419,161.791106 L234.301935,162.411276 L234.224516,162.484569 L234.369032,163.657254 L234.425806,164.113925 C233.140645,164.987801 232.27871,165.833487 232.516129,166.431106 C232.940092,167.454914 233.245253,168.53259 233.424516,169.639077 C233.424516,169.639077 243.540645,182.44277 244.990968,188.029939 C244.990968,188.029939 271.468387,203.748433 280.025806,204.594119 L278.849032,213.050984 C278.849032,213.050984 278.570323,218.125103 278.745806,219.906683 C278.92129,221.688262 278.074839,229.913973 278.074839,229.913973 C278.074839,229.913973 277.042581,241.984739 275.834839,243.715577 C274.627097,245.446416 275.122581,252.640389 275.122581,252.640389 C274.945895,256.102053 274.496928,259.540699 273.780645,262.918299 C272.691613,267.530109 273.780645,273.134192 273.780645,273.134192 C273.780645,273.134192 269.847742,284.122479 279.917419,276.364714 C279.917419,276.364714 284.980645,275.800923 290.812903,275.344253 C290.812903,275.552855 290.812903,275.761458 290.812903,275.981337 C290.812903,276.804471 290.843871,277.67271 290.869677,278.631154 C291.009032,284.832855 291.277419,293.351738 291.757419,299.790231 C292.614194,311.173171 296.588387,333.617691 296.588387,333.617691 L296.985806,344.955529 C296.820522,346.029867 296.759968,347.120318 296.805161,348.208603 C296.87236,352.207589 297.980505,356.103018 300,359.43932 L301.063226,366.971567 C301.063226,366.971567 303.127742,371.870911 303.24129,374.864642 C303.243692,375.108258 303.226421,375.351631 303.189677,375.591932 C303.132764,375.975742 303.115451,376.365315 303.138065,376.753341 C303.138065,380.192467 305.336774,388.327971 305.336774,388.327971 C305.336774,388.327971 305.744516,396.604423 306.885161,397.038542 C307.870968,397.410644 305.754839,401.864593 305.125161,403.150036 C305.125161,403.071106 305.089032,402.992175 305.073548,402.913244 L304.944516,403.16695 C304.731848,403.844722 304.63561,404.559572 304.660645,405.275529 C304.571743,406.435742 305.102066,407.548254 306.023226,408.133949 C308.232258,409.487047 309.434839,410.637181 307.618065,411.195334 C306.948964,411.345818 306.287435,411.534 305.636129,411.759125 L305.532903,411.488505 C305.04816,411.74871 304.780506,412.328848 304.877419,412.909259 C304.846452,413.512515 305.063226,414.392029 305.651613,415.688748 C307.623226,420.052491 308.944516,421.681847 308.944516,421.681847 L309.811613,421.535261 C309.695196,421.904611 309.537442,422.256831 309.341935,422.583913 C309.030339,423.118529 308.605457,423.563309 308.103226,423.880632 C307.634859,424.213888 307.107123,424.434868 306.554839,424.528991 C305.309233,424.622603 304.159709,425.293528 303.396129,426.372588 C302.322581,428.018858 301.687742,430.228919 303.994839,432.049964 L312.221935,434.767436 C312.221935,434.767436 326.255484,436.165638 325.393548,432.771616 C324.531613,429.377594 323.979355,426.400778 323.979355,426.400778 C323.960471,424.307191 323.499474,422.246615 322.632258,420.37949 C322.480667,420.074377 322.30813,419.782248 322.116129,419.505614 L322.606452,419.421045 C322.606452,419.421045 323.365161,411.815504 324.670968,410.321458 C324.970323,409.971908 325.032258,409.718202 324.954839,409.520875 C325.07871,409.10367 324.717419,408.878153 324.252903,408.759757 C324.221935,408.861239 324.190968,408.957084 324.165161,409.064204 C323.727325,408.981155 323.28287,408.947151 322.83871,408.962722 C322.83871,408.962722 322.245161,405.016185 323.669677,403.516501 C323.900445,403.175053 323.988537,402.743059 323.912258,402.326902 C323.905968,401.783915 323.836596,401.243997 323.705806,400.720097 C323.705806,400.720097 323.674839,400.782114 323.654194,400.815942 C322.781935,397.252783 320.067097,391.643062 320.067097,391.643062 C320.067097,391.643062 319.829677,388.046075 320.686452,386.568943 C321.543226,385.09181 319.88129,367.005395 319.88129,367.005395 C319.88129,367.005395 319.912258,358.227169 318.745806,354.190425 C317.579355,350.153682 319.659355,345.254338 319.659355,345.254338 C319.659355,345.254338 319.659355,345.158493 319.623226,344.994994 C319.634137,344.975564 319.642805,344.954733 319.649032,344.932977 C319.649032,344.932977 319.581935,344.369186 319.468387,343.557327 C319.468387,343.557327 319.468387,343.613706 319.468387,343.641896 C319.15871,341.330352 318.575484,337.147023 318.188387,335.218858 C317.636129,332.478834 317.739355,319.246659 317.739355,319.246659 L319.587097,313.518542 L323.56129,323.102989 L327.876129,335.906683 C327.876129,335.906683 329.889032,338.562139 330.028387,341.33599 C330.028387,341.4713 330.028387,341.60661 330.028387,341.74192 C330.028387,342.040729 330.028387,342.305711 330.028387,342.610158 C330.019284,344.251359 330.489349,345.853004 331.370323,347.182503 C331.370323,347.182503 332.609032,353.26017 334.250323,354.754216 C335.891613,356.248262 336.005161,359.264544 336.005161,359.264544 C336.005161,359.264544 338.245161,368.065322 339.210323,369.587558 C340.020645,370.873001 340.190968,374.486902 340.242581,375.591932 C340.242581,375.794897 340.242581,375.913293 340.242581,375.913293 C340.242581,375.913293 340.624516,379.07616 340.707097,381.74853 C340.707097,382.075529 340.707097,382.396889 340.707097,382.695699 C340.707097,382.695699 340.707097,382.650595 340.707097,382.628044 C340.731032,383.355906 340.677337,384.084338 340.547097,384.798639 C340.547097,384.832467 340.547097,384.87757 340.516129,384.922673 C340.516129,384.77045 340.516129,384.618226 340.516129,384.47164 C340.178939,386.300289 340.048931,388.167299 340.129032,390.03062 C340.190968,393.227315 340.769032,396.987801 342.616774,399.135844 C345.816774,402.851227 347.731613,402.287436 347.731613,402.287436 C347.731613,402.287436 346.425806,407.152953 344.634839,408.190328 C344.567824,408.22877 344.505416,408.276111 344.449032,408.331276 C344.449032,408.241069 344.407742,408.145225 344.392258,408.055018 C344.009663,408.559275 343.839169,409.216223 343.922581,409.864787 C343.865806,411.984642 345.207742,415.36175 346.420645,416.889623 C346.860592,417.327866 347.392268,417.641484 347.969032,417.802965 C347.880193,417.877052 347.787099,417.944846 347.690323,418.00593 C347.492541,418.136472 347.287401,418.253222 347.076129,418.35548 C346.787015,418.510662 346.476733,418.613485 346.157419,418.659927 C344.912717,418.75154 343.764083,419.423043 343.003871,420.503524 C341.930323,422.144156 341.290323,424.354216 343.597419,426.175261 L351.829677,428.892734 C351.829677,428.892734 365.863226,430.262746 365.00129,426.868724 Z" id="Shape" fill="url(#linearGradient-2)" fill-rule="nonzero"></path>
                    <path d="M311.860645,434.78435 L303.896774,432.078153 C301.661935,430.25147 302.270968,428.041409 303.313548,426.400778 C304.03607,425.330395 305.149852,424.657232 306.363871,424.557181 C306.894644,424.463542 307.400232,424.244171 307.845161,423.914459 C308.336208,423.594933 308.748889,423.149947 309.047742,422.61774 C309.58517,421.599198 309.854854,420.438404 309.827097,419.263183 C309.827097,419.263183 318.35871,416.139781 320.815484,418.800875 C321.254686,419.282007 321.626827,419.830981 321.92,420.430231 C322.763404,422.301334 323.213086,424.354777 323.236129,426.440243 C323.236129,426.440243 323.778065,429.41706 324.614194,432.811081 C325.450323,436.205103 311.860645,434.78435 311.860645,434.78435 Z" id="Shape" fill="#2D293D" fill-rule="nonzero"></path>
                    <path d="M350.193548,428.937837 L342.224516,426.209089 C339.989677,424.382406 340.603871,422.172345 341.64129,420.531713 C342.362494,419.460541 343.477453,418.788728 344.691613,418.693755 C345.001011,418.647118 345.301075,418.544212 345.579355,418.389307 C345.785985,418.289976 345.986038,418.175061 346.178065,418.045395 C348.330323,416.630279 348.154839,413.394119 348.154839,413.394119 C348.154839,413.394119 356.686452,410.270717 359.148387,412.93181 C359.476876,413.292025 359.767694,413.691008 360.015484,414.121409 C361.594839,416.855796 361.563871,420.588092 361.563871,420.588092 C361.563871,420.588092 362.110968,423.570547 362.941935,426.958931 C363.772903,430.347315 350.193548,428.937837 350.193548,428.937837 Z" id="Shape" fill="#2D293D" fill-rule="nonzero"></path>
                    <path d="M320.815484,418.778323 C321.254686,419.259455 321.626827,419.80843 321.92,420.407679 L309.047742,422.58955 C309.58517,421.571009 309.854854,420.410215 309.827097,419.234994 C309.827097,419.234994 318.35871,416.11723 320.815484,418.778323 Z" id="Shape" fill="#000000" fill-rule="nonzero" opacity="0.1"></path>
                    <path d="M360,414.121409 L360.092903,416.765589 C358.214194,420.469696 348.454194,420.086318 345.563871,418.389307 C345.770501,418.289976 345.970554,418.175061 346.162581,418.045395 C348.314839,416.630279 348.139355,413.394119 348.139355,413.394119 C348.139355,413.394119 356.670968,410.270717 359.132903,412.93181 C359.461392,413.292025 359.75221,413.691008 360,414.121409 Z" id="Shape" fill="#000000" fill-rule="nonzero" opacity="0.1"></path>
                    <path d="M361.135484,402.659538 C360.572127,403.83554 360.100771,405.061451 359.726452,406.32418 L360.061935,415.807145 C357.997419,419.860802 346.523871,419.020753 344.908387,416.934727 C343.292903,414.8487 341.450323,409.267169 343.174194,408.229793 C344.898065,407.192418 346.157419,402.338177 346.157419,402.338177 C346.157419,402.338177 344.304516,402.901968 341.202581,399.180948 C338.100645,395.459927 338.67871,386.90158 339.138065,384.838104 C339.597419,382.774629 338.818065,375.952758 338.818065,375.952758 C338.818065,375.952758 338.76129,371.149259 337.827097,369.627023 C336.892903,368.104787 334.730323,359.298372 334.730323,359.298372 C334.730323,359.298372 334.627097,356.293366 333.032258,354.788044 C331.437419,353.282722 330.234839,347.210693 330.234839,347.210693 C329.281238,345.718334 328.829052,343.911857 328.954839,342.097108 C329.176774,339.080826 326.864516,335.929235 326.864516,335.929235 L322.673548,323.125541 L318.812903,313.541094 L317.032258,319.26921 C317.032258,319.26921 316.949677,332.495747 317.486452,335.235772 C318.023226,337.975796 318.941935,345.276889 318.941935,345.276889 C318.941935,345.276889 316.908387,350.170595 318.043871,354.207339 C319.179355,358.244083 319.153548,367.027947 319.153548,367.027947 C319.153548,367.027947 320.784516,385.114362 319.953548,386.591495 C319.122581,388.068627 319.365161,391.665614 319.365161,391.665614 C319.365161,391.665614 324.242581,402.039368 322.864516,403.539052 C321.486452,405.038736 322.064516,408.979635 322.064516,408.979635 C322.064516,408.979635 325.16129,408.849964 323.870968,410.349648 C322.580645,411.849332 321.883871,419.449235 321.883871,419.449235 L308.655484,421.704399 C308.655484,421.704399 307.375484,420.075043 305.460645,415.705662 C303.545806,411.336282 305.651613,411.730936 307.40129,411.195334 C309.150968,410.659733 307.994839,409.503961 305.852903,408.133949 C303.710968,406.763937 304.820645,403.488311 304.820645,403.488311 C304.820645,403.488311 307.79871,397.472661 306.683871,397.038542 C305.569032,396.604423 305.166452,388.327971 305.166452,388.327971 C305.166452,388.327971 302.621935,378.574386 303.101935,375.924569 C303.581935,373.274751 301.037419,366.994119 301.037419,366.994119 L300.005161,359.461871 C295.741935,352.149502 297.032258,345.254338 297.032258,345.254338 L296.619355,333.606416 C296.619355,333.606416 292.748387,311.167533 291.907097,299.778955 C291.390968,292.483499 291.096774,282.515674 290.972903,276.291422 C290.900645,272.795917 290.874839,270.484374 290.874839,270.484374 L338.162581,263.087436 C338.162581,263.087436 338.19871,265.483548 339.292903,270.754994 C339.876129,273.573949 340.769032,277.238591 342.12129,281.79966 C345.992258,294.85706 344.252903,304.791057 344.252903,304.791057 L344.402581,321.496185 C344.402581,321.496185 348.970323,332.484471 348.227097,336.363354 C347.788261,338.662031 347.58229,341.006473 347.612903,343.354362 C347.612903,343.354362 357.811613,367.332394 357.073548,374.458712 C356.335484,381.58503 360.789677,392.573317 360.789677,392.573317 C360.789677,392.573317 362.157419,400.449478 361.135484,402.659538 Z" id="Shape" fill="#454545" fill-rule="nonzero"></path>
                    <path d="M331.788387,341.25706 L346.167742,338.545225 C346.167742,338.545225 338.322581,348.016914 331.788387,341.25706 Z" id="Shape" fill="#000000" fill-rule="nonzero" opacity="0.05"></path>
                    <path d="M343.535484,323.210109 C343.535484,323.210109 344.227097,328.769089 341.166452,331.001701 C341.166452,331.001701 346.740645,329.806464 343.535484,323.210109 Z" id="Shape" fill="#000000" fill-rule="nonzero" opacity="0.1"></path>
                    <path d="M342.023226,305.478882 C342.023226,305.478882 330.322581,316.850547 325.899355,316.134532 C321.476129,315.418518 342.023226,305.478882 342.023226,305.478882 Z" id="Shape" fill="#000000" fill-rule="nonzero" opacity="0.1"></path>
                    <path d="M314.064516,347.10921 C314.064516,347.10921 304.96,349.764666 304.825806,353.807047 C304.691613,357.849429 314.064516,347.10921 314.064516,347.10921 Z" id="Shape" fill="#000000" fill-rule="nonzero" opacity="0.1"></path>
                    <path d="M317.837419,397.083645 C317.837419,397.083645 304.965161,400.269064 308.707097,401.915334 C312.449032,403.561604 318.549677,404.734289 318.549677,404.734289 C318.549677,404.734289 322.730323,404.81322 317.837419,397.083645 Z" id="Shape" fill="#000000" fill-rule="nonzero" opacity="0.05"></path>
                    <g id="Group" opacity="0.05" transform="translate(290.580645, 270.055893)" fill="#000000" fill-rule="nonzero">
                        <path d="M15.6077419,134.824982 C14.93487,134.398438 14.4740627,133.663075 14.3535484,132.823524 L14.2296774,133.082868 C14.2296774,133.082868 13.1303226,136.375407 15.2619355,137.728505 C15.5096774,137.880729 15.7367742,138.032953 15.9587097,138.185176 C16.3354839,138.089332 16.7535484,138.016039 17.1458065,137.886367 C18.9109677,137.333852 17.7496774,136.17808 15.6077419,134.824982 Z" id="Shape"></path>
                        <path d="M32.2580645,133.167436 C32.603871,132.789696 32.5574194,131.870717 32.2993548,130.692394 C31.7470968,131.650838 31.6541935,133.099781 31.6851613,134.199174 C31.804039,133.813268 31.9996928,133.460917 32.2580645,133.167436 Z" id="Shape"></path>
                        <path d="M28.1806452,73.5070717 C27.7525016,74.9461727 27.5093204,76.4432313 27.4580645,77.9553827 C27.6700817,76.9012872 27.9707116,75.870817 28.356129,74.8770838 C28.356129,74.8770838 28.2890323,74.364034 28.1806452,73.5070717 Z" id="Shape"></path>
                        <path d="M57.6464516,65.9748238 C57.7195307,65.5399048 57.7455157,65.0971046 57.723871,64.6555529 C57.5896774,65.5632564 57.5070968,66.3976671 57.4503226,67.1305954 C57.5070968,66.7415796 57.5741935,66.3694775 57.6464516,65.9748238 Z" id="Shape"></path>
                        <path d="M29.3729032,116.214241 C29.5380645,115.915431 29.6051613,114.917521 29.6051613,113.536233 C29.2382771,114.617855 29.0631202,115.765846 29.0890323,116.918979 C29.1575056,116.672507 29.2528107,116.435903 29.3729032,116.214241 Z" id="Shape"></path>
                        <path d="M32.8929032,138.737691 C32.0825806,141.477716 31.6387097,146.174095 31.6387097,146.174095 L18.4103226,148.429259 C18.4103226,148.429259 17.1303226,146.799903 15.2258065,142.419247 C15.0606452,142.035869 14.9212903,141.691956 14.8129032,141.376233 C14.0335484,141.810352 13.7496774,142.723694 14.8903226,145.32277 C16.8051613,149.692151 18.08,151.321507 18.08,151.321507 L31.3083871,149.066343 C31.3083871,149.066343 32.0309677,141.460802 33.3006452,139.961118 C33.9148387,139.239465 33.4864516,138.906829 32.8929032,138.737691 Z" id="Shape"></path>
                        <path d="M14.5754839,117.916889 C14.5754839,117.916889 14.9780645,126.198979 16.0929032,126.633098 C16.6090323,125.234897 16.923871,123.921264 16.4232258,123.729575 C15.3083871,123.295456 14.9058065,115.013366 14.9058065,115.013366 C14.9058065,115.013366 12.3612903,105.265419 12.8412903,102.609964 C13.3212903,99.9545079 10.7767742,93.679514 10.7767742,93.679514 L9.74451613,86.152904 C5.52774194,78.8743621 6.82322581,71.9679222 6.82322581,71.9679222 L6.41032258,60.3256379 C6.41032258,60.3256379 2.53935484,37.8867558 1.69806452,26.4981774 C1.18193548,19.2083597 0.887741935,9.23489672 0.763870968,3.01064399 C0.763870968,1.88306197 0.722580645,0.890789793 0.707096774,0.0507411908 L0.330322581,0.107120292 C0.330322581,0.107120292 0.330322581,2.41866343 0.423225806,5.91416768 C0.552258065,12.1158688 0.820645161,22.1062454 1.36258065,29.3960632 C2.20387097,40.7846416 6.07483871,63.2235237 6.07483871,63.2235237 L6.4516129,74.8601701 C6.4516129,74.8601701 5.15612903,81.76661 9.37290323,89.0451519 L10.4051613,96.5773998 C10.4051613,96.5773998 12.9393548,102.841118 12.4696774,105.502211 C12,108.163305 14.5754839,117.916889 14.5754839,117.916889 Z" id="Shape"></path>
                        <path d="M54.6632258,143.642673 C53.5204888,141.98433 52.7321735,140.067536 52.356129,138.032953 C51.0451613,139.425516 52.7896774,144.550377 54.3225806,146.546197 C55.9380645,148.643499 67.4116129,149.483548 69.4709677,145.418615 L69.3883871,143.129623 C66.5341935,146.48418 56.1858065,145.627217 54.6632258,143.642673 Z" id="Shape"></path>
                        <path d="M70.8851613,129.378761 C70.321804,130.554762 69.8504489,131.780673 69.476129,133.043402 L69.5329032,134.734775 C69.76,134.108967 70.0903226,133.274557 70.5651613,132.282284 C70.8797634,131.323797 71.0080817,130.304219 70.9419355,129.288554 C70.9109677,129.322382 70.9006452,129.350571 70.8851613,129.378761 Z" id="Shape"></path>
                        <path d="M54.9264516,131.94401 C55.3106541,131.00236 55.6382309,130.034344 55.9070968,129.046124 C55.9070968,129.046124 54.0541935,129.609915 50.9522581,125.888894 C48.6967742,123.182697 48.3716129,117.911252 48.5729032,114.449575 C48.0929032,116.51305 47.5148387,125.071397 50.6374194,128.78678 C52.6451613,131.216719 54.1367742,131.819976 54.9264516,131.94401 Z" id="Shape"></path>
                        <path d="M48.2580645,105.564228 C48.5322369,107.921117 48.6890269,110.292531 48.7277419,112.667995 C48.7682531,112.288296 48.830308,111.911711 48.9135484,111.540413 C49.3935484,109.476938 48.5935484,102.660705 48.5935484,102.660705 C48.5935484,102.660705 48.5367742,97.8515674 47.6025806,96.3293317 C46.6683871,94.807096 44.5058065,86.0006804 44.5058065,86.0006804 C44.5058065,86.0006804 44.4025806,83.0013123 42.8077419,81.4903524 C41.2129032,79.9793925 40,73.9299149 40,73.9299149 C39.0436553,72.4389619 38.5911964,70.6313942 38.72,68.8163305 C38.9419355,65.8000486 36.6554839,62.6540948 36.6554839,62.6540948 L32.4283871,49.8278493 L28.5677419,40.2434022 L26.7870968,45.9940705 C26.7870968,45.9940705 26.7870968,46.7044471 26.7870968,47.8207533 L28.2322581,43.1694775 L32.0929032,52.7539247 L36.2890323,65.5632564 C36.2890323,65.5632564 38.6012903,68.7148481 38.3535484,71.7254921 C38.2265506,73.5421285 38.678792,75.3508191 39.6335484,76.8447145 C39.6335484,76.8447145 40.8412903,82.9223815 42.4309677,84.4220656 C44.0206452,85.9217497 44.1341935,88.9323937 44.1341935,88.9323937 C44.1341935,88.9323937 46.3122581,97.7388092 47.2309677,99.261045 C48.1496774,100.783281 48.2580645,105.564228 48.2580645,105.564228 Z" id="Shape"></path>
                    </g>
                    <path d="M340.283871,154.371616 L339.612903,158.791738 L339.731613,160.736817 L339.814194,162.174484 L335.251613,162.88486 L334.699355,161.870036 C333.667097,160.032078 331.576774,156.294143 330.92129,155.730352 C330.043871,154.991786 328.103226,142.870279 329.945806,143.513001 C331.069495,143.935823 332.010589,144.797174 332.588387,145.931665 C332.588387,145.931665 341.636129,146.681507 340.283871,154.371616 Z" id="Shape" fill="#FFCDD3" fill-rule="nonzero"></path>
                    <path d="M339.814194,162.174484 L335.251613,162.88486 L334.699355,161.870036 C335.916401,160.232164 338.022548,159.760238 339.731613,160.742454 L339.814194,162.174484 Z" id="Shape" fill="#000000" fill-rule="nonzero" opacity="0.1"></path>
                    <path d="M341.058065,164.50294 L335.065806,166.28452 L334.900645,165.309162 L334.467097,162.676258 C334.467097,162.676258 336.738065,159.090547 340.289032,161.548676 L340.64,162.88486 L341.058065,164.50294 Z" id="Shape" fill="#DCE6F2" fill-rule="nonzero"></path>
                    <path d="M242.766452,158.949599 L236.449032,163.008894 C236.449032,163.008894 236.180645,162.445103 235.814194,161.700899 C235.153548,160.319611 234.162581,158.239222 233.883871,157.495018 C233.460645,156.367436 230.714839,154.98051 230.714839,154.98051 C223.710968,148.215018 231.545806,141.81599 231.545806,141.81599 C235.473548,132.271009 240.670968,144.634945 240.670968,144.634945 C240.670968,144.634945 241.55871,151.214386 241.109677,151.682333 C240.660645,152.150279 240.722581,153.937497 240.722581,153.937497 C241.387215,155.199636 241.955172,156.519645 242.420645,157.884034 C242.647742,158.54367 242.766452,158.949599 242.766452,158.949599 Z" id="Shape" fill="#FFCDD3" fill-rule="nonzero"></path>
                    <path d="M242.766452,158.949599 L236.449032,163.008894 C236.449032,163.008894 236.180645,162.445103 235.814194,161.700899 C236.696774,160.832661 239.824516,157.833293 240.892903,157.917861 C241.407877,157.971202 241.926316,157.971202 242.44129,157.917861 C242.647742,158.54367 242.766452,158.949599 242.766452,158.949599 Z" id="Shape" fill="#000000" fill-rule="nonzero" opacity="0.1"></path>
                    <path d="M243.499355,161.058177 L236.387097,165.264058 L236.180645,163.572685 L236.036129,162.4 C236.036129,162.4 240.103226,158.289964 241.347097,158.385808 C241.978949,158.45669 242.616841,158.42821 243.24129,158.301239 L243.375484,159.727631 L243.499355,161.058177 Z" id="Shape" fill="#DCE6F2" fill-rule="nonzero"></path>
                    <path d="M323.726452,184.22435 C323.726452,184.22435 292.242581,189.450693 298.074839,187.105322 C302.136774,185.470328 303.674839,182.544253 303.901935,179.358834 C304.087742,176.692102 303.385806,173.844957 302.446452,171.415018 C301.62214,169.266512 300.600118,167.215054 299.396129,165.292248 C299.396129,165.292248 323.060645,149.74853 318.709677,163.149842 C318.031895,165.177747 317.6437,167.307468 317.55871,169.464301 C317.484311,171.605703 317.769442,173.743891 318.4,175.773123 C319.426815,179.073523 321.270457,181.998743 323.726452,184.22435 Z" id="Shape" fill="#FFCDD3" fill-rule="nonzero"></path>
                    <path d="M318.709677,163.149842 C318.031895,165.177747 317.6437,167.307468 317.55871,169.464301 C315.354839,171.65181 312.851613,171.617983 309.646452,171.753293 C307.179355,171.854775 304.485161,172.621531 302.461935,171.40938 C301.637624,169.260874 300.615601,167.209416 299.411613,165.28661 C299.411613,165.28661 323.060645,149.74853 318.709677,163.149842 Z" id="Shape" fill="#000000" fill-rule="nonzero" opacity="0.1"></path>
                    <ellipse id="Oval" fill="#FFCDD3" fill-rule="nonzero" cx="308.727742" cy="158.402722" rx="13.0890323" ry="14.29774"></ellipse>
                    <path d="M323.726452,184.22435 C323.726452,184.22435 292.242581,189.450693 298.074839,187.105322 C302.136774,185.470328 303.674839,182.544253 303.901935,179.358834 C305.414194,177.430668 308.547097,175.976087 310.534194,175.152953 C312.365734,174.395826 314.366764,174.275705 316.263226,174.80904 C317.009851,175.017485 317.724523,175.344188 318.384516,175.778761 C319.416476,179.079096 321.265547,182.002473 323.726452,184.22435 Z" id="Shape" fill="#000000" fill-rule="nonzero" opacity="0.1"></path>
                    <path d="M341.058065,164.50294 L335.065806,166.28452 L334.900645,165.309162 C336.156166,163.26256 338.451451,162.295287 340.64,162.890498 L341.058065,164.50294 Z" id="Shape" fill="#000000" fill-rule="nonzero" opacity="0.1"></path>
                    <path d="M243.499355,161.058177 L236.387097,165.264058 L236.180645,163.572685 C238.714839,161.791106 243.003871,159.89113 243.375484,159.727631 L243.499355,161.058177 Z" id="Shape" fill="#000000" fill-rule="nonzero" opacity="0.1"></path>
                    <path d="M339.303226,270.749356 C327.132903,273.376622 309.796129,276.860851 306.99871,276.054629 C304.676129,275.389356 297.352258,275.778372 290.99871,276.285784 C290.926452,272.790279 290.900645,270.478736 290.900645,270.478736 L338.188387,263.081798 C338.188387,263.081798 338.209032,265.47791 339.303226,270.749356 Z" id="Shape" fill="#000000" fill-rule="nonzero" opacity="0.1"></path>
                    <path d="M351.411613,267.09599 C351.411613,267.09599 311.344516,276.353439 306.962581,275.096185 C302.580645,273.838931 280.418065,276.330887 280.418065,276.330887 C270.673548,284.071738 274.472258,273.094727 274.472258,273.094727 C274.472258,273.094727 273.393548,267.490644 274.44129,262.878834 C275.13078,259.499626 275.562368,256.063745 275.731613,252.606561 C275.731613,252.606561 275.256774,245.412588 276.407742,243.68175 C277.55871,241.950911 278.56,229.885784 278.56,229.885784 C278.56,229.885784 279.370323,221.671349 279.2,219.878493 C279.029677,218.085638 279.287742,213.022795 279.287742,213.022795 L280.418065,204.56593 C272.16,203.708967 246.487742,187.956646 246.487742,187.956646 C245.07871,182.36384 235.272258,169.554508 235.272258,169.554508 C235.099602,168.449697 234.803183,167.372282 234.389677,166.346537 C233.661935,164.452199 243.416774,160.195577 243.416774,160.195577 C243.416774,160.195577 251.127742,169.729283 252.75871,172.305808 C254.389677,174.882333 259.84,179.578712 259.84,179.578712 C260.657059,179.458935 261.488356,179.543764 262.270968,179.82678 C262.315032,179.835411 262.35824,179.848626 262.4,179.866245 C264.195493,180.557303 265.890359,181.527615 267.432258,182.747217 C271.375484,182.341288 274.229677,185.227898 274.229677,185.227898 C274.229677,185.227898 278.709677,184.320194 279.509677,185.126416 C280.309677,185.932637 284.123871,184.934727 284.123871,184.934727 C284.123871,184.934727 287.659355,175.885881 290.276129,178.360923 C292.892903,180.835966 303.618065,180.266537 303.618065,180.266537 C304.975484,178.129769 308.397419,176.494775 310.544516,175.637813 C312.376056,174.880686 314.377086,174.760565 316.273548,175.2939 C317.095977,175.522802 317.876338,175.904199 318.580645,176.421482 L325.331613,183.108044 C325.331613,183.108044 327.107097,180.390571 326.88,179.798591 C326.652903,179.20661 329.042581,178.625905 329.042581,178.625905 C329.042581,178.625905 332.190968,177.408117 333.388387,177.002187 C334.585806,176.596258 335.741935,177.971908 335.84,178.095942 C335.79871,177.943718 334.869677,175.074022 335.112258,172.841409 C335.354839,170.608797 333.64129,168.573512 333.64129,168.573512 C337.125161,158.086999 346.110968,166.369089 346.110968,166.369089 C346.110968,166.369089 347.298065,171.967533 346.492903,174.166318 C345.687742,176.365103 347.607742,180.85288 347.432258,182.059392 C347.256774,183.265905 347.984516,185.284277 348.067097,187.561993 C348.149677,189.839708 347.189677,194.158348 346.580645,196.125978 C345.971613,198.093609 340.903226,202.615213 340.903226,202.615213 C340.903226,202.615213 340.815484,209.470911 338.647742,213.524569 C336.48,217.578226 338.384516,231.092296 338.384516,231.092296 C338.384516,231.092296 340.965161,241.561896 343.819355,244.809332 C346.673548,248.056768 351.411613,267.09599 351.411613,267.09599 Z" id="Shape" fill="#FC6681" fill-rule="nonzero"></path>
                    <path d="M289.832258,190.578275 C289.832258,190.578275 288.485161,186.665565 287.370323,186.35548 C286.261983,185.959501 285.179135,185.482973 284.129032,184.929089 L284.784516,183.418129 C284.784516,183.418129 288.96,184.483694 289.661935,185.774775 C290.363871,187.065857 289.832258,190.578275 289.832258,190.578275 Z" id="Shape" fill="#000000" fill-rule="nonzero" opacity="0.1"></path>
                    <path d="M267.437419,182.74158 C267.256774,183.95373 257.517419,185.442139 257.517419,185.442139 L262.270968,179.804228 L262.394839,179.849332 C264.194523,180.542905 265.892952,181.517065 267.437419,182.74158 Z" id="Shape" fill="#000000" fill-rule="nonzero" opacity="0.1"></path>
                    <ellipse id="Oval" fill="#575988" fill-rule="nonzero" cx="238.554839" cy="167.457205" rx="1" ry="1"></ellipse>
                    <ellipse id="Oval" fill="#575988" fill-rule="nonzero" cx="239.747097" cy="169.328991" rx="1" ry="1"></ellipse>
                    <ellipse id="Oval" fill="#575988" fill-rule="nonzero" cx="240.908387" cy="171.054192" rx="1" ry="1"></ellipse>
                    <ellipse id="Oval" fill="#575988" fill-rule="nonzero" cx="242.131613" cy="172.925978" rx="1" ry="1"></ellipse>
                    <ellipse id="Oval" fill="#575988" fill-rule="nonzero" cx="345.71871" cy="168.466391" rx="1" ry="1"></ellipse>
                    <ellipse id="Oval" fill="#575988" fill-rule="nonzero" cx="345.889032" cy="170.231057" rx="1" ry="1"></ellipse>
                    <ellipse id="Oval" fill="#575988" fill-rule="nonzero" cx="346.049032" cy="171.995723" rx="1" ry="1"></ellipse>
                    <path d="M291.034839,223.109016 C290.926452,222.968068 316.903226,256.102066 335.421935,235.546245 C335.442581,235.546245 305.212903,241.325103 291.034839,223.109016 Z" id="Shape" fill="#000000" fill-rule="nonzero" opacity="0.1"></path>
                    <path d="M277.419355,241.471689 C277.419355,241.471689 292.258065,241.291276 293.971613,245.880535 L294.141935,250.729137 C293.304296,251.288422 292.261067,251.333237 291.385806,250.847533 C289.837419,250.024399 280.722581,245.429502 277.646452,247.955286 L277.419355,241.471689 Z" id="Shape" fill="#000000" fill-rule="nonzero" opacity="0.1"></path>
                    <path d="M277.703226,241.460413 C277.703226,241.460413 291.896774,241.285638 293.532903,245.666294 L293.698065,250.283742 C292.895643,250.81597 291.898693,250.858593 291.060645,250.396501 C289.6,249.618469 280.861935,245.232175 277.92,247.6452 L277.703226,241.460413 Z" id="Shape" fill="#656691" fill-rule="nonzero"></path>
                    <path d="M284.27871,205.997959 C285.930182,209.761655 287.988739,213.295526 290.410323,216.523937 C293.047349,220.099452 296.201089,223.180693 299.747097,225.646075 C299.747097,225.646075 284.609032,208.185468 284.27871,205.997959 Z" id="Shape" fill="#000000" fill-rule="nonzero" opacity="0.1"></path>
                    <path d="M278.766452,187.359028 C278.766452,187.359028 281.651613,198.916744 288.165161,202.609575 L278.766452,187.359028 Z" id="Shape" fill="#000000" fill-rule="nonzero" opacity="0.1"></path>
                    <path d="M275.019355,188.695213 C274.947097,188.480972 273.145806,198.00904 283.741935,202.790004 C283.741935,202.795626 279.261935,201.341045 275.019355,188.695213 Z" id="Shape" fill="#000000" fill-rule="nonzero" opacity="0.1"></path>
                    <path d="M339.473548,178.152321 C339.308387,178.152321 344.743226,181.625273 346.24,183.277181 C346.24,183.277181 342.596129,177.808408 339.473548,178.152321 Z" id="Shape" fill="#000000" fill-rule="nonzero" opacity="0.1"></path>
                    <path d="M305.651613,171.505225 C305.863226,172.232515 306.12129,173.027461 306.740645,173.388287 C307.131026,173.578852 307.557674,173.663939 307.984516,173.636355 C311.979355,173.743475 316.134194,173.760389 319.762581,171.944982 C320.442642,171.649249 321.0454,171.174799 321.517419,170.563694 C322.141935,169.661628 322.224516,168.466391 322.451613,167.361361 C322.890323,165.207679 323.927742,163.256962 324.650323,161.193487 C325.866296,157.703866 326.180544,153.916225 325.55871,150.244666 C325.417638,149.11607 325.037694,148.038924 324.449032,147.098712 C323.334194,145.491908 321.383226,144.905565 319.938065,143.653949 C318.492903,142.402333 317.522581,140.429064 315.855484,139.510085 C314.353548,138.681312 312.557419,138.861725 310.910968,139.239465 C307.668067,139.985252 304.586177,141.403425 301.832258,143.417157 C300.908387,144.088068 299.896774,144.8661 298.797419,144.685687 C297.832258,144.533463 297.109677,143.682139 296.464516,142.887193 C295.755856,144.878546 295.495648,147.02676 295.705806,149.150911 C295.754823,149.462471 295.754823,149.780882 295.705806,150.092442 C295.582405,150.471019 295.387174,150.816845 295.132903,151.107266 C294.193548,152.398348 293.646452,154.394168 294.663226,155.617594 C295.107097,156.147558 295.767742,156.418177 296.211613,156.959417 C296.985806,157.934775 296.789677,159.389356 296.815484,160.6748 C296.788622,161.122175 296.907455,161.565515 297.150968,161.926416 C297.599107,162.346436 298.215218,162.481037 298.776774,162.281604 C299.326795,162.073249 299.909373,161.986993 300.490323,162.027898 C301.116784,162.220272 301.663538,162.642324 302.03871,163.223135 C303.953548,165.675626 304.774194,168.455115 305.651613,171.505225 Z" id="Shape" fill="#2D293D" fill-rule="nonzero"></path>
                    <g id="Group" opacity="0.1" transform="translate(293.677419, 142.639125)" fill="#000000" fill-rule="nonzero">
                        <path d="M28.2374194,26.7913487 C27.7671276,27.4006795 27.1660077,27.8732984 26.4877419,28.1669988 C22.8748387,29.9993196 18.7045161,29.9824058 14.7045161,29.8583718 C14.2778838,29.8823023 13.8520119,29.7973697 13.4606452,29.6103038 C12.8464516,29.2494775 12.5832258,28.4488943 12.3716129,27.7216039 C11.4941935,24.6771324 10.6735484,21.8920049 8.75870968,19.4113244 C8.38120101,18.8342534 7.8351304,18.4147168 7.21032258,18.2217254 C6.62979049,18.1813965 6.04764809,18.2656724 5.49677419,18.4697934 C4.93443864,18.6706035 4.31698885,18.5382711 3.86580645,18.120243 C3.62469228,17.7559069 3.5061824,17.3117812 3.53032258,16.8629891 C3.50451613,15.5775456 3.70064516,14.1229648 2.9316129,13.1532442 C2.49806452,12.5894532 1.83741935,12.3413852 1.38322581,11.8057837 C0.797108334,10.9966755 0.662487352,9.90243135 1.03225806,8.95300122 C0.376774194,10.1933414 0.129032258,11.7719563 0.980645161,12.7867801 C1.41935484,13.3167436 2.08516129,13.5873633 2.52903226,14.1342406 C3.30322581,15.1039611 3.10709677,16.5585419 3.13290323,17.8439854 C3.10604087,18.2913607 3.22487394,18.7347006 3.4683871,19.0956015 C3.9165261,19.5156222 4.53263722,19.6502234 5.09419355,19.4507898 C5.64481209,19.2451848 6.22688604,19.1590036 6.80774194,19.1970838 C7.4342034,19.3894581 7.9809571,19.8115103 8.35612903,20.3923208 C10.2916129,22.8730012 11.1070968,25.6524909 11.9690323,28.7026002 C12.1806452,29.4298906 12.4387097,30.224836 13.0580645,30.5913001 C13.4491496,30.7793711 13.8752416,30.8643476 14.3019355,30.8393682 C18.2967742,30.9408505 22.4516129,30.9577643 26.08,29.1479951 C26.7587007,28.8522436 27.3610733,28.3800328 27.8348387,27.7723451 C28.0657047,27.4116282 28.240121,27.0115306 28.3509677,26.588384 C28.32,26.6560389 28.283871,26.712418 28.2374194,26.7913487 Z" id="Shape"></path>
                        <path d="M2.05935484,7.0417497 C2.22929514,6.8267707 2.35591046,6.57512766 2.43096774,6.30318348 C2.48258253,5.99376655 2.48258253,5.67670732 2.43096774,5.3672904 C2.2572451,3.62254512 2.40286442,1.85748136 2.85935484,0.174775213 L2.78193548,0.0789307412 C2.07347188,2.07033837 1.81326998,4.21850049 2.02322581,6.34264885 C2.05566905,6.57388861 2.06776727,6.80799058 2.05935484,7.0417497 Z" id="Shape"></path>
                    </g>
                    <path d="M303.623226,180.260899 C303.623226,180.260899 320.04129,181.952272 321.419355,179.195334" id="Shape" fill="#000000" fill-rule="nonzero" opacity="0.1"></path>
                    <path d="M335.122581,171.539052 C335.122581,171.539052 344.20129,171.172588 346.327742,174.803402" id="Shape" fill="#000000" fill-rule="nonzero" opacity="0.1"></path>
                    <path d="M533.630968,359.912904 C533.630968,359.912904 536.691613,364.282284 532.216774,370.884277 C527.741935,377.48627 524.056774,383.056525 525.548387,387.172199 C525.548387,387.172199 532.299355,374.915383 537.790968,374.740608 C543.282581,374.565832 539.674839,367.276015 533.630968,359.912904 Z" id="Shape" fill="#FB1D5C" fill-rule="nonzero"></path>
                    <path d="M533.630968,359.912904 C533.899946,360.333372 534.110404,360.795057 534.255484,361.282916 C539.618065,368.161166 542.472258,374.582746 537.32129,374.740608 C532.52129,374.892831 526.76129,384.268676 525.383226,386.63096 C525.429036,386.821973 525.484169,387.010172 525.548387,387.194751 C525.548387,387.194751 532.299355,374.937934 537.790968,374.763159 C543.282581,374.588384 539.674839,367.276015 533.630968,359.912904 Z" id="Shape" fill="#000000" fill-rule="nonzero" opacity="0.1"></path>
                    <path d="M539.323871,365.477521 C539.323871,367.016671 539.163871,368.262649 538.967742,368.262649 C538.771613,368.262649 538.616774,367.016671 538.616774,365.477521 C538.616774,363.938372 538.812903,364.665662 539.009032,364.665662 C539.205161,364.665662 539.323871,363.938372 539.323871,365.477521 Z" id="Shape" fill="#FFD037" fill-rule="nonzero"></path>
                    <path d="M541.274839,367.31548 C540.036129,368.048408 538.957419,368.493803 538.864516,368.307752 C538.771613,368.121701 539.700645,367.371859 540.929032,366.616379 C542.157419,365.860899 541.677419,366.413414 541.775484,366.616379 C541.873548,366.819344 542.508387,366.576914 541.274839,367.31548 Z" id="Shape" fill="#FFD037" fill-rule="nonzero"></path>
                    <path d="M517.465806,359.912904 C517.465806,359.912904 514.405161,364.282284 518.874839,370.884277 C523.344516,377.48627 527.04,383.056525 525.548387,387.172199 C525.548387,387.172199 518.797419,374.915383 513.305806,374.740608 C507.814194,374.565832 511.421935,367.276015 517.465806,359.912904 Z" id="Shape" fill="#FB1D5C" fill-rule="nonzero"></path>
                    <path d="M517.465806,359.912904 C517.196828,360.333372 516.98637,360.795057 516.84129,361.282916 C511.47871,368.161166 508.624516,374.582746 513.775484,374.740608 C518.575484,374.892831 524.330323,384.268676 525.713548,386.63096 C525.667738,386.821973 525.612605,387.010172 525.548387,387.194751 C525.548387,387.194751 518.797419,374.937934 513.305806,374.763159 C507.814194,374.588384 511.421935,367.276015 517.465806,359.912904 Z" id="Shape" fill="#000000" fill-rule="nonzero" opacity="0.1"></path>
                    <path d="M511.772903,365.477521 C511.772903,367.016671 511.932903,368.262649 512.129032,368.262649 C512.325161,368.262649 512.48,367.016671 512.48,365.477521 C512.48,363.938372 512.283871,364.665662 512.087742,364.665662 C511.891613,364.665662 511.772903,363.938372 511.772903,365.477521 Z" id="Shape" fill="#FFD037" fill-rule="nonzero"></path>
                    <path d="M509.821935,367.31548 C511.060645,368.048408 512.139355,368.493803 512.232258,368.307752 C512.325161,368.121701 511.396129,367.371859 510.167742,366.616379 C508.939355,365.860899 509.414194,366.413414 509.32129,366.616379 C509.228387,366.819344 508.583226,366.576914 509.821935,367.31548 Z" id="Shape" fill="#FFD037" fill-rule="nonzero"></path>
                    <ellipse id="Oval" fill="#FB1D5C" fill-rule="nonzero" opacity="0.1" cx="525.543226" cy="415.248991" rx="32" ry="5.36165249"></ellipse>
                    <path d="M542.018065,381.274945 L541.863226,382.63932 L541.651613,384.567485 L541.563871,385.373706 L541.347097,387.301871 L541.254194,388.108092 L541.037419,390.03062 L538.590968,411.96209 C538.369032,413.918445 535.442581,415.446318 531.912258,415.446318 L519.184516,415.446318 C515.649032,415.446318 512.727742,413.918445 512.510968,411.96209 L510.054194,390.03062 L509.842581,388.108092 L509.754839,387.301871 L509.532903,385.373706 L509.445161,384.567485 L509.228387,382.63932 L509.07871,381.274945 C508.954839,380.147363 510.539355,379.234022 512.536774,379.234022 L538.580645,379.234022 C540.557419,379.234022 542.147097,380.164277 542.018065,381.274945 Z" id="Shape" fill="#65617D" fill-rule="nonzero"></path>
                    <polygon id="Shape" fill="#9D9CB5" fill-rule="nonzero" points="541.863226 382.63932 541.646452 384.567485 509.44 384.567485 509.228387 382.63932"></polygon>
                    <polygon id="Shape" fill="#9D9CB5" fill-rule="nonzero" points="541.55871 385.368068 541.347097 387.301871 509.749677 387.301871 509.532903 385.368068"></polygon>
                    <polygon id="Shape" fill="#9D9CB5" fill-rule="nonzero" points="541.249032 388.102454 541.037419 390.03062 510.054194 390.03062 509.837419 388.102454"></polygon>
                </g>
            </g>
        </g>
    </g>
</svg>