<?xml version="1.0" encoding="UTF-8"?>
<svg width="48px" height="48px" viewBox="0 0 48 48" version="1.1" xmlns="http://www.w3.org/2000/svg" xmlns:xlink="http://www.w3.org/1999/xlink">
    <!-- Generator: Sketch 51.3 (57544) - http://www.bohemiancoding.com/sketch -->
    <title>icons8-physics</title>
    <desc>Created with Sketch.</desc>
    <defs>
        <linearGradient x1="-6.67565088%" y1="-7.70555077%" x2="72.9939779%" y2="80.4890951%" id="linearGradient-1">
            <stop stop-color="#FB1D5C" offset="0%"></stop>
            <stop stop-color="#FB1D5C" stop-opacity="0.418138587" offset="100%"></stop>
        </linearGradient>
    </defs>
    <g id="Page-1" stroke="none" stroke-width="1" fill="none" fill-rule="evenodd">
        <g id="icons8-physics" fill="url(#linearGradient-1)" fill-rule="nonzero">
            <path d="M34.0024615,24 C39.6683077,17.2070769 43.7492308,9.80769231 40.9698462,7.02923077 C38.1978462,4.25538462 30.7781538,8.34830769 24.0009231,13.9975385 C17.2089231,8.32984615 9.80953846,4.24615385 7.02923077,7.02923077 C4.25076923,9.80769231 8.33076923,17.2070769 13.9966154,23.9990769 C8.32984615,30.7910769 4.24892308,38.1904615 7.02923077,40.9698462 C7.64492308,41.5855385 8.48676923,41.8643077 9.49846154,41.8643077 C13.056,41.8643077 18.7116923,38.412 24.0009231,34.0006154 C29.2818462,38.4018462 34.9513846,41.8606154 38.5098462,41.8606154 C39.5178462,41.8596923 40.3578462,41.5818462 40.9698462,40.9698462 C43.7501538,38.1913846 39.6692308,30.792 34.0024615,24 Z M39.6655385,39.6655385 C38.4073846,40.9236923 32.9556923,39.0701538 25.4132308,32.7913846 C26.0870769,32.1996923 26.7535385,31.5987692 27.4024615,30.9886154 L26.1369231,29.6436923 C25.4076923,30.3295385 24.6987692,30.9664615 24,31.5784615 C23.3510769,31.0098462 22.6929231,30.42 22.0190769,29.7886154 L20.7572308,31.1372308 C21.3544615,31.6966154 21.9683077,32.2476923 22.5876923,32.7904615 C15.048,39.0710769 9.59723077,40.9292308 8.33538462,39.6655385 C7.07169231,38.4018462 8.92984615,32.9538462 15.2086154,25.4150769 C15.7993846,26.088 16.4012308,26.7526154 17.0123077,27.4006154 L18.3572308,26.1350769 C17.6713846,25.4067692 17.0353846,24.6978462 16.4233846,24 C17.0363077,23.3012308 17.6723077,22.5923077 18.3581538,21.864 L17.0132308,20.5984615 C16.4030769,21.2473846 15.8003077,21.9110769 15.2095385,22.5849231 C8.93076923,15.0461538 7.07353846,9.59815385 8.33630769,8.33538462 C9.60092308,7.07353846 15.0489231,8.93169231 22.5867692,15.2095385 C21.9664615,15.7532308 21.3553846,16.3061538 20.7572308,16.8655385 L22.0190769,18.2123077 C22.6938462,17.58 23.3510769,16.9901538 24,16.4224615 C24.6996923,17.0363077 25.4095385,17.6723077 26.1387692,18.36 L27.4043077,17.0150769 C26.7544615,16.404 26.0898462,15.8003077 25.4150769,15.2076923 C32.9556923,8.92984615 38.4083077,7.07538462 39.6655385,8.33538462 C40.9283077,9.59815385 39.0701538,15.0470769 32.7923077,22.5858462 C32.2006154,21.912 31.5978462,21.2464615 30.9867692,20.5975385 L29.6418462,21.8630769 C30.3286154,22.5923077 30.9655385,23.3021538 31.5784615,24.0009231 C30.9655385,24.6996923 30.3295385,25.4086154 29.6436923,26.1369231 L30.9886154,27.4024615 C31.5987692,26.7535385 32.2015385,26.0898462 32.7923077,25.416 C39.0710769,32.9538462 40.9292308,38.4018462 39.6655385,39.6655385 Z" id="Shape"></path>
            <circle id="Oval" cx="24" cy="24" r="3.69230769"></circle>
            <path d="M48,24 C48,20.1775385 40.1446154,17.7590769 31.0661538,16.9338462 C30.2409231,7.85538462 27.8224615,0 24,0 C20.1775385,0 17.7590769,7.85538462 16.9338462,16.9338462 C7.85538462,17.7590769 0,20.1775385 0,24 C0,27.8224615 7.85538462,30.2409231 16.9338462,31.0661538 C17.7590769,40.1446154 20.1775385,48 24,48 C27.8224615,48 30.2409231,40.1446154 31.0661538,31.0661538 C40.1446154,30.2409231 48,27.8224615 48,24 Z M24,1.84615385 C25.8747692,1.84615385 28.3476923,7.38461538 29.2181538,16.7889231 C27.4910769,16.6744615 25.7381538,16.6153846 24,16.6153846 C22.2618462,16.6153846 20.5089231,16.6744615 18.7818462,16.7889231 C19.6523077,7.38461538 22.1252308,1.84615385 24,1.84615385 Z M29.5384615,24 C29.5384615,25.8941538 29.472,27.6756923 29.3603077,29.3603077 C27.6756923,29.472 25.8941538,29.5384615 24,29.5384615 C22.1058462,29.5384615 20.3243077,29.472 18.6396923,29.3603077 C18.528,27.6756923 18.4615385,25.8941538 18.4615385,24 C18.4615385,22.1058462 18.528,20.3243077 18.6396923,18.6396923 C20.3243077,18.528 22.1058462,18.4615385 24,18.4615385 C25.8941538,18.4615385 27.6756923,18.528 29.3603077,18.6396923 C29.472,20.3243077 29.5384615,22.1058462 29.5384615,24 Z M1.84615385,24 C1.84615385,22.1252308 7.38461538,19.6523077 16.7889231,18.7818462 C16.6744615,20.5089231 16.6153846,22.2618462 16.6153846,24 C16.6153846,25.7381538 16.6744615,27.4910769 16.7889231,29.2181538 C7.38461538,28.3476923 1.84615385,25.8747692 1.84615385,24 Z M24,46.1538462 C22.1252308,46.1538462 19.6523077,40.6153846 18.7818462,31.2110769 C20.5089231,31.3255385 22.2618462,31.3846154 24,31.3846154 C25.7381538,31.3846154 27.4910769,31.3255385 29.2181538,31.2110769 C28.3476923,40.6153846 25.8747692,46.1538462 24,46.1538462 Z M31.212,29.2181538 C31.3255385,27.4910769 31.3846154,25.7381538 31.3846154,24 C31.3846154,22.2618462 31.3255385,20.5089231 31.2110769,18.7818462 C40.6153846,19.6523077 46.1538462,22.1252308 46.1538462,24 C46.1538462,25.8747692 40.6153846,28.3476923 31.212,29.2181538 Z" id="Shape"></path>
        </g>
    </g>
</svg>