<?xml version="1.0" encoding="UTF-8"?>
<svg width="48px" height="48px" viewBox="0 0 48 48" version="1.1" xmlns="http://www.w3.org/2000/svg" xmlns:xlink="http://www.w3.org/1999/xlink">
    <!-- Generator: Sketch 51.3 (57544) - http://www.bohemiancoding.com/sketch -->
    <title>icons8-combo_chart</title>
    <desc>Created with Sketch.</desc>
    <defs>
        <linearGradient x1="2.90934245%" y1="3.06599935%" x2="72.9939779%" y2="80.4890951%" id="linearGradient-1">
            <stop stop-color="#FB1D5C" offset="0%"></stop>
            <stop stop-color="#FB1D5C" stop-opacity="0.418138587" offset="100%"></stop>
        </linearGradient>
    </defs>
    <g id="Page-1" stroke="none" stroke-width="1" fill="none" fill-rule="evenodd">
        <g id="icons8-combo_chart" fill="url(#linearGradient-1)" fill-rule="nonzero">
            <path d="M7.38461538,34.56 L1.84615385,34.56 C0.828,34.56 0,35.42112 0,36.48 L0,48 L9.23076923,48 L9.23076923,36.48 C9.23076923,35.42112 8.40276923,34.56 7.38461538,34.56 Z M7.38461538,36.48 L7.38461538,38.4 L1.84615385,38.4 L1.84615385,36.48 L7.38461538,36.48 Z M1.84615385,46.08 L1.84615385,40.32 L7.38461538,40.32 L7.38461538,46.08 L1.84615385,46.08 Z" id="Shape"></path>
            <path d="M20.3076923,24.96 L14.7692308,24.96 C13.7510769,24.96 12.9230769,25.82112 12.9230769,26.88 L12.9230769,48 L22.1538462,48 L22.1538462,26.88 C22.1538462,25.82112 21.3258462,24.96 20.3076923,24.96 Z M20.3076923,26.88 L20.3076923,28.8 L14.7692308,28.8 L14.7692308,26.88 L20.3076923,26.88 Z M14.7692308,46.08 L14.7692308,30.72 L20.3076923,30.72 L20.3076923,46.08 L14.7692308,46.08 Z" id="Shape"></path>
            <path d="M33.2307692,32.64 L27.6923077,32.64 C26.6741538,32.64 25.8461538,33.50112 25.8461538,34.56 L25.8461538,48 L35.0769231,48 L35.0769231,34.56 C35.0769231,33.50112 34.2489231,32.64 33.2307692,32.64 Z M33.2307692,34.56 L33.2307692,36.48 L27.6923077,36.48 L27.6923077,34.56 L33.2307692,34.56 Z M27.6923077,46.08 L27.6923077,38.4 L33.2307692,38.4 L33.2307692,46.08 L27.6923077,46.08 Z" id="Shape"></path>
            <path d="M46.1538462,17.28 L40.6153846,17.28 C39.5972308,17.28 38.7692308,18.14112 38.7692308,19.2 L38.7692308,48 L48,48 L48,19.2 C48,18.14112 47.172,17.28 46.1538462,17.28 Z M46.1538462,19.2 L46.1538462,21.12 L40.6153846,21.12 L40.6153846,19.2 L46.1538462,19.2 Z M40.6153846,46.08 L40.6153846,23.04 L46.1538462,23.04 L46.1538462,46.08 L40.6153846,46.08 Z" id="Shape"></path>
            <path d="M41.5827692,9.21792 C42.1366154,9.46368 42.7458462,9.6 43.3846154,9.6 C45.9295385,9.6 48,7.44672 48,4.8 C48,2.15328 45.9295385,0 43.3846154,0 C40.8396923,0 38.7692308,2.15328 38.7692308,4.8 C38.7692308,6.09024 39.2667692,7.2576 40.0661538,8.1216 L32.9187692,18.03264 C32.2061538,17.56224 31.3670769,17.28 30.4615385,17.28 C29.3584615,17.28 28.3587692,17.70048 27.564,18.3744 L21.4153846,13.14336 C21.8778462,12.39552 22.1538462,11.51232 22.1538462,10.56 C22.1538462,7.91328 20.0833846,5.76 17.5384615,5.76 C14.9935385,5.76 12.9230769,7.91328 12.9230769,10.56 C12.9230769,11.37504 13.1381538,12.13152 13.4843077,12.80544 L7.41046154,18.28704 C6.63230769,17.66496 5.67046154,17.28 4.61538462,17.28 C2.07046154,17.28 0,19.43328 0,22.08 C0,24.72672 2.07046154,26.88 4.61538462,26.88 C7.16030769,26.88 9.23076923,24.72672 9.23076923,22.08 C9.23076923,21.2256 8.99723077,20.4336 8.61876923,19.7376 L14.6621538,14.28288 C15.4541538,14.94624 16.4455385,15.36 17.5384615,15.36 C18.4984615,15.36 19.3901538,15.0528 20.1295385,14.52864 L26.3944615,19.85952 C26.0556923,20.52672 25.8461538,21.27456 25.8461538,22.08 C25.8461538,24.72672 27.9166154,26.88 30.4615385,26.88 C33.0064615,26.88 35.0769231,24.72672 35.0769231,22.08 C35.0769231,21.07296 34.7750769,20.1408 34.2636923,19.368 L41.5827692,9.21792 Z M43.3846154,1.92 C44.9113846,1.92 46.1538462,3.21216 46.1538462,4.8 C46.1538462,6.38784 44.9113846,7.68 43.3846154,7.68 C41.8578462,7.68 40.6153846,6.38784 40.6153846,4.8 C40.6153846,3.21216 41.8578462,1.92 43.3846154,1.92 Z M4.61538462,24.96 C3.08861538,24.96 1.84615385,23.66784 1.84615385,22.08 C1.84615385,20.49216 3.08861538,19.2 4.61538462,19.2 C6.14215385,19.2 7.38461538,20.49216 7.38461538,22.08 C7.38461538,23.66784 6.14215385,24.96 4.61538462,24.96 Z M17.5384615,13.44 C16.0116923,13.44 14.7692308,12.14784 14.7692308,10.56 C14.7692308,8.97216 16.0116923,7.68 17.5384615,7.68 C19.0652308,7.68 20.3076923,8.97216 20.3076923,10.56 C20.3076923,12.14784 19.0652308,13.44 17.5384615,13.44 Z M30.4615385,24.96 C28.9347692,24.96 27.6923077,23.66784 27.6923077,22.08 C27.6923077,20.49216 28.9347692,19.2 30.4615385,19.2 C31.9883077,19.2 33.2307692,20.49216 33.2307692,22.08 C33.2307692,23.66784 31.9883077,24.96 30.4615385,24.96 Z" id="Shape"></path>
        </g>
    </g>
</svg>