<?xml version="1.0" encoding="UTF-8"?>
<svg width="48px" height="48px" viewBox="0 0 48 48" version="1.1" xmlns="http://www.w3.org/2000/svg" xmlns:xlink="http://www.w3.org/1999/xlink">
    <!-- Generator: Sketch 51.3 (57544) - http://www.bohemiancoding.com/sketch -->
    <title>icons8-like_it</title>
    <desc>Created with Sketch.</desc>
    <defs>
        <linearGradient x1="2.90934245%" y1="3.06599935%" x2="72.9939779%" y2="80.4890951%" id="linearGradient-1">
            <stop stop-color="#FB1D5C" offset="0%"></stop>
            <stop stop-color="#FB1D5C" stop-opacity="0.418138587" offset="100%"></stop>
        </linearGradient>
    </defs>
    <g id="Page-1" stroke="none" stroke-width="1" fill="none" fill-rule="evenodd">
        <g id="icons8-like_it" fill="url(#linearGradient-1)" fill-rule="nonzero">
            <path d="M35.0769231,15.36 C36.5067692,15.36 43.3846154,11.11776 43.3846154,4.8 C43.3846154,2.15328 41.3141538,0 38.7692308,0 C37.2609231,0 35.9196923,0.75648 35.0769231,1.92288 C34.2341538,0.75648 32.8929231,0 31.3846154,0 C28.8396923,0 26.7692308,2.15328 26.7692308,4.8 C26.7692308,11.11776 33.6470769,15.36 35.0769231,15.36 Z M31.3846154,1.92 C32.9113846,1.92 34.1538462,3.21216 34.1538462,4.8 L34.1538462,6.72 L36,6.72 L36,4.8 C36,3.21216 37.2424615,1.92 38.7692308,1.92 C40.296,1.92 41.5384615,3.21216 41.5384615,4.8 C41.5384615,9.71424 36.0433846,13.13472 35.0769231,13.42848 C34.1104615,13.13376 28.6153846,9.71424 28.6153846,4.8 C28.6153846,3.21216 29.8578462,1.92 31.3846154,1.92 Z" id="Shape"></path>
            <path d="M46.1935385,33.79872 C47.2827692,33.0192 48,31.71552 48,30.24 C48,28.6416 47.1516923,27.2592 45.9073846,26.51232 C46.6283077,25.73472 47.0769231,24.68256 47.0769231,23.52 C47.0769231,21.13824 45.2132308,19.2 42.9230769,19.2 L24.9230769,19.2 C24.4135385,19.2 24,18.76992 24,18.24 L24,9.12 C24,6.20928 21.7218462,3.84 18.9230769,3.84 C16.1243077,3.84 13.8461538,6.20928 13.8461538,9.12 L13.8461538,18.24 C13.8461538,19.82784 12.6036923,21.12 11.0769231,21.12 L10.9070769,21.12 C10.5249231,20.00448 9.50953846,19.2 8.30769231,19.2 L2.76923077,19.2 C1.24246154,19.2 0,20.49216 0,22.08 L0,45.12 C0,46.70784 1.24246154,48 2.76923077,48 L8.30769231,48 C9.29446154,48 10.1556923,47.45664 10.6467692,46.6464 C11.4775385,47.48064 12.6027692,48 13.8461538,48 L40.1538462,48 C42.444,48 44.3076923,46.06176 44.3076923,43.68 C44.3076923,42.7824 44.0427692,41.94912 43.5913846,41.25888 C45.7846154,41.14368 47.5384615,39.2688 47.5384615,36.96 C47.5384615,35.7072 47.0150769,34.58784 46.1935385,33.79872 Z M9.23076923,45.12 C9.23076923,45.64992 8.81723077,46.08 8.30769231,46.08 L2.76923077,46.08 C2.25969231,46.08 1.84615385,45.64992 1.84615385,45.12 L1.84615385,32.64 L5.53846154,32.64 L5.53846154,30.72 L1.84615385,30.72 L1.84615385,28.8 L5.53846154,28.8 L5.53846154,26.88 L1.84615385,26.88 L1.84615385,24.96 L5.53846154,24.96 L5.53846154,23.04 L1.84615385,23.04 L1.84615385,22.08 C1.84615385,21.55008 2.25969231,21.12 2.76923077,21.12 L8.30769231,21.12 C8.81723077,21.12 9.23076923,21.55008 9.23076923,22.08 L9.23076923,42.24 L9.23076923,43.2 L9.23076923,45.12 Z M43.3846154,39.36 L40.1538462,39.36 L34.1538462,39.36 L33.2307692,39.36 L33.2307692,41.28 L34.1538462,41.28 L40.1538462,41.28 C41.4267692,41.28 42.4615385,42.35616 42.4615385,43.68 C42.4615385,45.00384 41.4267692,46.08 40.1538462,46.08 L13.8461538,46.08 C12.3193846,46.08 11.0769231,44.78784 11.0769231,43.2 L11.0769231,42.24 L11.0769231,23.04 C13.6218462,23.04 15.6923077,20.88672 15.6923077,18.24 L15.6923077,9.12 C15.6923077,7.2672 17.1415385,5.76 18.9230769,5.76 C20.7046154,5.76 22.1538462,7.2672 22.1538462,9.12 L22.1538462,18.24 C22.1538462,19.82784 23.3963077,21.12 24.9230769,21.12 L42.9230769,21.12 C44.196,21.12 45.2307692,22.19616 45.2307692,23.52 C45.2307692,24.84384 44.196,25.92 42.9230769,25.92 L36.9230769,25.92 L35.0769231,25.92 L35.0769231,27.84 L36.9230769,27.84 L42.9230769,27.84 L43.8461538,27.84 C45.1190769,27.84 46.1538462,28.91616 46.1538462,30.24 C46.1538462,31.56384 45.1190769,32.64 43.8461538,32.64 L43.3846154,32.64 L36,32.64 L35.0769231,32.64 L35.0769231,34.56 L36,34.56 L43.3846154,34.56 C44.6575385,34.56 45.6923077,35.63616 45.6923077,36.96 C45.6923077,38.28384 44.6575385,39.36 43.3846154,39.36 Z" id="Shape"></path>
            <rect id="Rectangle-path" x="28.6153846" y="24.96" width="1.84615385" height="3.84"></rect>
            <rect id="Rectangle-path" x="28.6153846" y="31.68" width="1.84615385" height="3.84"></rect>
            <rect id="Rectangle-path" x="28.6153846" y="38.4" width="1.84615385" height="3.84"></rect>
            <path d="M7.38461538,43.2 C7.38461538,43.72992 6.97107692,44.16 6.46153846,44.16 L4.61538462,44.16 C4.10584615,44.16 3.69230769,43.72992 3.69230769,43.2 L3.69230769,41.28 C3.69230769,40.75008 4.10584615,40.32 4.61538462,40.32 L6.46153846,40.32 C6.97107692,40.32 7.38461538,40.75008 7.38461538,41.28 L7.38461538,43.2 Z" id="Shape"></path>
        </g>
    </g>
</svg>