<?xml version="1.0" encoding="UTF-8"?>
<svg width="42px" height="52px" viewBox="0 0 42 52" version="1.1" xmlns="http://www.w3.org/2000/svg" xmlns:xlink="http://www.w3.org/1999/xlink">
    <!-- Generator: Sketch 51.3 (57544) - http://www.bohemiancoding.com/sketch -->
    <title>icons8-mind_map</title>
    <desc>Created with Sketch.</desc>
    <defs>
        <linearGradient x1="2.90934245%" y1="3.06599935%" x2="72.9939779%" y2="80.4890951%" id="linearGradient-1">
            <stop stop-color="#FB1D5C" offset="0%"></stop>
            <stop stop-color="#FB1D5C" stop-opacity="0.418138587" offset="100%"></stop>
        </linearGradient>
    </defs>
    <g id="Page-1" stroke="none" stroke-width="1" fill="none" fill-rule="evenodd">
        <g id="icons8-mind_map" transform="translate(-1.000000, 0.000000)" fill="url(#linearGradient-1)" fill-rule="nonzero">
            <path d="M19.997,2 C18.343,2 16.997,3.346 16.997,5 C16.997,5.462 17.111,5.894 17.298,6.285 L15.75,7.833 C14.96,7.309 14.015,7 12.997,7 C11.979,7 11.035,7.309 10.244,7.833 L8.43,6.019 C8.781,5.424 8.997,4.739 8.997,4 C8.997,1.794 7.203,0 4.997,0 C2.791,0 0.997,1.794 0.997,4 C0.997,6.206 2.791,8 4.997,8 C5.737,8 6.421,7.785 7.016,7.433 L8.83,9.247 C8.306,10.038 7.997,10.983 7.997,12 C7.997,13.018 8.306,13.963 8.83,14.754 L7.509,16.075 C7.346,16.031 7.177,16 6.999,16 C5.896,16 4.999,16.897 4.999,18 C4.999,19.103 5.896,20 6.999,20 C8.102,20 8.999,19.103 8.999,18 C8.999,17.822 8.968,17.652 8.924,17.488 L10.246,16.167 C10.771,16.515 11,16.769 12,16.899 L12,19.184 C11,19.598 9.999,20.698 9.999,22 C9.999,23.654 11.344,25 12.998,25 C14.652,25 15.999,23.654 15.999,22 C15.999,20.698 15,19.598 14,19.184 L14,16.899 C15,16.769 15.227,16.515 15.752,16.167 L17.073,17.489 C17.029,17.653 16.998,17.823 16.998,18 C16.998,19.103 17.895,20 18.998,20 C20.101,20 20.998,19.103 20.998,18 C20.998,16.897 20.1,16 18.998,16 C18.82,16 18.651,16.031 18.487,16.075 L17.165,14.753 C17.689,13.962 17.998,13.017 17.998,12 C17.998,10.983 17.689,10.038 17.165,9.247 L18.713,7.699 C19.103,7.886 19.536,8 19.997,8 C21.651,8 22.997,6.654 22.997,5 C22.997,3.346 21.652,2 19.997,2 Z M2.997,4 C2.997,2.897 3.894,2 4.997,2 C6.1,2 6.997,2.897 6.997,4 C6.997,5.103 6.1,6 4.997,6 C3.894,6 2.997,5.103 2.997,4 Z M12.997,23 C12.445,23 11.997,22.552 11.997,22 C11.997,21.448 12.445,21 12.997,21 C13.549,21 13.997,21.448 13.997,22 C13.997,22.552 13.549,23 12.997,23 Z M12.997,15 C11.343,15 9.997,13.654 9.997,12 C9.997,10.346 11.343,9 12.997,9 C14.651,9 15.997,10.346 15.997,12 C15.997,13.654 14.652,15 12.997,15 Z M19.997,6 C19.445,6 18.997,5.552 18.997,5 C18.997,4.448 19.445,4 19.997,4 C20.549,4 20.997,4.448 20.997,5 C20.997,5.552 20.549,6 19.997,6 Z" id="Shape"></path>
            <path d="M42.219,29.781 L38,24.642 L38,20 C38,12.832 32,7 25,7 L25,9 C31,9 36,13.935 36,20 L36,25.358 L40.726,31.109 C41.154,31.554 40.966,32.108 40.897,32.267 C40.824,32.439 40.531,33 39.827,33 L36,33 L36,39 L31.997,39 C31.446,39 31,38.552 31,38 L31,37 L29,37 L29,38 C29,39.654 30.343,41 31.997,41 L36,41 L36,42 C36,43.654 34.652,45 32.997,45 L27.997,45 C26.343,45 25,46.346 25,48 L25,52 L27,52 L27,48 C27,47.448 27.446,47 27.997,47 L32.997,47 C35.754,47 38,44.757 38,42 L38,41 L38,40 L38,35 L39.827,35 C41.11,35 42.227,34.253 42.739,33.051 C43.235,31.882 43.017,30.606 42.219,29.781 Z" id="Shape"></path>
            <path d="M14,40 L14,36 L10.997,36 C9.343,36 8,34.645 8,32.979 L8,29 C8,28.439 8.428,28 8.977,28 L11.019,28 C11.559,28 12,28.439 12,28.979 L12,30 L14,30 L14,28.979 C14,27.337 12.662,26 11.019,26 L10,26 L10,24 L8,24 L8,26.18 C7,26.59 6,27.693 6,29 L6,32.979 C6,34.613 7,36.052 8,36.97 L8,43 L6.997,43 C5.343,43 4,41.654 4,40 L4,22 L2,22 L2,40 C2,42.757 4.241,45 6.997,45 L8,45 L8,52 L10,52 L10,37.898 C10,37.965 10.655,38 10.997,38 L12,38 L12,40 C12,43.859 15,47 19,47 L19,45 C16,45 14,42.757 14,40 Z" id="Shape"></path>
            <polygon id="Shape" points="33 30 33 25 34 25 34 23 32.997 23 30.997 23 28 23 28 25 31 25 31 30"></polygon>
        </g>
    </g>
</svg>