<?xml version="1.0" encoding="utf-8"?>
<!-- Generator: Adobe Illustrator 15.1.0, SVG Export Plug-In . SVG Version: 6.00 Build 0)  -->
<!DOCTYPE svg PUBLIC "-//W3C//DTD SVG 1.1//EN" "http://www.w3.org/Graphics/SVG/1.1/DTD/svg11.dtd">
<svg version="1.1" id="Ebene_1" xmlns="http://www.w3.org/2000/svg" xmlns:xlink="http://www.w3.org/1999/xlink" x="0px" y="0px"
	 width="141.732px" height="141.733px" viewBox="0 0 141.732 141.733" enable-background="new 0 0 141.732 141.733"
	 xml:space="preserve">
<g>
	<polygon fill-rule="evenodd" clip-rule="evenodd" fill="#706F6F" points="30.886,99.374 109.858,99.374 109.858,104.686 
		30.886,104.686 30.886,99.374 	"/>
	<path fill="#706F6F" d="M19.553,120.278l1.272,1.031l6.978-7.365c0.596-0.638,1.864-2.039,1.864-2.039
		c-0.465,0.904-0.747,1.583-1.2,2.604l-4.163,9.618l1.128,0.913l9.046-6.329c0.481-0.331,1.288-0.932,1.844-1.389
		c0,0-0.92,1.203-1.446,1.95l-5.917,8.624l1.321,1.07l7.998-11.82l-1.949-1.579l-8.026,5.663c-0.602,0.447-0.93,0.688-1.864,1.479
		c0.546-0.971,0.713-1.343,1.13-2.285l3.831-8.848l-1.933-1.564L19.553,120.278L19.553,120.278z M18.468,93.799l-0.452-1.574
		l-9.94,2.031c-0.854,0.18-2.696,0.601-2.696,0.601c0.899-0.474,1.52-0.867,2.476-1.443l8.926-5.492l-0.4-1.395L5.341,86.523
		c-0.584-0.005-1.588,0.024-2.306,0.079c0,0,1.443-0.457,2.303-0.769l9.793-3.67l-0.468-1.635L1.332,85.625l0.691,2.411L11.846,88
		c0.749-0.021,1.156-0.029,2.374-0.142c-1.004,0.481-1.354,0.689-2.236,1.223l-8.212,5.051l0.685,2.391L18.468,93.799L18.468,93.799
		z M30.886,41.776h31.442v2.316H30.886V41.776L30.886,41.776z M30.886,49.193h78.972v1.236H30.886V49.193L30.886,49.193z
		 M69.788,26.646h1.17v2.471h-1.17V26.646L69.788,26.646z M68.179,30.97h4.386v1.235h-4.386V30.97L68.179,30.97z M65.985,36.993
		h8.774v2.317h-8.774V36.993L65.985,36.993z M78.415,41.781h31.443v2.316H78.415V41.781L78.415,41.781z M30.886,60.467h78.972v2.316
		H30.886V60.467L30.886,60.467z M76.171,84.561c1.601,0.509,3.202,1.017,4.805,1.524c-0.737,2.678-1.962,4.668-3.675,5.968
		c-1.714,1.3-3.888,1.95-6.52,1.95c-3.259,0-5.937-1.113-8.036-3.34c-2.098-2.227-3.147-5.271-3.147-9.132
		c0-4.085,1.055-7.257,3.164-9.517c2.109-2.259,4.883-3.39,8.32-3.39c3.001,0,5.44,0.887,7.314,2.662
		c1.117,1.05,1.955,2.556,2.511,4.521c-1.634,0.391-3.269,0.781-4.904,1.171c-0.289-1.271-0.895-2.276-1.816-3.013
		c-0.92-0.736-2.038-1.105-3.355-1.105c-1.819,0-3.294,0.653-4.428,1.959c-1.132,1.307-1.699,3.421-1.699,6.344
		c0,3.104,0.558,5.313,1.674,6.631c1.116,1.316,2.567,1.975,4.354,1.975c1.315,0,2.447-0.419,3.396-1.256
		C75.078,87.676,75.759,86.359,76.171,84.561L76.171,84.561z M30.862,93.703c0-8.181,0-16.361,0-24.541c2.472,0,4.943,0,7.416,0
		c1.484,5.58,2.968,11.16,4.453,16.74c1.468-5.58,2.935-11.16,4.402-16.74c2.478,0,4.956,0,7.433,0c0,8.18,0,16.36,0,24.541
		c-1.534,0-3.069,0-4.604,0c0-6.438,0-12.879,0-19.318c-1.624,6.439-3.247,12.88-4.872,19.318c-1.59,0-3.18,0-4.771,0
		c-1.618-6.438-3.236-12.879-4.855-19.318c0,6.439,0,12.88,0,19.318C33.932,93.703,30.862,93.703,30.862,93.703L30.862,93.703z
		 M86.143,93.703c0-8.181,0-16.361,0-24.541c2.472,0,4.944,0,7.416,0c1.482,5.58,2.968,11.16,4.452,16.74
		c1.469-5.58,2.935-11.16,4.403-16.74c2.476,0,4.954,0,7.432,0c0,8.18,0,16.36,0,24.541c-1.535,0-3.069,0-4.603,0
		c0-6.438,0-12.879,0-19.318c-1.625,6.439-3.249,12.88-4.872,19.318c-1.591,0-3.181,0-4.771,0
		c-1.617-6.438-3.236-12.879-4.854-19.318c0,6.439,0,12.88,0,19.318C89.21,93.703,86.143,93.703,86.143,93.703L86.143,93.703z
		 M0.017,71.381l14.134,4.994l0.03-1.721L9.833,73.21l0.093-5.305l4.396-1.271l0.034-1.927L0.056,69.164L0.017,71.381L0.017,71.381z
		 M3.608,71.113l-2.081-0.742l2.209-0.645c1.229-0.352,4.792-1.409,4.792-1.409L8.452,72.71C8.452,72.71,3.897,71.201,3.608,71.113
		L3.608,71.113z M15.416,59.504l0.44-1.642l-6.187-1.658c0.203-0.676,0.463-0.928,1.289-1.286c1.1-0.499,2.526-1.018,4.058-1.53
		c1.082-0.354,1.38-0.424,2.187-0.552l0.553-2.062c0,0-2.716,0.925-3.591,1.227c-0.809,0.298-1.447,0.514-1.902,0.691
		c-0.456,0.179-1.22,0.467-1.912,0.969c0.021-0.08,0.038-0.14,0.054-0.2c0.585-2.182-0.528-4.047-2.797-4.655
		c-1.468-0.393-2.591,0.1-3.258,0.586c-0.718,0.516-1.305,1.345-1.81,3.228l-0.858,3.204L15.416,59.504L15.416,59.504z
		 M3.932,52.951c0.198-0.741,0.444-1.254,0.741-1.647c0.513-0.699,1.548-1.022,2.452-0.78c0.904,0.242,1.584,0.682,1.881,1.255
		c0.37,0.636,0.366,1.45,0.039,2.671l-0.392,1.461l-5.145-1.379L3.932,52.951L3.932,52.951z M20.353,45.311l0.834-1.504L8.75,36.913
		l-0.833,1.504L20.353,45.311L20.353,45.311z M14.646,40.086l9.213-1.102l1.056-1.903l-9.353,1.31l-3.064-8.24l-1.055,1.904
		L14.646,40.086L14.646,40.086z M29.131,32.64l5.74-5.543l-1.022-1.059l-4.502,4.348l-3.586-3.712l3.504-3.384l-1.023-1.059
		l-3.503,3.384l-3.197-3.311l4.189-4.046l-0.814-1.172l-5.592,5.399L29.131,32.64L29.131,32.64z M32.235,13.115l3.303-1.907
		l6.395,11.076l1.418-0.818l-6.395-11.076l3.339-1.928l-0.626-1.29l-8.15,4.705L32.235,13.115L32.235,13.115z M52.445,17.369
		l1.568-0.54l-4.63-13.444l-1.568,0.54L52.445,17.369L52.445,17.369z M60.95,14.947l1.755-0.154l-0.799-8.19
		c-0.144-1.402-0.314-2.635-0.522-3.824c0.356,0.738,1.134,2.022,1.907,3.246l5.299,8.254l1.776-0.156L69.13,0l-1.672,0.146
		l0.733,7.676c0.184,1.856,0.562,4.278,0.562,4.278s-0.975-1.871-1.58-2.837l-5.498-8.612l-1.961,0.172L60.95,14.947L60.95,14.947z
		 M85.235,1.325c-1.444-0.281-2.728-0.087-3.899,0.615c-1.714,0.997-2.776,2.775-3.296,5.44c-0.467,2.401-0.254,4.237,0.678,5.749
		c0.838,1.345,2.202,2.248,3.952,2.588c1.426,0.276,3.011,0.159,4.134-0.298l1.266-6.511l-4.7-0.914l0.057,1.447l2.808,0.546
		l-0.826,4.252c-0.662,0.252-1.45,0.289-2.325,0.118c-1.322-0.257-2.636-1.103-3.089-2.142c-0.451-1.038-0.51-2.591-0.152-4.422
		c0.256-1.323,0.667-2.467,1.235-3.433c0.883-1.497,2.313-2,3.938-1.685c1.078,0.21,1.834,0.673,2.822,1.668l0.954-0.892
		C87.913,2.331,86.721,1.614,85.235,1.325L85.235,1.325z M113.017,13.576c-2.784-2.022-6.656-0.994-9.143,2.427
		c-2.534,3.488-2.362,7.307,0.438,9.341c1.141,0.828,2.527,1.319,3.888,1.385l-0.043-1.492c-1.116-0.016-1.929-0.273-2.784-0.895
		c-1.307-0.95-2.011-2.486-1.551-4.355c0.219-0.865,0.594-1.592,1.398-2.699c0.988-1.358,1.809-2.171,2.704-2.699
		c1.492-0.889,2.947-0.882,4.271,0.08c0.84,0.609,1.336,1.303,1.658,2.305l1.382-0.353C114.886,15.447,114.125,14.38,113.017,13.576
		L113.017,13.576z M111.767,31.28l5.13,6.113l1.127-0.946l-4.022-4.795l3.952-3.318l3.132,3.731l1.127-0.946l-3.131-3.731
		l3.525-2.958l3.743,4.462l1.226-0.731l-4.994-5.955L111.767,31.28L111.767,31.28z M120.265,42.415l0.715,1.609l7.484-3.423
		c1.279-0.592,2.39-1.155,3.446-1.738c-0.582,0.577-1.542,1.731-2.448,2.859l-6.079,7.698l0.725,1.628l12.952-5.767l-0.682-1.534
		l-7.02,3.193c-1.695,0.778-3.862,1.924-3.862,1.924s1.45-1.531,2.167-2.417l6.354-8.002l-0.801-1.799L120.265,42.415
		L120.265,42.415z M138.475,54.394l0.662,3.756l-12.594,2.22l0.282,1.613l12.595-2.221l0.67,3.797l1.428-0.147l-1.635-9.267
		L138.475,54.394L138.475,54.394z M127.652,71.725l-0.695,7.95l1.467,0.128l0.545-6.236l5.142,0.45l-0.424,4.853l1.466,0.129
		l0.424-4.853l4.585,0.4l-0.508,5.803l1.385,0.35l0.678-7.743L127.652,71.725L127.652,71.725z M125.846,85.705l-0.553,1.607
		l6.055,2.085c-0.248,0.659-0.525,0.893-1.374,1.192c-1.131,0.422-2.592,0.84-4.155,1.244c-1.104,0.277-1.406,0.326-2.221,0.397
		l-0.695,2.019c0,0,2.775-0.733,3.67-0.974c0.827-0.24,1.478-0.411,1.944-0.558s1.25-0.381,1.977-0.832
		c-0.027,0.078-0.049,0.138-0.068,0.195c-0.736,2.137,0.243,4.074,2.466,4.839c1.438,0.495,2.591,0.082,3.29-0.357
		c0.752-0.465,1.396-1.251,2.031-3.094l1.079-3.135L125.846,85.705L125.846,85.705z M136.845,93.043
		c-0.25,0.725-0.529,1.221-0.854,1.591c-0.563,0.662-1.615,0.913-2.501,0.608c-0.885-0.305-1.533-0.791-1.789-1.384
		c-0.324-0.66-0.264-1.473,0.146-2.667l0.494-1.431l5.036,1.734L136.845,93.043L136.845,93.043z M38.493,129.222
		c-0.641,1.438-0.664,1.745-0.633,2.44c0.058,1.501,1.001,2.696,3.008,3.589c1.571,0.7,2.757,0.839,3.856,0.511
		c1.107-0.347,1.575-0.887,2.401-2.742l4.021-9.033l-1.533-0.683l-3.946,8.862c-0.54,1.212-0.845,1.644-1.479,1.997
		c-0.634,0.352-1.574,0.273-2.654-0.206c-1.458-0.649-2.152-1.64-1.923-2.764c0.084-0.394,0.356-1.156,0.753-2.047l3.701-8.313
		l-1.533-0.684L38.493,129.222L38.493,129.222z M44.696,118.96c-0.245,0.548-0.011,1.196,0.538,1.441
		c0.549,0.244,1.168-0.025,1.413-0.574c0.236-0.53-0.005-1.159-0.555-1.403C45.561,118.188,44.931,118.43,44.696,118.96
		L44.696,118.96z M48.596,120.697c-0.244,0.549,0.008,1.206,0.557,1.45c0.531,0.236,1.168-0.024,1.413-0.573
		c0.235-0.53-0.024-1.169-0.555-1.405C49.461,119.924,48.832,120.166,48.596,120.697L48.596,120.697z M53.335,139.622l1.735,0.306
		l1.348-8.118c0.224-1.392,0.379-2.627,0.485-3.829c0.153,0.806,0.572,2.248,1.002,3.628l2.982,9.346l1.755,0.31l2.461-13.964
		l-1.653-0.291l-1.277,7.604c-0.304,1.841-0.565,4.278-0.565,4.278s-0.458-2.059-0.792-3.149l-3.081-9.74l-1.939-0.343
		L53.335,139.622L53.335,139.622z M74.443,126.907c-2.749,0.192-4.473,1.976-4.304,4.395c0.063,0.91,0.429,1.675,1.051,2.255
		c0.598,0.539,1.301,0.781,2.61,1.084l1.457,0.334c1.751,0.397,2.64,1.208,2.728,2.47c0.059,0.826-0.225,1.532-0.871,2.097
		c-0.567,0.497-1.134,0.703-2.21,0.778c-1.428,0.1-2.651-0.188-3.89-0.954l-0.652,1.376c1.466,0.771,2.942,1.086,4.639,0.968
		c1.303-0.092,2.233-0.431,3.122-1.095c1.182-0.936,1.818-2.228,1.727-3.55c-0.063-0.89-0.48-1.815-1.105-2.438
		c-0.605-0.621-1.313-0.946-2.601-1.251l-1.672-0.402c-1.71-0.4-2.438-1.015-2.519-2.152c-0.102-1.446,0.892-2.41,2.669-2.534
		c1.221-0.085,2.11,0.164,3.538,0.958l0.658-1.272C77.411,127.157,75.974,126.8,74.443,126.907L74.443,126.907z M83.332,127.46
		l3.685-0.986l3.31,12.353l1.582-0.425l-3.311-12.352l3.724-0.998l-0.269-1.409l-9.09,2.437L83.332,127.46L83.332,127.46z
		 M102.565,134.217l6.91-3.99l-0.736-1.274l-5.42,3.129l-2.582-4.47l4.22-2.435l-0.736-1.275l-4.218,2.437l-2.302-3.985l5.044-2.913
		l-0.506-1.334l-6.732,3.887L102.565,134.217L102.565,134.217z M115.924,125.593l1.244-1.159l-4.368-4.685
		c0.529-0.466,0.885-0.541,1.775-0.407c1.196,0.159,2.681,0.475,4.251,0.853c1.104,0.273,1.396,0.371,2.147,0.69l1.561-1.456
		c0,0-2.793-0.654-3.694-0.861c-0.844-0.176-1.5-0.331-1.98-0.421c-0.48-0.091-1.281-0.251-2.134-0.192
		c0.061-0.057,0.105-0.099,0.152-0.142c1.651-1.541,1.694-3.712,0.094-5.431c-1.037-1.11-2.252-1.287-3.074-1.229
		c-0.882,0.058-1.819,0.449-3.245,1.778l-2.425,2.261L115.924,125.593L115.924,125.593z M109.659,113.95
		c0.563-0.522,1.041-0.829,1.502-1.003c0.806-0.322,1.854-0.048,2.493,0.637s0.982,1.418,0.93,2.061
		c-0.021,0.735-0.457,1.425-1.383,2.287l-1.105,1.031l-3.634-3.896L109.659,113.95L109.659,113.95z"/>
</g>
</svg>
