<?xml version="1.0" encoding="utf-8"?>
<!-- Generator: Adobe Illustrator 23.0.1, SVG Export Plug-In . SVG Version: 6.00 Build 0)  -->
<svg version="1.1" id="Ebene_1" xmlns="http://www.w3.org/2000/svg" xmlns:xlink="http://www.w3.org/1999/xlink" x="0px" y="0px"
	 viewBox="0 0 76 26" style="enable-background:new 0 0 76 26;" xml:space="preserve">
<style type="text/css">
	.st0{enable-background:new    ;}
	.st1{fill:#FB1D5C;}
	.st2{font-family:'NexaLight-Regular';}
	.st3{font-size:11px;}
</style>
<title>Zeichenfläche 1</title>
<g class="st0">
	<path d="M13.5,4.3l-4,5.6H9.1l-4-5.6v9.1H3.2V1.5c0.7,0,1.4,0,2.2,0l3.9,5.6l3.9-5.6h2.2v11.9h-1.9V4.3z"/>
</g>
<g class="st0">
	<path d="M19.6,5v4.5c0,1.4,0.8,2.4,2.3,2.4c1.4,0,2.3-1.1,2.3-2.5V5H26v8.4h-1.6l-0.1-1.2c-0.8,0.9-1.7,1.4-2.9,1.4
		c-2.1,0-3.5-1.5-3.5-4V5H19.6z M20.1,1.4c0.5,0,1.1,0.4,1.1,1.1c0,0.7-0.5,1-1.1,1S19,3.1,19,2.4C19,1.7,19.5,1.4,20.1,1.4z
		 M24.2,1.4c0.5,0,1.1,0.4,1.1,1.1c0,0.7-0.5,1-1.1,1c-0.5,0-1.1-0.3-1.1-1C23.1,1.7,23.6,1.4,24.2,1.4z"/>
	<path d="M34.7,13.4V8.9c0-1.4-0.8-2.4-2.3-2.4c-1.4,0-2.3,1.1-2.3,2.5v4.4h-1.8V5H30l0.1,1.2c0.8-0.9,1.7-1.3,2.8-1.3
		c2,0,3.6,1.4,3.6,4v4.5H34.7z"/>
	<path d="M44.1,7.1c-0.7-0.6-1.4-0.8-2.3-0.8c-1,0-1.7,0.4-1.7,1c0,0.7,0.7,1,1.8,1.1c1.5,0.1,3.6,0.5,3.6,2.6
		c0,1.6-1.4,2.7-3.6,2.7c-1.4,0-2.7-0.3-3.8-1.5l0.9-1.2c0.8,0.9,2,1.2,2.9,1.2c0.8,0,1.8-0.3,1.8-1.1c0-0.7-0.7-1-1.9-1.2
		c-1.6-0.2-3.4-0.7-3.4-2.5c0-1.9,1.9-2.5,3.5-2.5c1.3,0,2.3,0.3,3.2,1.1L44.1,7.1z"/>
	<path d="M49.9,2.6V5h2.4v1.5h-2.5v4c0,0.9,0.4,1.4,1.2,1.4c0.3,0,0.7-0.1,1.1-0.3l0.5,1.5c-0.6,0.3-1.1,0.4-1.8,0.4
		c-1.8,0-2.7-1-2.7-3v-4h-1.6V5h1.6V2.8L49.9,2.6z"/>
</g>
<g class="st0">
	<path d="M55.5,9.8c0.2,1.3,1.2,2.1,2.7,2.1c0.9,0,1.9-0.3,2.4-0.9l1.1,1.1c-0.9,1-2.3,1.4-3.6,1.4c-2.8,0-4.5-1.8-4.5-4.4
		c0-2.5,1.8-4.4,4.4-4.4c2.7,0,4.5,1.6,4.2,5.1H55.5z M60.6,8.4c-0.1-1.3-1.1-2-2.5-2c-1.3,0-2.3,0.7-2.6,2H60.6z"/>
</g>
<g class="st0">
	<path d="M74.3,13l0.2,0.3h-2.2l-3.6-4.1h-2.5v4.1h-1.9V1.5c1.9,0,3.7,0,5.5,0c2.8,0,4.2,1.9,4.2,3.9c0,1.7-0.9,3.4-3.2,3.7L74.3,13
		z M66.1,3.2v4.3h3.6c1.6,0,2.3-1,2.3-2.1c0-1.1-0.7-2.2-2.3-2.2H66.1z"/>
</g>
<g class="st0">
	<path class="st1" d="M8.9,22.2H8.1l-2.7-2.9H3.4v2.9H2.8v-7.7h3.4c1.7,0,2.5,1.2,2.5,2.4c0,1.3-0.8,2.4-2.5,2.4L8.9,22.2z M3.4,15
		v3.7h2.7C7.4,18.7,8,18,8,16.9C8,16,7.4,15,6.1,15H3.4z"/>
</g>
<g class="st0">
	<path class="st1" d="M19.2,14.5v4.8c0,2-1.5,3-2.9,3s-2.9-1-2.9-3v-4.8h0.6v4.8c0,1.6,1.2,2.5,2.4,2.5c1.2,0,2.4-0.8,2.4-2.5v-4.8
		H19.2z"/>
</g>
<g class="st0">
	<path class="st1" d="M24.5,17.8c-0.5-0.5-1-0.6-1.7-0.6c-0.8,0-1.6,0.3-1.6,1c0,0.7,1,0.9,1.7,1c1,0.2,2.3,0.3,2.2,1.6
		c0,1.2-1.3,1.5-2.2,1.5c-1,0-1.9-0.4-2.4-1.1l0.4-0.4c0.5,0.6,1.3,0.9,2,0.9c0.7,0,1.7-0.2,1.7-1c0-0.8-0.9-0.9-1.8-1.1
		c-1.1-0.2-2.1-0.4-2.1-1.5c0-1.1,1-1.5,2.1-1.5c0.8,0,1.5,0.2,2.1,0.7L24.5,17.8z"/>
	<path class="st1" d="M26.1,19.5c0-1.6,1.2-2.8,2.8-2.8s2.9,0.9,2.7,3.1h-4.9c0.1,1.3,1.1,2,2.2,2c0.7,0,1.6-0.3,2-0.8l0.4,0.3
		c-0.5,0.7-1.5,1-2.3,1C27.3,22.3,26.1,21.2,26.1,19.5z M31,19.3c0-1.3-0.9-2.1-2.2-2.1c-1.1,0-2.1,0.8-2.2,2.1H31z"/>
</g>
<g class="st0">
	<path class="st1" d="M33.4,16.8l0,1c0.3-0.7,1.1-1,1.9-1c0.4,0,0.8,0.1,1.1,0.3l-0.2,0.4c-0.3-0.2-0.6-0.3-0.9-0.3
		c-1,0-1.8,0.8-1.8,1.8v3.2h-0.5v-5.4H33.4z"/>
</g>
<text transform="matrix(1 0 0 1 36.17 22.2)" class="st1 st2 st3"> </text>
<g class="st0">
	<path class="st1" d="M46.1,15.9c-0.7-0.7-1.6-1-2.5-1c-2.3,0-3.4,1.7-3.4,3.4c0,1.8,1.2,3.4,3.4,3.4c0.8,0,1.7-0.3,2.3-0.9v-2.2
		h-2.7v-0.5h3.2v2.9c-0.8,0.8-1.8,1.2-2.9,1.2c-2.6,0-4-1.8-4-3.9c0-2.4,1.6-4,4-4c1,0,2,0.4,2.8,1.2L46.1,15.9z"/>
</g>
<g class="st0">
	<path class="st1" d="M48.6,16.8l0,1c0.3-0.7,1.1-1,1.9-1c0.4,0,0.8,0.1,1.1,0.3l-0.2,0.4c-0.3-0.2-0.6-0.3-0.9-0.3
		c-1,0-1.8,0.8-1.8,1.8v3.2h-0.5v-5.4H48.6z"/>
</g>
<g class="st0">
	<path class="st1" d="M51.9,19.5c0-1.7,1.2-2.8,2.8-2.8s2.8,1.1,2.8,2.8s-1.2,2.8-2.8,2.8S51.9,21.2,51.9,19.5z M56.9,19.5
		c0-1.4-1-2.3-2.2-2.3c-1.2,0-2.2,0.9-2.2,2.3s1,2.3,2.2,2.3C55.9,21.8,56.9,20.9,56.9,19.5z"/>
	<path class="st1" d="M63.2,22.2v-1c-0.4,0.7-1.2,1.1-1.9,1.1c-1.5,0-2.5-0.9-2.5-2.4v-3.1h0.5v3.1c0,1.2,0.8,1.9,1.9,1.9
		c1.1,0,1.9-0.9,1.9-2v-3h0.5v5.4H63.2z"/>
	<path class="st1" d="M66,24.8h-0.5v-8.1H66v1.3c0.4-0.8,1.3-1.4,2.4-1.4c1.5,0.1,2.6,1,2.6,2.8c0,1.8-1.2,2.8-2.8,2.8
		c-0.9,0-1.8-0.5-2.2-1.4V24.8z M70.5,19.5c0-1.5-1-2.3-2.2-2.3c-1.3,0-2.2,1-2.2,2.3s1,2.3,2.2,2.3C69.5,21.8,70.5,21,70.5,19.5z"
		/>
</g>
</svg>
