<?xml version="1.0" encoding="UTF-8"?>
<svg width="25px" height="23px" viewBox="0 0 25 23" version="1.1" xmlns="http://www.w3.org/2000/svg" xmlns:xlink="http://www.w3.org/1999/xlink">
    <!-- Generator: Sketch 51.3 (57544) - http://www.bohemiancoding.com/sketch -->
    <title>sent-mail</title>
    <desc>Created with Sketch.</desc>
    <defs></defs>
    <g id="Welcome" stroke="none" stroke-width="1" fill="none" fill-rule="evenodd">
        <g id="Full-HD-+-Data-Science" transform="translate(-1070.000000, -3030.000000)" fill="#FB1D5C" fill-rule="nonzero">
            <g id="Group-11" transform="translate(335.000000, 3020.000000)">
                <g id="sent-mail" transform="translate(735.000000, 10.000000)">
                    <path d="M24.8727148,0.0921896839 C24.7614294,-0.00483732908 24.6030589,-0.0273481904 24.4688288,0.034538105 L0.216240312,11.2358833 C0.0856724476,11.2962094 0.00159182476,11.4257026 2.23197962e-05,11.5687914 C-0.00154718516,11.7118803 0.0797681194,11.8431565 0.209065433,11.9062315 L7.07251062,15.2544807 C7.19836997,15.3159212 7.34844454,15.3020283 7.46085099,15.2185227 L14.1340124,10.2606355 L8.89530378,15.6171804 C8.82056545,15.6936282 8.7824489,15.7983074 8.79067012,15.9045468 L9.31226893,22.656988 C9.32385337,22.8066146 9.42475012,22.9345476 9.56817298,22.9814267 C9.60651374,22.993908 9.64590084,23 9.68483951,23 C9.79164059,23 9.89552687,22.9544582 9.96779884,22.8712498 L13.6106946,18.6750172 L18.1140527,20.8139205 C18.2118105,20.8603538 18.3249643,20.8622854 18.4242916,20.8193439 C18.5236188,20.7763281 18.599254,20.6926739 18.6316904,20.5900006 L24.9828043,0.482749414 C25.0271989,0.34233513 24.9839254,0.189216697 24.8727148,0.0921896839 Z" id="Shape"></path>
                </g>
            </g>
        </g>
    </g>
</svg>