<svg id="Accenture_Interactive" data-name="Accenture Interactive" xmlns="http://www.w3.org/2000/svg" viewBox="0 0 390.34 30.53"><defs><style>.cls-1{fill:#ff9500;}</style></defs><title>Acc_Digital_Interactive_Wordmark_BLK_RGB</title><path d="M206.58,277.09h8.55l9.4,29h-6.85l-2-6.44H205.2l-2,6.44h-6.16Zm0,17.87h7.66l-3.81-12.52Z" transform="translate(-197.05 -275.99)"/><path d="M225,295.73v-.32c0-6.85,4.9-11,10.94-11,4.9,0,9.44,2.15,10,8.23h-5.55a3.9,3.9,0,0,0-4.3-3.61c-3,0-5.07,2.27-5.07,6.32v.32c0,4.26,1.9,6.44,5.19,6.44a4.3,4.3,0,0,0,4.54-4.09H246c-.32,5-4,8.51-10.13,8.51S225,302.66,225,295.73Z" transform="translate(-197.05 -275.99)"/><path d="M247.39,295.73v-.32c0-6.85,4.9-11,10.94-11,4.9,0,9.44,2.15,10,8.23h-5.55a3.9,3.9,0,0,0-4.3-3.61c-3,0-5.07,2.27-5.07,6.32v.32c0,4.26,1.9,6.44,5.19,6.44a4.3,4.3,0,0,0,4.54-4.09h5.31c-.32,5-4,8.51-10.13,8.51S247.39,302.66,247.39,295.73Z" transform="translate(-197.05 -275.99)"/><path d="M269.77,295.73v-.32c0-6.69,4.74-11,10.9-11,5.47,0,10.33,3.2,10.33,10.78v1.62H275.73c.16,3.53,2.07,5.55,5.27,5.55,2.72,0,4.05-1.18,4.42-3H291c-.69,4.58-4.34,7.13-10.13,7.13C274.44,306.51,269.77,302.5,269.77,295.73Zm15.52-2.55c-.2-3.2-1.82-4.74-4.62-4.74-2.63,0-4.42,1.74-4.86,4.74Z" transform="translate(-197.05 -275.99)"/><path d="M293.85,284.87h5.88v3.36a7.32,7.32,0,0,1,6.89-3.85c4.18,0,7.13,2.51,7.13,8.19v13.5h-5.88V293.42c0-2.88-1.14-4.26-3.73-4.26s-4.42,1.54-4.42,4.66v12.24h-5.88Z" transform="translate(-197.05 -275.99)"/><path d="M318.51,299.79V289H315.8v-4.17h2.72v-4.58h5.84v4.58h4.46V289h-4.46v10.21c0,1.7.85,2.51,2.35,2.51a5.48,5.48,0,0,0,2.23-.4v4.54a10.68,10.68,0,0,1-3.57.57C320.9,306.47,318.51,304.2,318.51,299.79Z" transform="translate(-197.05 -275.99)"/><path d="M331.14,298.53V284.87H337v12.85c0,2.88,1.18,4.25,3.69,4.25s4.42-1.54,4.42-4.66V284.87h5.84v21.2h-5.84v-3.32c-1.09,2.15-3.24,3.77-6.73,3.77C334.22,306.51,331.14,304.08,331.14,298.53Z" transform="translate(-197.05 -275.99)"/><path d="M354.82,284.87h5.88v4.05a7,7,0,0,1,6.85-4.38V290c-4.34,0-6.85,1.38-6.85,5.43v10.62h-5.88Z" transform="translate(-197.05 -275.99)"/><path d="M368.52,295.73v-.32c0-6.69,4.74-11,10.9-11,5.47,0,10.33,3.2,10.33,10.78v1.62H374.47c.16,3.53,2.07,5.55,5.27,5.55,2.72,0,4.05-1.18,4.42-3h5.55c-.69,4.58-4.34,7.13-10.13,7.13C373.18,306.51,368.52,302.5,368.52,295.73ZM384,293.18c-.2-3.2-1.82-4.74-4.62-4.74-2.63,0-4.42,1.74-4.86,4.74Z" transform="translate(-197.05 -275.99)"/><path class="cls-1" d="M401.68,277.08h3.53v29h-3.53Z" transform="translate(-197.05 -275.99)"/><path class="cls-1" d="M411.53,284.86h3.36v3.36c1-2,3.32-3.73,6.81-3.73,4.38,0,7.46,2.39,7.46,8.55v13H425.8V292.81c0-3.73-1.58-5.39-5-5.39a5.58,5.58,0,0,0-5.92,5.8v12.85h-3.36Z" transform="translate(-197.05 -275.99)"/><path class="cls-1" d="M435.18,300.75V287.7h-3v-2.84h3V280h3.36v4.82h4.94v2.84h-4.94v12.73c0,2.07.93,3.08,2.63,3.08a6.91,6.91,0,0,0,2.59-.45v2.84a8,8,0,0,1-2.88.45C437,306.34,435.18,304.07,435.18,300.75Z" transform="translate(-197.05 -275.99)"/><path class="cls-1" d="M445.74,295.68v-.32c0-6.4,4.09-10.86,9.93-10.86,4.9,0,9.52,3,9.52,10.54v1.09h-16c.16,4.82,2.47,7.5,6.81,7.5,3.28,0,5.19-1.22,5.63-3.69H465c-.73,4.26-4.26,6.48-9,6.48C450,306.42,445.74,302.21,445.74,295.68Zm16-2.27c-.32-4.38-2.59-6.12-6.08-6.12s-5.75,2.35-6.32,6.12Z" transform="translate(-197.05 -275.99)"/><path class="cls-1" d="M469.64,284.86H473v3.81a7.4,7.4,0,0,1,7-4.17v3.16c-4.26.2-7,1.54-7,6.77v11.63h-3.36Z" transform="translate(-197.05 -275.99)"/><path class="cls-1" d="M481.94,300.18c0-4.9,5.19-6.57,10.62-6.57h3v-1.54c0-3.36-1.3-4.78-4.54-4.78-2.92,0-4.54,1.22-4.86,3.81h-3.36c.45-4.82,4.3-6.61,8.39-6.61s7.74,1.66,7.74,7.58v14H495.6v-2.68a7.64,7.64,0,0,1-6.61,3C485.06,306.42,481.94,304.52,481.94,300.18Zm13.66-1.54V296h-2.92c-4.26,0-7.38,1.05-7.38,4.17,0,2.19,1.05,3.57,4,3.57C492.89,303.75,495.6,301.93,495.6,298.64Z" transform="translate(-197.05 -275.99)"/><path class="cls-1" d="M503.14,295.68v-.32c0-6.48,4.62-10.86,10.3-10.86,4.42,0,8.55,2,9.2,7.42h-3.32c-.53-3.36-3-4.62-5.88-4.62-3.85,0-6.81,3.08-6.81,8.07v.32c0,5.19,2.84,7.94,6.93,7.94,3,0,5.72-1.74,6.08-5.19h3.12c-.45,4.58-4.13,8-9.24,8C507.6,306.42,503.14,302.25,503.14,295.68Z" transform="translate(-197.05 -275.99)"/><path class="cls-1" d="M527.78,300.75V287.7h-3v-2.84h3V280h3.36v4.82h4.94v2.84h-4.94v12.73c0,2.07.93,3.08,2.63,3.08a6.91,6.91,0,0,0,2.59-.45v2.84a8,8,0,0,1-2.88.45C529.65,306.34,527.78,304.07,527.78,300.75Z" transform="translate(-197.05 -275.99)"/><path class="cls-1" d="M539.55,278.22a2.23,2.23,0,1,1,2.23,2.23A2.25,2.25,0,0,1,539.55,278.22Zm.61,6.65h3.36v21.2h-3.36Z" transform="translate(-197.05 -275.99)"/><path class="cls-1" d="M547,284.86h3.65l6.28,17.79,6.2-17.79h3.49L559,306.06h-4.3Z" transform="translate(-197.05 -275.99)"/><path class="cls-1" d="M567.93,295.68v-.32c0-6.4,4.09-10.86,9.93-10.86,4.9,0,9.52,3,9.52,10.54v1.09h-16c.16,4.82,2.47,7.5,6.81,7.5,3.28,0,5.19-1.22,5.63-3.69h3.36c-.73,4.26-4.26,6.48-9,6.48C572.19,306.42,567.93,302.21,567.93,295.68Zm16-2.27c-.32-4.38-2.59-6.12-6.08-6.12s-5.76,2.35-6.32,6.12Z" transform="translate(-197.05 -275.99)"/></svg>