<?xml version="1.0" encoding="UTF-8"?>
<svg width="86px" height="86px" viewBox="0 0 86 86" version="1.1" xmlns="http://www.w3.org/2000/svg" xmlns:xlink="http://www.w3.org/1999/xlink">
    <!-- Generator: Sketch 51.3 (57544) - http://www.bohemiancoding.com/sketch -->
    <title>Group 29</title>
    <desc>Created with Sketch.</desc>
    <defs>
        <circle id="path-1" cx="30" cy="30" r="30"></circle>
        <filter x="-35.0%" y="-30.0%" width="170.0%" height="170.0%" filterUnits="objectBoundingBox" id="filter-2">
            <feMorphology radius="1" operator="dilate" in="SourceAlpha" result="shadowSpreadOuter1"></feMorphology>
            <feOffset dx="0" dy="3" in="shadowSpreadOuter1" result="shadowOffsetOuter1"></feOffset>
            <feGaussianBlur stdDeviation="5.5" in="shadowOffsetOuter1" result="shadowBlurOuter1"></feGaussianBlur>
            <feColorMatrix values="0 0 0 0 0.984313725   0 0 0 0 0.11372549   0 0 0 0 0.360784314  0 0 0 0.183508832 0" type="matrix" in="shadowBlurOuter1"></feColorMatrix>
        </filter>
    </defs>
    <g id="Welcome" stroke="none" stroke-width="1" fill="none" fill-rule="evenodd">
        <g id="Full-HD-+-Data-Science" transform="translate(-532.000000, -2400.000000)">
            <g id="Group-29" transform="translate(545.000000, 2410.000000)">
                <g id="Oval-2">
                    <use fill="black" fill-opacity="1" filter="url(#filter-2)" xlink:href="#path-1"></use>
                    <use fill="#FB1D5C" fill-rule="evenodd" xlink:href="#path-1"></use>
                </g>
                <path d="M16.8,43.2705882 L16.8000871,38.2322974 C16.8008242,37.872455 16.8990029,37.5196181 17.0840703,37.2117118 C17.3112438,36.8588832 17.6321609,36.5772038 18.0103964,36.3986453 L28.2033642,31.0541787 C29.1242769,30.6051542 30.0928643,30.2627674 31.0905265,30.0335931 C30.5496062,29.8975151 30.0391126,29.7478292 29.5624266,29.5913394 C29.0964775,29.4339373 28.6441854,29.2382321 28.2101257,29.0062036 L18.0103964,23.6923547 C17.6321609,23.5137962 17.3112438,23.2321167 17.0840703,22.8792882 C16.8949754,22.5643988 16.7966498,22.2027885 16.8000871,21.8348889 L16.8,16.8 L39.0352941,28.6047733 L39.0352941,31.4556091 L16.8,43.2705882 Z" id="arrow" fill="#FFFFFF" fill-rule="nonzero" transform="translate(27.917647, 30.035294) rotate(-180.000000) translate(-27.917647, -30.035294) "></path>
            </g>
        </g>
    </g>
</svg>