<?xml version="1.0" encoding="UTF-8"?>
<svg width="79px" height="152px" viewBox="0 0 79 152" version="1.1" xmlns="http://www.w3.org/2000/svg" xmlns:xlink="http://www.w3.org/1999/xlink">
    <!-- Generator: Sketch 51.3 (57544) - http://www.bohemiancoding.com/sketch -->
    <title>Group 12</title>
    <desc>Created with Sketch.</desc>
    <defs>
        <linearGradient x1="50.0195694%" y1="100%" x2="50.0195694%" y2="1.65835455e-14%" id="linearGradient-1">
            <stop stop-color="#808080" stop-opacity="0.25" offset="0%"></stop>
            <stop stop-color="#808080" stop-opacity="0.12" offset="54%"></stop>
            <stop stop-color="#808080" stop-opacity="0.1" offset="100%"></stop>
        </linearGradient>
    </defs>
    <g id="Welcome" stroke="none" stroke-width="1" fill="none" fill-rule="evenodd">
        <g id="Full-HD-+-Data-Science" transform="translate(-1070.000000, -2792.000000)" fill-rule="nonzero">
            <g id="Group-12" transform="translate(1070.000000, 2792.000000)">
                <g id="Group-39">
                    <path d="M47.6158052,88.5576744 L46.3655295,88.3411628 L45.2679592,79.945814 C45.5024653,78.3186168 45.3565061,76.0594153 45.8644648,75.7282558 C46.4173242,75.3678236 49.6990776,76.4103421 54.7386955,75.7282558 C56.8300236,75.4452054 59.0782367,74.6363694 61.2740156,73.6999451 C63.2463963,72.8587924 65.1764692,71.9146922 66.9125237,71.15625 C69.0868239,70.2063483 71.1445745,70.2810726 72.0883049,69.2158203 C73.9902702,67.0689437 66.7654081,59.937863 66.9125237,59.4443359 C67.2770472,58.2214729 59.3925993,65.9388139 59.027758,66.2333984 C52.8256096,71.2412109 44.3251415,52.8177858 40.2477681,52.7490234 C39.6149757,52.5346757 31.2628919,49.7686254 30.6082377,49.6209302 L30.6082377,46.4395349 C37.684027,44.8229284 43.0411951,39.4611888 44.2324255,32.8037209 C45.1534301,32.8037209 45.8644648,31.5709302 45.8644648,30.0509302 C45.8986378,29.2452115 45.6564134,28.450163 45.1725183,27.7797674 C45.2361456,27.1906202 45.2679592,26.6014729 45.2679592,26.0123256 C45.2711329,21.2047192 43.1442577,16.6063775 39.384028,13.2911628 C39.1299511,12.115758 38.6757117,10.985219 38.0383114,9.94186047 C36.6878227,7.73255814 34.4401896,5.44372093 35.3564222,3.05325581 L29.4247706,3.61883721 L29.367506,0 C27.5159526,0.309302326 26.7381093,2.29325581 25.640539,3.7072093 C22.9968262,7.10953488 17.6950845,7.58232558 14.1876316,10.2334884 C12.9946204,11.1172093 10.3127312,13.8744186 10.82334,15.6727907 C8.46753936,18.6735902 7.2010115,22.2892278 7.20613009,25.9990698 C7.20613009,26.5882171 7.23794372,27.1773643 7.30157099,27.7665116 C6.81767589,28.4369071 6.57545149,29.2319557 6.6096245,30.0376744 C6.6096245,31.5576744 7.32065917,32.7904651 8.19394336,32.7904651 C9.43289414,39.447933 14.7900622,44.8096726 21.8658516,46.4262791 L21.8658516,49.6076744 C21.2111974,49.7553695 20.5659659,49.9368151 19.9331735,50.1511628 C14.4310059,50.2439535 1.63715384,52.9746512 5.52159829,79.945814 L6.1085598,88.327907 L5.52159829,88.4295349 C3.75854807,88.7341641 2.19841556,89.6748451 1.18444523,91.0446189 C0.170474895,92.4143926 -0.214265192,94.1010422 0.114871562,95.7334884 L9.86415903,143.980233 C10.0716508,145.008468 11.1394556,145.686728 12.2501814,145.495814 L13.9633455,145.199767 L13.9633455,146.136512 C12.0239923,147.023715 10.7959445,148.852653 10.7947078,150.855581 L10.7947078,151.452093 L22.2857916,151.452093 L22.2857916,150.855581 C22.2849594,149.002085 21.2320158,147.285421 19.5132336,146.335349 L19.5132336,144.236512 L21.0784642,143.966977 C22.1889468,143.774853 22.9214609,142.786135 22.7152756,141.757674 L13.5815819,96.4316279 L38.9068235,96.4316279 L29.7826739,141.762093 C29.5764887,142.790553 30.3090028,143.779271 31.4194853,143.971395 L32.984716,144.24093 L32.984716,146.339767 C31.2659337,147.28984 30.2129901,149.006504 30.2121579,150.86 L30.2121579,151.456512 L41.7032418,151.456512 L41.7032418,150.86 C41.702005,148.857072 40.4739572,147.028133 38.534604,146.14093 L38.534604,145.204186 L40.2477681,145.500233 C41.3584939,145.691147 42.4262987,145.012886 42.6337905,143.984651 L52.4832909,95.1325581 C52.7802972,93.6629229 52.4341986,92.1442435 51.5212261,90.9110221 C50.6082536,89.6778006 49.2032953,88.831194 47.6158052,88.5576744 Z" id="Shape" fill="url(#linearGradient-1)"></path>
                    <rect id="Rectangle-path" fill="#FDB797" x="13.8181818" y="139.333333" width="5.75757576" height="6.90909091"></rect>
                    <rect id="Rectangle-path" fill="#FDB797" x="32.2424242" y="139.333333" width="5.75757576" height="6.90909091"></rect>
                    <rect id="Rectangle-path" fill="#4D8AF0" x="9.21212121" y="84.0606061" width="34.5454545" height="11.5151515"></rect>
                    <rect id="Rectangle-path" fill="#2186FF" x="8.06060606" y="84.0606061" width="34.9782707" height="11.2421998"></rect>
                    <path d="M9.21212121,86.985388 C9.21212121,86.985388 22.1031986,89.8181818 26.4848485,89.8181818 C30.8664984,89.8181818 43.7575758,86.985388 43.7575758,86.985388 L43.7575758,85.2121212 L9.21212121,85.2121212 L9.21212121,86.985388 Z" id="Shape" fill="#000000" opacity="0.1"></path>
                    <path d="M43.7575758,85.8775557 C43.7575758,85.8775557 30.8664984,88.6666667 26.4848485,88.6666667 C22.1031986,88.6666667 9.21212121,85.8775557 9.21212121,85.8775557 L9.21212121,66.7029635 C9.21212121,57.8463613 16.9453846,50.6666667 26.4848485,50.6666667 C36.0243123,50.6666667 43.7575758,57.8463613 43.7575758,66.7029635 L43.7575758,85.8775557 Z" id="Shape" fill="#00E470"></path>
                    <path d="M21.8787879,42.6060606 L29.9393939,42.6060606 L29.9393939,51.9199157 C29.9393939,53.7716224 28.3763094,55.2727273 26.4481468,55.2727273 L25.3746227,55.2727273 C23.4464602,55.2727273 21.8833756,53.7716224 21.8833756,51.9199157 L21.8833756,42.6060606 L21.8787879,42.6060606 Z" id="Shape" fill="#FDB797"></path>
                    <path d="M13.319576,142.751229 C11.9631069,142.973501 10.6628729,142.162024 10.4075588,140.933837 L1.29294486,96.6475618 C0.888683657,94.6897177 1.35914575,92.6664641 2.60075508,91.0232366 C3.84236441,89.3800091 5.75332766,88.2515278 7.9129307,87.8862369 L9.8833957,87.5518016 C11.2398648,87.3295296 12.5400988,88.1410065 12.7954129,89.3691935 L22.9874733,138.799612 C23.1105072,139.395685 22.9659798,140.011627 22.5859834,140.510668 C22.2059869,141.009709 21.621973,141.350544 20.9636213,141.457492 L13.319576,142.751229 Z" id="Shape" fill="#2186FF"></path>
                    <path d="M31.9920435,141.457386 L39.5874013,142.751226 C40.9352306,142.973515 42.227183,142.161974 42.4808709,140.933689 L51.6917493,95.9045512 C52.4401435,92.2359662 49.7893822,88.7079282 45.7697814,88.0226917 L43.0016955,87.5518046 C41.6538662,87.3295148 40.3619138,88.1410563 40.1082258,89.3693411 L29.9810821,138.803695 C29.8602534,139.399151 30.004537,140.013998 30.3819819,140.512079 C30.7594268,141.010161 31.3388869,141.350376 31.9920435,141.457386 Z" id="Shape" fill="#2186FF"></path>
                    <path d="M21.8787879,47.9123223 C24.5261789,48.5140744 27.292003,48.5140744 29.9393939,47.9123223 L29.9393939,42.6060606 L21.8787879,42.6060606 L21.8787879,47.9123223 Z" id="Shape" fill="#000000" opacity="0.1"></path>
                    <ellipse id="Oval" fill="#333333" cx="26.4848485" cy="28.2121212" rx="18.4242424" ry="16.6969697"></ellipse>
                    <ellipse id="Oval" fill="#FDB797" cx="26.4848485" cy="32.2424242" rx="17.2727273" ry="16.1212121"></ellipse>
                    <path d="M14.8049778,13.2540355 C18.1603388,10.7173349 23.2337206,10.2645096 25.7585466,7.00680566 C26.8073936,5.65272627 27.552502,3.74910168 29.3227278,3.45454545 L29.3749329,6.91887843 L35.0700294,6.37812594 C34.1920353,8.664234 36.3419342,10.8624148 37.6375687,12.9726684 C38.589731,14.5320492 39.1098832,16.2857099 39.1515152,18.0768443 C37.181961,19.1715383 34.7378154,17.9757279 32.5452033,17.3382555 C30.3525911,16.7007831 28.1457412,16.6524231 25.9009241,16.5952704 C24.7552922,16.521461 23.6041935,16.5805367 22.4743744,16.7711249 C21.4965777,17.014168 20.5437296,17.3363417 19.6268261,17.7339281 C18.1176256,18.3186442 13.3479823,20.5300141 11.9479377,19.1055929 C10.3722944,17.4921282 13.5093433,14.2344242 14.8049778,13.2540355 Z" id="Shape" fill="#333333"></path>
                    <path d="M15.4328498,24.2888641 C16.4050161,24.7710291 17.4756921,25.0689132 18.5794675,25.1643178 C23.1359449,25.727781 27.7758771,25.2569338 32.0808777,23.7942327 C32.7876565,25.4094449 34.5013529,26.5212712 36.336073,27.0465434 C38.1707932,27.5718157 40.1168552,27.5980793 42.0387124,27.6243429 C42.4610495,27.6674053 42.8879262,27.5941741 43.2634728,27.414234 C44.120321,26.893339 43.7039993,25.6939674 43.2053814,24.8797954 L40.7268149,20.8176899 C39.9958314,19.6183182 39.2406432,18.3926829 38.1078608,17.4865883 C36.6846214,16.3484984 34.7966508,15.8144716 32.9377259,15.4774219 C28.5381101,14.6852574 23.9956897,14.8215693 19.6638404,15.8757533 C15.031051,16.9832023 9.08152311,20.8133126 15.4328498,24.2888641 Z" id="Shape" fill="#000000" opacity="0.1"></path>
                    <path d="M15.4328498,23.1373489 C16.4050161,23.6195139 17.4756921,23.917398 18.5794675,24.0128027 C23.1359449,24.5762659 27.7758771,24.1054186 32.0808777,22.6427175 C32.7876565,24.2579297 34.5013529,25.369756 36.336073,25.8950283 C38.1707932,26.4203006 40.1168552,26.4465642 42.0387124,26.4728278 C42.4610495,26.5158901 42.8879262,26.442659 43.2634728,26.2627189 C44.120321,25.7418239 43.7039993,24.5424522 43.2053814,23.7282802 L40.7268149,19.6661747 C39.9958314,18.466803 39.2406432,17.2411678 38.1078608,16.3350731 C36.6846214,15.1969832 34.7966508,14.6629564 32.9377259,14.3259067 C28.5381101,13.5337422 23.9956897,13.6700542 19.6638404,14.7242382 C15.031051,15.8229327 9.08152311,19.6661747 15.4328498,23.1373489 Z" id="Shape" fill="#333333"></path>
                    <ellipse id="Oval" fill="#FDB797" cx="43.1818182" cy="32.8181818" rx="1.72727273" ry="2.87878788"></ellipse>
                    <ellipse id="Oval" fill="#FDB797" cx="8.63636364" cy="32.8181818" rx="1.72727273" ry="2.87878788"></ellipse>
                    <path d="M16.5135139,142.787915 L18.0518545,142.787915 C20.8013757,142.787915 23.030303,144.811257 23.030303,147.307177 L23.030303,148.545455 L11.5151515,148.545455 L11.5151515,147.307177 C11.5151409,146.105455 12.0423872,144.953215 12.9803389,144.105168 C13.9182905,143.25712 15.1897003,142.783108 16.5135139,142.787915 Z" id="Shape" fill="#333333"></path>
                    <path d="M34.9377563,142.787915 L36.4760969,142.787915 C39.2256181,142.787915 41.4545455,144.811257 41.4545455,147.307177 L41.4545455,148.545455 L29.9393939,148.545455 L29.9393939,147.307177 C29.9393833,146.105455 30.4666297,144.953215 31.4045813,144.105168 C32.3425329,143.25712 33.6139427,142.783108 34.9377563,142.787915 Z" id="Shape" fill="#333333"></path>
                    <path d="M11.8317873,67.9393939 C11.8317873,67.9393939 10.7186147,75.1809848 12.6666667,78.3030303" id="Shape" fill="#000000" opacity="0.1"></path>
                    <path d="M39.9863946,67.9393939 C39.9863946,67.9393939 41.0995671,75.1809848 39.1515152,78.3030303" id="Shape" fill="#000000" opacity="0.1"></path>
                    <g id="Group-40" transform="translate(26.000000, 44.000000)">
                        <path d="M21.6139495,-0.931915977 C23.917419,-4.61182408 24.5878455,1.61962633 26.4805384,11.5900433 C26.7596083,13.060141 27.4969914,13.7414782 28.3137211,16.1210223 C28.8106622,17.5688612 29.0482899,20.539971 29.4385629,22.8662972 C30.1480018,27.0950969 31.3135348,29.3035745 24.7419899,33.2824067 C23.3683875,34.1140732 19.8530099,36.8329574 17.7503137,37.7879245 C15.7193173,38.7103282 14.4692128,36.6237964 14,31.5283291 C14,31.5283291 24.5376331,30.7719655 20.5303456,21.0957745 C16.5230581,11.4195836 18.2712895,4.40815088 21.6139495,-0.931915977 Z" id="Shape" fill="#00E470" transform="translate(22.000000, 18.000000) scale(-1, 1) rotate(58.000000) translate(-22.000000, -18.000000) "></path>
                        <g id="like-(1)" transform="translate(43.500000, 15.500000) rotate(-34.000000) translate(-43.500000, -15.500000) translate(36.000000, 8.000000)">
                            <path d="M9.83538381,7.46253696 L6.03355234,7.46253696 C5.83542024,7.46253696 5.66179873,7.33001016 5.60956018,7.1388978 C5.55732163,6.94778544 5.63939407,6.74535375 5.80994445,6.64453277 C7.46639781,5.66574733 8.32681292,4.52398699 8.44029868,3.15402667 C8.47987245,2.67858568 8.90333813,2.29881787 9.38404392,2.30510638 C9.8745481,2.31294509 10.3340777,2.50955625 10.6782496,2.8587882 C11.0226847,3.20834189 11.2125101,3.6712351 11.2126856,4.16214876 C11.2126856,4.16220725 11.2126856,4.16226575 11.2126856,4.16232425 L11.2126856,4.31000198 C11.2126856,5.50920718 10.8574869,6.27383212 10.2021066,7.26531157 C10.1206484,7.38847872 9.9829738,7.46253696 9.83538381,7.46253696 Z" id="Shape" fill="#FFC380"></path>
                            <path d="M14.494647,7.96070435 C14.494647,7.20128572 13.8768223,6.5834318 13.1173744,6.5834318 L6.03355234,6.5834318 C5.95484353,6.5834318 5.87756792,6.60454951 5.8098567,6.64462051 C5.31259603,6.93863053 4.81050928,7.18066524 4.40707911,7.37519972 C4.26636261,7.44302794 4.13345558,7.50711229 4.01256984,7.56754053 C3.86366366,7.64200825 3.76959917,7.79419032 3.76959917,7.96070435 L3.76959917,13.5869949 C3.76959917,13.7535089 3.86366366,13.905691 4.01256984,13.9801587 C5.78865124,14.8680678 7.26501909,14.9754405 8.98663902,14.9754405 C9.25324281,14.9754405 9.52590112,14.9728666 9.80628115,14.9702342 C10.1163781,14.9673093 10.4369753,14.9642674 10.7731038,14.9642674 L12.1626901,14.9642674 C12.9221087,14.9642674 13.5399627,14.3464428 13.5399627,13.5869949 C13.5399627,13.3316519 13.4701455,13.0923374 13.3485286,12.8870978 C13.744237,12.6448583 14.0088226,12.2085524 14.0088226,11.711555 C14.0088226,11.456212 13.9390055,11.2168974 13.8173885,11.0116579 C14.213097,10.7694184 14.4776826,10.3331125 14.4776826,9.83611503 C14.4776826,9.47892738 14.3410025,9.1530653 14.1172191,8.9081057 C14.360921,8.65127105 14.494647,8.31628331 14.494647,7.96070435 Z" id="Shape" fill="#FFCF99"></path>
                            <g id="Group" transform="translate(5.615790, 0.000000)" fill="#29CCB1">
                                <path d="M7.9645652,4.12751805 L7.02684523,4.12751805 C6.78410855,4.12751805 6.58729265,3.93070215 6.58729265,3.68796547 C6.58729265,3.44522879 6.78410855,3.24841289 7.02684523,3.24841289 L7.9645652,3.24841289 C8.20730188,3.24841289 8.40411778,3.44522879 8.40411778,3.68796547 C8.40411778,3.93070215 8.20733113,4.12751805 7.9645652,4.12751805 Z" id="Shape"></path>
                                <path d="M1.40055468,4.12751805 L0.462834709,4.12751805 C0.220098027,4.12751805 0.0232821302,3.93070215 0.0232821302,3.68796547 C0.0232821302,3.44522879 0.220098027,3.24841289 0.462834709,3.24841289 L1.40055468,3.24841289 C1.64329136,3.24841289 1.84010726,3.44522879 1.84010726,3.68796547 C1.84010726,3.93070215 1.64334986,4.12751805 1.40055468,4.12751805 Z" id="Shape"></path>
                                <path d="M2.80757336,1.69134731 C2.65562529,1.69134731 2.50791831,1.61252151 2.4265186,1.47151253 L1.95765861,0.659416615 C1.83627565,0.449204718 1.90831571,0.180348762 2.1185276,0.058995046 C2.3287395,-0.0623879192 2.59759546,0.00965213941 2.71894917,0.219864036 L3.18780916,1.03195995 C3.30919212,1.24217184 3.23715206,1.5110278 3.02694017,1.63238152 C2.95773725,1.67236477 2.88212883,1.69134731 2.80757336,1.69134731 Z" id="Shape"></path>
                                <path d="M5.6198558,1.69134731 C5.54527108,1.69134731 5.46969191,1.67236477 5.40048899,1.63238152 C5.1902771,1.51099855 5.11823704,1.24217184 5.23962,1.03195995 L5.70847999,0.219864036 C5.8298337,0.00965213941 6.09868966,-0.0624464171 6.30890156,0.058995046 C6.51911345,0.180378011 6.59115351,0.449204718 6.46977055,0.659416615 L6.00091056,1.47151253 C5.91956935,1.61252151 5.77177462,1.69134731 5.6198558,1.69134731 Z" id="Shape"></path>
                            </g>
                            <path d="M2.76732687,12.6548322 L2.76732687,14.9698247 L1.88822171,14.9698247 L1.88822171,12.6548322 C1.88822171,12.4122125 2.0851546,12.2152796 2.32777429,12.2152796 C2.57039397,12.2152796 2.76732687,12.4122125 2.76732687,12.6548322 Z" id="SVGCleanerId_0" fill="#73C3FF"></path>
                            <g id="Group" transform="translate(5.615790, 0.000000)" fill="#FB1D5C">
                                <path d="M7.9645652,4.12751805 L7.02684523,4.12751805 C6.78410855,4.12751805 6.58729265,3.93070215 6.58729265,3.68796547 C6.58729265,3.44522879 6.78410855,3.24841289 7.02684523,3.24841289 L7.9645652,3.24841289 C8.20730188,3.24841289 8.40411778,3.44522879 8.40411778,3.68796547 C8.40411778,3.93070215 8.20733113,4.12751805 7.9645652,4.12751805 Z" id="Shape"></path>
                                <path d="M1.40055468,4.12751805 L0.462834709,4.12751805 C0.220098027,4.12751805 0.0232821302,3.93070215 0.0232821302,3.68796547 C0.0232821302,3.44522879 0.220098027,3.24841289 0.462834709,3.24841289 L1.40055468,3.24841289 C1.64329136,3.24841289 1.84010726,3.44522879 1.84010726,3.68796547 C1.84010726,3.93070215 1.64334986,4.12751805 1.40055468,4.12751805 Z" id="Shape"></path>
                                <path d="M2.80757336,1.69134731 C2.65562529,1.69134731 2.50791831,1.61252151 2.4265186,1.47151253 L1.95765861,0.659416615 C1.83627565,0.449204718 1.90831571,0.180348762 2.1185276,0.058995046 C2.3287395,-0.0623879192 2.59759546,0.00965213941 2.71894917,0.219864036 L3.18780916,1.03195995 C3.30919212,1.24217184 3.23715206,1.5110278 3.02694017,1.63238152 C2.95773725,1.67236477 2.88212883,1.69134731 2.80757336,1.69134731 Z" id="Shape"></path>
                                <path d="M5.6198558,1.69134731 C5.54527108,1.69134731 5.46969191,1.67236477 5.40048899,1.63238152 C5.1902771,1.51099855 5.11823704,1.24217184 5.23962,1.03195995 L5.70847999,0.219864036 C5.8298337,0.00965213941 6.09868966,-0.0624464171 6.30890156,0.058995046 C6.51911345,0.180378011 6.59115351,0.449204718 6.46977055,0.659416615 L6.00091056,1.47151253 C5.91956935,1.61252151 5.77177462,1.69134731 5.6198558,1.69134731 Z" id="Shape"></path>
                            </g>
                            <path d="M2.76732687,12.6548322 L2.76732687,14.9698247 L1.88822171,14.9698247 L1.88822171,12.6548322 C1.88822171,12.4122125 2.0851546,12.2152796 2.32777429,12.2152796 C2.57039397,12.2152796 2.76732687,12.4122125 2.76732687,12.6548322 Z" id="SVGCleanerId_0_1_" fill="#73C3FF"></path>
                            <path d="M4.20321422,6.5834318 L0.4523636,6.5834318 C0.209743914,6.5834318 0.0128110214,6.78036469 0.0128110214,7.02298438 L0.0128110214,14.5246856 C0.0128110214,14.7675978 0.209743914,14.9642382 0.4523636,14.9697955 L3.26549425,14.9697955 C3.80437612,14.9642382 4.27177366,14.6533223 4.49772147,14.2014559 C4.590616,14.0165444 4.6427668,13.8076194 4.6427668,13.5869657 L4.6427668,7.02298438 C4.6427668,6.78033544 4.44583391,6.5834318 4.20321422,6.5834318 Z" id="Shape" fill="#00E470"></path>
                            <path d="M2.76732687,12.6255248 L2.76732687,14.9698247 L1.88822171,14.9698247 L1.88822171,12.6255248 C1.88822171,12.3829051 2.0851546,12.1859722 2.32777429,12.1859722 C2.57039397,12.1859722 2.76732687,12.3829051 2.76732687,12.6255248 Z" id="Shape" fill="#D4D4D4"></path>
                        </g>
                    </g>
                </g>
                <path d="M3,52.09048 C3,52.09048 24.905421,48.8713278 20.3857784,80.8360872 L17.7512839,90 L10.2106915,89.7154341 C10.2106915,89.7154341 15.1026508,79.044211 12.0958396,71.9567403 C9.08902839,64.8692697 3,52.09048 3,52.09048 Z" id="Shape" fill="#00E470" transform="translate(12.000000, 71.000000) scale(-1, 1) translate(-12.000000, -71.000000) "></path>
                <circle id="Oval" fill="#FDB797" transform="translate(10.000000, 90.000000) scale(-1, 1) translate(-10.000000, -90.000000) " cx="10" cy="90" r="4"></circle>
            </g>
        </g>
    </g>
</svg>