<?xml version="1.0" encoding="UTF-8"?>
<svg width="194px" height="64px" viewBox="0 0 194 64" version="1.1" xmlns="http://www.w3.org/2000/svg" xmlns:xlink="http://www.w3.org/1999/xlink">
    <!-- Generator: Sketch 51.3 (57544) - http://www.bohemiancoding.com/sketch -->
    <title>Group 12</title>
    <desc>Created with Sketch.</desc>
    <defs></defs>
    <g id="Welcome" stroke="none" stroke-width="1" fill="none" fill-rule="evenodd">
        <g id="Full-HD-+-Data-Science" transform="translate(-1025.000000, -2661.000000)">
            <g id="Group-12" transform="translate(1025.000000, 2661.000000)">
                <g id="Group-11">
                    <rect id="Rectangle-13" fill="#FFFFFF" x="0" y="0" width="194" height="64" rx="32"></rect>
                    <path d="M165.872715,19.0921897 C165.761429,18.9951627 165.603059,18.9726518 165.468829,19.0345381 L141.21624,30.2358833 C141.085672,30.2962094 141.001592,30.4257026 141.000022,30.5687914 C140.998453,30.7118803 141.079768,30.8431565 141.209065,30.9062315 L148.072511,34.2544807 C148.19837,34.3159212 148.348445,34.3020283 148.460851,34.2185227 L155.134012,29.2606355 L149.895304,34.6171804 C149.820565,34.6936282 149.782449,34.7983074 149.79067,34.9045468 L150.312269,41.656988 C150.323853,41.8066146 150.42475,41.9345476 150.568173,41.9814267 C150.606514,41.993908 150.645901,42 150.68484,42 C150.791641,42 150.895527,41.9544582 150.967799,41.8712498 L154.610695,37.6750172 L159.114053,39.8139205 C159.21181,39.8603538 159.324964,39.8622854 159.424292,39.8193439 C159.523619,39.7763281 159.599254,39.6926739 159.63169,39.5900006 L165.982804,19.4827494 C166.027199,19.3423351 165.983925,19.1892167 165.872715,19.0921897 Z" id="Shape" fill="#FB1D5C" fill-rule="nonzero"></path>
                    <text id="Submit" font-family="NexaBold-Regular, Nexa" font-size="28" font-weight="bold" fill="#FB1D5C">
                        <tspan x="26" y="41">Submit</tspan>
                    </text>
                </g>
            </g>
        </g>
    </g>
</svg>