<?xml version="1.0" encoding="UTF-8"?>
<svg width="492px" height="360px" viewBox="0 0 492 360" version="1.1" xmlns="http://www.w3.org/2000/svg" xmlns:xlink="http://www.w3.org/1999/xlink">
    <!-- Generator: Sketch 51.3 (57544) - http://www.bohemiancoding.com/sketch -->
    <title>type01</title>
    <desc>Created with Sketch.</desc>
    <defs>
        <path d="M414.640285,182.7487 C399.115066,203.938127 404.263736,234.183943 413.2145,258.280408 C416.21657,266.346748 419.626574,274.87853 418.070091,283.654865 C416.169044,294.383689 407.234122,302.422418 397.946714,306.800725 C381.015512,314.780287 361.01491,313.506239 345.8699,303.451912 C332.8002,294.774186 323.599923,280.353385 310.27675,272.089824 C287.97905,258.284353 259.031644,264.441593 234.234859,274.996862 C216.677895,282.46365 197.445634,292.080147 180.336208,285.1853 C168.296242,280.333663 160.189067,267.983683 155.923593,254.781707 C153.864125,248.407524 152.422497,241.48901 148.319403,236.499318 C145.879726,233.533114 142.655867,231.466238 139.340916,229.738581 C109.08654,213.960899 70.1705181,223.821951 40.8389428,206.218002 C21.036367,194.329519 8.71124379,171.258603 3.61010026,147.004362 C-1.49104328,122.75012 -0.283086152,97.1468867 1.75657916,71.981484 C3.20612771,54.0974815 5.51906857,34.9867642 16.2956303,20.932794 C27.6979535,6.07021757 46.8510048,0.161475675 63.9643909,2.49262818 C81.0777769,4.82378069 96.4168522,14.3022231 109.842999,25.5832657 C126.631622,39.6885134 142.077632,57.3871281 162.957467,62.7278735 C177.179677,66.372518 192.289043,63.792867 207.073646,62.6529295 C231.787261,60.7517188 256.413744,62.9408722 280.889728,65.4140238 C304.320135,67.7806761 327.912924,70.4234379 350.103691,78.182113 C365.807133,83.6727463 378.255032,94.0505166 393.039636,101.142585 C402.675569,105.765445 413.277868,106.838328 422.347448,112.81018 C433.539864,120.166525 443.655019,133.19889 440.371752,148.838517 C437.270669,163.705038 422.878157,171.503157 414.640285,182.7487 Z" id="path-1"></path>
        <filter x="-8.8%" y="-12.6%" width="117.7%" height="125.2%" filterUnits="objectBoundingBox" id="filter-2">
            <feMorphology radius="0.5" operator="dilate" in="SourceAlpha" result="shadowSpreadOuter1"></feMorphology>
            <feOffset dx="0" dy="0" in="shadowSpreadOuter1" result="shadowOffsetOuter1"></feOffset>
            <feGaussianBlur stdDeviation="12.5" in="shadowOffsetOuter1" result="shadowBlurOuter1"></feGaussianBlur>
            <feColorMatrix values="0 0 0 0 0.984313725   0 0 0 0 0.11372549   0 0 0 0 0.360784314  0 0 0 0.204030797 0" type="matrix" in="shadowBlurOuter1"></feColorMatrix>
        </filter>
        <linearGradient x1="49.2805755%" y1="99.9944856%" x2="50%" y2="1.44206066e-06%" id="linearGradient-3">
            <stop stop-color="#808080" stop-opacity="0.25" offset="0%"></stop>
            <stop stop-color="#808080" stop-opacity="0.12" offset="54%"></stop>
            <stop stop-color="#808080" stop-opacity="0.1" offset="100%"></stop>
        </linearGradient>
        <linearGradient x1="78.7999935%" y1="31.7%" x2="78.7999935%" y2="131.7%" id="linearGradient-4">
            <stop stop-color="#808080" stop-opacity="0.25" offset="0%"></stop>
            <stop stop-color="#808080" stop-opacity="0.12" offset="54%"></stop>
            <stop stop-color="#808080" stop-opacity="0.1" offset="100%"></stop>
        </linearGradient>
        <linearGradient x1="68.1253248%" y1="-15.3747794%" x2="68.1253248%" y2="84.6364258%" id="linearGradient-5">
            <stop stop-color="#808080" stop-opacity="0.25" offset="0%"></stop>
            <stop stop-color="#808080" stop-opacity="0.12" offset="54%"></stop>
            <stop stop-color="#808080" stop-opacity="0.1" offset="100%"></stop>
        </linearGradient>
        <linearGradient x1="48.1861689%" y1="-0.00603168047%" x2="48.1861689%" y2="99.9985472%" id="linearGradient-6">
            <stop stop-color="#808080" stop-opacity="0.25" offset="0%"></stop>
            <stop stop-color="#808080" stop-opacity="0.12" offset="54%"></stop>
            <stop stop-color="#808080" stop-opacity="0.1" offset="100%"></stop>
        </linearGradient>
    </defs>
    <g id="Welcome" stroke="none" stroke-width="1" fill="none" fill-rule="evenodd">
        <g id="Full-HD-+-Data-Science" transform="translate(-713.000000, -150.000000)">
            <g id="type01" transform="translate(739.000000, 173.000000)">
                <path d="M54.9811814,231.378737 C53.183686,234.98574 55.7730295,238.878641 54.8663634,242.603136 C53.741939,247.302815 47.2923356,250.960731 40.3438679,253.294905 C33.3954002,255.629079 25.6352881,257.046815 18.861027,259.561143 C15.9311888,260.649902 12.8865325,262.647266 14.4029218,264.487973 C14.9295008,265.126346 15.919311,265.572816 16.8814066,265.99187 C36.6063445,274.513954 60.991309,279.143138 85.3762735,278.994315 C111.143013,278.833742 136.379214,273.511356 162.126158,274.122314 C195.33627,274.905594 227.453632,285.50337 260.287616,282.448578 C274.228103,281.15225 287.17878,277.45517 300.747099,275.148411 C320.709591,271.752893 341.705445,271.412166 362.376642,270.295993 C377.900825,269.457883 395.634265,267.284282 403.057842,259.114674 C408.418654,253.208744 406.169805,245.407278 398.615573,240.406036 C391.061342,235.404795 378.993576,233.266441 367.840394,234.237708 C361.846104,234.758589 355.887446,236.109747 349.897115,235.5732 C346.416942,235.259888 343.19412,234.327785 340.030686,233.411348 C315.483393,226.283502 290.029434,219.171321 262.766101,218.137392 C218.422603,216.441591 177.321724,230.885271 134.122447,237.131927 C127.391737,238.103194 120.090897,238.851226 113.736316,237.222004 C107.03728,235.502705 102.650441,231.441399 95.9474466,229.729933 C92.7800539,228.915322 89.2167371,228.680338 86.0849776,227.795232 C77.4815472,225.359232 81.4645435,222.010711 69.5432693,224.270473 C63.2876687,225.449309 56.9885165,227.360512 54.9811814,231.378737 Z" id="Shape" fill="#FB1D5C" fill-rule="nonzero" opacity="0.1"></path>
                <path d="M284,109 C284,109 313.253197,62.716284 316.788089,42.9504333 C320.322981,23.1845826 327,5 327,5" id="Shape" stroke="#535461" stroke-width="2"></path>
                <path d="M332,44 L315,45.4559447 C315,45.4559447 324.042553,61.1073501 332,44 Z" id="Shape" fill="#FB1D5C" fill-rule="nonzero"></path>
                <path d="M300.6305,35 L315,47.4533722 C315,47.4533722 296.381454,55.4701521 300.6305,35 Z" id="Shape" fill="#FB1D5C" fill-rule="nonzero"></path>
                <path d="M336,28 L319,30.2532021 C319,30.2532021 333.991493,42.3060454 336,28 Z" id="Shape" fill="#FB1D5C" fill-rule="nonzero"></path>
                <path d="M308.297843,24 L320,32.663909 C320,32.663909 305.784853,39.0215658 308.297843,24 Z" id="Shape" fill="#FB1D5C" fill-rule="nonzero"></path>
                <path d="M324,16.2469148 C324,16.2469148 337.231174,12.2549359 339.138233,13.1237017 C341.045292,13.9924675 339.901057,23.5488913 334.561292,23.9832742 C329.221527,24.4176571 324,16.2469148 324,16.2469148 Z" id="Shape" fill="#FB1D5C" fill-rule="nonzero"></path>
                <path d="M313.484857,5 C313.484857,5 322.571299,13.4497751 322.984319,15.4616263 C323.397339,17.4734776 315.549958,22.3019205 311.419757,15.4616263 C307.289556,8.6213322 313.484857,5 313.484857,5 Z" id="Shape" fill="#FB1D5C" fill-rule="nonzero"></path>
                <circle id="Oval" fill="#FFD037" fill-rule="nonzero" cx="328.5" cy="5.5" r="3.5"></circle>
                <circle id="Oval" fill="#FFD037" fill-rule="nonzero" cx="322.5" cy="3.5" r="3.5"></circle>
                <path d="M63.1275286,242 C63.1275286,242 52.0176733,209.260171 60.749838,183.717932 C64.4158808,172.990113 65.065294,161.251419 62.2651357,150.198396 C60.927427,144.962435 59.1650144,139.875036 57,135" id="Shape" stroke="#535461" stroke-width="2"></path>
                <path d="M63.9886732,121.033562 C64.3082677,125.234088 57.7585527,138 57.7585527,138 C57.7585527,138 49.3425635,126.416488 49.0229689,122.215962 C48.7015515,118.017809 51.7911783,114.349844 55.9238434,114.023333 C60.0565085,113.696822 63.6672558,116.835409 63.9886732,121.033562 Z" id="Shape" fill="#FB1D5C" fill-rule="nonzero"></path>
                <path d="M77.1109023,142.250615 C75.190346,146.278975 63.1830283,154 63.1830283,154 C63.1830283,154 62.3418246,138.370484 64.266222,134.342123 C66.1903209,130.315087 70.6263505,128.820905 74.1743717,131.004774 C77.7223928,133.188644 79.038842,138.223578 77.1147434,142.250615 L77.1109023,142.250615 Z" id="Shape" fill="#FB1D5C" fill-rule="nonzero"></path>
                <path d="M82.0978988,181.134048 C78.2698122,183.160746 63,182.996822 63,182.996822 C63,182.996822 69.8948094,171.052718 73.7143891,169.02602 C77.5375564,166.998292 82.5135583,168.069138 84.8286005,171.417821 C87.1436428,174.766505 85.921066,179.124948 82.0978988,181.152676 L82.0978988,181.134048 Z" id="Shape" fill="#FB1D5C" fill-rule="nonzero"></path>
                <path d="M76.3742421,209.378666 C73.1971007,211.928368 59,214 59,214 C59,214 63.2255181,201.273728 66.3986582,198.724027 C69.5754368,196.172758 74.3838352,196.489668 77.1385165,199.431866 C79.8931979,202.374063 79.5510206,206.827397 76.3742421,209.378666 Z" id="Shape" fill="#FB1D5C" fill-rule="nonzero"></path>
                <path d="M46.720056,153.653558 C49.9172611,156.18021 64,158 64,158 C64,158 59.540532,145.174989 56.3393699,142.652098 C54.2711598,141.018667 51.4429623,140.557748 48.9201321,141.442964 C46.3973018,142.328181 44.5631167,144.425047 44.1084966,146.943694 C43.6538765,149.462342 44.6478889,152.020127 46.7160991,153.653558 L46.720056,153.653558 Z" id="Shape" fill="#FB1D5C" fill-rule="nonzero"></path>
                <path d="M42.9747293,191.456814 C47.0723502,193.036991 62,190.666726 62,190.666726 C62,190.666726 53.1302527,179.143289 49.0663571,177.563112 C46.4156035,176.543407 43.3856772,176.926352 41.1179223,178.567696 C38.8501674,180.20904 37.6891097,182.859424 38.0721084,185.520473 C38.4551072,188.181522 40.3239757,190.44896 42.9747293,191.468666 L42.9747293,191.456814 Z" id="Shape" fill="#FB1D5C" fill-rule="nonzero"></path>
                <path d="M41.8202711,225.792254 C45.6322583,227.980358 61,228 61,228 C61,228 54.2659172,215.311356 50.4582083,213.138966 C47.9935051,211.72216 44.8928345,211.620327 42.3241893,212.871826 C39.7555441,214.123325 38.1091625,216.538023 38.0052206,219.206327 C37.9012787,221.874631 39.3555678,224.391163 41.8202711,225.807968 L41.8202711,225.792254 Z" id="Shape" fill="#FB1D5C" fill-rule="nonzero"></path>
                <path d="M63.9886732,121.033562 C64.3082677,125.234088 57.7585527,138 57.7585527,138 C57.7585527,138 49.3425635,126.416488 49.0229689,122.215962 C48.7015515,118.017809 51.7911783,114.349844 55.9238434,114.023333 C60.0565085,113.696822 63.6672558,116.835409 63.9886732,121.033562 Z" id="Shape" fill="#FB1D5C" fill-rule="nonzero"></path>
                <path d="M77.1109023,142.250615 C75.190346,146.278975 63.1830283,154 63.1830283,154 C63.1830283,154 62.3418246,138.370484 64.266222,134.342123 C66.1903209,130.315087 70.6263505,128.820905 74.1743717,131.004774 C77.7223928,133.188644 79.038842,138.223578 77.1147434,142.250615 L77.1109023,142.250615 Z" id="Shape" fill="#FB1D5C" fill-rule="nonzero"></path>
                <path d="M82.0978988,181.134048 C78.2698122,183.160746 63,182.996822 63,182.996822 C63,182.996822 69.8948094,171.052718 73.7143891,169.02602 C77.5375564,166.998292 82.5135583,168.069138 84.8286005,171.417821 C87.1436428,174.766505 85.921066,179.124948 82.0978988,181.152676 L82.0978988,181.134048 Z" id="Shape" fill="#FB1D5C" fill-rule="nonzero"></path>
                <path d="M76.3742421,209.378666 C73.1971007,211.928368 59,214 59,214 C59,214 63.2255181,201.273728 66.3986582,198.724027 C69.5754368,196.172758 74.3838352,196.489668 77.1385165,199.431866 C79.8931979,202.374063 79.5510206,206.827397 76.3742421,209.378666 Z" id="Shape" fill="#FB1D5C" fill-rule="nonzero"></path>
                <path d="M46.720056,153.653558 C49.9172611,156.18021 64,158 64,158 C64,158 59.540532,145.174989 56.3393699,142.652098 C54.2711598,141.018667 51.4429623,140.557748 48.9201321,141.442964 C46.3973018,142.328181 44.5631167,144.425047 44.1084966,146.943694 C43.6538765,149.462342 44.6478889,152.020127 46.7160991,153.653558 L46.720056,153.653558 Z" id="Shape" fill="#FB1D5C" fill-rule="nonzero"></path>
                <path d="M42.9747293,191.456814 C47.0723502,193.036991 62,190.666726 62,190.666726 C62,190.666726 53.1302527,179.143289 49.0663571,177.563112 C46.4156035,176.543407 43.3856772,176.926352 41.1179223,178.567696 C38.8501674,180.20904 37.6891097,182.859424 38.0721084,185.520473 C38.4551072,188.181522 40.3239757,190.44896 42.9747293,191.468666 L42.9747293,191.456814 Z" id="Shape" fill="#FB1D5C" fill-rule="nonzero"></path>
                <path d="M41.8202711,225.792254 C45.6322583,227.980358 61,228 61,228 C61,228 54.2659172,215.311356 50.4582083,213.138966 C47.9935051,211.72216 44.8928345,211.620327 42.3241893,212.871826 C39.7555441,214.123325 38.1091625,216.538023 38.0052206,219.206327 C37.9012787,221.874631 39.3555678,224.391163 41.8202711,225.807968 L41.8202711,225.792254 Z" id="Shape" fill="#FB1D5C" fill-rule="nonzero"></path>
                <path d="M89,238.938166 C89,238.938166 79.597758,237.852458 76.9258698,235.67358 C74.2539817,233.494702 62.8225069,230.181614 61.8254174,233.229804 C60.8283279,236.277995 46.23421,247.474591 56.8516547,248.470756 C67.4690995,249.466921 81.7438373,248.99309 84.7156312,247.582789 C87.6874252,246.172488 89,238.938166 89,238.938166 Z" id="Shape" fill="#A8A8A8" fill-rule="nonzero"></path>
                <path d="M56.7832013,245.232291 C67.4170033,246.314137 81.652514,245.80575 84.6429058,244.268391 C86.9207432,243.09707 88.2017835,238.2491 88.6846071,236 L89,236.040671 C89,236.040671 87.7228535,243.922688 84.7168868,245.464115 C81.7109201,247.005542 67.4909843,247.497659 56.8571824,246.428015 C53.7889159,246.114849 52.8232685,244.874387 53.025743,243.174344 C53.3800732,244.252123 54.4975764,245.000467 56.7832013,245.232291 Z" id="Shape" fill="#000000" fill-rule="nonzero" opacity="0.2"></path>
                <g id="Shape" fill-rule="nonzero">
                    <use fill="black" fill-opacity="1" filter="url(#filter-2)" xlink:href="#path-1"></use>
                    <use fill="#FB1D5C" xlink:href="#path-1"></use>
                </g>
                <path d="M341.910653,32.0000031 L84.0893466,32.0000031 C81.414212,31.997896 78.8479266,33.0648998 76.9555797,34.9660631 C75.0632328,36.8672264 73.9999992,39.4466515 74,42.1363557 L74,193.208905 C74.0065392,198.805507 78.523056,203.337734 84.0893466,203.333346 L187.912869,203.333346 L187.912869,240.563498 L178.143381,240.563498 C176.814574,240.563497 175.736752,241.645412 175.734574,242.981453 L175.734574,248 L251.505369,248 L251.505369,242.961601 C251.503191,241.62556 250.425369,240.543645 249.096563,240.543647 L236.622102,240.543647 L236.622102,203.309524 L341.910653,203.309524 C347.472327,203.31392 351.986931,198.788942 352,193.196994 L352,42.1363557 C352.000001,39.4466515 350.936767,36.8672264 349.04442,34.9660631 C347.152073,33.0648998 344.585788,31.997896 341.910653,32.0000031 Z" id="Shape" fill="url(#linearGradient-3)" fill-rule="nonzero"></path>
                <rect id="Rectangle-path" fill="#454545" fill-rule="nonzero" x="186" y="196" width="48" height="47"></rect>
                <rect id="Rectangle-path" fill="#000000" fill-rule="nonzero" opacity="0.1" x="186" y="236" width="48" height="4"></rect>
                <path d="M174.417175,236 L245.582825,236 C246.917794,236 248,237.017535 248,238.272727 L248,243 L172,243 L172,238.272727 C172,237.017535 173.082206,236 174.417175,236 Z" id="Shape" fill="#454545" fill-rule="nonzero"></path>
                <rect id="Rectangle-path" fill="#454545" fill-rule="nonzero" x="76" y="34" width="274" height="168" rx="8"></rect>
                <rect id="Rectangle-path" fill="#FFFFFF" fill-rule="nonzero" x="80" y="54" width="262" height="135"></rect>
                <circle id="Oval" fill="#FFFFFF" fill-rule="nonzero" cx="211" cy="45" r="2"></circle>
                <rect id="Rectangle-path" fill="#000000" fill-rule="nonzero" opacity="0.1" x="186" y="203" width="48" height="1"></rect>
                <path d="M226.910289,86 C211.232989,98.8309072 204.013923,119.168866 208.146387,138.86272 C212.278852,158.556573 227.086562,174.383385 246.634803,180 L262,127.827205 L226.910289,86 Z" id="Shape" fill="#00E566" fill-rule="nonzero"></path>
                <path d="M263.462542,72.0000622 C250.874934,71.9814305 238.679531,76.3779274 229,84.4239609 L263.462542,126 L292,80.1509224 C283.44131,74.8093968 273.551645,71.9847135 263.462542,72.0000622 Z" id="Shape" fill="#FFDD00" fill-rule="nonzero"></path>
                <path d="M264.287721,128 L249,179.855409 C265.36899,184.547715 283.018635,181.446831 296.741116,171.467722 C310.463597,161.488613 318.692592,145.770324 319,128.950793 L264.287721,128 Z" id="Shape" fill="#2A1EBD" fill-rule="nonzero"></path>
                <rect id="Rectangle-path" fill="#2A1EBD" fill-rule="nonzero" x="105" y="100" width="20" height="13"></rect>
                <rect id="Rectangle-path" fill="#FC6681" fill-rule="nonzero" x="105" y="122" width="20" height="13"></rect>
                <rect id="Rectangle-path" fill="#FB1D5C" fill-rule="nonzero" x="105" y="142" width="20" height="13"></rect>
                <rect id="Rectangle-path" fill="#D6D6E3" fill-rule="nonzero" x="135" y="105" width="37" height="5"></rect>
                <rect id="Rectangle-path" fill="#D6D6E3" fill-rule="nonzero" x="135" y="127" width="37" height="5"></rect>
                <rect id="Rectangle-path" fill="#D6D6E3" fill-rule="nonzero" x="135" y="145" width="37" height="5"></rect>
                <rect id="Rectangle-path" fill="#D6D6E3" fill-rule="nonzero" x="80" y="52" width="262" height="6"></rect>
                <circle id="Oval" fill="#FC6681" fill-rule="nonzero" cx="84" cy="55" r="1"></circle>
                <circle id="Oval" fill="#FFC74C" fill-rule="nonzero" cx="86" cy="55" r="1"></circle>
                <circle id="Oval" fill="#85D459" fill-rule="nonzero" cx="90" cy="55" r="1"></circle>
                <path d="M330.999995,162.964308 C331.008244,142.632055 320.486311,123.737805 303.175597,113 L272,162.964308 L331,164 L330.999995,162.964308 Z" id="Shape" fill="url(#linearGradient-4)" fill-rule="nonzero"></path>
                <path d="M329.999995,162.029672 C330.00814,143.29846 320.199568,125.891916 304.062316,116 L275,162.029672 L330,163 L329.999995,162.029672 Z" id="Shape" fill="#FB1D5C" fill-rule="nonzero"></path>
                <path d="M408.868219,104.182541 C408.810304,103.870621 408.748529,103.570399 408.679031,103.277974 C408.143161,101.238009 407.380711,99.7379936 406.331551,98.4510207 C406.030394,98.1040103 405.910703,97.9753436 405.794874,97.8505758 C405.686239,97.7327914 405.571537,97.6208653 405.451246,97.5152624 C405.339277,97.4099895 405.227309,97.3125147 405.123062,97.2228379 C404.910708,97.0434842 404.713797,96.8953225 404.536192,96.7705547 C404.358587,96.6457869 404.285228,96.598999 404.180981,96.5366151 C403.927604,96.3805236 403.642452,96.2845372 403.347008,96.2558876 L401.509179,96.0687359 L399.022703,95.8192003 L390.042048,92.2399246 L389.686837,92.3685914 C389.424688,91.6262953 389.202993,90.8700579 389.022748,90.1032764 C389.2958,89.9823215 389.538551,89.8011304 389.733169,89.5730133 C389.945386,89.4023636 390.11251,89.1813563 390.219653,88.9296794 C390.443591,88.3955174 390.01116,87.2492134 390.099963,86.5902835 C390.242819,85.5414544 390.775636,84.5277162 391.204205,83.5763618 C392.126981,81.5332894 392.798793,79.3186613 392.690685,77.0767402 C392.582577,74.8348192 391.586443,72.5578072 389.740891,71.3062304 C388.787227,70.6589975 387.66368,70.3119871 386.675268,69.7193401 C385.90307,69.259259 385.223537,68.658814 384.486088,68.1597429 C380.824488,65.6487431 376.114101,65.3023919 372.130931,67.2512775 C370.266074,68.1948338 368.656043,69.5906734 366.914738,70.7369774 C365.173433,71.8832814 363.080778,72.7371609 361.022872,72.4057464 C360.432141,73.6378283 361.300863,74.6164756 362.103948,75.2949004 C363.625177,76.5815681 365.347177,77.8643369 367.331724,77.9111248 C368.103922,77.9111248 368.907007,77.762963 369.605846,78.0865795 C369.757577,78.1603251 369.900138,78.2519382 370.030554,78.359509 C369.122119,82.0496222 370.311104,85.9443574 373.119343,88.4773962 L368.524769,86.7657382 C368.524769,86.7657382 368.33172,86.8671121 368.038285,87.0581627 L361.671518,82.7107853 C361.671518,82.7107853 348.930262,77.9306197 345.366571,85.3387067 C341.80288,92.7467937 360.729437,88.9062855 360.729437,88.9062855 L364.775751,91.1871965 C364.641569,92.0432226 364.798053,92.9199145 365.219765,93.6747541 L376.250604,100.692942 C374.022814,101.39866 370.358738,102.525469 369.710092,102.525469 C368.76415,102.525469 366.165706,103.480722 364.509343,107.297836 C362.85298,111.11495 356.941809,129.713148 351.744921,132.812847 C346.548033,135.912547 332.826086,156.678585 332.826086,156.678585 C332.64462,156.908625 332.405239,156.978807 332.169719,157.060686 C328.741163,158.20699 326.432293,160.620467 325.046198,162.577761 C324.30049,163.626591 324.537233,165.087206 325.575153,165.841218 C325.889988,166.072558 326.258123,166.218846 326.644647,166.266209 C332.050028,166.968027 335.011405,164.410288 336.432248,162.476387 C336.524912,162.35162 336.609853,162.226852 336.690934,162.109882 C337.113535,162.295653 337.58906,162.317859 338.026836,162.172266 L344.652289,156.690282 C344.652289,156.690282 339.490149,161.914932 342.509441,166.683401 L342.277782,167.014815 C337.145213,174.535521 333.387127,182.923255 331.181306,191.78122 C331.181306,191.78122 328.343481,193.929565 328.092517,202.519047 C327.841553,211.108529 325.003727,224.953854 325.003727,224.953854 C325.003727,224.953854 323.111844,241.419302 324.293306,246.433407 C324.293306,246.433407 324.42844,246.632256 324.679405,246.936377 C324.590602,247.045549 324.494077,247.15862 324.38597,247.279488 C323.355086,248.421893 321.494091,250.008784 319.328077,249.533107 C316.019211,248.815692 316.019211,254.78505 320.745059,255.260727 C323.787517,255.568748 329.772046,256.964588 333.644616,257.919841 C335.110299,258.282734 336.590352,257.379334 336.953481,255.900162 C337.028003,255.587653 337.048898,255.264552 337.015257,254.944909 C336.783598,252.808261 336.36275,250.219329 335.598275,248.379005 C335.590553,247.911125 335.729548,247.774661 335.868544,247.626499 C335.868544,247.626499 335.868544,237.12651 337.521046,234.26075 C337.521046,234.26075 342.011374,212.543358 341.768132,207.053576 C341.582804,202.764684 353.416728,186.034104 358.567285,178.980825 C359.887742,176.887066 360.725576,175.795348 360.725576,175.795348 L364.744863,201.80943 C364.744863,201.80943 366.636747,207.537051 368.991949,210.64065 C368.991949,210.64065 379.154066,230.447535 380.335528,236.654732 C381.231276,241.360817 383.076828,244.140799 383.918523,245.232517 C383.821999,245.333891 383.717752,245.435265 383.609644,245.536639 C382.53629,246.550377 380.945563,247.564115 379.154066,247.178115 C375.860644,246.441205 375.860644,252.42226 380.571048,252.886241 C383.613505,253.194261 389.598035,254.590101 393.470604,255.545354 C394.936288,255.908248 396.41634,255.004847 396.77947,253.525676 C396.853992,253.213166 396.874887,252.890065 396.841246,252.570422 C396.574838,250.086764 396.045882,246.998761 395.026582,245.162335 C394.937779,245.010274 394.848977,244.866012 394.756313,244.729547 C395.117198,244.580448 395.43851,244.348108 395.694533,244.051122 C395.694533,244.051122 389.551703,229.016605 389.551703,224.946056 C389.551703,224.946056 386.953259,209.431962 378.208124,203.704341 C378.208124,203.704341 379.034375,184.302951 381.524711,173.506639 C381.586487,173.245406 381.648263,172.988073 381.7139,172.72684 C384.032883,172.352315 386.331778,171.860422 388.6019,171.253021 L388.83742,164.09447 L390.018882,169.82209 L403.273649,161.470447 C403.273649,161.470447 403.15782,159.965436 402.933883,157.657232 C402.821914,156.487534 402.682918,155.150179 402.516896,153.680259 C402.385623,152.510561 402.235044,151.258984 402.069022,149.984013 L401.941609,149.024861 C401.767865,147.738193 401.578676,146.435929 401.374044,145.164858 C401.296824,144.685282 401.215744,144.213503 401.134663,143.745624 C401.026555,143.121785 400.914587,142.509643 400.798757,141.916996 C400.740842,141.620673 400.679066,141.328248 400.621152,141.039723 C400.563237,140.751197 400.501461,140.466571 400.439685,140.189742 C400.377909,139.912914 400.316134,139.639984 400.250497,139.374853 C400.088335,138.723721 400.022699,138.474185 399.957062,138.228549 C399.680084,137.210683 399.51945,136.164133 399.4783,135.109354 C399.4783,134.688263 399.4783,134.267172 399.4783,133.84998 C399.493914,133.429648 399.532583,133.010514 399.594129,132.594504 C399.621156,132.387857 399.655905,132.177312 399.694515,131.970665 C399.848547,131.140354 400.073319,130.325033 400.366326,129.533794 C400.513044,129.143895 400.679066,128.753996 400.860533,128.364096 C401.289102,127.463429 401.74856,126.484782 402.2196,125.455447 L402.937744,123.876355 C403.180986,123.342193 403.420367,122.796334 403.663609,122.238778 C405.980201,116.979036 408.235017,111.11495 408.841192,107.262745 C408.906829,106.872846 408.9493,106.482947 408.976327,106.116441 C409.003382,105.775298 409.007252,105.432684 408.98791,105.091006 C408.918412,104.521753 408.891385,104.361894 408.868219,104.182541 Z" id="Shape" fill="url(#linearGradient-5)" fill-rule="nonzero"></path>
                <path d="M371,87.4311125 L362.57531,81.6063802 C362.57531,81.6063802 349.197621,76.5449182 345.467223,84.390824 C341.736826,92.2367298 361.569689,88.1901186 361.569689,88.1901186 L369.994378,93 L371,87.4311125 Z" id="Shape" fill="#F7BBC3" fill-rule="nonzero"></path>
                <path d="M392.614744,251.916265 C388.744815,250.929935 382.777019,249.481653 379.737496,249.165361 C375.021268,248.670115 375.021268,242.506592 378.323025,243.234895 C380.114953,243.651068 381.700273,242.585665 382.773046,241.536909 C383.106834,241.20883 383.420046,240.858515 383.710729,240.488153 C384.100199,239.992154 384.637556,239.647701 385.236451,239.510146 C387.004539,239.093973 390.687726,238.494684 392.952469,239.772335 C393.475931,240.111596 393.898424,240.597378 394.172252,241.174838 C395.1894,243.064264 395.71784,246.260473 395.984046,248.832423 C396.0802,249.760598 395.737644,250.679483 395.066452,251.293809 C394.395261,251.908135 393.479989,252.14051 392.614744,251.916265 Z" id="Shape" fill="#454545" fill-rule="nonzero"></path>
                <path d="M331.614744,254.916265 C327.744815,253.929935 321.777019,252.481653 318.737496,252.165361 C314.021268,251.670115 314.021268,245.506592 317.323025,246.234895 C319.484464,246.721817 321.343937,245.086257 322.373004,243.904326 C322.496174,243.758665 322.611398,243.621328 322.710729,243.488153 C323.100199,242.992154 323.637556,242.647701 324.236451,242.510146 C326.004539,242.093973 329.687726,241.494684 331.952469,242.772335 C332.615999,243.146891 333.144439,243.970914 333.569575,245.032155 C334.332436,246.938227 334.761545,249.610059 334.984046,251.832423 C335.0802,252.760598 334.737644,253.679483 334.066452,254.293809 C333.395261,254.908135 332.479989,255.14051 331.614744,254.916265 Z" id="Shape" fill="#454545" fill-rule="nonzero"></path>
                <path d="M336,244.677017 C329.959531,250.030462 324.783813,244.578082 324,243.676681 C324.132055,243.548433 324.255591,243.427513 324.362087,243.310258 C324.779653,242.873551 325.355773,242.570274 325.99787,242.449163 C327.893504,242.082739 331.842386,241.55509 334.270501,242.680009 C334.956337,243.017119 335.527157,243.742637 336,244.677017 Z" id="Shape" fill="#000000" fill-rule="nonzero" opacity="0.1"></path>
                <path d="M394,240.845783 C391.430962,242.326413 382.778243,241.95978 382.778243,241.95978 C382.496049,241.705608 382.235961,241.434633 382,241.148959 C382.351502,240.871051 382.681338,240.574307 382.987448,240.260581 C383.397588,239.840431 383.963463,239.548653 384.594142,239.432133 C386.456067,239.079602 390.334728,238.571958 392.719665,239.654228 C393.268806,239.944221 393.711949,240.356635 394,240.845783 Z" id="Shape" fill="#000000" fill-rule="nonzero" opacity="0.1"></path>
                <path d="M396,242.009382 C394.310348,244.097662 384.667956,243.636207 384.667956,243.636207 C384.667956,243.636207 381.77605,240.851833 380.569736,234.81381 C379.363422,228.775787 369.0143,209.488527 369.0143,209.488527 C366.601671,206.469515 364.672381,200.885126 364.672381,200.885126 L360.566038,175.595038 C360.566038,175.595038 340.773546,200.677862 341.013184,206.023703 C341.252822,211.369543 336.671264,232.490892 336.671264,232.490892 C334.97755,235.275265 334.97755,245.493759 334.97755,245.493759 C328.70634,251.750778 323.401806,244.320568 323.401806,244.320568 C322.183307,239.444004 324.124782,223.426036 324.124782,223.426036 C324.124782,223.426036 327.016688,209.961714 327.260387,201.600772 C327.504087,193.239831 330.416301,191.163283 330.416301,191.163283 C332.669567,182.550225 336.504584,174.394595 341.740222,167.081582 C342.498353,166.015679 343.311715,164.987185 344.177221,164 L383.230126,168.426841 C382.480174,170.022647 381.916222,171.693564 381.548597,173.408992 C379.010057,183.912962 378.165231,202.789606 378.165231,202.789606 C387.100893,208.362263 389.740975,223.453411 389.740975,223.453411 C389.72879,227.3836 396,242.009382 396,242.009382 Z" id="Shape" fill="#2A1EBD" fill-rule="nonzero"></path>
                <g id="Group" opacity="0.05" transform="translate(328.000000, 162.000000)" fill="#000000" fill-rule="nonzero">
                    <path d="M29.5562275,15.2371296 L29.0627545,12.0877778 C29.0627545,12.0877778 9.54850299,37.6130556 9.76916168,43.0557407 C9.98982036,48.4984259 5.48035928,70.0024074 5.48035928,70.0024074 C3.81137725,72.8372222 3.81137725,83.2408333 3.81137725,83.2408333 C2.81461861,84.3628258 1.52474909,85.1895634 0.084251497,85.6297222 C1.96185629,86.1194444 4.24065868,85.7611111 6.67191617,83.2408333 C6.67191617,83.2408333 6.67191617,72.8412037 8.3408982,70.0024074 C8.3408982,70.0024074 12.8664072,48.5024074 12.6297006,43.0557407 C12.4371257,38.8075 24.3687425,22.2325926 29.5562275,15.2371296 Z" id="Shape"></path>
                    <path d="M60.7413174,60.7812963 C60.7413174,60.7812963 58.121497,45.4167593 49.3071856,39.7431481 C49.3071856,39.7431481 50.1416766,20.5285185 52.6491617,9.83027778 C53.0137136,8.09056893 53.5707423,6.3961326 54.3101198,4.77777778 L15.7229341,0.286666667 L15.4701796,0.589259259 L51.4535928,4.77777778 C50.7128148,6.40249371 50.1557618,8.10368033 49.7926347,9.85018519 C47.2851497,20.5444444 46.4506587,39.7630556 46.4506587,39.7630556 C55.277006,45.4366667 57.8847904,60.8012037 57.8847904,60.8012037 C57.8847904,64.8185185 64.0792814,79.7132407 64.0792814,79.7132407 C63.0963473,80.9674074 59.3812575,81.3058333 56.5006587,81.3934259 C58.787485,81.4531481 65.5597006,81.4730556 66.9317964,79.7132407 C66.9197605,79.6933333 60.7413174,64.8025926 60.7413174,60.7812963 Z" id="Shape"></path>
                </g>
                <path d="M337,161.487416 C336.712893,162.268474 336.334406,163.004168 335.874296,163.675531 C334.444131,165.814726 331.467625,168.643265 326.023383,167.86942 C324.747257,167.676034 323.851933,166.37395 324.020351,164.95638 C324.064244,164.535588 324.20193,164.13358 324.420958,163.786716 C325.819074,161.625285 328.142592,158.952404 331.591813,157.684898 C332.575546,157.321973 333.595099,157.092015 334.62841,157 L337,161.487416 Z" id="Shape" fill="#F7BBC3" fill-rule="nonzero"></path>
                <path d="M387,93.3910602 L367.010647,87 C367.010647,87 361.275411,89.6136903 363.521642,93.3213129 L382.965182,104 L387,93.3910602 Z" id="Shape" fill="#D9D9EA" fill-rule="nonzero"></path>
                <path d="M387,93.3910602 L367.010647,87 C367.010647,87 361.275411,89.6136903 363.521642,93.3213129 L382.965182,104 L387,93.3910602 Z" id="Shape" fill="#FFFFFF" fill-rule="nonzero" opacity="0.1"></path>
                <path d="M385.712217,81.5056121 C385.712217,81.5056121 385.487938,93.5192687 390.224399,97.6099403 C394.96086,101.700612 376.455971,104 376.455971,104 C376.455971,104 379.3906,91.7279851 376.455971,85.3379255 C373.521342,78.9478658 385.712217,81.5056121 385.712217,81.5056121 Z" id="Shape" fill="#F7BBC3" fill-rule="nonzero"></path>
                <path d="M382,168.775847 C381.276907,170.506639 380.733154,172.318894 380.378696,174.179425 C357.891913,177.899157 342.242804,167.766387 342.242804,167.766387 C342.156648,167.622179 342.074408,167.473729 342,167.342245 C342.730978,166.186181 343.515209,165.070688 344.349716,164 L382,168.775847 Z" id="Shape" fill="#000000" fill-rule="nonzero" opacity="0.1"></path>
                <path d="M337,160.361093 C336.734759,160.946108 336.385098,161.497146 335.96003,162 C333.9245,161.696869 332.299778,158.195869 332,157.512991 C332.908812,157.241159 333.850715,157.06892 334.805329,157 L337,160.361093 Z" id="Shape" fill="#000000" fill-rule="nonzero" opacity="0.1"></path>
                <path d="M390.088832,92 L381.597821,94.9766855 L378.057583,99.5535322 C378.057583,99.5535322 370.746652,101.843883 369.800999,101.843883 C368.855346,101.843883 366.260761,102.75771 364.611828,106.42073 C362.962895,110.08375 357.062498,127.940007 351.873326,130.916692 C346.684155,133.893378 333,153.808637 333,153.808637 C333,153.808637 335.360159,159.977934 338.189171,159.075674 L344.796822,153.808637 C344.796822,153.808637 339.607651,158.844325 342.675063,163.425028 C342.675063,163.425028 362.017242,174.64158 388.674325,167.774382 L388.908752,160.907184 L390.100752,166.401713 L403.284267,158.385484 C403.284267,158.385484 402.092267,143.610019 399.970508,136.087334 C399.087672,132.926184 399.410782,129.561987 400.880401,126.613608 C404.305413,119.67315 409.589944,108.105719 408.946264,103.89903 C408.187358,98.9288909 405.290799,96.7696372 404.178266,96.1141495 C403.925257,95.9667104 403.641576,95.8758251 403.34784,95.8480986 L399.052668,95.4316711 L390.088832,92 Z" id="Shape" fill="#FFFFFF" fill-rule="nonzero"></path>
                <path d="M376,116 C376,116 371.358124,137.831938 366.255187,141.341489 C361.15225,144.85104 347.464969,156.122706 347,158" id="Shape" fill="#000000" fill-rule="nonzero" opacity="0.05"></path>
                <path d="M372,116 C372,116 367.361407,137.820235 362.257782,141.338353 C357.154157,144.856471 343.465032,156.122353 343,158" id="Shape" fill="#FFFFFF" fill-rule="nonzero"></path>
                <path d="M376,99 C376,99 392.294474,93.8863098 397,95.2227573" id="Shape" fill="#000000" fill-rule="nonzero" opacity="0.1"></path>
                <g id="Group" opacity="0.05" transform="translate(387.000000, 91.000000)" fill="#000000" fill-rule="nonzero">
                    <path d="M11.6862745,35.860567 C15.0666667,28.7162371 20.2823529,16.8090206 19.6470588,12.4787629 C18.8980392,7.36262887 16.0392157,5.13994845 14.9411765,4.46520619 C14.6914633,4.31343621 14.4114781,4.21988122 14.1215686,4.19134021 L12.3098039,4.00876289 C12.4989008,4.05512572 12.680018,4.13005583 12.8470588,4.23103093 C13.9372549,4.9057732 16.7960784,7.12448454 17.5529412,12.2445876 C18.1882353,16.5867526 12.972549,28.4939691 9.59215686,35.6263918 C8.14168405,38.6613774 7.82278304,42.1243954 8.69411765,45.3784021 C10.7960784,53.1180928 11.9647059,68.3315464 11.9647059,68.3315464 L0.737254902,75.4322165 L1.02352941,76.8134536 L14.0392157,68.5617526 C14.0392157,68.5617526 12.8627451,53.352268 10.7686275,45.6086082 C9.9057844,42.3533463 10.2315909,38.8923475 11.6862745,35.860567 Z" id="Shape"></path>
                    <polygon id="Shape" points="7.76862745 3.52453608 9.78431373 3.73092784 1.01568627 0.226237113 0.231372549 0.512010309"></polygon>
                </g>
                <path d="M371,137 C371,137 378.396631,133.357401 380.784456,134.212996 C383.172282,135.068592 392,134 392,134" id="Shape" fill="#000000" fill-rule="nonzero" opacity="0.05"></path>
                <path d="M386.105321,85.6774178 C385.812829,83.0853533 387,83.5173641 387,83.5173641 C387,83.5173641 373.201293,80.9252996 376.513327,87.3449793 C377.358055,89.1157495 377.840715,91.0386523 377.93277,93 L378.06181,93 C381.890005,93 384.126703,88.6798925 386.105321,85.6774178 Z" id="Shape" fill="#000000" fill-rule="nonzero" opacity="0.05"></path>
                <ellipse id="Oval" fill="#F7BBC3" fill-rule="nonzero" cx="375.5" cy="83" rx="11.5" ry="12"></ellipse>
                <path d="M388.775325,85.4413371 C389.531279,83.4172116 390.078695,81.2217526 389.990717,78.998402 C389.90274,76.7750515 389.084875,74.519825 387.576225,73.2766613 C386.794203,72.6351569 385.875327,72.2885055 385.067238,71.6828616 C384.435104,71.2246442 383.877913,70.6309539 383.275105,70.1169535 C380.27139,67.641754 376.416075,67.3136905 373.160956,69.2563017 C371.632755,70.192659 370.332644,71.5872337 368.89242,72.7108624 C367.452197,73.8344912 365.754558,74.703112 364.066694,74.3644296 C363.776694,75.3486008 364.487031,76.3208186 365.145232,76.994199 C366.38995,78.2692387 367.800848,79.5442784 369.423543,79.5881079 C370.052419,79.5881079 370.726913,79.4406814 371.284104,79.7634259 C371.668629,80.0229121 371.995306,80.3936535 372.235564,80.8432251 C373.011303,82.1127776 373.667154,83.4855255 374.190618,84.9353058 C374.408932,85.5289961 374.627247,86.174485 375.073651,86.5291054 C375.81983,87.1148268 376.790841,86.6287179 377.68039,86.5848884 C379.058704,86.5211364 380.28713,87.5810132 381.316792,88.7126109 C382.346454,89.8442087 383.307689,91.1431554 384.594767,91.7408303 C385.572294,92.1870942 387.478472,92.1711562 387.967236,90.7686125 C388.152966,90.2386741 387.797798,89.1030918 387.869483,88.457603 C387.986786,87.3738192 388.410381,86.3896479 388.775325,85.4413371 Z" id="Shape" fill="#000000" fill-rule="nonzero" opacity="0.1"></path>
                <path d="M389.540542,83.4608477 C390.441421,81.4353603 391.093781,79.2384242 390.988937,77.0135779 C390.884094,74.7887315 389.909436,72.5319877 388.111562,71.2879876 C387.179619,70.6460516 386.084585,70.299167 385.121577,69.7130516 C384.368256,69.2545259 383.704246,68.6604361 382.985873,68.1460899 C379.409726,65.650254 374.807371,65.3066209 370.917206,67.2449872 C369.096033,68.1819745 367.546677,69.5774874 365.830348,70.7018722 C364.114018,71.8262569 362.090925,72.6954621 360.07948,72.3565518 C359.733884,73.3413852 360.5804,74.3142571 361.364785,74.9880905 C362.848129,76.263988 364.52951,77.5398856 366.463293,77.5837446 C367.21273,77.5837446 368.016532,77.4362189 368.680541,77.7591805 C369.138784,78.0188413 369.528088,78.3898321 369.814406,78.8397062 C370.749927,80.1077122 371.543208,81.4799981 372.179212,82.9305527 C372.43938,83.5246425 372.699547,84.1705657 373.231532,84.5254247 C374.120761,85.1115401 375.277924,84.6251042 376.33801,84.5812452 C377.98056,84.5174503 379.444488,85.5780402 380.671547,86.7103992 C381.898606,87.8427583 383.04412,89.1425789 384.577943,89.7406559 C385.742872,90.1872201 388.014485,90.1712713 388.596949,88.767784 C388.818286,88.2374891 388.395028,87.1011429 388.480456,86.4552197 C388.600832,85.418553 389.121167,84.4137836 389.540542,83.4608477 Z" id="Shape" fill="#A1616A" fill-rule="nonzero"></path>
                <path d="M35,74.1485968 L51,70 C51,70 47.2221149,89.4078517 35,74.1485968 Z" id="Shape" fill="#FB1D5C" fill-rule="nonzero"></path>
                <path d="M28,57.5495381 L43,55 C43,55 33.5759577,68.8804137 28,57.5495381 Z" id="Shape" fill="#FB1D5C" fill-rule="nonzero"></path>
                <path d="M66.7638444,180.125614 C64.4551288,181.579078 60.8577373,182.52442 56.2987054,179.400852 L56.3454247,186.317605 C56.0183891,191.044316 50.5055034,208.340138 50.5055034,208.340138 L46.6122225,222.559659 C43.8331635,232.631681 42.4006663,243.035051 42.3529732,253.492041 C42.3529732,256.962234 42.0531906,260.538778 41.1188032,263.229065 C39.0553643,269.180781 41.9286056,276.849869 43.1783488,279.70559 C45.275,280.461774 47.4102983,281.103431 49.5750093,281.627786 C49.7703549,281.673954 49.9617362,281.735862 50.1473216,281.812915 L50.1706813,281.773526 C50.1706813,281.773526 55.9872429,284.235354 58.5723814,283.896607 C60.4995554,283.644515 61.7064725,286.208756 60.1958795,288.095501 C61.6208203,288.489394 63.0808007,288.769058 64.0658007,288.639073 C66.6509392,288.300325 67.9590816,293.042792 63.0963738,294.397782 C58.233666,295.752772 30.7821424,294.397782 30.7821424,294.397782 C29.1670895,293.495852 28.327082,291.629691 28.7148103,289.804995 C26.6046521,289.718339 25.2848298,289.651377 25.2848298,289.651377 C25.2848298,289.651377 20.4376951,287.288022 25.2848298,280.84 L25.5456796,281.048764 L26.5812924,277.791272 L26.5812924,273.391492 C26.5812924,273.391492 20.4415884,241.880088 22.376549,238.153865 C24.3115096,234.427641 25.2848298,215.453837 25.2848298,215.453837 L24.6268654,194.786295 C22.874889,190.926148 21.9794344,184.875958 21.5122407,180.145309 C20.8528282,177.882575 20.4377173,175.554208 20.2741773,173.200983 C20.1963117,172.090206 20.1340192,170.924284 20.0911931,169.715034 C20.0754505,167.068125 20.4816721,164.435965 21.2942169,161.9199 C19.4488018,159.083874 16.4509755,154.69985 13.9748489,152.108037 C11.713877,149.791459 10.6512354,146.539937 11.1016076,143.316355 L12.7173191,131.794998 L16.6106,112.143699 C16.1083668,106.684348 17.1751257,103.533208 18.3508966,101.760691 C18.0705803,99.9999914 17.8097305,98.2392917 17.6150665,96.4707142 C16.7536966,88.7811406 17.1363573,81.0009495 18.7480112,73.4358778 C19.3086437,70.8007366 20.0717267,68.082878 21.8042367,66.1134153 C23.7508772,63.852472 26.9433675,62.4738481 27.6753043,59.5117761 C27.8543952,58.7751971 27.8621818,57.9913509 28.1269249,57.2823443 C28.835502,55.344393 31.0780318,54.6393253 33.0402454,54.3872341 C36.5441982,53.9342576 41.6054633,53.599449 44.9614714,55.0568514 C47.29744,56.080972 50.5405429,58.9012427 51.8253256,61.9263375 C52.565049,63.3167782 52.9076577,64.7781195 52.6039818,66.1528045 C52.4804779,66.6574249 52.2919879,67.1434446 52.0433494,67.5983902 C52.547672,69.0525664 52.8031014,70.5831289 52.7986459,72.1242156 C52.7752862,77.5559939 49.6373018,82.4205669 44.8913924,84.3860907 C44.8135268,84.6460598 44.7434477,84.90209 44.6850485,85.1541812 C44.5368491,85.7616398 44.4314655,86.3789771 44.3696927,87.0015373 C44.4319852,88.1832149 44.5020643,89.4003429 44.5526769,90.6017152 L44.6694754,91.0901419 C47.457228,92.4063378 50.1687343,93.8818786 52.7908593,95.5096164 C50.8442188,98.5583447 53.1140016,111.434692 53.1140016,111.434692 C57.9650296,114.483421 62.8160576,122.278554 57.6418873,130.408496 C52.467717,138.538439 55.3759978,147.345876 55.3759978,147.345876 L56.1624405,160.580666 L56.1624405,160.604299 L56.3259583,163.255196 L56.2636658,163.255196 L56.3259583,164.259622 L56.1858002,164.287195 L56.1858002,165.374338 C58.455583,166.264535 61.7726583,168.060685 63.750445,171.3812 C64.6789273,173.003587 65.8166658,174.493762 67.1337061,175.812491 C68.1810763,176.801016 68.2933459,178.441127 67.3906626,179.566287 C67.2129934,179.785796 67.0013046,179.974691 66.7638444,180.125614 Z M27.7414901,144.927376 C27.9313552,142.640875 27.528791,140.343794 26.5735058,138.262714 C25.814316,138.262714 25.051233,138.286347 24.2881499,138.290286 C24.2141776,138.861431 24.1207388,139.405002 24.0078337,139.901307 C23.3537625,142.887012 25.9778338,144.316842 27.7259169,144.923437 L27.7414901,144.927376 Z" id="Shape" fill="url(#linearGradient-6)" fill-rule="nonzero"></path>
                <path d="M27.2842559,276.596026 L26,280.501656 L30.1949676,284.751104 L44.0278936,288 L54,287.022627 L53.3558591,283.441501 C52.9984054,281.903424 51.7758767,280.685598 50.187491,280.28532 C46.0891445,279.31181 38.2708843,277.086645 36.6323508,274 L27.2842559,276.596026 Z" id="Shape" fill="#DB8B8B" fill-rule="nonzero"></path>
                <path d="M27.2842559,276.596026 L26,280.501656 L30.1949676,284.751104 L44.0278936,288 L54,287.022627 L53.3558591,283.441501 C52.9984054,281.903424 51.7758767,280.685598 50.187491,280.28532 C46.0891445,279.31181 38.2708843,277.086645 36.6323508,274 L27.2842559,276.596026 Z" id="Shape" fill="#000000" fill-rule="nonzero" opacity="0.1"></path>
                <path d="M50.5077063,285.203933 L48.6044804,282.32236 L50.5077063,278.983326 C50.5077063,278.983326 56.2094536,281.599829 58.743123,281.240701 C61.2767923,280.881573 62.5416445,285.943566 57.7915101,287.367251 C53.0413756,288.790936 26.1146954,287.367251 26.1146954,287.367251 C26.1146954,287.367251 21.3566308,284.844805 26.1146954,278 L30.2462814,281.604104 C30.2462814,281.604104 37.216846,285.926464 40.7021282,285.208209 L50.5077063,285.203933 Z" id="Shape" fill="#2E3037" fill-rule="nonzero"></path>
                <path d="M58,290.023435 L48.0253019,291 L34.1983899,287.746071 L30,283.500138 L30.3421507,282.465674 L30.8211616,281.014337 L31.3041978,279.601599 L40.626797,277 C41.0973051,277.777081 41.7506746,278.437976 42.5347901,278.92997 C45.5658424,281.025917 51.0080506,282.539013 54.2081656,283.295561 C54.3386123,283.326094 54.4664487,283.366096 54.5905693,283.415219 C55.9918388,283.908887 57.0352008,285.051899 57.359977,286.449132 L58,290.023435 Z" id="Shape" fill="#DB8B8B" fill-rule="nonzero"></path>
                <path d="M58,291.084577 L48.0253019,292 L34.1983899,288.949796 L30,284.969697 L30.3421507,284 L34.1782634,286.800543 C34.1782634,286.800543 41.2547441,290.458616 44.7929845,289.850746 L54.7797585,289.850746 L52.8516389,287.412031 L54.5825187,284.87924 C55.9837882,285.341999 57.0271502,286.413449 57.3519264,287.723202 L58,291.084577 Z" id="Shape" fill="#000000" fill-rule="nonzero" opacity="0.1"></path>
                <path d="M54.5062399,291.195383 L52.6070842,288.32236 L54.5062399,284.983326 C54.5062399,284.983326 60.2076719,287.599829 62.7412011,287.240701 C65.2747303,286.881573 66.5434774,291.943566 61.7936057,293.367251 C57.043734,294.790936 30.1145784,293.367251 30.1145784,293.367251 C30.1145784,293.367251 25.356777,290.844805 30.1145784,284 L34.2499007,287.604104 C34.2499007,287.604104 41.2161149,291.926464 44.7012043,291.208209 L54.5062399,291.195383 Z" id="Shape" fill="#2E3037" fill-rule="nonzero"></path>
                <path d="M46,94.8239223 C46,94.8239223 31,96.4098765 33.1864407,90.0622927 C33.7979591,88.2551689 33.9561268,86.3341951 33.6479791,84.45683 C33.2673805,82.1436368 32.3633811,79.9393256 31,78 L45.0808344,80.2225961 C44.2291824,81.662262 43.5819477,83.2054778 43.1564537,84.8109385 C41.4784876,91.5427677 46,94.8239223 46,94.8239223 Z" id="Shape" fill="#DB8B8B" fill-rule="nonzero"></path>
                <path d="M21,173 C21,173 21.2895645,187.252301 24.2181975,194.213276 L24.8083226,214.431565 C24.8083226,214.431565 23.928633,232.994165 22.169254,236.639828 C20.4098749,240.285491 25.992238,271.110418 25.992238,271.110418 L25.992238,276.41177 C25.992238,276.41177 35.3829237,280.391718 38,275.751068 L35.3609314,236.297678 L36.5338508,181.632395 L21,173 Z" id="Shape" fill="#474463" fill-rule="nonzero"></path>
                <path d="M21,173 C21,173 21.2895645,187.252301 24.2181975,194.213276 L24.8083226,214.431565 C24.8083226,214.431565 23.928633,232.994165 22.169254,236.639828 C20.4098749,240.285491 25.992238,271.110418 25.992238,271.110418 L25.992238,276.41177 C25.992238,276.41177 35.3829237,280.391718 38,275.751068 L35.3609314,236.297678 L36.5338508,181.632395 L21,173 Z" id="Shape" fill="#000000" fill-rule="nonzero" opacity="0.1"></path>
                <path d="M14.4109678,128 L12.6079168,133.381272 L11.0959243,144.813983 C10.6706244,148.014286 11.6742993,151.241962 13.8137308,153.554063 C17.4311727,157.587025 22.2657686,166 22.2657686,166 L28,146.852404 C28,146.852404 22.2657686,145.843166 23.1654041,141.471132 C24.0650396,137.099097 23.7739811,129.00126 23.7739811,129.00126 L14.4109678,128 Z" id="Shape" fill="#FC6681" fill-rule="nonzero"></path>
                <path d="M14.4109678,128 L12.6079168,133.381272 L11.0959243,144.813983 C10.6706244,148.014286 11.6742993,151.241962 13.8137308,153.554063 C17.4311727,157.587025 22.2657686,166 22.2657686,166 L28,146.852404 C28,146.852404 22.2657686,145.843166 23.1654041,141.471132 C24.0650396,137.099097 23.7739811,129.00126 23.7739811,129.00126 L14.4109678,128 Z" id="Shape" fill="#FFDD00" fill-rule="nonzero"></path>
                <path d="M43,278.679909 C38.7586207,284.3802 32.1544828,281.151153 31,280.507356 L31.48,279.259998 L41.0634483,277 C41.5402718,277.673604 42.2031002,278.248591 43,278.679909 Z" id="Shape" fill="#000000" fill-rule="nonzero" opacity="0.1"></path>
                <path d="M55,184.861673 C54.6871325,189.509261 49.3762061,206.437508 49.3762061,206.437508 L45.6257065,220.368456 C42.9363548,230.242185 41.5517107,240.429989 41.5075876,250.668365 C41.5075876,254.067405 41.2142743,257.572789 40.3108693,260.207735 C37.8118398,267.509962 42.8098987,277.470767 42.8098987,277.470767 C38.433664,285.769468 30.9443974,280.125406 30.9443974,280.125406 L30.9443974,274.820066 C30.9443974,274.820066 25.0116468,245.942004 26.5720736,240.297942 C28.1325005,234.65388 28.7582355,219.383797 28.7582355,219.383797 L28.7582355,191.813361 C23.7071697,186.40625 20.675893,179.401338 20.1817543,171.994156 C20.1074482,170.907094 20.0487855,169.76489 20.0096771,168.579361 C19.7554722,161.095957 24.5775431,152.308865 26.4586592,149.18159 C26.9123171,148.425372 27.2017196,148 27.2017196,148 L54.7927253,159.626847 L54.8552988,159.654417 L54.8552988,163.297653 L55,184.861673 Z" id="Shape" fill="#454545" fill-rule="nonzero"></path>
                <path d="M46,80.0401397 C45.0987319,81.3647655 44.4153223,82.783665 43.9680111,84.2589684 C40.6844416,85.3501513 36.9970212,85.2317878 33.8247566,83.9333774 C33.4178971,81.8077376 32.4535928,79.7822245 31,78 L46,80.0401397 Z" id="Shape" fill="#000000" fill-rule="nonzero" opacity="0.1"></path>
                <circle id="Oval" fill="#DB8B8B" fill-rule="nonzero" cx="40" cy="74" r="13"></circle>
                <path d="M56,162.615465 L55.8656304,162.641854 C42.6223159,165.382489 26,151.494593 26,151.494593 C26.4461339,150.735911 26.83061,149.945708 27.1500461,149.130936 C27.6084837,148.407137 27.9009353,148 27.9009353,148 L55.7826373,159.128412 L55.8537742,160.240499 L56,162.615465 Z" id="Shape" fill="#000000" fill-rule="nonzero" opacity="0.1"></path>
                <path d="M52.9530679,96.8976288 C52.9530679,96.8976288 34.9025905,85.4081843 29.102236,90.1452718 L21.0349835,100.98437 C21.0349835,100.98437 15.8759755,102.674467 16.8279113,113.501522 L13,133.120291 L24.6007091,136.167282 C24.6007091,136.167282 31.3691339,142.935697 25.8874358,152.747088 C25.8874358,152.747088 42.969843,167.632784 56.5066926,164.589807 L55.5305551,148.684433 C55.5305551,148.684433 52.6263442,139.888706 57.7853522,131.767411 C62.9443601,123.646116 58.1080423,115.866051 53.2717244,112.81906 C53.2717244,112.81906 51.0209609,99.9606778 52.9530679,96.8976288 Z" id="Shape" fill="#FFDD00" fill-rule="nonzero"></path>
                <path d="M75.1672404,158.186736 C75.1672404,158.186736 81.4140359,156.973872 86.0276822,160.730218 C87.3689804,161.863615 88.8468115,162.803411 90.4223381,163.524908 C91.6616529,164.084997 92.2902376,165.554217 91.8699021,166.908367 C91.7938218,167.136792 91.6889483,167.353318 91.5581191,167.552088 C89.9212582,169.930715 86.6995004,172.344668 80.63829,170.119121 C70.2380994,166.315673 75.1672404,158.186736 75.1672404,158.186736 Z" id="Shape" fill="#DB8B8B" fill-rule="nonzero"></path>
                <path d="M39.6159765,106.115133 C39.6159765,106.115133 33.8123493,108.170859 39.4937949,124.514083 C45.1752404,140.857307 44.5719686,145.548783 44.5719686,145.548783 C44.5719686,145.548783 46.8628741,154.351712 52.3457745,157.579321 C57.8286749,160.80693 68.8173847,168 68.8173847,168 C68.8173847,168 76.6828268,166.784714 74.6706481,158.581537 L58.2104924,145.221287 C58.2104924,145.221287 54.1135898,139.855091 55.5377694,134.035135 C56.961949,128.21518 46.8323287,98.977303 39.6159765,106.115133 Z" id="Shape" fill="#000000" fill-rule="nonzero" opacity="0.1"></path>
                <path d="M41.0470035,103.98629 C41.0470035,103.98629 35.0323361,105.716928 39.9039446,122.502127 C44.775553,139.287325 43.9124268,143.985907 43.9124268,143.985907 C43.9124268,143.985907 45.7514299,152.985224 51.1518003,156.553919 C56.5521707,160.122614 67.3218079,168 67.3218079,168 C67.3218079,168 75.3854279,167.236132 73.7913661,158.849501 L57.8040924,144.439454 C57.8040924,144.439454 53.9161368,138.797972 55.6929325,133.025201 C57.4697282,127.252429 48.7645955,97.2228778 41.0470035,103.98629 Z" id="Shape" fill="#FFDD00" fill-rule="nonzero"></path>
                <path d="M47.945133,116 C47.945133,116 48.5213275,126.632638 45.9392557,132.482626 C43.3571839,138.332614 43.3499815,145.873233 45.9392557,150" id="Shape" fill="#000000" fill-rule="nonzero" opacity="0.1"></path>
                <path d="M50,100 C50,100 47.5009777,97.6482903 40.3128666,97.3517097 C33.1247556,97.0551291 30,95 30,95" id="Shape" fill="#000000" fill-rule="nonzero" opacity="0.1"></path>
                <path d="M32.4345901,56.3775778 C30.5455479,56.6289887 28.3805346,57.3313432 27.7080978,59.2508459 C27.459335,59.957191 27.4515612,60.7353678 27.2766499,61.4656568 C26.5731177,64.4027754 23.5180001,65.7715684 21.6367318,68.0183045 C19.9731309,70.0136296 19.2423903,72.6833746 18.690448,75.2972505 C17.1396172,82.8050772 16.7656581,90.5188869 17.5826763,98.1477137 C18.1890355,103.734624 19.4250755,109.217777 19.7710112,114.82065 C20.1169469,120.423523 19.4833792,126.317714 16.6614768,131.026681 C15.4487583,133.049941 13.8434612,134.829771 13,137.056553 C14.7802085,138.620888 17.2367406,138.844365 19.5339092,138.928168 C22.2055175,139.023944 24.8771258,139.023944 27.5487341,138.928168 C28.9480246,138.87629 30.4095058,138.776524 31.6183373,138.010319 C32.5233783,137.379518 33.2586923,136.524379 33.7561422,135.524144 C35.2875879,132.730688 35.6685059,129.338636 35.5985413,126.082265 C35.5285768,122.825895 35.0582597,119.585487 35.0038429,116.325125 C34.9727475,114.549286 35.1010158,112.661709 36.0455369,111.209112 C36.7257476,110.159571 37.7635547,109.453226 38.6458851,108.603217 C41.9614261,105.410697 43.1119539,100.294683 43.2246745,95.48595 C43.3373951,90.6772164 42.5988807,85.8605016 42.9759117,81.0677307 C43.1236146,79.1921251 43.7727299,76.9374077 45.4752,76.5742585 C46.0115947,76.4585297 46.5790847,76.5742585 47.0960448,76.3507821 C48.46424,75.7801192 48.3281978,73.6930091 48.7207765,72.1645901 C49.1599983,70.4486105 50.5126457,69.1237146 50.8896768,67.3758098 C51.7875549,63.3053466 47.0027588,58.4487252 43.8660159,57.0320444 C40.7292731,55.6153636 35.8006611,55.9306249 32.4345901,56.3775778 Z" id="Shape" fill="#000000" fill-rule="nonzero" opacity="0.1"></path>
                <path d="M32.4602262,55.3707705 C30.5752233,55.6222021 28.4064983,56.3246145 27.7380024,58.2442754 C27.4853731,58.9506786 27.4775999,59.7289196 27.3065893,60.4592687 C26.603114,63.3966293 23.5482433,64.7655351 21.6632403,67.0124563 C20.0036604,69.0079458 19.2690923,71.6779107 18.7171945,74.292002 C17.1632724,81.7999767 16.788016,89.5147397 17.6056257,97.1443478 C18.2080494,102.731718 19.447876,108.215324 19.7937838,113.818658 C20.1396916,119.421993 19.5061751,125.316669 16.6845006,130.026024 C15.4679935,132.04945 13.8589395,133.829427 13,136.056393 C14.7800646,137.620857 17.2363984,137.844352 19.5294947,137.928162 C22.2008872,138.023946 24.8722797,138.023946 27.5436722,137.928162 C28.9428496,137.87628 30.4080993,137.776505 31.6168332,137.010237 C32.5199193,136.377193 33.2547046,135.52253 33.7544654,134.523857 C35.2819008,131.730172 35.6666745,128.33784 35.5967157,125.081201 C35.5267568,121.824562 35.0564777,118.583887 35.0020653,115.343212 C34.9709724,113.567226 35.103117,111.679493 36.0436751,110.226777 C36.7277174,109.17715 37.7615541,108.470746 38.6476998,107.620668 C41.962973,104.427885 43.1095212,99.3114494 43.2222327,94.5023197 C43.3349442,89.69319 42.6003761,84.8760783 42.9734901,80.0829125 C43.121181,78.2071524 43.7508109,75.9522492 45.4725765,75.5890702 C46.0128144,75.4733318 46.576372,75.5890702 47.0932903,75.3655753 C48.4613749,74.7948653 48.3292304,72.7075833 48.7178908,71.1790383 C49.157077,69.4629174 50.5096152,68.1379123 50.8905024,66.3898635 C51.7844214,62.3190649 47.0038984,57.4620435 43.867409,56.0452459 C40.7309196,54.6284484 35.8182521,54.9197898 32.4602262,55.3707705 Z" id="Shape" fill="#472727" fill-rule="nonzero"></path>
            </g>
        </g>
    </g>
</svg>