<?xml version="1.0" encoding="UTF-8"?>
<svg width="807px" height="165px" viewBox="0 0 807 165" version="1.1" xmlns="http://www.w3.org/2000/svg" xmlns:xlink="http://www.w3.org/1999/xlink">
    <!-- Generator: Sketch 52.2 (67145) - http://www.bohemiancoding.com/sketch -->
    <title>Group</title>
    <desc>Created with Sketch.</desc>
    <g id="Page-1" stroke="none" stroke-width="1" fill="none" fill-rule="evenodd">
        <g id="Group">
            <g id="tl-logo">
                <path d="M-0.000257733361,92.81 L2.55351296e-15,78 C0.00218030904,76.9422472 0.292585134,75.9050871 0.84,75 C1.51196131,73.9628644 2.46120914,73.1348708 3.58,72.61 L33.73,56.9 C36.4539877,55.5800973 39.3189932,54.5736551 42.27,53.9 C40.67,53.5 39.16,53.06 37.75,52.6 C36.3717592,52.1373182 35.0339146,51.5620451 33.75,50.88 L3.58,35.26 C2.46120914,34.7351292 1.51196131,33.9071356 0.84,32.87 C0.280672197,31.9443862 -0.0101674209,30.8814366 2.55351296e-15,29.8 L-0.000257733361,15 L65.77,49.7 L65.77,58.08 L-0.000257733361,92.81 Z" id="arrow" fill="#FB1D5C"></path>
                <path d="M75.4,88.33 C75.391602,86.6176959 75.7141826,84.9199032 76.35,83.33 C76.9572239,81.8330119 77.8582997,80.4728975 79,79.33 C80.1566641,78.1925485 81.5125163,77.2773483 83,76.63 C84.5792211,75.9533298 86.2819997,75.6127741 88,75.63 C89.6847773,75.622265 91.3529819,75.9627149 92.9,76.63 C94.3967969,77.2602653 95.7556963,78.1775225 96.9,79.33 C98.0383752,80.4756103 98.9389815,81.835016 99.55,83.33 C100.223889,84.9100836 100.564327,86.6122733 100.55,88.33 C100.568989,90.0481655 100.228361,91.7513045 99.55,93.33 C98.9176553,94.8136013 98.0195775,96.1691905 96.9,97.33 C95.755906,98.4702348 94.3961052,99.3711029 92.9,99.98 C91.3502121,100.638422 89.6838527,100.978495 88,100.98 C86.2832142,100.984551 84.5829751,100.644503 83,99.98 C81.5092326,99.3610366 80.1512819,98.4613942 79,97.33 C77.8445437,96.1984036 76.9414534,94.8352484 76.35,93.33 C75.7119858,91.7407391 75.3893227,90.0425123 75.4,88.33 Z" id="point" fill="#FB1D5C"></path>
                <polygon id="Path" fill="#FB1D5C" points="178 17.2 145.45 17.2 145.45 0 229.89 0 229.89 17.2 197.35 17.2 197.35 100.35 178 100.35"></polygon>
                <path d="M240.74,71.25 C241.92,79.99 249.69,86.25 262.29,86.25 C268.89,86.25 277.54,83.81 281.65,79.66 L293.08,90.66 C285.46,98.49 273,102.21 262,102.21 C237.08,102.21 222.27,87.21 222.27,64.51 C222.27,43.01 237.22,27.51 260.68,27.51 C284.87,27.51 299.97,42.14 297.19,71.24 L240.74,71.25 Z M280,56.77 C278.86,47.59 271.53,43 261.27,43 C251.59,43 243.67,47.58 241.04,56.76 L280,56.77 Z" id="Shape" fill="#FB1D5C" fill-rule="nonzero"></path>
                <path d="M373.72,91.32 C365.36,99.32 356.56,102.5 345.86,102.5 C324.86,102.5 307.45,90.17 307.45,65.08 C307.45,39.99 324.9,27.67 345.86,27.67 C356.12,27.67 364.04,30.54 371.96,38.13 L360.67,49.74 C356.659489,46.1915543 351.504663,44.2070172 346.15,44.15 C334.15,44.15 325.34,52.76 325.34,65.08 C325.34,78.56 334.72,85.73 345.86,85.73 C351.58,85.73 357.3,84.15 361.69,79.85 L373.72,91.32 Z" id="Path" fill="#FB1D5C"></path>
                <path d="M403.77,0 L403.77,39.28 C410.22,31.11 418.14,28.67 426.35,28.67 C446.87,28.67 455.96,42.29 455.96,63.08 L455.96,100.35 L438.08,100.35 L438.08,63.22 C438.08,50.32 431.19,44.87 421.66,44.87 C411.1,44.87 403.77,53.62 403.77,64.22 L403.77,100.35 L385.89,100.35 L385.89,0 L403.77,0 Z" id="Path" fill="#FB1D5C"></path>
                <polygon id="Path" fill="#454545" points="495.26 0 495.26 82.86 548 82.86 548 100.35 475.9 100.35 475.9 0"></polygon>
                <path d="M617.23,29.67 L634.39,29.67 L634.39,100.35 L617.53,100.35 L616.65,90 C612.54,98.31 601.25,102.33 593.19,102.47 C571.78,102.64 556,89.74 556,64.94 C556,40.57 572.57,27.81 593.68,27.94 C603.36,27.94 612.59,32.39 616.68,39.41 L617.23,29.67 Z M573.84,64.94 C573.84,78.42 583.37,86.44 595.24,86.44 C623.39,86.44 623.39,43.58 595.24,43.58 C583.37,43.58 573.84,51.47 573.84,64.94 Z" id="Shape" fill="#454545" fill-rule="nonzero"></path>
                <path d="M671.62,0.14 L671.62,39.28 C675.88,32 687.75,28 695.37,28 C716.49,28 732.17,40.62 732.17,65 C732.17,88.22 716.17,102 694.93,102 C686.14,102 677.19,99.13 671.62,90.67 L670.45,100.42 L653.74,100.42 L653.74,0.14 L671.62,0.14 Z M672.8,64.94 C672.8,77.7 682.47,85.73 693.8,85.73 C705.24,85.73 714.33,77.27 714.33,64.94 C714.33,52.18 705.24,44.3 693.8,44.3 C682.47,44.3 672.8,52.61 672.8,64.94 Z" id="Shape" fill="#454545" fill-rule="nonzero"></path>
                <path d="M792.72,48.45 C787.59,43.72 781.72,42.15 774.83,42.15 C766.33,42.15 761.64,44.73 761.64,49.15 C761.64,53.57 765.89,56.32 775.13,56.89 C788.76,57.75 806.06,60.76 806.06,79.54 C806.06,92.02 795.65,102.77 774.98,102.77 C763.55,102.77 752.11,100.9 741.55,90.15 L750.35,77.68 C757.24,84.68 767.21,87.43 775.27,87.57 C782.02,87.71 788.32,84.99 788.32,79.83 C788.32,74.96 784.22,72.23 773.95,71.66 C760.32,70.66 744.05,65.78 744.05,49.72 C744.05,33.38 761.35,27.65 774.54,27.65 C785.83,27.65 794.33,29.8 802.69,36.97 L792.72,48.45 Z" id="Path" fill="#454545"></path>
            </g>
            <path d="M503,135.837796 L493.264151,135.837796 L493.264151,165 L488.735849,165 L488.735849,135.837796 L479,135.837796 L479,132 L503,132 L503,135.837796 Z M510,139.457926 L513.852602,139.457926 L513.973753,144.164384 C515.411419,142.349632 516.828871,141.035229 518.226153,140.221135 C519.623435,139.407041 521.032811,139 522.454323,139 C524.974277,139 526.884405,139.856482 528.184766,141.569472 C529.485126,143.282461 530.086837,145.826467 529.989916,149.201566 L525.7254,149.201566 C525.773861,146.962807 525.46291,145.338883 524.792538,144.329746 C524.122165,143.320608 523.140852,142.816047 521.848568,142.816047 C521.283194,142.816047 520.71379,142.922047 520.140339,143.134051 C519.566888,143.346055 518.977292,143.685255 518.371534,144.151663 C517.765776,144.618071 517.123682,145.215913 516.445233,145.945205 C515.766784,146.674498 515.039886,147.55642 514.264515,148.590998 L514.264515,165 L510,165 L510,139.457926 Z M553.043478,164.55 L552.942029,161.175 C551.555549,162.525007 550.147954,163.499997 548.719203,164.1 C547.290452,164.700003 545.789863,165 544.217391,165 C542.763278,165 541.520537,164.816669 540.48913,164.45 C539.457724,164.083331 538.608095,163.57917 537.940217,162.9375 C537.27234,162.29583 536.782006,161.541671 536.469203,160.675 C536.156399,159.808329 536,158.866672 536,157.85 C536,155.333321 536.951077,153.362507 538.853261,151.9375 C540.755444,150.512493 543.566407,149.8 547.286232,149.8 L552.561594,149.8 L552.561594,147.6 C552.561594,146.116659 552.079715,144.929171 551.115942,144.0375 C550.152169,143.145829 548.681169,142.7 546.702899,142.7 C545.265693,142.7 543.849645,142.858332 542.45471,143.175 C541.059776,143.491668 539.618365,143.941664 538.130435,144.525 L538.130435,140.6 C538.688409,140.399999 539.309779,140.204168 539.994565,140.0125 C540.679351,139.820832 541.40217,139.650001 542.163043,139.5 C542.923917,139.349999 543.718595,139.229167 544.547101,139.1375 C545.375608,139.045833 546.212556,139 547.057971,139 C548.596626,139 549.983086,139.166665 551.217391,139.5 C552.451697,139.833335 553.495769,140.341663 554.349638,141.025 C555.203507,141.708337 555.858693,142.566661 556.315217,143.6 C556.771741,144.633339 557,145.849993 557,147.25 L557,164.55 L553.043478,164.55 Z M552,153 L546.816631,153 C545.800279,153 544.924666,153.105049 544.189765,153.315152 C543.454865,153.525254 542.852881,153.82424 542.383795,154.212121 C541.91471,154.600002 541.56681,155.064644 541.340085,155.606061 C541.113361,156.147477 541,156.757572 541,157.436364 C541,157.905053 541.070362,158.353533 541.211087,158.781818 C541.351813,159.210103 541.578534,159.589897 541.891258,159.921212 C542.203982,160.252527 542.610516,160.515151 543.110874,160.709091 C543.611232,160.903031 544.221034,161 544.940299,161 C545.87847,161 546.953441,160.705053 548.165245,160.115152 C549.377049,159.52525 550.655288,158.591926 552,157.315152 L552,153 Z M583,163.715116 C581.898545,164.151811 580.768761,164.475128 579.610614,164.685078 C578.452467,164.895027 577.257892,165 576.026854,165 C572.171762,165 569.203548,163.916678 567.122123,161.75 C565.040697,159.583322 564,156.417333 564,152.251938 C564,150.25322 564.299656,148.439285 564.898977,146.810078 C565.498298,145.18087 566.340574,143.786828 567.425831,142.627907 C568.511088,141.468986 569.806898,140.574616 571.313299,139.944767 C572.819701,139.314919 574.479957,139 576.294118,139 C577.557551,139 578.739977,139.092376 579.841432,139.277132 C580.942887,139.461887 581.995732,139.76421 583,140.184109 L583,144.366279 C581.947139,143.795217 580.874046,143.379523 579.780691,143.119186 C578.687335,142.858849 577.557551,142.728682 576.391304,142.728682 C575.306047,142.728682 574.281548,142.942827 573.317775,143.371124 C572.354002,143.799421 571.507676,144.416663 570.778772,145.222868 C570.049868,146.029074 569.474853,147.011622 569.053708,148.170543 C568.632564,149.329463 568.421995,150.639528 568.421995,152.100775 C568.421995,155.157638 569.13874,157.446052 570.572251,158.966085 C572.005762,160.486119 573.99402,161.246124 576.537084,161.246124 C577.687133,161.246124 578.800719,161.111758 579.877877,160.843023 C580.955035,160.574288 581.995732,160.171191 583,159.633721 L583,163.715116 Z M614,165 L608.303065,165 L597.14756,151.673744 L597.14756,165 L593,165 L593,130 L597.14756,130 L597.14756,151.500354 L607.897843,140.130927 L613.38025,140.130927 L602.153235,151.599434 L614,165 Z M669.84778,137.126582 C668.613102,136.468351 667.344615,135.957808 666.042283,135.594937 C664.739951,135.232066 663.319247,135.050633 661.780127,135.050633 C660.021133,135.050633 658.456666,135.362866 657.086681,135.987342 C655.716695,136.611817 654.562373,137.493665 653.623679,138.632911 C652.684985,139.772158 651.966176,141.143452 651.46723,142.746835 C650.968285,144.350219 650.718816,146.122353 650.718816,148.063291 C650.718816,150.088618 650.921774,151.902946 651.327696,153.506329 C651.733617,155.109713 652.36786,156.468349 653.230444,157.582278 C654.093028,158.696208 655.196611,159.54852 656.541226,160.139241 C657.885842,160.729961 659.496819,161.025316 661.374207,161.025316 C661.695562,161.025316 662.042281,161.008439 662.414376,160.974684 C662.786471,160.940928 663.158561,160.894515 663.530655,160.835443 C663.90275,160.776371 664.262155,160.704642 664.608879,160.620253 C664.955604,160.535865 665.264269,160.443038 665.534884,160.341772 L665.534884,149.810127 L658.761099,149.810127 L658.761099,146.088608 L670,146.088608 L670,163 C669.30655,163.320677 668.575057,163.607594 667.805497,163.860759 C667.035937,164.113925 666.249475,164.324894 665.446089,164.493671 C664.642702,164.662448 663.843556,164.789029 663.048626,164.873418 C662.253696,164.957806 661.484147,165 660.739958,165 C658.473562,165 656.431299,164.645573 654.613108,163.936709 C652.794917,163.227845 651.247364,162.177222 649.970402,160.78481 C648.69344,159.392398 647.712477,157.658238 647.027484,155.582278 C646.342491,153.506319 646,151.101279 646,148.367089 C646,145.649775 646.380546,143.215201 647.141649,141.063291 C647.902752,138.911382 648.972509,137.088615 650.350951,135.594937 C651.729394,134.101258 653.386882,132.962029 655.323467,132.177215 C657.260052,131.392401 659.395337,131 661.729387,131 C663.217766,131 664.634243,131.1308 665.978858,131.392405 C667.323474,131.65401 668.613102,132.071727 669.84778,132.64557 L669.84778,137.126582 Z M696,164.542074 L692.133829,164.542074 L691.98513,160.420744 C691.241632,161.302679 690.535319,162.036201 689.866171,162.621331 C689.197023,163.206461 688.532015,163.677102 687.871128,164.033268 C687.21024,164.389434 686.545233,164.639595 685.876084,164.783757 C685.206936,164.92792 684.500623,165 683.757125,165 C681.196187,165 679.263121,164.228318 677.957869,162.684932 C676.652616,161.141545 676,158.809539 676,155.688845 L676,139 L680.312268,139 L680.312268,155.332681 C680.312268,159.250509 681.749676,161.209393 684.624535,161.209393 C685.153245,161.209393 685.669556,161.128833 686.173482,160.96771 C686.677409,160.806588 687.20611,160.526747 687.759603,160.12818 C688.313097,159.729613 688.907886,159.191132 689.54399,158.51272 C690.180094,157.834308 690.894668,156.977826 691.687732,155.943249 L691.687732,139 L696,139 L696,164.542074 Z M712.198758,143.585657 L704.819876,143.585657 L704.819876,140 L716.571429,140 L716.571429,161.389442 L724,161.389442 L724,165 L704,165 L704,161.389442 L712.198758,161.389442 L712.198758,143.585657 Z M714,129 C714.42336,129 714.817516,129.089415 715.182482,129.268248 C715.547447,129.447081 715.864962,129.698295 716.135036,130.021898 C716.405111,130.3455 716.616788,130.715935 716.770073,131.133212 C716.923358,131.550489 717,132.00608 717,132.5 C717,132.976888 716.923358,133.428222 716.770073,133.854015 C716.616788,134.279807 716.405111,134.6545 716.135036,134.978102 C715.864962,135.301705 715.547447,135.552919 715.182482,135.731752 C714.817516,135.910585 714.42336,136 714,136 C713.57664,136 713.182484,135.910585 712.817518,135.731752 C712.452553,135.552919 712.135038,135.301705 711.864964,134.978102 C711.594889,134.6545 711.383212,134.279807 711.229927,133.854015 C711.076642,133.428222 711,132.976888 711,132.5 C711,132.00608 711.076642,131.550489 711.229927,131.133212 C711.383212,130.715935 711.594889,130.3455 711.864964,130.021898 C712.135038,129.698295 712.452553,129.447081 712.817518,129.268248 C713.182484,129.089415 713.57664,129 714,129 Z M730,152.446541 C730,150.29978 730.287556,148.392042 730.862676,146.72327 C731.437796,145.054499 732.255276,143.645708 733.315141,142.496855 C734.375005,141.348003 735.648467,140.475894 737.135563,139.880503 C738.62266,139.285112 740.27816,138.987421 742.102113,138.987421 C742.890849,138.987421 743.66725,139.037735 744.431338,139.138365 C745.195426,139.238994 745.947179,139.398322 746.68662,139.616352 L746.68662,129 L751,129 L751,164.54717 L747.15493,164.54717 L747.007042,159.767296 C745.807506,161.545082 744.509397,162.861631 743.112676,163.716981 C741.715955,164.572331 740.204233,165 738.577465,165 C737.164312,165 735.919606,164.698116 734.84331,164.09434 C733.767013,163.490563 732.871482,162.639418 732.15669,161.540881 C731.441898,160.442343 730.903758,159.121601 730.542254,157.578616 C730.180749,156.035632 730,154.324957 730,152.446541 Z M735,152.74359 C735,155.854716 735.428853,158.175206 736.286573,159.705128 C737.144293,161.23505 738.35871,162 739.92986,162 C740.987981,162 742.106207,161.495732 743.284569,160.487179 C744.462932,159.478627 745.701396,157.982916 747,156 L747,144.051282 C746.310618,143.7094 745.549102,143.448719 744.715431,143.269231 C743.881759,143.089743 743.056116,143 742.238477,143 C739.961912,143 738.186379,143.786317 736.911824,145.358974 C735.637268,146.931632 735,149.393146 735,152.74359 Z M780,150.675 C780,151.29167 779.99177,151.808331 779.975309,152.225 C779.958848,152.641669 779.934157,153.033331 779.901235,153.4 L762.493827,153.4 C762.493827,155.966679 763.201639,157.937493 764.617284,159.3125 C766.032929,160.687507 768.074061,161.375 770.740741,161.375 C771.465024,161.375 772.189297,161.345834 772.91358,161.2875 C773.637864,161.229166 774.337445,161.150001 775.012346,161.05 C775.687246,160.949999 776.33333,160.837501 776.950617,160.7125 C777.567904,160.587499 778.139915,160.450001 778.666667,160.3 L778.666667,163.875 C777.497937,164.208335 776.176962,164.479166 774.703704,164.6875 C773.230445,164.895834 771.703712,165 770.123457,165 C767.999989,165 766.172847,164.708336 764.641975,164.125 C763.111103,163.541664 761.855972,162.695839 760.876543,161.5875 C759.897114,160.479161 759.172842,159.120841 758.703704,157.5125 C758.234566,155.904159 758,154.083343 758,152.05 C758,150.283325 758.251026,148.612508 758.753086,147.0375 C759.255147,145.462492 759.98765,144.079173 760.950617,142.8875 C761.913585,141.695827 763.094643,140.750004 764.493827,140.05 C765.893011,139.349996 767.481473,139 769.259259,139 C770.987663,139 772.518512,139.274997 773.851852,139.825 C775.185192,140.375003 776.308637,141.154162 777.222222,142.1625 C778.135807,143.170838 778.827158,144.395826 779.296296,145.8375 C779.765434,147.279174 780,148.891658 780,150.675 Z M775.988348,151 C776.037546,149.820676 775.930951,148.742579 775.668559,147.765677 C775.406167,146.788774 775.000285,145.948298 774.450901,145.244224 C773.901518,144.54015 773.216848,143.990101 772.396873,143.594059 C771.576897,143.198018 770.62574,143 769.543372,143 C768.6086,143 767.755838,143.193617 766.985061,143.580858 C766.214284,143.968099 765.550114,144.513748 764.992531,145.217822 C764.434947,145.921896 763.983967,146.766772 763.639578,147.752475 C763.295188,148.738179 763.081998,149.820676 763,151 L775.988348,151 Z M807,157.7 C807,158.583338 806.852524,159.374996 806.557568,160.075 C806.262612,160.775004 805.86115,161.395831 805.353169,161.9375 C804.845189,162.479169 804.255286,162.941665 803.583441,163.325 C802.911596,163.708335 802.1947,164.024999 801.43273,164.275 C800.670759,164.525001 799.888318,164.708333 799.085382,164.825 C798.282445,164.941667 797.495907,165 796.725744,165 C795.054325,165 793.518118,164.925001 792.117076,164.775 C790.716034,164.624999 789.343689,164.383335 788,164.05 L788,160.05 C789.442008,160.466669 790.875801,160.783332 792.301423,161 C793.727045,161.216668 795.144452,161.325 796.553687,161.325 C798.601994,161.325 800.117718,161.041669 801.100906,160.475 C802.084093,159.908331 802.575679,159.100005 802.575679,158.05 C802.575679,157.599998 802.497845,157.195835 802.342173,156.8375 C802.186502,156.479165 801.90384,156.137502 801.494179,155.8125 C801.084517,155.487498 800.449552,155.150002 799.589263,154.8 C798.728974,154.449998 797.553263,154.050002 796.062096,153.6 C794.947817,153.266665 793.919582,152.887502 792.977361,152.4625 C792.03514,152.037498 791.219926,151.533336 790.531695,150.95 C789.843464,150.366664 789.302719,149.683337 788.909444,148.9 C788.516169,148.116663 788.319534,147.191672 788.319534,146.125 C788.319534,145.424996 788.4793,144.658337 788.798836,143.825 C789.118372,142.991663 789.663213,142.21667 790.433376,141.5 C791.20354,140.78333 792.244064,140.187502 793.554981,139.7125 C794.865897,139.237498 796.504518,139 798.470893,139 C799.437693,139 800.51099,139.054166 801.690815,139.1625 C802.87064,139.270834 804.099606,139.458332 805.377749,139.725 L805.377749,143.6 C804.03406,143.266665 802.760032,143.020834 801.555627,142.8625 C800.351223,142.704166 799.306602,142.625 798.421734,142.625 C797.356614,142.625 796.459469,142.708333 795.730272,142.875 C795.001074,143.041667 794.411171,143.270832 793.960543,143.5625 C793.509916,143.854168 793.186288,144.195831 792.989651,144.5875 C792.793013,144.979169 792.694696,145.399998 792.694696,145.85 C792.694696,146.300002 792.780724,146.708331 792.952781,147.075 C793.124839,147.441669 793.44437,147.795832 793.911384,148.1375 C794.378398,148.479168 795.02975,148.820832 795.865459,149.1625 C796.701168,149.504168 797.790851,149.874998 799.134541,150.275 C800.592935,150.708336 801.821901,151.162498 802.821475,151.6375 C803.821049,152.112502 804.632166,152.641664 805.254851,153.225 C805.877537,153.808336 806.324061,154.466663 806.594437,155.2 C806.864814,155.933337 807,156.766662 807,157.7 Z" id="Track-Guides" fill="#464646"></path>
        </g>
    </g>
</svg>