<?xml version="1.0" encoding="UTF-8"?>
<svg width="1151px" height="864px" viewBox="0 0 1151 864" version="1.1" xmlns="http://www.w3.org/2000/svg" xmlns:xlink="http://www.w3.org/1999/xlink">
    <!-- Generator: Sketch 51.3 (57544) - http://www.bohemiancoding.com/sketch -->
    <title>undraw_content_vbqo</title>
    <desc>Created with Sketch.</desc>
    <defs>
        <linearGradient x1="50.0005261%" y1="100%" x2="50.0005261%" y2="0%" id="linearGradient-1">
            <stop stop-color="#808080" stop-opacity="0.25" offset="0%"></stop>
            <stop stop-color="#808080" stop-opacity="0.12" offset="54%"></stop>
            <stop stop-color="#808080" stop-opacity="0.1" offset="100%"></stop>
        </linearGradient>
        <linearGradient x1="50.0236433%" y1="99.9948155%" x2="50.0236433%" y2="-0.0255496052%" id="linearGradient-2">
            <stop stop-color="#808080" stop-opacity="0.25" offset="0%"></stop>
            <stop stop-color="#808080" stop-opacity="0.12" offset="54%"></stop>
            <stop stop-color="#808080" stop-opacity="0.1" offset="100%"></stop>
        </linearGradient>
        <linearGradient x1="45.2606224%" y1="100.101185%" x2="53.1520444%" y2="-1.05136561%" id="linearGradient-3">
            <stop stop-color="#808080" stop-opacity="0.25" offset="0%"></stop>
            <stop stop-color="#808080" stop-opacity="0.12" offset="54%"></stop>
            <stop stop-color="#808080" stop-opacity="0.1" offset="100%"></stop>
        </linearGradient>
    </defs>
    <g id="Page-1" stroke="none" stroke-width="1" fill="none" fill-rule="evenodd">
        <g id="undraw_content_vbqo">
            <ellipse id="Oval" fill="#FB1D5C" fill-rule="nonzero" opacity="0.1" cx="1030.0142" cy="835.07" rx="100.722561" ry="24.73"></ellipse>
            <ellipse id="Oval" fill="#FB1D5C" fill-rule="nonzero" opacity="0.1" cx="140.896888" cy="839.19" rx="100.722561" ry="24.73"></ellipse>
            <path d="M688.929843,233.87 C688.929843,233.87 674.77375,228.16 629.759991,248.69 C584.746233,269.22 579.091844,266.6 567.46111,263.46 C555.830376,260.32 549.35097,259.58 536.814729,242.46 C536.814729,242.46 528.001128,194.98 519.479301,187.62 C510.957474,180.26 474.70701,191.81 474.70701,191.81 C474.70701,191.81 431.252736,201.72 422.972378,144 C422.972378,144 428.848112,100.49 420.849467,87.14 C420.849467,87.14 436.947369,94.07 463.649764,82.89 C490.352159,71.71 511.631573,94.89 511.631573,94.89 C511.631573,94.89 518.352448,112.19 517.668287,122.5 C516.984126,132.81 521.219886,136.68 533.937229,131.7 C533.937229,131.7 540.175166,122.87 531.331381,108.28 C522.487596,93.69 516.179231,82.81 518.654283,71.48 C521.129336,60.15 528.212413,44.48 551.011066,36.58 C573.80972,28.68 604.778059,27.2 619.648497,21.05 C634.518934,14.9 638.110778,10.9 638.110778,10.9 C638.110778,10.9 628.945035,20.04 650.526285,58.65 C672.107535,97.26 658.343829,114.03 658.343829,114.03 C658.343829,114.03 646.874073,141.19 596.266294,139.03 C596.266294,139.03 547.499712,140.8 574.131678,161.36 C574.131678,161.36 591.165271,157.91 616.620079,149.87 C642.074886,141.83 660.456678,175.02 665.014397,198.12 C669.572115,221.22 688.929843,233.87 688.929843,233.87 Z" id="Shape" fill="#FB1D5C" fill-rule="nonzero"></path>
            <path d="M623.361075,40.21 L623.632727,40.14 C625.584598,47.51 603.782002,77.14 585.158741,100.67 L584.937395,100.5 C611.227281,67.29 624.880315,45.88 623.361075,40.21 Z" id="Shape" fill="#444053" fill-rule="nonzero"></path>
            <path d="M585.329781,100.01 L585.440455,100.31 C570.559956,119.12 551.846145,141.56 536.865035,158.18 C535.436346,159.77 534.017719,161.43 532.649397,163.13 L532.226827,162.78 C533.595149,161.08 535.023837,159.41 536.452526,157.78 C551.423575,141.21 570.459344,118.81 585.329781,100.01 Z" id="Shape" fill="#444053" fill-rule="nonzero"></path>
            <path d="M532.58903,162.34 L532.880804,162.84 C505.614983,196.67 503.81403,249.2 503.703357,249.66 L497.948357,243.06 C498.069091,242.6 505.132045,196.4 532.58903,162.34 Z" id="Shape" fill="#444053" fill-rule="nonzero"></path>
            <path d="M657.307526,215.52 C657.307526,215.52 625.111722,198.91 600.109668,204.87 C575.107614,210.83 518.614038,183.81 518.614038,183.81 C518.614038,183.81 494.658348,174.13 489.8491,163.11 C489.8491,163.11 473.419178,145.85 472.483488,136.91 C471.547797,127.97 455.550507,105.51 445.117054,104.64" id="Shape" stroke="#444053"></path>
            <path d="M652.659257,231.51 C652.659257,231.51 636.440621,220.67 638.352247,208.04" id="Shape" stroke="#444053"></path>
            <path d="M627.818182,245.52 C627.818182,245.52 604.677448,237.16 602.343252,204.41" id="Shape" stroke="#444053"></path>
            <path d="M590.460988,254 C590.460988,254 568.326372,235.75 575.681101,203.87" id="Shape" stroke="#444053"></path>
            <path d="M545.567963,245.08 C545.567963,245.08 530.828322,214.37 543.938051,194.39" id="Shape" stroke="#444053"></path>
            <path d="M657.689851,195.28 C657.689851,195.28 640.937972,200.56 644.529816,209.28" id="Shape" stroke="#444053"></path>
            <path d="M637.44674,165.07 C637.44674,165.07 615.040472,172.14 614.507229,203.64" id="Shape" stroke="#444053"></path>
            <path d="M606.257054,157.8 C606.257054,157.8 585.873086,182.8 587.372203,205.55" id="Shape" stroke="#444053"></path>
            <path d="M570.519712,167.61 C570.519712,167.61 550.266538,186.85 552.852264,197.56" id="Shape" stroke="#444053"></path>
            <path d="M558.305428,160.81 C558.305428,160.81 539.309904,164.2 536.65375,158" id="Shape" stroke="#444053"></path>
            <path d="M533.625332,138.02 C533.625332,138.02 543.223706,150.65 545.698759,147.82" id="Shape" stroke="#444053"></path>
            <path d="M628.753872,130.03 C628.753872,130.03 580.882736,133.46 570.036774,119.14" id="Shape" stroke="#444053"></path>
            <path d="M523.554082,74.37 C523.554082,74.37 546.020717,122.3 562.329904,128.37" id="Shape" stroke="#444053"></path>
            <path d="M547.117386,51.54 C547.117386,51.54 560.921337,95.63 578.015297,109.39" id="Shape" stroke="#444053"></path>
            <path d="M648.906434,93.65 C648.906434,93.65 612.494991,109.18 590.632028,93.47" id="Shape" stroke="#444053" stroke-width="0.75"></path>
            <path d="M579.554659,42.14 C579.554659,42.14 587.875262,74.55 599.083427,82.38" id="Shape" stroke="#444053" stroke-width="0.75"></path>
            <path d="M643.402963,57.35 C643.402963,57.35 622.948566,65.05 615.302063,59.15" id="Shape" stroke="#444053" stroke-width="0.75"></path>
            <path d="M516.098741,148.61 C516.098741,148.61 516.098741,176.86 508.361687,178.87" id="Shape" stroke="#444053"></path>
            <path d="M452.844047,185.21 C452.844047,185.21 483.570918,187.83 497.747133,172.07" id="Shape" stroke="#444053"></path>
            <path d="M508.170524,115.24 C508.170524,115.24 500.735306,143.89 480.220542,151.61" id="Shape" stroke="#444053"></path>
            <path d="M434.411949,155.03 C434.411949,155.03 456.16424,162.55 474.86799,143.41" id="Shape" stroke="#444053"></path>
            <path d="M483.983427,90.61 C483.983427,90.61 481.971189,114.94 468.619991,126.33" id="Shape" stroke="#444053"></path>
            <path d="M435.216844,117.95 C435.216844,117.95 453.266617,118.08 457.492316,112.23" id="Shape" stroke="#444053"></path>
            <path d="M595.592194,138.46 C523.755306,150.37 451.807745,143.96 382.546521,135.08 C313.285297,126.2 244.185052,114.86 172.197247,117.08 C125.915778,118.52 74.4326748,127.56 42.4079108,155.3 C11.6005507,181.99 7.19375,218.48 7.48552448,251.48 C7.70687063,276.3 10.0511276,302.01 26.963986,321.97 C38.7053934,335.82 56.6545542,345.88 70.2270979,358.69 C117.514685,403.27 104.103121,472.33 74.1610227,530.81 C60.0753584,558.25 42.8606643,585.18 33.413208,613.31 C23.9657517,641.44 23.0300612,671.74 40.818243,695.03 C58.4655682,718.12 92.2208566,731.42 127.344467,738.55 C198.668234,753.02 277.829668,745.55 354.395315,735.16 C523.865979,712.05 691.44514,674.67 858.541364,637.36 C920.387491,623.56 982.505271,609.68 1042.00714,589.36 C1075.04809,578.1 1108.66252,563.93 1129.8212,541.52 C1156.67451,513.07 1156.91598,473.8 1130.38462,449.98 C1085.87392,409.98 986.298339,417.5 951.697911,371.98 C932.642019,346.98 940.399196,313.36 954.957736,283.81 C986.147421,220.41 1047.26914,158.16 1038.4656,94.45 C1032.42889,50.69 989.789572,14.05 933.145079,3.92 C873.784065,-6.69 797.91264,11.03 764.338453,54.54 C729.768208,99.46 659.017928,127.96 595.592194,138.46 Z" id="Shape" fill="#FB1D5C" fill-rule="nonzero" opacity="0.1"></path>
            <rect id="Rectangle-path" fill="url(#linearGradient-1)" fill-rule="nonzero" x="76.7568094" y="151.11" width="956.144956" height="538.33" rx="12.49"></rect>
            <rect id="Rectangle-path" fill="#FFFFFF" fill-rule="nonzero" x="78.276049" y="158.68" width="953.21715" height="528.97" rx="12.49"></rect>
            <rect id="Rectangle-path" fill="#FFFFFF" fill-rule="nonzero" x="78.276049" y="158.68" width="953.21715" height="528.97" rx="12.49"></rect>
            <rect id="Rectangle-path" fill="#5A5773" fill-rule="nonzero" opacity="0.04" x="78.276049" y="158.68" width="953.21715" height="528.97" rx="12.49"></rect>
            <path d="M1026.65377,152.61 L83.075236,152.61 C80.4024916,152.61 78.2358042,154.76351 78.2358042,157.42 L78.2358042,177.76 L1031.45312,177.76 L1031.45295,157.46 C1031.46367,156.184296 1030.96406,154.956613 1030.06402,154.047052 C1029.16399,153.137491 1027.93728,152.620565 1026.65377,152.61 Z" id="Shape" fill="#5A5773" fill-rule="nonzero"></path>
            <g id="83eb5f8b-b68b-4721-b047-6100bc74156f" transform="translate(90.550699, 158.000000)" fill="#FFFFFF" fill-rule="nonzero">
                <ellipse id="Oval" cx="6.76111888" cy="7.18" rx="6.53977273" ry="6.5"></ellipse>
                <ellipse id="Oval" cx="24.3681993" cy="7.18" rx="6.53977273" ry="6.5"></ellipse>
                <ellipse id="Oval" cx="41.9752797" cy="7.18" rx="6.53977273" ry="6.5"></ellipse>
            </g>
            <rect id="Rectangle-path" fill="#FFFFFF" fill-rule="nonzero" x="142.084108" y="294.86" width="794.833916" height="392.78" rx="10.19"></rect>
            <rect id="Rectangle-path" fill="#5A5773" fill-rule="nonzero" opacity="0.2" x="108.379126" y="204.45" width="228.630455" height="23.85" rx="3.86"></rect>
            <rect id="Rectangle-path" fill="#FB1D5C" fill-rule="nonzero" opacity="0.2" x="539.501066" y="340.45" width="228.630455" height="23.85" rx="3.86"></rect>
            <rect id="Rectangle-path" fill="#FB1D5C" fill-rule="nonzero" opacity="0.2" x="539.501066" y="407.23" width="357.001163" height="23.85" rx="3.86"></rect>
            <rect id="Rectangle-path" fill="#FB1D5C" fill-rule="nonzero" opacity="0.2" x="539.501066" y="446.23" width="357.001163" height="23.85" rx="3.86"></rect>
            <rect id="Rectangle-path" fill="#FB1D5C" fill-rule="nonzero" opacity="0.2" x="539.501066" y="485.23" width="357.001163" height="23.85" rx="3.86"></rect>
            <rect id="Rectangle-path" fill="#FB1D5C" fill-rule="nonzero" opacity="0.2" x="539.501066" y="524.23" width="357.001163" height="23.85" rx="3.86"></rect>
            <rect id="Rectangle-path" fill="#FB1D5C" fill-rule="nonzero" opacity="0.2" x="185.17618" y="567.23" width="711.326049" height="23.85" rx="3.86"></rect>
            <rect id="Rectangle-path" fill="#FB1D5C" fill-rule="nonzero" opacity="0.2" x="185.17618" y="606.23" width="711.326049" height="23.85" rx="3.86"></rect>
            <rect id="Rectangle-path" fill="#FB1D5C" fill-rule="nonzero" opacity="0.2" x="185.17618" y="645.23" width="711.326049" height="23.85" rx="3.86"></rect>
            <path d="M733.7625,661 C733.7625,661 739.728785,668.75 731.005734,680.46 C722.282684,692.17 715.098995,702.05 718.006678,709.35 C718.006678,709.35 731.156652,687.61 741.871818,687.35 C752.586984,687.09 745.544152,674.07 733.7625,661 Z" id="Shape" fill="#FB1D5C" fill-rule="nonzero"></path>
            <path d="M733.7625,661 C734.282057,661.748598 734.691955,662.566776 734.979904,663.43 C745.433479,675.63 750.997316,687.02 740.95625,687.3 C731.599344,687.57 720.371058,704.2 717.68472,708.39 C717.769083,708.730209 717.876651,709.064315 718.006678,709.39 C718.006678,709.39 731.156652,687.65 741.871818,687.39 C752.586984,687.13 745.544152,674.07 733.7625,661 Z" id="Shape" fill="#000000" fill-rule="nonzero" opacity="0.1"></path>
            <path d="M744.84993,670.88 C744.84993,673.61 744.548094,675.82 744.165769,675.82 C743.783444,675.82 743.481608,673.61 743.481608,670.88 C743.481608,668.15 743.863934,669.44 744.246259,669.44 C744.628584,669.44 744.84993,668.15 744.84993,670.88 Z" id="Shape" fill="#FFD037" fill-rule="nonzero"></path>
            <path d="M748.663121,674.14 C746.248435,675.44 744.145647,676.23 743.964545,675.9 C743.783444,675.57 745.594458,674.24 747.989021,672.9 C750.383584,671.56 749.447893,672.54 749.628995,672.9 C749.810096,673.26 751.067745,672.83 748.663121,674.14 Z" id="Shape" fill="#FFD037" fill-rule="nonzero"></path>
            <path d="M702.250857,661 C702.250857,661 696.284572,668.75 704.997561,680.46 C713.710551,692.17 720.914362,702.05 718.006678,709.35 C718.006678,709.35 704.846643,687.61 694.141538,687.35 C683.436434,687.09 690.469205,674.07 702.250857,661 Z" id="Shape" fill="#FB1D5C" fill-rule="nonzero"></path>
            <path d="M702.250857,661 C701.72525,661.746519 701.311761,662.565099 701.023392,663.43 C690.579878,675.63 685.01604,687.02 695.057107,687.3 C704.414012,687.57 715.632238,704.2 718.318575,708.39 C718.237616,708.729997 718.133409,709.064106 718.006678,709.39 C718.006678,709.39 704.846643,687.65 694.141538,687.39 C683.436434,687.13 690.469205,674.07 702.250857,661 Z" id="Shape" fill="#000000" fill-rule="nonzero" opacity="0.1"></path>
            <path d="M691.153365,670.88 C691.153365,673.61 691.465262,675.82 691.847587,675.82 C692.229913,675.82 692.531748,673.61 692.531748,670.88 C692.531748,668.15 692.149423,669.46 691.777159,669.46 C691.404895,669.46 691.153365,668.15 691.153365,670.88 Z" id="Shape" fill="#FFD037" fill-rule="nonzero"></path>
            <path d="M687.350236,674.14 C689.764921,675.44 691.86771,676.23 692.048811,675.9 C692.229913,675.57 690.418899,674.24 688.024336,672.9 C685.629773,671.56 686.565463,672.54 686.384362,672.9 C686.20326,673.26 684.935551,672.83 687.350236,674.14 Z" id="Shape" fill="#FFD037" fill-rule="nonzero"></path>
            <ellipse id="Oval" fill="#FB1D5C" fill-rule="nonzero" opacity="0.1" cx="718.006678" cy="759.15" rx="62.3793706" ry="9.51"></ellipse>
            <path d="M750.132054,698.9 L749.830219,701.32 L749.41771,704.74 L749.236608,706.17 L748.8241,709.59 L748.642998,711.02 L748.220428,714.43 L743.451425,753.33 C743.018794,756.8 737.3141,759.51 730.371879,759.51 L705.601233,759.51 C698.709318,759.51 693.014685,756.8 692.592115,753.33 L687.80299,714.46 L687.390481,711.05 L687.209379,709.62 L686.786809,706.2 L686.615769,704.77 L686.193199,701.35 L685.891364,698.93 C685.659956,696.93 688.748741,695.31 692.642421,695.31 L743.370935,695.31 C747.264615,695.28 750.3534,696.93 750.132054,698.9 Z" id="Shape" fill="#65617D" fill-rule="nonzero"></path>
            <polygon id="Shape" fill="#9D9CB5" fill-rule="nonzero" points="749.810096 701.32 749.397587 704.74 686.615769 704.74 686.193199 701.32"></polygon>
            <polygon id="Shape" fill="#9D9CB5" fill-rule="nonzero" points="749.216486 706.16 748.803977 709.58 687.209379 709.58 686.786809 706.16"></polygon>
            <polygon id="Shape" fill="#9D9CB5" fill-rule="nonzero" points="748.622876 711.01 748.200306 714.43 687.80299 714.43 687.390481 711.01"></polygon>
            <rect id="Rectangle-path" fill="#FB1D5C" fill-rule="nonzero" opacity="0.2" x="185.17618" y="327.22" width="303.847902" height="221.54" rx="8.5"></rect>
            <path d="M1131.93405,573.61 C1132.31637,572.61 1129.47912,566.89 1129.47912,566.61 C1129.47912,566.33 1126.55131,563.16 1126.55131,561.39 C1126.55131,559.62 1122.67775,555.79 1122.67775,555.79 C1122.67775,555.79 1117.47612,553.65 1116.91269,548.98 C1116.34927,544.31 1110.68482,544.23 1110.67476,544.23 C1110.67476,544.23 1110.67476,543.81 1110.67476,543.16 C1110.78948,541.31613 1110.55398,539.467273 1109.98053,537.71 C1109.31274,536.42085 1108.15894,535.446627 1106.77101,535 C1106.77101,535 1106.19753,531.36 1105.07067,530.24 C1103.79313,528.910787 1103.29164,527.02276 1103.7426,525.24 C1104.31608,523.48 1102.98801,519 1100.25136,518.34 C1097.51472,517.68 1094.38569,516.66 1094.38569,516.66 L1093.6311,516.79 L1093.25884,516.66 C1092.59422,516.786386 1091.92207,516.869894 1091.2466,516.91 C1090.66873,516.926885 1090.10303,516.742999 1089.64687,516.39 C1088.70112,515.39 1081.04455,513.39 1079.58568,513.39 C1078.12681,513.39 1074.10233,511.52 1074.10233,511.52 C1074.10233,511.52 1071.26508,509.38 1070.07786,508.44 C1068.89064,507.5 1066.82809,504.09 1066.5162,503.57 L1066.5162,503.5 C1066.16968,502.705818 1065.88381,501.886837 1065.661,501.05 C1067.04437,499.611418 1068.22553,497.993407 1069.17235,496.24 C1069.27296,496.06 1069.36351,495.88 1069.45406,495.69 C1069.66198,495.690177 1069.86879,495.659851 1070.0678,495.6 L1070.31933,495.5 C1071.2812,495.003429 1072.00507,494.147257 1072.33156,493.12 C1072.40252,492.916535 1072.46297,492.709598 1072.51267,492.5 C1072.51267,492.43 1072.51267,492.36 1072.51267,492.29 L1072.60322,491.87 C1072.59838,491.790072 1072.59838,491.709928 1072.60322,491.63 L1072.66358,491.21 L1072.66358,490.97 C1072.66358,490.79 1072.66358,490.62 1072.73401,490.44 C1072.79493,489.768593 1072.89233,489.100952 1073.02579,488.44 C1073.58921,485.91 1075.12858,483.77 1076.20512,481.44 C1076.35604,481.11 1076.50696,480.77 1076.63775,480.44 C1076.76855,480.11 1076.89934,479.69 1077.01002,479.31 L1077.10057,478.96 C1077.171,478.68 1077.23136,478.4 1077.29173,478.12 C1077.3521,477.84 1077.29173,477.87 1077.36216,477.74 C1077.42253,477.36 1077.47283,476.97 1077.51308,476.57 C1077.6923,474.338696 1077.34788,472.096504 1076.50696,470.02 C1075.80267,468.27 1074.74625,466.69 1074.03191,464.94 C1072.9453,462.29 1072.65352,459.28 1071.33551,456.75 C1069.11587,452.510087 1064.13122,450.494477 1059.56392,451.99 C1057.55168,452.75 1055.72054,454.22 1053.63788,454.88 C1050.84087,455.77 1047.86275,455.1 1044.96513,454.71 C1042.06751,454.32 1038.92842,454.27 1036.55398,456.15 C1033.8777,458.31 1033.1533,462.37 1030.638,464.74 C1029.63188,465.74 1028.27362,466.37 1027.15683,467.29 C1026.37164,467.915361 1025.76752,468.736656 1025.40618,469.67 L1025.34581,469.86 C1025.31982,469.941824 1025.29965,470.025363 1025.28545,470.11 C1025.26296,470.202228 1025.24616,470.295736 1025.23514,470.39 C1025.22968,470.453217 1025.22968,470.516783 1025.23514,470.58 C1025.21501,470.746066 1025.21501,470.913934 1025.23514,471.08 C1025.24875,471.237971 1025.27228,471.394942 1025.30557,471.55 L1025.30557,471.68 C1025.30557,471.81 1025.376,471.94 1025.4263,472.07 C1025.47661,472.2 1025.4263,472.12 1025.4263,472.14 C1025.4263,472.16 1025.53698,472.43 1025.59734,472.57 L1025.68789,472.78 C1025.68789,472.84 1025.68789,472.9 1025.76838,472.95 C1026.12805,473.644419 1026.42112,474.37096 1026.64371,475.12 C1026.76008,475.594768 1026.7285,476.093481 1026.55316,476.55 C1026.31453,477.069639 1025.97224,477.535718 1025.54704,477.92 C1023.66442,479.863047 1022.21134,482.175865 1021.28109,484.71 C1021.16707,485.003333 1021.06645,485.293333 1020.97926,485.58 L1021.11005,485.58 C1021.38047,485.656767 1021.65623,485.713588 1021.93507,485.75 C1022.09256,485.759212 1022.25046,485.759212 1022.40795,485.75 C1023.05525,485.788061 1023.70479,485.740987 1024.33969,485.61 L1024.82263,485.49 C1025.48002,485.319515 1026.11999,485.088517 1026.73426,484.8 C1026.73426,484.99 1026.73426,485.18 1026.73426,485.37 C1026.73426,485.56 1026.73426,485.58 1026.73426,485.69 C1026.7468,494.107177 1031.55192,501.791989 1039.1397,505.53 C1039.1397,505.73 1039.19001,505.93 1039.22019,506.13 L1039.28056,506.64 L1039.02903,506.4 C1039.02903,506.4 1037.32869,505.56 1035.7189,507.98 C1034.53821,509.567949 1032.9355,510.797301 1031.09075,511.53 C1031.09075,511.53 1013.88612,514.23 1013.22208,516.47 L1005.17313,516.94 C1005.17313,516.94 1002.33587,517.31 1002.05416,523.19 C1001.77245,529.07 1000.26327,529.62 1000.26327,529.62 C1000.26327,529.62 996.953138,535.41 997.244913,538.39 C997.317333,540.244316 996.327474,541.979592 994.689371,542.87 L994.317107,548.19 C994.317107,548.19 991.198138,547.72 990.292631,551.36 C989.932423,553.287404 989.126448,555.105226 987.938313,556.67 C987.938313,556.67 982.736678,560.97 982.454965,564.6 L979.235385,566.6 C979.235385,566.6 971.769983,564.92 970.069642,561.94 C970.069642,561.94 969.868418,561.74 969.54646,561.45 L969.54646,561.38 C968.429668,560.38 966.065288,558.14 966.427491,558.65 C966.649837,559.117877 966.703136,559.647627 966.578409,560.15 L966.025044,559.54 L964.535988,557.9 C964.535988,557.9 952.462561,546.66 945.419729,545.77 C945.329178,545.59 944.866364,543.77 943.659021,544.92 C941.638384,546.764697 940.482447,549.362787 940.469082,552.089726 C940.455717,554.816664 941.586133,557.425825 943.588593,559.29 L954.897369,569.78 L955.189143,569.99 L957.61389,573.09 C957.201381,574.09 956.859301,575.01 956.607771,575.87 L956.607771,575.96 L956.42667,576.5 C956.405259,576.558622 956.38844,576.618801 956.376364,576.68 C956.315997,576.86 956.265691,577.03 956.215385,577.2 L956.124834,577.5 C956.124834,577.56 956.124834,577.62 956.124834,577.68 C955.853182,578.62 955.682142,579.34 955.601652,579.74 L954.967797,579.54 L955.58153,579.81 L955.58153,579.9 C955.58153,580.03 955.58153,580.1 955.58153,580.1 L956.165079,580.35 C959.47521,581.78 975.995682,588.99 976.840822,590.08 C977.685962,591.17 984.02451,594.84 989.699021,591.85 C995.373531,588.86 996.590935,584.3 996.590935,584.3 C996.590935,584.3 1002.07428,576.74 1002.26545,575.62 C1002.45661,574.5 1006.70243,573.2 1006.70243,573.2 C1006.70243,573.2 1007.08476,585.69 1004.91154,590.27 C1002.73832,594.85 998.673601,615.08 998.673601,615.08 C998.940575,615.04252 999.211523,615.04252 999.478497,615.08 L999.237028,616.25 C999.569519,616.188199 999.910656,616.188199 1000.24315,616.25 C999.941311,618.55 998.230909,629.25 998.230909,629.25 C998.230909,629.25 997.667483,634.1 996.721731,635.78 C995.775979,637.46 995.715612,646.23 995.715612,646.23 L994.196372,652.57 C994.196372,652.57 994.397596,653.01 994.76986,653.66 C995.78812,655.817939 997.272083,657.726481 999.116294,659.25 C998.995017,660.24668 998.737771,661.222307 998.351643,662.15 C997.764512,663.567977 997.506588,665.099276 997.597054,666.63 C997.597054,666.63 995.997325,673.81 996.178427,675.86 C996.359528,677.91 995.172308,682.95 995.172308,682.95 L993.471967,699.18 C993.471967,699.18 992.345114,713.26 992.90854,717.09 C993.178903,720.09368 993.050358,723.119662 992.526215,726.09 C992.526215,726.09 993.663129,737.19 993.381416,738.4 C993.099703,739.61 991.681075,744.84 992.526215,747.73 C993.371355,750.62 992.90854,758.55 992.90854,758.55 C992.90854,758.55 993.471967,769 994.136005,772.36 C994.490711,774.903396 994.426144,777.487241 993.944843,780.01 C993.944843,780.01 993.280804,787.19 992.999091,787.19 C992.717378,787.19 990.262448,792.13 995.262858,796.98 C1000.26327,801.83 997.164423,801.08 997.164423,801.08 C997.164423,801.08 993.139948,799.08 993.663129,803.14 C994.105822,806.95 994.729615,805.96 994.789983,805.85 L993.844231,808.92 L994.508269,809.01 L993.964965,809.66 C993.395307,810.387379 992.755013,811.057273 992.053339,811.66 C991.317419,812.374758 990.879201,813.338687 990.825874,814.36 C990.825874,814.36 983.833348,821.92 977.313698,825.74 C973.882832,827.74 970.924843,829.45 969.63701,830.87 C968.469913,832.13 968.630892,833.15 971.07576,833.95 C976.176783,835.63 985.161425,836.47 991.580463,834.32 C995.42671,833.055552 998.888069,830.843434 1001.64165,827.89 C1001.64165,827.89 1005.66613,825.83 1009.6906,826.58 C1013.71508,827.33 1021.60305,822.2 1021.60305,822.2 L1021.45213,820.88 L1021.03962,817.06 C1020.50146,816.413061 1020.26062,815.571613 1020.37559,814.74 C1020.42478,813.610045 1020.313,812.478852 1020.04357,811.38 C1019.97314,811.01 1019.90271,810.64 1019.83228,810.3 L1020.55669,810.16 C1020.55669,810.16 1019.621,805.41 1021.32134,804.47 C1023.02168,803.53 1022.53874,791.32 1022.53874,791.32 C1022.53874,791.32 1020.37559,788.52 1019.23867,788.06 C1018.10176,787.6 1019.13806,781.8 1019.33928,781.06 C1019.54051,780.32 1021.03962,765.85 1021.03962,765.85 C1021.03962,765.85 1020.46614,761.29 1021.22073,759.33 C1021.97531,757.37 1020.27497,749.81 1020.27497,749.81 C1019.95224,749.098587 1020.14554,748.260619 1020.74785,747.76 C1021.75397,746.64 1021.41189,736.66 1021.41189,736.66 C1021.41189,736.66 1021.32134,731.66 1021.32134,730.31 C1021.32134,728.96 1022.44819,724.25 1023.49455,722.67 C1024.54092,721.09 1023.86682,716.14 1023.86682,716.14 L1023.92719,715.77 C1023.92719,715.63 1023.92719,715.45 1024.00767,715.24 L1024.08816,714.74 C1024.54937,712.007127 1025.16746,709.30271 1025.93942,706.64 C1027.16689,702.73 1028.58552,695.83 1028.58552,695.83 L1037.36893,673.05 L1037.46955,672.78 C1037.46955,672.78 1041.49402,680.24 1041.49402,687.15 C1041.49402,687.15 1042.50014,695.45 1042.25867,697.69 C1042.0172,699.93 1042.91265,710.46 1042.91265,710.46 C1042.91265,710.46 1044.14011,725.57 1044.14011,726.22 C1044.14011,726.87 1045.65935,738.53 1046.6051,740.31 C1047.55086,742.09 1045.65935,747.49 1045.08587,748.05 C1044.51238,748.61 1045.27703,762.32 1045.27703,762.32 C1045.27703,762.32 1043.8584,773.14 1043.57669,775.38 C1043.29497,777.62 1042.15806,786.2 1043.10381,789.56 C1044.04956,792.92 1043.66724,793.38 1043.66724,793.38 C1043.66724,793.38 1047.07798,796.84 1045.08587,797.12 C1043.62352,797.438 1042.3699,798.366759 1041.64554,799.668801 C1040.92118,800.970844 1040.79631,802.519939 1041.30286,803.92 C1042.48732,807.333703 1043.8783,810.673126 1045.46819,813.92 L1047.03774,813.59 L1047.03774,814.7 L1047.14841,820.26 C1047.14841,820.26 1047.81245,825.57 1047.43012,826.79 C1047.15847,827.67 1046.77615,831.85 1046.59504,834.04 C1046.52462,834.84 1046.48437,835.37 1046.48437,835.37 C1046.48437,835.37 1046.48437,840.31 1056.97819,838.82 C1067.47201,837.33 1069.35345,833.22 1069.35345,833.22 L1069.43394,832.71 C1069.58486,831.77 1069.92694,829.77 1070.20865,828.65 C1070.58092,827.16 1067.1903,820.44 1067.1903,820.44 C1067.1903,820.44 1066.62687,815.87 1065.68112,814.85 C1065.28403,814.245979 1065.02318,813.563694 1064.91647,812.85 C1064.83598,812.47 1064.75549,812.08 1064.69512,811.7 C1064.93183,811.727743 1065.16692,811.767798 1065.39941,811.82 C1065.39941,811.82 1064.82592,808.56 1067.0092,807.53 C1069.19247,806.5 1068.60892,804.36 1068.32721,803.43 C1068.0455,802.5 1069.17235,797.27 1069.17235,797.27 C1068.84602,796.208259 1069.1363,795.054197 1069.92694,794.27 C1071.25502,792.96 1072.29132,783.82 1072.29132,783.82 L1072.48248,748.56 C1072.48248,748.56 1073.14652,742.31 1072.39193,739.79 C1071.63734,737.27 1070.88275,732.42 1071.91906,731.11 C1072.95536,729.8 1072.00961,723.75 1072.00961,723.75 C1072.00961,723.75 1072.00961,710.97 1073.42823,707.75 C1074.84686,704.53 1074.37399,684.52 1074.37399,684.52 L1074.74625,671.37 C1074.74625,671.37 1077.83503,668.47 1077.11063,653.37 C1080.40064,653.16 1084.15346,653.04 1084.67664,653.5 C1085.68276,654.34 1092.42376,658.63 1096.39793,655.92 C1098.03865,654.799702 1099.61409,653.587753 1101.11663,652.29 L1099.44647,624.29 C1100.45259,625.85 1101.11663,626.88 1101.11663,626.88 C1101.11663,622.97 1112.27448,610.28 1112.27448,610.28 C1112.27448,610.28 1122.66769,596.94 1124.93146,595.36 C1127.19523,593.78 1131.64227,585.36 1131.64227,585.36 C1132.29964,583.76014 1133.05912,582.203639 1133.9161,580.7 C1134.96247,579.11 1131.56178,574.63 1131.93405,573.61 Z M1107.55579,583.4 C1104.71853,583.68 1098.76231,590.12 1098.67176,591.52 C1098.46541,592.443323 1098.03348,593.301935 1097.41411,594.02 C1097.41411,593.46 1097.32356,592.89 1097.27325,592.31 C1096.60921,584.06 1095.88481,574.02 1096.26713,573.05 C1096.83056,571.37 1096.6394,563.81 1096.6394,563.81 L1096.75007,563.66 C1098.65163,569.52 1104.56761,576.42 1104.56761,576.42 C1104.56761,576.42 1105.57373,579.42 1106.84144,579.49 C1108.10915,579.56 1107.55579,583.4 1107.55579,583.4 Z" id="Shape" fill="url(#linearGradient-2)" fill-rule="nonzero"></path>
            <path d="M956.034283,581.27 C956.034283,581.27 959.485271,563.27 970.56264,563.27 L978.671958,579.84 L973.2691,583.54 C973.2691,583.54 961.527692,583.86 956.034283,581.27 Z" id="Shape" fill="#65617D" fill-rule="nonzero"></path>
            <path d="M978.671958,579.79 L973.2691,583.49 C973.2691,583.49 965.008864,583.75 959.102946,582.31 C958.049344,582.0782 957.021437,581.743231 956.034283,581.31 L956.09465,581.02 L956.09465,580.96 C956.599092,578.704045 957.299288,576.495783 958.187378,574.36 C958.529458,573.55 958.911783,572.72 959.334353,571.89 C960.954205,568.79 963.238094,565.74 966.377185,564.24 C967.527489,563.662401 968.783535,563.322235 970.069642,563.24 L970.56264,563.24 L970.743741,563.61 L973.480385,569.21 L978.671958,579.79 Z" id="Shape" fill="#000000" fill-rule="nonzero" opacity="0.1"></path>
            <path d="M1070.69159,654.4 C1070.69159,654.4 1082.33239,653.29 1083.35863,654.13 C1084.38487,654.97 1090.99507,659.22 1094.89881,656.53 C1098.80255,653.84 1096.20677,644.53 1096.20677,644.13 C1096.20677,643.73 1095.8345,630.52 1095.8345,630.52 L1088.85204,621.17 L1080.0988,604.79 L1062.21001,603.03 L1062.67282,629.03 L1062.58227,642.36 L1070.69159,654.4 Z" id="Shape" fill="#65617D" fill-rule="nonzero"></path>
            <path d="M1070.69159,654.4 C1070.69159,654.4 1082.33239,653.29 1083.35863,654.13 C1084.38487,654.97 1090.99507,659.22 1094.89881,656.53 C1098.80255,653.84 1096.20677,644.53 1096.20677,644.13 C1096.20677,643.73 1095.8345,630.52 1095.8345,630.52 L1088.85204,621.17 L1080.0988,604.79 L1062.21001,603.03 L1062.67282,629.03 L1062.58227,642.36 L1070.69159,654.4 Z" id="Shape" fill="#000000" fill-rule="nonzero" opacity="0.1"></path>
            <path d="M968.238505,562.76 C968.238505,562.76 967.302815,574.05 960.189554,574.24 C960.189554,574.24 958.177316,573.04 955.480918,571.03 C949.263103,566.4 939.383016,557.51 942.119659,549.24 C946.033462,537.39 965.028986,559.24 965.028986,559.24 L966.49792,560.87 L968.238505,562.76 Z" id="Shape" fill="#FBBEBE" fill-rule="nonzero"></path>
            <path d="M968.238505,562.76 C968.238505,562.76 967.302815,574.05 960.189554,574.24 C960.189554,574.24 958.177316,573.04 955.480918,571.03 L954.877247,570.26 C956.082784,570.871204 957.408387,571.212536 958.760865,571.26 C960.937541,571.344896 962.940192,570.082938 963.79146,568.09 C964.554179,566.635748 965.226193,565.136251 965.803698,563.6 C966.136311,562.70332 966.375674,561.775146 966.518042,560.83 L968.238505,562.76 Z" id="Shape" fill="#000000" fill-rule="nonzero" opacity="0.1"></path>
            <path d="M965.159781,583.22 L963.570114,581.22 L958.2075,574.36 L955.480918,570.85 C956.682466,571.462241 958.005037,571.803676 959.354476,571.85 C961.533519,571.943675 963.540781,570.678811 964.38507,568.68 C965.132185,567.22869 965.787436,565.732448 966.347002,564.2 C967.232386,561.7 967.212264,560.42 966.900367,559.98 C966.58847,559.54 968.912605,561.66 969.979091,562.7 L970.492212,563.18 L970.683374,563.56 L973.490446,568.96 C973.496573,569.036546 973.496573,569.113454 973.490446,569.19 C973.69167,570.89 974.597177,581.68 965.159781,583.22 Z" id="Shape" fill="#E7EFFD" fill-rule="nonzero"></path>
            <path d="M1020.95913,821.46 C1020.95913,821.46 1013.13153,826.56 1009.21773,825.81 C1006.50735,825.471018 1003.75628,825.922688 1001.29957,827.11 C998.608632,830.038186 995.211947,832.237249 991.429545,833.5 C985.090997,835.63 976.247212,834.79 971.216617,833.13 C968.842177,832.34 968.651014,831.32 969.79799,830.07 C970.944965,828.82 973.983444,826.98 977.364003,824.98 C983.793103,821.18 990.685017,813.69 990.685017,813.69 C990.728559,812.673338 991.160307,811.711387 991.89236,811 C992.584663,810.396972 993.214911,809.727009 993.773802,809 C994.779921,807.83 995.715612,806.6 995.715612,806.6 L1018.7658,807.46 C1018.7658,807.46 1019.15818,809.11 1019.47008,810.8 C1019.73226,811.889787 1019.84062,813.010531 1019.79204,814.13 C1019.6772,814.956897 1019.91417,815.793963 1020.44601,816.44 L1020.85852,820.22 L1020.95913,821.46 Z" id="Shape" fill="#65617D" fill-rule="nonzero"></path>
            <path d="M1069.07174,827.88 C1068.80009,828.99 1068.45801,830.97 1068.30709,831.88 C1068.30709,832.19 1068.23666,832.39 1068.23666,832.39 C1068.23666,832.39 1066.37534,836.46 1056.03244,837.94 C1045.68954,839.42 1045.6996,834.52 1045.6996,834.52 L1045.80021,833.19 C1045.98131,831.03 1046.35358,826.88 1046.62523,826 C1046.99749,824.8 1046.35358,819.52 1046.35358,819.52 L1046.2429,814 L1046.16241,810.17 L1063.26643,808.41 C1063.37646,809.682967 1063.56123,810.948457 1063.8198,812.2 C1063.91932,812.913953 1064.17705,813.597049 1064.57439,814.2 C1065.50002,815.2 1066.06344,819.75 1066.06344,819.75 C1066.06344,819.75 1069.47419,826.4 1069.07174,827.88 Z" id="Shape" fill="#65617D" fill-rule="nonzero"></path>
            <path d="M1018.7658,807.46 C1018.7658,807.46 1019.15818,809.11 1019.47008,810.8 C1016.98497,811.25 1006.11888,813.12 1003.37218,811.8 C1000.29345,810.32 993.683252,809.49 993.683252,809.49 L993.793925,809.11 C994.800044,807.94 995.735734,806.71 995.735734,806.71 L1018.7658,807.46 Z" id="Shape" fill="#000000" fill-rule="nonzero" opacity="0.1"></path>
            <path d="M1063.88017,812.23 C1059.54379,811.5 1050.01585,813.23 1046.27309,814.03 L1046.1926,810.2 L1063.29662,808.44 C1063.41661,809.713562 1063.61146,810.979057 1063.88017,812.23 Z" id="Shape" fill="#000000" fill-rule="nonzero" opacity="0.1"></path>
            <path d="M1073.56909,671.9 L1073.20689,684.9 C1073.20689,684.9 1073.6697,704.8 1072.2712,707.9 C1070.87269,711 1070.87269,723.73 1070.87269,723.73 C1070.87269,723.73 1071.80838,729.73 1070.78214,731.04 C1069.7559,732.35 1070.50043,737.15 1071.24496,739.65 C1071.98948,742.15 1071.33551,748.35 1071.33551,748.35 L1071.15441,783.35 C1071.15441,783.35 1070.14829,792.42 1068.82021,793.72 C1068.04304,794.511817 1067.75814,795.659798 1068.07568,796.72 C1068.07568,796.72 1066.95889,801.9 1067.2406,802.83 C1067.52232,803.76 1068.07568,805.88 1065.94271,806.9 C1063.80974,807.92 1064.35304,811.16 1064.35304,811.16 C1059.2319,809.95 1044.70354,813.16 1044.70354,813.16 C1043.13524,809.942041 1041.76441,806.632652 1040.59858,803.25 C1040.09124,801.862193 1040.21017,800.324407 1040.92493,799.029962 C1041.63968,797.735517 1042.88096,796.809953 1044.33128,796.49 C1046.28315,796.22 1042.93277,792.79 1042.93277,792.79 C1042.93277,792.79 1043.30503,792.33 1042.36934,788.99 C1041.43365,785.65 1042.56051,777.14 1042.84222,774.92 C1043.12393,772.7 1044.51238,761.92 1044.51238,761.92 C1044.51238,761.92 1043.76785,748.31 1044.33128,747.76 C1044.8947,747.21 1046.74596,741.83 1045.82033,740.08 C1044.8947,738.33 1043.39559,726.75 1043.39559,726.08 C1043.39559,725.41 1042.18824,710.43 1042.18824,710.43 C1042.18824,710.43 1041.07145,699.97 1041.35316,697.75 C1041.63488,695.53 1040.59858,687.29 1040.59858,687.29 C1040.59858,680.44 1036.5741,673.03 1036.5741,673.03 L1036.47349,673.3 L1027.82087,696.06 C1027.82087,696.06 1026.42236,702.91 1025.21502,706.8 C1024.45241,709.429308 1023.84436,712.100488 1023.39394,714.8 L1023.31345,715.3 L1023.23296,715.82 L1023.1726,716.19 C1023.1726,716.19 1023.81651,721.09 1022.79027,722.67 C1021.64732,725.059965 1020.92584,727.627284 1020.6573,730.26 C1020.6573,731.56 1020.74785,736.56 1020.74785,736.56 C1020.74785,736.56 1021.12011,746.46 1020.09387,747.56 C1019.51547,748.053924 1019.32788,748.864546 1019.63106,749.56 C1019.63106,749.56 1021.30122,757.06 1020.55669,759 C1019.81216,760.94 1020.37559,765.48 1020.37559,765.48 C1020.37559,765.48 1018.88653,779.83 1018.69537,780.57 C1018.5042,781.31 1017.48802,787.05 1018.60482,787.51 C1019.72161,787.97 1021.86464,790.75 1021.86464,790.75 C1021.86464,790.75 1022.32746,802.88 1020.6573,803.8 C1018.98714,804.72 1019.90271,809.45 1019.90271,809.45 C1019.90271,809.45 1006.40059,812.04 1003.33193,810.56 C1000.26327,809.08 993.643007,808.25 993.643007,808.25 L994.568636,805.25 C994.508269,805.36 993.894537,806.35 993.461906,802.56 C992.98903,798.56 996.902832,800.56 996.902832,800.56 C996.902832,800.56 999.981556,801.3 995.041512,796.49 C990.101469,791.68 992.526215,786.77 992.807928,786.77 C993.089642,786.77 993.733558,779.64 993.733558,779.64 C994.209529,777.136891 994.274088,774.573644 993.92472,772.05 C993.270743,768.72 992.717378,758.35 992.717378,758.35 C992.717378,758.35 993.180192,750.48 992.335052,747.61 C991.489913,744.74 992.898479,739.61 993.180192,738.35 C993.461906,737.09 992.335052,726.13 992.335052,726.13 C992.860361,723.159788 992.988913,720.133652 992.717378,717.13 C992.153951,713.33 993.270743,699.35 993.270743,699.35 L994.950962,683.25 C994.950962,683.25 996.158304,678.25 995.95708,676.25 C995.755857,674.25 997.355586,667.09 997.355586,667.09 C997.26512,665.569955 997.519567,664.049139 998.100114,662.64 C999.035804,660.79 999.408068,654.64 999.408068,654.64 L1008.35247,634.28 L1012.72908,616.28 L1071.86875,615.72 C1071.86875,615.72 1072.08003,617.28 1072.44224,620.11 C1072.80444,622.94 1073.3075,627.11 1073.87093,632.3 C1074.38405,637 1074.94747,642.53 1075.50084,648.68 C1077.30179,668.38 1073.56909,671.9 1073.56909,671.9 Z" id="Shape" fill="#3F3D56" fill-rule="nonzero"></path>
            <path d="M1068.06562,509.81 L1054.29185,524.46 C1054.29185,524.46 1036.60428,517.46 1038.4656,515.01 C1039.17995,514.08 1039.06927,511.14 1038.65677,507.9 C1038.00279,502.77 1036.64453,496.9 1036.64453,496.9 C1036.64453,496.9 1067.56256,491.9 1064.94665,497.08 C1064.1144,499.034764 1064.04623,501.227902 1064.75549,503.23 C1065.50117,505.58378 1066.61848,507.804815 1068.06562,509.81 Z" id="Shape" fill="#FBBEBE" fill-rule="nonzero"></path>
            <path d="M1064.90641,497.03 C1063.96066,498.93 1063.5079,499.11 1064.10151,501.15 C1060.07704,505.46 1054.91565,510.15 1048.51673,510.15 C1045.09506,510.153943 1041.71941,509.366515 1038.65677,507.85 C1038.00279,502.72 1036.64453,496.85 1036.64453,496.85 C1036.64453,496.85 1067.52232,491.85 1064.90641,497.03 Z" id="Shape" fill="#000000" fill-rule="nonzero" opacity="0.1"></path>
            <path d="M1070.69159,487.59 C1070.69159,499.759594 1060.76582,509.625 1048.52176,509.625 C1036.2777,509.625 1026.35193,499.759594 1026.35193,487.59 C1026.35193,487.48 1026.35193,487.38 1026.35193,487.27 C1026.44084,475.103167 1036.43643,465.311634 1048.67771,465.4 C1060.91899,465.488366 1070.77044,475.423167 1070.68153,487.59 L1070.69159,487.59 Z" id="Shape" fill="#FBBEBE" fill-rule="nonzero"></path>
            <path d="M1073.90111,632.94 C1070.96324,632.94 1061.18377,633.04 1050.25732,633.22 L1050.12652,633.22 L1046.51455,633.28 L1046.40388,633.28 C1033.44507,633.48 1020.67742,630.97 1015.54622,631.44 C1004.64995,632.44 1019.46002,621.44 1019.46002,621.44 C1027.58025,623.393803 1035.9317,624.231608 1044.28097,623.93 L1047.42006,623.77 C1057.32027,623.21 1067.27079,622.29 1072.47242,620.77 C1072.83462,623.61 1073.33768,627.77 1073.90111,632.94 Z" id="Shape" fill="#000000" fill-rule="nonzero" opacity="0.1"></path>
            <path d="M1073.90111,632.38 C1070.96324,632.38 1061.18377,632.49 1050.25732,632.66 L1050.12652,632.66 L1046.51455,632.72 L1046.40388,632.72 C1033.44507,632.93 1020.67742,630.41 1015.54622,630.89 C1004.64995,631.89 1019.46002,620.89 1019.46002,620.89 C1027.57926,622.849558 1035.93151,623.687443 1044.28097,623.38 L1047.42006,623.22 C1057.32027,622.67 1067.27079,621.74 1072.47242,620.22 C1072.83462,623.05 1073.33768,627.21 1073.90111,632.38 Z" id="Shape" fill="#5F5D7E" fill-rule="nonzero"></path>
            <path d="M1042.56051,515.92 L1025.45649,523.92 L1012.22602,625.56 C1012.22602,625.56 1020.05363,622.04 1024.5208,624.26 C1028.98796,626.48 1042.77179,624.45 1042.77179,624.45 C1042.77179,624.45 1052.83298,623.89 1054.32204,625.01 C1055.81109,626.13 1073.32762,620.38 1073.32762,620.38 C1073.32762,620.38 1076.4969,613.38 1074.07215,612.23 C1071.6474,611.08 1074.81668,600.23 1074.81668,600.23 L1073.32762,526.91 L1070.30927,517.47 L1062.26031,512.65 L1054.07051,519.13 L1050.1567,519.69 L1042.56051,515.92 Z" id="Shape" fill="#000000" fill-rule="nonzero" opacity="0.1"></path>
            <path d="M1042.56051,514.81 L1025.45649,522.81 L1012.19584,624.46 C1012.19584,624.46 1020.02344,620.94 1024.49061,623.16 C1028.95778,625.38 1042.74161,623.35 1042.74161,623.35 C1042.74161,623.35 1052.8028,622.79 1054.29185,623.9 C1055.78091,625.01 1073.29744,619.28 1073.29744,619.28 C1073.29744,619.28 1076.46671,612.28 1074.04197,611.13 C1071.61722,609.98 1074.78649,599.13 1074.78649,599.13 L1073.29744,525.81 L1070.27908,516.37 L1062.23013,511.55 L1054.04032,518.03 L1050.12652,518.59 L1042.56051,514.81 Z" id="Shape" fill="#E7EFFD" fill-rule="nonzero"></path>
            <path d="M1042.27879,519.53 C1042.27879,519.53 1047.21884,525.36 1047.12829,526.53 C1047.03774,527.7 1046.84657,530.61 1046.84657,530.61 L1043.12393,538.1 C1043.12393,538.1 1041.1117,547.45 1041.1117,549.4 C1041.1117,551.35 1037.85187,568.19 1037.85187,568.19 L1033.85758,594.14 L1028.91753,628.14 L1033.94813,636.75 L1039.91441,631.75 L1047.83257,571.21 L1049.50273,559.27 C1049.50273,559.27 1051.2735,537.79 1051.2735,535.57 C1051.0836,532.870676 1050.74774,530.18346 1050.26738,527.52 C1050.26738,527.52 1051.48478,521.96 1056.51538,520.67 C1061.54597,519.38 1056.13305,520.39 1056.13305,520.39 L1053.25555,518.08 L1050.74025,519.08 C1050.74025,519.08 1043.76785,516.94 1042.27879,519.53 Z" id="Shape" fill="#000000" fill-rule="nonzero" opacity="0.1"></path>
            <path d="M1041.72543,518.97 C1041.72543,518.97 1046.65541,524.8 1046.56486,525.97 C1046.47431,527.14 1046.28315,530.04 1046.28315,530.04 L1042.56051,537.54 C1042.56051,537.54 1040.54827,546.89 1040.54827,548.83 C1040.54827,550.77 1037.28844,567.62 1037.28844,567.62 L1033.3847,593.54 L1028.44466,627.54 L1033.47525,636.15 L1039.43148,631.15 L1047.34963,570.61 L1049.02985,558.67 C1049.02985,558.67 1050.80062,537.19 1050.80062,534.97 C1050.61054,532.26738 1050.27469,529.576845 1049.7945,526.91 C1049.7945,526.91 1051.00184,521.36 1056.03244,520.06 C1061.06303,518.76 1055.66017,519.79 1055.66017,519.79 L1052.77261,517.47 L1050.25732,518.47 C1050.25732,518.47 1043.21448,516.38 1041.72543,518.97 Z" id="Shape" fill="#FB1D5C" fill-rule="nonzero"></path>
            <path d="M1038.4656,509.25 C1038.4656,509.25 1037.72108,509.81 1037.52991,513.51 C1037.33875,517.21 1034.7329,525.51 1034.7329,525.51 C1034.7329,525.51 1044.42183,518.85 1049.26126,519.59 L1038.4656,509.25 Z" id="Shape" fill="#000000" fill-rule="nonzero" opacity="0.1"></path>
            <path d="M1038.4656,508.14 C1038.4656,508.14 1037.72108,508.7 1037.52991,512.4 C1037.33875,516.1 1034.7329,524.4 1034.7329,524.4 C1034.7329,524.4 1044.42183,517.74 1049.26126,518.48 L1038.4656,508.14 Z" id="Shape" fill="#E7EFFD" fill-rule="nonzero"></path>
            <path d="M1064.91647,506.29 L1049.64358,519.62 C1049.64358,519.62 1062.49172,527.21 1064.17194,529.06 C1065.85216,530.91 1067.52232,510.92 1067.52232,510.92 L1064.91647,506.29 Z" id="Shape" fill="#000000" fill-rule="nonzero" opacity="0.1"></path>
            <path d="M1065.46983,505.18 L1050.19695,518.51 C1050.19695,518.51 1063.05515,526.1 1064.72531,527.95 C1066.39546,529.8 1068.07568,509.81 1068.07568,509.81 L1065.46983,505.18 Z" id="Shape" fill="#E7EFFD" fill-rule="nonzero"></path>
            <path d="M1039.01897,509.25 C1039.01897,509.25 1037.34881,508.42 1035.75914,510.83 C1034.59867,512.399267 1033.02006,513.614985 1031.20142,514.34 C1031.20142,514.34 1014.24832,517.03 1013.59434,519.25 L1005.67619,519.71 C1005.67619,519.71 1002.87918,520.08 1002.65783,525.92 C1002.43649,531.76 1000.88706,532.3 1000.88706,532.3 C1000.88706,532.3 997.627238,538.04 997.868706,541 C997.94215,542.836207 996.969413,544.557149 995.353409,545.45 L1006.9942,575.53 C1006.9942,575.53 1007.36647,587.94 1005.22344,592.47 C1003.0804,597 999.076049,617.1 999.076049,617.1 C999.076049,617.1 1000.75627,616.73 1000.65566,617.84 C1000.55504,618.95 998.643418,631.08 998.643418,631.08 C998.643418,631.08 998.079991,635.89 997.154362,637.56 C996.228733,639.23 996.148243,647.92 996.148243,647.92 L994.659187,654.22 C994.659187,654.22 998.190664,662.09 1003.59352,660.98 C1008.99638,659.87 1018.7658,638.85 1018.7658,638.85 L1025.00373,616.17 L1029.85323,593.77 L1031.25173,578.59 L1033.48531,544.98 L1036.74514,522.77 C1036.74514,522.77 1040.32692,510.83 1039.01897,509.25 Z" id="Shape" fill="#000000" fill-rule="nonzero" opacity="0.1"></path>
            <path d="M1038.4656,508.14 C1038.4656,508.14 1036.78538,507.31 1035.20578,509.72 C1034.04026,511.288497 1032.45871,512.503804 1030.638,513.23 C1030.638,513.23 1013.6849,515.92 1013.03092,518.14 L1005.12282,518.6 C1005.12282,518.6 1002.32581,518.97 1002.0441,524.8 C1001.76239,530.63 1000.27333,531.19 1000.27333,531.19 C1000.27333,531.19 997.013505,536.93 997.254974,539.89 C997.333165,541.727339 996.359123,543.45059 994.739677,544.34 L1006.42072,574.46 C1006.42072,574.46 1006.79298,586.87 1004.64995,591.4 C1002.50691,595.93 998.502561,616.03 998.502561,616.03 C998.502561,616.03 1000.18278,615.66 1000.09223,616.77 C1000.00168,617.88 998.079991,630 998.079991,630 C998.079991,630 997.526626,634.82 996.590935,636.48 C995.655245,638.14 995.584816,646.85 995.584816,646.85 L994.09576,653.15 C994.09576,653.15 997.637299,661.02 1003.04016,659.9 C1008.44302,658.78 1018.22249,637.78 1018.22249,637.78 L1024.46043,615.1 L1029.29986,592.7 L1030.638,577.46 L1032.87158,543.85 L1036.13141,521.64 C1036.13141,521.64 1039.7635,509.72 1038.4656,508.14 Z" id="Shape" fill="#65617D" fill-rule="nonzero"></path>
            <path d="M978.671958,579.79 L973.2691,583.49 C973.2691,583.49 965.008864,583.75 959.102946,582.31 L956.084589,580.98 L955.480918,580.72 L956.104712,580.92 C958.503261,581.769391 961.107504,581.860212 963.560052,581.18 C971.206556,578.62 970.361416,566.08 970.05958,563.24 C970.05958,562.95 970.009274,562.77 969.999213,562.7 L969.999213,562.77 C970.106583,562.940217 970.224176,563.103847 970.351355,563.26 L970.693435,563.62 L973.490446,568.96 C973.496573,569.036546 973.496573,569.113454 973.490446,569.19 L978.671958,579.79 Z" id="Shape" fill="#000000" fill-rule="nonzero" opacity="0.1"></path>
            <path d="M997.385769,543.6 L994.779921,544.34 L994.407657,549.61 C994.407657,549.61 991.389301,549.15 990.493855,552.76 C990.136127,554.673659 989.340975,556.480094 988.16972,558.04 C988.16972,558.04 983.048575,562.3 982.766862,565.91 L979.597587,567.85 C979.597587,567.85 972.242858,566.18 970.542517,563.22 C970.542517,563.22 973.902955,587.1 956.014161,581.22 C956.014161,581.22 976.035927,589.92 976.971617,591.13 C977.907308,592.34 984.014449,595.85 989.638654,592.89 C995.262858,589.93 996.440017,585.39 996.440017,585.39 C996.440017,585.39 1001.84288,577.89 1002.02398,576.78 C1002.20508,575.67 1006.40059,574.37 1006.40059,574.37 L1014.44955,555.12 L997.385769,543.6 Z" id="Shape" fill="#65617D" fill-rule="nonzero"></path>
            <path d="M1062.77344,517.4 L1065.46983,505.18 C1065.46983,505.18 1066.68724,509.18 1067.89458,510.09 L1071.91906,513.09 C1071.91906,513.09 1075.94353,514.94 1077.32191,514.94 C1078.7003,514.94 1086.26631,516.94 1087.19194,517.94 C1088.11757,518.94 1091.85027,518.22 1091.85027,518.22 C1091.85027,518.22 1094.91893,519.22 1097.62539,519.89 C1100.33185,520.56 1101.64987,524.98 1101.06632,526.74 C1100.61014,528.519322 1101.1039,530.406853 1102.37427,531.74 C1103.49107,532.85 1104.05449,536.46 1104.05449,536.46 C1105.42202,536.904149 1106.55756,537.867435 1107.21371,539.14 C1108.1494,541.14 1107.86768,545.62 1107.86768,545.62 L1093.9933,565.06 C1093.9933,565.06 1094.17441,572.56 1093.62104,574.23 C1093.06767,575.9 1095.57291,604.23 1095.57291,604.23 L1098.46047,652.92 C1096.97943,654.212086 1095.42403,655.417455 1093.80214,656.53 C1092.96706,656.9 1092.13198,639.31 1092.13198,638.67 C1092.13198,638.03 1070.6111,606.67 1070.6111,606.67 C1070.6111,606.67 1067.72354,602.04 1067.72354,601.02 C1067.72354,600 1065.02714,590.65 1065.02714,590.65 L1060.93224,572.65 L1062.77344,517.4 Z" id="Shape" fill="#000000" fill-rule="nonzero" opacity="0.1"></path>
            <path d="M1109.0046,544.57 C1109.0046,545.21 1109.0046,545.63 1109.0046,545.63 L1095.14028,565.05 C1095.14028,565.05 1095.33144,572.55 1094.76802,574.22 C1094.44606,575.22 1095.15034,585.15 1095.77413,593.33 C1096.24701,599.23 1096.67964,604.21 1096.67964,604.21 L1097.90711,624.86 L1099.5672,652.86 C1098.08616,654.152086 1096.53076,655.357455 1094.90887,656.47 C1094.07379,656.84 1093.23872,639.25 1093.23872,638.6 C1093.23872,637.95 1071.71783,606.6 1071.71783,606.6 C1071.71783,606.6 1068.83027,601.97 1068.83027,600.95 C1068.83027,599.93 1066.13387,590.58 1066.13387,590.58 L1062.03897,572.58 L1063.90029,517.41 L1065.4799,505.19 C1065.4799,505.19 1067.81409,509.19 1069.02143,510.09 L1073.04591,513.15 C1073.04591,513.15 1077.07038,515 1078.44877,515 C1079.82715,515 1087.39316,517 1088.31879,518 C1089.24442,519 1092.97712,518.28 1092.97712,518.28 C1092.97712,518.28 1096.05585,519.28 1098.75225,519.95 C1101.44865,520.62 1102.77672,525.04 1102.19317,526.8 C1101.73895,528.579317 1102.23247,530.465908 1103.50113,531.8 C1104.61792,532.91 1105.18135,536.52 1105.18135,536.52 C1106.54888,536.964149 1107.68441,537.927435 1108.34056,539.2 C1108.88756,540.935199 1109.11256,542.754792 1109.0046,544.57 Z" id="Shape" fill="#65617D" fill-rule="nonzero"></path>
            <path d="M995.152185,791.22 C995.615,791.22 1015.17395,791.96 1014.80169,795.11 C1014.42942,798.26 995.152185,791.22 995.152185,791.22 Z" id="Shape" fill="#000000" fill-rule="nonzero" opacity="0.1"></path>
            <path d="M999.528802,796.46 C999.528802,796.46 1012.65865,798.59 1009.21773,800.53 C1005.7768,802.47 999.528802,796.46 999.528802,796.46 Z" id="Shape" fill="#000000" fill-rule="nonzero" opacity="0.1"></path>
            <path d="M1048.33563,789.19 C1048.33563,789.19 1070.12816,791.04 1066.86834,793.44 C1063.60851,795.84 1055.88152,796.22 1055.50926,796.31 C1055.13699,796.4 1048.33563,789.19 1048.33563,789.19 Z" id="Shape" fill="#000000" fill-rule="nonzero" opacity="0.1"></path>
            <path d="M1045.72978,798.72 C1045.72978,798.72 1057.80321,800.72 1058.20566,803.07 C1058.6081,805.42 1045.72978,798.72 1045.72978,798.72 Z" id="Shape" fill="#000000" fill-rule="nonzero" opacity="0.1"></path>
            <path d="M1052.43053,742.99 C1052.43053,742.99 1063.49784,745.58 1064.17194,747.34 L1052.43053,742.99 Z" id="Shape" fill="#000000" fill-rule="nonzero" opacity="0.1"></path>
            <path d="M1009.71073,750.95 C1009.71073,750.95 1003.9356,752.62 1009.52962,755.95 C1015.12365,759.28 1009.71073,750.95 1009.71073,750.95 Z" id="Shape" fill="#000000" fill-rule="nonzero" opacity="0.1"></path>
            <path d="M1035.29633,661.99 C1035.95031,661.99 1046.10205,658.66 1049.64358,660.14 C1052.1749,661.079794 1054.84983,661.580407 1057.55168,661.62 L1035.29633,661.99 Z" id="Shape" fill="#000000" fill-rule="nonzero" opacity="0.1"></path>
            <path d="M1036.60428,672.54 L1036.50367,673.46 L1027.82087,696.06 C1027.82087,696.06 1026.42236,702.91 1025.21502,706.8 C1024.45241,709.429308 1023.84436,712.100488 1023.39394,714.8 L1031.08069,667.43 L1036.60428,672.54 Z" id="Shape" fill="#000000" fill-rule="nonzero" opacity="0.1"></path>
            <polygon id="Shape" fill="#3F3D56" fill-rule="nonzero" points="1050.12652 632.66 1046.51455 632.72 1046.40388 632.72 1044.28097 623.39 1047.42006 623.22"></polygon>
            <path d="M1094.06373,621.36 L1091.74966,623.26 L1084.00254,629.59 C1084.00254,629.59 1063.05515,640.7 1057.28003,630.15 C1052.18906,620.85 1075.94353,614.21 1081.66835,612.76 L1082.88575,612.47 L1094.06373,621.36 Z" id="Shape" fill="#FBBEBE" fill-rule="nonzero"></path>
            <path d="M1004.5594,530.36 C1004.5594,530.36 1008.6543,532.21 1009.58999,534.8 C1010.52568,537.39 1004.5594,530.36 1004.5594,530.36 Z" id="Shape" fill="#000000" fill-rule="nonzero" opacity="0.1"></path>
            <path d="M991.89236,558.13 C991.89236,558.13 985.936136,565.35 988.350822,568.13 C990.765507,570.91 991.89236,558.13 991.89236,558.13 Z" id="Shape" fill="#000000" fill-rule="nonzero" opacity="0.1"></path>
            <path d="M1098.44035,534.46 C1098.44035,534.46 1092.85639,535.02 1092.66523,539.83 L1098.44035,534.46 Z" id="Shape" fill="#000000" fill-rule="nonzero" opacity="0.1"></path>
            <path d="M1046.65541,610.34 C1047.21884,609.78 1060.06698,590.9 1063.05515,592.57 L1046.65541,610.34 Z" id="Shape" fill="#000000" fill-rule="nonzero" opacity="0.1"></path>
            <path d="M1070.69159,487.59 C1070.69264,491.218869 1069.79053,494.791647 1068.06562,497.99 L1067.90464,497.99 C1066.49608,497.69 1065.76161,496.07 1064.69512,495.05 C1063.34278,493.768613 1061.31892,493.486996 1059.66453,494.35 C1057.99968,495.33843 1057.04105,497.178193 1057.18948,499.1 C1056.48519,496.1 1056.70654,492.98 1056.01232,490.01 C1055.31809,487.04 1053.23543,484.01 1050.37805,484.01 C1049.15059,484.01 1047.71184,484.46 1046.82645,483.54 C1046.29321,482.99 1046.18253,482.12 1045.82033,481.45 C1043.80809,478.16 1037.57016,479.82 1035.03474,481.51 C1032.49932,483.2 1029.55139,485.88 1026.40224,487.32 C1026.49114,475.153167 1036.48674,465.361634 1048.72802,465.45 C1060.9693,465.538366 1070.82074,475.473167 1070.73184,487.64 L1070.69159,487.59 Z" id="Shape" fill="#000000" fill-rule="nonzero" opacity="0.1"></path>
            <path d="M1045.78009,480.84 C1046.18253,481.51 1046.29321,482.38 1046.78621,482.94 C1047.67159,483.85 1049.11034,483.38 1050.33781,483.4 C1053.19518,483.45 1055.28791,486.46 1055.97207,489.4 C1056.65623,492.34 1056.44495,495.52 1057.15929,498.48 C1056.9932,496.559871 1057.9522,494.715795 1059.62428,493.74 C1061.2777,492.880705 1063.29742,493.157731 1064.65488,494.43 C1065.72136,495.43 1066.45583,497.08 1067.8644,497.37 C1069.27296,497.66 1070.62116,496.32 1071.12422,494.85 C1071.48611,493.330934 1071.7549,491.791437 1071.92912,490.24 C1072.56297,487.36 1074.46454,484.99 1075.5109,482.24 C1076.7593,478.899232 1076.72706,475.218664 1075.42035,471.9 C1074.71607,470.16 1073.67976,468.6 1072.97548,466.9 C1071.89893,464.27 1071.61722,461.29 1070.30927,458.78 C1068.14089,454.580068 1063.22216,452.570269 1058.70872,454.04 C1056.69648,454.8 1054.92571,456.26 1052.87323,456.92 C1050.11646,457.8 1047.17859,457.14 1044.33128,456.74 C1041.48396,456.34 1038.29456,456.31 1036.04086,458.17 C1033.40483,460.32 1032.68042,464.35 1030.20537,466.7 C1029.19925,467.7 1027.87117,468.32 1026.7745,469.23 C1025.57239,470.111311 1024.85992,471.505342 1024.85281,472.99 C1025.02385,474.91 1026.86505,476.65 1026.21108,478.43 C1025.97013,478.942474 1025.62797,479.401571 1025.20496,479.78 C1023.13063,481.943853 1021.58796,484.555239 1020.69754,487.41 C1025.72814,488.95 1031.08069,483.49 1034.97437,480.91 C1037.52991,479.22 1043.73767,477.56 1045.78009,480.84 Z" id="Shape" fill="#7C5C5C" fill-rule="nonzero"></path>
            <path d="M1094.06373,621.36 L1091.74966,623.26 C1089.73742,619.87 1081.30615,613.11 1081.30615,613.11 L1081.66835,612.76 L1082.88575,612.47 L1094.06373,621.36 Z" id="Shape" fill="#000000" fill-rule="nonzero" opacity="0.1"></path>
            <path d="M1096.29732,617.93 C1096.29732,617.93 1095.4723,619.99 1094.60704,621.77 C1093.74177,623.55 1092.80608,625.17 1092.76584,623.86 C1092.66523,621.26 1081.86957,612.56 1081.86957,612.56 L1083.32844,611.14 L1085.02878,609.5 L1096.29732,617.93 Z" id="Shape" fill="#E7EFFD" fill-rule="nonzero"></path>
            <path d="M1096.66958,604.23 L1097.89705,624.88 C1094.99942,620.41 1087.06115,608.95 1081.96012,609.32 L1094.34545,595.16 C1094.86,594.590115 1095.33403,593.98532 1095.76407,593.35 C1096.23695,599.25 1096.66958,604.23 1096.66958,604.23 Z" id="Shape" fill="#000000" fill-rule="nonzero" opacity="0.1"></path>
            <path d="M1096.29732,617.93 C1096.29732,617.93 1095.4723,619.99 1094.60704,621.77 C1091.35727,617.35 1086.90017,612.12 1083.32844,611.14 L1085.02878,609.5 L1096.29732,617.93 Z" id="Shape" fill="#000000" fill-rule="nonzero" opacity="0.1"></path>
            <path d="M1105.61398,543.04 L1108.96435,545.63 C1108.96435,545.63 1114.55837,545.73 1115.11174,550.35 C1115.6651,554.97 1120.79631,557.11 1120.79631,557.11 C1120.79631,557.11 1124.6095,560.91 1124.6095,562.67 C1124.6095,564.43 1127.49706,567.57 1127.49706,567.85 C1127.49706,568.13 1130.29407,573.77 1129.92181,574.79 C1129.54955,575.81 1132.94017,580.25 1131.87368,581.92 C1131.03675,583.417591 1130.29088,584.963697 1129.6401,586.55 C1129.6401,586.55 1125.26348,594.88 1123.0299,596.45 C1120.79631,598.02 1110.55402,611.27 1110.55402,611.27 C1110.55402,611.27 1099.55714,623.85 1099.55714,627.74 C1099.55714,627.74 1088.85204,609.97 1082.51349,610.43 L1094.89881,596.27 C1094.89881,596.27 1097.04184,593.95 1097.14246,592.57 C1097.24307,591.19 1103.09868,584.79 1105.89569,584.51 C1105.89569,584.51 1106.35851,580.72 1105.15116,580.62 C1103.94382,580.52 1102.91758,577.62 1102.91758,577.62 C1102.91758,577.62 1094.71771,567.99 1094.62716,561.88 C1094.53661,555.77 1105.61398,543.04 1105.61398,543.04 Z" id="Shape" fill="#65617D" fill-rule="nonzero"></path>
            <path d="M1110.55402,551.83 C1110.55402,551.83 1102.72642,557.57 1104.40663,559.43 C1106.08685,561.29 1110.55402,551.83 1110.55402,551.83 Z" id="Shape" fill="#000000" fill-rule="nonzero" opacity="0.1"></path>
            <path d="M1110.92628,575.53 C1110.92628,575.53 1125.45464,570.9 1126.9437,575.53 L1110.92628,575.53 Z" id="Shape" fill="#000000" fill-rule="nonzero" opacity="0.1"></path>
            <path d="M1020.95913,821.46 C1020.95913,821.46 1013.13153,826.56 1009.21773,825.81 C1006.50735,825.471018 1003.75628,825.922688 1001.29957,827.11 C998.608632,830.038186 995.211947,832.237249 991.429545,833.5 C985.090997,835.63 976.247212,834.79 971.216617,833.13 C968.842177,832.34 968.651014,831.32 969.79799,830.07 C975.261215,831.15 987.485559,833.3 990.775568,831.74 C994.402363,829.826529 997.888834,827.661155 1001.20902,825.26 C1001.20902,825.26 1009.25797,824.15 1010.33452,824.15 C1011.12935,824.15 1017.31698,821.61 1020.80822,820.15 L1020.95913,821.46 Z" id="Shape" fill="#000000" fill-rule="nonzero" opacity="0.1"></path>
            <path d="M1068.33727,831.91 C1068.33727,832.22 1068.26684,832.42 1068.26684,832.42 C1068.26684,832.42 1066.40552,836.49 1056.06262,837.97 C1045.71972,839.45 1045.72978,834.55 1045.72978,834.55 L1045.83039,833.22 C1049.10028,834.46 1056.24372,835.83 1068.33727,831.91 Z" id="Shape" fill="#000000" fill-rule="nonzero" opacity="0.1"></path>
            <path d="M1008.42289,550.72 C1008.42289,550.72 1008.42289,571.83 1006.61188,573.91 C1004.80087,575.99 1008.42289,550.72 1008.42289,550.72 Z" id="Shape" fill="#000000" fill-rule="nonzero" opacity="0.1"></path>
            <path d="M1092.38351,557.53 L1095.08997,565.07 C1095.08997,565.07 1096.15646,557.67 1092.38351,557.53 Z" id="Shape" fill="#000000" fill-rule="nonzero" opacity="0.1"></path>
            <g id="Group" opacity="0.1" transform="translate(1020.204545, 471.000000)" fill="#000000" fill-rule="nonzero">
                <path d="M6.32848776,5.61 C7.0126486,3.88 5.22175699,2.17 4.99034965,0.31 C4.74977997,0.832499408 4.64595412,1.40694832 4.68851399,1.98 C4.80924825,3.39 5.85561189,4.7 6.12726399,5.98 C6.2056651,5.86309228 6.27302623,5.73923208 6.32848776,5.61 Z" id="Shape"></path>
                <path d="M37.2364598,25.55 C36.5724213,22.63 36.7736451,19.55 36.0894843,16.62 C35.4053234,13.69 33.3125962,10.62 30.4552185,10.62 C29.2277535,10.62 27.7890035,11.06 26.9036189,10.15 C26.3603147,9.6 26.2597028,8.73 25.8975,8.05 C23.8852622,4.77 17.6473252,6.44 15.1018444,8.12 C11.298715,10.63 6.04677448,15.9 1.17715909,14.7 C0.945751748,15.26 0.724405594,15.83 0.543304196,16.42 C5.5738986,17.96 10.926451,12.5 14.8201311,9.92 C17.3656119,8.24 23.5733654,6.58 25.6157867,9.86 C26.0182343,10.53 26.1289073,11.4 26.6219056,11.96 C27.5072902,12.87 28.9460402,12.4 30.1735052,12.42 C33.0308829,12.47 35.1236101,15.48 35.807771,18.42 C36.4919318,21.36 36.2806469,24.54 36.9949913,27.5 C36.9449364,26.8405243 37.0270101,26.1777309 37.2364598,25.55 Z" id="Shape"></path>
                <path d="M51.2416346,22.08 C50.7385752,23.55 49.4104983,24.9 47.9717483,24.6 C46.5329983,24.3 45.8387762,22.68 44.7722902,21.66 C43.4157525,20.3872636 41.3977338,20.1064592 39.7416958,20.96 C38.1595411,21.9008081 37.2127951,23.618303 37.2666434,25.45 C37.6403256,24.3184543 38.4214448,23.3640194 39.4599825,22.77 C41.113399,21.9107054 43.1331161,22.1877312 44.4905769,23.46 C45.5570629,24.46 46.2915297,26.11 47.7000962,26.4 C49.1086626,26.69 50.4568619,25.35 50.9599213,23.88 C51.2330282,23.0158253 51.4052003,22.1232907 51.473042,21.22 C51.41602,21.5116432 51.3386984,21.7990005 51.2416346,22.08 Z" id="Shape"></path>
                <path d="M55.6283129,9.46 C54.6221941,12.2 52.6803846,14.57 52.0465297,17.46 C51.9257955,18.04 51.8453059,18.64 51.7748776,19.24 C52.4187937,16.36 54.300236,14 55.3465997,11.24 C55.8134713,10.0067949 56.1014242,8.71383693 56.2018007,7.4 C56.0637325,8.10018842 55.8720113,8.7888616 55.6283129,9.46 Z" id="Shape"></path>
            </g>
            <ellipse id="Oval" fill="#E6E8EC" fill-rule="nonzero" cx="941.234274" cy="547.26" rx="1" ry="1"></ellipse>
            <rect id="Rectangle-path" fill="#FFFFFF" fill-rule="nonzero" x="854.315664" y="552.42" width="182.288619" height="208.22" rx="6.61"></rect>
            <rect id="Rectangle-path" fill="#5A5773" fill-rule="nonzero" opacity="0.1" x="854.315664" y="552.42" width="182.288619" height="208.22" rx="6.61"></rect>
            <rect id="Rectangle-path" fill="#FFFFFF" fill-rule="nonzero" x="863.612203" y="563.04" width="163.695542" height="186.98" rx="6.61"></rect>
            <rect id="Rectangle-path" fill="#FB1D5C" fill-rule="nonzero" x="887.427037" y="600.54" width="112.30299" height="38.52" rx="6.03"></rect>
            <rect id="Rectangle-path" fill="#FB1D5C" fill-rule="nonzero" x="891.552124" y="653.15" width="104.062876" height="7.86"></rect>
            <rect id="Rectangle-path" fill="#FB1D5C" fill-rule="nonzero" x="873.864554" y="669.74" width="143.190839" height="7.86"></rect>
            <rect id="Rectangle-path" fill="#FB1D5C" fill-rule="nonzero" x="873.864554" y="687.2" width="143.190839" height="7.86"></rect>
            <rect id="Rectangle-path" fill="#FB1D5C" fill-rule="nonzero" x="873.864554" y="704.66" width="143.190839" height="7.86"></rect>
            <rect id="Rectangle-path" fill="#FFFFFF" fill-rule="nonzero" x="0" y="483.59" width="429.220376" height="208.22" rx="6.61"></rect>
            <rect id="Rectangle-path" fill="#5A5773" fill-rule="nonzero" opacity="0.1" x="0" y="483.59" width="429.220376" height="208.22" rx="6.61"></rect>
            <rect id="Rectangle-path" fill="#FFFFFF" fill-rule="nonzero" x="21.8931469" y="494.21" width="385.424021" height="186.98" rx="6.61"></rect>
            <rect id="Rectangle-path" fill="#FB1D5C" fill-rule="nonzero" x="77.9842745" y="531.72" width="264.418103" height="38.52" rx="6.03"></rect>
            <rect id="Rectangle-path" fill="#FB1D5C" fill-rule="nonzero" x="87.6832605" y="584.32" width="245.020131" height="7.86"></rect>
            <rect id="Rectangle-path" fill="#FB1D5C" fill-rule="nonzero" x="46.0299388" y="600.91" width="337.150437" height="7.86"></rect>
            <rect id="Rectangle-path" fill="#FB1D5C" fill-rule="nonzero" x="46.0299388" y="618.37" width="337.150437" height="7.86"></rect>
            <rect id="Rectangle-path" fill="#FB1D5C" fill-rule="nonzero" x="46.0299388" y="635.83" width="337.150437" height="7.86"></rect>
            <path d="M104.908016,841.64 C106.105297,837.3 106.920253,833.48 106.920253,833.48 C106.942639,830.579069 107.711558,827.732092 109.153837,825.21 L109.153837,824.01 L109.495918,815.2 C108.963962,813.578154 108.290664,812.005525 107.48368,810.5 C105.994624,807.67 107.98674,797.58 107.98674,797.58 C107.98674,797.58 114.456084,783.51 113.369476,774.38 C112.282867,765.25 127.072815,734.55 127.072815,734.55 C127.112264,731.524658 126.801682,728.504837 126.147185,725.55 C126.028304,724.934107 125.994455,724.304981 126.046573,723.68 C126.041556,723.603414 126.041556,723.526586 126.046573,723.45 L126.046573,723.52 C126.479205,717.52 131.670778,706.52 131.670778,706.52 L131.861941,685.12 C131.861941,685.12 129.306399,672.4 134.880297,655.67 C136.842229,649.83 138.130061,645.15 138.975201,641.53 C139.075813,641.12 139.166364,640.73 139.246853,640.35 C129.105175,638.41 121.358059,636.83 121.358059,636.83 C121.358059,636.83 128.229851,612.45 132.425367,608.3 C136.620883,604.15 140.303278,590.73 140.303278,590.73 C140.303278,590.73 143.060044,573.43 139.90083,568.23 C136.741617,563.03 136.60076,554.23 136.60076,554.23 C136.60076,554.23 129.135358,548.4 128.270096,545.91 C127.404834,543.42 126.026451,537.81 126.137124,534.91 C126.247797,532.01 127.314283,529.41 127.052692,527.86 C126.791101,526.31 129.578051,520.57 128.400892,517.75 C128.108058,516.883969 127.971806,515.973247 127.998444,515.06 C127.998444,515.06 127.998444,515.06 127.998444,514.98 C128.082072,512.558227 128.402179,510.150254 128.954257,507.79 C131.241442,506.012792 133.881938,504.738065 136.701372,504.05 L136.892535,503.39 L137.395594,501.68 C137.642958,501.526882 137.898188,501.386692 138.160245,501.26 L138.210551,500.63 L138.37153,498.14 L137.405656,492.46 C135.393418,482.6 148.593698,481.65 148.593698,481.65 C149.443448,480.182457 150.80854,479.078507 152.42701,478.55 C155.103287,477.73 152.306276,493.26 151.028505,494.21 C150.022386,494.92 147.00403,499.71 145.545157,502.06 L145.303689,502.45 C145.5155,502.650693 145.710651,502.868067 145.887238,503.1 L145.253383,506.47 L145.152771,506.98 C145.983308,508.087196 146.644445,509.310443 147.114703,510.61 C147.114703,510.61 144.609467,513.13 144.981731,516.07 C145.090234,518.357036 144.748469,520.643128 143.975612,522.8 C144.116469,522.65 145.877177,520.9 147.547334,521.4 C149.217491,521.9 153.86576,523.49 153.86576,523.49 C153.86576,523.49 157.356993,524.24 157.004851,525 C156.65271,525.76 159.248497,529.24 159.248497,529.24 L169.038033,520.71 C169.148706,520.44 169.249318,520.18 169.34993,519.91 C169.800922,518.652456 170.137641,517.357278 170.356049,516.04 C169.324035,515.760088 168.314992,515.402385 167.337692,514.97 C166.356439,514.595001 165.480054,513.991436 164.78215,513.21 C163.876643,512.05 163.776031,510.51 163.42389,509.1 C162.779974,506.34 161.270795,503.84 160.214371,501.19 C158.442225,496.743894 157.974747,491.889497 158.866171,487.19 C159.0811,485.750007 159.632424,484.380078 160.475962,483.19 C162.105874,481.14 164.933068,480.39 167.035857,478.79 C169.138645,477.19 170.547212,474.66 172.961897,473.49 C175.155236,472.43 177.761084,472.67 180.165708,473.15 C184.835306,474.096906 189.287393,475.897428 193.295559,478.46 C194.643759,479.33 196.122753,480.33 197.722483,480.1 C199.050058,479.748977 200.219788,478.96333 201.042675,477.87 C201.038223,477.823438 201.038223,477.776562 201.042675,477.73 L201.153348,477.62 C202.067322,479.86473 202.472663,482.281986 202.340568,484.7 C202.340568,485.07 202.340568,485.45 202.260079,485.82 C202.260079,485.95 202.260079,486.08 202.260079,486.21 C202.250024,486.319773 202.250024,486.430227 202.260079,486.54 C202.255365,486.705418 202.275715,486.8706 202.320446,487.03 C202.497054,487.523089 202.782377,487.970679 203.155524,488.34 C203.42893,488.674249 203.671385,489.032372 203.87993,489.41 C203.87993,489.28 203.809502,489.15 203.769257,489.02 C204.33889,489.917849 204.639052,490.958558 204.634519,492.02 C204.657718,492.793666 204.371974,493.545026 203.839685,494.11 C203.353418,494.558276 202.820527,494.953837 202.250017,495.29 C203.293497,502.727634 199.568416,510.024765 192.913234,513.58 C192.7925,513.84 192.671766,514.11 192.561093,514.38 C191.063576,517.558224 190.339774,521.042173 190.448243,524.55 C190.448243,524.8 190.448243,525.05 190.528733,525.3 C190.609222,525.55 190.76014,525.57 190.860752,525.71 C190.860752,525.71 206.455594,526.46 210.258724,523.29 C214.061853,520.12 219.213182,531.72 219.213182,531.72 C219.213182,531.72 224.766958,533.01 225.923995,531.98 C227.081031,530.95 233.610743,532.12 233.610743,532.12 C236.377881,529.851536 239.911506,528.717782 243.49083,528.95 C245.740421,527.383699 248.203418,526.144538 250.805315,525.27 L250.986416,525.21 C252.12466,524.841673 253.332317,524.735662 254.517893,524.9 C254.517893,524.9 262.436049,518.9 264.800428,515.59 C267.164808,512.28 278.262299,500.15 278.262299,500.09 L278.332727,499.49 L278.52389,497.67 C278.835546,497.734235 279.151744,497.774355 279.469642,497.79 L279.71111,497.16 C280.3912,495.402336 281.215645,493.70327 282.176101,492.08 C282.176101,492.08 282.266652,489.77 281.612675,489.17 C280.958698,488.57 282.24653,480.17 282.24653,480.17 C282.24653,480.17 289.78236,464.37 295.507177,476.6 C295.507177,476.6 306.916565,484.81 296.734642,493.47 C296.734642,493.47 292.710166,495.21 292.136678,496.68 C291.734231,497.68 290.295481,500.3 289.329607,502.07 L288.896976,502.86 L289.007649,502.96 L288.806425,504.46 L288.725935,505.05 C290.526888,506.16 291.744292,507.24 291.412273,508.05 C290.812968,509.360696 290.383608,510.74175 290.134502,512.16 C290.134502,512.16 275.907981,528.46 273.875621,535.65 C273.875621,535.65 236.588855,555.79 224.575795,556.87 L226.235892,567.71 C226.43285,570.635727 226.479863,573.569522 226.376748,576.5 C226.125219,578.8 227.3225,589.31 227.3225,589.31 C227.3225,589.31 228.801495,604.77 230.481713,606.99 C232.161932,609.21 231.487832,618.43 231.487832,618.43 C231.739961,622.862216 232.372765,627.264906 233.379336,631.59 C234.908636,637.5 233.379336,644.68 233.379336,644.68 C233.379336,644.68 238.923051,658.75 224.736774,648.81 C224.736774,648.81 217.613453,648.1 209.403523,647.51 C209.403523,647.77 209.403523,648.05 209.403523,648.32 C209.403523,649.38 209.353217,650.52 209.323033,651.72 C209.121809,659.65 208.749545,670.57 208.065385,678.82 C206.858042,693.41 201.264021,722.15 201.264021,722.15 L200.700594,736.67 C200.939831,738.046441 201.027545,739.444683 200.962185,740.84 C200.867395,745.963669 199.307524,750.954726 196.464834,755.23 L194.965717,764.88 C194.965717,764.88 192.098278,771.16 191.897054,774.97 C191.891664,775.281925 191.918637,775.593572 191.977544,775.9 C192.051316,776.393054 192.074911,776.892243 192.047972,777.39 C192.047972,781.79 188.949126,792.21 188.949126,792.21 C188.949126,792.21 188.375638,802.82 186.755787,803.37 C185.367343,803.85 188.345455,809.56 189.230839,811.2 C189.263791,811.102434 189.287373,811.001986 189.301267,810.9 L189.49243,811.22 C189.788525,812.091963 189.921512,813.010436 189.884816,813.93 C190.007119,815.416076 189.259585,816.839812 187.963129,817.59 C184.854222,819.32 183.163942,820.79 185.719484,821.51 C186.662968,821.69281 187.596506,821.923106 188.516495,822.2 L188.667413,821.85 C189.410887,822.169056 189.829852,822.960248 189.673531,823.75 C189.603649,825.007466 189.227289,826.229204 188.576862,827.31 C187.337768,830.039075 185.784696,832.616261 183.948715,834.99 L182.72125,834.81 C182.887284,835.278554 183.110281,835.725195 183.385288,836.14 C183.825501,836.82827 184.425971,837.401078 185.135935,837.81 C185.788555,838.228974 186.521828,838.508238 187.28903,838.63 C189.042129,838.758556 190.658201,839.619822 191.736075,841 C193.245253,843.11 194.140699,845.94 190.890935,848.27 L179.310507,851.75 C179.310507,851.75 159.550332,853.54 160.757675,849.2 C161.965017,844.86 162.769913,841.04 162.769913,841.04 C162.791095,838.355886 163.438574,835.713262 164.661416,833.32 C164.884874,832.931003 165.133576,832.556878 165.405944,832.2 L164.711722,832.1 C164.711722,832.1 163.564747,822.35 161.673243,820.46 C161.250673,820.01 161.160122,819.68 161.270795,819.46 C161.099755,818.93 161.602815,818.64 162.276914,818.46 C162.276914,818.58 162.367465,818.71 162.40771,818.84 C163.039047,818.734125 163.679373,818.69058 164.319336,818.71 C164.319336,818.71 165.154414,813.66 163.152238,811.71 C162.824904,811.275203 162.700398,810.721973 162.810157,810.19 C162.814315,809.493456 162.912448,808.800613 163.101932,808.13 C163.121622,808.17208 163.145199,808.212252 163.17236,808.25 C164.399825,803.69 168.202955,796.51 168.202955,796.51 C168.202955,796.51 168.534974,791.9 167.327631,790 C166.120288,788.1 168.464545,764.94 168.464545,764.94 C168.464545,764.94 168.41424,753.7 170.054213,748.53 C171.694187,743.36 168.736198,737.08 168.736198,737.08 C168.736198,737.08 168.736198,736.96 168.786503,736.75 C168.789826,736.720091 168.789826,736.689909 168.786503,736.66 C168.786503,736.66 168.887115,735.97 169.048094,734.9 L169.048094,735.01 C169.490787,732.01 170.305743,726.7 170.849047,724.22 C171.623759,720.71 171.482902,703.76 171.482902,703.76 L168.877054,696.46 L163.272972,708.72 L157.236259,725.12 C157.236259,725.12 154.409065,728.52 154.217902,732.12 C154.217902,732.3 154.217902,732.47 154.217902,732.65 C154.242762,733.019587 154.242762,733.390413 154.217902,733.76 C154.226239,735.859829 153.563955,737.908126 152.326399,739.61 C152.326399,739.61 150.585813,747.4 148.301923,749.31 C146.018033,751.22 145.836932,755.07 145.836932,755.07 C145.836932,755.07 142.677719,766.35 141.319458,768.3 C140.182544,769.94 139.941075,774.57 139.90083,775.99 C139.90083,776.25 139.90083,776.4 139.90083,776.4 C139.90083,776.4 139.367587,780.46 139.246853,783.88 C139.246853,784.3 139.246853,784.71 139.246853,785.09 C139.241934,785.063557 139.241934,785.036443 139.246853,785.01 C139.208603,785.938815 139.282919,786.868831 139.468199,787.78 C139.468199,787.78 139.468199,787.89 139.468199,787.95 L139.468199,787.37 C139.94616,789.711738 140.132015,792.103085 140.021565,794.49 C139.931014,798.58 139.116058,803.4 136.51021,806.15 C132.002797,810.91 129.31646,810.15 129.31646,810.15 C129.31646,810.15 131.157657,816.38 133.662893,817.71 C133.759383,817.760635 133.850408,817.820949 133.934545,817.89 C133.934545,817.77 133.934545,817.65 134.004974,817.54 C134.543136,818.186939 134.783978,819.028387 134.669012,819.86 C134.749502,822.57 132.857998,826.86 131.147596,828.86 C130.524878,829.431552 129.766953,829.837448 128.944196,830.04 C129.069439,830.134672 129.200488,830.221506 129.336582,830.3 C129.615641,830.464183 129.904609,830.611128 130.201844,830.74 C130.607709,830.936773 131.042373,831.068404 131.489677,831.13 C133.246069,831.247229 134.866518,832.110827 135.936722,833.5 C137.4459,835.6 138.341346,838.43 135.091582,840.76 L123.511154,844.24 C123.511154,844.24 103.690612,845.98 104.908016,841.64 Z" id="Shape" fill="url(#linearGradient-3)" fill-rule="nonzero"></path>
            <path d="M179.712955,851.77 L190.93118,848.28 C194.080332,845.94 193.21507,843.11 191.756198,841 C190.737193,839.631775 189.168266,838.773565 187.46007,838.65 C186.710295,838.52707 185.996289,838.243887 185.367343,837.82 C184.682298,837.407503 184.106252,836.838389 183.687124,836.16 C182.93103,834.854033 182.551588,833.366255 182.590455,831.86 C182.590455,831.86 170.577395,827.86 167.116346,831.27 C166.504519,831.88925 165.98603,832.593205 165.576984,833.36 C164.389709,835.76439 163.757252,838.401821 163.725726,841.08 C163.725726,841.08 162.961075,844.89 161.783916,849.24 C160.606757,853.59 179.712955,851.77 179.712955,851.77 Z" id="Shape" fill="#2D293D" fill-rule="nonzero"></path>
            <path d="M125.774921,844.28 L136.993147,840.79 C140.142299,838.45 139.277037,835.62 137.818164,833.52 C136.798916,832.145461 135.225472,831.283137 133.511976,831.16 C133.077809,831.102879 132.656208,830.974464 132.264388,830.78 C131.977208,830.646767 131.698345,830.496496 131.429309,830.33 C128.410953,828.52 128.64236,824.33 128.64236,824.33 C128.64236,824.33 116.629301,820.33 113.168252,823.74 C112.703979,824.20015 112.292322,824.709914 111.940787,825.26 C110.534577,827.800923 109.787664,830.650114 109.76757,833.55 C109.76757,833.55 108.992858,837.37 107.82576,841.71 C106.658663,846.05 125.774921,844.28 125.774921,844.28 Z" id="Shape" fill="#2D293D" fill-rule="nonzero"></path>
            <path d="M167.106285,831.27 C166.498015,831.889918 165.98294,832.593839 165.576984,833.36 L183.687124,836.15 C182.93103,834.844033 182.551588,833.356255 182.590455,831.85 C182.590455,831.85 170.607579,827.86 167.106285,831.27 Z" id="Shape" fill="#000000" fill-rule="nonzero" opacity="0.1"></path>
            <path d="M111.940787,825.3 L111.809991,828.69 C114.466145,833.44 128.199668,832.95 132.264388,830.78 C131.977208,830.646767 131.698345,830.496496 131.429309,830.33 C128.410953,828.52 128.64236,824.33 128.64236,824.33 C128.64236,824.33 116.629301,820.33 113.168252,823.74 C112.7016,824.212662 112.289862,824.735945 111.940787,825.3 Z" id="Shape" fill="#000000" fill-rule="nonzero" opacity="0.1"></path>
            <path d="M110.341058,810.62 C111.140453,812.129119 111.813472,813.701097 112.353295,815.32 L111.860297,827.46 C114.75792,832.66 130.916189,831.58 133.190017,828.9 C135.463846,826.22 138.059633,819.07 135.634886,817.75 C133.21014,816.43 131.429309,810.19 131.429309,810.19 C131.429309,810.19 134.035157,810.91 138.411774,806.19 C142.788392,801.47 141.963374,790.46 141.279213,787.82 C140.595052,785.18 141.731967,776.44 141.731967,776.44 C141.731967,776.44 141.812456,770.28 143.130472,768.33 C144.448488,766.38 147.51715,755.1 147.51715,755.1 C147.51715,755.1 147.658007,751.25 149.901652,749.34 C152.145297,747.43 153.845638,739.63 153.845638,739.63 C155.191567,737.7201 155.828169,735.404802 155.646591,733.08 C155.334694,729.22 158.584458,725.18 158.584458,725.18 L164.490376,708.78 L169.923418,696.51 L172.428654,703.84 C172.428654,703.84 172.549388,720.79 171.794799,724.3 C171.04021,727.81 169.782561,737.16 169.782561,737.16 C169.782561,737.16 172.639939,743.43 171.050271,748.61 C169.460603,753.79 169.480726,765.02 169.480726,765.02 C169.480726,765.02 167.186774,788.19 168.353872,790.08 C169.52097,791.97 169.188951,796.58 169.188951,796.58 C169.188951,796.58 162.32722,809.87 164.258969,811.8 C166.190717,813.73 165.385822,818.8 165.385822,818.8 C165.385822,818.8 161.05951,818.63 162.840341,820.55 C164.621171,822.47 165.576984,832.14 165.576984,832.14 L184.200245,835.01 C185.984768,832.624221 187.490224,830.044276 188.687535,827.32 C191.383934,821.73 188.425944,822.23 185.960953,821.52 C183.495962,820.81 185.125874,819.33 188.13417,817.6 C191.142465,815.87 189.603103,811.65 189.603103,811.65 C189.603103,811.65 185.407587,803.94 186.987194,803.39 C188.566801,802.84 189.120166,792.23 189.120166,792.23 C189.120166,792.23 192.701949,779.73 192.058033,776.32 C191.414117,772.91 194.985839,764.88 194.985839,764.88 L196.43465,755.24 C199.962007,749.873049 201.423107,743.421527 200.549677,737.07 L201.133226,722.15 C201.133226,722.15 206.606512,693.46 207.833977,678.82 C208.598628,669.48 208.980953,656.71 209.151993,648.74 C209.252605,644.26 209.29285,641.3 209.29285,641.3 L142.717963,631.82 C142.486419,635.13489 141.950955,638.421857 141.118234,641.64 C140.303278,645.27 139.045629,649.95 137.093759,655.79 C131.640594,672.52 134.075402,685.24 134.075402,685.24 L133.864117,706.64 C133.864117,706.64 127.424956,720.72 128.481381,725.69 C129.112447,728.647922 129.409414,731.666605 129.366766,734.69 C129.366766,734.69 115.039633,765.37 116.085997,774.46 C117.13236,783.55 110.844117,797.67 110.844117,797.67 C110.844117,797.67 108.902308,807.79 110.341058,810.62 Z" id="Shape" fill="#575988" fill-rule="nonzero"></path>
            <path d="M151.66236,731.96 L131.419248,728.46 C131.419248,728.46 142.496617,740.62 151.66236,731.96 Z" id="Shape" fill="#000000" fill-rule="nonzero" opacity="0.05"></path>
            <path d="M135.121766,708.85 C135.121766,708.85 134.115647,715.97 138.452019,718.85 C138.411774,718.83 130.614353,717.3 135.121766,708.85 Z" id="Shape" fill="#000000" fill-rule="nonzero" opacity="0.1"></path>
            <path d="M137.254738,686.13 C137.254738,686.13 153.724904,700.7 159.95278,699.79 C166.180656,698.88 137.254738,686.13 137.254738,686.13 Z" id="Shape" fill="#000000" fill-rule="nonzero" opacity="0.1"></path>
            <path d="M176.644292,739.46 C176.644292,739.46 189.452185,742.88 189.643348,748.04 C189.83451,753.2 176.644292,739.46 176.644292,739.46 Z" id="Shape" fill="#000000" fill-rule="nonzero" opacity="0.1"></path>
            <path d="M171.301801,803.46 C171.301801,803.46 189.411941,807.54 184.16,809.65 C178.908059,811.76 170.305743,813.28 170.305743,813.28 C170.305743,813.28 164.409886,813.38 171.301801,803.46 Z" id="Shape" fill="#000000" fill-rule="nonzero" opacity="0.05"></path>
            <g id="Group" opacity="0.05" transform="translate(109.666958, 640.000000)" fill="#000000" fill-rule="nonzero">
                <path d="M78.0446416,173.46 C78.9940345,172.916735 79.6450358,171.975583 79.8154108,170.9 L79.986451,171.23 C79.986451,171.23 81.5358741,175.44 78.5175175,177.23 C78.1754371,177.42 77.853479,177.62 77.5113986,177.81 C76.9781556,177.69 76.3946066,177.59 75.8412413,177.43 C73.3863112,176.68 75.026285,175.2 78.0446416,173.46 Z" id="Shape"></path>
                <path d="M54.5618269,171.34 C54.0788899,170.86 54.1493182,169.68 54.5618269,168.17 C55.2548075,169.564484 55.5538654,171.119805 55.4270892,172.67 C55.2447059,172.166777 54.9487072,171.711796 54.5618269,171.34 Z" id="Shape"></path>
                <path d="M60.3369493,94.94 C60.937302,96.7877036 61.2759251,98.7094826 61.3430682,100.65 C61.0470436,99.2997134 60.622565,97.9804479 60.0753584,96.71 C60.0753584,96.71 60.1860315,96.02 60.3369493,94.94 Z" id="Shape"></path>
                <path d="M18.8546678,85.27 C18.7522941,84.7127979 18.7151559,84.1456906 18.7439948,83.58 C18.9351573,84.74 19.0558916,85.81 19.1263199,86.75 C19.0458304,86.27 18.9552797,85.78 18.8546678,85.27 Z" id="Shape"></path>
                <path d="M58.6567308,149.63 C58.3543363,148.513113 58.2454615,147.353209 58.3347727,146.2 C58.8532852,147.587305 59.0991983,149.060599 59.0591783,150.54 C58.9614791,150.222 58.8263975,149.916558 58.6567308,149.63 Z" id="Shape"></path>
                <path d="M53.7066259,178.46 C54.5493541,181.584676 55.1381508,184.771595 55.4673339,187.99 L74.0905944,190.86 C75.8816459,188.476691 77.3906969,185.896372 78.5879458,183.17 C78.8294143,182.68 79.0105157,182.24 79.1714948,181.84 C80.2681643,182.39 80.6706119,183.57 79.0608217,186.89 C77.8623668,189.610569 76.3569592,192.187075 74.5735315,194.57 L55.9100262,191.72 C55.9100262,191.72 54.9039073,181.98 53.1029545,180.07 C52.2678759,179.12 52.8916696,178.69 53.7066259,178.46 Z" id="Shape"></path>
                <path d="M79.4934528,151.81 C79.4934528,151.81 78.9300262,162.42 77.3604808,162.97 C76.6461364,161.18 76.1833217,159.5 76.8876049,159.25 C78.4571503,158.69 79.0306381,148.09 79.0306381,148.09 C79.0306381,148.09 82.6124213,135.6 81.9685052,132.18 C81.3245892,128.76 84.88625,120.75 84.88625,120.75 L86.3451224,111.1 C89.872479,105.733049 91.3335788,99.281527 90.4601486,92.93 L91.0336364,78.01 C91.0336364,78.01 96.4868007,49.27 97.674021,34.68 C98.4286101,25.34 98.8109353,12.57 98.9920367,4.6 C98.9920367,3.16 99.0524038,1.88 99.0725262,0.8 L99.6057692,0.88 C99.6057692,0.88 99.6057692,3.88 99.4649126,8.31 C99.2938724,16.31 98.9115472,29.06 98.1468969,38.4 C96.9596766,52.98 91.5165734,81.73 91.5165734,81.73 L90.9330245,96.64 C91.806662,102.990195 90.349371,109.440671 86.8280594,114.81 L85.3591259,124.46 C85.3591259,124.46 81.7874038,132.46 82.4313199,135.9 C83.075236,139.34 79.4934528,151.81 79.4934528,151.81 Z" id="Shape"></path>
                <path d="M23.0602448,184.77 C24.6610578,182.640501 25.7674549,180.18503 26.2999476,177.58 C28.1411451,179.36 25.6962762,185.93 23.5331206,188.48 C21.369965,191.03 5.10102273,192.24 2.20340035,187.05 L2.31407343,184.12 C6.33854895,188.4 20.9071503,187.31 23.0602448,184.77 Z" id="Shape"></path>
                <path d="M0.211284965,166.46 C1.01067984,167.969119 1.68369944,169.541097 2.22352273,171.16 L2.13297203,173.31 C1.71111149,172.239726 1.23425448,171.19168 0.704283217,170.17 C0.26106938,168.944052 0.0828010131,167.639022 0.181101399,166.34 L0.211284965,166.46 Z" id="Shape"></path>
                <path d="M22.7081031,169.78 C22.1638079,168.574985 21.6999885,167.335634 21.3196591,166.07 C21.3196591,166.07 23.925507,166.78 28.2920629,162.02 C31.4713986,158.55 31.9040297,151.8 31.6424388,147.36 C32.3265997,150.01 33.1415559,160.97 28.775,165.73 C25.8975,168.85 23.7947115,169.62 22.7081031,169.78 Z" id="Shape"></path>
                <path d="M32.0750699,135.98 C31.6840795,139.002093 31.4623915,142.043451 31.4110315,145.09 C31.351105,144.605499 31.2637697,144.124738 31.1494406,143.65 C30.4753409,141 31.5921329,132.27 31.5921329,132.27 C31.5921329,132.27 31.6826836,126.11 32.9906381,124.16 C34.2985927,122.21 37.3773164,110.93 37.3773164,110.93 C37.3773164,110.93 37.5282343,107.09 39.7718794,105.17 C42.0155245,103.25 43.7158654,95.46 43.7158654,95.46 C45.0572144,93.5479662 45.693361,91.2343243 45.5168182,88.91 C45.2049213,85.05 48.4546853,81.01 48.4546853,81.01 L54.3606031,64.61 L59.7936451,52.34 L62.2988811,59.68 C62.2988811,59.68 62.2988811,60.58 62.2988811,62.02 L60.2866434,56.02 L54.8536014,68.28 L48.9476836,84.69 C48.9476836,84.69 45.6979196,88.69 46.0098164,92.59 C46.1913946,94.914802 45.5547927,97.2301001 44.2088636,99.14 C44.2088636,99.14 42.5085227,106.93 40.2648776,108.84 C38.0212325,110.75 37.8803759,114.6 37.8803759,114.6 C37.8803759,114.6 34.8016521,125.88 33.4936976,127.84 C32.185743,129.8 32.0750699,135.98 32.0750699,135.98 Z" id="Shape"></path>
            </g>
            <path d="M139.699607,492.56 L140.645358,498.22 L140.484379,500.72 L140.363645,502.56 L146.792745,503.47 L147.567456,502.17 C148.996145,499.82 151.954135,495.03 152.889825,494.31 C154.11729,493.36 156.853934,477.83 154.258147,478.65 C152.675242,479.191949 151.349526,480.29593 150.535507,481.75 C150.535507,481.75 137.798042,482.71 139.699607,492.56 Z" id="Shape" fill="#FFCDD3" fill-rule="nonzero"></path>
            <path d="M140.363645,502.56 L146.792745,503.47 L147.567456,502.17 C145.857965,500.094851 142.919428,499.494028 140.524624,500.73 L140.363645,502.56 Z" id="Shape" fill="#000000" fill-rule="nonzero" opacity="0.1"></path>
            <path d="M138.612998,505.54 L147.054336,507.83 L147.275682,506.57 L147.889414,503.2 C146.996455,501.925002 145.62845,501.056951 144.088973,500.788477 C142.549497,500.520003 140.965881,500.873312 139.689545,501.77 L139.206608,503.48 L138.612998,505.54 Z" id="Shape" fill="#DCE6F2" fill-rule="nonzero"></path>
            <path d="M276.994589,498.46 L285.88868,503.66 C285.88868,503.66 286.260944,502.95 286.784126,501.98 C287.719816,500.21 289.10826,497.55 289.500647,496.59 C290.094257,495.12 293.957753,493.37 293.957753,493.37 C303.82778,484.7 292.790656,476.51 292.790656,476.51 C287.257002,464.28 279.952579,480.09 279.952579,480.09 C279.952579,480.09 278.69493,488.52 279.328785,489.09 C279.96264,489.66 279.872089,492 279.872089,492 C278.934472,493.624882 278.133559,495.323997 277.477526,497.08 C277.165629,497.91 276.994589,498.46 276.994589,498.46 Z" id="Shape" fill="#FFCDD3" fill-rule="nonzero"></path>
            <path d="M276.994589,498.46 L285.88868,503.66 C285.88868,503.66 286.260944,502.95 286.784126,501.98 C285.536538,500.87 281.129738,496.98 279.630621,497.14 C278.914716,497.211312 278.193431,497.211312 277.477526,497.14 C277.165629,497.91 276.994589,498.46 276.994589,498.46 Z" id="Shape" fill="#000000" fill-rule="nonzero" opacity="0.1"></path>
            <path d="M275.958287,501.13 L286.019476,506.52 L286.301189,504.34 L286.502413,502.84 C286.502413,502.84 280.787657,497.58 279.03701,497.7 C278.144169,497.789174 277.243119,497.752139 276.360734,497.59 L276.179633,499.41 L275.958287,501.13 Z" id="Shape" fill="#DCE6F2" fill-rule="nonzero"></path>
            <path d="M163.011381,530.8 C163.011381,530.8 207.35104,537.5 199.131049,534.5 C193.406233,532.4 191.243077,528.65 190.921119,524.57 C190.810817,521.069257 191.498731,517.589067 192.933357,514.39 C194.098104,511.640492 195.537349,509.014016 197.229484,506.55 C197.229484,506.55 163.906827,486.64 170.064274,503.82 C171.015785,506.418885 171.562043,509.147054 171.684126,511.91 C171.780817,514.652397 171.378628,517.389621 170.496906,519.99 C169.05108,524.209803 166.460656,527.950688 163.011381,530.8 Z" id="Shape" fill="#FFCDD3" fill-rule="nonzero"></path>
            <path d="M170.104519,503.82 C171.05603,506.418885 171.602288,509.147054 171.724371,511.91 C174.823217,514.7 178.344633,514.66 182.862107,514.83 C186.333217,514.97 190.136346,515.95 192.923295,514.39 C194.088043,511.640492 195.527287,509.014016 197.219423,506.55 C197.219423,506.55 163.947072,486.64 170.104519,503.82 Z" id="Shape" fill="#000000" fill-rule="nonzero" opacity="0.1"></path>
            <ellipse id="Oval" fill="#FFCDD3" fill-rule="nonzero" cx="184.129816" cy="497.73" rx="18.4220367" ry="18.31"></ellipse>
            <path d="M163.011381,530.8 C163.011381,530.8 207.35104,537.5 199.131049,534.5 C193.406233,532.4 191.243077,528.65 190.921119,524.57 C188.798208,522.1 184.41153,520.21 181.584336,519.18 C179.010229,518.216432 176.200284,518.062825 173.535385,518.74 C172.472544,519.005826 171.455326,519.42709 170.517028,519.99 C169.065609,524.212139 166.46805,527.953271 163.011381,530.8 Z" id="Shape" fill="#000000" fill-rule="nonzero" opacity="0.1"></path>
            <path d="M138.612998,505.54 L147.054336,507.83 L147.275682,506.57 C145.51406,503.959374 142.296596,502.724186 139.226731,503.48 L138.612998,505.54 Z" id="Shape" fill="#000000" fill-rule="nonzero" opacity="0.1"></path>
            <path d="M275.958287,501.13 L286.019476,506.52 L286.301189,504.34 C283.039972,502.465859 279.643387,500.834718 276.139388,499.46 L275.958287,501.13 Z" id="Shape" fill="#000000" fill-rule="nonzero" opacity="0.1"></path>
            <path d="M141.07799,641.64 C158.18201,645.01 182.630699,649.47 186.564624,648.44 C189.83451,647.59 200.147229,648.09 209.111748,648.74 C209.21236,644.26 209.252605,641.3 209.252605,641.3 L142.677719,631.82 C142.446174,635.13489 141.91071,638.421857 141.07799,641.64 Z" id="Shape" fill="#000000" fill-rule="nonzero" opacity="0.1"></path>
            <path d="M124.044397,636.96 C124.044397,636.96 180.447421,648.82 186.61493,647.21 C192.782439,645.6 223.992247,648.79 223.992247,648.79 C237.705647,658.71 232.363156,644.65 232.363156,644.65 C232.363156,644.65 233.882395,637.47 232.363156,631.56 C231.390118,627.231097 230.780994,622.829259 230.54208,618.4 C230.54208,618.4 231.21618,609.18 229.596329,606.97 C227.976477,604.76 226.577972,589.29 226.577972,589.29 C226.577972,589.29 225.441058,578.78 225.682526,576.48 C225.923995,574.18 225.561792,567.69 225.561792,567.69 L223.962063,556.85 C235.622981,555.76 271.732587,535.58 271.732587,535.58 C273.744825,528.42 287.518593,512 287.518593,512 C287.76572,510.5849 288.184642,509.20482 288.76618,507.89 C289.772299,505.47 276.058899,500.02 276.058899,500.02 C276.058899,500.02 265.182753,512.23 262.929047,515.53 C260.675341,518.83 252.958409,524.85 252.958409,524.85 C251.809318,524.690936 250.638806,524.79701 249.537605,525.16 L249.356503,525.16 C246.84202,526.045722 244.469803,527.288614 242.313671,528.85 C238.828353,528.633858 235.394622,529.770279 232.73542,532.02 C232.73542,532.02 226.427054,530.86 225.310262,531.89 C224.19347,532.92 218.810734,531.64 218.810734,531.64 C218.810734,531.64 213.78014,520.06 210.148051,523.23 C206.515962,526.4 191.363811,525.67 191.363811,525.67 C189.462247,522.93 184.632876,520.84 181.614519,519.74 C179.041507,518.771281 176.229949,518.617586 173.565568,519.3 C172.409431,519.582633 171.310369,520.059491 170.315804,520.71 L160.818042,529.27 C160.818042,529.27 158.312806,525.79 158.654886,525.03 C158.996967,524.27 155.63653,523.53 155.63653,523.53 C155.63653,523.53 151.199545,521.97 149.519327,521.45 C147.839108,520.93 146.199135,522.69 146.058278,522.85 C146.826406,520.691956 147.168033,518.40679 147.064397,516.12 C146.712255,513.18 149.126941,510.65 149.126941,510.65 C144.227142,497.22 131.580227,507.83 131.580227,507.83 C131.580227,507.83 129.900009,515 131.036923,517.83 C132.173837,520.66 129.467378,526.39 129.708846,527.94 C129.950315,529.49 128.934135,532.07 128.823462,534.99 C128.712788,537.91 130.040865,543.51 130.835699,545.99 C131.630533,548.47 138.88465,554.31 138.88465,554.31 C138.88465,554.31 139.015446,563.09 142.063986,568.31 C145.112526,573.53 142.43625,590.81 142.43625,590.81 C142.43625,590.81 138.814222,604.22 134.779685,608.38 C130.745149,612.54 124.044397,636.96 124.044397,636.96 Z" id="Shape" fill="#656691" fill-rule="nonzero"></path>
            <path d="M210.7316,538.94 C210.7316,538.94 212.633164,533.94 214.192649,533.53 C215.755868,533.025394 217.282103,532.413935 218.760428,531.7 L217.834799,529.77 C217.834799,529.77 211.959065,531.14 210.973068,532.77 C209.987072,534.4 210.7316,538.94 210.7316,538.94 Z" id="Shape" fill="#000000" fill-rule="nonzero" opacity="0.1"></path>
            <path d="M242.263365,528.91 C242.514895,530.46 256.228295,532.37 256.228295,532.37 L249.537605,525.16 L249.366565,525.16 C246.827523,526.059055 244.434456,527.32243 242.263365,528.91 Z" id="Shape" fill="#000000" fill-rule="nonzero" opacity="0.1"></path>
            <ellipse id="Oval" fill="#575988" fill-rule="nonzero" cx="282.920629" cy="509.32" rx="1.23752622" ry="1.23"></ellipse>
            <ellipse id="Oval" fill="#575988" fill-rule="nonzero" cx="281.240411" cy="511.72" rx="1.23752622" ry="1.23"></ellipse>
            <ellipse id="Oval" fill="#575988" fill-rule="nonzero" cx="279.600437" cy="513.93" rx="1.23752622" ry="1.23"></ellipse>
            <ellipse id="Oval" fill="#575988" fill-rule="nonzero" cx="277.890035" cy="516.33" rx="1.23752622" ry="1.23"></ellipse>
            <ellipse id="Oval" fill="#575988" fill-rule="nonzero" cx="132.053103" cy="510.62" rx="1.00611888" ry="1"></ellipse>
            <ellipse id="Oval" fill="#575988" fill-rule="nonzero" cx="131.811635" cy="512.88" rx="1.00611888" ry="1"></ellipse>
            <ellipse id="Oval" fill="#575988" fill-rule="nonzero" cx="131.580227" cy="515.14" rx="1.00611888" ry="1"></ellipse>
            <path d="M209.04132,580.61 C209.192238,580.44 172.619816,622.88 146.521093,596.55 C146.521093,596.55 189.079921,603.95 209.04132,580.61 Z" id="Shape" fill="#000000" fill-rule="nonzero" opacity="0.1"></path>
            <path d="M228.197823,604.14 C228.197823,604.14 207.300734,603.91 204.886049,609.79 L204.64458,616 C205.827429,616.709145 207.29355,616.765772 208.528199,616.15 C210.681294,615.1 223.539493,609.21 227.875865,612.45 L228.197823,604.14 Z" id="Shape" fill="#000000" fill-rule="nonzero" opacity="0.1"></path>
            <path d="M227.805437,604.12 C227.805437,604.12 207.833977,603.9 205.519904,609.51 L205.288497,615.43 C206.41849,616.111329 207.822389,616.16427 209.001075,615.57 C211.013313,614.57 223.358392,608.96 227.503601,612.04 L227.805437,604.12 Z" id="Shape" fill="#656691" fill-rule="nonzero"></path>
            <path d="M218.549143,558.66 C216.223459,563.48064 213.328969,568.009135 209.926705,572.15 C206.208685,576.729122 201.76356,580.674329 196.76667,583.83 C196.76667,583.83 218.086329,561.46 218.549143,558.66 Z" id="Shape" fill="#000000" fill-rule="nonzero" opacity="0.1"></path>
            <path d="M226.30632,534.82 C226.30632,534.82 222.281844,549.63 213.075857,554.36 L226.30632,534.82 Z" id="Shape" fill="#000000" fill-rule="nonzero" opacity="0.1"></path>
            <path d="M231.588444,536.53 C231.689056,536.26 234.224476,548.47 219.303733,554.6 C219.303733,554.6 225.612098,552.73 231.588444,536.53 Z" id="Shape" fill="#000000" fill-rule="nonzero" opacity="0.1"></path>
            <path d="M140.846582,523.03 C141.07799,523.03 133.431486,527.48 131.318636,529.59 C131.368942,529.59 136.449843,522.55 140.846582,523.03 Z" id="Shape" fill="#000000" fill-rule="nonzero" opacity="0.1"></path>
            <path d="M188.466189,514.51 C188.277474,515.480352 187.727846,516.344411 186.926827,516.93 C186.376236,517.169748 185.776199,517.276001 185.17618,517.24 C179.551976,517.38 173.696364,517.4 168.595341,515.05 C167.640823,514.673259 166.794263,514.068817 166.13035,513.29 C165.244965,512.13 165.124231,510.6 164.812334,509.18 C164.18854,506.42 162.729668,503.93 161.713488,501.28 C160.002277,496.818474 159.560193,491.974752 160.435717,487.28 C160.637335,485.844744 161.171152,484.475531 161.995201,483.28 C163.564747,481.23 166.311451,480.48 168.343811,478.87 C170.376171,477.26 171.744493,474.74 174.098811,473.56 C176.211661,472.5 178.737019,472.73 181.061154,473.22 C185.623439,474.170384 189.960646,475.979575 193.838864,478.55 C195.136757,479.42 196.565446,480.41 198.114869,480.18 C199.443003,479.813628 200.602186,479.000773 201.394816,477.88 C202.391197,480.422934 202.756998,483.166907 202.461302,485.88 C202.390774,486.276929 202.390774,486.683071 202.461302,487.08 C202.633145,487.568436 202.907509,488.014975 203.266198,488.39 C204.584213,490.04 205.358925,492.6 203.930236,494.16 C203.306442,494.84 202.370752,495.16 201.76708,495.89 C200.680472,497.13 200.952124,498.99 200.911879,500.64 C200.948391,501.213588 200.784947,501.782163 200.449065,502.25 C199.814204,502.78428 198.946602,502.954476 198.155114,502.7 C197.379079,502.437153 196.558642,502.328427 195.740428,502.38 C194.867451,502.629512 194.105075,503.165217 193.577273,503.9 C190.850691,507.04 189.723837,510.61 188.466189,514.51 Z" id="Shape" fill="#2D293D" fill-rule="nonzero"></path>
            <g id="Group" opacity="0.1" transform="translate(165.003497, 477.000000)" fill="#000000" fill-rule="nonzero">
                <path d="M0.573487762,34.85 C1.23392753,35.6349297 2.08126324,36.2433636 3.03847902,36.62 C8.13950175,38.97 13.9951136,38.94 19.6193182,38.81 C20.2204399,38.8476394 20.8216489,38.7377446 21.369965,38.49 C22.1725727,37.9102843 22.7229815,37.0485733 22.9093269,36.08 C24.1468531,32.17 25.2938287,28.61 28.0204108,25.43 C28.5465767,24.6914822 29.3091461,24.1521169 30.1835664,23.9 C31.0015966,23.8534797 31.8210624,23.9620773 32.5982517,24.22 C33.3893702,24.4805267 34.2599977,24.3097374 34.8922028,23.77 C35.2288758,23.3063364 35.3925242,22.740586 35.3550175,22.17 C35.3550175,20.52 35.1236101,18.66 36.2102185,17.41 C36.8138899,16.72 37.7495804,16.41 38.3733741,15.69 C39.1984692,14.6512884 39.3875111,13.247849 38.8663724,12.03 C39.7920017,13.62 40.1441434,15.63 38.9368007,16.94 C38.313007,17.62 37.3873776,17.94 36.7736451,18.67 C35.6870367,19.91 35.96875,21.77 35.9285052,23.42 C35.9663618,23.9952482 35.7989188,24.5653413 35.4556294,25.03 C34.8216424,25.5660811 33.9530474,25.7364718 33.1616783,25.48 C32.3891132,25.2171818 31.5719695,25.1084388 30.7570542,25.16 C29.8789433,25.4100894 29.1125536,25.9496474 28.5838374,26.69 C25.8673164,29.86 24.7203409,33.43 23.4727535,37.33 C23.4372827,38.1387493 23.0621616,38.895637 22.4386682,39.4164905 C21.8151748,39.9373439 21.0004739,40.1744087 20.1928059,40.07 C14.5686014,40.2 8.71298951,40.22 3.60190559,37.87 C2.64818054,37.4918186 1.80194755,36.8876095 1.13691434,36.11 C0.804829084,35.653409 0.556212333,35.1422746 0.402447552,34.6 C0.452464767,34.6878555 0.509671219,34.771471 0.573487762,34.85 Z" id="Shape"></path>
                <path d="M37.4175612,9.56 C37.1679559,9.27119818 36.9889006,8.92895507 36.8943794,8.56 C36.8238511,8.1630712 36.8238511,7.7569288 36.8943794,7.36 C37.1374253,5.12215864 36.9322563,2.85863285 36.290708,0.7 L36.3913199,0.59 C37.3961573,3.1308058 37.7655788,5.87603778 37.4678671,8.59 C37.4219788,8.91119054 37.4051428,9.23582224 37.4175612,9.56 Z" id="Shape"></path>
            </g>
            <path d="M191.313505,525.73 C191.313505,525.73 168.172771,527.88 166.261145,524.36" id="Shape" fill="#000000" fill-rule="nonzero" opacity="0.1"></path>
            <path d="M146.973846,514.56 C146.973846,514.56 134.186075,514.09 131.197902,518.74" id="Shape" fill="#000000" fill-rule="nonzero" opacity="0.1"></path>
        </g>
    </g>
</svg>