<?xml version="1.0" encoding="UTF-8"?>
<svg width="560px" height="464px" viewBox="0 0 560 464" version="1.1" xmlns="http://www.w3.org/2000/svg" xmlns:xlink="http://www.w3.org/1999/xlink">
    <!-- Generator: Sketch 51.3 (57544) - http://www.bohemiancoding.com/sketch -->
    <title>undraw_mobile_apps_4wgf</title>
    <desc>Created with Sketch.</desc>
    <defs>
        <linearGradient x1="10.8549605%" y1="101.74029%" x2="89.1461511%" y2="-1.73567835%" id="linearGradient-1">
            <stop stop-color="#808080" stop-opacity="0.25" offset="0%"></stop>
            <stop stop-color="#808080" stop-opacity="0.12" offset="54%"></stop>
            <stop stop-color="#808080" stop-opacity="0.1" offset="100%"></stop>
        </linearGradient>
        <linearGradient x1="49.8838081%" y1="100%" x2="49.8838081%" y2="0.0522411741%" id="linearGradient-2">
            <stop stop-color="#808080" stop-opacity="0.25" offset="0%"></stop>
            <stop stop-color="#808080" stop-opacity="0.12" offset="54%"></stop>
            <stop stop-color="#808080" stop-opacity="0.1" offset="100%"></stop>
        </linearGradient>
        <linearGradient x1="50.0259293%" y1="100%" x2="50.0259293%" y2="0.000865642094%" id="linearGradient-3">
            <stop stop-color="#808080" stop-opacity="0.25" offset="0%"></stop>
            <stop stop-color="#808080" stop-opacity="0.12" offset="54%"></stop>
            <stop stop-color="#808080" stop-opacity="0.1" offset="100%"></stop>
        </linearGradient>
    </defs>
    <g id="Welcome" stroke="none" stroke-width="1" fill="none" fill-rule="evenodd">
        <g id="Full-HD-+-WebDev" transform="translate(-157.000000, -303.000000)">
            <g id="undraw_mobile_apps_4wgf" transform="translate(157.000000, 303.000000)">
                <path d="M129.996573,373.737382 C137.504625,374.275082 145.439617,377.109622 152.270664,373.677638 C154.033318,372.794749 155.631294,371.520201 157.461039,370.809907 C161.663352,369.176893 166.280408,370.763439 170.513217,372.29024 C203.650995,384.22811 237.713364,392.87764 272.283612,398.133012 C279.407417,399.215049 286.84228,400.124492 293.630632,397.60195 C298.595339,395.76315 302.895239,392.211678 307.811153,390.220198 C315.849831,386.974086 324.730191,388.18225 333.287297,388.693397 C355.700581,390.02284 378.124866,386.305381 399.158102,377.773448 L400.262048,377.315408 C410.885568,372.849895 422.869028,374.60261 432.032514,381.962195 C435.606559,384.81539 439.397708,387.331563 443.364732,389.48335 C456.704285,396.803933 462.27022,414.348071 455.922879,429.067333 L455.776499,429.412523 C452.287786,437.690441 449.378492,446.957461 442.541347,452.214968 C436.094547,457.173753 427.635028,457.37954 419.742729,457.399454 L371.297191,457.525581 C366.271493,457.525581 361.184803,457.525581 356.305484,456.237758 C351.920196,455.062785 347.839866,452.85888 343.79613,450.668252 L322.119756,438.964988 C313.391874,434.245181 303.82231,429.38597 294.271043,431.556683 C284.512405,433.773864 277.480086,442.702332 268.977873,448.331582 C255.785415,457.074179 238.244263,457.419369 224.771244,449.187919 C218.318344,445.244788 212.713227,439.49605 205.674809,437.019976 C194.049832,432.924166 181.699056,438.593246 169.738625,441.308296 C146.464274,446.592357 119.048601,439.363284 101.21469,421.884729 C78.2452962,399.367729 105.215732,371.971604 129.996573,373.737382 Z" id="Shape" fill="#F0E4E4" fill-rule="nonzero"></path>
                <path d="M42.4689411,412.204651 C42.4689411,412.204651 25.5496399,346.998246 45.6423998,298.954896 C54.0758955,278.801509 56.8773737,256.179283 52.9773905,234.30959 C51.1149916,223.929418 48.4184686,213.765064 44.9216876,203.944186" id="Shape" stroke="#535461" stroke-width="2"></path>
                <path d="M57.6909414,172.994106 C57.6909414,180.929856 44.2628774,203.944186 44.2628774,203.944186 C44.2628774,203.944186 30.8348135,180.929856 30.8348135,172.994106 C30.8348135,165.057305 36.8467625,158.623256 44.2628774,158.623256 C51.6789924,158.623256 57.6909414,165.057305 57.6909414,172.994106 Z" id="Shape" fill="#FB1D5C" fill-rule="nonzero"></path>
                <path d="M79.4287794,216.773106 C75.4414912,223.544831 52.7175844,235.237209 52.7175844,235.237209 C52.7175844,235.237209 53.1296445,207.670895 57.1169327,200.899171 C59.6975237,196.519683 64.2083951,193.985646 68.9503453,194.251609 C73.6922955,194.517571 77.9449095,197.543126 80.1062687,202.188576 C82.2676279,206.834027 82.0093704,212.393618 79.4287794,216.773106 Z" id="Shape" fill="#FB1D5C" fill-rule="nonzero"></path>
                <path d="M78.9420652,292.654004 C72.2497378,296.21855 46.749556,293.75934 46.749556,293.75934 C46.749556,293.75934 60.0537295,270.606139 66.7460569,267.041593 C71.0824506,264.683362 76.2829527,264.963655 80.3696675,267.775868 C84.4563822,270.588082 86.8012752,275.500042 86.5125183,280.643595 C86.2237614,285.787148 83.34573,290.371847 78.9730195,292.654004 L78.9420652,292.654004 Z" id="Shape" fill="#FB1D5C" fill-rule="nonzero"></path>
                <path d="M67.2508956,349.302886 C61.2459516,353.976786 35.8081705,356.093023 35.8081705,356.093023 C35.8081705,356.093023 45.1793356,331.087662 51.1781144,326.413763 C57.1829985,321.851155 65.5563957,323.223625 69.959931,329.492261 C74.3634663,335.760897 73.1584601,344.592963 67.2570608,349.302886 L67.2508956,349.302886 Z" id="Shape" fill="#FB1D5C" fill-rule="nonzero"></path>
                <path d="M23.9955793,235.934924 C29.424416,241.423406 54.7069272,247.106977 54.7069272,247.106977 C54.7069272,247.106977 48.5159293,220.965153 43.0870925,215.47667 C37.652322,210.03945 29.0188103,210.193764 23.7665733,215.822003 C18.5143363,221.450242 18.6166693,230.437844 23.9955793,235.934924 Z" id="Shape" fill="#FB1D5C" fill-rule="nonzero"></path>
                <path d="M10.9720604,303.427059 C17.5825438,307.024155 42.7708703,304.542489 42.7708703,304.542489 C42.7708703,304.542489 29.6294006,281.177863 23.0189172,277.580766 C16.452782,274.304626 8.66254005,277.2396 5.41165845,284.214302 C2.16077685,291.189004 4.62094836,299.68959 10.9720604,303.427059 Z" id="Shape" fill="#FB1D5C" fill-rule="nonzero"></path>
                <path d="M5.36011685,370.884282 C11.3650608,375.558181 36.8028419,377.674419 36.8028419,377.674419 C36.8028419,377.674419 27.4316768,352.669058 21.4328981,347.995158 C15.4280139,343.43255 7.05461674,344.805021 2.65108145,351.073657 C-1.75245384,357.342292 -0.547447648,366.174358 5.35395161,370.884282 L5.36011685,370.884282 Z" id="Shape" fill="#FB1D5C" fill-rule="nonzero"></path>
                <path d="M57.6909414,172.994106 C57.6909414,180.929856 44.2628774,203.944186 44.2628774,203.944186 C44.2628774,203.944186 30.8348135,180.929856 30.8348135,172.994106 C30.8348135,165.057305 36.8467625,158.623256 44.2628774,158.623256 C51.6789924,158.623256 57.6909414,165.057305 57.6909414,172.994106 Z" id="Shape" fill="#FB1D5C" fill-rule="nonzero" opacity="0.25"></path>
                <path d="M79.4287794,216.773106 C75.4414912,223.544831 52.7175844,235.237209 52.7175844,235.237209 C52.7175844,235.237209 53.1296445,207.670895 57.1169327,200.899171 C59.6975237,196.519683 64.2083951,193.985646 68.9503453,194.251609 C73.6922955,194.517571 77.9449095,197.543126 80.1062687,202.188576 C82.2676279,206.834027 82.0093704,212.393618 79.4287794,216.773106 Z" id="Shape" fill="#FB1D5C" fill-rule="nonzero" opacity="0.25"></path>
                <path d="M78.9420652,292.654004 C72.2497378,296.21855 46.749556,293.75934 46.749556,293.75934 C46.749556,293.75934 60.0537295,270.606139 66.7460569,267.041593 C71.0824506,264.683362 76.2829527,264.963655 80.3696675,267.775868 C84.4563822,270.588082 86.8012752,275.500042 86.5125183,280.643595 C86.2237614,285.787148 83.34573,290.371847 78.9730195,292.654004 L78.9420652,292.654004 Z" id="Shape" fill="#FB1D5C" fill-rule="nonzero" opacity="0.25"></path>
                <path d="M67.2508956,349.302886 C61.2459516,353.976786 35.8081705,356.093023 35.8081705,356.093023 C35.8081705,356.093023 45.1793356,331.087662 51.1781144,326.413763 C57.1829985,321.851155 65.5563957,323.223625 69.959931,329.492261 C74.3634663,335.760897 73.1584601,344.592963 67.2570608,349.302886 L67.2508956,349.302886 Z" id="Shape" fill="#FB1D5C" fill-rule="nonzero" opacity="0.25"></path>
                <path d="M23.9955793,235.934924 C29.424416,241.423406 54.7069272,247.106977 54.7069272,247.106977 C54.7069272,247.106977 48.5159293,220.965153 43.0870925,215.47667 C37.652322,210.03945 29.0188103,210.193764 23.7665733,215.822003 C18.5143363,221.450242 18.6166693,230.437844 23.9955793,235.934924 Z" id="Shape" fill="#FB1D5C" fill-rule="nonzero" opacity="0.25"></path>
                <path d="M10.9720604,303.427059 C17.5825438,307.024155 42.7708703,304.542489 42.7708703,304.542489 C42.7708703,304.542489 29.6294006,281.177863 23.0189172,277.580766 C16.452782,274.304626 8.66254005,277.2396 5.41165845,284.214302 C2.16077685,291.189004 4.62094836,299.68959 10.9720604,303.427059 Z" id="Shape" fill="#FB1D5C" fill-rule="nonzero" opacity="0.25"></path>
                <path d="M5.36011685,370.884282 C11.3650608,375.558181 36.8028419,377.674419 36.8028419,377.674419 C36.8028419,377.674419 27.4316768,352.669058 21.4328981,347.995158 C15.4280139,343.43255 7.05461674,344.805021 2.65108145,351.073657 C-1.75245384,357.342292 -0.547447648,366.174358 5.35395161,370.884282 L5.36011685,370.884282 Z" id="Shape" fill="#FB1D5C" fill-rule="nonzero" opacity="0.25"></path>
                <path d="M365.528258,230.449308 C363.278335,211.297688 370.326067,191.584727 366.136346,172.835952 C362.913483,158.353364 353.366512,146.261428 350.228782,131.752424 C345.61948,110.249778 356.163714,88.1659785 369.620686,71.6559611 C378.875775,60.2772571 390.490242,49.9485903 404.33639,47.8815361 C412.886097,46.5607347 421.672959,48.6013729 429.565932,52.3854688 C445.791208,60.2857329 458.259659,75.1594164 463.983673,93.44258 C465.807935,99.3201462 466.859926,105.468477 469.103768,111.167735 C472.965123,120.987893 480.04934,128.912701 484.457973,138.462095 C490.399258,151.54224 490.986538,166.736819 486.075485,180.311687 C480.973633,194.140478 470.265215,205.710698 468.684188,220.510278 C467.534903,231.175749 471.219912,242.858237 466.434265,252.255739 C462.822227,259.348443 455.385319,262.927814 448.343668,265.609041 C431.961796,271.816808 409.061228,281.854898 392.642871,272.2989 C378.279849,263.944831 367.607917,248.128235 365.528258,230.449308 Z" id="Shape" fill="#FF8FAE" fill-rule="nonzero"></path>
                <path d="M410.79929,244.948837 C410.79929,244.948837 435.16751,234.431008 438.239651,228.514729 C441.311792,222.59845 445.612789,187.75814 445.612789,187.75814" id="Shape" stroke="#333333" stroke-width="3"></path>
                <path d="M410.79929,405.730233 L410.79929,178.046512" id="Shape" stroke="#333333" stroke-width="3"></path>
                <g id="Group" opacity="0.5" transform="translate(172.078153, 0.000000)" fill="url(#linearGradient-1)" fill-rule="nonzero">
                    <path d="M211.301179,1.17375727e-15 L8.47888678,0.535185403 C6.26897172,0.54043667 4.15149551,1.4963718 2.59228147,3.19269473 C1.03306742,4.88901767 0.159839071,7.18677358 0.164697801,9.58047943 L1.0857855,420.450902 C1.09063175,422.845756 1.9740071,425.140339 3.54140521,426.829417 C5.10880333,428.518496 7.23170343,429.463572 9.44267392,429.456553 L212.264966,428.921368 C214.474881,428.916116 216.592357,427.960181 218.151571,426.263858 C219.710785,424.567535 220.584013,422.269779 220.579155,419.876074 L219.664167,9.00565066 C219.659324,6.60964843 218.775111,4.31406085 217.206392,2.62479212 C215.637673,0.935523384 213.513204,-0.00877590402 211.301179,1.17375727e-15 Z" id="Shape"></path>
                </g>
                <rect id="Rectangle-path" fill="#454545" fill-rule="nonzero" transform="translate(281.989343, 214.195349) rotate(-0.140000) translate(-281.989343, -214.195349) " x="175.062167" y="5.39534884" width="213.854352" height="417.6" rx="13.64"></rect>
                <path d="M383.94314,402.933445 C383.953271,407.771 380.329552,411.702481 375.84716,411.717018 L189.016833,412.204628 C184.534432,412.215562 180.891583,408.304726 180.878113,403.467181 L180.749896,344.32797 L180.035545,25.4572526 C180.025414,20.619698 183.649133,16.6882163 188.131526,16.6736796 L227.20715,16.5748397 C228.506777,25.6851858 235.761794,32.4160622 244.302735,32.43535 L318.131242,32.2442595 C326.696752,32.2119571 333.957052,25.4345805 335.220722,16.2914986 L374.906902,16.1860694 C379.389304,16.1751357 383.032153,20.085972 383.045622,24.9235171 L383.808818,344.32797 L383.94314,402.933445 Z" id="Shape" fill="#FFFFFF" fill-rule="nonzero"></path>
                <path d="M382.948469,402.919142 C382.958586,407.76416 379.339866,411.701707 374.863656,411.716266 L188.291057,412.204628 C183.814838,412.215579 180.177015,408.298709 180.163564,403.453701 L180.035524,344.223256 L382.814332,344.223256 L382.948469,402.919142 Z" id="Shape" fill="#F4F4F4" fill-rule="nonzero"></path>
                <rect id="Rectangle-path" fill="#FFFFFF" fill-rule="nonzero" transform="translate(279.005329, 22.120930) rotate(-0.860000) translate(-279.005329, -22.120930) " x="255.630551" y="20.5023256" width="46.749556" height="3.2372093" rx="1.61860465"></rect>
                <ellipse id="Oval" fill="#FFFFFF" fill-rule="nonzero" transform="translate(312.824156, 21.041860) rotate(-0.860000) translate(-312.824156, -21.041860) " cx="312.824156" cy="21.0418605" rx="1.4920071" ry="1.61860465"></ellipse>
                <path d="M436.150492,230.448758 C433.900492,211.297195 440.948466,191.584294 436.7586,172.835575 C433.535627,158.353031 423.988328,146.261131 420.850489,131.752171 C416.241029,110.249589 426.785626,88.1658562 440.243061,71.6558884 C449.498468,60.2772187 461.113335,49.9485829 474.959959,47.8815349 C483.509961,46.5607375 492.297125,48.6013695 500.19037,52.3854541 C516.416204,60.2856944 528.885085,75.1593332 534.609296,93.4424418 C536.43362,99.3199904 537.485647,105.468302 539.729567,111.167543 C543.591054,120.987672 550.675515,128.912457 555.0843,138.461822 C561.026997,151.552135 561.607737,166.757922 556.683624,180.337704 C551.581596,194.166453 540.87281,205.736638 539.291729,220.536173 C538.142404,231.201613 541.82754,242.884066 537.041728,252.281539 C533.429566,259.374222 525.992402,262.953583 518.950509,265.634801 C502.586316,271.816133 479.68496,281.854194 463.266038,272.298224 C448.902522,263.944181 438.230222,248.127631 436.150492,230.448758 Z" id="Shape" fill="#FB1D5C" fill-rule="nonzero"></path>
                <path d="M436.150492,230.448758 C433.900492,211.297195 440.948466,191.584294 436.7586,172.835575 C433.535627,158.353031 423.988328,146.261131 420.850489,131.752171 C416.241029,110.249589 426.785626,88.1658562 440.243061,71.6558884 C449.498468,60.2772187 461.113335,49.9485829 474.959959,47.8815349 C483.509961,46.5607375 492.297125,48.6013695 500.19037,52.3854541 C516.416204,60.2856944 528.885085,75.1593332 534.609296,93.4424418 C536.43362,99.3199904 537.485647,105.468302 539.729567,111.167543 C543.591054,120.987672 550.675515,128.912457 555.0843,138.461822 C561.026997,151.552135 561.607737,166.757922 556.683624,180.337704 C551.581596,194.166453 540.87281,205.736638 539.291729,220.536173 C538.142404,231.201613 541.82754,242.884066 537.041728,252.281539 C533.429566,259.374222 525.992402,262.953583 518.950509,265.634801 C502.586316,271.816133 479.68496,281.854194 463.266038,272.298224 C448.902522,263.944181 438.230222,248.127631 436.150492,230.448758 Z" id="Shape" fill="#FB1D5C" fill-rule="nonzero" opacity="0.2"></path>
                <path d="M481.420959,244.948837 C481.420959,244.948837 505.78918,234.431008 508.86132,228.514729 C511.933461,222.59845 516.234458,187.75814 516.234458,187.75814" id="Shape" stroke="#333333" stroke-width="3"></path>
                <path d="M481.420959,405.730233 L481.420959,178.046512" id="Shape" stroke="#333333" stroke-width="3"></path>
                <path d="M85.7195544,437.023256 C85.7195544,437.023256 77.6903686,408.630291 87.2218707,387.718501 C91.2751678,378.981447 92.4978083,369.110812 90.7062343,359.588496 C89.8212505,355.073668 88.5408202,350.652812 86.881009,346.381395" id="Shape" stroke="#535461" stroke-width="2"></path>
                <path d="M93.4928855,333.117673 C93.4928855,336.517145 87.5279703,346.381395 87.5279703,346.381395 C87.5279703,346.381395 81.5630551,336.517145 81.5630551,333.117673 C81.5630551,329.715857 84.2350324,326.95814 87.5310835,326.95814 C90.8271346,326.95814 93.4991119,329.715857 93.4991119,333.117673 L93.4928855,333.117673 Z" id="Shape" fill="#FB1D5C" fill-rule="nonzero"></path>
                <path d="M103.483301,352.634628 C101.692866,355.482776 91.5097691,360.409302 91.5097691,360.409302 C91.5097691,360.409302 91.6962727,348.805024 93.4804906,345.950461 C94.6376545,344.106733 96.6601805,343.040056 98.7862027,343.152236 C100.912225,343.264417 102.81875,344.538412 103.787608,346.49432 C104.756466,348.450228 104.640465,350.7909 103.483301,352.634628 Z" id="Shape" fill="#FB1D5C" fill-rule="nonzero"></path>
                <path d="M101.261812,386.525726 C98.407028,388.112055 87.5310835,387.018954 87.5310835,387.018954 C87.5310835,387.018954 93.1984042,376.707812 96.0531887,375.121483 C97.8978787,374.093967 100.098822,374.231321 101.826944,375.481806 C103.555066,376.732291 104.547824,378.905927 104.431256,381.183928 C104.314687,383.461928 103.106503,385.49821 101.261812,386.525726 Z" id="Shape" fill="#FB1D5C" fill-rule="nonzero"></path>
                <path d="M97.099927,411.432806 C94.5107627,413.45238 83.5523979,414.362791 83.5523979,414.362791 C83.5523979,414.362791 87.5880907,403.572497 90.1772551,401.540101 C92.7635957,399.521795 96.4112923,400.097322 98.3246136,402.825576 C100.237935,405.55383 99.6923452,409.401677 97.1060049,411.419983 L97.099927,411.432806 Z" id="Shape" fill="#FB1D5C" fill-rule="nonzero"></path>
                <path d="M79.3631892,361.81198 C81.6879916,364.303954 92.5044405,366.883721 92.5044405,366.883721 C92.5044405,366.883721 89.8553894,355.018143 87.530587,352.526169 C86.0279076,350.915673 83.8610259,350.312446 81.8461853,350.943718 C79.8313447,351.57499 78.2746474,353.344856 77.7624863,355.586624 C77.2503252,357.828392 77.8605097,360.201484 79.3631892,361.81198 Z" id="Shape" fill="#FB1D5C" fill-rule="nonzero"></path>
                <path d="M72.8066742,390.842096 C75.6612526,392.428258 86.5364121,391.335272 86.5364121,391.335272 C86.5364121,391.335272 80.8695005,381.02522 78.014922,379.439058 C75.1634842,377.850825 71.6860312,379.115964 70.2478133,382.264826 C68.8095954,385.413688 69.9552364,389.253862 72.8066742,390.842096 Z" id="Shape" fill="#FB1D5C" fill-rule="nonzero"></path>
                <path d="M70.004869,420.065364 C72.5940333,422.084938 83.5523979,422.995349 83.5523979,422.995349 C83.5523979,422.995349 79.5167051,412.205056 76.9275408,410.172659 C74.3412002,408.154353 70.6935035,408.72988 68.7801821,411.458134 C66.8668607,414.186388 67.4124506,418.034236 69.9987911,420.052542 L70.004869,420.065364 Z" id="Shape" fill="#FB1D5C" fill-rule="nonzero"></path>
                <path d="M93.4928855,333.117673 C93.4928855,336.517145 87.5279703,346.381395 87.5279703,346.381395 C87.5279703,346.381395 81.5630551,336.517145 81.5630551,333.117673 C81.5630551,329.715857 84.2350324,326.95814 87.5310835,326.95814 C90.8271346,326.95814 93.4991119,329.715857 93.4991119,333.117673 L93.4928855,333.117673 Z" id="Shape" fill="#FB1D5C" fill-rule="nonzero" opacity="0.25"></path>
                <path d="M103.483301,352.634628 C101.692866,355.482776 91.5097691,360.409302 91.5097691,360.409302 C91.5097691,360.409302 91.6962727,348.805024 93.4804906,345.950461 C94.6376545,344.106733 96.6601805,343.040056 98.7862027,343.152236 C100.912225,343.264417 102.81875,344.538412 103.787608,346.49432 C104.756466,348.450228 104.640465,350.7909 103.483301,352.634628 Z" id="Shape" fill="#FB1D5C" fill-rule="nonzero" opacity="0.25"></path>
                <path d="M101.261812,386.525726 C98.407028,388.112055 87.5310835,387.018954 87.5310835,387.018954 C87.5310835,387.018954 93.1984042,376.707812 96.0531887,375.121483 C97.8978787,374.093967 100.098822,374.231321 101.826944,375.481806 C103.555066,376.732291 104.547824,378.905927 104.431256,381.183928 C104.314687,383.461928 103.106503,385.49821 101.261812,386.525726 Z" id="Shape" fill="#FB1D5C" fill-rule="nonzero" opacity="0.25"></path>
                <path d="M97.099927,411.432806 C94.5107627,413.45238 83.5523979,414.362791 83.5523979,414.362791 C83.5523979,414.362791 87.5880907,403.572497 90.1772551,401.540101 C92.7635957,399.521795 96.4112923,400.097322 98.3246136,402.825576 C100.237935,405.55383 99.6923452,409.401677 97.1060049,411.419983 L97.099927,411.432806 Z" id="Shape" fill="#FB1D5C" fill-rule="nonzero" opacity="0.25"></path>
                <path d="M79.3631892,361.81198 C81.6879916,364.303954 92.5044405,366.883721 92.5044405,366.883721 C92.5044405,366.883721 89.8553894,355.018143 87.530587,352.526169 C86.0279076,350.915673 83.8610259,350.312446 81.8461853,350.943718 C79.8313447,351.57499 78.2746474,353.344856 77.7624863,355.586624 C77.2503252,357.828392 77.8605097,360.201484 79.3631892,361.81198 Z" id="Shape" fill="#FB1D5C" fill-rule="nonzero" opacity="0.25"></path>
                <path d="M72.8066742,390.842096 C75.6612526,392.428258 86.5364121,391.335272 86.5364121,391.335272 C86.5364121,391.335272 80.8695005,381.02522 78.014922,379.439058 C75.1634842,377.850825 71.6860312,379.115964 70.2478133,382.264826 C68.8095954,385.413688 69.9552364,389.253862 72.8066742,390.842096 Z" id="Shape" fill="#FB1D5C" fill-rule="nonzero" opacity="0.25"></path>
                <path d="M70.004869,420.065364 C72.5940333,422.084938 83.5523979,422.995349 83.5523979,422.995349 C83.5523979,422.995349 79.5167051,412.205056 76.9275408,410.172659 C74.3412002,408.154353 70.6935035,408.72988 68.7801821,411.458134 C66.8668607,414.186388 67.4124506,418.034236 69.9987911,420.052542 L70.004869,420.065364 Z" id="Shape" fill="#FB1D5C" fill-rule="nonzero" opacity="0.25"></path>
                <path d="M515.111171,422.995349 C515.111171,422.995349 505.314315,387.497138 516.976055,361.367801 C521.917597,350.444388 523.407344,338.105112 521.221774,326.20135 C520.141221,320.557944 518.578548,315.032074 516.553348,309.693023" id="Shape" stroke="#535461" stroke-width="2"></path>
                <path d="M523.191295,292.745187 C523.191295,297.093165 516.231527,309.693023 516.231527,309.693023 C516.231527,309.693023 509.271758,297.099793 509.271758,292.745187 C509.271758,288.398282 512.389065,284.874419 516.234458,284.874419 C520.079851,284.874419 523.197158,288.398282 523.197158,292.745187 L523.191295,292.745187 Z" id="Shape" fill="#FB1D5C" fill-rule="nonzero"></path>
                <path d="M535.943338,316.169213 C533.744743,319.729494 521.207815,325.87907 521.207815,325.87907 C521.207815,325.87907 521.436321,311.372543 523.634915,307.805789 C525.836596,304.243231 530.376745,303.225975 533.775622,305.533683 C537.174499,307.841391 538.145019,312.600181 535.943338,316.162739 L535.943338,316.169213 Z" id="Shape" fill="#FB1D5C" fill-rule="nonzero"></path>
                <path d="M535.990314,358.243416 C532.302092,360.258087 518.223801,358.854533 518.223801,358.854533 C518.223801,358.854533 525.556113,345.987505 529.250639,343.999697 C532.941521,342.017287 537.442299,343.597288 539.303408,347.528728 C541.164518,351.460168 539.681195,356.25429 535.990314,358.236701 L535.990314,358.243416 Z" id="Shape" fill="#FB1D5C" fill-rule="nonzero"></path>
                <path d="M527.355304,388.093474 C524.28447,390.580139 511.261101,391.702326 511.261101,391.702326 C511.261101,391.702326 516.056731,378.408236 519.127565,375.921571 C522.199308,373.435462 526.531289,374.144845 528.803316,377.506023 C531.075344,380.867201 530.427047,385.607364 527.355304,388.093474 Z" id="Shape" fill="#FB1D5C" fill-rule="nonzero"></path>
                <path d="M506.272299,327.290837 C509.084916,330.308866 522.202487,333.432558 522.202487,333.432558 C522.202487,333.432558 518.988921,319.055647 516.176304,316.044223 C513.342982,313.205746 508.981354,313.354276 506.312014,316.380138 C503.642674,319.406 503.625113,324.221552 506.272299,327.271025 L506.272299,327.290837 Z" id="Shape" fill="#FB1D5C" fill-rule="nonzero"></path>
                <path d="M498.466663,363.63865 C502.155151,365.653534 516.234458,364.249832 516.234458,364.249832 C516.234458,364.249832 508.901617,351.381444 505.206824,349.393426 C502.819069,348.110896 499.97036,348.282711 497.733776,349.844151 C495.497193,351.405591 494.212525,354.119436 494.363696,356.963405 C494.514866,359.807375 496.078909,362.349404 498.466663,363.631934 L498.466663,363.63865 Z" id="Shape" fill="#FB1D5C" fill-rule="nonzero"></path>
                <path d="M495.166898,399.963242 C498.237733,402.449906 511.261101,403.572093 511.261101,403.572093 C511.261101,403.572093 506.465472,390.278003 503.394637,387.791339 C500.322895,385.305229 495.990914,386.014612 493.718886,389.37579 C491.446859,392.736969 492.095156,397.477132 495.166898,399.963242 Z" id="Shape" fill="#FB1D5C" fill-rule="nonzero"></path>
                <path d="M523.191295,292.745187 C523.191295,297.093165 516.231527,309.693023 516.231527,309.693023 C516.231527,309.693023 509.271758,297.099793 509.271758,292.745187 C509.271758,288.398282 512.389065,284.874419 516.234458,284.874419 C520.079851,284.874419 523.197158,288.398282 523.197158,292.745187 L523.191295,292.745187 Z" id="Shape" fill="#FFFFFF" fill-rule="nonzero" opacity="0.5"></path>
                <path d="M535.943338,316.169213 C533.744743,319.729494 521.207815,325.87907 521.207815,325.87907 C521.207815,325.87907 521.436321,311.372543 523.634915,307.805789 C525.836596,304.243231 530.376745,303.225975 533.775622,305.533683 C537.174499,307.841391 538.145019,312.600181 535.943338,316.162739 L535.943338,316.169213 Z" id="Shape" fill="#FFFFFF" fill-rule="nonzero" opacity="0.5"></path>
                <path d="M535.990314,358.243416 C532.302092,360.258087 518.223801,358.854533 518.223801,358.854533 C518.223801,358.854533 525.556113,345.987505 529.250639,343.999697 C532.941521,342.017287 537.442299,343.597288 539.303408,347.528728 C541.164518,351.460168 539.681195,356.25429 535.990314,358.236701 L535.990314,358.243416 Z" id="Shape" fill="#FFFFFF" fill-rule="nonzero" opacity="0.5"></path>
                <path d="M527.355304,388.093474 C524.28447,390.580139 511.261101,391.702326 511.261101,391.702326 C511.261101,391.702326 516.056731,378.408236 519.127565,375.921571 C522.199308,373.435462 526.531289,374.144845 528.803316,377.506023 C531.075344,380.867201 530.427047,385.607364 527.355304,388.093474 Z" id="Shape" fill="#FFFFFF" fill-rule="nonzero" opacity="0.5"></path>
                <path d="M506.272299,327.290837 C509.084916,330.308866 522.202487,333.432558 522.202487,333.432558 C522.202487,333.432558 518.988921,319.055647 516.176304,316.044223 C513.342982,313.205746 508.981354,313.354276 506.312014,316.380138 C503.642674,319.406 503.625113,324.221552 506.272299,327.271025 L506.272299,327.290837 Z" id="Shape" fill="#FFFFFF" fill-rule="nonzero" opacity="0.5"></path>
                <path d="M498.466663,363.63865 C502.155151,365.653534 516.234458,364.249832 516.234458,364.249832 C516.234458,364.249832 508.901617,351.381444 505.206824,349.393426 C502.819069,348.110896 499.97036,348.282711 497.733776,349.844151 C495.497193,351.405591 494.212525,354.119436 494.363696,356.963405 C494.514866,359.807375 496.078909,362.349404 498.466663,363.631934 L498.466663,363.63865 Z" id="Shape" fill="#FFFFFF" fill-rule="nonzero" opacity="0.5"></path>
                <path d="M495.166898,399.963242 C498.237733,402.449906 511.261101,403.572093 511.261101,403.572093 C511.261101,403.572093 506.465472,390.278003 503.394637,387.791339 C500.322895,385.305229 495.990914,386.014612 493.718886,389.37579 C491.446859,392.736969 492.095156,397.477132 495.166898,399.963242 Z" id="Shape" fill="#FFFFFF" fill-rule="nonzero" opacity="0.5"></path>
                <g id="Group" opacity="0.6" transform="translate(189.982238, 65.823256)" fill="#FB1D5C" fill-rule="nonzero">
                    <rect id="Rectangle-path" x="0.055135097" y="0.571076923" width="39.2071801" height="42.4987478" rx="10.5"></rect>
                    <rect id="Rectangle-path" x="96.8478609" y="0.571076923" width="39.2071801" height="42.4987478" rx="10.5"></rect>
                    <rect id="Rectangle-path" x="145.244224" y="0.571076923" width="39.2071801" height="42.4987478" rx="10.5"></rect>
                </g>
                <rect id="Rectangle-path" fill="#FB1D5C" fill-rule="nonzero" x="189.982238" y="130.567442" width="38.7921847" height="42.0837209" rx="10.5"></rect>
                <rect id="Rectangle-path" fill="#FB1D5C" fill-rule="nonzero" opacity="0.6" x="237.726465" y="130.567442" width="38.7921847" height="42.0837209" rx="10.5"></rect>
                <rect id="Rectangle-path" fill="#FB1D5C" fill-rule="nonzero" opacity="0.6" x="286.465364" y="130.567442" width="38.7921847" height="42.0837209" rx="10.5"></rect>
                <rect id="Rectangle-path" fill="#FB1D5C" fill-rule="nonzero" opacity="0.6" x="335.204263" y="130.567442" width="38.7921847" height="42.0837209" rx="10.5"></rect>
                <g id="Group" opacity="0.6" transform="translate(189.982238, 193.153488)" fill="#FB1D5C" fill-rule="nonzero">
                    <rect id="Rectangle-path" x="0.263423241" y="0.571076923" width="39.2071801" height="42.4987478" rx="10.5"></rect>
                    <rect id="Rectangle-path" x="48.6597862" y="0.571076923" width="39.2071801" height="42.4987478" rx="10.5"></rect>
                    <rect id="Rectangle-path" x="145.452512" y="0.571076923" width="39.2071801" height="42.4987478" rx="10.5"></rect>
                </g>
                <rect id="Rectangle-path" fill="#2A1EBD" fill-rule="nonzero" x="238.433736" y="66.3943327" width="39.2071801" height="42.4987478" rx="10.5"></rect>
                <rect id="Rectangle-path" fill="#FFDD00" fill-rule="nonzero" x="287.038387" y="193.724565" width="39.2071801" height="42.4987478" rx="10.5"></rect>
                <g id="Group" opacity="0.6" transform="translate(189.982238, 256.818605)" fill="#FB1D5C" fill-rule="nonzero">
                    <rect id="Rectangle-path" x="0.0673873408" y="0.571076923" width="39.2071801" height="42.4987478" rx="10.5"></rect>
                    <rect id="Rectangle-path" x="48.4637502" y="0.571076923" width="39.2071801" height="42.4987478" rx="10.5"></rect>
                    <rect id="Rectangle-path" x="96.8601132" y="0.571076923" width="39.2071801" height="42.4987478" rx="10.5"></rect>
                    <rect id="Rectangle-path" x="145.256476" y="0.571076923" width="39.2071801" height="42.4987478" rx="10.5"></rect>
                </g>
                <path d="M209.957911,178.574838 L209.957911,182.362791 L194.955595,172.270321 L196.537053,170.166631 L197.269324,170.62538 L208.881043,152.50481 L208.881043,141.966699 L213.305434,142.386127 L213.305434,140.701864 C224.997149,126.402015 226.172474,142.386127 223.766442,147.012934 C221.36041,151.639741 216.929866,155.001713 216.929866,155.001713 C214.468452,157.203707 210.160978,173.849727 209.121031,178.02434 L209.957911,178.574838 Z" id="Shape" fill="url(#linearGradient-2)" fill-rule="nonzero"></path>
                <path d="M97.1157407,211.688452 C97.1157407,211.688452 108.475974,235.731015 104.947648,259.773578 C103.7634,267.856 104.257854,272.795258 105.442102,275.806356 C105.115785,279.061255 104.290578,282.234632 103.000354,285.196229 C98.6906682,294.942678 98.6906682,305.111738 104.172393,316.977843 L105.741216,378.3884 C105.741216,378.3884 107.700719,407.198536 105.741216,413.13489 C103.781713,419.071244 106.522575,447.471976 106.522575,447.471976 L106.131895,447.471976 L106.131895,463.148176 L135.481707,464 C135.481707,464 142.361332,460.467242 143.582206,457.825928 L158.330365,462.732169 C158.330365,462.732169 174.561885,459.707864 165.045172,455.521381 C157.957998,452.40463 156.199939,447.947412 155.760425,445.887187 L178.957031,373.739687 C178.957031,373.739687 174.647346,312.32913 158.977428,291.112773 L157.390292,278.619356 L157.610049,278.619356 L160.936931,205.672858 L161.211627,205.712478 L161.13227,205.712478 C169.709263,207.195126 178.459482,207.049883 186.990382,205.283264 C189.548749,204.791336 192.05712,204.032827 194.480445,203.018337 L194.926064,202.826842 L194.974899,202.826842 L195.017629,202.826842 C196.833235,202.021853 198.54455,200.965302 200.108674,199.683678 L209.875666,183.499025 L194.993212,172.405505 L189.902167,180.263415 C189.902167,180.263415 173.951448,176.618401 165.191677,172.775289 C161.113908,170.974352 156.774268,169.96619 152.372499,169.797207 L142.806951,169.440629 L138.039438,166.343688 L139.528904,162.177015 C139.675409,162.104379 139.821914,162.031743 139.968419,161.9459 L140.102715,161.054457 C152.345485,157.765711 159.808049,144.366745 156.77375,131.121762 L157.085073,131.121762 C156.950777,122.537491 154.521238,121.698873 154.521238,121.698873 C154.521238,112.96933 147.47069,106.583952 139.437339,105.850988 C135.277342,105.540997 131.098129,105.937596 127.051572,107.026373 C121.10188,108.563055 116.697028,113.995 116.063706,120.576315 C105.570293,123.699669 109.086411,129.642626 108.921593,131.92076 C108.115816,143.01428 111.363341,149.571343 114.964919,153.394645 C116.48946,155.117344 118.280561,156.538616 120.257408,157.594335 L117.968269,162.553402 L117.296788,162.553402 L115.428851,168.49636 L115.337286,168.49636 L113.298426,169.922669 C100.718613,179.135812 94.3680199,195.526015 97.1157407,211.688452 Z M128.449473,447.471976 L128.449473,428.40829 L135.8907,372.055849 L135.8907,343.23911 L149.21654,373.30387 L134.87127,438.51792 L134.120433,438.293409 L130.817968,451.130196 C129.741105,450.162395 128.925066,448.898738 128.455577,447.471976 L128.449473,447.471976 Z" id="Shape" fill="url(#linearGradient-3)" fill-rule="nonzero"></path>
                <path d="M207.366211,147.203335 L207.366211,157.495183 L195.950266,175.460836 L207.366211,183.44186 C207.366211,183.44186 212.439964,162.444086 215.175811,159.972974 C215.175811,159.972974 219.472334,156.680384 221.81024,152.152238 C224.148146,147.624092 222.979193,131.975942 211.656516,145.974458 L211.656516,147.624092 L207.366211,147.203335 Z" id="Shape" fill="#FDA57D" fill-rule="nonzero"></path>
                <path d="M118.537335,171.568269 L123.027684,161.677593 C123.294564,161.085689 123.830503,160.69826 124.42976,160.664037 L141.483202,159.7049 C142.046359,159.672012 142.586218,159.955976 142.916951,160.459046 C143.247684,160.962117 143.324134,161.615606 143.119986,162.194575 L138.722286,174.717775 C138.455162,175.479447 137.762153,175.954037 137.023736,175.880984 L119.883822,174.200794 C119.337124,174.148573 118.849098,173.802431 118.579773,173.275874 C118.310449,172.749316 118.294567,172.110263 118.537335,171.568269 Z" id="Shape" fill="#FDA57D" fill-rule="nonzero"></path>
                <polygon id="Shape" fill="#EDEEF9" fill-rule="nonzero" points="120.180305 167.255814 117.371226 176.967442 146.216696 175.745542 135.136106 167.90561"></polygon>
                <polygon id="Shape" fill="#EDEEF9" fill-rule="nonzero" points="193.960924 176.853983 195.423626 174.809302 207.886323 182.994662 207.886323 186.67907"></polygon>
                <path d="M108.442126,266.530233 C109.631591,272.829329 108.931727,279.372432 106.443513,285.215494 C102.274099,294.604474 102.274099,304.417217 107.581185,315.832309 L109.100131,375.026583 C109.100131,375.026583 110.994201,402.789625 109.100131,408.503792 C107.206061,414.21796 109.84423,441.577103 109.84423,441.577103 L131.078726,441.577103 L131.078726,423.203042 L138.279883,368.908517 L138.279883,341.138855 L151.193999,370.126834 L136.435009,437.081252 L155.769286,445.655814 L180.035524,370.537353 C180.035524,370.537353 175.829212,311.343079 160.66435,290.936283 L157.810946,268.68215 L108.442126,266.530233 Z" id="Shape" fill="#2B1DC2" fill-rule="nonzero"></path>
                <path d="M108.419183,455.611971 L108.419183,440.260465 L130.246921,440.260465 C130.246921,440.260465 131.781198,446.485868 141.738473,447.730948 C151.695748,448.976029 137.141852,456.446512 137.141852,456.446512 L108.419183,455.611971 Z" id="Shape" fill="#333333" fill-rule="nonzero"></path>
                <path d="M132.291297,447.389849 L136.075918,432.706977 L157.015013,439.00059 C157.015013,439.00059 156.946989,445.387639 166.1921,449.445451 C175.437211,453.503263 159.637038,456.446512 159.637038,456.446512 L132.291297,447.389849 Z" id="Shape" fill="#333333" fill-rule="nonzero"></path>
                <path d="M156.847767,269.766465 L107.424512,267.609302 C108.03667,270.787154 108.163503,274.051464 107.800003,277.273391 C110.059105,283.008125 114.909713,281.441693 114.909713,281.441693 L158.152753,280.00801 L156.847767,269.766465 Z" id="Shape" fill="#000000" fill-rule="nonzero" opacity="0.1"></path>
                <path d="M117.476301,173.730233 L115.533305,175.154077 C103.519083,183.947821 97.4513345,199.584859 100.068273,215.008609 C100.068273,215.008609 110.924762,237.973848 107.554878,260.939087 C104.184995,283.904327 115.041484,280.361118 115.041484,280.361118 L157.908829,278.937273 L161.090484,209.286984 C161.090484,209.286984 186.920184,213.25669 198.529584,203.545674 L207.886323,188.093349 L193.659951,177.483409 L188.802462,184.989761 C188.802462,184.989761 173.556016,181.512168 165.182919,177.83773 C161.277508,176.115845 157.121053,175.153988 152.905614,174.996601 L117.476301,173.730233 Z" id="Shape" fill="#E6E6E6" fill-rule="nonzero"></path>
                <path d="M118.547977,285.953488 C118.547977,285.953488 115.84163,300.573435 131.296625,324.8" id="Shape" fill="#000000" fill-rule="nonzero" opacity="0.1"></path>
                <path d="M162.131439,208.50818 C162.131439,208.50818 179.747294,202.865116 187.456835,202.865116 C195.166377,202.865116 193.880461,206.064379 193.880461,206.064379 C193.880461,206.064379 181.604728,211.329712 162.131439,208.50818 Z" id="Shape" fill="#000000" fill-rule="nonzero" opacity="0.1"></path>
                <path d="M141.459654,160.783772 L133.872103,161.687295 C133.633784,161.687295 133.414789,162.014101 133.285968,162.481882 C134.954199,165.4744 137.041097,167.255814 139.308345,167.255814 C140.117613,167.243507 140.909859,167.022729 141.607798,166.615018 L142.187492,163.122678 C142.380723,161.962837 141.994261,160.719692 141.459654,160.783772 Z" id="Shape" fill="#000000" fill-rule="nonzero" opacity="0.1"></path>
                <ellipse id="Oval" fill="#FDA57D" fill-rule="nonzero" cx="135.275311" cy="142.437209" rx="21.8827709" ry="23.7395349"></ellipse>
                <path d="M154.17406,129.464467 L153.067637,130.556907 C152.125607,131.500838 151.688825,132.905609 151.90926,134.282463 C152.129695,135.659317 152.976866,136.817874 154.156021,137.355042 C154.156021,137.355042 144.468799,147.956974 143.121848,149.924682 C141.774897,151.89239 143.344335,157.071608 143.344335,157.071608 C143.344335,157.071608 147.625715,165.699251 125.100368,163.724962 C125.100368,163.724962 110.235803,160.276537 111.811255,138.335605 C111.967597,136.137564 108.660352,130.438449 118.570062,127.490178 C119.178544,121.177604 123.368589,115.976796 129.014943,114.52568 C132.845848,113.482853 136.802356,113.103137 140.740631,113.400336 C148.347905,114.130937 154.181459,121.10689 154.17406,129.464467 Z" id="Shape" fill="#000000" fill-rule="nonzero" opacity="0.1"></path>
                <path d="M153.772205,128.574055 C153.772205,128.574055 156.055806,129.350508 156.16341,137.595385 L152.917349,137.351921 C152.917349,137.351921 145.408963,159.461089 146.198061,156.579001 C149.109354,145.978445 143.286769,147.952477 141.941715,149.92651 C140.596662,151.900543 142.162902,157.072509 142.162902,157.072509 C142.162902,157.072509 146.419248,165.699032 124.025608,163.725 C124.025608,163.725 109.247958,160.277022 110.814197,138.338938 C110.969626,136.141181 107.681718,130.442806 117.533485,127.494917 C118.133615,121.18628 122.291157,115.984519 127.899361,114.525522 C131.707866,113.48283 135.64124,113.103163 139.556488,113.400323 C147.136609,114.104395 153.772205,120.230476 153.772205,128.574055 Z" id="Shape" fill="#72351C" fill-rule="nonzero"></path>
                <g id="Group" opacity="0.6" transform="translate(189.982238, 358.251163)" fill="#FB1D5C" fill-rule="nonzero">
                    <rect id="Rectangle-path" x="0.0673873408" y="0.232415027" width="39.2071801" height="42.4987478" rx="10.5"></rect>
                    <rect id="Rectangle-path" x="48.4637502" y="0.232415027" width="39.2071801" height="42.4987478" rx="10.5"></rect>
                    <rect id="Rectangle-path" x="96.8601132" y="0.232415027" width="39.2071801" height="42.4987478" rx="10.5"></rect>
                    <rect id="Rectangle-path" x="145.256476" y="0.232415027" width="39.2071801" height="42.4987478" rx="10.5"></rect>
                </g>
                <g id="Group" opacity="0.1" transform="translate(189.982238, 358.251163)" fill="#000000" fill-rule="nonzero">
                    <rect id="Rectangle-path" x="0.0673873408" y="0.232415027" width="39.2071801" height="42.4987478" rx="10.5"></rect>
                    <rect id="Rectangle-path" x="48.4637502" y="0.232415027" width="39.2071801" height="42.4987478" rx="10.5"></rect>
                    <rect id="Rectangle-path" x="96.8601132" y="0.232415027" width="39.2071801" height="42.4987478" rx="10.5"></rect>
                    <rect id="Rectangle-path" x="145.256476" y="0.232415027" width="39.2071801" height="42.4987478" rx="10.5"></rect>
                </g>
            </g>
        </g>
    </g>
</svg>