<svg id="Ebene_1" xmlns="http://www.w3.org/2000/svg" viewBox="0 0 290 75"><style>.logocolor1{fill:#565656}.logocolor2{fill:#fb1d5c}</style><g id="bg"><g id="logo"><path id="arrow" class="logocolor1" d="M21.1 45.2v-3.6c0-.3.1-.5.2-.7.1-.2.4-.4.7-.6l7.4-3.8c.6-.3 1.3-.5 2.1-.7-.4-.1-.8-.2-1.1-.3-.3-.1-.7-.3-1-.4l-7.4-4c-.3-.2-.5-.4-.7-.6-.1-.2-.2-.5-.2-.7v-3.6l16.1 8.5v2l-16.1 8.5z"/><path id="point" class="logocolor1" d="M41.7 46.7c0-.4.1-.8.2-1.2.2-.4.4-.7.6-1s.6-.5 1-.7c.4-.2.8-.2 1.2-.2.4 0 .8.1 1.2.2.4.2.7.4 1 .7s.5.6.6 1c.2.4.2.8.2 1.2 0 .4-.1.8-.2 1.2-.2.4-.4.7-.6 1-.3.3-.6.5-1 .6s-.8.2-1.2.2c-.4 0-.8-.1-1.2-.2s-.7-.4-1-.6c-.3-.3-.5-.6-.6-1-.1-.4-.2-.8-.2-1.2z"/><path id="letter-t" class="logocolor2" d="M76.4 24.9v3.8h-7.3v20.8h-4.5V28.6h-7.4v-3.8h19.2z"/><path id="letter-e" class="logocolor2" d="M101 24.9v3.6H90.2v6.8h8.5v3.5h-8.5v7H101v3.7H85.7V24.9H101z"/><path id="letter-c" class="logocolor2" d="M128.1 43.7c.2 0 .5.1.6.3l1.8 2c-1 1.2-2.2 2.2-3.6 2.8s-3.2 1-5.2 1c-1.8 0-3.4-.3-4.9-.9-1.4-.6-2.7-1.5-3.7-2.6s-1.8-2.4-2.3-4c-.5-1.5-.8-3.2-.8-5 0-1.8.3-3.5.9-5.1.6-1.5 1.5-2.9 2.6-4s2.4-2 3.9-2.6c1.5-.6 3.2-.9 5.1-.9 1.8 0 3.4.3 4.7.9 1.4.6 2.5 1.4 3.5 2.3l-1.5 2.1c-.1.1-.2.3-.3.4-.1.1-.3.2-.6.2s-.5-.1-.8-.3c-.3-.2-.6-.4-1-.7-.4-.2-.9-.5-1.6-.7-.6-.2-1.4-.3-2.4-.3-1.1 0-2.2.2-3.2.6-1 .4-1.8 1-2.5 1.7s-1.2 1.7-1.6 2.7c-.4 1.1-.6 2.3-.6 3.6 0 1.4.2 2.6.6 3.7s.9 2 1.6 2.7c.7.7 1.4 1.3 2.3 1.7.9.4 1.9.6 2.9.6.6 0 1.2 0 1.7-.1s1-.2 1.4-.3.8-.3 1.2-.6c.4-.2.7-.5 1.1-.9.1-.1.2-.2.4-.2 0-.1.1-.1.3-.1z"/><path id="letter-h" class="logocolor2" d="M160.8 49.5h-4.6V38.7h-11.4v10.7h-4.6V24.9h4.6v10.6h11.4V24.9h4.6v24.6z"/><path id="letter-l" class="logocolor1" d="M176.7 45.7h9.7v3.8h-14.3V24.9h4.5v20.8z"/><path id="letter-a" class="logocolor1" d="M217.3 49.5h-3.5c-.4 0-.7-.1-1-.3-.3-.2-.4-.4-.5-.7l-1.8-5h-10.1l-1.8 5c-.1.3-.3.5-.5.7-.3.2-.6.3-1 .3h-3.5l9.6-24.6h4.6l9.5 24.6zm-15.7-9.3h7.8l-3-8.2c-.1-.4-.3-.8-.4-1.3-.2-.5-.3-1-.5-1.6-.2.6-.3 1.1-.5 1.6s-.3.9-.4 1.3l-3 8.2z"/><path id="letter-b" class="logocolor1" d="M226.2 49.5V24.9h8.4c1.6 0 3 .2 4.1.5s2.1.7 2.8 1.3c.7.6 1.3 1.3 1.6 2.1.3.8.5 1.7.5 2.7 0 .6-.1 1.1-.3 1.7-.2.5-.4 1-.8 1.5s-.8.9-1.3 1.2c-.5.4-1.2.7-1.9 1 3.3.8 5 2.6 5 5.5 0 1-.2 2-.6 2.9-.4.9-1 1.6-1.7 2.3-.8.6-1.7 1.1-2.8 1.5s-2.4.5-3.8.5h-9.2zm4.6-14h3.6c1.5 0 2.7-.3 3.5-.9.8-.6 1.2-1.5 1.2-2.7 0-1.3-.4-2.2-1.1-2.7-.7-.5-1.8-.8-3.4-.8h-3.9v7.1zm0 3.2v7.2h4.6c.8 0 1.5-.1 2.1-.3.6-.2 1-.5 1.4-.8.3-.3.6-.7.7-1.2s.2-.9.2-1.4c0-.5-.1-1-.3-1.4-.2-.4-.4-.8-.8-1.1s-.8-.5-1.4-.7c-.6-.2-1.2-.2-2-.2h-4.5z"/><path id="letter-s" class="logocolor1" d="M267.6 29.4c-.1.2-.3.4-.4.5-.2.1-.4.2-.6.2s-.5-.1-.8-.3-.6-.4-1-.6-.8-.4-1.3-.6c-.5-.2-1.1-.3-1.8-.3-.6 0-1.2.1-1.6.2-.5.2-.9.4-1.2.6-.3.3-.6.6-.7 1-.2.4-.2.8-.2 1.2 0 .6.2 1.1.5 1.4.3.4.7.7 1.3 1s1.1.5 1.8.7c.7.2 1.4.4 2.1.7s1.4.5 2.1.9c.7.3 1.3.7 1.8 1.2s1 1.1 1.3 1.8c.3.7.5 1.6.5 2.6 0 1.1-.2 2.2-.6 3.1-.4 1-.9 1.8-1.6 2.5s-1.6 1.3-2.7 1.7c-1 .4-2.2.6-3.6.6-.8 0-1.5-.1-2.3-.2-.8-.2-1.5-.4-2.2-.7-.7-.3-1.3-.6-1.9-1-.6-.4-1.1-.8-1.6-1.3l1.3-2.2c.1-.2.3-.3.4-.4.2-.1.4-.2.6-.2.3 0 .6.1.9.3.3.2.7.5 1.2.8s1 .5 1.6.8c.6.2 1.3.3 2.2.3 1.3 0 2.3-.3 3-.9s1.1-1.5 1.1-2.7c0-.6-.2-1.2-.5-1.6-.3-.4-.7-.8-1.3-1-.5-.3-1.1-.5-1.8-.7l-2.1-.6c-.7-.2-1.4-.5-2.1-.8-.7-.3-1.3-.7-1.8-1.2s-1-1.1-1.3-1.9c-.3-.8-.5-1.7-.5-2.8 0-.9.2-1.8.5-2.6s.9-1.6 1.5-2.3c.7-.7 1.5-1.2 2.5-1.6 1-.4 2.1-.6 3.4-.6 1.4 0 2.8.2 4 .7s2.2 1.1 3.1 1.9l-1.2 2.4z"/></g></g></svg>