<svg version="1.1" id="Ebene_1" xmlns="http://www.w3.org/2000/svg" xmlns:xlink="http://www.w3.org/1999/xlink" x="0px" y="0px"
	 viewBox="0 0 290 75" style="enable-background:new 0 0 290 75;" xml:space="preserve">
<style type="text/css">
	.logocanvas{opacity: 0.0;fill:#FFFFFF;} /*white*/
	.logocolor1{fill:#565656;} /*grey*/
	.logocolor2{fill:#FB1D5C;} /*pink*/
</style>
<g id="bg">
	<rect id="canvas" class="logocanvas" width="290" height="75"/>
	<g id="logo">
		<path id="arrow" class="logocolor1" d="M21.1,45.2v-3.6c0-0.3,0.1-0.5,0.2-0.7c0.1-0.2,0.4-0.4,0.7-0.6l7.4-3.8
			c0.6-0.3,1.3-0.5,2.1-0.7c-0.4-0.1-0.8-0.2-1.1-0.3c-0.3-0.1-0.7-0.3-1-0.4L22,31.1c-0.3-0.2-0.5-0.4-0.7-0.6
			c-0.1-0.2-0.2-0.5-0.2-0.7v-3.6l16.1,8.5v2L21.1,45.2z"/>
		<path id="point" class="logocolor1" d="M41.7,46.7c0-0.4,0.1-0.8,0.2-1.2c0.2-0.4,0.4-0.7,0.6-1s0.6-0.5,1-0.7
			c0.4-0.2,0.8-0.2,1.2-0.2c0.4,0,0.8,0.1,1.2,0.2c0.4,0.2,0.7,0.4,1,0.7s0.5,0.6,0.6,1c0.2,0.4,0.2,0.8,0.2,1.2
			c0,0.4-0.1,0.8-0.2,1.2c-0.2,0.4-0.4,0.7-0.6,1c-0.3,0.3-0.6,0.5-1,0.6s-0.8,0.2-1.2,0.2c-0.4,0-0.8-0.1-1.2-0.2s-0.7-0.4-1-0.6
			c-0.3-0.3-0.5-0.6-0.6-1C41.8,47.5,41.7,47.1,41.7,46.7z"/>
		<path id="letter-t" class="logocolor2" d="M76.4,24.9v3.8h-7.3v20.8h-4.5V28.6h-7.4v-3.8H76.4z"/>
		<path id="letter-e" class="logocolor2" d="M101,24.9v3.6H90.2v6.8h8.5v3.5h-8.5v7H101v3.7H85.7V24.9H101z"/>
		<path id="letter-c" class="logocolor2" d="M128.1,43.7c0.2,0,0.5,0.1,0.6,0.3l1.8,2c-1,1.2-2.2,2.2-3.6,2.8s-3.2,1-5.2,1
			c-1.8,0-3.4-0.3-4.9-0.9c-1.4-0.6-2.7-1.5-3.7-2.6c-1-1.1-1.8-2.4-2.3-4c-0.5-1.5-0.8-3.2-0.8-5c0-1.8,0.3-3.5,0.9-5.1
			c0.6-1.5,1.5-2.9,2.6-4s2.4-2,3.9-2.6c1.5-0.6,3.2-0.9,5.1-0.9c1.8,0,3.4,0.3,4.7,0.9c1.4,0.6,2.5,1.4,3.5,2.3l-1.5,2.1
			c-0.1,0.1-0.2,0.3-0.3,0.4c-0.1,0.1-0.3,0.2-0.6,0.2c-0.3,0-0.5-0.1-0.8-0.3c-0.3-0.2-0.6-0.4-1-0.7c-0.4-0.2-0.9-0.5-1.6-0.7
			c-0.6-0.2-1.4-0.3-2.4-0.3c-1.1,0-2.2,0.2-3.2,0.6c-1,0.4-1.8,1-2.5,1.7s-1.2,1.7-1.6,2.7c-0.4,1.1-0.6,2.3-0.6,3.6
			c0,1.4,0.2,2.6,0.6,3.7s0.9,2,1.6,2.7c0.7,0.7,1.4,1.3,2.3,1.7c0.9,0.4,1.9,0.6,2.9,0.6c0.6,0,1.2,0,1.7-0.1
			c0.5-0.1,1-0.2,1.4-0.3s0.8-0.3,1.2-0.6c0.4-0.2,0.7-0.5,1.1-0.9c0.1-0.1,0.2-0.2,0.4-0.2C127.8,43.7,127.9,43.7,128.1,43.7z"/>
		<path id="letter-h" class="logocolor2" d="M160.8,49.5h-4.6V38.7h-11.4v10.7h-4.6V24.9h4.6v10.6h11.4V24.9h4.6V49.5z"/>
		<path id="letter-l" class="logocolor1" d="M176.7,45.7h9.7v3.8h-14.3V24.9h4.5V45.7z"/>
		<path id="letter-a" class="logocolor1" d="M217.3,49.5h-3.5c-0.4,0-0.7-0.1-1-0.3c-0.3-0.2-0.4-0.4-0.5-0.7l-1.8-5h-10.1l-1.8,5
			c-0.1,0.3-0.3,0.5-0.5,0.7c-0.3,0.2-0.6,0.3-1,0.3h-3.5l9.6-24.6h4.6L217.3,49.5z M201.6,40.2h7.8l-3-8.2
			c-0.1-0.4-0.3-0.8-0.4-1.3c-0.2-0.5-0.3-1-0.5-1.6c-0.2,0.6-0.3,1.1-0.5,1.6s-0.3,0.9-0.4,1.3L201.6,40.2z"/>
		<path id="letter-b" class="logocolor1" d="M226.2,49.5V24.9h8.4c1.6,0,3,0.2,4.1,0.5s2.1,0.7,2.8,1.3c0.7,0.6,1.3,1.3,1.6,2.1
			c0.3,0.8,0.5,1.7,0.5,2.7c0,0.6-0.1,1.1-0.3,1.7c-0.2,0.5-0.4,1-0.8,1.5c-0.4,0.5-0.8,0.9-1.3,1.2c-0.5,0.4-1.2,0.7-1.9,1
			c3.3,0.8,5,2.6,5,5.5c0,1-0.2,2-0.6,2.9c-0.4,0.9-1,1.6-1.7,2.3c-0.8,0.6-1.7,1.1-2.8,1.5s-2.4,0.5-3.8,0.5H226.2z M230.8,35.5
			h3.6c1.5,0,2.7-0.3,3.5-0.9c0.8-0.6,1.2-1.5,1.2-2.7c0-1.3-0.4-2.2-1.1-2.7c-0.7-0.5-1.8-0.8-3.4-0.8h-3.9V35.5z M230.8,38.7v7.2
			h4.6c0.8,0,1.5-0.1,2.1-0.3c0.6-0.2,1-0.5,1.4-0.8c0.3-0.3,0.6-0.7,0.7-1.2s0.2-0.9,0.2-1.4c0-0.5-0.1-1-0.3-1.4
			c-0.2-0.4-0.4-0.8-0.8-1.1s-0.8-0.5-1.4-0.7c-0.6-0.2-1.2-0.2-2-0.2H230.8z"/>
		<path id="letter-s" class="logocolor1" d="M267.6,29.4c-0.1,0.2-0.3,0.4-0.4,0.5c-0.2,0.1-0.4,0.2-0.6,0.2s-0.5-0.1-0.8-0.3
			s-0.6-0.4-1-0.6s-0.8-0.4-1.3-0.6c-0.5-0.2-1.1-0.3-1.8-0.3c-0.6,0-1.2,0.1-1.6,0.2c-0.5,0.2-0.9,0.4-1.2,0.6
			c-0.3,0.3-0.6,0.6-0.7,1c-0.2,0.4-0.2,0.8-0.2,1.2c0,0.6,0.2,1.1,0.5,1.4c0.3,0.4,0.7,0.7,1.3,1s1.1,0.5,1.8,0.7
			c0.7,0.2,1.4,0.4,2.1,0.7s1.4,0.5,2.1,0.9c0.7,0.3,1.3,0.7,1.8,1.2c0.5,0.5,1,1.1,1.3,1.8c0.3,0.7,0.5,1.6,0.5,2.6
			c0,1.1-0.2,2.2-0.6,3.1c-0.4,1-0.9,1.8-1.6,2.5s-1.6,1.3-2.7,1.7c-1,0.4-2.2,0.6-3.6,0.6c-0.8,0-1.5-0.1-2.3-0.2
			c-0.8-0.2-1.5-0.4-2.2-0.7c-0.7-0.3-1.3-0.6-1.9-1c-0.6-0.4-1.1-0.8-1.6-1.3l1.3-2.2c0.1-0.2,0.3-0.3,0.4-0.4
			c0.2-0.1,0.4-0.2,0.6-0.2c0.3,0,0.6,0.1,0.9,0.3c0.3,0.2,0.7,0.5,1.2,0.8s1,0.5,1.6,0.8c0.6,0.2,1.3,0.3,2.2,0.3
			c1.3,0,2.3-0.3,3-0.9s1.1-1.5,1.1-2.7c0-0.6-0.2-1.2-0.5-1.6c-0.3-0.4-0.7-0.8-1.3-1c-0.5-0.3-1.1-0.5-1.8-0.7
			c-0.7-0.2-1.4-0.4-2.1-0.6c-0.7-0.2-1.4-0.5-2.1-0.8c-0.7-0.3-1.3-0.7-1.8-1.2c-0.5-0.5-1-1.1-1.3-1.9c-0.3-0.8-0.5-1.7-0.5-2.8
			c0-0.9,0.2-1.8,0.5-2.6s0.9-1.6,1.5-2.3c0.7-0.7,1.5-1.2,2.5-1.6c1-0.4,2.1-0.6,3.4-0.6c1.4,0,2.8,0.2,4,0.7s2.2,1.1,3.1,1.9
			L267.6,29.4z"/>
	</g>
</g>
</svg>
