<?xml version="1.0" encoding="UTF-8" standalone="no"?>
<!-- Created with Inkscape (http://www.inkscape.org/) -->

<svg
   xmlns:dc="http://purl.org/dc/elements/1.1/"
   xmlns:cc="http://creativecommons.org/ns#"
   xmlns:rdf="http://www.w3.org/1999/02/22-rdf-syntax-ns#"
   xmlns:svg="http://www.w3.org/2000/svg"
   xmlns="http://www.w3.org/2000/svg"
   xmlns:sodipodi="http://sodipodi.sourceforge.net/DTD/sodipodi-0.dtd"
   xmlns:inkscape="http://www.inkscape.org/namespaces/inkscape"
   width="3847.1069"
   height="1504.1447"
   id="svg2"
   version="1.1"
   inkscape:version="0.48.4 r9939"
   sodipodi:docname="Muenster.svg">
  <title
     id="title3014">City of Münster, Germany</title>
  <defs
     id="defs4" />
  <sodipodi:namedview
     id="base"
     pagecolor="#ffffff"
     bordercolor="#666666"
     borderopacity="1.0"
     inkscape:pageopacity="0.0"
     inkscape:pageshadow="2"
     inkscape:zoom="0.18231263"
     inkscape:cx="1658.8395"
     inkscape:cy="795.20793"
     inkscape:document-units="px"
     inkscape:current-layer="layer6"
     showgrid="false"
     inkscape:window-width="1366"
     inkscape:window-height="705"
     inkscape:window-x="-8"
     inkscape:window-y="-8"
     inkscape:window-maximized="1"
     showguides="true"
     inkscape:guide-bbox="true"
     fit-margin-top="10"
     fit-margin-left="0"
     fit-margin-right="0"
     fit-margin-bottom="0" />
  <metadata
     id="metadata7">
    <rdf:RDF>
      <cc:Work
         rdf:about="">
        <dc:format>image/svg+xml</dc:format>
        <dc:type
           rdf:resource="http://purl.org/dc/dcmitype/StillImage" />
        <dc:title>City of Münster, Germany</dc:title>
        <cc:license
           rdf:resource="http://creativecommons.org/licenses/publicdomain/" />
        <dc:creator>
          <cc:Agent>
            <dc:title>Jotam</dc:title>
          </cc:Agent>
        </dc:creator>
        <dc:source>www.openclipart.org</dc:source>
        <dc:subject>
          <rdf:Bag>
            <rdf:li>city</rdf:li>
            <rdf:li>silhouette</rdf:li>
            <rdf:li>Münster</rdf:li>
            <rdf:li>Muenster</rdf:li>
            <rdf:li>Munster</rdf:li>
            <rdf:li>Deutschland</rdf:li>
            <rdf:li>Germany</rdf:li>
            <rdf:li>Dom</rdf:li>
            <rdf:li>Matthäuskirche</rdf:li>
            <rdf:li>Zwinger</rdf:li>
            <rdf:li>Rathaus</rdf:li>
            <rdf:li>Town Hall</rdf:li>
            <rdf:li>Church</rdf:li>
            <rdf:li>Aasee</rdf:li>
            <rdf:li>Prinzipalmarkt</rdf:li>
            <rdf:li>Buddenturm</rdf:li>
            <rdf:li>skyline</rdf:li>
            <rdf:li>black</rdf:li>
          </rdf:Bag>
        </dc:subject>
        <dc:description>The most famous buildings in Münster, Germany, as black silhouette.</dc:description>
      </cc:Work>
      <cc:License
         rdf:about="http://creativecommons.org/licenses/publicdomain/">
        <cc:permits
           rdf:resource="http://creativecommons.org/ns#Reproduction" />
        <cc:permits
           rdf:resource="http://creativecommons.org/ns#Distribution" />
        <cc:permits
           rdf:resource="http://creativecommons.org/ns#DerivativeWorks" />
      </cc:License>
    </rdf:RDF>
  </metadata>
  <g
     inkscape:groupmode="layer"
     id="layer2"
     inkscape:label="Basis"
     style="display:inline"
     transform="translate(-152.27446,659.43729)">
    <g
       id="1" />
    <g
       id="1-7" />
    <path
       inkscape:connector-curvature="0"
       style="fill:#000000;fill-rule:evenodd;stroke:#000000;stroke-width:1.35945511px;stroke-linecap:butt;stroke-linejoin:miter;stroke-opacity:1;display:inline"
       d="m 221.39614,595.84011 0,248.1875 2621.43046,0 0,-140.8125 50.5938,0 35.125,91.5937 35.3124,-91.5937 50.5,0 0,140.8125 45.5626,0 c -4.2839,-10.3098 -6.4063,-23.0644 -6.4063,-38.2188 l 0,-102.5937 39.75,0 0,102.5937 c -10e-5,14.1383 2.0875,24.2613 6.2187,30.375 2.665,3.8309 6.3844,6.4437 11.1563,7.8438 l 18.625,0 c 4.7836,-1.4001 8.4724,-4.0129 11.0937,-7.8438 4.2,-6.1137 6.3124,-16.2367 6.3126,-30.375 l 0,-102.5937 39.75,0 0,102.5937 c -10e-5,15.1544 -2.1225,27.909 -6.4063,38.2188 l 45.3437,0 0,-140.8125 44.4376,0 56.0624,117.375 0,-117.375 37.6876,0 0,140.8125 36.1562,0 0,-15.875 c 9.846,5.8082 19.3425,10.2071 28.5,13.1875 3.5139,1.106 6.9922,2.0027 10.4062,2.6875 l 29.375,0 c 2.6101,-0.779 4.9004,-1.7946 6.8126,-3.125 4.613,-3.2097 6.9061,-7.8202 6.9062,-13.7812 -10e-5,-5.3496 -1.5828,-9.4709 -4.75,-12.375 -3.0985,-2.904 -9.3235,-5.4886 -18.6875,-7.7813 l -15.375,-3.7813 c -15.4232,-3.6682 -26.7143,-9.538 -33.875,-17.5624 -7.0919,-8.0243 -10.6563,-18.8342 -10.6563,-32.4376 0,-17.0421 4.9601,-30.1416 14.875,-39.3124 9.9149,-9.1706 24.1596,-13.7499 42.75,-13.75 8.4689,10e-5 17.2053,0.7356 26.1563,2.1874 8.9508,1.3758 18.2105,3.4538 27.7813,6.2813 l 0,36.25 c -8.4691,-4.2031 -16.7568,-7.3913 -24.8126,-9.5313 -8.0559,-2.1396 -15.6518,-3.2186 -22.8124,-3.2187 -9.5019,10e-5 -16.5183,1.4711 -21.0626,4.375 -4.5443,2.9042 -6.8125,7.4176 -6.8124,13.5313 -10e-5,4.5854 1.5016,8.1517 4.5312,10.75 3.0983,2.522 8.6628,4.7284 16.7188,6.5624 l 16.9374,3.7813 c 17.1445,3.8212 29.3328,9.6112 36.5626,17.4063 7.2294,7.7951 10.8436,18.8826 10.8437,33.25 -10e-5,8.3808 -1.0048,15.7985 -3,22.2812 l 70.875,0 0,-107.4688 -51.2187,0 0,-33.3437 142.0937,0 0,33.3437 -51.125,0 0,107.4688 71.5937,0 0,-140.8125 107.2813,0 0,33.3437 -67.5313,0 0,31.875 63.5313,0 0,33.375 -63.5313,0 0,39.1876 69.8126,0 0,3.0312 35.0312,0 0,-140.8125 60.7188,0 c 20.3116,2e-4 35.1919,3.7781 44.625,11.3437 9.5016,7.566 14.2498,19.5208 14.25,35.875 -2e-4,11.3107 -2.4802,20.615 -7.4376,27.875 -4.8887,7.2603 -12.3039,12.5924 -22.2187,16.0313 5.4393,1.3757 10.2935,4.5153 14.5625,9.4063 4.3376,4.8146 8.7182,12.1415 13.125,22 l 8.125,18.2812 29.125,0 0,-248.1875 z m 2866.08666,60.8437 24.2813,0 0,28.1876 -24.2813,0 z m 40.8126,0 24.25,0 0,28.1876 -24.25,0 z m 755.2812,78.5 0,43.9063 16.7188,0 c 8.3311,10e-5 14.2945,-1.7171 17.875,-5.1563 3.6491,-3.4389 5.4686,-9.0971 5.4687,-16.9687 -10e-5,-7.795 -1.8196,-13.356 -5.4687,-16.7187 -3.5805,-3.3625 -9.5439,-5.0624 -17.875,-5.0626 z m -1003.0625,14 0,94.8438 96.25,0 0,-94.8438 -35.5313,92.2813 -25.1874,0 z m 382.5625,7.7813 0,87.0625 41.5625,0 z m 620.5,52.625 0,34.4375 43.7188,0 -5.4063,-12.1875 c -3.787,-8.5593 -7.6379,-14.3979 -11.5625,-17.5313 -3.8559,-3.1332 -9.0279,-4.7186 -15.5,-4.7187 z"
       id="rect3045"
       sodipodi:nodetypes="ccccccccccsccscccccccscccccccccccccccccccssccccccccccccccccccccccccccccccccccccscccccccccccccccccccccccccccccccccccccccccccccc" />
  </g>
  <g
     inkscape:label="St. Paulus Dom"
     inkscape:groupmode="layer"
     id="layer1"
     transform="translate(-152.27446,659.43729)"
     style="display:inline">
    <path
       style="fill:#000000;stroke:none;display:inline"
       d="m 941.99964,-649.43729 0,8.70607 -8.68097,0 0,2.59225 8.68097,0 0,6.30945 -16.61289,0 0,2.88572 16.61289,0 0,6.94528 -8.68097,0 0,2.59226 8.68097,0 0,19.75983 c -5.3765,0.75379 -9.5183,5.70481 -9.5183,11.88524 0,5.52816 3.28938,10.22253 7.84378,11.6896 l -9.0335,55.12209 -167.67205,92.78315 -0.35253,1054.55843 1025.06836,0 0,-1064.2427 -143.3472,-85.88678 -8.4607,-52.43201 c 4.4523,-1.53706 7.7115,-6.14419 7.7115,-11.59178 0,-6.18043 -4.1735,-11.13145 -9.5623,-11.88524 l 0,-19.75983 8.637,0 0,-2.59226 -8.637,0 0,-6.94528 16.5689,0 0,-2.88572 -16.5689,0 0,-6.30945 8.637,0 0,-2.59225 -8.637,0 0,-8.70607 -2.8203,0 0,8.70607 -8.6811,0 0,2.59225 8.6811,0 0,6.30945 -16.5689,0 0,2.88572 16.5689,0 0,6.94528 -8.6811,0 0,2.59226 8.6811,0 0,19.75983 c -5.3765,0.75379 -9.5183,5.70481 -9.5183,11.88524 0,5.52816 3.2894,10.22253 7.8438,11.6896 l -8.6811,52.52983 -151.4115,86.18024 0,562.9594 -188.8237,-136.019999 -182.6986,129.270399 0,-547.06354 -143.0831,-92.83206 -8.81324,-55.12209 c 4.45245,-1.53706 7.71166,-6.14419 7.71166,-11.59178 0,-6.18043 -4.21767,-11.13145 -9.60644,-11.88524 l 0,-19.75983 8.68098,0 0,-2.59226 -8.68098,0 0,-6.94528 16.6129,0 0,-2.88572 -16.6129,0 0,-6.30945 8.68098,0 0,-2.59225 -8.68098,0 0,-8.70607 -2.77624,0 z m 530.77776,213.44527 a 1.4239937,1.5805346 0 0 1 0.044,0 1.4163023,1.5719978 0 0 1 0.1325,0 1.4102601,1.5652913 0 0 1 0.2644,0 l 311.9007,0 a 1.4102601,1.5652913 0 1 1 0,3.13027 l -311.9007,0 a 1.4272287,1.5841252 0 0 1 -0.4406,-3.13027 z m -705.14773,8.26586 a 1.4116674,1.5668533 0 0 1 0.13255,0 1.4102601,1.5652913 0 0 1 0.13255,0 l 324.59183,0 a 1.4102601,1.5652913 0 1 1 0,3.13027 l -324.59183,0 a 1.4163024,1.5719978 0 0 1 -0.26439,-3.13027 z m 903.84223,20.34676 c 13.3091,0 24.1483,12.03078 24.1483,26.80293 l 0,100.31536 -48.2084,0 0,-100.31536 c 0,-14.77215 10.7511,-26.80293 24.0601,-26.80293 z m -80.9937,0.29346 c 13.3091,0 24.1483,12.03077 24.1483,26.80293 l 0,100.31536 -48.1643,0 0,-100.31536 c 0,-14.77216 10.707,-26.80293 24.016,-26.80293 z m -699.55124,7.14093 c 13.30899,0 24.14829,12.03078 24.14829,26.80293 l 0,100.31536 -48.20845,0 0,-100.31536 c 0,-14.77215 10.75103,-26.80293 24.06016,-26.80293 z m 80.50892,0.29346 c 13.30909,0 24.14829,12.03078 24.14829,26.80293 l 0,100.31536 -48.20845,0 0,-100.31536 c 0,-14.77215 10.75117,-26.80293 24.06016,-26.80293 z m 698.27342,153.18757 c 13.3091,0 24.1043,12.03077 24.1043,26.80293 l 0,100.31536 -48.1645,0 0,-100.31536 c 0,-14.77216 10.751,-26.80293 24.0602,-26.80293 z m -80.9938,0.24455 c 13.3092,0 24.1483,11.98187 24.1483,26.75402 l 0,100.36427 -48.2084,0 0,-100.36427 c 0,-14.77215 10.7512,-26.75402 24.0601,-26.75402 z m -699.55119,7.09202 c 13.30899,0 24.10415,12.03078 24.10415,26.80293 l 0,100.31536 -48.16431,0 0,-100.31536 c 0,-14.77215 10.75103,-26.80293 24.06016,-26.80293 z m 81.08185,0.34237 c 13.30901,0 24.10411,12.03077 24.10411,26.80293 l 0,100.31539 -48.16427,0 0,-100.31539 c 0,-14.77216 10.75103,-26.80293 24.06016,-26.80293 z m 311.01944,248.660821 245.9335,177.593899 -2.1152,3.6193 -243.8183,-176.077599 -243.8625,176.077599 -2.1152,-3.6193 245.9777,-177.593899 z m -0.6169,173.436499 c 6.3389,0 11.5453,5.7788 11.5453,12.8145 0,7.0358 -5.2064,12.7167 -11.5453,12.7167 -6.339,0 -11.4573,-5.6809 -11.4573,-12.7167 0,-7.0357 5.1183,-12.8145 11.4573,-12.8145 z m -60.8556,18.1947 c 3.8777,0.103 7.6147,2.4086 9.6946,6.4072 3.1695,6.0932 1.3034,13.8943 -4.1862,17.4122 -5.4898,3.5178 -12.5182,1.3977 -15.6876,-4.6954 -3.1695,-6.0932 -1.3034,-13.8454 4.1862,-17.3633 1.3725,-0.8794 2.839,-1.4591 4.3185,-1.6629 0.5549,-0.077 1.1206,-0.1129 1.6745,-0.098 z m 121.2263,0.098 c 2.2051,-0.1732 4.4631,0.3437 6.5218,1.6629 5.4896,3.5179 7.3557,11.2701 4.1862,17.3632 -3.1694,6.0932 -10.1538,8.2133 -15.6434,4.6954 -5.4898,-3.5178 -7.3558,-11.3189 -4.1864,-17.4121 1.9809,-3.8082 5.4464,-6.0211 9.1218,-6.3094 z m 45.8289,49.5463 c 3.8775,0.1028 7.6146,2.4086 9.6945,6.4072 3.1694,6.0932 1.2153,13.8943 -4.2745,17.4122 -5.4896,3.5179 -12.474,1.3977 -15.6434,-4.6954 -3.1695,-6.0932 -1.3034,-13.8454 4.1862,-17.3633 1.3725,-0.8794 2.883,-1.4591 4.3626,-1.6629 0.5548,-0.077 1.1205,-0.113 1.6746,-0.098 z m -212.928,0.098 c 2.2051,-0.173 4.5513,0.3437 6.6099,1.6629 5.4896,3.5179 7.3997,11.2701 4.2304,17.3632 -3.1696,6.0932 -10.2862,8.2133 -15.7758,4.6954 -5.4897,-3.5178 -7.3557,-11.3189 -4.1863,-17.4121 1.9809,-3.8082 5.4464,-6.0212 9.1218,-6.3094 z m -15.5555,67.8877 c 6.3389,0 11.4572,5.681 11.4572,12.7167 0,7.0357 -5.1183,12.7167 -11.4572,12.7167 -6.3389,0 -11.4572,-5.681 -11.4572,-12.7167 0,-7.0357 5.1183,-12.7167 11.4572,-12.7167 z m 244.6117,0 c 6.3389,0 11.4572,5.681 11.4572,12.7167 0,7.0357 -5.1183,12.7167 -11.4572,12.7167 -6.3389,0 -11.4572,-5.681 -11.4572,-12.7167 0,-7.0357 5.1183,-12.7167 11.4572,-12.7167 z m -229.0562,67.8388 c 0.5627,-0.044 1.1231,-0.043 1.6745,0 3.6753,0.2883 7.1848,2.5012 9.1658,6.3094 3.1693,6.0932 1.2592,13.9432 -4.2304,17.4611 -5.4897,3.5178 -12.5622,1.4466 -15.7317,-4.6465 -3.1694,-6.0932 -1.3034,-13.9432 4.1863,-17.4611 1.544,-0.9894 3.247,-1.531 4.9355,-1.6629 z m 211.8262,0 c 2.2053,-0.1732 4.4632,0.3437 6.5218,1.6629 5.4898,3.5179 7.4439,11.3679 4.2745,17.4611 -3.1695,6.0931 -10.242,8.1643 -15.7317,4.6465 -5.4896,-3.5179 -7.3557,-11.3679 -4.1862,-17.4611 1.9809,-3.8082 5.4463,-6.0211 9.1216,-6.3094 z m -43.9781,49.5952 c 0.2812,10e-4 0.5617,0.027 0.8374,0.049 3.6752,0.2883 7.1407,2.599 9.1216,6.4073 3.1695,6.0931 1.3034,13.8453 -4.1862,17.3632 -5.4898,3.5178 -12.4741,1.4466 -15.6436,-4.6465 -3.1694,-6.0932 -1.3034,-13.8454 4.1864,-17.3632 1.5439,-0.9894 3.1849,-1.5998 4.8472,-1.7608 0.277,-0.027 0.5561,-0.05 0.8372,-0.049 z m -122.9887,0.049 c 2.2051,-0.173 4.4631,0.4416 6.5218,1.7608 5.4896,3.5178 7.3557,11.27 4.1862,17.3632 -3.1694,6.0931 -10.1978,8.1643 -15.6876,4.6465 -5.4896,-3.5179 -7.3557,-11.2701 -4.1862,-17.3632 1.9809,-3.8083 5.4904,-6.119 9.1658,-6.4073 z m 61.869,18.1947 c 6.3389,0 11.5453,5.6809 11.5453,12.7167 0,7.0357 -5.2064,12.7167 -11.5453,12.7167 -6.339,0 -11.4573,-5.681 -11.4573,-12.7167 0,-7.0358 5.1183,-12.7167 11.4573,-12.7167 z"
       id="path3004"
       inkscape:connector-curvature="0"
       inkscape:export-filename="C:\Users\Johannes\Documents\Projekte\T-Shirts\MÜNSTER\path4137.png"
       inkscape:export-xdpi="150.00568"
       inkscape:export-ydpi="150.00568" />
  </g>
  <g
     inkscape:groupmode="layer"
     id="layer8"
     inkscape:label="Aasee-Kugeln"
     transform="translate(-152.27446,659.43729)"
     style="display:inline">
    <g
       id="g3807"
       style="fill:#000000;display:inline"
       transform="matrix(1.4101191,0,0,1.5651348,-482.06292,-603.81074)"
       inkscape:export-filename="C:\Users\Johannes\Documents\Projekte\T-Shirts\MÜNSTER\path4137.png"
       inkscape:export-xdpi="150.00568"
       inkscape:export-ydpi="150.00568">
      <path
         inkscape:connector-curvature="0"
         id="path3010-4-9"
         d="m 523.59262,638.82182 c -40.63,0 -73.57052,32.93558 -73.57052,73.56559 0,31.71248 20.06987,58.73895 48.19747,69.07467 l 50.74611,0 c 28.1276,-10.33572 48.19253,-37.36219 48.19253,-69.07467 0,-40.63001 -32.93558,-73.56559 -73.56559,-73.56559 z"
         style="fill:#000000;fill-opacity:1;fill-rule:nonzero;stroke:none" />
      <path
         sodipodi:nodetypes="czc"
         inkscape:connector-curvature="0"
         id="path3851-4"
         d="m 451.42697,712.1028 c 0,0 22.24132,5.63576 72.16319,5.63576 49.92186,0 72.16318,-5.63576 72.16318,-5.63576"
         style="fill:#000000;stroke:#ffffff;stroke-width:3;stroke-linecap:round;stroke-linejoin:miter;stroke-miterlimit:4;stroke-opacity:1;stroke-dasharray:none" />
    </g>
    <g
       style="display:inline"
       id="g3811"
       transform="matrix(1.4101191,0,0,1.5651348,-480.06292,-603.81074)"
       inkscape:export-filename="C:\Users\Johannes\Documents\Projekte\T-Shirts\MÜNSTER\path4137.png"
       inkscape:export-xdpi="150.00568"
       inkscape:export-ydpi="150.00568">
      <path
         inkscape:connector-curvature="0"
         id="path3010-4"
         d="m 607.85323,600.74038 c -55.24036,0 -100.02614,44.77906 -100.02614,100.01944 0,43.11613 27.2869,79.86119 65.52905,93.91358 l 68.99418,0 c 38.24215,-14.05239 65.52235,-50.79745 65.52235,-93.91358 0,-55.24038 -44.77907,-100.01944 -100.01944,-100.01944 z"
         style="fill:#000000;fill-opacity:1;fill-rule:nonzero;stroke:none" />
      <path
         sodipodi:nodetypes="czc"
         inkscape:connector-curvature="0"
         id="path3851"
         d="m 509.73716,700.37284 c 0,0 30.23919,7.66236 98.11272,7.66236 67.87353,0 98.11273,-7.66236 98.11273,-7.66236"
         style="fill:#000000;stroke:#ffffff;stroke-width:4;stroke-linecap:round;stroke-linejoin:miter;stroke-miterlimit:4;stroke-opacity:1;stroke-dasharray:none" />
    </g>
  </g>
  <g
     inkscape:groupmode="layer"
     id="layer3"
     inkscape:label="Buddenturm"
     transform="translate(-152.27446,659.43729)"
     style="display:inline">
    <path
       style="fill:#000000;display:inline"
       d="m 3208.019,-225.38534 c -0.5713,0.86662 0.2318,10.77893 -0.089,17.11851 -0.1128,2.23282 0.517,4.05964 -0.793,4.05964 -1.4363,0 -2.7681,-1.99742 -1.9389,-3.71719 0.2541,-0.52714 0.9793,-1.78926 0.8372,-2.20089 -0.2204,-0.63686 -0.4188,-0.59945 -1.322,0.34229 -1.9099,2.40264 -0.8568,6.30656 2.3796,7.3854 0.7349,0.25888 0.8371,0.70369 0.8371,3.13027 0,1.54213 0.1199,2.37729 -0.4846,3.3749 -0.021,0.0351 -0.065,0.0621 -0.087,0.0978 -0.7348,0.60258 -1.2339,1.54933 -1.2339,2.64117 0,1.26416 0.6475,2.32876 1.5864,2.88564 0.1283,0.2152 0.2203,0.4553 0.2203,0.83155 0,1.7769 -4.1421,8.99953 -4.1421,8.99953 0,0 -92.8472,149.351422 -94.1255,159.301452 -1.2784,9.94988 5.4544,10.8406 7.9319,13.84159 l -0.1762,618.619578 190.2778,-0.2447 c -0.1044,-177.7304 -1.117,-398.4234 -4.715,-618.179238 2.9401,-3.18552 8.6801,-6.35038 7.4031,-13.89057 -1.277,-7.54035 -96.5932,-159.839392 -96.5932,-159.839392 0,0 -3.3415,-4.70652 -3.5694,-8.60825 -0.025,-0.43729 0.164,-0.66314 0.3967,-0.88038 0.8831,-0.57425 1.4542,-1.61867 1.4542,-2.83681 0,-1.40768 -0.7785,-2.65228 -1.8949,-3.13027 -0.1995,-0.60649 -0.083,-1.28279 -0.087,-1.71179 -0.014,-1.27292 -0.6817,-3.37928 2.027,-4.10848 2.5217,-0.74062 5.9655,-2.84166 6.6541,-4.25529 0.6877,-1.41363 -4.1427,2.42988 -6.2134,2.73899 -0.8007,0.11958 -1.7717,0.49583 -1.7627,-1.8586 0.014,-2.35443 1.1718,-1.7661 2.9965,-1.8586 0.6117,0.11395 2.0361,-9.39253 0.3526,-9.19516 -1.5207,0.3376 -5.3321,-0.8555 -5.3321,-2.73899 l -0.1326,-2.78782 4.2745,1.02705 0.044,-2.83681 -4.9794,-1.51615 z m -0.7933,171.920202 c 42.7311,0.0286 66.5896,6.33535 79.9802,13.01018 13.3905,6.67483 16.3099,13.90779 16.7452,15.21123 1.425,4.26891 1.432,7.69922 1.0576,10.0754 -0.3743,2.37635 -1.1899,3.81518 -1.1899,3.81518 -0.3615,0.64906 -1.2334,0.8616 -1.8066,0.44011 -0.5734,-0.42149 -0.7502,-1.38264 -0.3526,-2.00525 0,0 0.537,-0.8314 0.8374,-2.73898 0.3006,-1.90775 0.304,-4.7444 -0.9696,-8.55941 -0.2664,-0.79807 -2.4816,-7.217 -15.3791,-13.6461 -12.8973,-6.42895 -36.4191,-12.68824 -78.9226,-12.71672 -35.6184,-0.0236 -57.7391,6.16851 -71.0788,12.52108 -6.67,3.17644 -11.1511,6.38778 -14.0572,8.90186 -1.453,1.25696 -2.5173,2.31076 -3.2607,3.13027 -0.7433,0.81935 -1.0999,1.31487 -1.4102,1.6628 -2.5858,2.90066 -2.6265,5.6999 -2.1151,8.02131 0.5107,2.32157 1.6303,3.96183 1.6303,3.96183 0.4798,0.57581 0.4212,1.61569 -0.1325,2.10307 -0.5536,0.48754 -1.4548,0.30708 -1.8507,-0.3423 0,0 -1.503,-2.0569 -2.1593,-5.03769 -0.6561,-2.98096 -0.4246,-7.12121 2.7761,-10.71147 0.096,-0.10675 0.647,-0.77302 1.4543,-1.66296 0.8071,-0.88994 1.9417,-2.04281 3.4811,-3.3749 3.0799,-2.66386 7.7656,-6.02389 14.63,-9.29283 13.7292,-6.5382 36.2046,-12.78981 72.0924,-12.76571 z m 74.2516,47.88326 6.0372,0.92938 0,25.48227 -6.0372,-0.92922 0,-25.48243 z m -153.086,87.79438 0,23.232498 -4.1864,2.69 0,-22.939098 0.089,-0.1466 4.0981,-2.8368 z m 94.1694,52.138498 12.7793,0 -0.2645,23.9662 -12.5148,-0.1468 0,-23.8194 z m 60.7674,70.1865 5.993,0.9782 0,25.4824 -5.993,-0.9782 0,-25.4824 z m -153.8793,6.3585 0,23.1834 -4.2303,2.6901 0,-22.89 0.1325,-0.1469 4.0981,-2.8366 z m 93.9492,111.0756 12.7792,0 -0.2644,23.9661 -12.5148,-0.1468 0,-23.8193 z m 63.3673,76.3493 5.993,0.9782 0,25.4823 -5.993,-0.9782 0,-25.4823 z m -95.2712,81.7783 14.586,0 0,25.4823 -14.586,0 0,-25.4823 z m -73.6347,83.7347 94.5662,0 93.4204,0 c 0,0 -63.2062,2.0484 -93.5087,2.0541 -30.7988,0.01 -94.4779,-2.0541 -94.4779,-2.0541 z"
       id="path4011"
       inkscape:connector-curvature="0"
       inkscape:export-filename="C:\Users\Johannes\Documents\Projekte\T-Shirts\MÜNSTER\path4137.png"
       inkscape:export-xdpi="150.00568"
       inkscape:export-ydpi="150.00568" />
  </g>
  <g
     inkscape:groupmode="layer"
     id="layer4"
     inkscape:label="Rathaus"
     style="display:inline"
     transform="translate(-152.27446,659.43729)">
    <g
       style="display:inline"
       id="g3205"
       transform="matrix(1.4101191,0,0,1.5651348,-800.8377,-594.06229)"
       inkscape:export-filename="C:\Users\Johannes\Documents\Projekte\T-Shirts\MÜNSTER\path4137.png"
       inkscape:export-xdpi="150.00568"
       inkscape:export-ydpi="150.00568">
      <path
         inkscape:connector-curvature="0"
         id="rect3886"
         d="m 1959.6924,201.79119 c -1.9231,0 -3.5,1.5767 -3.5,3.5 0,1.16615 0.5888,2.18044 1.4687,2.8125 l -0.25,2.5625 -0.7187,-0.0312 0.375,0.8125 -0.4688,0.625 0.6562,0.125 -0.2187,2.40625 -0.75,-0.0625 0.375,0.84375 -0.4687,0.59375 -0.031,0.0312 0.7187,0.125 -0.2187,2.375 -0.625,-0.0312 0.375,0.8125 -0.5,0.625 0.5937,0.125 -0.2187,2.40625 -0.5937,-0.0625 0.375,0.84375 -0.5,0.59375 0,0.0312 0.5624,0.0937 -0.2187,2.40625 -0.625,-0.0312 0.375,0.8125 -0.4687,0.625 0.5624,0.125 -0.1562,1.8125 -2.5,9.6875 1.5312,0 0,13.0625 0,22.25 0,130.5 -27.6874,0 0,-34.625 1.625,0 -2.625,-9.75 -0.125,-1.8125 0.7187,-0.125 0,-0.0312 -0.5,-0.59375 0.375,-0.84375 -0.7187,0.0625 -0.2188,-2.40625 0.6562,-0.125 -0.4687,-0.625 0.375,-0.8125 -0.6563,0.0312 -0.2187,-2.40625 0.6563,-0.0937 -0.031,-0.0312 -0.4687,-0.59375 0.375,-0.84375 -0.625,0.0625 -0.2188,-2.40625 0.6875,-0.125 -0.5,-0.625 0.375,-0.8125 -0.6875,0.0312 -0.1875,-2.375 0.75,-0.125 -0.031,-0.0312 -0.4687,-0.59375 0.375,-0.84375 -0.75,0.0625 -0.1875,-2.5 c 0.8842,-0.63155 1.4688,-1.64303 1.4688,-2.8125 l 0,-0.0312 c -0.019,-1.9096 -1.5901,-3.46875 -3.5,-3.46875 -1.9233,0 -3.4688,1.5767 -3.4688,3.5 0,1.16615 0.5891,2.18044 1.4688,2.8125 l -0.25,2.5625 -0.7188,-0.0625 0.375,0.84375 -0.5,0.59375 0,0.0312 0.6875,0.125 -0.2187,2.40625 -0.75,-0.0625 0.375,0.84375 -0.5,0.59375 0,0.0312 0.7187,0.125 -0.2187,2.375 -0.6563,-0.0312 0.375,0.8125 -0.4687,0.59375 -0.031,0.0312 0.625,0.125 -0.2187,2.40625 -0.625,-0.0625 0.375,0.84375 -0.4688,0.59375 -0.031,0.0312 0.5937,0.0937 -0.2187,2.40625 -0.625,-0.0312 0.375,0.8125 -0.5,0.625 0.5937,0.125 -0.1875,1.8125 -2.4688,9.6875 1.5313,0 0,34.625 0,0.6875 0,66.5 -28.4375,0 0,-34.78125 1.625,0 -2.5938,-9.75 -0.1562,-1.8125 0.7188,-0.15625 -0.4688,-0.625 0.375,-0.8125 -0.75,0.0625 -0.1875,-2.40625 0.6563,-0.125 -0.031,-0.0312 -0.4687,-0.59375 0.375,-0.84375 -0.6563,0.0625 -0.1875,-2.40625 0.625,-0.125 -0.5,-0.625 0.375,-0.8125 -0.625,0.0312 -0.1875,-2.375 0.6875,-0.125 -0.031,-0.0312 -0.4688,-0.59375 0.375,-0.84375 -0.6875,0.0625 -0.1875,-2.40625 0.7188,-0.125 -0.5,-0.625 0.375,-0.8125 -0.7188,0.0312 -0.2188,-2.46875 c 0.8842,-0.63155 1.4688,-1.67428 1.4688,-2.84375 l 0,-0.0312 c -0.019,-1.9096 -1.559,-3.4375 -3.4688,-3.4375 -1.9229,0 -3.5,1.54545 -3.5,3.46875 0,1.16615 0.5889,2.21169 1.4688,2.84375 l -0.25,2.5625 -0.7188,-0.0625 0.375,0.84375 -0.4687,0.59375 -0.031,0.0312 0.6876,0.125 -0.2188,2.375 -0.75,-0.0625 0.375,0.84375 -0.4688,0.59375 -0.031,0.0312 0.7188,0.125 -0.2188,2.40625 -0.625,-0.0625 0.375,0.84375 -0.5,0.59375 -0.031,0.0312 0.625,0.0937 -0.2188,2.40625 -0.5938,-0.0312 0.375,0.8125 -0.5,0.625 0.5626,0.125 -0.2188,2.40625 -0.625,-0.0625 0.375,0.84375 -0.4688,0.59375 -0.031,0.0312 0.5938,0.0937 -0.1563,1.8125 -2.5,9.71875 1.5313,0 0,35.28125 0.031,0 0,59.59375 -5.3125,0 0,106.0625 -3.5313,0 0,125.875 0.031,0 19.0313,0 2.6562,0 0,-11.90625 -1.5938,-1.53125 -1.0624,0 0,-23.125 c 1.0077,-0.4826 1.6874,-1.49155 1.6874,-2.6875 l 0,-7.4375 c 0,-0.98254 -0.4619,-1.85969 -1.1874,-2.40625 2.7698,-26.04734 8.9248,-31.13225 26.1874,-40.90625 16.9827,10.12251 22.6369,14.64722 25.3126,40.6875 -0.9051,0.51537 -1.5313,1.50488 -1.5313,2.625 l 0,7.4375 c 0,1.27074 0.795,2.34255 1.9063,2.78125 l 0,23.03125 -1.25,0 -1.5938,1.53125 0,11.90625 2.8438,0 16.2187,0 2.625,0 0,-11.90625 -1.5937,-1.53125 -1.0313,0 0,-23.15625 c 0.991,-0.48872 1.6875,-1.47264 1.6875,-2.65625 l 0,-7.4375 c 0,-0.98254 -0.4618,-1.85969 -1.1875,-2.40625 2.7698,-26.04734 8.9251,-31.13225 26.1875,-40.90625 17.0103,10.13852 22.6731,14.66264 25.3438,40.8125 -0.8106,0.53598 -1.3438,1.45139 -1.3438,2.5 l 0,7.4375 c 0,1.19595 0.6797,2.2049 1.6875,2.6875 l 0,23.125 -1.0625,0 -1.5938,1.53125 0,11.90625 21.6876,0 0,-11.90625 -1.5938,-1.53125 -1.3438,0 0,-23 c 1.1694,-0.40903 2,-1.50006 2,-2.8125 l 0,-7.4375 c 0,-1.11458 -0.6023,-2.07643 -1.5,-2.59375 2.7786,-25.88872 8.9662,-30.9676 26.1876,-40.71875 16.9313,10.09123 22.6266,14.61029 25.3124,40.4375 -1.2398,0.36827 -2.125,1.51242 -2.125,2.875 l 0,7.4375 c 0,1.49539 1.0723,2.7053 2.5,2.9375 l 0,22.875 -1.875,0 -1.5937,1.53125 0,11.90625 21.6875,0 0,-11.90625 -1.5938,-1.53125 -2.4062,0 0,-22.8125 0.062,0 c 1.662,0 3,-1.338 3,-3 l 0,-7.4375 c 0,-1.49539 -1.0722,-2.7053 -2.5,-2.9375 2.7979,-25.57436 8.9836,-30.66946 26.125,-40.375 17.0235,10.14634 22.6757,14.67149 25.3437,40.875 -0.7568,0.54357 -1.25,1.43052 -1.25,2.4375 l 0,7.4375 c 0,1.15526 0.6414,2.12339 1.5938,2.625 l 0,23.1875 -0.9375,0 -1.5937,1.53125 0,11.90625 21.6562,0 0,-11.90625 -0.062,-0.0625 0,-113.90625 -3.5313,0 0,-106.0625 -5.3124,0 0,-59.59375 0,-0.5 0,-34.78125 1.625,0 -2.5938,-9.75 -0.1562,-1.8125 0.7187,-0.15625 -0.4687,-0.625 0.375,-0.8125 -0.75,0.0625 -0.1876,-2.40625 0.6563,-0.125 0,-0.0312 -0.5,-0.59375 0.375,-0.84375 -0.6563,0.0625 -0.1874,-2.40625 0.625,-0.125 -0.5,-0.625 0.375,-0.8125 -0.625,0.0312 -0.1876,-2.375 0.6876,-0.125 -0.031,-0.0312 -0.4687,-0.59375 0.375,-0.84375 -0.6876,0.0625 -0.1874,-2.40625 0.7187,-0.125 -0.5,-0.625 0.375,-0.8125 -0.7187,0.0312 -0.1876,-2.46875 c 0.8842,-0.63155 1.4376,-1.67428 1.4376,-2.84375 l 0,-0.0312 c -0.019,-1.9096 -1.559,-3.4375 -3.4688,-3.4375 -1.9234,0 -3.4688,1.54545 -3.4688,3.46875 0,1.16615 0.5573,2.21169 1.4376,2.84375 l -0.25,2.5625 -0.7188,-0.0625 0.375,0.84375 -0.4688,0.59375 -0.031,0.0312 0.7188,0.125 -0.25,2.375 -0.75,-0.0625 0.375,0.84375 -0.4688,0.59375 -0.031,0.0312 0.75,0.125 -0.25,2.40625 -0.625,-0.0625 0.375,0.84375 -0.5,0.59375 0,0.0312 0.625,0.0937 -0.25,2.40625 -0.5938,-0.0312 0.375,0.8125 -0.5,0.625 0.5938,0.125 -0.25,2.40625 -0.625,-0.0625 0.375,0.84375 -0.4688,0.59375 -0.031,0.0312 0.625,0.0937 -0.1876,1.8125 -2.5,9.71875 1.5313,0 0,34.78125 -28.4063,0 0,-66.5 0,-0.6875 0,-34.625 1.625,0 -2.625,-9.75 -0.125,-1.8125 0.75,-0.125 -0.031,-0.0312 -0.5,-0.59375 0.375,-0.84375 -0.7188,0.0625 -0.1874,-2.40625 0.625,-0.125 -0.4688,-0.625 0.375,-0.8125 -0.6562,0.0312 -0.1876,-2.40625 0.625,-0.0937 0,-0.0312 -0.5,-0.59375 0.375,-0.84375 -0.625,0.0625 -0.1874,-2.40625 0.6562,-0.125 -0.5,-0.625 0.375,-0.8125 -0.6562,0.0312 -0.2188,-2.375 0.75,-0.125 -0.031,-0.0312 -0.4688,-0.59375 0.375,-0.84375 -0.7188,0.0625 -0.2187,-2.5 c 0.8842,-0.63155 1.4687,-1.64303 1.4687,-2.8125 l 0,-0.0312 c -0.019,-1.9096 -1.5589,-3.46875 -3.4687,-3.46875 -1.9234,0 -3.5,1.5767 -3.5,3.5 0,1.16615 0.5885,2.18044 1.4687,2.8125 l -0.25,2.5625 -0.7187,-0.0625 0.375,0.84375 -0.5,0.59375 0,0.0312 0.6875,0.125 -0.2188,2.40625 -0.75,-0.0625 0.375,0.84375 -0.5,0.59375 0,0.0312 0.7188,0.125 -0.2188,2.375 -0.6562,-0.0312 0.375,0.8125 -0.4688,0.59375 -0.031,0.0312 0.625,0.125 -0.1875,2.40625 -0.625,-0.0625 0.375,0.84375 -0.5,0.59375 0,0.0312 0.5937,0.0937 -0.2187,2.40625 -0.625,-0.0312 0.375,0.8125 -0.5,0.625 0.5937,0.125 -0.1562,1.8125 -2.5,9.6875 1.5312,0 0,34.625 -27.6874,0 0,-130.5 0,-22.25 0,-13.0625 1.625,0 -2.5938,-9.71875 -0.1562,-1.84375 0.75,-0.125 -0.031,-0.0312 -0.5,-0.59375 0.4063,-0.84375 -0.75,0.0625 -0.1876,-2.40625 0.625,-0.125 -0.4687,-0.625 0.375,-0.8125 -0.6563,0.0625 -0.1874,-2.40625 0.625,-0.125 0,-0.0312 -0.5,-0.59375 0.375,-0.84375 -0.625,0.0625 -0.1876,-2.40625 0.6563,-0.125 -0.5,-0.625 0.375,-0.8125 -0.6563,0.0312 -0.1874,-2.375 0.7187,-0.125 -0.031,-0.0312 -0.4687,-0.59375 0.375,-0.84375 -0.7187,0.0625 -0.2188,-2.46875 c 0.8846,-0.63155 1.4688,-1.67428 1.4688,-2.84375 l 0,-0.0312 c -0.019,-1.9096 -1.5586,-3.46875 -3.4688,-3.46875 -1.923,0 -3.5,1.5767 -3.5,3.5 0,1.16615 0.5889,2.18044 1.4688,2.8125 l -0.25,2.5625 -0.7188,-0.0312 0.375,0.8125 -0.5,0.625 0.6875,0.125 -0.2187,2.40625 -0.75,-0.0625 0.375,0.84375 -0.5,0.59375 0,0.0312 0.7187,0.125 -0.2187,2.375 -0.6563,-0.0312 0.375,0.8125 -0.4687,0.625 0.5937,0.125 -0.2187,2.40625 -0.5938,-0.0625 0.375,0.84375 -0.5,0.59375 0,0.0312 0.5625,0.0937 -0.2187,2.40625 -0.625,-0.0312 0.375,0.8125 -0.5,0.625 0.5937,0.125 -0.1563,1.8125 -2.5,9.6875 1.5313,0 0,20.125 -12.9375,-0.0937 0,-1.21875 c 0.7484,-0.37508 1.25,-1.05018 1.25,-1.8125 -0.01,-0.74976 -0.5161,-1.40875 -1.25,-1.78125 l 0,-0.84375 c 1.2482,-0.43531 2.125,-1.45957 2.125,-2.625 l 0,-0.0312 c -0.014,-1.15677 -0.8837,-2.13242 -2.125,-2.5625 l 0,-1.125 -1.375,-1.625 -1.4062,1.625 0,1.125 c -1.2482,0.43533 -2.125,1.42835 -2.125,2.59375 0,1.1657 0.8759,2.18985 2.125,2.625 l 0,0.84375 c -0.7513,0.37461 -1.25,1.01725 -1.25,1.78125 0,0.764 0.4987,1.43789 1.25,1.8125 l 0,1.21875 -12.9688,-0.0937 0,-19.9375 1.625,0 -2.5938,-9.71875 -0.1562,-1.84375 0.75,-0.125 -0.031,-0.0312 -0.4688,-0.59375 0.375,-0.84375 -0.75,0.0625 -0.1875,-2.40625 0.6563,-0.125 -0.5,-0.625 0.375,-0.8125 -0.6563,0.0625 -0.1875,-2.40625 0.6562,-0.125 -0.031,-0.0312 -0.5,-0.59375 0.375,-0.84375 -0.625,0.0625 -0.1875,-2.40625 0.6563,-0.125 -0.4688,-0.625 0.375,-0.8125 -0.6875,0.0312 -0.1875,-2.375 0.7188,-0.125 0,-0.0312 -0.5,-0.59375 0.375,-0.84375 -0.7188,0.0625 -0.1875,-2.46875 c 0.8836,-0.63155 1.4375,-1.67428 1.4375,-2.84375 l 0,-0.0312 c -0.019,-1.9096 -1.559,-3.46875 -3.4688,-3.46875 -1.9229,0 -3.4687,1.5767 -3.4687,3.5 0,1.16615 0.558,2.18044 1.4375,2.8125 l -0.25,2.5625 -0.7188,-0.0312 0.375,0.8125 -0.4687,0.625 0.6875,0.125 -0.25,2.40625 -0.75,-0.0625 0.375,0.84375 -0.4688,0.59375 -0.031,0.0312 0.75,0.125 -0.25,2.375 -0.625,-0.0312 0.375,0.8125 -0.5,0.625 0.625,0.125 -0.25,2.40625 -0.5938,-0.0625 0.375,0.84375 -0.4687,0.59375 -0.031,0.0312 0.5938,0.0937 -0.25,2.40625 -0.625,-0.0312 0.375,0.8125 -0.4688,0.625 0.5938,0.125 -0.1875,1.8125 -2.5,9.6875 1.5313,0 0,13.0625 -28.6563,0 0,-13.0625 1.625,0 -2.625,-9.71875 -0.125,-1.84375 0.7187,-0.125 0,-0.0312 -0.5,-0.59375 0.375,-0.84375 -0.7187,0.0625 -0.2187,-2.40625 0.6562,-0.125 -0.5,-0.625 0.4062,-0.8125 -0.6562,0.0625 -0.2188,-2.40625 0.6563,-0.125 -0.031,-0.0312 -0.4687,-0.59375 0.375,-0.84375 -0.6563,0.0625 -0.1874,-2.40625 0.6874,-0.125 -0.5,-0.625 0.375,-0.8125 -0.6874,0.0312 -0.1876,-2.375 0.75,-0.125 -0.031,-0.0312 -0.4688,-0.59375 0.375,-0.84375 -0.75,0.0625 -0.1874,-2.46875 c 0.884,-0.63155 1.4687,-1.67428 1.4687,-2.84375 l 0,-0.0312 c -0.02,-1.9096 -1.5906,-3.46875 -3.5,-3.46875 -1.924,0 -3.4687,1.5767 -3.4687,3.5 0,1.16615 0.5579,2.18044 1.4374,2.8125 l -0.2187,2.5625 -0.7187,-0.0312 0.375,0.8125 -0.5,0.625 0.6874,0.125 -0.2187,2.40625 -0.75,-0.0625 0.375,0.84375 -0.5,0.59375 0,0.0312 0.7187,0.125 -0.2187,2.375 -0.6563,-0.0312 0.375,0.8125 -0.4687,0.625 0.5937,0.125 -0.2187,2.40625 -0.625,-0.0625 0.375,0.84375 -0.4687,0.59375 -0.031,0.0312 0.5937,0.0937 -0.2187,2.40625 -0.625,-0.0312 0.375,0.8125 -0.5,0.625 0.5937,0.125 -0.1874,1.8125 -2.4688,9.6875 1.5312,0 0,20.125 -12.9687,-0.0937 0,-1.21875 c 0.7484,-0.37508 1.25,-1.05018 1.25,-1.8125 -0.01,-0.74976 -0.5161,-1.40875 -1.25,-1.78125 l 0,-0.84375 c 1.2482,-0.43531 2.125,-1.45957 2.125,-2.625 l 0,-0.0312 c -0.014,-1.15677 -0.8837,-2.13242 -2.125,-2.5625 l 0,-1.125 -1.375,-1.625 -1.4063,1.625 0,1.125 c -1.248,0.43533 -2.125,1.42835 -2.125,2.59375 0,1.1657 0.8763,2.18985 2.125,2.625 l 0,0.84375 c -0.7509,0.37461 -1.25,1.01725 -1.25,1.78125 0,0.764 0.4991,1.43789 1.25,1.8125 l 0,1.21875 -12.9374,-0.0937 0,-19.9375 1.625,0 -2.5938,-9.71875 -0.1562,-1.84375 0.75,-0.125 -0.031,-0.0312 -0.4687,-0.59375 0.375,-0.84375 -0.75,0.0625 -0.1876,-2.40625 0.625,-0.125 -0.4687,-0.625 0.375,-0.8125 -0.6563,0.0625 -0.1874,-2.40625 0.625,-0.125 0,-0.0312 -0.5,-0.59375 0.375,-0.84375 -0.625,0.0625 -0.1876,-2.40625 0.6563,-0.125 -0.4687,-0.625 0.375,-0.8125 -0.6876,0.0312 -0.1874,-2.375 0.7187,-0.125 -0.031,-0.0312 -0.4687,-0.59375 0.375,-0.84375 -0.7187,0.0625 -0.2188,-2.46875 c 0.8849,-0.63155 1.4688,-1.67428 1.4688,-2.84375 l 0,-0.0312 c -0.019,-1.9096 -1.5583,-3.46875 -3.4688,-3.46875 l -0.031,0 z m 6.9062,61.78125 c 0.7706,0 1.4375,0.74481 1.6875,1.78125 l 0.75,0 -0.094,16.3125 -4.5,8.3125 0,-24.65625 0.5,0 c 0.2554,-1.02038 0.8932,-1.75 1.6562,-1.75 z m 8.0625,0 c 0.7855,0 1.4488,0.77579 1.6875,1.84375 l 1.0312,0 0,0.59375 -5.4062,10.03125 0.062,-10.65625 0.9687,0 c 0.245,-1.05104 0.8788,-1.8125 1.6563,-1.8125 z m 8.0937,0 c 0.8008,0 1.4604,0.80667 1.6876,1.90625 l 0.7187,0 -0.062,9.625 -4.9375,-9.15625 0,-0.5 0.9063,0 c 0.2327,-1.08376 0.8949,-1.875 1.6874,-1.875 z m 8.0626,0 c 0.8087,0 1.4997,0.81911 1.7187,1.9375 l 0.5937,0 0,24.46875 -5.0624,-9.375 0.094,-15.09375 0.9375,0 c 0.219,-1.11839 0.9095,-1.9375 1.7188,-1.9375 z m 52.8124,0 c 0.7709,0 1.4376,0.74481 1.6876,1.78125 l 0.75,0 -0.094,16.0625 -4.625,8.5625 0,-24.65625 0.625,0 c 0.2554,-1.02038 0.8936,-1.75 1.6562,-1.75 z m 8.0626,0 c 0.7853,0 1.4492,0.77579 1.6874,1.84375 l 0.9376,0 0,0.53125 -5.3126,9.84375 0.063,-10.40625 0.9687,0 c 0.245,-1.05104 0.8787,-1.8125 1.6563,-1.8125 z m 8.0937,0 c 0.8007,0 1.4607,0.80667 1.6875,1.90625 l 0.7188,0 -0.063,9.84375 -5.0312,-9.3125 0,-0.5625 1,0 c 0.2327,-1.08376 0.8949,-1.875 1.6875,-1.875 z m 8.0625,0 c 0.809,0 1.4994,0.81911 1.7188,1.9375 l 0.4687,0 0,24.46875 -4.9375,-9.15625 0.094,-15.3125 0.9374,0 c 0.2194,-1.11839 0.9095,-1.9375 1.7188,-1.9375 z m -89.5312,164.28125 c 7.3087,4.35603 9.494,6.13474 10.5312,18.25 l 0,19.875 -21.5,-0.0625 0,-19.09375 c 1.0334,-12.63786 3.4162,-14.69244 10.9688,-18.96875 z m 79.1874,0 c 7.3066,4.35603 9.4941,6.13474 10.5313,18.25 l 0,19.875 -21.5,-0.0625 0,-19.09375 c 1.0334,-12.63786 3.4145,-14.69244 10.9687,-18.96875 z m -118.3437,50.40625 c 7.3084,4.35603 9.494,6.16599 10.5313,18.28125 l 0,19.875 -21.5,-0.0625 0,-19.09375 c 1.0344,-12.63786 3.4161,-14.72369 10.9687,-19 z m 40.5625,0 c 7.3085,4.35603 9.4927,6.16599 10.5312,18.28125 l 0,19.875 -21.5,-0.0625 0,-19.09375 c 1.0328,-12.63786 3.4162,-14.72369 10.9688,-19 z m 79.1875,0 c 7.3084,4.35603 9.5253,6.16599 10.5625,18.28125 l 0,19.875 -21.5312,-0.0625 0,-19.09375 c 1.0351,-12.63786 3.4161,-14.72369 10.9687,-19 z m 36.7813,0 c 7.3087,4.35603 9.494,6.16599 10.5312,18.28125 l 0,19.875 -21.5,-0.0625 0,-19.09375 c 1.0334,-12.63786 3.4162,-14.72369 10.9688,-19 z m -179.6876,54.375 c 12.8914,7.68414 16.7936,10.87836 18.625,32.25 l 0,51.25 -37.9687,-0.125 0,-49.875 c 1.8231,-22.29352 6.0204,-25.95648 19.3437,-33.5 z m 68.0313,0 c 12.8921,7.68414 16.7954,10.87836 18.625,32.25 l 0,51.25 -37.9687,-0.125 0,-49.875 c 1.8233,-22.29352 6.0206,-25.95648 19.3437,-33.5 z m 68.9687,0 c 12.8914,7.68414 16.7936,10.87836 18.625,32.25 l 0,51.25 -37.9687,-0.125 0,-49.875 c 1.823,-22.29352 6.0204,-25.95648 19.3437,-33.5 z m 66.125,0 c 12.8923,7.68414 16.7936,10.87836 18.625,32.25 l 0,51.25 -37.9687,-0.125 0,-49.875 c 1.823,-22.29352 6.0204,-25.95648 19.3437,-33.5 z"
         style="fill:#000000;fill-opacity:1;stroke:none" />
      <path
         inkscape:connector-curvature="0"
         id="path3067"
         d="m 1959.3749,354.0034 c 0,0 -2.1656,3.6364 -4.9376,7.4063 -1.3859,1.8849 -2.9029,3.7953 -4.375,5.2812 -1.4719,1.4859 -2.929,2.5126 -3.8124,2.7188 -3.4671,0.8087 -5.5552,0.9268 -7.3438,1.0624 -1.7886,0.1357 -3.3633,0.2938 -5.375,1.25 -3.0292,1.4398 -5.3142,4.4913 -6.9375,7.1563 -1.6233,2.665 -2.5625,5.0313 -2.5625,5.0313 l 1.875,0.7187 c 0,0 0.3469,-0.8486 0.9375,-2.0313 -0.077,0.5937 -0.125,1.1982 -0.125,1.8126 l 0,23.125 2.3437,0 0,-2.2188 0.7813,0 0,-16.0625 0,-0.0313 c 0,0 -0.085,-1.8194 0.5313,-3.5937 0.2143,-0.6173 0.5055,-1.2287 0.9062,-1.75 0.5787,0.1275 1.0424,0.4014 1.4062,0.7187 0.538,0.4693 0.8898,0.76 1.125,1.4376 0.344,0.9901 0.3061,19.4662 0.3126,19.9374 l 0,0.2813 0,0.0313 c 0,0 0,0.0624 0,0.0624 l 0,0.3438 1.4687,-0.125 0,-0.375 c 0,0 -2e-4,-0.0312 0,-0.0312 l 0,-0.2813 c 0.01,-0.4632 -0.1612,-18.8405 0.1875,-19.8437 0.2353,-0.6778 0.6184,-0.9683 1.1562,-1.4376 0.4035,-0.3519 0.8875,-0.6072 1.5626,-0.7187 0.3913,0.5213 0.6919,1.1327 0.9062,1.75 0.4504,1.2966 0.5231,2.6018 0.5312,3.2187 l 0,0.375 0,0.0313 c 2e-4,0.002 0,0.0625 0,0.0625 l 0,16 1.5313,0 0,-16.0312 c 0,0 -2e-4,-0.0308 0,-0.0313 l 0,-0.375 c 0.01,-0.6064 0.075,-1.9363 0.5313,-3.25 0.2136,-0.6155 0.5073,-1.2077 0.9062,-1.7187 0.575,0.1279 1.044,0.3715 1.4062,0.6874 0.538,0.4692 0.8898,0.7598 1.125,1.4376 0.344,0.9901 0.3061,19.4662 0.3126,19.9374 l 0,0.2813 0,0.0313 c 0,0 0,0.0624 0,0.0624 l 0,0.3438 1.4687,-0.125 0,-0.375 c 0,0 -2e-4,-0.0312 0,-0.0312 l 0,-0.2813 c 0.01,-0.4632 -0.1612,-18.8405 0.1875,-19.8437 0.2353,-0.6778 0.6184,-0.9683 1.1562,-1.4376 0.3972,-0.3463 0.8723,-0.6041 1.5313,-0.7187 0.4034,0.5188 0.719,1.1206 0.9375,1.75 0.6164,1.7743 0.5312,3.5937 0.5312,3.5937 l 0,0.0313 0,16.0625 0.8126,0 0,2.1562 2.3437,0 0,-23.0624 c 0,-5.8258 -3.5846,-10.8315 -8.6563,-12.9376 0.2176,-0.0475 0.3971,-0.0718 0.625,-0.125 1.6519,-0.3852 3.1971,-1.6507 4.7813,-3.25 1.5842,-1.5992 3.1726,-3.5671 4.5937,-5.5 2.8424,-3.8657 5.0313,-7.5624 5.0313,-7.5624 l -1.7187,-1.0313 z m -19.8126,18.5625 c 0.1117,-0.0108 0.2311,0.008 0.3438,0 -0.024,1.0412 -0.1001,3.5985 -0.5,4.75 -0.3081,0.8872 -0.7645,1.7607 -1.4688,2.375 -0.5564,0.4855 -1.2616,0.838 -2.2187,0.9688 0.1492,-0.1467 0.2858,-0.2998 0.4063,-0.4688 0.344,-0.4829 0.5527,-1.1373 0.3124,-1.7812 -0.3037,-0.8147 -0.3528,-1.2918 -0.3124,-1.7188 0.04,-0.427 0.181,-0.8636 0.375,-1.5625 0.1185,-0.4273 0.7439,-1.1927 1.3437,-1.75 0.2999,-0.2787 0.5984,-0.5228 0.8125,-0.6875 0.2949,-0.0517 0.6036,-0.0958 0.9062,-0.125 z m 1.9376,0 c 0.422,0.0283 0.8426,0.0534 1.25,0.125 0.2192,0.1836 0.5028,0.4532 0.8124,0.75 0.6198,0.5937 1.2576,1.3893 1.375,1.8125 0.194,0.6989 0.3662,1.1668 0.4063,1.5937 0.04,0.4271 -0.04,0.8729 -0.3437,1.6876 -0.2403,0.6439 -0.032,1.3296 0.3124,1.8124 0.069,0.097 0.1395,0.194 0.2188,0.2813 -0.8678,-0.1491 -1.5094,-0.5136 -2.0312,-0.9687 -0.7043,-0.6144 -1.192,-1.4566 -1.5,-2.3438 -0.4022,-1.158 -0.4757,-3.6936 -0.5,-4.75 z m 3.6874,0.8438 c 3.9496,1.6522 6.7692,5.4497 7.1876,9.9374 l 0,1.5313 c -0.3734,-0.9808 -0.9498,-1.9703 -1.8438,-2.75 -0.7041,-0.6143 -1.5953,-1.0736 -2.6875,-1.2813 -0.1846,-0.1021 -0.3771,-0.2208 -0.5625,-0.3437 -0.41,-0.2717 -0.766,-0.5906 -0.9688,-0.875 -0.2024,-0.2844 -0.2705,-0.434 -0.1874,-0.6563 0.3422,-0.9176 0.4649,-1.6246 0.4062,-2.25 -0.059,-0.6251 -0.2566,-1.1292 -0.4375,-1.7812 -0.1572,-0.5662 -0.5098,-1.075 -0.9063,-1.5312 z m -9.0937,0.0624 c -0.3319,0.4042 -0.6141,0.8541 -0.75,1.3438 -0.1809,0.652 -0.3788,1.1561 -0.4375,1.7812 -0.059,0.6254 0.064,1.301 0.4062,2.2188 0.083,0.2222 0.046,0.4031 -0.1562,0.6875 -0.2026,0.2844 -0.59,0.6033 -1,0.875 -0.3508,0.2324 -0.7216,0.4104 -1.0312,0.5625 -0.899,0.2388 -1.645,0.6597 -2.25,1.1875 -0.8745,0.7628 -1.4385,1.7274 -1.8126,2.6875 l 0,-1.4688 c 0,-0.0101 -9e-4,-0.0211 0,-0.0312 0.4246,-4.4273 3.1545,-8.1689 7.0313,-9.8438 z m 4.5937,4.7188 c 0.3745,0.9426 0.9542,1.8764 1.8126,2.625 0.2838,0.2477 0.6194,0.4642 0.9687,0.6562 -0.3454,0.191 -0.6874,0.4109 -0.9687,0.6563 -0.8584,0.7486 -1.4381,1.6824 -1.8126,2.625 -0.3743,-0.9392 -0.926,-1.8791 -1.7812,-2.625 -0.2813,-0.2454 -0.5958,-0.4653 -0.9375,-0.6563 0.3455,-0.192 0.6536,-0.4085 0.9375,-0.6562 0.8552,-0.7459 1.4069,-1.6858 1.7812,-2.625 z m -5.7812,4.0312 c 1.1327,0 1.9459,0.2869 2.5938,0.7188 -0.5139,0.1879 -0.9741,0.4588 -1.3438,0.7812 -0.6554,0.5719 -1.089,1.2801 -1.375,2 -0.286,-0.7172 -0.7218,-1.4302 -1.375,-2 -0.3372,-0.2941 -0.7356,-0.5346 -1.1875,-0.7187 0.6614,-0.4686 1.5,-0.7813 2.6875,-0.7813 z m 11.625,0.0313 c 1.1234,0 1.9482,0.2618 2.5938,0.6875 -0.5139,0.1879 -0.9741,0.4588 -1.3438,0.7812 -0.6554,0.5717 -1.089,1.2801 -1.375,2 -0.286,-0.7172 -0.7218,-1.4301 -1.375,-2 -0.3372,-0.2941 -0.7356,-0.5346 -1.1875,-0.7187 0.6592,-0.4622 1.5094,-0.75 2.6875,-0.75 z"
         style="font-size:medium;font-style:normal;font-variant:normal;font-weight:normal;font-stretch:normal;text-indent:0;text-align:start;text-decoration:none;line-height:normal;letter-spacing:normal;word-spacing:normal;text-transform:none;direction:ltr;block-progression:tb;writing-mode:lr-tb;text-anchor:start;baseline-shift:baseline;color:#000000;fill:#000000;fill-opacity:1;stroke:none;stroke-width:2;marker:none;visibility:visible;display:inline;overflow:visible;enable-background:accumulate;font-family:Sans;-inkscape-font-specification:Sans" />
      <path
         id="path3067-1"
         d="m 1921.9573,421.19642 c 0,0 -2.2145,3.6364 -5.0491,7.4063 -1.4172,1.8849 -2.9684,3.7953 -4.4738,5.2812 -1.5051,1.4859 -2.9951,2.5126 -3.8984,2.7188 -3.5454,0.8087 -5.6806,0.9268 -7.5096,1.0624 -1.829,0.1357 -3.4392,0.2938 -5.4963,1.25 -3.0976,1.4398 -5.4342,4.4913 -7.0942,7.1563 -1.6599,2.665 -2.6203,5.0313 -2.6203,5.0313 l 1.9173,0.7187 c 0,0 0.3548,-0.8486 0.9587,-2.0313 -0.079,0.5937 -0.1278,1.1982 -0.1278,1.8126 l 0,23.125 2.3966,0 0,-2.2188 0.7989,0 0,-16.0625 0,-0.031 c 0,0 -0.087,-1.8194 0.5433,-3.5937 0.2191,-0.6173 0.5169,-1.2287 0.9267,-1.75 0.5917,0.1275 1.0659,0.4014 1.4379,0.7187 0.5502,0.4693 0.9099,0.76 1.1504,1.4376 0.3518,0.9901 0.313,19.4662 0.3197,19.9374 l 0,0.2813 0,0.031 c 0,0 0,0.062 0,0.062 l 0,0.3438 1.5018,-0.125 0,-0.375 c 0,0 -2e-4,-0.031 0,-0.031 l 0,-0.2813 c 0.01,-0.4632 -0.1648,-18.8405 0.1917,-19.8437 0.2407,-0.6778 0.6324,-0.9683 1.1823,-1.4376 0.4127,-0.3519 0.9076,-0.6072 1.5979,-0.7187 0.4002,0.5213 0.7075,1.1327 0.9267,1.75 0.4605,1.2966 0.5349,2.6018 0.5432,3.2187 l 0,0.375 0,0.031 c 2e-4,0 0,0.062 0,0.062 l 0,16 1.5658,0 0,-16.0312 c 0,0 -2e-4,-0.031 0,-0.031 l 0,-0.375 c 0.01,-0.6064 0.077,-1.9363 0.5433,-3.25 0.2185,-0.6155 0.5188,-1.2077 0.9267,-1.7187 0.588,0.1279 1.0676,0.3715 1.4379,0.6874 0.5502,0.4692 0.9099,0.7598 1.1504,1.4376 0.3518,0.9901 0.313,19.4662 0.3197,19.9374 l 0,0.2813 0,0.031 c 0,0 0,0.062 0,0.062 l 0,0.3438 1.5018,-0.125 0,-0.375 c 0,0 -2e-4,-0.031 0,-0.031 l 0,-0.2813 c 0.01,-0.4632 -0.1648,-18.8405 0.1918,-19.8437 0.2406,-0.6778 0.6323,-0.9683 1.1823,-1.4376 0.4061,-0.3463 0.892,-0.6041 1.5658,-0.7187 0.4125,0.5188 0.7353,1.1206 0.9587,1.75 0.6303,1.7743 0.5432,3.5937 0.5432,3.5937 l 0,0.031 0,16.0625 0.8309,0 0,2.1562 2.3966,0 0,-23.0624 c 0,-5.8258 -3.6655,-10.8315 -8.8517,-12.9376 0.2226,-0.047 0.4061,-0.072 0.6391,-0.125 1.6892,-0.3852 3.2693,-1.6507 4.8893,-3.25 1.6199,-1.5992 3.2442,-3.5671 4.6974,-5.5 2.9065,-3.8657 5.1449,-7.5624 5.1449,-7.5624 l -1.7575,-1.0313 z m -20.2599,18.5625 c 0.1142,-0.011 0.2363,0.01 0.3516,0 -0.025,1.0412 -0.1024,3.5985 -0.5113,4.75 -0.3151,0.8872 -0.7818,1.7607 -1.502,2.375 -0.5689,0.4855 -1.2901,0.838 -2.2688,0.9688 0.1526,-0.1467 0.2923,-0.2998 0.4155,-0.4688 0.3518,-0.4829 0.5652,-1.1373 0.3195,-1.7812 -0.3106,-0.8147 -0.3608,-1.2918 -0.3195,-1.7188 0.041,-0.427 0.1851,-0.8636 0.3835,-1.5625 0.1211,-0.4273 0.7607,-1.1927 1.374,-1.75 0.3067,-0.2787 0.6119,-0.5228 0.8308,-0.6875 0.3016,-0.052 0.6173,-0.096 0.9267,-0.125 z m 1.9813,0 c 0.4316,0.028 0.8617,0.053 1.2783,0.125 0.2241,0.1836 0.5141,0.4532 0.8307,0.75 0.6338,0.5937 1.286,1.3893 1.406,1.8125 0.1984,0.6989 0.3745,1.1668 0.4155,1.5937 0.041,0.4271 -0.041,0.8729 -0.3514,1.6876 -0.2458,0.6439 -0.033,1.3296 0.3194,1.8124 0.071,0.097 0.1427,0.194 0.2237,0.2813 -0.8873,-0.1491 -1.5434,-0.5136 -2.077,-0.9687 -0.7202,-0.6144 -1.2189,-1.4566 -1.5339,-2.3438 -0.4112,-1.158 -0.4864,-3.6936 -0.5113,-4.75 z m 3.7707,0.8438 c 4.0387,1.6522 6.922,5.4497 7.3498,9.9374 l 0,1.5313 c -0.3818,-0.9808 -0.9712,-1.9703 -1.8854,-2.75 -0.72,-0.6143 -1.6313,-1.0736 -2.7481,-1.2813 -0.1888,-0.1021 -0.3857,-0.2208 -0.5752,-0.3437 -0.4193,-0.2717 -0.7833,-0.5906 -0.9907,-0.875 -0.207,-0.2844 -0.2766,-0.434 -0.1916,-0.6563 0.3499,-0.9176 0.4753,-1.6246 0.4153,-2.25 -0.06,-0.6251 -0.2624,-1.1292 -0.4474,-1.7812 -0.1607,-0.5662 -0.5213,-1.075 -0.9267,-1.5312 z m -9.299,0.062 c -0.3394,0.4042 -0.628,0.8541 -0.7669,1.3438 -0.185,0.652 -0.3874,1.1561 -0.4474,1.7812 -0.06,0.6254 0.065,1.301 0.4154,2.2188 0.085,0.2222 0.047,0.4031 -0.1598,0.6875 -0.2071,0.2844 -0.6033,0.6033 -1.0225,0.875 -0.3588,0.2324 -0.7379,0.4104 -1.0545,0.5625 -0.9193,0.2388 -1.6821,0.6597 -2.3008,1.1875 -0.8942,0.7628 -1.471,1.7274 -1.8535,2.6875 l 0,-1.4688 c 0,-0.01 -9e-4,-0.021 0,-0.031 0.4342,-4.4273 3.2257,-8.1689 7.19,-9.8438 z m 4.6974,4.7188 c 0.383,0.9426 0.9757,1.8764 1.8535,2.625 0.2902,0.2477 0.6334,0.4642 0.9906,0.6562 -0.3532,0.191 -0.7029,0.4109 -0.9906,0.6563 -0.8778,0.7486 -1.4705,1.6824 -1.8535,2.625 -0.3827,-0.9392 -0.9469,-1.8791 -1.8214,-2.625 -0.2877,-0.2454 -0.6093,-0.4653 -0.9587,-0.6563 0.3533,-0.192 0.6684,-0.4085 0.9587,-0.6562 0.8745,-0.7459 1.4387,-1.6858 1.8214,-2.625 z m -5.9117,4.0312 c 1.1583,0 1.9898,0.2869 2.6523,0.7188 -0.5255,0.1879 -0.996,0.4588 -1.3741,0.7812 -0.6702,0.5719 -1.1136,1.2801 -1.406,2 -0.2925,-0.7172 -0.7381,-1.4302 -1.4061,-2 -0.3448,-0.2941 -0.7522,-0.5346 -1.2143,-0.7187 0.6764,-0.4686 1.5339,-0.7813 2.7482,-0.7813 z m 11.8874,0.031 c 1.1488,0 1.9922,0.2618 2.6524,0.6875 -0.5255,0.1879 -0.9961,0.4588 -1.3742,0.7812 -0.6702,0.5717 -1.1135,1.2801 -1.406,2 -0.2925,-0.7172 -0.7381,-1.4301 -1.406,-2 -0.3449,-0.2941 -0.7522,-0.5346 -1.2143,-0.7187 0.674,-0.4622 1.5434,-0.75 2.7481,-0.75 z"
         style="font-size:medium;font-style:normal;font-variant:normal;font-weight:normal;font-stretch:normal;text-indent:0;text-align:start;text-decoration:none;line-height:normal;letter-spacing:normal;word-spacing:normal;text-transform:none;direction:ltr;block-progression:tb;writing-mode:lr-tb;text-anchor:start;baseline-shift:baseline;color:#000000;fill:#000000;fill-opacity:1;stroke:none;stroke-width:2;marker:none;visibility:visible;display:inline;overflow:visible;enable-background:accumulate;font-family:Sans;-inkscape-font-specification:Sans"
         inkscape:connector-curvature="0" />
      <path
         id="path3067-15"
         d="m 2074.9859,354.0049 c 0,0 2.1656,3.6364 4.9376,7.4063 1.3859,1.8849 2.9029,3.7953 4.375,5.2812 1.4719,1.4859 2.929,2.5126 3.8124,2.7188 3.4671,0.8087 5.5552,0.9268 7.3438,1.0624 1.7886,0.1357 3.3633,0.2938 5.375,1.25 3.0292,1.4398 5.3142,4.4913 6.9375,7.1563 1.6233,2.665 2.5625,5.0313 2.5625,5.0313 l -1.875,0.7187 c 0,0 -0.3469,-0.8486 -0.9375,-2.0313 0.077,0.5937 0.125,1.1982 0.125,1.8126 l 0,23.125 -2.3437,0 0,-2.2188 -0.7813,0 0,-16.0625 0,-0.031 c 0,0 0.085,-1.8194 -0.5313,-3.5937 -0.2143,-0.6173 -0.5055,-1.2287 -0.9062,-1.75 -0.5787,0.1275 -1.0424,0.4014 -1.4062,0.7187 -0.538,0.4693 -0.8898,0.76 -1.125,1.4376 -0.344,0.9901 -0.3061,19.4662 -0.3126,19.9374 l 0,0.2813 0,0.031 c 0,0 0,0.062 0,0.062 l 0,0.3438 -1.4687,-0.125 0,-0.375 c 0,0 2e-4,-0.031 0,-0.031 l 0,-0.2813 c -0.01,-0.4632 0.1612,-18.8405 -0.1875,-19.8437 -0.2353,-0.6778 -0.6184,-0.9683 -1.1562,-1.4376 -0.4035,-0.3519 -0.8875,-0.6072 -1.5626,-0.7187 -0.3913,0.5213 -0.6919,1.1327 -0.9062,1.75 -0.4504,1.2966 -0.5231,2.6018 -0.5312,3.2187 l 0,0.375 0,0.031 c -2e-4,0 0,0.062 0,0.062 l 0,16 -1.5313,0 0,-16.0312 c 0,0 2e-4,-0.031 0,-0.031 l 0,-0.375 c -0.01,-0.6064 -0.075,-1.9363 -0.5313,-3.25 -0.2136,-0.6155 -0.5073,-1.2077 -0.9062,-1.7187 -0.575,0.1279 -1.044,0.3715 -1.4062,0.6874 -0.538,0.4692 -0.8898,0.7598 -1.125,1.4376 -0.344,0.9901 -0.3061,19.4662 -0.3126,19.9374 l 0,0.2813 0,0.031 c 0,0 0,0.062 0,0.062 l 0,0.3438 -1.4687,-0.125 0,-0.375 c 0,0 2e-4,-0.031 0,-0.031 l 0,-0.2813 c -0.01,-0.4632 0.1612,-18.8405 -0.1875,-19.8437 -0.2353,-0.6778 -0.6184,-0.9683 -1.1562,-1.4376 -0.3972,-0.3463 -0.8723,-0.6041 -1.5313,-0.7187 -0.4034,0.5188 -0.719,1.1206 -0.9375,1.75 -0.6164,1.7743 -0.5312,3.5937 -0.5312,3.5937 l 0,0.031 0,16.0625 -0.8126,0 0,2.1562 -2.3437,0 0,-23.0624 c 0,-5.8258 3.5846,-10.8315 8.6563,-12.9376 -0.2176,-0.047 -0.3971,-0.072 -0.625,-0.125 -1.6519,-0.3852 -3.1971,-1.6507 -4.7813,-3.25 -1.5842,-1.5992 -3.1726,-3.5671 -4.5937,-5.5 -2.8424,-3.8657 -5.0313,-7.5624 -5.0313,-7.5624 l 1.7187,-1.0313 z m 19.8126,18.5625 c -0.1117,-0.011 -0.2311,0.01 -0.3438,0 0.024,1.0412 0.1001,3.5985 0.5,4.75 0.3081,0.8872 0.7645,1.7607 1.4688,2.375 0.5564,0.4855 1.2616,0.838 2.2187,0.9688 -0.1492,-0.1467 -0.2858,-0.2998 -0.4063,-0.4688 -0.344,-0.4829 -0.5527,-1.1373 -0.3124,-1.7812 0.3037,-0.8147 0.3528,-1.2918 0.3124,-1.7188 -0.04,-0.427 -0.181,-0.8636 -0.375,-1.5625 -0.1185,-0.4273 -0.7439,-1.1927 -1.3437,-1.75 -0.2999,-0.2787 -0.5984,-0.5228 -0.8125,-0.6875 -0.2949,-0.052 -0.6036,-0.096 -0.9062,-0.125 z m -1.9376,0 c -0.422,0.028 -0.8426,0.053 -1.25,0.125 -0.2192,0.1836 -0.5028,0.4532 -0.8124,0.75 -0.6198,0.5937 -1.2576,1.3893 -1.375,1.8125 -0.194,0.6989 -0.3662,1.1668 -0.4063,1.5937 -0.04,0.4271 0.04,0.8729 0.3437,1.6876 0.2403,0.6439 0.032,1.3296 -0.3124,1.8124 -0.069,0.097 -0.1395,0.194 -0.2188,0.2813 0.8678,-0.1491 1.5094,-0.5136 2.0312,-0.9687 0.7043,-0.6144 1.192,-1.4566 1.5,-2.3438 0.4022,-1.158 0.4757,-3.6936 0.5,-4.75 z m -3.6874,0.8438 c -3.9496,1.6522 -6.7692,5.4497 -7.1876,9.9374 l 0,1.5313 c 0.3734,-0.9808 0.9498,-1.9703 1.8438,-2.75 0.7041,-0.6143 1.5953,-1.0736 2.6875,-1.2813 0.1846,-0.1021 0.3771,-0.2208 0.5625,-0.3437 0.41,-0.2717 0.766,-0.5906 0.9688,-0.875 0.2024,-0.2844 0.2705,-0.434 0.1874,-0.6563 -0.3422,-0.9176 -0.4649,-1.6246 -0.4062,-2.25 0.059,-0.6251 0.2566,-1.1292 0.4375,-1.7812 0.1572,-0.5662 0.5098,-1.075 0.9063,-1.5312 z m 9.0937,0.062 c 0.3319,0.4042 0.6141,0.8541 0.75,1.3438 0.1809,0.652 0.3788,1.1561 0.4375,1.7812 0.059,0.6254 -0.064,1.301 -0.4062,2.2188 -0.083,0.2222 -0.046,0.4031 0.1562,0.6875 0.2026,0.2844 0.59,0.6033 1,0.875 0.3508,0.2324 0.7216,0.4104 1.0312,0.5625 0.899,0.2388 1.645,0.6597 2.25,1.1875 0.8745,0.7628 1.4385,1.7274 1.8126,2.6875 l 0,-1.4688 c 0,-0.01 9e-4,-0.021 0,-0.031 -0.4246,-4.4273 -3.1545,-8.1689 -7.0313,-9.8438 z m -4.5937,4.7188 c -0.3745,0.9426 -0.9542,1.8764 -1.8126,2.625 -0.2838,0.2477 -0.6194,0.4642 -0.9687,0.6562 0.3454,0.191 0.6874,0.4109 0.9687,0.6563 0.8584,0.7486 1.4381,1.6824 1.8126,2.625 0.3743,-0.9392 0.926,-1.8791 1.7812,-2.625 0.2813,-0.2454 0.5958,-0.4653 0.9375,-0.6563 -0.3455,-0.192 -0.6536,-0.4085 -0.9375,-0.6562 -0.8552,-0.7459 -1.4069,-1.6858 -1.7812,-2.625 z m 5.7812,4.0312 c -1.1327,0 -1.9459,0.2869 -2.5938,0.7188 0.5139,0.1879 0.9741,0.4588 1.3438,0.7812 0.6554,0.5719 1.089,1.2801 1.375,2 0.286,-0.7172 0.7218,-1.4302 1.375,-2 0.3372,-0.2941 0.7356,-0.5346 1.1875,-0.7187 -0.6614,-0.4686 -1.5,-0.7813 -2.6875,-0.7813 z m -11.625,0.031 c -1.1234,0 -1.9482,0.2618 -2.5938,0.6875 0.5139,0.1879 0.9741,0.4588 1.3438,0.7812 0.6554,0.5717 1.089,1.2801 1.375,2 0.286,-0.7172 0.7218,-1.4301 1.375,-2 0.3372,-0.2941 0.7356,-0.5346 1.1875,-0.7187 -0.6592,-0.4622 -1.5094,-0.75 -2.6875,-0.75 z"
         style="font-size:medium;font-style:normal;font-variant:normal;font-weight:normal;font-stretch:normal;text-indent:0;text-align:start;text-decoration:none;line-height:normal;letter-spacing:normal;word-spacing:normal;text-transform:none;direction:ltr;block-progression:tb;writing-mode:lr-tb;text-anchor:start;baseline-shift:baseline;color:#000000;fill:#000000;fill-opacity:1;stroke:none;stroke-width:2;marker:none;visibility:visible;display:inline;overflow:visible;enable-background:accumulate;font-family:Sans;-inkscape-font-specification:Sans"
         inkscape:connector-curvature="0" />
      <path
         id="path3067-1-2"
         d="m 2112.464,421.19642 c 0,0 2.2145,3.6364 5.0491,7.4063 1.4172,1.8849 2.9684,3.7953 4.4738,5.2812 1.5051,1.4859 2.9951,2.5126 3.8984,2.7188 3.5454,0.8087 5.6806,0.9268 7.5096,1.0624 1.829,0.1357 3.4392,0.2938 5.4963,1.25 3.0976,1.4398 5.4342,4.4913 7.0942,7.1563 1.6599,2.665 2.6203,5.0313 2.6203,5.0313 l -1.9173,0.7187 c 0,0 -0.3548,-0.8486 -0.9587,-2.0313 0.079,0.5937 0.1278,1.1982 0.1278,1.8126 l 0,23.125 -2.3966,0 0,-2.2188 -0.7989,0 0,-16.0625 0,-0.031 c 0,0 0.087,-1.8194 -0.5433,-3.5937 -0.2191,-0.6173 -0.5169,-1.2287 -0.9267,-1.75 -0.5917,0.1275 -1.0659,0.4014 -1.4379,0.7187 -0.5502,0.4693 -0.9099,0.76 -1.1504,1.4376 -0.3518,0.9901 -0.313,19.4662 -0.3197,19.9374 l 0,0.2813 0,0.031 c 0,0 0,0.062 0,0.062 l 0,0.3438 -1.5018,-0.125 0,-0.375 c 0,0 2e-4,-0.031 0,-0.031 l 0,-0.2813 c -0.01,-0.4632 0.1648,-18.8405 -0.1917,-19.8437 -0.2407,-0.6778 -0.6324,-0.9683 -1.1823,-1.4376 -0.4127,-0.3519 -0.9076,-0.6072 -1.5979,-0.7187 -0.4002,0.5213 -0.7075,1.1327 -0.9267,1.75 -0.4605,1.2966 -0.5349,2.6018 -0.5432,3.2187 l 0,0.375 0,0.031 c -2e-4,0 0,0.062 0,0.062 l 0,16 -1.5658,0 0,-16.0312 c 0,0 2e-4,-0.031 0,-0.031 l 0,-0.375 c -0.01,-0.6064 -0.077,-1.9363 -0.5433,-3.25 -0.2185,-0.6155 -0.5188,-1.2077 -0.9267,-1.7187 -0.588,0.1279 -1.0676,0.3715 -1.4379,0.6874 -0.5502,0.4692 -0.9099,0.7598 -1.1504,1.4376 -0.3518,0.9901 -0.313,19.4662 -0.3197,19.9374 l 0,0.2813 0,0.031 c 0,0 0,0.062 0,0.062 l 0,0.3438 -1.5018,-0.125 0,-0.375 c 0,0 2e-4,-0.031 0,-0.031 l 0,-0.2813 c -0.01,-0.4632 0.1648,-18.8405 -0.1918,-19.8437 -0.2406,-0.6778 -0.6323,-0.9683 -1.1823,-1.4376 -0.4061,-0.3463 -0.892,-0.6041 -1.5658,-0.7187 -0.4125,0.5188 -0.7353,1.1206 -0.9587,1.75 -0.6303,1.7743 -0.5432,3.5937 -0.5432,3.5937 l 0,0.031 0,16.0625 -0.8309,0 0,2.1562 -2.3966,0 0,-23.0624 c 0,-5.8258 3.6655,-10.8315 8.8517,-12.9376 -0.2226,-0.047 -0.4061,-0.072 -0.6391,-0.125 -1.6892,-0.3852 -3.2693,-1.6507 -4.8893,-3.25 -1.6199,-1.5992 -3.2442,-3.5671 -4.6974,-5.5 -2.9065,-3.8657 -5.1449,-7.5624 -5.1449,-7.5624 l 1.7575,-1.0313 z m 20.2599,18.5625 c -0.1142,-0.011 -0.2363,0.01 -0.3516,0 0.025,1.0412 0.1024,3.5985 0.5113,4.75 0.3151,0.8872 0.7818,1.7607 1.502,2.375 0.5689,0.4855 1.2901,0.838 2.2688,0.9688 -0.1526,-0.1467 -0.2923,-0.2998 -0.4155,-0.4688 -0.3518,-0.4829 -0.5652,-1.1373 -0.3195,-1.7812 0.3106,-0.8147 0.3608,-1.2918 0.3195,-1.7188 -0.041,-0.427 -0.1851,-0.8636 -0.3835,-1.5625 -0.1211,-0.4273 -0.7607,-1.1927 -1.374,-1.75 -0.3067,-0.2787 -0.6119,-0.5228 -0.8308,-0.6875 -0.3016,-0.052 -0.6173,-0.096 -0.9267,-0.125 z m -1.9813,0 c -0.4316,0.028 -0.8617,0.053 -1.2783,0.125 -0.2241,0.1836 -0.5141,0.4532 -0.8307,0.75 -0.6338,0.5937 -1.286,1.3893 -1.406,1.8125 -0.1984,0.6989 -0.3745,1.1668 -0.4155,1.5937 -0.041,0.4271 0.041,0.8729 0.3514,1.6876 0.2458,0.6439 0.033,1.3296 -0.3194,1.8124 -0.071,0.097 -0.1427,0.194 -0.2237,0.2813 0.8873,-0.1491 1.5434,-0.5136 2.077,-0.9687 0.7202,-0.6144 1.2189,-1.4566 1.5339,-2.3438 0.4112,-1.158 0.4864,-3.6936 0.5113,-4.75 z m -3.7707,0.8438 c -4.0387,1.6522 -6.922,5.4497 -7.3498,9.9374 l 0,1.5313 c 0.3818,-0.9808 0.9712,-1.9703 1.8854,-2.75 0.72,-0.6143 1.6313,-1.0736 2.7481,-1.2813 0.1888,-0.1021 0.3857,-0.2208 0.5752,-0.3437 0.4193,-0.2717 0.7833,-0.5906 0.9907,-0.875 0.207,-0.2844 0.2766,-0.434 0.1916,-0.6563 -0.3499,-0.9176 -0.4753,-1.6246 -0.4153,-2.25 0.06,-0.6251 0.2624,-1.1292 0.4474,-1.7812 0.1607,-0.5662 0.5213,-1.075 0.9267,-1.5312 z m 9.299,0.062 c 0.3394,0.4042 0.628,0.8541 0.7669,1.3438 0.185,0.652 0.3874,1.1561 0.4474,1.7812 0.06,0.6254 -0.065,1.301 -0.4154,2.2188 -0.085,0.2222 -0.047,0.4031 0.1598,0.6875 0.2071,0.2844 0.6033,0.6033 1.0225,0.875 0.3588,0.2324 0.7379,0.4104 1.0545,0.5625 0.9193,0.2388 1.6821,0.6597 2.3008,1.1875 0.8942,0.7628 1.471,1.7274 1.8535,2.6875 l 0,-1.4688 c 0,-0.01 9e-4,-0.021 0,-0.031 -0.4342,-4.4273 -3.2257,-8.1689 -7.19,-9.8438 z m -4.6974,4.7188 c -0.383,0.9426 -0.9757,1.8764 -1.8535,2.625 -0.2902,0.2477 -0.6334,0.4642 -0.9906,0.6562 0.3532,0.191 0.7029,0.4109 0.9906,0.6563 0.8778,0.7486 1.4705,1.6824 1.8535,2.625 0.3827,-0.9392 0.9469,-1.8791 1.8214,-2.625 0.2877,-0.2454 0.6093,-0.4653 0.9587,-0.6563 -0.3533,-0.192 -0.6684,-0.4085 -0.9587,-0.6562 -0.8745,-0.7459 -1.4387,-1.6858 -1.8214,-2.625 z m 5.9117,4.0312 c -1.1583,0 -1.9898,0.2869 -2.6523,0.7188 0.5255,0.1879 0.996,0.4588 1.3741,0.7812 0.6702,0.5719 1.1136,1.2801 1.406,2 0.2925,-0.7172 0.7381,-1.4302 1.4061,-2 0.3448,-0.2941 0.7522,-0.5346 1.2143,-0.7187 -0.6764,-0.4686 -1.5339,-0.7813 -2.7482,-0.7813 z m -11.8874,0.031 c -1.1488,0 -1.9922,0.2618 -2.6524,0.6875 0.5255,0.1879 0.9961,0.4588 1.3742,0.7812 0.6702,0.5717 1.1135,1.2801 1.406,2 0.2925,-0.7172 0.7381,-1.4301 1.406,-2 0.3449,-0.2941 0.7522,-0.5346 1.2143,-0.7187 -0.674,-0.4622 -1.5434,-0.75 -2.7481,-0.75 z"
         style="font-size:medium;font-style:normal;font-variant:normal;font-weight:normal;font-stretch:normal;text-indent:0;text-align:start;text-decoration:none;line-height:normal;letter-spacing:normal;word-spacing:normal;text-transform:none;direction:ltr;block-progression:tb;writing-mode:lr-tb;text-anchor:start;baseline-shift:baseline;color:#000000;fill:#000000;fill-opacity:1;stroke:none;stroke-width:2;marker:none;visibility:visible;display:inline;overflow:visible;enable-background:accumulate;font-family:Sans;-inkscape-font-specification:Sans"
         inkscape:connector-curvature="0" />
    </g>
  </g>
  <g
     inkscape:groupmode="layer"
     id="layer7"
     inkscape:label="Prinzipalmarkt"
     transform="translate(-152.27446,659.43729)"
     style="display:inline">
    <path
       style="fill:#000000;fill-opacity:1;fill-rule:nonzero;stroke:none;display:inline"
       d="m 2388.4958,-117.98525 12.5358,6.71724 0,43.435323 -15.816,0 6.8908,11.48683 -79.5637,186.047057 -14.0036,0 0,2.8506 5.4091,8.3258 0,514.6776 248.786,0 0,-514.0566 0.025,0 6.0264,-8.2977 0,-3.4997 -12.892,0 -79.5637,-186.047057 6.9163,-11.48683 -15.2566,0 0,-43.435323 10.5016,-6.71724 -79.996,0 z m 40.7098,124.1818727 c 6.5046,0 11.7733,5.8478103 11.7733,13.0674603 0,7.21966 -5.2687,13.06731 -11.7733,13.06731 -6.5044,0 -11.7984,-5.84765 -11.7984,-13.06731 0,-7.21965 5.294,-13.0674603 11.7984,-13.0674603 z m -49.8639,104.9338773 38.93,0 0,62.5143 -38.93,0 z m 63.4933,0 38.9302,0 0,62.5143 -38.9302,0 z m -107.5343,117.0979 40.9643,0 0,94.3217 -40.9643,0 z m 73.2322,0 40.9642,0 0,94.3217 -40.9642,0 z m 73.2323,0 40.9642,0 0,94.3217 -40.9642,0 z m -146.4645,145.9421 40.9643,0 0,94.3499 -40.9643,0 z m 73.2322,0 40.9642,0 0,94.3499 -40.9642,0 z m 73.2323,0 40.9642,0 0,94.3499 -40.9642,0 z"
       id="rect3065"
       inkscape:connector-curvature="0"
       sodipodi:nodetypes="cccccccccccccccccccccccssssscccccccccccccccccccccccccccccccccccccccc"
       inkscape:export-filename="C:\Users\Johannes\Documents\Projekte\T-Shirts\MÜNSTER\path4137.png"
       inkscape:export-xdpi="150.00568"
       inkscape:export-ydpi="150.00568" />
    <path
       style="fill:#000000;fill-opacity:1;fill-rule:nonzero;stroke:none;display:inline"
       d="m 2674.7253,-88.162507 c -20.9604,0 -38.0079,19.44708 -38.5269,43.64334 l -10.0492,0 0,3.89021 4.1348,0 0,9.17848 -4.1348,0 0,3.89022 3.0668,0 c -1.2591,3.5856 -2.8512,5.48832 -5.2025,7.90199 -1.116,1.14499 -3.0587,2.1939 -4.9015,3.03923 -12.1119,0.74575 -22.0115,10.5346997 -24.3154,23.4020797 l -4.1621,0 0,3.8902203 3.724,0 c -0.034,0.61271 -0.054,1.23106 -0.054,1.85397 l 0,7.3245 -3.6691,0 0,3.8902 3.6691,0 0,13.00797 c -0.014,0.082 -0.017,0.095 -0.027,0.1823 -1.5952,13.1059 -3.2716,18.8002 -7.6943,26.7757 -5.0595,9.1243 -9.4667,12.9349 -12.0208,14.5274 -12.0409,2.6765 -21.0568,14.4533 -21.0568,28.629597 l 0,11.6098 -6.9551,0 0,3.8902 4.2168,0 0,536.7281 248.9038,0 0,-536.7281 4.2443,0 0,-3.8902 -7.0098,0 0,-11.6098 c 0,-12.864397 -7.4267,-23.725097 -17.7984,-27.626597 -2.5664,-1.6227 -6.9326,-5.4674 -11.9386,-14.4972 -4.0971,-7.3873 -5.8361,-12.8949 -7.3384,-24.0707 l 0,-16.92847 2.6561,0 0,-3.8902 -2.6561,0 0,-7.3245 c 0,-0.62836 -0.021,-1.23593 -0.055,-1.85397 l 2.7108,0 0,-3.8902203 -3.1763,0 c -2.3315,-13.0683 -12.4614,-22.9318497 -24.8357,-23.4020797 -1.324,-0.46001 -6.6561,-2.4089 -8.899,-4.71085 -1.9585,-2.0094 -3.3865,-3.66818 -4.5457,-6.23037 l 2.6288,0 0,-3.89022 -3.9704,0 c -0.087,-0.32492 -0.1898,-0.62253 -0.2737,-0.97256 l 0,-8.20592 4.2441,0 0,-3.89021 -10.4051,0 c -0.519,-24.19607 -17.5677,-43.64334 -38.5268,-43.64334 z m -10.0767,98.95732 19.058,0 0,21.15306 -19.058,0 z m -34.173,101.662287 33.3514,0 0,76.4366 -33.3514,0 z m 54.2714,0 33.3789,0 0,76.4366 -33.3789,0 z m -98.2471,124.6388 39.7315,0 0,80.5092 -39.7315,0 z m 67.935,0 39.7042,0 0,80.5092 -39.7042,0 z m 67.9079,0 39.7315,0 0,80.5092 -39.7315,0 z m -136.5283,135.0936 49.2605,0 0,94.6416 -49.2605,0 z m 62.3766,0 49.233,0 0,94.6416 -49.233,0 z m 62.3491,0 49.2605,0 0,94.6416 -49.2605,0 z"
       id="rect3032"
       inkscape:connector-curvature="0"
       sodipodi:nodetypes="sccccccccccccccsccccccccsccccccccccscccccccscccccccccccccccssccccccccccccccccccccccccccccccccccccccccccccc"
       inkscape:export-filename="C:\Users\Johannes\Documents\Projekte\T-Shirts\MÜNSTER\path4137.png"
       inkscape:export-xdpi="150.00568"
       inkscape:export-ydpi="150.00568" />
    <path
       style="fill:#000000;fill-opacity:1;fill-rule:nonzero;stroke:none;display:inline"
       d="m 2930.963,-134.65891 c -13.1674,0.13068 -18.8059,17.27865 -25.746,15.74577 -0.2637,-0.0579 -7.4888,0 -7.4888,0 l 1.9368,6.67605 0,43.088103 -94.6169,196.050887 -14.9776,0 0,2.8194 5.7844,8.2719 0,510.7805 266.0585,0 0,-510.1688 0.027,0 6.4559,-8.2453 0,-3.4577 -13.7898,0 -94.0229,-196.050887 0,-43.088103 2.7373,-6.67605 -8.5476,0.21279 c -7.141,0.18248 -10.6416,-16.0893 -23.8091,-15.95856 z m -13.6348,115.353753 23.7833,0 0,35.82702 -23.7833,0 z m -53.0154,120.354257 33.9319,0 0,62.9299 -33.9319,0 z m 47.9282,0 33.9577,0 0,62.9299 -33.9577,0 z m 47.954,0 33.9578,0 0,62.9299 -33.9578,0 z m -140.8666,117.7916 39.0449,0 0,73.436 -39.0449,0 z m 45.191,0 39.045,0 0,73.436 -39.045,0 z m 45.1908,0 39.0451,0 0,73.436 -39.0451,0 z m 45.1911,0 39.0449,0 0,73.436 -39.0449,0 z m 45.2167,0 39.019,0 0,73.436 -39.019,0 z m -180.7896,119.3681 39.0449,0 0,73.436 -39.0449,0 z m 45.191,0 39.045,0 0,73.436 -39.045,0 z m 45.1908,0 39.0451,0 0,73.436 -39.0451,0 z m 45.1911,0 39.0449,0 0,73.436 -39.0449,0 z m 45.2167,0 39.019,0 0,73.436 -39.019,0 z"
       id="rect3065-1"
       inkscape:connector-curvature="0"
       sodipodi:nodetypes="cccccccccccccccccccccccccccccccccccccccccccccccccccccccccccccccccccccccccccccccccccccccccccc"
       inkscape:export-filename="C:\Users\Johannes\Documents\Projekte\T-Shirts\MÜNSTER\path4137.png"
       inkscape:export-xdpi="150.00568"
       inkscape:export-ydpi="150.00568" />
  </g>
  <g
     inkscape:groupmode="layer"
     id="layer6"
     inkscape:label="Matthäuskirche"
     style="display:inline"
     transform="translate(-152.27446,659.43729)">
    <path
       style="fill:#000000;stroke:none;display:inline"
       d="m 607.56403,-456.56154 0,102.52516 -154.49293,69.10839 85.37411,77.03116 0,90.91556 0,32.397026 0,889.012434 62.05145,26.9844 62.12237,-10.3545 0,-912.231554 0,-38.280256 0,-90.0527 90.46251,-34.04431 -95.26834,0 -3.46283,-121.42995 -41.83908,18.66946 0,-100.25032 z m 50.03709,239.01618 0,72.95211 -16.39644,-6.51077 -7.91528,-3.13772 -4.66425,-1.88264 0,-50.36048 z m -114.20893,14.19822 17.1737,15.37485 1.13092,48.08564 -18.30462,7.2952 z m 86.29294,48.94851 0.63597,0.23519 0,12.23713 -0.63597,-0.2352 z m 1.76688,0.70598 0.56546,0.23521 0,12.23712 -0.56546,-0.23519 z m 1.69609,0.70601 0.21265,0.0782 0.35338,0.15699 0,12.15868 -0.56518,-0.23521 0,-12.15868 z m 1.69624,0.70598 0.63582,0.23521 0,12.15867 -0.63582,-0.23521 z m 1.76674,0.62754 0.56545,0.23521 0,12.15869 -0.56545,-0.23521 z m 1.69623,0.70599 0.63596,0.23521 0,12.15867 -0.63596,-0.23521 z m 1.76674,0.70598 0.42416,0.15699 0,12.15868 -0.42416,-0.15698 z m 1.55493,0.62756 0.56546,0.23519 0,12.08024 -0.56546,-0.2352 z m 1.69624,0.70598 0.63596,0.23521 0,12.08023 -0.63596,-0.23519 z m 1.76673,0.70599 0.56546,0.23519 0,12.0018 -0.56546,-0.23521 z m 1.6961,0.62754 0.6361,0.23521 0,12.08023 -0.6361,-0.2352 z m 1.76673,0.70599 0.56546,0.2352 0,12.0018 -0.56546,-0.23519 z m 1.69624,0.70598 0.56545,0.23521 0,12.0018 -0.56545,-0.23521 z m 1.69609,0.62754 0.63624,0.23523 0,12.00179 -0.63624,-0.2352 z m 1.76702,0.706 0.56546,0.2352 0,12.00179 -0.56546,-0.2352 z m 1.69609,0.70599 0.63624,0.23521 0,11.92335 -0.63624,-0.23521 z m 1.76716,0.706 0.42374,0.15679 0,11.92336 -0.42374,-0.1568 z m -96.18733,5.09879 0,11.92336 -0.56545,0.2352 0,-11.92336 z m -1.69623,0.70598 0,11.92337 -0.56546,0.23521 0,-11.92337 z m -1.69609,0.706 0,11.92337 -0.63624,0.31376 0,-12.00179 0.63624,-0.23521 z m -1.76702,0.70597 0,12.00183 -0.56546,0.23519 0,-12.00181 z m -1.69609,0.62756 0,12.08024 -0.63611,0.23521 0,-12.08024 z m -1.76674,0.706 0,12.08024 -0.56546,0.23519 0,-12.08024 z m -1.69623,0.70597 0,12.08026 -0.56546,0.23521 0,-12.08026 z m -1.69609,0.62756 0,12.15867 -0.63611,0.31379 0,-12.23713 0.63611,-0.23521 z m -1.76674,0.70597 0,12.23713 -0.56546,0.23521 0,-12.23714 z m -1.69623,0.706 0,12.23713 -0.63625,0.23521 0,-12.23714 z m -1.76688,0.70598 0,12.23713 -0.35352,0.15681 0,-12.23713 z m 47.7754,27.53356 c 3.27866,0 5.93674,3.79296 5.93674,8.471826 0,4.67888 -2.65808,8.47188 -5.93674,8.47188 -3.27853,0 -5.9366,-3.793 -5.9366,-8.47188 0,-4.678866 2.65807,-8.471826 5.9366,-8.471826 z m 17.24434,0 c 3.27867,0 5.93675,3.79296 5.93675,8.471826 0,4.67888 -2.65808,8.47188 -5.93675,8.47188 -3.27838,0 -5.93646,-3.793 -5.93646,-8.47188 0,-4.678866 2.65808,-8.471826 5.93646,-8.471826 z m -31.87376,3.45148 c 3.27288,0 5.93674,3.792976 5.93674,8.471866 0,4.67888 -2.66386,8.47184 -5.93674,8.47184 -3.27966,0 -5.93647,-3.79296 -5.93647,-8.47184 0,-4.67889 2.65681,-8.471866 5.93647,-8.471866 z m 46.50319,0 c 3.27979,0 5.93674,3.792976 5.93674,8.471866 0,4.67889 -2.65695,8.47184 -5.93674,8.47184 -3.26753,0 -5.93661,-3.79295 -5.93661,-8.47184 0,-4.67889 2.66908,-8.471866 5.93661,-8.471866 z m -61.06225,3.137726 c 3.27979,0 5.93674,3.79297 5.93674,8.47186 0,4.67888 -2.65695,8.47185 -5.93674,8.47185 -3.27303,0 -5.9366,-3.79297 -5.9366,-8.47185 0,-4.67889 2.66357,-8.47186 5.9366,-8.47186 z m 75.6213,0 c 3.26809,0 5.9366,3.79297 5.9366,8.47186 0,4.67888 -2.66851,8.47185 -5.9366,8.47185 -3.27965,0 -5.93646,-3.79297 -5.93646,-8.47185 0,-4.67889 2.65681,-8.47186 5.93646,-8.47186 z m -90.25058,3.13772 c 3.27853,0 5.9366,3.793 5.9366,8.47186 0,4.67887 -2.65807,8.47185 -5.9366,8.47185 -3.27853,0 -5.9366,-3.79298 -5.9366,-8.47185 0,-4.67886 2.65807,-8.47186 5.9366,-8.47186 z m 104.88,0 c 3.27867,0 5.9366,3.793 5.9366,8.47186 0,4.67887 -2.65793,8.47185 -5.9366,8.47185 -3.27852,0 -5.9366,-3.79298 -5.9366,-8.47185 0,-4.67886 2.65808,-8.47186 5.9366,-8.47186 z m -61.06224,11.68802 c 3.27866,0 5.93674,3.79298 5.93674,8.47187 0,4.67888 -2.65808,8.47184 -5.93674,8.47184 -3.27853,0 -5.9366,-3.79296 -5.9366,-8.47184 0,-4.67889 2.65807,-8.47187 5.9366,-8.47187 z m 17.24434,0 c 3.27867,0 5.93675,3.79298 5.93675,8.47187 0,4.67888 -2.65808,8.47184 -5.93675,8.47184 -3.27838,0 -5.93646,-3.79296 -5.93646,-8.47184 0,-4.67889 2.65808,-8.47187 5.93646,-8.47187 z m -31.87376,3.4515 c 3.27443,0 5.93674,3.79299 5.93674,8.47186 0,4.67887 -2.66231,8.47187 -5.93674,8.47187 -3.27966,0 -5.93647,-3.793 -5.93647,-8.47187 0,-4.67887 2.65681,-8.47186 5.93647,-8.47186 z m 46.50319,0 c 3.27979,0 5.93674,3.79299 5.93674,8.47186 0,4.67887 -2.65695,8.47187 -5.93674,8.47187 -3.26866,0 -5.93661,-3.793 -5.93661,-8.47187 0,-4.67887 2.66795,-8.47186 5.93661,-8.47186 z m -61.06225,3.13772 c 3.27979,0 5.93674,3.79299 5.93674,8.47187 0,4.67886 -2.65695,8.47186 -5.93674,8.47186 -3.27373,0 -5.9366,-3.793 -5.9366,-8.47186 0,-4.67888 2.66287,-8.47187 5.9366,-8.47187 z m 75.6213,0 c 3.2688,0 5.9366,3.79299 5.9366,8.47187 0,4.67886 -2.6678,8.47186 -5.9366,8.47186 -3.27965,0 -5.93646,-3.793 -5.93646,-8.47186 0,-4.67888 2.65681,-8.47187 5.93646,-8.47187 z m -90.25058,3.13775 c 3.27853,0 5.9366,3.79296 5.9366,8.47184 0,4.67888 -2.65807,8.47187 -5.9366,8.47187 -3.27853,0 -5.9366,-3.79299 -5.9366,-8.47187 0,-4.67888 2.65807,-8.47184 5.9366,-8.47184 z m 104.88,0 c 3.27867,0 5.9366,3.79296 5.9366,8.47184 0,4.67888 -2.65793,8.47187 -5.9366,8.47187 -3.27852,0 -5.9366,-3.79299 -5.9366,-8.47187 0,-4.67888 2.65808,-8.47184 5.9366,-8.47184 z m -61.06224,11.76646 c 3.27866,0 5.93674,3.79297 5.93674,8.47184 0,4.6789 -2.65808,8.47186 -5.93674,8.47186 -3.27853,0 -5.9366,-3.79296 -5.9366,-8.47186 0,-4.67887 2.65807,-8.47184 5.9366,-8.47184 z m 17.24434,0 c 3.27867,0 5.93675,3.79297 5.93675,8.47184 0,4.6789 -2.65808,8.47186 -5.93675,8.47186 -3.27838,0 -5.93646,-3.79296 -5.93646,-8.47186 0,-4.67887 2.65808,-8.47184 5.93646,-8.47184 z m -31.87376,3.45149 c 3.2781,0 5.93674,3.79298 5.93674,8.47187 0,4.67886 -2.65864,8.47184 -5.93674,8.47184 -3.27952,0 -5.93647,-3.79298 -5.93647,-8.47184 0,-4.67889 2.65695,-8.47187 5.93647,-8.47187 z m 46.50319,0 c 3.27979,0 5.93674,3.79298 5.93674,8.47187 0,4.67886 -2.65695,8.47184 -5.93674,8.47184 -3.26951,0 -5.93661,-3.79298 -5.93661,-8.47184 0,-4.67889 2.6671,-8.47187 5.93661,-8.47187 z m -61.06225,3.13772 c 3.27979,0 5.93674,3.79299 5.93674,8.47187 0,4.67887 -2.65695,8.47184 -5.93674,8.47184 -3.27557,0 -5.9366,-3.79297 -5.9366,-8.47184 0,-4.67888 2.66103,-8.47187 5.9366,-8.47187 z m 75.6213,0 c 3.26979,0 5.9366,3.79299 5.9366,8.47187 0,4.67887 -2.66681,8.47184 -5.9366,8.47184 -3.27965,0 -5.93646,-3.79297 -5.93646,-8.47184 0,-4.67888 2.65681,-8.47187 5.93646,-8.47187 z m -90.25058,3.13773 c 3.27853,0 5.9366,3.793 5.9366,8.47186 0,4.67887 -2.65807,8.47185 -5.9366,8.47185 -3.27853,0 -5.9366,-3.79298 -5.9366,-8.47185 0,-4.67886 2.65807,-8.47186 5.9366,-8.47186 z m 104.88,0 c 3.27867,0 5.9366,3.793 5.9366,8.47186 0,4.67887 -2.65793,8.47185 -5.9366,8.47185 -3.27852,0 -5.9366,-3.79298 -5.9366,-8.47185 0,-4.67886 2.65808,-8.47186 5.9366,-8.47186 z m -61.06224,11.68802 c 3.27866,0 5.93674,3.793 5.93674,8.47187 0,4.67886 -2.65808,8.47184 -5.93674,8.47184 -3.27853,0 -5.9366,-3.79298 -5.9366,-8.47184 0,-4.67887 2.65807,-8.47187 5.9366,-8.47187 z m 17.24434,0 c 3.27867,0 5.93675,3.793 5.93675,8.47187 0,4.67886 -2.65808,8.47184 -5.93675,8.47184 -3.27838,0 -5.93646,-3.79298 -5.93646,-8.47184 0,-4.67887 2.65808,-8.47187 5.93646,-8.47187 z m -31.87376,3.4515 c 3.27528,0 5.93674,3.79299 5.93674,8.47186 0,4.67887 -2.66146,8.47187 -5.93674,8.47187 -3.27966,0 -5.93647,-3.793 -5.93647,-8.47187 0,-4.67887 2.65681,-8.47186 5.93647,-8.47186 z m 46.50319,0 c 3.27979,0 5.93674,3.79299 5.93674,8.47186 0,4.67887 -2.65695,8.47187 -5.93674,8.47187 -3.27049,0 -5.93661,-3.793 -5.93661,-8.47187 0,-4.67887 2.66612,-8.47186 5.93661,-8.47186 z m -61.06225,3.13772 c 3.27979,0 5.93674,3.79299 5.93674,8.47187 0,4.67886 -2.65695,8.47186 -5.93674,8.47186 -3.27486,0 -5.9366,-3.793 -5.9366,-8.47186 0,-4.67888 2.66174,-8.47187 5.9366,-8.47187 z m 75.6213,0 c 3.27063,0 5.9366,3.79299 5.9366,8.47187 0,4.67886 -2.66597,8.47186 -5.9366,8.47186 -3.27965,0 -5.93646,-3.793 -5.93646,-8.47186 0,-4.67888 2.65681,-8.47187 5.93646,-8.47187 z m -90.25058,3.13773 c 3.27853,0 5.9366,3.79298 5.9366,8.47186 0,4.67886 -2.65807,8.47186 -5.9366,8.47186 -3.27853,0 -5.9366,-3.793 -5.9366,-8.47186 0,-4.67888 2.65807,-8.47186 5.9366,-8.47186 z m 104.88,0 c 3.27867,0 5.9366,3.79298 5.9366,8.47186 0,4.67886 -2.65793,8.47186 -5.9366,8.47186 -3.27852,0 -5.9366,-3.793 -5.9366,-8.47186 0,-4.67888 2.65808,-8.47186 5.9366,-8.47186 z m -61.06224,11.76647 c 3.27866,0 5.93674,3.79298 5.93674,8.47185 0,4.6789002 -2.65808,8.4718602 -5.93674,8.4718602 -3.27853,0 -5.9366,-3.79296 -5.9366,-8.4718602 0,-4.67887 2.65807,-8.47185 5.9366,-8.47185 z m 17.24434,0 c 3.27867,0 5.93675,3.79298 5.93675,8.47185 0,4.6789002 -2.65808,8.4718602 -5.93675,8.4718602 -3.27838,0 -5.93646,-3.79296 -5.93646,-8.4718602 0,-4.67887 2.65808,-8.47185 5.93646,-8.47185 z m -31.87376,3.4515 c 3.27584,0 5.93674,3.79298 5.93674,8.4718502 0,4.67888 -2.6609,8.47186 -5.93674,8.47186 -3.27966,0 -5.93647,-3.79298 -5.93647,-8.47186 0,-4.6788702 2.65681,-8.4718502 5.93647,-8.4718502 z m 46.50319,0 c 3.27979,0 5.93674,3.79298 5.93674,8.4718502 0,4.67888 -2.65695,8.47186 -5.93674,8.47186 -3.27106,0 -5.93661,-3.79298 -5.93661,-8.47186 0,-4.6788702 2.66555,-8.4718502 5.93661,-8.4718502 z m -61.06225,3.13772 c 3.27979,0 5.93674,3.7929902 5.93674,8.4718702 0,4.67886 -2.65695,8.47184 -5.93674,8.47184 -3.27472,0 -5.9366,-3.79298 -5.9366,-8.47184 0,-4.67888 2.66188,-8.4718702 5.9366,-8.4718702 z m 75.6213,0 c 3.27148,0 5.9366,3.7929902 5.9366,8.4718702 0,4.67886 -2.66512,8.47184 -5.9366,8.47184 -3.27965,0 -5.93646,-3.79298 -5.93646,-8.47184 0,-4.67888 2.65681,-8.4718702 5.93646,-8.4718702 z m -90.25058,3.13772 c 3.27853,0 5.9366,3.7929902 5.9366,8.4718702 0,4.67887 -2.65807,8.47184 -5.9366,8.47184 -3.27853,0 -5.9366,-3.79297 -5.9366,-8.47184 0,-4.67888 2.65807,-8.4718702 5.9366,-8.4718702 z m 104.88,0 c 3.27867,0 5.9366,3.7929902 5.9366,8.4718702 0,4.67887 -2.65793,8.47184 -5.9366,8.47184 -3.27852,0 -5.9366,-3.79297 -5.9366,-8.47184 0,-4.67888 2.65808,-8.4718702 5.9366,-8.4718702 z M 591.52111,3.4289162 c 3.27866,0 5.93674,3.79299 5.93674,8.4718698 0,4.67888 -2.65808,8.47187 -5.93674,8.47187 -3.27853,0 -5.9366,-3.79299 -5.9366,-8.47187 0,-4.6788798 2.65807,-8.4718698 5.9366,-8.4718698 z m 17.24434,0 c 3.27867,0 5.93675,3.79299 5.93675,8.4718698 0,4.67888 -2.65808,8.47187 -5.93675,8.47187 -3.27838,0 -5.93646,-3.79299 -5.93646,-8.47187 0,-4.6788798 2.65808,-8.4718698 5.93646,-8.4718698 z m -31.87376,3.45151 c 3.27514,0 5.93674,3.7929798 5.93674,8.4718598 0,4.67888 -2.6616,8.47185 -5.93674,8.47185 -3.27966,0 -5.93647,-3.79297 -5.93647,-8.47185 0,-4.67888 2.65681,-8.4718598 5.93647,-8.4718598 z m 46.50319,0 c 3.27979,0 5.93674,3.7929798 5.93674,8.4718598 0,4.67888 -2.65695,8.47185 -5.93674,8.47185 -3.27219,0 -5.93661,-3.79297 -5.93661,-8.47185 0,-4.67888 2.66442,-8.4718598 5.93661,-8.4718598 z m -61.06225,3.1377198 c 3.27979,0 5.93674,3.79298 5.93674,8.47186 0,4.67889 -2.65695,8.47185 -5.93674,8.47185 -3.27543,0 -5.9366,-3.79296 -5.9366,-8.47185 0,-4.67888 2.66117,-8.47186 5.9366,-8.47186 z m 75.6213,0 c 3.27275,0 5.9366,3.79298 5.9366,8.47186 0,4.67889 -2.66385,8.47185 -5.9366,8.47185 -3.27965,0 -5.93646,-3.79296 -5.93646,-8.47185 0,-4.67888 2.65681,-8.47186 5.93646,-8.47186 z m -90.25058,3.13774 c 3.27853,0 5.9366,3.79296 5.9366,8.47184 0,4.67889 -2.65807,8.47187 -5.9366,8.47187 -3.27853,0 -5.9366,-3.79298 -5.9366,-8.47187 0,-4.67888 2.65807,-8.47184 5.9366,-8.47184 z m 104.88,0 c 3.27867,0 5.9366,3.79296 5.9366,8.47184 0,4.67889 -2.65793,8.47187 -5.9366,8.47187 -3.27852,0 -5.9366,-3.79298 -5.9366,-8.47187 0,-4.67888 2.65808,-8.47184 5.9366,-8.47184 z"
       id="path3866"
       inkscape:connector-curvature="0"
       inkscape:export-filename="C:\Users\Johannes\Documents\Projekte\T-Shirts\MÜNSTER\path4137.png"
       inkscape:export-xdpi="150.00568"
       inkscape:export-ydpi="150.00568"
       sodipodi:nodetypes="ccccccccccccccccccccccccccccccccccccccccccccccccccccccccccccccccccccccccccccccccccccccccccccccccccccccccccccccccccccccccccccccccccccccccccccccccccccccccccccccccccccccccccccccssssssssssssssssssssssssssssssssssssssssssssssssssssssssssssssssssssssssssssssssssssssssssssssssssssssssssssssssssssssssssssssssssssssssssssssssssssssssssssssssssssssssssssssssssssssssssssssssssssssssssssssssssssssssssssssssssssssssssssssss" />
  </g>
  <g
     inkscape:groupmode="layer"
     id="layer5"
     inkscape:label="Zwinger"
     style="display:inline"
     transform="translate(-152.27446,659.43729)">
    <path
       style="fill:#000000;fill-opacity:1;stroke:none;display:inline"
       d="m 3531.8383,222.893 c -19.778,0.0631 -34.9969,1.07866 -40.4399,4.1548 -15.8133,8.93664 -110.0284,196.63802 -110.0284,196.63802 0,0 -25.272,-4.86203 -36.6968,-2.11147 0,0 -2.1328,195.56225 -1.1657,255.08951 0,6.54521 59.5616,19.80033 153.9661,23.97527 l 0,-183.57239 c 0,0 24.712,-16.16112 53.2652,-15.52944 19.5392,0.43224 49.5834,12.66873 49.5834,12.66873 l 0,186.97798 c 18.6436,-0.56241 37.9711,-1.40669 57.9292,-2.79259 187.9135,-13.04854 311.7941,-29.2116 319.7146,-39.096 0.8885,-79.68908 -0.8877,-290.53857 -0.2455,-370.33425 25.9737,-45.97887 -69.8222,-55.10746 -317.935,-63.54806 -5.2224,-0.17762 -10.4037,-0.14258 -15.5869,-0.13632 -33.8093,0.0405 -79.3971,-2.48894 -112.3603,-2.3839 z m 10.6161,9.53561 c 21.133,-0.0551 47.1431,0.0997 73.9457,0.6811 99.296,3.57591 217.61,2.59266 306.3982,18.18579 15.5164,2.83901 31.2185,6.23102 41.3603,11.51085 5.0712,2.63992 8.9034,5.73247 10.371,9.94428 1.4672,4.21184 0.1628,9.11704 -3.989,14.16721 -0.5313,0.61915 -1.5209,0.64867 -2.0813,0.0621 -0.5604,-0.58657 -0.5921,-1.68479 -0.066,-2.30978 3.7526,-4.56455 4.377,-7.88589 3.3751,-10.76163 -1.0016,-2.87574 -4.0821,-5.69832 -8.8366,-8.17337 -9.5083,-4.95012 -25.1068,-8.41046 -40.5627,-11.23841 -88.3696,-15.51964 -206.6409,-14.53842 -306.0301,-18.11768 -53.288,-1.15587 -103.3896,-0.52717 -117.9445,-0.27245 -0.1184,0.11019 -0.3074,0.26187 -0.5522,0.54491 -0.5474,0.63248 -1.3334,1.68516 -2.332,3.065 -1.997,2.75971 -4.8479,6.93597 -8.4685,12.66875 -7.2409,11.46553 -17.6458,29.02461 -30.8666,53.19513 -24.054,43.97557 -62.9497,120.98365 -66.4592,127.84534 -0.2553,0.49914 -0.6298,0.67382 -0.8591,0.74923 -0.2291,0.0745 -0.3848,0.0675 -0.4909,0.0681 -0.2137,9.4e-4 -0.3017,0.0236 -0.4295,0 -0.2555,-0.0474 -0.5491,-0.11206 -0.9206,-0.20421 -0.7429,-0.18461 -1.8384,-0.48077 -3.4977,-0.81733 -3.3193,-0.67315 -8.7975,-1.61011 -17.3665,-2.31581 -9.668,-0.79629 -18.2255,-0.61298 -18.2255,-0.61298 -0.7692,0.0141 -1.4816,-0.74745 -1.4975,-1.60134 -0.015,-0.85391 0.668,-1.64738 1.4373,-1.66803 0,0 8.6431,-0.12818 18.4712,0.68112 8.6598,0.71318 14.2454,1.62057 17.6733,2.31579 1.7134,0.34761 2.8814,0.6338 3.6203,0.81734 4.0885,-8.01075 42.1461,-83.29605 66.0295,-126.95991 13.248,-24.22039 23.6985,-41.78665 30.9897,-53.33135 3.6451,-5.77232 6.4675,-10.02371 8.5296,-12.87306 1.031,-1.42468 1.8632,-2.51518 2.5163,-3.26938 0.3258,-0.37707 0.6409,-0.70534 0.9203,-0.95354 0.2791,-0.2482 0.3543,-0.59556 1.2887,-0.613 7.1513,-0.12615 23.4187,-0.35352 44.5513,-0.40867 z m 151.9412,37.80191 c 12.6303,-0.22283 23.5031,10.55728 23.5031,10.55728 l 0.7976,60.2106 -50.1355,0 0,-59.39327 c 0,0 10.8831,-11.11086 25.8348,-11.37461 z m 248.592,30.99074 c 0.4174,-0.006 0.7591,0.0902 1.1047,0.20422 2.9205,0.96367 6.0749,7.56039 6.0749,7.56039 l 0.4297,48.83597 -15.5869,-2.92879 0.7365,-50.94743 c 0,0 4.3196,-2.67729 7.2411,-2.72447 z m -253.1944,92.42737 c 12.1723,-0.11254 24.3009,5.04025 24.3009,5.04025 l -0.7365,69.95053 -49.706,-1.70277 -1.1662,-66.54499 c 0,0 17.8197,-6.65541 27.3078,-6.74302 z m 252.5192,17.16411 c 0.4161,-0.0232 0.8154,-7.8e-4 1.1662,0.0681 2.9624,0.58397 6.3819,5.38081 6.3819,5.38081 l -0.5522,35.62236 -14.6052,-0.81735 0.5524,-37.93814 c 0,0 4.1419,-2.15443 7.0569,-2.31579 z m 0.491,94.60692 c 0.3874,-0.0197 0.7784,0.011 1.1047,0.0681 2.7562,0.48167 5.9524,4.42725 5.9524,4.42725 l 0.061,29.56042 -13.132,-0.88544 -0.5523,-31.26321 c 0,0 3.8537,-1.77402 6.5661,-1.90712 z"
       id="path4137"
       inkscape:connector-curvature="0"
       sodipodi:nodetypes="cscccccsccsccscccccccccsccccccccssccccccscscsccscccccccsccccsccccccccsccccscccccccccccccccc"
       inkscape:export-xdpi="150.00568"
       inkscape:export-ydpi="150.00568" />
  </g>
</svg>
