<?xml version="1.0" encoding="utf-8"?>
<!-- Generator: Adobe Illustrator 19.0.0, SVG Export Plug-In . SVG Version: 6.00 Build 0)  -->
<svg version="1.1" id="Ebene_1" xmlns="http://www.w3.org/2000/svg" xmlns:xlink="http://www.w3.org/1999/xlink" x="0px" y="0px"
	 viewBox="-49 141 512 512" style="enable-background:new -49 141 512 512;" xml:space="preserve">
<style type="text/css">
	.st0{display:none;fill:#009FE3;}
	.st1{display:none;}
	.st2{display:inline;fill:#FFFFFF;}
	.st3{display:inline;fill:none;}
	.st4{display:inline;fill:#FB1D5C;}
	.st5{fill:#FB1D5C;}
	.st6{fill:#FFFFFF;}
	.st7{display:none;fill:#FFED00;}
	.st8{display:inline;fill:#F1F2F6;}
</style>
<rect id="bg" x="-49" y="141" class="st0" width="512" height="512"/>
<g id="icon_x5F_cr_x5F_transp" class="st1">
	<path id="bg-cutout" class="st2" d="M207,141C65.6,141-49,255.6-49,397S65.6,653,207,653s256-114.6,256-256S348.4,141,207,141z
		 M252.4,404.1L35.3,518.7V470c0-3.7,0.9-7.1,2.8-10.1c1.8-3.1,4.8-5.7,9-7.9l99.6-51.8c8-4.1,17.5-7.4,28.2-10
		c-5.3-1.3-10.3-2.8-14.9-4.3s-9.1-3.4-13.3-5.7l-99.5-51.5c-4.2-2.2-7.2-4.8-9-7.9c-1.8-3.1-2.8-6.4-2.8-10.1V262l217.1,114.4
		V404.1z M364,520.4c-2.2,5.1-5.1,9.5-8.7,13.2c-3.7,3.7-8,6.6-13.2,8.7c-5.1,2.1-10.5,3.2-16.2,3.2c-5.8,0-11.3-1.1-16.5-3.2
		c-5.1-2.1-9.6-5.1-13.3-8.7c-3.8-3.7-6.7-8-8.7-13.2c-2.1-5.1-3.1-10.6-3.1-16.5c0-5.7,1.1-11.2,3.1-16.3c2.1-5.1,5.1-9.6,8.7-13.3
		c3.8-3.7,8.2-6.7,13.3-8.9c5.1-2.2,10.6-3.3,16.5-3.3c5.7,0,11,1.1,16.2,3.3s9.5,5.1,13.2,8.9c3.7,3.7,6.6,8.1,8.7,13.3
		c2.2,5.1,3.3,10.7,3.3,16.3C367.3,509.8,366.3,515.3,364,520.4z"/>
	<path id="arrow_1_" class="st3" d="M35.3,518.7V470c0-3.7,0.9-7.1,2.8-10.1c1.8-3.1,4.8-5.7,9-7.9l99.6-51.8
		c8-4.1,17.5-7.4,28.2-10c-5.3-1.3-10.3-2.8-14.9-4.3s-9.1-3.4-13.3-5.7l-99.5-51.5c-4.2-2.2-7.2-4.8-9-7.9
		c-1.8-3.1-2.8-6.4-2.8-10.1V262l217.1,114.4v27.7L35.3,518.7z"/>
	<path id="point_1_" class="st3" d="M287.4,520.4c2.1,5.1,5,9.5,8.7,13.2c3.8,3.7,8.2,6.6,13.3,8.7c5.1,2.1,10.7,3.2,16.5,3.2
		c5.7,0,11-1.1,16.2-3.2c5.1-2.1,9.5-5.1,13.2-8.7c3.6-3.7,6.5-8.1,8.7-13.2s3.3-10.6,3.3-16.5c0-5.7-1.1-11.2-3.3-16.3
		c-2.1-5.1-5.1-9.6-8.7-13.3c-3.7-3.8-8-6.7-13.2-8.9c-5.1-2.2-10.5-3.3-16.2-3.3c-5.9,0-11.3,1.1-16.5,3.3
		c-5.1,2.2-9.6,5.2-13.3,8.9c-3.7,3.7-6.7,8.1-8.7,13.3c-2.1,5.1-3.1,10.6-3.1,16.3C284.2,509.8,285.3,515.3,287.4,520.4z"/>
</g>
<g id="icon_x5F_cr_x5F_full-inv" class="st1">
	<circle id="bg-circle_1_" class="st2" cx="207" cy="397" r="256"/>
	<path id="arrow_10_" class="st4" d="M35.3,518.7V470c0-3.7,0.9-7.1,2.8-10.1c1.8-3.1,4.8-5.7,9-7.9l99.6-51.8
		c8-4.1,17.5-7.4,28.2-10c-5.3-1.3-10.3-2.8-14.9-4.3s-9.1-3.4-13.3-5.7l-99.5-51.5c-4.2-2.2-7.2-4.8-9-7.9
		c-1.8-3.1-2.8-6.4-2.8-10.1V262l217.1,114.4v27.7L35.3,518.7z"/>
	<path id="point_10_" class="st4" d="M284.2,503.9c0-5.7,1.1-11.2,3.1-16.3c2.1-5.1,5.1-9.6,8.7-13.3c3.8-3.7,8.2-6.7,13.3-8.9
		c5.1-2.2,10.6-3.3,16.5-3.3c5.7,0,11,1.1,16.2,3.3c5.1,2.2,9.5,5.1,13.2,8.9c3.7,3.7,6.6,8.1,8.7,13.3c2.2,5.1,3.3,10.7,3.3,16.3
		c0,5.9-1.1,11.4-3.3,16.5s-5.1,9.5-8.7,13.2c-3.7,3.7-8,6.6-13.2,8.7c-5.1,2.1-10.5,3.2-16.2,3.2c-5.8,0-11.3-1.1-16.5-3.2
		c-5.1-2.1-9.6-5.1-13.3-8.7c-3.8-3.7-6.7-8-8.7-13.2C285.3,515.3,284.2,509.8,284.2,503.9z"/>
</g>
<g id="icon_x5F_cr_x5F_full">
	<circle id="bg-circle" class="st5" cx="207" cy="397" r="256"/>
	<path id="arrow_9_" class="st6" d="M35.3,518.7V470c0-3.7,0.9-7.1,2.8-10.1c1.8-3.1,4.8-5.7,9-7.9l99.6-51.8
		c8-4.1,17.5-7.4,28.2-10c-5.3-1.3-10.3-2.8-14.9-4.3s-9.1-3.4-13.3-5.7l-99.5-51.5c-4.2-2.2-7.2-4.8-9-7.9
		c-1.8-3.1-2.8-6.4-2.8-10.1V262l217.1,114.4v27.7L35.3,518.7z"/>
	<path id="point_9_" class="st6" d="M284.2,503.9c0-5.7,1.1-11.2,3.1-16.3c2.1-5.1,5.1-9.6,8.7-13.3c3.8-3.7,8.2-6.7,13.3-8.9
		c5.1-2.2,10.6-3.3,16.5-3.3c5.7,0,11,1.1,16.2,3.3c5.1,2.2,9.5,5.1,13.2,8.9c3.7,3.7,6.6,8.1,8.7,13.3c2.2,5.1,3.3,10.7,3.3,16.3
		c0,5.9-1.1,11.4-3.3,16.5s-5.1,9.5-8.7,13.2c-3.7,3.7-8,6.6-13.2,8.7c-5.1,2.1-10.5,3.2-16.2,3.2c-5.8,0-11.3-1.1-16.5-3.2
		c-5.1-2.1-9.6-5.1-13.3-8.7c-3.8-3.7-6.7-8-8.7-13.2C285.3,515.3,284.2,509.8,284.2,503.9z"/>
</g>
<path id="bg-corners" class="st7" d="M394.7,653H19.3c-37.7,0-68.3-30.6-68.3-68.3V209.3c0-37.7,30.6-68.3,68.3-68.3h375.5
	c37.6,0,68.2,30.6,68.2,68.3v375.5C463,622.4,432.4,653,394.7,653z"/>
<g id="icon_x5F_sq_x5F_transp" class="st1">
	<rect id="bg_3_" x="-49" y="141" class="st3" width="512" height="512"/>
	<path id="arrow_8_" class="st2" d="M35.3,518.7V470c0-3.7,0.9-7.1,2.8-10.1c1.8-3.1,4.8-5.7,9-7.9l99.6-51.8
		c8-4.1,17.5-7.4,28.2-10c-5.3-1.3-10.3-2.8-14.9-4.3s-9.1-3.4-13.3-5.7l-99.5-51.5c-4.2-2.2-7.2-4.8-9-7.9
		c-1.8-3.1-2.8-6.4-2.8-10.1V262l217.1,114.4v27.7L35.3,518.7z"/>
	<path id="point_8_" class="st2" d="M284.2,503.9c0-5.7,1.1-11.2,3.1-16.3c2.1-5.1,5.1-9.6,8.7-13.3c3.8-3.7,8.2-6.7,13.3-8.9
		c5.1-2.2,10.6-3.3,16.5-3.3c5.7,0,11,1.1,16.2,3.3c5.1,2.2,9.5,5.1,13.2,8.9c3.7,3.7,6.6,8.1,8.7,13.3c2.2,5.1,3.3,10.7,3.3,16.3
		c0,5.9-1.1,11.4-3.3,16.5s-5.1,9.5-8.7,13.2c-3.7,3.7-8,6.6-13.2,8.7c-5.1,2.1-10.5,3.2-16.2,3.2c-5.8,0-11.3-1.1-16.5-3.2
		c-5.1-2.1-9.6-5.1-13.3-8.7c-3.8-3.7-6.7-8-8.7-13.2C285.3,515.3,284.2,509.8,284.2,503.9z"/>
</g>
<g id="icon_x5F_sq_x5F_full-inv" class="st1">
	<rect id="bg_1_" x="-49" y="141" class="st8" width="512" height="512"/>
	<path id="arrow_7_" class="st4" d="M35.3,518.7V470c0-3.7,0.9-7.1,2.8-10.1c1.8-3.1,4.8-5.7,9-7.9l99.6-51.8
		c8-4.1,17.5-7.4,28.2-10c-5.3-1.3-10.3-2.8-14.9-4.3s-9.1-3.4-13.3-5.7l-99.5-51.5c-4.2-2.2-7.2-4.8-9-7.9
		c-1.8-3.1-2.8-6.4-2.8-10.1V262l217.1,114.4v27.7L35.3,518.7z"/>
	<path id="point_7_" class="st4" d="M284.2,503.9c0-5.7,1.1-11.2,3.1-16.3c2.1-5.1,5.1-9.6,8.7-13.3c3.8-3.7,8.2-6.7,13.3-8.9
		c5.1-2.2,10.6-3.3,16.5-3.3c5.7,0,11,1.1,16.2,3.3c5.1,2.2,9.5,5.1,13.2,8.9c3.7,3.7,6.6,8.1,8.7,13.3c2.2,5.1,3.3,10.7,3.3,16.3
		c0,5.9-1.1,11.4-3.3,16.5s-5.1,9.5-8.7,13.2c-3.7,3.7-8,6.6-13.2,8.7c-5.1,2.1-10.5,3.2-16.2,3.2c-5.8,0-11.3-1.1-16.5-3.2
		c-5.1-2.1-9.6-5.1-13.3-8.7c-3.8-3.7-6.7-8-8.7-13.2C285.3,515.3,284.2,509.8,284.2,503.9z"/>
</g>
<g id="icon_x5F_sq_x5F_full" class="st1">
	<rect id="bg_2_" x="-49" y="141" class="st4" width="512" height="512"/>
	<path id="arrow_5_" class="st2" d="M35.3,518.7V470c0-3.7,0.9-7.1,2.8-10.1c1.8-3.1,4.8-5.7,9-7.9l99.6-51.8
		c8-4.1,17.5-7.4,28.2-10c-5.3-1.3-10.3-2.8-14.9-4.3s-9.1-3.4-13.3-5.7l-99.5-51.5c-4.2-2.2-7.2-4.8-9-7.9
		c-1.8-3.1-2.8-6.4-2.8-10.1V262l217.1,114.4v27.7L35.3,518.7z"/>
	<path id="point_5_" class="st2" d="M284.2,503.9c0-5.7,1.1-11.2,3.1-16.3c2.1-5.1,5.1-9.6,8.7-13.3c3.8-3.7,8.2-6.7,13.3-8.9
		c5.1-2.2,10.6-3.3,16.5-3.3c5.7,0,11,1.1,16.2,3.3c5.1,2.2,9.5,5.1,13.2,8.9c3.7,3.7,6.6,8.1,8.7,13.3c2.2,5.1,3.3,10.7,3.3,16.3
		c0,5.9-1.1,11.4-3.3,16.5s-5.1,9.5-8.7,13.2c-3.7,3.7-8,6.6-13.2,8.7c-5.1,2.1-10.5,3.2-16.2,3.2c-5.8,0-11.3-1.1-16.5-3.2
		c-5.1-2.1-9.6-5.1-13.3-8.7c-3.8-3.7-6.7-8-8.7-13.2C285.3,515.3,284.2,509.8,284.2,503.9z"/>
</g>
</svg>
