<?xml version="1.0" standalone="no"?>
<!DOCTYPE svg PUBLIC "-//W3C//DTD SVG 1.1//EN" "http://www.w3.org/Graphics/SVG/1.1/DTD/svg11.dtd">
<svg xmlns="http://www.w3.org/2000/svg">
<defs >
<font id="IBMPlexSansCondensed" horiz-adv-x="507" ><font-face
    font-family="IBM Plex Sans Condensed ExtraLight"
    units-per-em="1000"
    panose-1="2 11 3 6 5 2 3 0 2 3"
    ascent="1025"
    descent="-275"
    alphabetic="0" />
<glyph unicode=" " glyph-name="space" horiz-adv-x="212" />
<glyph unicode="!" glyph-name="exclam" horiz-adv-x="233" d="M92 178L134 433L187 698H223L170 433L110 178H92ZM67 -7Q52 -7 45 -1T38 16Q38 20 39 26T42 38Q46 49 53 56T79 64Q94 64 101 58T108 41Q108 37 107 31T104 19Q100 8 93 1T67 -7Z" />
<glyph unicode="&quot;" glyph-name="quotedbl" horiz-adv-x="345" d="M131 484L182 740H213L162 484H131ZM274 484L325 740H356L305 484H274Z" />
<glyph unicode="#" glyph-name="numbersign" horiz-adv-x="632" d="M353 217H196L120 0H90L166 217H39L44 244H177L250 454H121L126 481H260L337 698H367L290 481H447L523 698H553L476 481H603L598 454H466L392 244H522L516 217H383L306 0H276L353 217ZM363 244L436
454H280L206 244H363Z" />
<glyph unicode="$" glyph-name="dollar" horiz-adv-x="495" d="M179 0Q116 6 76 34T12 114L38 133Q61 87 95 61T186 30L250 348L224 356Q103 393 103 512Q103 550 116 584T156 643T221 684T310 699H319L335 780H364L348 697Q403 691 438 666T495 598L468 579Q447
621 417 641T341 666L283 373L303 367Q367 348 399 311T432 207Q432 164 418 126T377 60T308 16T213 -1H208L192 -82H163L179 0ZM397 207Q397 261 371 290T291 336L276 341L214 29Q261 29 295 43T352 81T386 138T397 207ZM138 514Q138 465 162 434T238 386L256
380L314 668H307Q266 668 235 656T182 623T149 574T138 514Z" />
<glyph unicode="%" glyph-name="percent" horiz-adv-x="797" d="M118 0L677 698H712L153 0H118ZM218 348Q266 348 297 383T340 484L349 534Q351 548 351 558T352 580Q352 628 334 657T273 686Q225 686 194 651T151 550L142 500Q140 486 140 476T139 454Q139 406
157 377T218 348ZM215 324Q163 324 137 360T110 454Q110 474 112 498T120 545Q127 578 139 608T171 660T216 696T276 710Q328 710 354 674T381 580Q381 560 379 536T371 489Q364 456 352 426T320 374T275 338T215 324ZM559 12Q607 12 638 47T681 148L690 198Q692
212 692 222T693 244Q693 292 675 321T614 350Q566 350 535 315T492 214L483 164Q481 150 481 140T480 118Q480 70 498 41T559 12ZM556 -12Q504 -12 478 24T451 118Q451 138 453 162T461 209Q468 242 480 272T512 324T557 360T617 374Q669 374 695 338T722 244Q722
224 720 200T712 153Q705 120 693 90T661 38T616 2T556 -12Z" />
<glyph unicode="&amp;" glyph-name="ampersand" horiz-adv-x="610" d="M410 110H403Q371 54 320 21T198 -12Q125 -12 82 26T39 139Q39 206 82 264T231 375Q200 423 189 458T178 522Q178 561 190 595T225 654T281 695T356 710Q416 710 450 678T484 590Q484 555
472 528T433 475T368 423T275 366L414 160Q437 200 454 252T482 355H586L580 324H505Q492 273 474 224T432 134L524 0H485L410 110ZM350 681Q295 681 261 650T217 567Q213 550 212 539T211 520Q211 498 220 467T259 389Q309 417 345 440T404 486T439 533T450 587Q450
681 350 681ZM206 18Q266 18 313 49T396 132L247 353Q203 330 173 310T123 268T93 223T77 171Q74 154 74 136Q74 75 109 47T206 18Z" />
<glyph unicode="&apos;" glyph-name="quotesingle" horiz-adv-x="202" d="M131 484L182 740H213L162 484H131Z" />
<glyph unicode="(" glyph-name="parenleft" horiz-adv-x="299" d="M88 221Q88 306 108 386T164 537T244 664T339 760H375Q332 726 294 682T225 586T171 477T137 361L127 308Q122 282 121 261T119 218Q119 113 142 24T217 -138H185Q140 -75 114 12T88 221Z" />
<glyph unicode=")" glyph-name="parenright" horiz-adv-x="299" d="M229 401Q229 315 209 235T153 85T73 -42T-22 -138H-58Q-15 -104 23 -60T92 36T146 145T180 261L190 314Q195 340 196 361T198 404Q198 509 175 598T100 760H132Q177 697 203 610T229 401Z" />
<glyph unicode="*" glyph-name="asterisk" horiz-adv-x="350" d="M128 428L105 447L215 570L214 574L91 616L105 644L226 593L228 595L254 747H285L253 594L255 592L392 644L398 615L258 571L256 567L317 444L291 428L236 556H232L128 428Z" />
<glyph unicode="+" glyph-name="plus" horiz-adv-x="540" d="M220 86L261 291H64L70 320H267L309 525H341L300 320H497L491 291H294L252 86H220Z" />
<glyph unicode="," glyph-name="comma" horiz-adv-x="225" d="M73 64Q89 64 95 57T102 40Q102 30 98 17Q92 -1 83 -23T61 -66T32 -108T-3 -143H-33Q6 -108 28 -72T60 -6Q45 -6 39 0T32 15Q32 20 33 26T36 37Q39 48 47 56T73 64Z" />
<glyph unicode="-" glyph-name="hyphen" horiz-adv-x="350" d="M75 287L82 322H295L288 287H75Z" />
<glyph unicode="." glyph-name="period" horiz-adv-x="225" d="M61 -7Q46 -7 39 -1T32 16Q32 20 33 26T36 38Q40 49 47 56T73 64Q88 64 95 58T102 41Q102 37 101 31T98 19Q94 8 87 1T61 -7Z" />
<glyph unicode="/" glyph-name="slash" horiz-adv-x="294" d="M-74 -151L328 740H359L-43 -151H-74Z" />
<glyph unicode="0" glyph-name="zero" horiz-adv-x="540" d="M235 -12Q147 -12 106 45T65 212Q65 256 71 307T87 404Q100 465 121 520T173 618T246 685T342 710Q430 710 471 653T512 486Q512 442 506 391T490 294Q476 233 455 178T404 80T331 13T235 -12ZM237
20Q279 20 313 39T374 93T420 178T451 291L468 380Q473 404 475 433T477 485Q477 576 446 627T340 678Q298 678 264 659T203 605T157 519T126 407L109 318Q104 294 102 265T100 213Q100 122 131 71T237 20Z" />
<glyph unicode="1" glyph-name="one" horiz-adv-x="540" d="M38 0L44 32H233L359 660L133 529L119 555L364 698H402L269 32H450L443 0H38Z" />
<glyph unicode="2" glyph-name="two" horiz-adv-x="540" d="M415 0H25L33 38L319 302Q371 350 403 396T446 487Q451 513 453 528T455 555Q455 580 449 602T427 642T388 668T330 678Q267 678 227 646T161 543L131 555Q160 633 210 671T335 710Q375 710 404 699T452
666T481 617T491 554Q491 515 482 480T453 412T406 347T339 279L72 32H422L415 0Z" />
<glyph unicode="3" glyph-name="three" horiz-adv-x="540" d="M276 381Q342 381 385 414T442 516Q446 535 447 543T448 562Q448 618 415 648T323 678Q266 678 229 655T163 581L137 599Q166 651 211 680T328 710Q398 710 441 671T484 563Q484 522 472 489T439 430T389
389T327 367L326 360Q375 353 405 315T436 218Q436 165 421 123T377 50T308 4T217 -12Q70 -12 32 99L60 116Q79 65 115 43T219 20Q293 20 337 58T393 166Q397 189 398 201T400 222Q400 279 369 314T271 350H191L197 381H276Z" />
<glyph unicode="4" glyph-name="four" horiz-adv-x="540" d="M306 0L337 155H21L28 188L427 698H480L378 185H477L471 155H372L341 0H306ZM63 185H343L438 658H431L63 185Z" />
<glyph unicode="5" glyph-name="five" horiz-adv-x="540" d="M518 667H235L153 346L160 345Q189 384 222 401T305 418Q380 418 419 375T459 249Q459 187 443 139T396 57T324 6T230 -12Q164 -12 117 16T50 99L78 116Q97 64 136 42T233 19Q312 19 357 62T416 183Q421
209 422 224T423 249Q423 315 393 351T296 387Q270 387 250 383T212 369T180 347T148 317L116 321L211 698H524L518 667Z" />
<glyph unicode="6" glyph-name="six" horiz-adv-x="540" d="M236 -12Q150 -12 110 39T69 173Q69 199 72 223T80 271Q93 339 124 401T198 517T295 617T407 698H458Q392 657 339 614T244 522T172 422T122 310H129Q159 372 205 396T306 420Q381 420 423 374T466 248Q466
229 464 211T459 177Q450 135 431 101T383 41T317 2T236 -12ZM237 20Q275 20 306 32T362 67T401 119T423 186Q427 209 428 222T430 245Q430 309 398 348T296 388Q258 388 227 376T172 341T133 289T111 222Q107 199 106 186T104 163Q104 99 136 60T237 20Z" />
<glyph unicode="7" glyph-name="seven" horiz-adv-x="540" d="M120 0L510 666H187L156 509H123L160 698H553L546 664L157 0H120Z" />
<glyph unicode="8" glyph-name="eight" horiz-adv-x="540" d="M227 -12Q140 -12 93 32T45 155Q45 196 58 231T94 294T150 340T221 365L222 372Q181 385 157 419T132 506Q132 551 148 588T192 653T260 695T346 710Q424 710 466 669T508 560Q508 523 497 491T466
433T419 390T358 367L356 360Q411 344 436 308T461 212Q461 162 444 121T396 51T322 5T227 -12ZM229 20Q303 20 355 59T419 163Q426 204 426 222Q426 282 388 316T277 351Q203 351 151 312T87 208Q80 167 80 149Q80 89 118 55T229 20ZM297 382Q369 382 412 417T467
513Q471 533 471 543T472 561Q472 616 440 647T342 678Q270 678 227 644T172 547Q168 528 167 518T166 499Q166 445 198 414T297 382Z" />
<glyph unicode="9" glyph-name="nine" horiz-adv-x="540" d="M264 278Q189 278 147 324T104 450Q104 469 106 487T111 521Q120 563 139 597T187 657T253 696T334 710Q419 710 460 659T501 525Q501 499 498 475T490 427Q476 359 446 297T372 181T275 81T163 0H112Q178
41 231 84T326 176T398 276T448 388H441Q411 326 365 302T264 278ZM274 310Q312 310 343 322T398 357T437 409T459 476Q463 499 464 512T466 535Q466 599 434 638T333 678Q295 678 264 666T208 631T169 579T147 512Q143 489 142 476T140 453Q140 389 172 350T274
310Z" />
<glyph unicode=":" glyph-name="colon" horiz-adv-x="243" d="M70 -7Q55 -7 48 -1T41 16Q41 20 42 26T45 38Q49 49 56 56T82 64Q97 64 104 58T111 41Q111 37 110 31T107 19Q103 8 96 1T70 -7ZM158 428Q143 428 136 434T129 451Q129 455 130 461T133 473Q137 484
144 491T170 499Q185 499 192 493T199 476Q199 472 198 466T195 454Q191 443 184 436T158 428Z" />
<glyph unicode=";" glyph-name="semicolon" horiz-adv-x="243" d="M82 64Q98 64 104 57T111 40Q111 30 107 17Q101 -1 92 -23T70 -66T41 -108T6 -143H-24Q15 -108 37 -72T69 -6Q54 -6 48 0T41 15Q41 20 42 26T45 37Q48 48 56 56T82 64ZM158 428Q143 428 136 434T129
451Q129 455 130 461T133 473Q137 484 144 491T170 499Q185 499 192 493T199 476Q199 472 198 466T195 454Q191 443 184 436T158 428Z" />
<glyph unicode="&lt;" glyph-name="less" horiz-adv-x="540" d="M90 284L96 314L530 570L522 530L129 299L128 294L427 60L421 26L90 284Z" />
<glyph unicode="=" glyph-name="equal" horiz-adv-x="540" d="M76 382L82 412H507L501 382H76ZM40 199L46 229H471L465 199H40Z" />
<glyph unicode="&gt;" glyph-name="greater" horiz-adv-x="540" d="M35 66L428 296L429 302L129 536L136 570L467 312L461 282L27 26L35 66Z" />
<glyph unicode="?" glyph-name="question" horiz-adv-x="412" d="M154 184L188 354Q368 369 389 508Q391 519 392 534T394 558Q394 615 365 646T275 678Q212 678 175 643T113 546L83 557Q110 627 156 668T278 710Q350 710 390 669T430 558Q430 461 376 401T216
328L187 184H154ZM135 -7Q120 -7 113 -1T106 16Q106 20 107 26T110 38Q114 49 121 56T147 64Q162 64 169 58T176 41Q176 37 175 31T172 19Q168 8 161 1T135 -7Z" />
<glyph unicode="@" glyph-name="at" horiz-adv-x="796" d="M335 -120Q268 -120 217 -99T130 -37T76 62T58 194Q58 220 60 251T70 317Q88 406 122 478T208 602T325 682T475 710Q612 710 684 632T756 408Q756 388 753 364T745 313Q736 262 721 218T683 140T630 87T561
68Q528 68 509 86T489 141V153H482Q464 117 433 93T356 69Q297 69 265 106T233 211Q233 228 235 249T241 297Q260 405 310 457T434 509Q476 509 502 485T534 425H541L555 497H586L523 179Q521 168 520 160T518 143Q518 121 529 108T566 95Q617 95 654 147T709 290L718
338Q722 358 724 373T726 408Q726 539 663 611T470 684Q397 684 338 659T232 588T155 479T109 341L98 287Q88 238 88 193Q88 127 104 74T152 -16T230 -74T337 -94H536L531 -120H335ZM366 97Q414 97 452 135T504 240L528 362Q533 387 528 409T511 446T479 471T434
480Q374 480 334 438T280 318L270 264Q267 248 266 235T265 211Q265 157 290 127T366 97Z" />
<glyph unicode="A" glyph-name="A" horiz-adv-x="543" d="M434 0L402 228H129L18 0H-20L324 698H372L469 0H434ZM359 548L344 663H339L284 548L144 258H399L359 548Z" />
<glyph unicode="B" glyph-name="B" horiz-adv-x="554" d="M182 698H390Q454 698 489 663T524 560Q524 528 517 497T493 440T451 395T390 369L389 362Q437 351 462 317T487 228Q487 176 473 134T433 62T370 16T287 0H42L182 698ZM289 32Q354 32 392 67T442 163Q447
191 449 207T451 231Q451 256 445 277T426 315T392 341T343 351H148L84 32H289ZM335 382Q396 382 433 412T481 501Q486 526 487 539T488 561Q488 609 465 637T385 666H211L154 382H335Z" />
<glyph unicode="C" glyph-name="C" horiz-adv-x="540" d="M260 -12Q161 -12 109 51T57 227Q57 266 61 308T74 389Q87 455 111 513T172 615T256 684T366 710Q442 710 486 671T544 565L512 554Q499 611 465 644T363 678Q269 678 205 606T116 402L102 329Q97 300
95 274T93 228Q93 134 134 77T262 20Q327 20 369 55T445 160L475 144Q433 62 383 25T260 -12Z" />
<glyph unicode="D" glyph-name="D" horiz-adv-x="585" d="M182 698H342Q448 698 503 636T559 468Q559 430 554 390T542 314Q529 248 505 191T443 92T356 25T243 0H42L182 698ZM244 32Q299 32 342 53T416 110T469 194T500 295L514 368Q519 397 521 422T523 467Q523
560 477 613T338 666H211L84 32H244Z" />
<glyph unicode="E" glyph-name="E" d="M42 0L182 698H532L526 666H211L152 370H448L442 338H146L84 32H400L394 0H42Z" />
<glyph unicode="F" glyph-name="F" horiz-adv-x="483" d="M42 0L182 698H521L515 666H211L152 370H440L434 338H146L78 0H42Z" />
<glyph unicode="G" glyph-name="G" horiz-adv-x="598" d="M459 111H452Q422 48 373 18T258 -12Q162 -12 110 52T57 226Q57 266 61 308T74 389Q87 455 111 513T172 615T258 684T370 710Q456 710 502 671T564 565L532 554Q518 612 480 645T366 678Q272 678 207 606T116
402L102 329Q97 300 95 274T93 228Q93 135 135 78T263 20Q299 20 333 31T395 66T445 124T476 206L496 306H346L352 338H538L471 0H437L459 111Z" />
<glyph unicode="H" glyph-name="H" horiz-adv-x="617" d="M505 338H146L78 0H42L182 698H218L152 370H511L577 698H613L473 0H437L505 338Z" />
<glyph unicode="I" glyph-name="I" horiz-adv-x="337" d="M7 0L13 31H106L233 667H140L146 698H368L362 667H269L142 31H235L228 0H7Z" />
<glyph unicode="J" glyph-name="J" horiz-adv-x="423" d="M423 698L319 174Q300 80 258 34T137 -12Q71 -12 32 26T-11 125L21 132Q25 78 55 49T138 20Q171 20 194 30T235 59T264 109T284 180L381 666H163L169 698H423Z" />
<glyph unicode="K" glyph-name="K" horiz-adv-x="521" d="M265 378L126 236L78 0H42L182 698H218L168 447L135 285H139L279 430L543 698H589L293 400L457 0H419L265 378Z" />
<glyph unicode="L" glyph-name="L" horiz-adv-x="428" d="M42 0L182 698H218L84 32H366L360 0H42Z" />
<glyph unicode="M" glyph-name="M" horiz-adv-x="707" d="M636 542L662 659H657L580 546L347 219L243 548L209 659H204L186 542L77 0H42L182 698H229L322 399L356 281H360L440 399L651 698H703L563 0H528L636 542Z" />
<glyph unicode="N" glyph-name="N" horiz-adv-x="616" d="M246 540L210 661H204L184 534L77 0H42L182 698H229L408 158L444 37H450L470 164L577 698H612L472 0H425L246 540Z" />
<glyph unicode="O" glyph-name="O" horiz-adv-x="599" d="M263 -12Q163 -12 110 52T57 227Q57 266 61 308T74 389Q87 455 111 513T172 615T257 684T368 710Q468 710 521 646T574 471Q574 432 570 390T557 309Q544 243 520 185T459 83T374 14T263 -12ZM265 20Q359
20 424 92T515 296L529 369Q534 398 536 424T538 470Q538 564 496 621T366 678Q272 678 207 606T116 402L102 329Q97 300 95 274T93 228Q93 134 135 77T265 20Z" />
<glyph unicode="P" glyph-name="P" horiz-adv-x="530" d="M42 0L182 698H398Q473 698 510 657T547 551Q547 497 533 454T491 381T427 334T343 317H141L78 0H42ZM148 349H348Q413 349 451 384T501 477Q507 510 509 526T511 552Q511 576 505 596T484 632T448 657T394
666H211L148 349Z" />
<glyph unicode="Q" glyph-name="Q" horiz-adv-x="599" d="M332 -150H240Q212 -150 212 -126Q212 -121 213 -114T216 -98L234 -10Q148 -1 103 61T57 227Q57 266 61 308T74 389Q87 455 111 513T172 615T257 684T368 710Q468 710 521 646T574 471Q574 432 570 390T557
309Q544 244 520 186T460 85T376 15T267 -12L246 -120H338L332 -150ZM265 20Q359 20 424 92T515 296L529 369Q534 398 536 424T538 470Q538 564 496 621T366 678Q272 678 207 606T116 402L102 329Q97 300 95 274T93 228Q93 134 135 77T265 20Z" />
<glyph unicode="R" glyph-name="R" horiz-adv-x="570" d="M78 0H42L182 698H402Q472 698 509 656T546 548Q546 496 532 454T493 383T432 337T353 318L458 0H421L317 317H141L78 0ZM350 348Q412 348 450 384T500 477Q506 510 508 526T510 552Q510 599 482 632T398
666H211L147 348H350Z" />
<glyph unicode="S" glyph-name="S" horiz-adv-x="495" d="M212 -12Q135 -12 87 18T12 102L40 122Q65 72 105 46T213 20Q261 20 295 35T353 75T387 134T398 206Q398 258 372 287T293 333L226 355Q104 393 104 513Q104 553 118 589T158 652T223 694T312 710Q385
710 429 684T497 609L470 590Q447 637 408 657T308 678Q267 678 236 666T183 631T151 579T140 515Q140 418 239 385L304 364Q367 343 400 308T434 207Q434 162 420 122T378 52T309 5T212 -12Z" />
<glyph unicode="T" glyph-name="T" horiz-adv-x="497" d="M349 666L216 0H180L313 666H98L105 698H570L564 666H349Z" />
<glyph unicode="U" glyph-name="U" horiz-adv-x="582" d="M210 698L122 258Q114 219 111 195T108 150Q108 87 143 54T252 20Q297 20 330 31T389 71T431 145T462 259L549 698H585L497 256Q482 178 461 127T411 44T343 1T252 -12Q167 -12 120 27T72 148Q72 169 76
199T88 268L174 698H210Z" />
<glyph unicode="V" glyph-name="V" horiz-adv-x="516" d="M183 0L112 698H146L194 234L211 31H217L313 234L545 698H582L232 0H183Z" />
<glyph unicode="W" glyph-name="W" horiz-adv-x="781" d="M132 0L113 698H148L158 254L161 31H167L259 254L450 698H501L519 254L524 31H530L618 250L809 698H847L545 0H496L476 475L473 664H467L388 473L183 0H132Z" />
<glyph unicode="X" glyph-name="X" horiz-adv-x="513" d="M432 0H395L270 324H263L13 0H-28L251 357L117 698H155L276 385H283L524 698H566L294 352L432 0Z" />
<glyph unicode="Y" glyph-name="Y" horiz-adv-x="496" d="M179 0L237 288L107 698H143L259 330H265L529 698H569L273 288L215 0H179Z" />
<glyph unicode="Z" glyph-name="Z" horiz-adv-x="496" d="M413 0H-23L-16 34L486 666H125L131 698H534L527 664L25 32H420L413 0Z" />
<glyph unicode="[" glyph-name="bracketleft" horiz-adv-x="279" d="M17 -138L196 760H317L311 732H221L53 -110H143L138 -138H17Z" />
<glyph unicode="\" glyph-name="backslash" horiz-adv-x="285" d="M171 -151L123 740H151L199 -151H171Z" />
<glyph unicode="]" glyph-name="bracketright" horiz-adv-x="279" d="M284 760L105 -138H-16L-10 -110H80L248 732H158L163 760H284Z" />
<glyph unicode="^" glyph-name="asciicircum" horiz-adv-x="540" d="M464 316L352 664H348L96 316L70 332L336 698H372L492 328L464 316Z" />
<glyph unicode="_" glyph-name="underscore" horiz-adv-x="500" d="M-55 -146L-49 -115H403L397 -146H-55Z" />
<glyph unicode="`" glyph-name="grave" horiz-adv-x="540" d="M217 742L248 757L313 597L291 587L217 742Z" />
<glyph unicode="a" glyph-name="a" horiz-adv-x="517" d="M369 0Q340 0 340 23Q340 32 343 46L356 111H349Q326 54 289 21T197 -12Q161 -12 133 1T87 38T59 95T49 168Q49 198 52 228T62 288Q72 339 91 381T137 455T201 503T281 520Q335 520 367 493T410 418H417L435
508H469L374 30H448L442 0H369ZM204 18Q232 18 254 28T299 61Q324 86 345 125T376 211L403 348Q407 371 402 396T382 442T341 476T281 490Q204 490 161 437T99 290L88 234Q85 218 84 203T83 168Q83 135 90 108T112 60T149 29T204 18Z" />
<glyph unicode="b" glyph-name="b" d="M186 740H220L151 397H158Q181 454 218 487T310 520Q346 520 374 507T420 470T448 413T458 340Q458 310 455 280T445 220Q435 169 416 127T370 53T306 5T226 -12Q172 -12 140 15T97 90H90L72 0H38L186 740ZM226 18Q303 18
346 71T408 218L419 274Q422 290 423 305T424 340Q424 373 417 400T395 448T357 479T303 490Q275 490 253 480T208 447Q183 422 162 383T131 297L104 160Q99 137 104 112T125 66T166 32T226 18Z" />
<glyph unicode="c" glyph-name="c" horiz-adv-x="434" d="M206 -12Q166 -12 137 2T88 40T59 99T49 174Q49 203 53 232T62 289Q72 340 91 382T137 455T199 503T277 520Q335 520 370 488T415 404L386 394Q366 490 274 490Q208 490 162 438T99 293L88 232Q86 218
85 202T83 174Q83 140 90 112T113 62T151 30T208 18Q259 18 293 48T354 132L381 118Q348 57 308 23T206 -12Z" />
<glyph unicode="d" glyph-name="d" horiz-adv-x="519" d="M368 0Q340 0 340 23Q340 32 343 46L356 111H349Q326 54 289 21T197 -12Q161 -12 133 1T87 38T59 95T49 168Q49 198 52 228T62 288Q72 339 91 381T137 455T201 503T281 520Q335 520 367 493T410 418H417L482
740H516L373 30H447L441 0H368ZM204 18Q232 18 254 28T299 61Q324 86 345 125T376 211L403 348Q407 371 402 396T382 442T341 476T281 490Q204 490 161 437T99 290L88 234Q85 218 84 203T83 168Q83 135 90 108T112 60T149 29T204 18Z" />
<glyph unicode="e" glyph-name="e" horiz-adv-x="458" d="M214 -12Q49 -12 49 182Q49 208 52 235T60 288Q70 340 90 383T140 456T206 503T287 520Q350 520 388 488T427 396Q427 365 414 336T363 284T260 247T87 230Q85 217 84 205T83 184Q83 98 115 58T215 18Q272
18 309 49T376 134L400 118Q365 51 320 20T214 -12ZM284 491Q245 491 214 476T160 434T120 368T95 284L90 257Q183 259 242 270T334 299T380 341T393 394Q393 440 366 465T284 491Z" />
<glyph unicode="f" glyph-name="f" horiz-adv-x="266" d="M61 -161Q56 -183 46 -191T13 -200H-66L-60 -170H25L152 478H67L73 508H158L196 698Q201 722 210 731T244 740H332L326 710H232L192 508H286L280 478H186L61 -161Z" />
<glyph unicode="g" glyph-name="g" horiz-adv-x="445" d="M394 -48Q394 -127 335 -169T159 -212Q74 -212 30 -184T-15 -96Q-15 -51 14 -17T95 28L96 36Q51 52 51 97Q51 134 78 154T143 186L144 194Q112 210 96 243T80 316Q80 363 93 400T129 464T186 505T259 520Q320
520 355 487L364 536Q370 566 401 566H482L475 536H388L375 467Q387 450 392 427T397 378Q397 333 385 296T349 233T291 193T215 178Q203 178 193 179T172 183Q124 170 103 151T82 103Q82 84 94 71T141 58H261Q335 58 364 31T394 -48ZM360 -52Q360 -12 339 7T256
27H123Q78 13 49 -15T19 -89Q19 -141 54 -162T145 -183H181Q263 -183 311 -151T360 -52ZM220 206Q280 206 313 239T356 326Q361 350 362 363T364 385Q364 433 338 462T257 492Q197 492 164 459T121 372Q116 348 115 335T113 313Q113 265 139 236T220 206Z" />
<glyph unicode="h" glyph-name="h" horiz-adv-x="499" d="M186 740H220L153 404H160Q185 462 223 491T316 520Q373 520 402 488T431 396Q431 379 429 360T423 321L365 30H439L433 0H360Q331 0 331 23Q331 32 334 46L389 320Q393 340 395 360T397 392Q397 490 305
490Q273 490 244 476T191 431Q173 408 158 377T132 297L72 0H38L186 740Z" />
<glyph unicode="i" glyph-name="i" horiz-adv-x="222" d="M189 665Q164 665 164 685Q164 691 167 703Q174 726 198 726Q223 726 223 706Q223 700 220 688Q213 665 189 665ZM73 0Q44 0 44 23Q44 32 47 46L140 508H174L78 30H152L146 0H73Z" />
<glyph unicode="j" glyph-name="j" horiz-adv-x="217" d="M140 508H174L41 -161Q36 -182 27 -191T-5 -200H-75L-69 -170H5L140 508ZM191 665Q166 665 166 685Q166 691 169 703Q176 726 200 726Q225 726 225 706Q225 700 222 688Q215 665 191 665Z" />
<glyph unicode="k" glyph-name="k" horiz-adv-x="444" d="M186 740H220L141 344L117 230H121L220 326L409 508H451L231 295L343 30H396L390 0H345Q331 0 323 6T309 26L205 276L110 188L72 0H38L186 740Z" />
<glyph unicode="l" glyph-name="l" horiz-adv-x="223" d="M73 0Q44 0 44 23Q44 32 47 46L186 740H220L78 30H152L146 0H73Z" />
<glyph unicode="m" glyph-name="m" horiz-adv-x="760" d="M38 0L140 508H174L153 404H160Q183 459 219 489T309 520Q361 520 388 488T417 399H424Q447 456 487 488T583 520Q637 520 664 487T692 394Q692 377 690 358T685 321L627 30H701L695 0H623Q609 0 601 6T593
23Q593 32 596 46L651 320Q655 339 656 359T658 390Q658 490 572 490Q543 490 515 477T464 433Q446 410 432 384T410 316L346 0H312L376 320Q380 337 382 355T384 384Q384 490 298 490Q269 490 242 476T192 433Q175 410 159 378T134 307L72 0H38Z" />
<glyph unicode="n" glyph-name="n" horiz-adv-x="498" d="M38 0L140 508H174L153 404H160Q185 462 223 491T316 520Q373 520 402 488T431 396Q431 379 429 360T423 321L365 30H439L433 0H360Q331 0 331 23Q331 32 334 46L389 320Q393 340 395 360T397 392Q397
490 305 490Q273 490 244 476T191 431Q173 408 158 377T132 297L72 0H38Z" />
<glyph unicode="o" glyph-name="o" horiz-adv-x="487" d="M205 -12Q130 -12 90 36T49 167Q49 197 52 228T62 288Q72 339 91 381T138 455T202 503T282 520Q357 520 397 472T438 341Q438 311 435 280T425 220Q415 169 396 127T349 53T285 5T205 -12ZM208 18Q283
18 327 71T388 218L399 276Q402 293 403 308T404 341Q404 413 374 451T279 490Q204 490 160 437T99 290L88 232Q85 215 84 200T83 167Q83 95 113 57T208 18Z" />
<glyph unicode="p" glyph-name="p" horiz-adv-x="508" d="M141 508H174L152 397H159Q182 454 219 487T311 520Q347 520 375 507T421 470T449 413T459 340Q459 310 456 280T446 220Q436 169 417 127T371 53T307 5T227 -12Q173 -12 141 15T98 90H91L33 -200H-1L141
508ZM227 18Q304 18 347 71T409 218L420 274Q423 290 424 305T425 340Q425 373 418 400T396 448T358 479T304 490Q276 490 254 480T209 447Q184 422 163 383T132 297L105 160Q100 137 105 112T126 66T167 32T227 18Z" />
<glyph unicode="q" glyph-name="q" horiz-adv-x="509" d="M356 111H349Q326 54 289 21T197 -12Q161 -12 133 1T87 38T59 95T49 168Q49 198 52 228T62 288Q72 339 91 381T137 455T201 503T281 520Q335 520 367 493T410 418H417L435 508H469L327 -200H293L356 111ZM204
18Q232 18 254 28T299 61Q324 86 345 125T376 211L403 348Q407 371 402 396T382 442T341 476T281 490Q204 490 161 437T99 290L88 234Q85 218 84 203T83 168Q83 135 90 108T112 60T149 29T204 18Z" />
<glyph unicode="r" glyph-name="r" horiz-adv-x="314" d="M38 0L140 508H174L151 397H158Q180 448 214 478T308 508H336L329 476H299Q266 476 239 462T190 423T154 366T132 297L72 0H38Z" />
<glyph unicode="s" glyph-name="s" horiz-adv-x="411" d="M181 -12Q121 -12 80 11T8 83L33 102Q62 58 96 38T181 17Q236 17 271 47T307 136Q307 176 287 199T225 237L181 251Q130 267 102 295T74 379Q74 412 86 438T119 482T168 510T230 520Q287 520 321 499T381
444L356 423Q336 452 308 471T228 491Q174 491 141 462T108 381Q108 343 125 320T189 281L233 267Q282 251 311 223T341 138Q341 101 329 73T294 26T243 -2T181 -12Z" />
<glyph unicode="t" glyph-name="t" horiz-adv-x="278" d="M89 0Q60 0 60 24Q60 32 63 49L148 478H68L74 508H131Q147 508 152 515T161 538L184 652H218L189 508H295L289 478H182L93 30H192L186 0H89Z" />
<glyph unicode="u" glyph-name="u" horiz-adv-x="500" d="M165 508L101 188Q97 168 95 148T93 116Q93 18 185 18Q217 18 246 32T299 77Q317 100 332 131T358 211L418 508H452L356 30H430L424 0H351Q322 0 322 23Q322 32 325 46L337 104H330Q305 46 267 17T174
-12Q117 -12 88 20T59 112Q59 129 61 148T67 187L131 508H165Z" />
<glyph unicode="v" glyph-name="v" horiz-adv-x="420" d="M135 0L66 508H99L134 243L159 30H165L270 243L407 508H443L179 0H135Z" />
<glyph unicode="w" glyph-name="w" horiz-adv-x="652" d="M72 508H104L122 202L129 30H135L209 202L348 508H394L412 202L419 30H425L500 202L638 508H672L440 0H392L379 254L369 477H364L265 253L150 0H102L72 508Z" />
<glyph unicode="x" glyph-name="x" horiz-adv-x="434" d="M-15 0L193 260L83 508H118L217 285H224L404 508H444L236 253L349 0H314L212 229H205L24 0H-15Z" />
<glyph unicode="y" glyph-name="y" horiz-adv-x="423" d="M410 508H446L93 -171Q85 -188 76 -194T49 -200H-23L-17 -170H59L140 -13L69 508H103L137 243L162 30H168L274 243L410 508Z" />
<glyph unicode="z" glyph-name="z" horiz-adv-x="395" d="M-6 0L-1 29L354 478H86L92 508H399L393 479L39 30H319L313 0H-6Z" />
<glyph unicode="{" glyph-name="braceleft" horiz-adv-x="290" d="M64 -138Q36 -138 36 -114Q36 -111 37 -106T40 -88L98 200Q101 216 101 228Q101 260 83 272T29 284L40 338Q82 338 107 355T142 419L203 726Q210 760 239 760H330L324 733H234L172 420Q161 369
135 345T63 318L59 303Q132 298 132 230Q132 222 131 213T128 197L66 -111H156L150 -138H64Z" />
<glyph unicode="|" glyph-name="bar" horiz-adv-x="232" d="M22 -138L202 760H232L52 -138H22Z" />
<glyph unicode="}" glyph-name="braceright" horiz-adv-x="290" d="M-12 -111H78L140 202Q151 253 178 277T250 304L253 319Q180 324 180 392Q180 400 181 409T184 425L246 733H156L162 760H248Q276 760 276 736Q276 733 275 728T272 710L214 422Q211 405 211
394Q211 362 229 350T283 338L272 284Q230 284 205 267T171 203L110 -104Q103 -138 73 -138H-18L-12 -111Z" />
<glyph unicode="~" glyph-name="asciitilde" horiz-adv-x="540" d="M379 251Q351 251 329 261T271 291Q239 309 218 317T172 326Q147 326 127 318T81 287L68 308Q94 333 120 345T179 358Q207 358 229 348T287 318Q303 309 316 303T340 292T362 285T386 283Q411
283 431 291T477 322L490 301Q464 276 438 264T379 251Z" />
<glyph unicode="&#xa0;" glyph-name="uni00A0" horiz-adv-x="212" />
<glyph unicode="&#xa1;" glyph-name="exclamdown" horiz-adv-x="233" d="M10 -190L63 75L123 330H141L99 75L46 -190H10ZM154 444Q139 444 132 450T125 467Q125 471 126 477T129 489Q133 500 140 507T166 515Q181 515 188 509T195 492Q195 488 194 482T191 470Q187
459 180 452T154 444Z" />
<glyph unicode="&#xa2;" glyph-name="cent" horiz-adv-x="443" d="M168 -8Q108 4 79 53T49 174Q49 203 53 232T62 289Q72 339 90 381T136 453T197 501T274 520L294 622H323L302 518Q350 510 378 480T415 404L386 394Q377 435 355 459T296 488L202 18H208Q259 18
293 48T354 132L381 118Q348 57 308 23T206 -12H196L176 -114H147L168 -8ZM83 174Q83 115 104 74T174 22L268 490Q205 487 160 435T99 293L88 232Q86 218 85 202T83 174Z" />
<glyph unicode="&#xa3;" glyph-name="sterling" horiz-adv-x="523" d="M23 0L32 41Q96 73 127 133T159 267Q159 275 159 285T157 306H72L78 337H155Q153 372 150 411T147 486Q147 541 163 583T207 653T274 695T358 710Q485 710 529 592L498 575Q479 629 445 653T356
678Q318 678 287 667T232 631T195 571T182 485Q182 448 185 410T190 337H380L374 306H192Q193 295 193 286T193 269Q193 185 157 125T62 37L61 32H416L410 0H23Z" />
<glyph unicode="&#xa5;" glyph-name="yen" horiz-adv-x="516" d="M257 163L224 0H188L221 163H51L57 192H227L253 323H83L89 352H242L125 698H161L273 357H278L527 698H567L310 352H465L459 323H289L263 192H433L427 163H257Z" />
<glyph unicode="&#xa6;" glyph-name="brokenbar" horiz-adv-x="232" d="M130 402L202 760H232L160 402H130ZM22 -138L93 220H124L52 -138H22Z" />
<glyph unicode="&#xa7;" glyph-name="section" horiz-adv-x="508" d="M435 285Q435 222 399 184T301 129L300 123Q327 102 339 74T351 7Q351 -32 338 -62T300 -112T243 -143T171 -154Q126 -154 93 -140T35 -100L60 -77Q80 -99 108 -111T175 -124Q240 -124 278
-91T317 5Q317 51 298 77T239 118L174 143Q123 163 99 191T75 271Q75 334 111 372T209 427L210 433Q183 454 171 482T159 549Q159 588 172 618T210 668T267 699T339 710Q384 710 417 696T475 656L450 633Q430 655 402 667T335 680Q270 680 232 647T193 551Q193
505 212 479T271 438L336 413Q387 393 411 365T435 285ZM110 275Q110 253 114 237T129 209T154 188T192 169Q236 152 255 145T280 134Q337 156 368 190T400 281Q400 324 381 347T318 387Q274 404 255 411T230 422Q173 400 142 366T110 275Z" />
<glyph unicode="&#xa8;" glyph-name="dieresis" horiz-adv-x="540" d="M200 636Q188 636 183 642T177 656Q177 665 180 674Q184 686 190 691T211 697Q223 697 228 691T234 677Q234 668 231 659Q227 647 221 642T200 636ZM365 636Q353 636 348 642T342 656Q342
665 345 674Q349 686 355 691T376 697Q388 697 393 691T399 677Q399 668 396 659Q392 647 386 642T365 636Z" />
<glyph unicode="&#xa9;" glyph-name="copyright" horiz-adv-x="659" d="M305 15Q365 15 415 36T504 95T569 183T607 293Q616 340 619 367T622 419Q622 477 608 525T564 609T492 663T392 683Q332 683 282 662T193 603T128 514T90 405Q81 358 78 331T75 279Q75 221
89 173T133 89T205 35T305 15ZM303 -12Q242 -12 194 8T113 67T61 160T43 285Q43 353 56 409Q72 478 103 534T179 629T278 689T394 710Q455 710 503 690T584 631T636 538T654 413Q654 345 641 289Q625 220 594 164T518 69T419 9T303 -12ZM329 151Q275 151 243 185T211
297Q211 315 213 334T218 370Q232 450 277 496T388 543Q431 543 458 519T494 460L468 450Q459 480 440 498T386 516Q335 516 303 484T256 382L247 339Q244 326 244 316T243 297Q243 233 265 206T331 178Q363 178 389 197T433 248L454 233Q435 198 403 175T329 151Z"
/>
<glyph unicode="&#xaa;" glyph-name="ordfeminine" horiz-adv-x="329" d="M322 370H278Q260 370 260 385Q260 388 260 392T263 406L265 419H261Q248 396 222 380T155 364Q113 364 92 384T71 440Q71 487 102 517T208 548H290L299 597Q300 602 301 609T302 622Q302
657 285 671T231 686Q201 686 177 673T135 629L117 643Q135 675 164 692T235 710Q329 710 329 623Q329 612 326 596L286 396H327L322 370ZM203 525Q153 525 131 509T104 467Q101 447 101 441Q101 388 161 388Q200 388 233 408T274 469L285 525H203Z" />
<glyph unicode="&#xab;" glyph-name="guillemotleft" horiz-adv-x="429" d="M180 100L40 277L46 308L238 483L250 458L75 292V287L198 118L180 100ZM348 100L208 277L214 308L406 483L418 458L243 292V287L366 118L348 100Z" />
<glyph unicode="&#xac;" glyph-name="logicalnot" horiz-adv-x="540" d="M407 98L446 291H63L69 320H484L439 98H407Z" />
<glyph unicode="&#xad;" glyph-name="uni00AD" horiz-adv-x="350" d="M75 287L82 322H295L288 287H75Z" />
<glyph unicode="&#xae;" glyph-name="registered" horiz-adv-x="433" d="M239 298Q165 298 123 344T81 465Q81 506 93 549T131 628T197 687T295 710Q369 710 411 664T453 543Q453 502 441 459T403 380T337 321T239 298ZM243 319Q280 319 310 331T362 365T400 417T422
483Q427 506 428 519T429 542Q429 610 393 649T291 689Q254 689 224 677T172 643T134 591T112 525Q107 502 106 489T105 466Q105 398 141 359T243 319ZM207 398H187L229 609H301Q349 609 349 562Q349 529 333 510T293 489L324 398H303L274 487H225L207 398ZM281
505Q300 505 310 512T325 540Q328 558 328 563Q328 590 298 590H246L229 505H281Z" />
<glyph unicode="&#xaf;" glyph-name="overscore" horiz-adv-x="540" d="M173 683H409L404 653H167L173 683Z" />
<glyph unicode="&#xb0;" glyph-name="degree" horiz-adv-x="420" d="M246 376Q188 376 154 415T119 516Q119 559 132 595T167 656T221 696T287 710Q345 710 379 671T414 570Q414 526 401 491T366 430T312 390T246 376ZM250 404Q278 404 302 415T345 449T373 501T384
569Q384 618 359 650T283 682Q254 682 230 671T187 637T159 585T149 517Q149 468 174 436T250 404Z" />
<glyph unicode="&#xb1;" glyph-name="plusminus" horiz-adv-x="540" d="M232 145L273 350H76L82 379H279L321 584H353L312 379H509L503 350H306L264 145H232ZM6 0L12 29H438L432 0H6Z" />
<glyph unicode="&#xb2;" glyph-name="twosuperior" horiz-adv-x="320" d="M288 329H55L62 357L210 474Q250 506 271 530T297 580Q301 599 301 609Q301 639 282 659T228 679Q189 679 166 659T130 605L106 615Q123 654 151 679T232 704Q278 704 304 677T330 608Q330
567 305 533T227 457L94 353H293L288 329Z" />
<glyph unicode="&#xb3;" glyph-name="threesuperior" horiz-adv-x="320" d="M204 533Q251 533 273 551T300 599Q302 606 302 611T302 621Q302 649 285 664T232 680Q200 680 179 669T140 633L123 649Q142 675 168 689T235 704Q280 704 305 682T330 620Q330 579
307 553T246 521L245 517Q304 507 304 438Q304 384 270 354T177 323Q132 323 105 340T67 383L88 397Q99 374 120 361T179 347Q223 347 245 364T273 414Q275 423 275 429T276 441Q276 473 260 490T204 508H158L162 533H204Z" />
<glyph unicode="&#xb4;" glyph-name="acute" horiz-adv-x="540" d="M266 587L246 600L369 758L396 739L266 587Z" />
<glyph unicode="&#xb5;" glyph-name="mu" horiz-adv-x="500" d="M-10 -200L131 508H165L101 188Q97 168 95 148T93 116Q93 18 185 18Q217 18 246 32T299 77Q317 100 332 131T358 211L418 508H452L356 30H430L424 0H351Q322 0 322 23Q322 32 325 46L337 104H330Q281
-12 176 -12Q92 -12 78 70H72L56 -44L24 -200H-10Z" />
<glyph unicode="&#xb6;" glyph-name="paragraph" horiz-adv-x="542" d="M233 324Q202 324 176 335T131 367T101 417T90 483Q90 535 106 575T152 642T223 684T315 698H544L538 669H477L314 -149H282L445 669H334L171 -149H139L233 324Z" />
<glyph unicode="&#xb7;" glyph-name="middot" horiz-adv-x="275" d="M141 270Q126 270 119 276T112 293Q112 297 113 303T116 315Q120 326 127 333T153 341Q168 341 175 335T182 318Q182 314 181 308T178 296Q174 285 167 278T141 270Z" />
<glyph unicode="&#xb8;" glyph-name="cedilla" horiz-adv-x="540" d="M247 -203Q218 -203 199 -194T172 -170L192 -151Q210 -177 247 -177Q273 -177 289 -164T306 -126Q306 -108 296 -97T260 -86H227L260 4H285L256 -73L259 -75Q271 -68 286 -68Q336 -68 336 -123Q336
-160 312 -181T247 -203Z" />
<glyph unicode="&#xb9;" glyph-name="onesuperior" horiz-adv-x="320" d="M62 329L68 353H178L241 671L111 603L102 623L242 698H273L204 353H305L300 329H62Z" />
<glyph unicode="&#xba;" glyph-name="ordmasculine" horiz-adv-x="335" d="M195 363Q145 363 118 396T91 488Q91 519 97 552Q103 584 114 613T144 663T189 697T251 710Q301 710 328 677T355 585Q355 554 349 521Q343 489 332 460T302 410T257 376T195 363ZM197
389Q251 389 280 422T317 508L324 552Q327 568 327 584Q327 632 309 658T249 684Q195 684 166 651T129 565L122 521Q119 504 119 489Q119 441 137 415T197 389Z" />
<glyph unicode="&#xbb;" glyph-name="guillemotright" horiz-adv-x="429" d="M26 125L201 291V296L78 465L96 483L236 306L230 275L38 100L26 125ZM194 125L369 291V296L246 465L264 483L404 306L398 275L206 100L194 125Z" />
<glyph unicode="&#xbc;" glyph-name="onequarter" horiz-adv-x="740" d="M62 329L68 353H178L241 671L111 603L102 623L242 698H273L204 353H305L300 329H62ZM651 698H685L471 434H437L651 698ZM292 254H326L121 0H87L292 254ZM580 0L597 85H413L418 112L642 369H681L629
109H684L679 85H624L607 0H580ZM648 338H644L445 109H602L648 338Z" />
<glyph unicode="&#xbd;" glyph-name="onehalf" horiz-adv-x="740" d="M62 329L68 353H178L241 671L111 603L102 623L242 698H273L204 353H305L300 329H62ZM651 698H685L471 434H437L651 698ZM292 254H326L121 0H87L292 254ZM652 0H419L426 28L574 145Q614 177
635 201T661 251Q665 270 665 280Q665 310 646 330T592 350Q553 350 530 330T494 276L470 286Q487 325 515 350T596 375Q642 375 668 348T694 279Q694 238 669 204T591 128L458 24H657L652 0Z" />
<glyph unicode="&#xbe;" glyph-name="threequarters" horiz-adv-x="740" d="M204 533Q251 533 273 551T300 599Q302 606 302 611T302 621Q302 649 285 664T232 680Q200 680 179 669T140 633L123 649Q142 675 168 689T235 704Q280 704 305 682T330 620Q330 579
307 553T246 521L245 517Q304 507 304 438Q304 384 270 354T177 323Q132 323 105 340T67 383L88 397Q99 374 120 361T179 347Q223 347 245 364T273 414Q275 423 275 429T276 441Q276 473 260 490T204 508H158L162 533H204ZM651 698H685L471 434H437L651 698ZM292
254H326L121 0H87L292 254ZM580 0L597 85H413L418 112L642 369H681L629 109H684L679 85H624L607 0H580ZM648 338H644L445 109H602L648 338Z" />
<glyph unicode="&#xbf;" glyph-name="questiondown" horiz-adv-x="412" d="M143 -202Q71 -202 31 -161T-9 -50Q-9 47 45 107T205 180L234 324H267L233 154Q53 139 32 0Q30 -11 29 -26T27 -50Q27 -107 56 -138T146 -170Q209 -170 246 -135T308 -38L338 -49Q311
-119 265 -160T143 -202ZM274 444Q259 444 252 450T245 467Q245 471 246 477T249 489Q253 500 260 507T286 515Q301 515 308 509T315 492Q315 488 314 482T311 470Q307 459 300 452T274 444Z" />
<glyph unicode="&#xc0;" glyph-name="Agrave" horiz-adv-x="543" d="M434 0L402 228H129L18 0H-20L324 698H372L469 0H434ZM359 548L344 663H339L284 548L144 258H399L359 548ZM299 920L330 935L395 775L373 765L299 920Z" />
<glyph unicode="&#xc1;" glyph-name="Aacute" horiz-adv-x="543" d="M434 0L402 228H129L18 0H-20L324 698H372L469 0H434ZM359 548L344 663H339L284 548L144 258H399L359 548ZM348 764L328 777L451 935L478 916L348 764Z" />
<glyph unicode="&#xc2;" glyph-name="Acircumflex" horiz-adv-x="543" d="M434 0L402 228H129L18 0H-20L324 698H372L469 0H434ZM359 548L344 663H339L284 548L144 258H399L359 548ZM397 926L485 789L464 775L376 900L242 775L223 791L359 926H397Z" />
<glyph unicode="&#xc3;" glyph-name="Atilde" horiz-adv-x="543" d="M434 0L402 228H129L18 0H-20L324 698H372L469 0H434ZM359 548L344 663H339L284 548L144 258H399L359 548ZM229 843Q267 885 309 885Q329 885 342 878T375 856Q393 842 405 836T432 830Q461
830 493 862L507 844Q469 802 427 802Q407 802 394 809T361 831Q343 845 331 851T304 857Q275 857 243 825L229 843Z" />
<glyph unicode="&#xc4;" glyph-name="Adieresis" horiz-adv-x="543" d="M434 0L402 228H129L18 0H-20L324 698H372L469 0H434ZM359 548L344 663H339L284 548L144 258H399L359 548ZM281 812Q269 812 264 818T258 832Q258 841 261 850Q265 862 271 867T292 873Q304
873 309 867T315 853Q315 844 312 835Q308 823 302 818T281 812ZM446 812Q434 812 429 818T423 832Q423 841 426 850Q430 862 436 867T457 873Q469 873 474 867T480 853Q480 844 477 835Q473 823 467 818T446 812Z" />
<glyph unicode="&#xc5;" glyph-name="Aring" horiz-adv-x="543" d="M434 0L402 228H129L18 0H-20L324 698H372L469 0H434ZM359 548L344 663H339L284 548L144 258H399L359 548ZM358 763Q317 763 300 786T282 842Q282 895 310 926T384 957Q425 957 442 934T460 878Q460
825 432 794T358 763ZM361 787Q390 787 407 802T431 846Q434 860 434 868T435 881Q435 905 422 919T381 933Q352 933 335 918T311 874Q308 860 308 852T307 839Q307 815 320 801T361 787Z" />
<glyph unicode="&#xc6;" glyph-name="AE" horiz-adv-x="802" d="M383 228H165L11 0H-29L445 698H827L821 666H506L447 370H743L737 338H441L379 32H695L689 0H337L383 228ZM461 666L187 258H389L470 666H461Z" />
<glyph unicode="&#xc7;" glyph-name="Ccedilla" horiz-adv-x="540" d="M320 -123Q320 -160 296 -181T231 -203Q202 -203 183 -194T156 -170L176 -151Q194 -177 231 -177Q257 -177 273 -164T290 -126Q290 -108 280 -97T244 -86H211L238 -11Q150 -4 104 58T57 227Q57
266 61 308T74 389Q87 455 111 513T172 615T256 684T366 710Q442 710 486 671T544 565L512 554Q499 611 465 644T363 678Q269 678 205 606T116 402L102 329Q97 300 95 274T93 228Q93 134 134 77T262 20Q327 20 369 55T445 160L475 144Q433 62 383 25T263 -12L240
-73L243 -75Q255 -68 270 -68Q320 -68 320 -123Z" />
<glyph unicode="&#xc8;" glyph-name="Egrave" d="M42 0L182 698H532L526 666H211L152 370H448L442 338H146L84 32H400L394 0H42ZM302 920L333 935L398 775L376 765L302 920Z" />
<glyph unicode="&#xc9;" glyph-name="Eacute" d="M42 0L182 698H532L526 666H211L152 370H448L442 338H146L84 32H400L394 0H42ZM351 764L331 777L454 935L481 916L351 764Z" />
<glyph unicode="&#xca;" glyph-name="Ecircumflex" d="M42 0L182 698H532L526 666H211L152 370H448L442 338H146L84 32H400L394 0H42ZM400 926L488 789L467 775L379 900L245 775L226 791L362 926H400Z" />
<glyph unicode="&#xcb;" glyph-name="Edieresis" d="M42 0L182 698H532L526 666H211L152 370H448L442 338H146L84 32H400L394 0H42ZM284 812Q272 812 267 818T261 832Q261 841 264 850Q268 862 274 867T295 873Q307 873 312 867T318 853Q318 844 315 835Q311 823
305 818T284 812ZM449 812Q437 812 432 818T426 832Q426 841 429 850Q433 862 439 867T460 873Q472 873 477 867T483 853Q483 844 480 835Q476 823 470 818T449 812Z" />
<glyph unicode="&#xcc;" glyph-name="Igrave" horiz-adv-x="337" d="M7 0L13 31H106L233 667H140L146 698H368L362 667H269L142 31H235L228 0H7ZM468 920L499 935L564 775L542 765L468 920Z" />
<glyph unicode="&#xcd;" glyph-name="Iacute" horiz-adv-x="337" d="M7 0L13 31H106L233 667H140L146 698H368L362 667H269L142 31H235L228 0H7ZM517 764L497 777L620 935L647 916L517 764Z" />
<glyph unicode="&#xce;" glyph-name="Icircumflex" horiz-adv-x="337" d="M7 0L13 31H106L233 667H140L146 698H368L362 667H269L142 31H235L228 0H7ZM566 926L654 789L633 775L545 900L411 775L392 791L528 926H566Z" />
<glyph unicode="&#xcf;" glyph-name="Idieresis" horiz-adv-x="337" d="M7 0L13 31H106L233 667H140L146 698H368L362 667H269L142 31H235L228 0H7ZM450 812Q438 812 433 818T427 832Q427 841 430 850Q434 862 440 867T461 873Q473 873 478 867T484 853Q484 844
481 835Q477 823 471 818T450 812ZM615 812Q603 812 598 818T592 832Q592 841 595 850Q599 862 605 867T626 873Q638 873 643 867T649 853Q649 844 646 835Q642 823 636 818T615 812Z" />
<glyph unicode="&#xd0;" glyph-name="Eth" horiz-adv-x="588" d="M115 350H41L47 378H121L185 698H345Q451 698 506 636T562 468Q562 430 557 390T545 314Q532 248 508 191T446 92T359 25T246 0H45L115 350ZM247 32Q302 32 345 53T419 110T472 194T503 295L517
368Q522 397 524 422T526 467Q526 560 480 613T341 666H214L156 378H288L283 350H151L87 32H247Z" />
<glyph unicode="&#xd1;" glyph-name="Ntilde" horiz-adv-x="616" d="M246 540L210 661H204L184 534L77 0H42L182 698H229L408 158L444 37H450L470 164L577 698H612L472 0H425L246 540ZM281 843Q319 885 361 885Q381 885 394 878T427 856Q445 842 457 836T484 830Q513
830 545 862L559 844Q521 802 479 802Q459 802 446 809T413 831Q395 845 383 851T356 857Q327 857 295 825L281 843Z" />
<glyph unicode="&#xd2;" glyph-name="Ograve" horiz-adv-x="599" d="M263 -12Q163 -12 110 52T57 227Q57 266 61 308T74 389Q87 455 111 513T172 615T257 684T368 710Q468 710 521 646T574 471Q574 432 570 390T557 309Q544 243 520 185T459 83T374 14T263 -12ZM265
20Q359 20 424 92T515 296L529 369Q534 398 536 424T538 470Q538 564 496 621T366 678Q272 678 207 606T116 402L102 329Q97 300 95 274T93 228Q93 134 135 77T265 20ZM337 920L368 935L433 775L411 765L337 920Z" />
<glyph unicode="&#xd3;" glyph-name="Oacute" horiz-adv-x="599" d="M263 -12Q163 -12 110 52T57 227Q57 266 61 308T74 389Q87 455 111 513T172 615T257 684T368 710Q468 710 521 646T574 471Q574 432 570 390T557 309Q544 243 520 185T459 83T374 14T263 -12ZM265
20Q359 20 424 92T515 296L529 369Q534 398 536 424T538 470Q538 564 496 621T366 678Q272 678 207 606T116 402L102 329Q97 300 95 274T93 228Q93 134 135 77T265 20ZM386 764L366 777L489 935L516 916L386 764Z" />
<glyph unicode="&#xd4;" glyph-name="Ocircumflex" horiz-adv-x="599" d="M263 -12Q163 -12 110 52T57 227Q57 266 61 308T74 389Q87 455 111 513T172 615T257 684T368 710Q468 710 521 646T574 471Q574 432 570 390T557 309Q544 243 520 185T459 83T374 14T263
-12ZM265 20Q359 20 424 92T515 296L529 369Q534 398 536 424T538 470Q538 564 496 621T366 678Q272 678 207 606T116 402L102 329Q97 300 95 274T93 228Q93 134 135 77T265 20ZM435 926L523 789L502 775L414 900L280 775L261 791L397 926H435Z" />
<glyph unicode="&#xd5;" glyph-name="Otilde" horiz-adv-x="599" d="M263 -12Q163 -12 110 52T57 227Q57 266 61 308T74 389Q87 455 111 513T172 615T257 684T368 710Q468 710 521 646T574 471Q574 432 570 390T557 309Q544 243 520 185T459 83T374 14T263 -12ZM265
20Q359 20 424 92T515 296L529 369Q534 398 536 424T538 470Q538 564 496 621T366 678Q272 678 207 606T116 402L102 329Q97 300 95 274T93 228Q93 134 135 77T265 20ZM267 843Q305 885 347 885Q367 885 380 878T413 856Q431 842 443 836T470 830Q499 830 531 862L545
844Q507 802 465 802Q445 802 432 809T399 831Q381 845 369 851T342 857Q313 857 281 825L267 843Z" />
<glyph unicode="&#xd6;" glyph-name="Odieresis" horiz-adv-x="599" d="M263 -12Q163 -12 110 52T57 227Q57 266 61 308T74 389Q87 455 111 513T172 615T257 684T368 710Q468 710 521 646T574 471Q574 432 570 390T557 309Q544 243 520 185T459 83T374 14T263
-12ZM265 20Q359 20 424 92T515 296L529 369Q534 398 536 424T538 470Q538 564 496 621T366 678Q272 678 207 606T116 402L102 329Q97 300 95 274T93 228Q93 134 135 77T265 20ZM319 812Q307 812 302 818T296 832Q296 841 299 850Q303 862 309 867T330 873Q342
873 347 867T353 853Q353 844 350 835Q346 823 340 818T319 812ZM484 812Q472 812 467 818T461 832Q461 841 464 850Q468 862 474 867T495 873Q507 873 512 867T518 853Q518 844 515 835Q511 823 505 818T484 812Z" />
<glyph unicode="&#xd7;" glyph-name="multiply" horiz-adv-x="540" d="M278 284L90 113L71 136L261 307L139 480L162 498L283 326L473 498L491 475L300 303L421 132L398 113L278 284Z" />
<glyph unicode="&#xd8;" glyph-name="Oslash" horiz-adv-x="599" d="M112 117L321 379L507 605Q487 640 453 659T367 678Q273 678 208 606T116 402L102 329Q97 300 95 274T92 228Q92 199 96 170T110 117H112ZM264 20Q358 20 423 92T515 296L529 369Q534 398 536
424T539 470Q539 499 535 528T521 581H519L310 319L124 93Q144 58 178 39T264 20ZM263 -12Q209 -12 169 7T102 63L20 -36L-2 -16L86 90Q57 146 57 227Q57 266 61 308T74 389Q87 455 111 513T172 615T257 684T368 710Q422 710 462 691T529 635L611 734L633 714L545
608Q574 552 574 471Q574 432 570 390T557 309Q544 243 520 185T459 83T373 14T263 -12Z" />
<glyph unicode="&#xd9;" glyph-name="Ugrave" horiz-adv-x="582" d="M210 698L122 258Q114 219 111 195T108 150Q108 87 143 54T252 20Q297 20 330 31T389 71T431 145T462 259L549 698H585L497 256Q482 178 461 127T411 44T343 1T252 -12Q167 -12 120 27T72 148Q72
169 76 199T88 268L174 698H210ZM334 920L365 935L430 775L408 765L334 920Z" />
<glyph unicode="&#xda;" glyph-name="Uacute" horiz-adv-x="582" d="M210 698L122 258Q114 219 111 195T108 150Q108 87 143 54T252 20Q297 20 330 31T389 71T431 145T462 259L549 698H585L497 256Q482 178 461 127T411 44T343 1T252 -12Q167 -12 120 27T72 148Q72
169 76 199T88 268L174 698H210ZM383 764L363 777L486 935L513 916L383 764Z" />
<glyph unicode="&#xdb;" glyph-name="Ucircumflex" horiz-adv-x="582" d="M210 698L122 258Q114 219 111 195T108 150Q108 87 143 54T252 20Q297 20 330 31T389 71T431 145T462 259L549 698H585L497 256Q482 178 461 127T411 44T343 1T252 -12Q167 -12 120 27T72
148Q72 169 76 199T88 268L174 698H210ZM432 926L520 789L499 775L411 900L277 775L258 791L394 926H432Z" />
<glyph unicode="&#xdc;" glyph-name="Udieresis" horiz-adv-x="582" d="M210 698L122 258Q114 219 111 195T108 150Q108 87 143 54T252 20Q297 20 330 31T389 71T431 145T462 259L549 698H585L497 256Q482 178 461 127T411 44T343 1T252 -12Q167 -12 120 27T72
148Q72 169 76 199T88 268L174 698H210ZM316 812Q304 812 299 818T293 832Q293 841 296 850Q300 862 306 867T327 873Q339 873 344 867T350 853Q350 844 347 835Q343 823 337 818T316 812ZM481 812Q469 812 464 818T458 832Q458 841 461 850Q465 862 471 867T492
873Q504 873 509 867T515 853Q515 844 512 835Q508 823 502 818T481 812Z" />
<glyph unicode="&#xdd;" glyph-name="Yacute" horiz-adv-x="496" d="M179 0L237 288L107 698H143L259 330H265L529 698H569L273 288L215 0H179ZM334 764L314 777L437 935L464 916L334 764Z" />
<glyph unicode="&#xde;" glyph-name="Thorn" horiz-adv-x="535" d="M42 0L181 698H217L186 545H367Q442 545 479 504T516 398Q516 344 502 301T460 228T396 181T312 164H110L78 0H42ZM117 196H317Q382 196 420 231T470 324Q476 357 478 373T480 399Q480 423 474
443T453 479T417 504T363 513H180L117 196Z" />
<glyph unicode="&#xdf;" glyph-name="germandbls" horiz-adv-x="573" d="M512 142Q512 104 500 75T466 27T415 -2T350 -12Q292 -12 250 13T182 86L207 105Q232 61 266 40T351 18Q409 18 443 49T478 140Q478 178 463 198T413 233L371 249Q351 257 334 266T305 287T287
318T280 361Q280 434 328 472T482 510L485 527Q489 547 491 565T494 602Q494 664 467 693T376 722Q300 722 258 675T195 527L90 0H56L151 478H69L75 508H158L162 527Q185 644 237 698T380 752Q527 752 527 602Q527 587 525 565T518 525L509 482H487Q397 482 356
454T314 363Q314 327 330 310T380 279L422 263Q442 255 458 246T487 223T505 190T512 142Z" />
<glyph unicode="&#xe0;" glyph-name="agrave" horiz-adv-x="517" d="M369 0Q340 0 340 23Q340 32 343 46L356 111H349Q326 54 289 21T197 -12Q161 -12 133 1T87 38T59 95T49 168Q49 198 52 228T62 288Q72 339 91 381T137 455T201 503T281 520Q335 520 367 493T410
418H417L435 508H469L374 30H448L442 0H369ZM204 18Q232 18 254 28T299 61Q324 86 345 125T376 211L403 348Q407 371 402 396T382 442T341 476T281 490Q204 490 161 437T99 290L88 234Q85 218 84 203T83 168Q83 135 90 108T112 60T149 29T204 18ZM241 742L272 757L337
597L315 587L241 742Z" />
<glyph unicode="&#xe1;" glyph-name="aacute" horiz-adv-x="517" d="M369 0Q340 0 340 23Q340 32 343 46L356 111H349Q326 54 289 21T197 -12Q161 -12 133 1T87 38T59 95T49 168Q49 198 52 228T62 288Q72 339 91 381T137 455T201 503T281 520Q335 520 367 493T410
418H417L435 508H469L374 30H448L442 0H369ZM204 18Q232 18 254 28T299 61Q324 86 345 125T376 211L403 348Q407 371 402 396T382 442T341 476T281 490Q204 490 161 437T99 290L88 234Q85 218 84 203T83 168Q83 135 90 108T112 60T149 29T204 18ZM290 587L270 600L393
758L420 739L290 587Z" />
<glyph unicode="&#xe2;" glyph-name="acircumflex" horiz-adv-x="517" d="M369 0Q340 0 340 23Q340 32 343 46L356 111H349Q326 54 289 21T197 -12Q161 -12 133 1T87 38T59 95T49 168Q49 198 52 228T62 288Q72 339 91 381T137 455T201 503T281 520Q335 520 367
493T410 418H417L435 508H469L374 30H448L442 0H369ZM204 18Q232 18 254 28T299 61Q324 86 345 125T376 211L403 348Q407 371 402 396T382 442T341 476T281 490Q204 490 161 437T99 290L88 234Q85 218 84 203T83 168Q83 135 90 108T112 60T149 29T204 18ZM339 748L427
611L407 597L318 722L184 597L165 613L301 748H339Z" />
<glyph unicode="&#xe3;" glyph-name="atilde" horiz-adv-x="517" d="M369 0Q340 0 340 23Q340 32 343 46L356 111H349Q326 54 289 21T197 -12Q161 -12 133 1T87 38T59 95T49 168Q49 198 52 228T62 288Q72 339 91 381T137 455T201 503T281 520Q335 520 367 493T410
418H417L435 508H469L374 30H448L442 0H369ZM204 18Q232 18 254 28T299 61Q324 86 345 125T376 211L403 348Q407 371 402 396T382 442T341 476T281 490Q204 490 161 437T99 290L88 234Q85 218 84 203T83 168Q83 135 90 108T112 60T149 29T204 18ZM172 665Q210 707
252 707Q272 707 285 700T318 678Q336 664 348 658T375 652Q404 652 436 684L450 666Q412 624 370 624Q350 624 337 631T304 653Q286 667 274 673T247 679Q218 679 186 647L172 665Z" />
<glyph unicode="&#xe4;" glyph-name="adieresis" horiz-adv-x="517" d="M369 0Q340 0 340 23Q340 32 343 46L356 111H349Q326 54 289 21T197 -12Q161 -12 133 1T87 38T59 95T49 168Q49 198 52 228T62 288Q72 339 91 381T137 455T201 503T281 520Q335 520 367 493T410
418H417L435 508H469L374 30H448L442 0H369ZM204 18Q232 18 254 28T299 61Q324 86 345 125T376 211L403 348Q407 371 402 396T382 442T341 476T281 490Q204 490 161 437T99 290L88 234Q85 218 84 203T83 168Q83 135 90 108T112 60T149 29T204 18ZM224 636Q212 636
207 642T201 656Q201 665 204 674Q208 686 214 691T235 697Q247 697 252 691T258 677Q258 668 255 659Q251 647 245 642T224 636ZM389 636Q377 636 372 642T366 656Q366 665 369 674Q373 686 379 691T400 697Q412 697 417 691T423 677Q423 668 420 659Q416 647
410 642T389 636Z" />
<glyph unicode="&#xe5;" glyph-name="aring" horiz-adv-x="517" d="M369 0Q340 0 340 23Q340 32 343 46L356 111H349Q326 54 289 21T197 -12Q161 -12 133 1T87 38T59 95T49 168Q49 198 52 228T62 288Q72 339 91 381T137 455T201 503T281 520Q335 520 367 493T410
418H417L435 508H469L374 30H448L442 0H369ZM204 18Q232 18 254 28T299 61Q324 86 345 125T376 211L403 348Q407 371 402 396T382 442T341 476T281 490Q204 490 161 437T99 290L88 234Q85 218 84 203T83 168Q83 135 90 108T112 60T149 29T204 18ZM300 585Q259 585
242 608T224 664Q224 717 252 748T326 779Q367 779 384 756T402 700Q402 647 374 616T300 585ZM303 609Q332 609 349 624T373 668Q376 682 376 690T377 703Q377 727 364 741T323 755Q294 755 277 740T253 696Q250 682 250 674T249 661Q249 637 262 623T303 609Z"
/>
<glyph unicode="&#xe6;" glyph-name="ae" horiz-adv-x="762" d="M175 18Q203 18 231 27T282 53T322 97T345 159L359 240L218 233Q145 229 112 207T71 146Q67 128 67 121T66 105Q66 63 93 41T175 18ZM585 491Q550 491 520 476T466 434T426 369T401 286L397 269Q489
270 547 280T639 307T684 347T696 398Q696 439 670 465T585 491ZM168 -12Q102 -12 67 17T32 103Q32 182 77 218T217 259L365 267L378 333Q380 346 381 358T382 381Q382 405 377 425T358 459T324 482T270 490Q216 490 183 469T122 399L98 416Q126 465 167 492T274
520Q309 520 333 511T374 486T397 447T406 397H414Q443 455 486 487T590 520Q656 520 693 487T731 399Q731 366 717 339T666 290T562 256T393 241Q391 226 389 211T387 185Q387 106 416 62T516 18Q576 18 613 49T680 134L704 118Q669 52 625 20T515 -12Q449 -12
411 24T364 128H357Q339 64 288 26T168 -12Z" />
<glyph unicode="&#xe7;" glyph-name="ccedilla" horiz-adv-x="434" d="M277 520Q335 520 370 488T415 404L386 394Q366 490 274 490Q208 490 162 438T99 293L88 232Q86 218 85 202T83 174Q83 140 90 112T113 62T151 30T208 18Q259 18 293 48T354 132L381 118Q348
57 308 23T209 -12L186 -73L189 -75Q201 -68 216 -68Q266 -68 266 -123Q266 -160 242 -181T177 -203Q148 -203 129 -194T102 -170L122 -151Q140 -177 177 -177Q203 -177 219 -164T236 -126Q236 -108 226 -97T190 -86H157L185 -11Q116 -3 83 48T49 174Q49 203 53
232T62 289Q72 340 91 382T137 455T199 503T277 520Z" />
<glyph unicode="&#xe8;" glyph-name="egrave" horiz-adv-x="458" d="M214 -12Q49 -12 49 182Q49 208 52 235T60 288Q70 340 90 383T140 456T206 503T287 520Q350 520 388 488T427 396Q427 365 414 336T363 284T260 247T87 230Q85 217 84 205T83 184Q83 98 115
58T215 18Q272 18 309 49T376 134L400 118Q365 51 320 20T214 -12ZM284 491Q245 491 214 476T160 434T120 368T95 284L90 257Q183 259 242 270T334 299T380 341T393 394Q393 440 366 465T284 491ZM245 742L276 757L341 597L319 587L245 742Z" />
<glyph unicode="&#xe9;" glyph-name="eacute" horiz-adv-x="458" d="M214 -12Q49 -12 49 182Q49 208 52 235T60 288Q70 340 90 383T140 456T206 503T287 520Q350 520 388 488T427 396Q427 365 414 336T363 284T260 247T87 230Q85 217 84 205T83 184Q83 98 115
58T215 18Q272 18 309 49T376 134L400 118Q365 51 320 20T214 -12ZM284 491Q245 491 214 476T160 434T120 368T95 284L90 257Q183 259 242 270T334 299T380 341T393 394Q393 440 366 465T284 491ZM294 587L274 600L397 758L424 739L294 587Z" />
<glyph unicode="&#xea;" glyph-name="ecircumflex" horiz-adv-x="458" d="M214 -12Q49 -12 49 182Q49 208 52 235T60 288Q70 340 90 383T140 456T206 503T287 520Q350 520 388 488T427 396Q427 365 414 336T363 284T260 247T87 230Q85 217 84 205T83 184Q83 98
115 58T215 18Q272 18 309 49T376 134L400 118Q365 51 320 20T214 -12ZM284 491Q245 491 214 476T160 434T120 368T95 284L90 257Q183 259 242 270T334 299T380 341T393 394Q393 440 366 465T284 491ZM343 748L431 611L411 597L322 722L188 597L169 613L305 748H343Z"
/>
<glyph unicode="&#xeb;" glyph-name="edieresis" horiz-adv-x="458" d="M214 -12Q49 -12 49 182Q49 208 52 235T60 288Q70 340 90 383T140 456T206 503T287 520Q350 520 388 488T427 396Q427 365 414 336T363 284T260 247T87 230Q85 217 84 205T83 184Q83 98 115
58T215 18Q272 18 309 49T376 134L400 118Q365 51 320 20T214 -12ZM284 491Q245 491 214 476T160 434T120 368T95 284L90 257Q183 259 242 270T334 299T380 341T393 394Q393 440 366 465T284 491ZM228 636Q216 636 211 642T205 656Q205 665 208 674Q212 686 218
691T239 697Q251 697 256 691T262 677Q262 668 259 659Q255 647 249 642T228 636ZM393 636Q381 636 376 642T370 656Q370 665 373 674Q377 686 383 691T404 697Q416 697 421 691T427 677Q427 668 424 659Q420 647 414 642T393 636Z" />
<glyph unicode="&#xec;" glyph-name="igrave" horiz-adv-x="222" d="M73 0Q44 0 44 23Q44 32 47 46L140 508H174L78 30H152L146 0H73ZM366 742L397 757L462 597L440 587L366 742Z" />
<glyph unicode="&#xed;" glyph-name="iacute" horiz-adv-x="222" d="M73 0Q44 0 44 23Q44 32 47 46L140 508H174L78 30H152L146 0H73ZM415 587L395 600L518 758L545 739L415 587Z" />
<glyph unicode="&#xee;" glyph-name="icircumflex" horiz-adv-x="222" d="M73 0Q44 0 44 23Q44 32 47 46L140 508H174L78 30H152L146 0H73ZM299 613L432 748H470L556 611L535 597L449 722L318 597L299 613Z" />
<glyph unicode="&#xef;" glyph-name="idieresis" horiz-adv-x="222" d="M73 0Q44 0 44 23Q44 32 47 46L140 508H174L78 30H152L146 0H73ZM513 636Q501 636 496 642T490 656Q490 665 493 674Q497 686 503 691T524 697Q536 697 541 691T547 677Q547 668 544 659Q540
647 534 642T513 636ZM353 636Q341 636 336 642T330 656Q330 665 333 674Q337 686 343 691T364 697Q376 697 381 691T387 677Q387 668 384 659Q380 647 374 642T353 636Z" />
<glyph unicode="&#xf0;" glyph-name="eth" d="M337 657Q361 631 381 600T418 529T443 443T452 340Q452 309 450 280T442 225Q421 106 360 47T213 -12Q135 -12 93 38T50 173Q50 194 51 217T57 261Q66 318 86 362T134 437T199 484T276 501Q326 501 360 479T410 416L415
417Q407 483 380 539T311 641L208 570L194 591L292 659Q268 683 242 703T186 740H236Q256 728 277 713T319 676L427 751L442 729L337 657ZM215 19Q285 19 334 67T400 204L411 265Q413 279 414 293T415 319Q415 392 380 431T283 471Q213 471 164 423T98 286L87 225Q85
211 84 197T83 171Q83 98 118 59T215 19Z" />
<glyph unicode="&#xf1;" glyph-name="ntilde" horiz-adv-x="498" d="M38 0L140 508H174L153 404H160Q185 462 223 491T316 520Q373 520 402 488T431 396Q431 379 429 360T423 321L365 30H439L433 0H360Q331 0 331 23Q331 32 334 46L389 320Q393 340 395 360T397
392Q397 490 305 490Q273 490 244 476T191 431Q173 408 158 377T132 297L72 0H38ZM184 665Q222 707 264 707Q284 707 297 700T330 678Q348 664 360 658T387 652Q416 652 448 684L462 666Q424 624 382 624Q362 624 349 631T316 653Q298 667 286 673T259 679Q230
679 198 647L184 665Z" />
<glyph unicode="&#xf2;" glyph-name="ograve" horiz-adv-x="487" d="M205 -12Q130 -12 90 36T49 167Q49 197 52 228T62 288Q72 339 91 381T138 455T202 503T282 520Q357 520 397 472T438 341Q438 311 435 280T425 220Q415 169 396 127T349 53T285 5T205 -12ZM208
18Q283 18 327 71T388 218L399 276Q402 293 403 308T404 341Q404 413 374 451T279 490Q204 490 160 437T99 290L88 232Q85 215 84 200T83 167Q83 95 113 57T208 18ZM247 742L278 757L343 597L321 587L247 742Z" />
<glyph unicode="&#xf3;" glyph-name="oacute" horiz-adv-x="487" d="M205 -12Q130 -12 90 36T49 167Q49 197 52 228T62 288Q72 339 91 381T138 455T202 503T282 520Q357 520 397 472T438 341Q438 311 435 280T425 220Q415 169 396 127T349 53T285 5T205 -12ZM208
18Q283 18 327 71T388 218L399 276Q402 293 403 308T404 341Q404 413 374 451T279 490Q204 490 160 437T99 290L88 232Q85 215 84 200T83 167Q83 95 113 57T208 18ZM296 587L276 600L399 758L426 739L296 587Z" />
<glyph unicode="&#xf4;" glyph-name="ocircumflex" horiz-adv-x="487" d="M205 -12Q130 -12 90 36T49 167Q49 197 52 228T62 288Q72 339 91 381T138 455T202 503T282 520Q357 520 397 472T438 341Q438 311 435 280T425 220Q415 169 396 127T349 53T285 5T205 -12ZM208
18Q283 18 327 71T388 218L399 276Q402 293 403 308T404 341Q404 413 374 451T279 490Q204 490 160 437T99 290L88 232Q85 215 84 200T83 167Q83 95 113 57T208 18ZM345 748L433 611L413 597L324 722L190 597L171 613L307 748H345Z" />
<glyph unicode="&#xf5;" glyph-name="otilde" horiz-adv-x="487" d="M205 -12Q130 -12 90 36T49 167Q49 197 52 228T62 288Q72 339 91 381T138 455T202 503T282 520Q357 520 397 472T438 341Q438 311 435 280T425 220Q415 169 396 127T349 53T285 5T205 -12ZM208
18Q283 18 327 71T388 218L399 276Q402 293 403 308T404 341Q404 413 374 451T279 490Q204 490 160 437T99 290L88 232Q85 215 84 200T83 167Q83 95 113 57T208 18ZM178 665Q216 707 258 707Q278 707 291 700T324 678Q342 664 354 658T381 652Q410 652 442 684L456
666Q418 624 376 624Q356 624 343 631T310 653Q292 667 280 673T253 679Q224 679 192 647L178 665Z" />
<glyph unicode="&#xf6;" glyph-name="odieresis" horiz-adv-x="487" d="M205 -12Q130 -12 90 36T49 167Q49 197 52 228T62 288Q72 339 91 381T138 455T202 503T282 520Q357 520 397 472T438 341Q438 311 435 280T425 220Q415 169 396 127T349 53T285 5T205 -12ZM208
18Q283 18 327 71T388 218L399 276Q402 293 403 308T404 341Q404 413 374 451T279 490Q204 490 160 437T99 290L88 232Q85 215 84 200T83 167Q83 95 113 57T208 18ZM230 636Q218 636 213 642T207 656Q207 665 210 674Q214 686 220 691T241 697Q253 697 258 691T264
677Q264 668 261 659Q257 647 251 642T230 636ZM395 636Q383 636 378 642T372 656Q372 665 375 674Q379 686 385 691T406 697Q418 697 423 691T429 677Q429 668 426 659Q422 647 416 642T395 636Z" />
<glyph unicode="&#xf7;" glyph-name="divide" horiz-adv-x="540" d="M64 291L70 320H496L490 291H64ZM235 77Q219 77 212 83T205 101Q205 105 206 112T209 124Q213 136 221 143T248 151Q264 151 271 145T278 127Q278 123 277 116T274 104Q270 92 262 85T235 77ZM311
460Q295 460 288 466T281 484Q281 488 282 495T285 507Q289 519 297 526T324 534Q340 534 347 528T354 510Q354 506 353 499T350 487Q346 475 338 468T311 460Z" />
<glyph unicode="&#xf8;" glyph-name="oslash" horiz-adv-x="487" d="M228 257L379 443Q349 490 279 490Q204 490 160 437T98 290Q92 255 88 224T83 178Q83 169 83 157T84 132T87 108T92 87H95L228 257ZM207 18Q282 18 326 71T388 218Q394 253 398 284T403 330Q403
339 403 351T402 376T399 400T394 421H391L258 251L107 65Q137 18 207 18ZM204 -12Q165 -12 136 1T86 40L28 -28L10 -12L71 63Q49 107 49 167Q49 229 61 288Q71 339 90 381T137 455T201 503T282 520Q321 520 350 507T400 468L458 536L476 520L415 445Q437 401 437
341Q437 311 434 280T425 220Q415 169 396 127T349 53T285 5T204 -12Z" />
<glyph unicode="&#xf9;" glyph-name="ugrave" horiz-adv-x="500" d="M165 508L101 188Q97 168 95 148T93 116Q93 18 185 18Q217 18 246 32T299 77Q317 100 332 131T358 211L418 508H452L356 30H430L424 0H351Q322 0 322 23Q322 32 325 46L337 104H330Q305 46 267
17T174 -12Q117 -12 88 20T59 112Q59 129 61 148T67 187L131 508H165ZM243 742L274 757L339 597L317 587L243 742Z" />
<glyph unicode="&#xfa;" glyph-name="uacute" horiz-adv-x="500" d="M165 508L101 188Q97 168 95 148T93 116Q93 18 185 18Q217 18 246 32T299 77Q317 100 332 131T358 211L418 508H452L356 30H430L424 0H351Q322 0 322 23Q322 32 325 46L337 104H330Q305 46 267
17T174 -12Q117 -12 88 20T59 112Q59 129 61 148T67 187L131 508H165ZM292 587L272 600L395 758L422 739L292 587Z" />
<glyph unicode="&#xfb;" glyph-name="ucircumflex" horiz-adv-x="500" d="M165 508L101 188Q97 168 95 148T93 116Q93 18 185 18Q217 18 246 32T299 77Q317 100 332 131T358 211L418 508H452L356 30H430L424 0H351Q322 0 322 23Q322 32 325 46L337 104H330Q305
46 267 17T174 -12Q117 -12 88 20T59 112Q59 129 61 148T67 187L131 508H165ZM341 748L429 611L409 597L320 722L186 597L167 613L303 748H341Z" />
<glyph unicode="&#xfc;" glyph-name="udieresis" horiz-adv-x="500" d="M165 508L101 188Q97 168 95 148T93 116Q93 18 185 18Q217 18 246 32T299 77Q317 100 332 131T358 211L418 508H452L356 30H430L424 0H351Q322 0 322 23Q322 32 325 46L337 104H330Q305 46
267 17T174 -12Q117 -12 88 20T59 112Q59 129 61 148T67 187L131 508H165ZM226 636Q214 636 209 642T203 656Q203 665 206 674Q210 686 216 691T237 697Q249 697 254 691T260 677Q260 668 257 659Q253 647 247 642T226 636ZM391 636Q379 636 374 642T368 656Q368
665 371 674Q375 686 381 691T402 697Q414 697 419 691T425 677Q425 668 422 659Q418 647 412 642T391 636Z" />
<glyph unicode="&#xfd;" glyph-name="yacute" horiz-adv-x="423" d="M410 508H446L93 -171Q85 -188 76 -194T49 -200H-23L-17 -170H59L140 -13L69 508H103L137 243L162 30H168L274 243L410 508ZM517 587L497 600L620 758L647 739L517 587Z" />
<glyph unicode="&#xfe;" glyph-name="thorn" horiz-adv-x="508" d="M188 740H221L152 397H159Q182 454 219 487T311 520Q347 520 375 507T421 470T449 413T459 340Q459 310 456 280T446 220Q436 169 417 127T371 53T307 5T227 -12Q173 -12 141 15T98 90H91L33
-200H-1L188 740ZM227 18Q304 18 347 71T409 218L420 274Q423 290 424 305T425 340Q425 373 418 400T396 448T358 479T304 490Q276 490 254 480T209 447Q184 422 163 383T132 297L105 160Q100 137 105 112T126 66T167 32T227 18Z" />
<glyph unicode="&#xff;" glyph-name="ydieresis" horiz-adv-x="423" d="M410 508H446L93 -171Q85 -188 76 -194T49 -200H-23L-17 -170H59L140 -13L69 508H103L137 243L162 30H168L274 243L410 508ZM451 636Q439 636 434 642T428 656Q428 665 431 674Q435 686 441
691T462 697Q474 697 479 691T485 677Q485 668 482 659Q478 647 472 642T451 636ZM616 636Q604 636 599 642T593 656Q593 665 596 674Q600 686 606 691T627 697Q639 697 644 691T650 677Q650 668 647 659Q643 647 637 642T616 636Z" />
<glyph unicode="&#x2013;" glyph-name="endash" horiz-adv-x="512" d="M33 289L39 320H498L492 289H33Z" />
<glyph unicode="&#x2014;" glyph-name="emdash" horiz-adv-x="682" d="M33 289L39 320H669L663 289H33Z" />
<glyph unicode="&#x2018;" glyph-name="quoteleft" horiz-adv-x="224" d="M166 533Q150 533 144 540T137 557Q137 567 141 580Q147 598 156 620T178 663T207 705T242 740H272Q233 705 211 669T179 603Q194 603 200 597T207 582Q207 577 206 571T203 560Q200 549
192 541T166 533Z" />
<glyph unicode="&#x2019;" glyph-name="quoteright" horiz-adv-x="224" d="M212 742Q228 742 234 735T241 718Q241 708 237 695Q231 677 222 655T200 612T171 570T136 535H106Q145 570 167 606T199 672Q184 672 178 678T171 693Q171 698 172 704T175 715Q178 726
186 734T212 742Z" />
<glyph unicode="&#x201a;" glyph-name="quotesinglbase" horiz-adv-x="223" d="M75 78Q91 78 97 71T104 54Q104 44 100 31Q94 13 85 -9T63 -52T34 -94T-1 -129H-31Q8 -94 30 -58T62 8Q47 8 41 14T34 29Q34 34 35 40T38 51Q41 62 49 70T75 78Z" />
<glyph unicode="&#x201c;" glyph-name="quotedblleft" horiz-adv-x="378" d="M166 533Q150 533 144 540T137 557Q137 567 141 580Q147 598 156 620T178 663T207 705T242 740H272Q233 705 211 669T179 603Q194 603 200 597T207 582Q207 577 206 571T203 560Q200
549 192 541T166 533ZM320 533Q304 533 298 540T291 557Q291 567 295 580Q301 598 310 620T332 663T361 705T396 740H426Q387 705 365 669T333 603Q348 603 354 597T361 582Q361 577 360 571T357 560Q354 549 346 541T320 533Z" />
<glyph unicode="&#x201d;" glyph-name="quotedblright" horiz-adv-x="377" d="M212 742Q228 742 234 735T241 718Q241 708 237 695Q231 677 222 655T200 612T171 570T136 535H106Q145 570 167 606T199 672Q184 672 178 678T171 693Q171 698 172 704T175 715Q178
726 186 734T212 742ZM365 742Q381 742 387 735T394 718Q394 708 390 695Q384 677 375 655T353 612T324 570T289 535H259Q298 570 320 606T352 672Q337 672 331 678T324 693Q324 698 325 704T328 715Q331 726 339 734T365 742Z" />
<glyph unicode="&#x201e;" glyph-name="quotedblbase" horiz-adv-x="377" d="M75 78Q91 78 97 71T104 54Q104 44 100 31Q94 13 85 -9T63 -52T34 -94T-1 -129H-31Q8 -94 30 -58T62 8Q47 8 41 14T34 29Q34 34 35 40T38 51Q41 62 49 70T75 78ZM229 78Q245 78 251
71T258 54Q258 44 254 31Q248 13 239 -9T217 -52T188 -94T153 -129H123Q162 -94 184 -58T216 8Q201 8 195 14T188 29Q188 34 189 40T192 51Q195 62 203 70T229 78Z" />
<glyph unicode="&#x2022;" glyph-name="bullet" horiz-adv-x="349" d="M171 213Q129 213 112 230T94 274Q94 279 95 290T101 319Q109 353 130 374T198 395Q240 395 257 378T275 334Q275 329 274 318T268 289Q260 255 239 234T171 213Z" />
<glyph unicode="&#x2039;" glyph-name="guilsinglleft" horiz-adv-x="261" d="M180 100L40 277L46 308L238 483L250 458L75 292V287L198 118L180 100Z" />
<glyph unicode="&#x203a;" glyph-name="guilsinglright" horiz-adv-x="261" d="M26 125L201 291V296L78 465L96 483L236 306L230 275L38 100L26 125Z" />
</font>
</defs>
</svg>
