<?xml version="1.0" standalone="no"?>
<!DOCTYPE svg PUBLIC "-//W3C//DTD SVG 1.1//EN" "http://www.w3.org/Graphics/SVG/1.1/DTD/svg11.dtd">
<svg xmlns="http://www.w3.org/2000/svg">
<defs >
<font id="IBMPlexSansCondensed" horiz-adv-x="519" ><font-face
    font-family="IBM Plex Sans Condensed Light"
    units-per-em="1000"
    panose-1="2 11 4 6 5 2 3 0 2 3"
    ascent="1025"
    descent="-275"
    alphabetic="0" />
<glyph unicode=" " glyph-name="space" horiz-adv-x="212" />
<glyph unicode="!" glyph-name="exclam" horiz-adv-x="246" d="M109 180L93 463V698H153V463L137 180H109ZM123 -9Q77 -9 77 31V44Q77 84 123 84Q169 84 169 44V31Q169 -9 123 -9Z" />
<glyph unicode="&quot;" glyph-name="quotedbl" horiz-adv-x="364" d="M81 474V740H130V474H81ZM234 474V740H283V474H234Z" />
<glyph unicode="#" glyph-name="numbersign" horiz-adv-x="639" d="M372 212H220L188 0H145L177 212H56V251H184L214 447H91V486H221L253 698H296L264 486H415L448 698H491L458 486H580V447H452L422 251H545V212H415L383 0H340L372 212ZM379 251L409 447H257L227
251H379Z" />
<glyph unicode="$" glyph-name="dollar" horiz-adv-x="521" d="M472 192Q472 101 424 53T287 -1V-82H241V-1Q117 8 43 110L84 146Q142 56 243 48V339Q193 346 159 361T103 400T72 454T62 523Q62 606 109 650T241 699V780H287V699Q405 691 463 599L423 568Q377
642 286 650V382Q387 365 429 318T472 192ZM116 528Q116 467 146 435T243 392V650Q181 645 149 615T116 528ZM418 189Q418 248 390 281T286 329V48Q351 53 384 88T418 189Z" />
<glyph unicode="%" glyph-name="percent" horiz-adv-x="821" d="M166 0L602 698H655L219 0H166ZM199 318Q133 318 97 364T61 514Q61 618 97 664T199 710Q265 710 301 664T337 514Q337 410 301 364T199 318ZM199 355Q242 355 264 385T287 481V547Q287 613 265 643T199
673Q156 673 134 643T111 547V481Q111 415 133 385T199 355ZM622 -12Q556 -12 520 34T484 184Q484 288 520 334T622 380Q688 380 724 334T760 184Q760 80 724 34T622 -12ZM622 25Q665 25 687 55T710 151V217Q710 283 688 313T622 343Q579 343 557 313T534 217V151Q534
85 556 55T622 25Z" />
<glyph unicode="&amp;" glyph-name="ampersand" horiz-adv-x="620" d="M434 108H425Q392 -12 254 -12Q161 -12 113 37T64 174Q64 304 201 376Q113 478 113 559Q113 632 154 671T269 710Q342 710 383 671T425 559Q425 454 276 367L437 176Q451 215 458 262T467
360H581V313H512Q507 264 497 221T471 142L593 0H522L434 108ZM269 664Q221 664 194 639T167 568V550Q167 491 246 398Q371 466 371 551V568Q371 614 344 639T269 664ZM259 35Q357 35 412 129L230 344Q120 285 120 188V161Q120 101 158 68T259 35Z" />
<glyph unicode="&apos;" glyph-name="quotesingle" horiz-adv-x="211" d="M81 474V740H130V474H81Z" />
<glyph unicode="(" glyph-name="parenleft" horiz-adv-x="301" d="M80 311Q80 601 244 760H298Q215 679 175 578T134 358V264Q134 145 174 44T298 -138H244Q80 21 80 311Z" />
<glyph unicode=")" glyph-name="parenright" horiz-adv-x="301" d="M221 311Q221 21 57 -138H3Q86 -57 126 44T167 264V358Q167 477 127 578T3 760H57Q221 601 221 311Z" />
<glyph unicode="*" glyph-name="asterisk" horiz-adv-x="381" d="M272 420L194 543H187L109 420L68 450L161 562L159 567L19 605L34 652L169 598L174 602L165 747H216L207 602L212 598L347 652L362 605L222 567L220 562L313 450L272 420Z" />
<glyph unicode="+" glyph-name="plus" horiz-adv-x="540" d="M244 88V282H58V328H244V522H296V328H482V282H296V88H244Z" />
<glyph unicode="," glyph-name="comma" horiz-adv-x="236" d="M118 85Q164 85 164 44V31Q164 -11 142 -57T84 -138H39Q68 -105 84 -74T106 -8Q72 -2 72 31V44Q72 85 118 85Z" />
<glyph unicode="-" glyph-name="hyphen" horiz-adv-x="360" d="M66 275V333H294V275H66Z" />
<glyph unicode="." glyph-name="period" horiz-adv-x="236" d="M118 -9Q72 -9 72 31V44Q72 84 118 84Q164 84 164 44V31Q164 -9 118 -9Z" />
<glyph unicode="/" glyph-name="slash" horiz-adv-x="324" d="M10 -151L238 740H286L58 -151H10Z" />
<glyph unicode="0" glyph-name="zero" horiz-adv-x="540" d="M270 -12Q217 -12 177 7T111 68T71 180T57 349Q57 449 70 517T110 629T177 691T270 710Q323 710 363 691T429 629T469 518T483 349Q483 249 470 180T430 69T363 7T270 -12ZM270 38Q349 38 386 97T423
273V425Q423 541 386 600T270 660Q191 660 154 601T117 425V273Q117 157 154 98T270 38Z" />
<glyph unicode="1" glyph-name="one" horiz-adv-x="540" d="M81 0V49H265V645L76 523L51 563L258 698H321V49H492V0H81Z" />
<glyph unicode="2" glyph-name="two" horiz-adv-x="540" d="M476 0H71V58L295 299Q343 350 366 396T390 491V523Q390 588 360 624T265 660Q203 660 169 628T120 540L70 559Q79 592 95 619T135 667T192 698T266 710Q360 710 405 660T450 513Q450 478 444 448T423
389T386 330T329 263L133 49H476V0Z" />
<glyph unicode="3" glyph-name="three" horiz-adv-x="540" d="M241 391Q306 391 342 425T378 516V538Q378 599 344 629T253 660Q158 660 114 568L72 598Q125 710 256 710Q297 710 330 700T388 667T425 613T438 535Q438 499 429 471T402 422T362 389T312 371V363Q342
360 367 348T411 315T440 262T451 188Q451 92 398 40T247 -12Q117 -12 47 100L90 132Q148 38 246 38Q315 38 353 74T391 179V201Q391 269 353 305T246 342H167V391H241Z" />
<glyph unicode="4" glyph-name="four" horiz-adv-x="540" d="M348 0V146H37V197L317 698H403V194H499V146H403V0H348ZM91 194H348V651H340L91 194Z" />
<glyph unicode="5" glyph-name="five" horiz-adv-x="540" d="M444 648H162L143 347H151Q168 385 201 405T287 426Q372 426 421 373T470 213Q470 102 417 45T267 -12Q197 -12 149 18T71 101L115 133Q141 86 176 62T267 38Q337 38 373 79T410 194V220Q410 293 374
334T267 376Q225 376 195 359T143 311L93 318L116 698H444V648Z" />
<glyph unicode="6" glyph-name="six" horiz-adv-x="540" d="M270 -12Q173 -12 119 49T65 239Q65 535 299 698H374Q321 659 281 619T210 535T159 440T127 328H134Q151 374 189 401T287 428Q375 428 425 374T475 212Q475 105 423 47T270 -12ZM270 39Q340 39 377
80T415 196V221Q415 295 378 336T270 378Q200 378 163 337T125 221V196Q125 122 162 81T270 39Z" />
<glyph unicode="7" glyph-name="seven" horiz-adv-x="540" d="M161 0L412 649H116V504H64V698H470V648L223 0H161Z" />
<glyph unicode="8" glyph-name="eight" horiz-adv-x="540" d="M270 -12Q166 -12 111 40T56 186Q56 266 95 310T194 362V371Q143 381 110 422T76 536Q76 624 127 667T270 710Q362 710 413 667T464 536Q464 464 431 423T346 371V362Q405 354 444 310T484 186Q484
92 429 40T270 -12ZM270 39Q342 39 382 75T423 176V206Q423 271 383 307T270 343Q198 343 158 307T117 206V176Q117 111 157 75T270 39ZM270 391Q335 391 369 422T404 513V538Q404 597 370 628T270 660Q205 660 171 629T136 538V513Q136 454 170 423T270 391Z"
/>
<glyph unicode="9" glyph-name="nine" horiz-adv-x="540" d="M475 459Q475 163 241 0H166Q218 39 259 79T330 163T381 257T413 370H406Q389 324 351 297T253 270Q165 270 115 324T65 486Q65 593 117 651T270 710Q367 710 421 649T475 459ZM270 320Q340 320 377
361T415 477V502Q415 576 378 617T270 659Q200 659 163 618T125 502V477Q125 403 162 362T270 320Z" />
<glyph unicode=":" glyph-name="colon" horiz-adv-x="248" d="M124 -9Q78 -9 78 31V44Q78 84 124 84Q170 84 170 44V31Q170 -9 124 -9ZM124 417Q78 417 78 457V470Q78 510 124 510Q170 510 170 470V457Q170 417 124 417Z" />
<glyph unicode=";" glyph-name="semicolon" horiz-adv-x="248" d="M124 85Q170 85 170 44V31Q170 -11 148 -57T90 -138H45Q74 -105 90 -74T112 -8Q78 -2 78 31V44Q78 85 124 85ZM124 417Q78 417 78 457V470Q78 510 124 510Q170 510 170 470V457Q170 417 124 417Z" />
<glyph unicode="&lt;" glyph-name="less" horiz-adv-x="540" d="M80 259V315L460 566V508L131 291V282L460 66V8L80 259Z" />
<glyph unicode="=" glyph-name="equal" horiz-adv-x="540" d="M58 378V424H482V378H58ZM58 187V233H482V187H58Z" />
<glyph unicode="&gt;" glyph-name="greater" horiz-adv-x="540" d="M80 66L409 282V291L80 508V566L460 315V259L80 8V66Z" />
<glyph unicode="?" glyph-name="question" horiz-adv-x="423" d="M167 195V363Q248 367 290 405T333 512V535Q333 593 301 626T213 660Q105 660 76 536L26 554Q64 711 214 711Q391 711 391 526Q391 352 220 322V195H167ZM192 -9Q146 -9 146 31V44Q146 84 192 84Q238
84 238 44V31Q238 -9 192 -9Z" />
<glyph unicode="@" glyph-name="at" horiz-adv-x="799" d="M610 -120H400Q322 -120 259 -93T151 -13T82 117T57 293Q57 390 81 467T151 599T261 681T406 710Q484 710 546 685T652 611T718 490T741 325Q741 69 591 69Q546 69 522 89T493 145H485Q477 112 450 91T382
69Q347 69 319 82T271 122T239 190T228 290Q228 405 270 458T382 511Q423 511 450 489T485 434H493V501H545V183Q545 144 559 127T599 110Q644 110 669 160T694 301V361Q694 433 673 490T613 587T522 649T405 671Q337 671 282 646T187 577T127 470T106 332V258Q106
183 127 121T187 14T281 -56T405 -81H610V-120ZM393 115Q440 115 466 144T493 226V358Q493 404 467 434T393 464Q337 464 311 427T285 324V255Q285 190 311 153T393 115Z" />
<glyph unicode="A" glyph-name="A" horiz-adv-x="565" d="M482 0L414 219H149L82 0H23L244 698H320L541 0H482ZM317 535L285 647H278L245 535L163 266H401L317 535Z" />
<glyph unicode="B" glyph-name="B" horiz-adv-x="576" d="M88 698H340Q414 698 454 656T495 522Q495 388 393 372V363Q519 354 519 197Q519 102 477 51T362 0H88V698ZM146 51H347Q403 51 430 82T457 171V218Q457 275 430 306T347 338H146V51ZM146 389H333Q384
389 408 416T433 494V542Q433 592 409 619T333 647H146V389Z" />
<glyph unicode="C" glyph-name="C" horiz-adv-x="556" d="M303 -12Q246 -12 201 8T123 71T73 182T56 349Q56 446 73 515T122 627T200 690T303 710Q387 710 436 674T514 566L467 538Q447 598 409 628T303 658Q215 658 167 596T118 412V286Q118 165 166 103T303
40Q375 40 413 72T472 167L518 140Q491 66 440 27T303 -12Z" />
<glyph unicode="D" glyph-name="D" horiz-adv-x="602" d="M88 698H297Q418 698 482 614T546 349Q546 167 482 84T297 0H88V698ZM298 51Q388 51 436 113T484 286V412Q484 523 436 585T298 647H146V51H298Z" />
<glyph unicode="E" glyph-name="E" horiz-adv-x="518" d="M88 0V698H458V647H146V380H442V329H146V51H458V0H88Z" />
<glyph unicode="F" glyph-name="F" horiz-adv-x="496" d="M88 0V698H450V647H146V380H428V329H146V0H88Z" />
<glyph unicode="G" glyph-name="G" horiz-adv-x="616" d="M496 104H488Q474 52 430 20T306 -12Q250 -12 204 8T125 71T74 182T56 349Q56 446 74 515T125 627T206 690T314 710Q404 710 457 672T539 566L491 538Q469 595 426 627T314 659Q221 659 170 596T118 412V286Q118
165 169 102T314 39Q354 39 387 51T444 85T481 140T494 213V297H348V348H550V0H496V104Z" />
<glyph unicode="H" glyph-name="H" horiz-adv-x="632" d="M485 329H146V0H88V698H146V380H485V698H543V0H485V329Z" />
<glyph unicode="I" glyph-name="I" horiz-adv-x="352" d="M56 0V48H147V650H56V698H296V650H205V48H296V0H56Z" />
<glyph unicode="J" glyph-name="J" horiz-adv-x="445" d="M364 698V162Q364 79 317 34T192 -12Q117 -12 77 26T22 130L74 143Q97 40 192 40Q247 40 276 73T306 171V647H88V698H364Z" />
<glyph unicode="K" glyph-name="K" horiz-adv-x="552" d="M248 362L146 234V0H88V698H146V454L142 302H150L263 454L454 698H520L285 401L531 0H463L248 362Z" />
<glyph unicode="L" glyph-name="L" horiz-adv-x="443" d="M88 0V698H146V51H421V0H88Z" />
<glyph unicode="M" glyph-name="M" horiz-adv-x="725" d="M581 490L586 630H578L511 490L363 196L215 490L147 628H140L144 490V0H88V698H167L299 431L360 290H365L427 431L558 698H637V0H581V490Z" />
<glyph unicode="N" glyph-name="N" horiz-adv-x="632" d="M221 474L147 629H140L144 474V0H88V698H163L411 224L485 69H492L488 224V698H544V0H469L221 474Z" />
<glyph unicode="O" glyph-name="O" horiz-adv-x="629" d="M314 -12Q254 -12 206 8T125 71T74 182T56 349Q56 446 74 515T125 627T206 690T314 710Q374 710 422 690T503 627T554 515T572 349Q572 251 554 183T503 71T422 8T314 -12ZM314 40Q408 40 459 102T510
286V412Q510 533 459 595T314 658Q220 658 169 596T118 412V286Q118 165 169 103T314 40Z" />
<glyph unicode="P" glyph-name="P" horiz-adv-x="543" d="M88 0V698H342Q506 698 506 503Q506 308 342 308H146V0H88ZM146 359H340Q394 359 419 388T445 471V535Q445 588 420 617T340 647H146V359Z" />
<glyph unicode="Q" glyph-name="Q" horiz-adv-x="629" d="M440 -156H349Q319 -156 305 -141T290 -99V-11Q235 -7 192 15T118 80T72 190T56 349Q56 446 74 515T125 627T206 690T314 710Q374 710 422 690T503 627T554 515T572 349Q572 257 557 192T512 83T440 18T345
-10V-108H440V-156ZM314 40Q408 40 459 102T510 286V412Q510 533 459 595T314 658Q220 658 169 596T118 412V286Q118 165 169 103T314 40Z" />
<glyph unicode="R" glyph-name="R" horiz-adv-x="574" d="M146 0H88V698H342Q506 698 506 504Q506 326 368 311L522 0H458L311 310H146V0ZM340 359Q444 359 444 471V535Q444 647 340 647H146V359H340Z" />
<glyph unicode="S" glyph-name="S" horiz-adv-x="513" d="M256 -12Q179 -12 126 19T37 105L80 139Q112 91 153 65T256 38Q331 38 370 74T410 184Q410 244 380 276T282 325L226 339Q182 350 150 365T96 403T65 456T55 526Q55 619 111 664T260 710Q333 710 379 684T459
605L416 574Q388 617 353 638T258 660Q188 660 150 629T111 526Q111 468 141 439T238 393L294 379Q340 368 372 352T426 313T456 258T466 185Q466 86 411 37T256 -12Z" />
<glyph unicode="T" glyph-name="T" horiz-adv-x="511" d="M285 647V0H227V647H19V698H493V647H285Z" />
<glyph unicode="U" glyph-name="U" horiz-adv-x="602" d="M141 698V248Q141 194 149 155T175 90T224 52T301 40Q347 40 377 52T426 89T453 154T461 248V698H519V257Q519 186 508 136T471 52T404 4T301 -12Q240 -12 199 3T132 52T95 135T83 257V698H141Z" />
<glyph unicode="V" glyph-name="V" horiz-adv-x="535" d="M230 0L22 698H83L218 243L265 51H272L319 243L454 698H513L306 0H230Z" />
<glyph unicode="W" glyph-name="W" horiz-adv-x="799" d="M179 0L22 698H82L180 243L215 57H223L259 243L360 698H440L542 243L578 57H585L620 243L719 698H777L617 0H542L439 455L403 648H395L360 455L254 0H179Z" />
<glyph unicode="X" glyph-name="X" horiz-adv-x="535" d="M512 0H445L271 305H262L86 0H23L232 355L30 698H97L264 406H272L442 698H506L303 358L512 0Z" />
<glyph unicode="Y" glyph-name="Y" horiz-adv-x="518" d="M230 0V283L14 698H79L255 350H264L440 698H504L288 283V0H230Z" />
<glyph unicode="Z" glyph-name="Z" horiz-adv-x="515" d="M485 0H34V53L407 647H51V698H470V646L96 51H485V0Z" />
<glyph unicode="[" glyph-name="bracketleft" horiz-adv-x="280" d="M88 -138V760H224V716H137V-94H224V-138H88Z" />
<glyph unicode="\" glyph-name="backslash" horiz-adv-x="324" d="M266 -151L38 740H86L314 -151H266Z" />
<glyph unicode="]" glyph-name="bracketright" horiz-adv-x="280" d="M193 760V-138H57V-94H144V716H57V760H193Z" />
<glyph unicode="^" glyph-name="asciicircum" horiz-adv-x="540" d="M447 307L274 648H266L93 307L50 328L239 698H301L491 328L447 307Z" />
<glyph unicode="_" glyph-name="underscore" horiz-adv-x="510" d="M27 -154V-106H483V-154H27Z" />
<glyph unicode="`" glyph-name="grave" horiz-adv-x="540" d="M172 741L221 768L307 605L271 586L172 741Z" />
<glyph unicode="a" glyph-name="a" horiz-adv-x="477" d="M392 0Q337 0 337 54V82H329Q316 37 281 13T193 -12Q121 -12 83 24T45 135Q45 208 90 247T226 286H337V354Q337 419 309 447T222 475Q177 475 147 455T98 392L62 423Q82 468 122 496T224 524Q307 524 349
483T392 360V48H453V0H392ZM205 36Q233 36 257 44T299 69T327 106T337 154V244H225Q165 244 134 221T102 155V123Q102 80 130 58T205 36Z" />
<glyph unicode="b" glyph-name="b" horiz-adv-x="518" d="M83 740H138V431H147Q161 478 196 501T282 524Q375 524 423 456T471 256Q471 125 423 57T282 -12Q231 -12 196 11T147 81H138V0H83V740ZM268 37Q338 37 375 83T412 211V301Q412 383 375 429T268 475Q241
475 218 467T176 444T148 408T138 361V151Q138 125 148 104T176 68T217 45T268 37Z" />
<glyph unicode="c" glyph-name="c" horiz-adv-x="448" d="M245 -12Q151 -12 99 51T46 256Q46 398 98 461T245 524Q311 524 352 494T414 414L368 391Q352 433 323 454T245 475Q175 475 140 431T105 301V211Q105 126 140 82T245 37Q296 37 328 59T379 125L420 97Q397
47 354 18T245 -12Z" />
<glyph unicode="d" glyph-name="d" horiz-adv-x="518" d="M381 81H372Q358 34 323 11T237 -12Q144 -12 96 56T48 256Q48 387 96 455T237 524Q288 524 323 501T372 431H381V740H436V0H381V81ZM251 37Q278 37 301 45T343 68T371 104T381 151V361Q381 387 371 408T343
444T302 467T251 475Q181 475 144 429T107 301V211Q107 129 144 83T251 37Z" />
<glyph unicode="e" glyph-name="e" horiz-adv-x="489" d="M249 -12Q204 -12 167 3T102 51T61 134T46 256Q46 327 60 377T102 460T166 508T249 524Q340 524 391 461T443 261V246H105V211Q105 126 142 82T249 37Q306 37 340 62T395 139L433 113Q411 54 367 21T249
-12ZM249 477Q180 477 143 432T105 301V288H384V301Q384 386 351 431T249 477Z" />
<glyph unicode="f" glyph-name="f" horiz-adv-x="280" d="M105 464H26V512H105V670Q105 707 121 723T175 740H260V692H160V512H260V464H160V0H105V464Z" />
<glyph unicode="g" glyph-name="g" horiz-adv-x="476" d="M463 -60Q463 -141 409 -176T240 -212Q132 -212 86 -179T40 -82Q40 -37 62 -12T120 21V32Q76 51 76 101Q76 133 96 156T153 183V192Q114 211 92 250T70 349Q70 436 115 480T239 524Q290 524 331 502V532Q331
555 340 564T373 574H452V526H359V482Q382 460 395 427T408 349Q408 262 363 219T239 175Q214 175 189 180Q157 172 140 155T123 115Q123 92 138 80T190 68H307Q391 68 427 36T463 -60ZM411 -63Q411 -24 388 -4T305 17H154Q91 -9 91 -71Q91 -116 120 -141T210 -166H269Q338
-166 374 -142T411 -63ZM239 220Q293 220 322 248T352 329V370Q352 422 323 450T239 479Q185 479 156 451T126 370V329Q126 277 155 249T239 220Z" />
<glyph unicode="h" glyph-name="h" horiz-adv-x="508" d="M83 740H138V431H146Q160 475 194 499T284 524Q354 524 393 479T432 342V0H377V339Q377 404 349 439T264 475Q238 475 215 467T175 444T148 406T138 355V0H83V740Z" />
<glyph unicode="i" glyph-name="i" horiz-adv-x="221" d="M111 653Q91 653 83 662T74 686V700Q74 715 82 724T111 733Q131 733 139 724T148 700V686Q148 671 140 662T111 653ZM83 512H138V0H83V512Z" />
<glyph unicode="j" glyph-name="j" horiz-adv-x="221" d="M83 512H138V-130Q138 -167 122 -183T67 -200H7V-152H83V512ZM111 653Q91 653 83 662T74 686V700Q74 715 82 724T111 733Q131 733 139 724T148 700V686Q148 671 140 662T111 653Z" />
<glyph unicode="k" glyph-name="k" horiz-adv-x="463" d="M83 740H138V340L134 245H140L212 334L363 512H429L250 303L448 0H382L210 270L138 188V0H83V740Z" />
<glyph unicode="l" glyph-name="l" horiz-adv-x="239" d="M141 0Q110 0 97 13T83 58V740H138V48H207V0H141Z" />
<glyph unicode="m" glyph-name="m" horiz-adv-x="789" d="M83 0V512H138V431H146Q160 475 192 499T278 524Q328 524 362 500T412 426H422Q436 474 473 499T565 524Q633 524 672 479T712 342V0H657V339Q657 404 629 439T547 475Q496 475 461 444T425 355V0H370V339Q370
404 342 439T260 475Q209 475 174 444T138 355V0H83Z" />
<glyph unicode="n" glyph-name="n" horiz-adv-x="508" d="M83 0V512H138V431H146Q160 475 194 499T284 524Q354 524 393 479T432 342V0H377V339Q377 404 349 439T264 475Q238 475 215 467T175 444T148 406T138 355V0H83Z" />
<glyph unicode="o" glyph-name="o" horiz-adv-x="498" d="M249 -12Q204 -12 167 3T102 51T61 134T46 256Q46 327 60 377T102 460T166 508T249 524Q294 524 331 509T396 461T437 378T452 256Q452 185 438 135T396 52T332 4T249 -12ZM249 37Q318 37 355 81T393 211V301Q393
386 356 430T249 475Q180 475 143 431T105 301V211Q105 126 142 82T249 37Z" />
<glyph unicode="p" glyph-name="p" horiz-adv-x="518" d="M83 512H138V430H147Q161 477 195 500T281 524Q375 524 423 456T471 256Q471 125 423 57T281 -12Q230 -12 196 11T147 81H138V-200H83V512ZM268 37Q338 37 375 83T412 211V301Q412 383 375 429T268 475Q241
475 218 467T176 444T148 408T138 361V151Q138 125 148 104T176 68T217 45T268 37Z" />
<glyph unicode="q" glyph-name="q" horiz-adv-x="518" d="M380 81H371Q357 34 323 11T237 -12Q143 -12 95 56T47 256Q47 387 95 455T237 524Q288 524 322 501T371 430H380V512H435V-200H380V81ZM250 37Q277 37 300 45T342 68T370 104T380 151V361Q380 387 370
408T342 444T301 467T250 475Q180 475 143 429T106 301V211Q106 129 143 83T250 37Z" />
<glyph unicode="r" glyph-name="r" horiz-adv-x="323" d="M83 0V512H138V419H146Q160 462 193 487T277 512H309V458H263Q208 458 173 428T138 345V0H83Z" />
<glyph unicode="s" glyph-name="s" horiz-adv-x="430" d="M215 -12Q155 -12 112 11T37 83L76 115Q104 73 137 55T215 36Q266 36 296 61T326 134Q326 176 306 199T234 232L194 239Q124 251 89 283T53 382Q53 455 97 489T211 524Q264 524 303 506T371 447L335 414Q289
476 212 476Q161 476 134 453T107 384Q107 339 129 318T202 288L241 281Q314 268 347 235T380 139Q380 67 337 28T215 -12Z" />
<glyph unicode="t" glyph-name="t" horiz-adv-x="303" d="M164 0Q133 0 119 13T105 58V464H26V512H79Q98 512 104 521T110 550V655H160V512H262V464H160V48H257V0H164Z" />
<glyph unicode="u" glyph-name="u" horiz-adv-x="508" d="M374 81H366Q352 37 318 13T228 -12Q157 -12 119 33T80 170V512H135V173Q135 108 163 73T248 37Q274 37 297 45T337 68T364 106T374 157V512H429V0H374V81Z" />
<glyph unicode="v" glyph-name="v" horiz-adv-x="431" d="M182 0L18 512H73L162 228L212 48H220L270 228L359 512H413L250 0H182Z" />
<glyph unicode="w" glyph-name="w" horiz-adv-x="681" d="M29 512H82L146 250L190 49H197L245 250L308 512H376L440 250L488 49H495L539 250L603 512H655L527 0H455L384 278L346 457H338L299 278L229 0H156L29 512Z" />
<glyph unicode="x" glyph-name="x" horiz-adv-x="445" d="M23 0L193 260L30 512H91L220 307H228L359 512H419L256 262L423 0H361L228 215H220L83 0H23Z" />
<glyph unicode="y" glyph-name="y" horiz-adv-x="434" d="M359 512H413L201 -151Q192 -180 179 -190T135 -200H68V-152H151L189 -24L18 512H73L162 228L212 48H220L270 228L359 512Z" />
<glyph unicode="z" glyph-name="z" horiz-adv-x="404" d="M28 0V44L307 464H36V512H370V469L92 48H378V0H28Z" />
<glyph unicode="{" glyph-name="braceleft" horiz-adv-x="300" d="M156 -138Q130 -138 119 -127T108 -90V204Q108 242 86 261T24 280V342Q63 342 85 361T108 418V712Q108 738 119 749T156 760H244V716H157V418Q157 375 131 346T59 317V305Q104 305 130 276T157
204V-94H244V-138H156Z" />
<glyph unicode="|" glyph-name="bar" horiz-adv-x="260" d="M107 -138V760H153V-138H107Z" />
<glyph unicode="}" glyph-name="braceright" horiz-adv-x="300" d="M129 760Q155 760 166 749T177 712V418Q177 380 199 361T261 342V280Q222 280 200 261T177 204V-90Q177 -116 166 -127T129 -138H41V-94H128V204Q128 247 154 276T226 305V317Q181 317 155 346T128
418V716H41V760H129Z" />
<glyph unicode="~" glyph-name="asciitilde" horiz-adv-x="540" d="M379 244Q348 244 323 253T262 281Q233 297 207 307T158 317Q133 317 116 309T79 282L54 313Q74 339 99 352T161 365Q192 365 217 356T278 328Q307 312 333 302T382 292Q407 292 424 300T461
327L486 296Q466 270 441 257T379 244Z" />
<glyph unicode="&#xa0;" glyph-name="uni00A0" horiz-adv-x="212" />
<glyph unicode="&#xa1;" glyph-name="exclamdown" horiz-adv-x="246" d="M93 -186V49L109 332H137L153 49V-186H93ZM123 428Q77 428 77 468V481Q77 521 123 521Q169 521 169 481V468Q169 428 123 428Z" />
<glyph unicode="&#xa2;" glyph-name="cent" horiz-adv-x="458" d="M217 -114V-11Q136 -2 91 61T46 256Q46 387 91 450T217 523V626H264V523Q322 518 358 489T414 414L368 391Q354 429 329 449T263 474V38Q306 42 333 63T379 125L420 97Q398 51 360 22T264 -11V-114H217ZM105
211Q105 135 133 91T219 39V473Q162 465 134 421T105 301V211Z" />
<glyph unicode="&#xa3;" glyph-name="sterling" horiz-adv-x="530" d="M74 0V66Q111 88 129 126T147 228Q147 246 145 262T139 296H56V344H125Q114 380 104 418T93 503Q93 605 144 657T290 710Q360 710 404 683T476 605L433 575Q410 615 377 637T290 660Q222 660
187 623T152 499Q152 454 161 417T182 344H374V296H195Q203 262 203 230Q203 164 178 120T111 58V51H464V0H74Z" />
<glyph unicode="&#xa5;" glyph-name="yen" horiz-adv-x="537" d="M297 155V0H239V155H75V201H239V316H75V362H212L36 698H101L265 375H273L437 698H501L325 362H461V316H297V201H461V155H297Z" />
<glyph unicode="&#xa6;" glyph-name="brokenbar" horiz-adv-x="260" d="M107 404V760H153V404H107ZM107 -138V218H153V-138H107Z" />
<glyph unicode="&#xa7;" glyph-name="section" d="M418 -4Q418 -155 248 -155Q156 -155 100 -102L132 -63Q178 -107 249 -107Q365 -107 365 -4Q365 69 265 105L207 126Q133 153 102 188T71 282Q71 333 97 370T169 424V433Q139 453 121 483T102 559Q102 710 272
710Q364 710 420 657L388 618Q342 662 271 662Q155 662 155 559Q155 485 255 450L313 429Q388 403 418 367T449 273Q449 222 423 185T351 131V123Q381 103 399 72T418 -4ZM395 261Q395 310 372 338T287 386L229 405Q220 408 213 411T197 418Q125 373 125 294Q125
269 130 251T148 217T181 191T233 169L291 150Q300 147 307 144T323 137Q356 158 375 187T395 261Z" />
<glyph unicode="&#xa8;" glyph-name="dieresis" horiz-adv-x="540" d="M186 629Q166 629 157 638T147 661V675Q147 689 156 698T186 707Q206 707 215 698T225 675V661Q225 647 216 638T186 629ZM354 629Q334 629 325 638T315 661V675Q315 689 324 698T354 707Q374
707 383 698T393 675V661Q393 647 384 638T354 629Z" />
<glyph unicode="&#xa9;" glyph-name="copyright" horiz-adv-x="677" d="M339 -12Q273 -12 218 11T123 81T61 194T38 349Q38 436 60 503T122 617T217 686T339 710Q405 710 460 687T555 617T617 504T640 349Q640 262 618 195T556 81T461 12T339 -12ZM339 30Q396
30 442 50T521 108T572 198T590 312V386Q590 448 572 500T522 589T443 647T339 668Q282 668 236 648T157 590T106 500T88 386V312Q88 250 106 198T156 109T235 51T339 30ZM343 154Q195 154 195 348Q195 542 343 542Q432 542 462 462L423 441Q400 498 343 498Q249
498 249 376V320Q249 198 343 198Q377 198 397 213T429 257L467 234Q453 199 423 177T343 154Z" />
<glyph unicode="&#xaa;" glyph-name="ordfeminine" horiz-adv-x="345" d="M228 409Q218 383 195 366T133 349Q85 349 61 373T36 443Q36 494 66 518T163 542H235V585Q235 627 217 646T160 665Q96 665 76 613L46 636Q77 702 163 702Q220 702 249 673T278 588V396H315V356H276Q256
356 246 366T235 400V409H228ZM162 510Q120 510 100 496T80 457V437Q80 386 144 386Q181 386 208 405T235 459V510H162Z" />
<glyph unicode="&#xab;" glyph-name="guillemotleft" horiz-adv-x="449" d="M210 105L32 263V314L210 472L230 434L89 292V285L230 143L210 105ZM388 105L210 263V314L388 472L408 434L267 292V285L408 143L388 105Z" />
<glyph unicode="&#xac;" glyph-name="logicalnot" horiz-adv-x="540" d="M429 88V282H58V328H482V88H429Z" />
<glyph unicode="&#xad;" glyph-name="uni00AD" horiz-adv-x="360" d="M66 275V333H294V275H66Z" />
<glyph unicode="&#xae;" glyph-name="registered" horiz-adv-x="425" d="M212 298Q172 298 139 312T82 352T45 417T31 504Q31 553 44 591T82 655T139 696T212 710Q252 710 285 696T342 656T379 591T393 504Q393 455 380 417T342 353T285 312T212 298ZM212 327Q281
327 319 371T358 482V526Q358 593 320 637T212 681Q143 681 105 637T66 526V482Q66 415 104 371T212 327ZM175 399H145V608H228Q256 608 270 595T285 546Q285 518 275 504T247 486L292 399H259L218 484H175V399ZM226 508Q254 508 254 536V555Q254 583 226 583H175V508H226Z"
/>
<glyph unicode="&#xaf;" glyph-name="overscore" horiz-adv-x="540" d="M147 692H393V646H147V692Z" />
<glyph unicode="&#xb0;" glyph-name="degree" horiz-adv-x="421" d="M211 388Q178 388 150 399T101 431T69 481T57 549Q57 586 68 616T101 667T150 699T211 710Q244 710 272 699T321 667T353 616T365 549Q365 511 354 482T321 431T272 399T211 388ZM211 431Q259
431 288 462T317 549Q317 605 288 636T211 667Q163 667 134 636T105 549Q105 493 134 462T211 431Z" />
<glyph unicode="&#xb1;" glyph-name="plusminus" horiz-adv-x="540" d="M244 157V350H58V396H244V590H296V396H482V350H296V157H244ZM58 0V46H481V0H58Z" />
<glyph unicode="&#xb2;" glyph-name="twosuperior" horiz-adv-x="320" d="M281 329H42V373L158 479Q193 512 208 535T224 582V606Q224 632 208 649T156 666Q123 666 104 651T74 600L37 615Q64 704 159 704Q216 704 243 676T270 597Q270 559 251 527T185 453L87
365H281V329Z" />
<glyph unicode="&#xb3;" glyph-name="threesuperior" horiz-adv-x="320" d="M147 538Q187 538 204 553T222 595V615Q222 640 205 653T156 666Q126 666 108 657T76 623L46 646Q65 676 91 690T157 704Q207 704 237 682T268 609Q268 574 249 552T196 524V518Q231
516 252 494T274 431Q274 376 242 350T153 323Q112 323 84 337T33 384L66 409Q83 382 101 372T151 361Q189 361 208 377T228 424V445Q228 502 151 502H109V538H147Z" />
<glyph unicode="&#xb4;" glyph-name="acute" horiz-adv-x="540" d="M268 586L233 605L318 768L368 741L268 586Z" />
<glyph unicode="&#xb5;" glyph-name="mu" horiz-adv-x="515" d="M83 -200V512H138V173Q138 108 166 73T251 37Q277 37 300 45T340 68T367 106T377 157V512H432V0H377V81H369Q355 37 324 13T241 -12Q205 -12 177 6T137 53H130L138 -46V-200H83Z" />
<glyph unicode="&#xb6;" glyph-name="paragraph" horiz-adv-x="567" d="M223 312Q142 312 94 363T46 505Q46 596 94 647T223 698H489V651H428V-149H377V651H274V-149H223V312Z" />
<glyph unicode="&#xb7;" glyph-name="middot" horiz-adv-x="286" d="M143 258Q97 258 97 298V311Q97 351 143 351Q189 351 189 311V298Q189 258 143 258Z" />
<glyph unicode="&#xb8;" glyph-name="cedilla" horiz-adv-x="540" d="M280 -205Q246 -205 226 -193T195 -168L221 -139Q231 -150 245 -158T280 -166Q327 -166 327 -126Q327 -87 280 -87H235L254 7H289L273 -73H279Q284 -68 291 -65T311 -61Q339 -61 355 -78T371
-128Q371 -166 345 -185T280 -205Z" />
<glyph unicode="&#xb9;" glyph-name="onesuperior" horiz-adv-x="320" d="M48 329V365H152V659L47 598L29 628L149 698H196V365H289V329H48Z" />
<glyph unicode="&#xba;" glyph-name="ordmasculine" horiz-adv-x="349" d="M174 350Q109 350 75 392T40 526Q40 617 74 659T174 702Q239 702 273 660T308 526Q308 435 274 393T174 350ZM174 387Q218 387 239 413T260 490V562Q260 612 239 638T174 665Q130 665
109 639T88 562V490Q88 440 109 414T174 387Z" />
<glyph unicode="&#xbb;" glyph-name="guillemotright" horiz-adv-x="449" d="M59 472L237 314V263L59 105L39 143L180 285V292L39 434L59 472ZM237 472L415 314V263L237 105L217 143L358 285V292L217 434L237 472Z" />
<glyph unicode="&#xbc;" glyph-name="onequarter" horiz-adv-x="740" d="M48 329V365H152V659L47 598L29 628L149 698H196V365H289V329H48ZM399 434L560 698H606L445 434H399ZM134 0L289 254H335L180 0H134ZM619 0V79H442V117L598 369H661V113H715V79H661V0H619ZM619
330H614L481 113H619V330Z" />
<glyph unicode="&#xbd;" glyph-name="onehalf" horiz-adv-x="740" d="M48 329V365H152V659L47 598L29 628L149 698H196V365H289V329H48ZM399 434L560 698H606L445 434H399ZM134 0L289 254H335L180 0H134ZM701 0H462V44L578 150Q613 183 628 206T644 253V277Q644
303 628 320T576 337Q543 337 524 322T494 271L457 286Q484 375 579 375Q636 375 663 347T690 268Q690 230 671 198T605 124L507 36H701V0Z" />
<glyph unicode="&#xbe;" glyph-name="threequarters" horiz-adv-x="740" d="M147 538Q187 538 204 553T222 595V615Q222 640 205 653T156 666Q126 666 108 657T76 623L46 646Q65 676 91 690T157 704Q207 704 237 682T268 609Q268 574 249 552T196 524V518Q231
516 252 494T274 431Q274 376 242 350T153 323Q112 323 84 337T33 384L66 409Q83 382 101 372T151 361Q189 361 208 377T228 424V445Q228 502 151 502H109V538H147ZM399 434L560 698H606L445 434H399ZM134 0L289 254H335L180 0H134ZM619 0V79H442V117L598 369H661V113H715V79H661V0H619ZM619
330H614L481 113H619V330Z" />
<glyph unicode="&#xbf;" glyph-name="questiondown" horiz-adv-x="418" d="M210 -199Q33 -199 33 -14Q33 160 204 190V317H257V149Q176 145 134 107T91 0V-23Q91 -81 123 -114T211 -148Q319 -148 348 -24L398 -42Q360 -199 210 -199ZM232 428Q186 428 186 468V481Q186
521 232 521Q278 521 278 481V468Q278 428 232 428Z" />
<glyph unicode="&#xc0;" glyph-name="Agrave" horiz-adv-x="565" d="M482 0L414 219H149L82 0H23L244 698H320L541 0H482ZM317 535L285 647H278L245 535L163 266H401L317 535ZM185 915L234 942L320 779L284 760L185 915Z" />
<glyph unicode="&#xc1;" glyph-name="Aacute" horiz-adv-x="565" d="M482 0L414 219H149L82 0H23L244 698H320L541 0H482ZM317 535L285 647H278L245 535L163 266H401L317 535ZM281 760L246 779L331 942L381 915L281 760Z" />
<glyph unicode="&#xc2;" glyph-name="Acircumflex" horiz-adv-x="565" d="M482 0L414 219H149L82 0H23L244 698H320L541 0H482ZM317 535L285 647H278L245 535L163 266H401L317 535ZM316 930L422 791L392 768L283 890L174 768L144 791L250 930H316Z" />
<glyph unicode="&#xc3;" glyph-name="Atilde" horiz-adv-x="565" d="M482 0L414 219H149L82 0H23L244 698H320L541 0H482ZM317 535L285 647H278L245 535L163 266H401L317 535ZM349 793Q332 793 317 799T277 821Q255 835 241 840T216 846Q200 846 188 838T161 816L138
844Q170 891 217 891Q234 891 249 885T289 863Q311 849 325 844T350 838Q366 838 378 846T405 868L428 840Q396 793 349 793Z" />
<glyph unicode="&#xc4;" glyph-name="Adieresis" horiz-adv-x="565" d="M482 0L414 219H149L82 0H23L244 698H320L541 0H482ZM317 535L285 647H278L245 535L163 266H401L317 535ZM199 803Q179 803 170 812T160 835V849Q160 863 169 872T199 881Q219 881 228 872T238
849V835Q238 821 229 812T199 803ZM367 803Q347 803 338 812T328 835V849Q328 863 337 872T367 881Q387 881 396 872T406 849V835Q406 821 397 812T367 803Z" />
<glyph unicode="&#xc5;" glyph-name="Aring" horiz-adv-x="565" d="M482 0L414 219H149L82 0H23L244 698H320L541 0H482ZM317 535L285 647H278L245 535L163 266H401L317 535ZM283 755Q236 755 209 784T182 860Q182 907 209 936T283 965Q330 965 357 936T384 860Q384
813 357 784T283 755ZM283 790Q310 790 326 805T342 848V872Q342 899 326 914T283 930Q256 930 240 915T224 872V848Q224 821 240 806T283 790Z" />
<glyph unicode="&#xc6;" glyph-name="AE" horiz-adv-x="803" d="M373 216H164L62 0H3L332 698H743V647H431V380H727V329H431V51H743V0H373V216ZM362 648L185 267H373V648H362Z" />
<glyph unicode="&#xc7;" glyph-name="Ccedilla" horiz-adv-x="556" d="M303 658Q215 658 167 596T118 412V286Q118 165 166 103T303 40Q375 40 413 72T472 167L518 140Q491 66 442 29T316 -11L304 -73H310Q315 -68 322 -65T342 -61Q370 -61 386 -78T402 -128Q402
-166 376 -185T310 -205Q277 -205 257 -193T226 -168L252 -139Q262 -150 276 -157T310 -165Q358 -165 358 -126Q358 -87 310 -87H266L281 -11Q229 -8 188 14T117 79T72 189T56 349Q56 446 73 515T122 627T200 690T303 710Q387 710 436 674T514 566L467 538Q447
598 409 628T303 658Z" />
<glyph unicode="&#xc8;" glyph-name="Egrave" horiz-adv-x="518" d="M88 0V698H458V647H146V380H442V329H146V51H458V0H88ZM174 915L223 942L309 779L273 760L174 915Z" />
<glyph unicode="&#xc9;" glyph-name="Eacute" horiz-adv-x="518" d="M88 0V698H458V647H146V380H442V329H146V51H458V0H88ZM270 760L235 779L320 942L370 915L270 760Z" />
<glyph unicode="&#xca;" glyph-name="Ecircumflex" horiz-adv-x="518" d="M88 0V698H458V647H146V380H442V329H146V51H458V0H88ZM305 930L411 791L381 768L272 890L163 768L133 791L239 930H305Z" />
<glyph unicode="&#xcb;" glyph-name="Edieresis" horiz-adv-x="518" d="M88 0V698H458V647H146V380H442V329H146V51H458V0H88ZM188 803Q168 803 159 812T149 835V849Q149 863 158 872T188 881Q208 881 217 872T227 849V835Q227 821 218 812T188 803ZM356 803Q336
803 327 812T317 835V849Q317 863 326 872T356 881Q376 881 385 872T395 849V835Q395 821 386 812T356 803Z" />
<glyph unicode="&#xcc;" glyph-name="Igrave" horiz-adv-x="352" d="M56 0V48H147V650H56V698H296V650H205V48H296V0H56ZM335 915L384 942L470 779L434 760L335 915Z" />
<glyph unicode="&#xcd;" glyph-name="Iacute" horiz-adv-x="352" d="M56 0V48H147V650H56V698H296V650H205V48H296V0H56ZM431 760L396 779L481 942L531 915L431 760Z" />
<glyph unicode="&#xce;" glyph-name="Icircumflex" horiz-adv-x="352" d="M56 0V48H147V650H56V698H296V650H205V48H296V0H56ZM466 930L572 791L542 768L433 890L324 768L294 791L400 930H466Z" />
<glyph unicode="&#xcf;" glyph-name="Idieresis" horiz-adv-x="352" d="M56 0V48H147V650H56V698H296V650H205V48H296V0H56ZM349 803Q329 803 320 812T310 835V849Q310 863 319 872T349 881Q369 881 378 872T388 849V835Q388 821 379 812T349 803ZM517 803Q497
803 488 812T478 835V849Q478 863 487 872T517 881Q537 881 546 872T556 849V835Q556 821 547 812T517 803Z" />
<glyph unicode="&#xd0;" glyph-name="Eth" horiz-adv-x="604" d="M88 343H23V387H88V698H297Q418 698 482 614T546 349Q546 167 482 84T297 0H88V343ZM298 51Q388 51 436 113T484 286V412Q484 523 436 585T298 647H146V387H284V343H146V51H298Z" />
<glyph unicode="&#xd1;" glyph-name="Ntilde" horiz-adv-x="632" d="M221 474L147 629H140L144 474V0H88V698H163L411 224L485 69H492L488 224V698H544V0H469L221 474ZM382 793Q365 793 350 799T310 821Q288 835 274 840T249 846Q233 846 221 838T194 816L171
844Q203 891 250 891Q267 891 282 885T322 863Q344 849 358 844T383 838Q399 838 411 846T438 868L461 840Q429 793 382 793Z" />
<glyph unicode="&#xd2;" glyph-name="Ograve" horiz-adv-x="629" d="M314 -12Q254 -12 206 8T125 71T74 182T56 349Q56 446 74 515T125 627T206 690T314 710Q374 710 422 690T503 627T554 515T572 349Q572 251 554 183T503 71T422 8T314 -12ZM314 40Q408 40 459
102T510 286V412Q510 533 459 595T314 658Q220 658 169 596T118 412V286Q118 165 169 103T314 40ZM216 915L265 942L351 779L315 760L216 915Z" />
<glyph unicode="&#xd3;" glyph-name="Oacute" horiz-adv-x="629" d="M314 -12Q254 -12 206 8T125 71T74 182T56 349Q56 446 74 515T125 627T206 690T314 710Q374 710 422 690T503 627T554 515T572 349Q572 251 554 183T503 71T422 8T314 -12ZM314 40Q408 40 459
102T510 286V412Q510 533 459 595T314 658Q220 658 169 596T118 412V286Q118 165 169 103T314 40ZM312 760L277 779L362 942L412 915L312 760Z" />
<glyph unicode="&#xd4;" glyph-name="Ocircumflex" horiz-adv-x="629" d="M314 -12Q254 -12 206 8T125 71T74 182T56 349Q56 446 74 515T125 627T206 690T314 710Q374 710 422 690T503 627T554 515T572 349Q572 251 554 183T503 71T422 8T314 -12ZM314 40Q408
40 459 102T510 286V412Q510 533 459 595T314 658Q220 658 169 596T118 412V286Q118 165 169 103T314 40ZM347 930L453 791L423 768L314 890L205 768L175 791L281 930H347Z" />
<glyph unicode="&#xd5;" glyph-name="Otilde" horiz-adv-x="629" d="M314 -12Q254 -12 206 8T125 71T74 182T56 349Q56 446 74 515T125 627T206 690T314 710Q374 710 422 690T503 627T554 515T572 349Q572 251 554 183T503 71T422 8T314 -12ZM314 40Q408 40 459
102T510 286V412Q510 533 459 595T314 658Q220 658 169 596T118 412V286Q118 165 169 103T314 40ZM380 793Q363 793 348 799T308 821Q286 835 272 840T247 846Q231 846 219 838T192 816L169 844Q201 891 248 891Q265 891 280 885T320 863Q342 849 356 844T381 838Q397
838 409 846T436 868L459 840Q427 793 380 793Z" />
<glyph unicode="&#xd6;" glyph-name="Odieresis" horiz-adv-x="629" d="M314 -12Q254 -12 206 8T125 71T74 182T56 349Q56 446 74 515T125 627T206 690T314 710Q374 710 422 690T503 627T554 515T572 349Q572 251 554 183T503 71T422 8T314 -12ZM314 40Q408 40
459 102T510 286V412Q510 533 459 595T314 658Q220 658 169 596T118 412V286Q118 165 169 103T314 40ZM230 803Q210 803 201 812T191 835V849Q191 863 200 872T230 881Q250 881 259 872T269 849V835Q269 821 260 812T230 803ZM398 803Q378 803 369 812T359 835V849Q359
863 368 872T398 881Q418 881 427 872T437 849V835Q437 821 428 812T398 803Z" />
<glyph unicode="&#xd7;" glyph-name="multiply" horiz-adv-x="540" d="M270 272L112 114L79 147L237 305L79 464L111 497L270 338L429 497L461 464L303 305L461 147L428 114L270 272Z" />
<glyph unicode="&#xd8;" glyph-name="Oslash" horiz-adv-x="628" d="M314 -12Q264 -12 224 1T151 43L99 -39L60 -13L118 80Q88 124 72 190T56 349Q56 446 74 515T125 627T206 690T314 710Q364 710 405 697T478 654L530 737L569 711L510 618Q540 574 556 508T572
349Q572 251 555 183T504 71T422 8T314 -12ZM153 130L315 392L449 607Q399 659 314 659Q221 659 170 596T118 412V286Q118 241 125 200T147 130H153ZM179 92Q229 39 314 39Q408 39 459 102T511 286V412Q511 457 504 498T482 568H476L315 309L179 92Z" />
<glyph unicode="&#xd9;" glyph-name="Ugrave" horiz-adv-x="602" d="M141 698V248Q141 194 149 155T175 90T224 52T301 40Q347 40 377 52T426 89T453 154T461 248V698H519V257Q519 186 508 136T471 52T404 4T301 -12Q240 -12 199 3T132 52T95 135T83 257V698H141ZM202
915L251 942L337 779L301 760L202 915Z" />
<glyph unicode="&#xda;" glyph-name="Uacute" horiz-adv-x="602" d="M141 698V248Q141 194 149 155T175 90T224 52T301 40Q347 40 377 52T426 89T453 154T461 248V698H519V257Q519 186 508 136T471 52T404 4T301 -12Q240 -12 199 3T132 52T95 135T83 257V698H141ZM298
760L263 779L348 942L398 915L298 760Z" />
<glyph unicode="&#xdb;" glyph-name="Ucircumflex" horiz-adv-x="602" d="M141 698V248Q141 194 149 155T175 90T224 52T301 40Q347 40 377 52T426 89T453 154T461 248V698H519V257Q519 186 508 136T471 52T404 4T301 -12Q240 -12 199 3T132 52T95 135T83 257V698H141ZM333
930L439 791L409 768L300 890L191 768L161 791L267 930H333Z" />
<glyph unicode="&#xdc;" glyph-name="Udieresis" horiz-adv-x="602" d="M141 698V248Q141 194 149 155T175 90T224 52T301 40Q347 40 377 52T426 89T453 154T461 248V698H519V257Q519 186 508 136T471 52T404 4T301 -12Q240 -12 199 3T132 52T95 135T83 257V698H141ZM216
803Q196 803 187 812T177 835V849Q177 863 186 872T216 881Q236 881 245 872T255 849V835Q255 821 246 812T216 803ZM384 803Q364 803 355 812T345 835V849Q345 863 354 872T384 881Q404 881 413 872T423 849V835Q423 821 414 812T384 803Z" />
<glyph unicode="&#xdd;" glyph-name="Yacute" horiz-adv-x="518" d="M230 0V283L14 698H79L255 350H264L440 698H504L288 283V0H230ZM515 760L480 779L565 942L615 915L515 760Z" />
<glyph unicode="&#xde;" glyph-name="Thorn" horiz-adv-x="543" d="M88 0V698H146V550H342Q506 550 506 355Q506 160 342 160H146V0H88ZM146 211H340Q394 211 419 240T445 323V387Q445 440 420 469T340 499H146V211Z" />
<glyph unicode="&#xdf;" glyph-name="germandbls" horiz-adv-x="579" d="M549 138Q549 67 510 28T392 -12Q334 -12 295 9T226 73L267 107Q293 70 322 54T395 37Q448 37 472 61T496 133Q496 172 479 194T420 229L389 238Q356 248 333 259T294 287T272 326T264 378Q264
446 307 480T433 516V537Q433 626 403 664T298 703Q224 703 194 665T163 537V0H108V464H29V512H108V540Q108 643 154 697T297 752Q394 752 440 698T486 540V471H433Q377 471 347 450T317 381Q317 361 321 347T335 321T360 303T399 288L429 279Q491 260 520 229T549
138Z" />
<glyph unicode="&#xe0;" glyph-name="agrave" horiz-adv-x="477" d="M392 0Q337 0 337 54V82H329Q316 37 281 13T193 -12Q121 -12 83 24T45 135Q45 208 90 247T226 286H337V354Q337 419 309 447T222 475Q177 475 147 455T98 392L62 423Q82 468 122 496T224 524Q307
524 349 483T392 360V48H453V0H392ZM205 36Q233 36 257 44T299 69T327 106T337 154V244H225Q165 244 134 221T102 155V123Q102 80 130 58T205 36ZM385 741L434 768L520 605L484 586L385 741Z" />
<glyph unicode="&#xe1;" glyph-name="aacute" horiz-adv-x="477" d="M392 0Q337 0 337 54V82H329Q316 37 281 13T193 -12Q121 -12 83 24T45 135Q45 208 90 247T226 286H337V354Q337 419 309 447T222 475Q177 475 147 455T98 392L62 423Q82 468 122 496T224 524Q307
524 349 483T392 360V48H453V0H392ZM205 36Q233 36 257 44T299 69T327 106T337 154V244H225Q165 244 134 221T102 155V123Q102 80 130 58T205 36ZM481 586L446 605L531 768L581 741L481 586Z" />
<glyph unicode="&#xe2;" glyph-name="acircumflex" horiz-adv-x="477" d="M392 0Q337 0 337 54V82H329Q316 37 281 13T193 -12Q121 -12 83 24T45 135Q45 208 90 247T226 286H337V354Q337 419 309 447T222 475Q177 475 147 455T98 392L62 423Q82 468 122 496T224
524Q307 524 349 483T392 360V48H453V0H392ZM205 36Q233 36 257 44T299 69T327 106T337 154V244H225Q165 244 134 221T102 155V123Q102 80 130 58T205 36ZM516 756L622 617L592 594L483 716L374 594L344 617L450 756H516Z" />
<glyph unicode="&#xe3;" glyph-name="atilde" horiz-adv-x="477" d="M392 0Q337 0 337 54V82H329Q316 37 281 13T193 -12Q121 -12 83 24T45 135Q45 208 90 247T226 286H337V354Q337 419 309 447T222 475Q177 475 147 455T98 392L62 423Q82 468 122 496T224 524Q307
524 349 483T392 360V48H453V0H392ZM205 36Q233 36 257 44T299 69T327 106T337 154V244H225Q165 244 134 221T102 155V123Q102 80 130 58T205 36ZM549 619Q532 619 517 625T477 647Q455 661 441 666T416 672Q400 672 388 664T361 642L338 670Q370 717 417 717Q434
717 449 711T489 689Q511 675 525 670T550 664Q566 664 578 672T605 694L628 666Q596 619 549 619Z" />
<glyph unicode="&#xe4;" glyph-name="adieresis" horiz-adv-x="477" d="M392 0Q337 0 337 54V82H329Q316 37 281 13T193 -12Q121 -12 83 24T45 135Q45 208 90 247T226 286H337V354Q337 419 309 447T222 475Q177 475 147 455T98 392L62 423Q82 468 122 496T224
524Q307 524 349 483T392 360V48H453V0H392ZM205 36Q233 36 257 44T299 69T327 106T337 154V244H225Q165 244 134 221T102 155V123Q102 80 130 58T205 36ZM399 629Q379 629 370 638T360 661V675Q360 689 369 698T399 707Q419 707 428 698T438 675V661Q438 647 429
638T399 629ZM567 629Q547 629 538 638T528 661V675Q528 689 537 698T567 707Q587 707 596 698T606 675V661Q606 647 597 638T567 629Z" />
<glyph unicode="&#xe5;" glyph-name="aring" horiz-adv-x="477" d="M392 0Q337 0 337 54V82H329Q316 37 281 13T193 -12Q121 -12 83 24T45 135Q45 208 90 247T226 286H337V354Q337 419 309 447T222 475Q177 475 147 455T98 392L62 423Q82 468 122 496T224 524Q307
524 349 483T392 360V48H453V0H392ZM205 36Q233 36 257 44T299 69T327 106T337 154V244H225Q165 244 134 221T102 155V123Q102 80 130 58T205 36ZM483 582Q436 582 409 611T382 687Q382 734 409 763T483 792Q530 792 557 763T584 687Q584 640 557 611T483 582ZM483
617Q510 617 526 632T542 675V699Q542 726 526 741T483 757Q456 757 440 742T424 699V675Q424 648 440 633T483 617Z" />
<glyph unicode="&#xe6;" glyph-name="ae" horiz-adv-x="782" d="M225 245Q165 245 134 222T102 155V123Q102 80 130 58T205 36Q235 36 260 47T303 77T332 123T343 182V245H225ZM678 287V301Q678 386 644 431T543 477Q474 477 436 432T398 301V287H678ZM542 37Q599
37 633 62T688 139L726 113Q704 54 660 21T543 -12Q479 -12 434 22T375 120H366Q352 57 306 23T193 -12Q121 -12 83 24T45 135Q45 209 90 248T226 287H343V324Q343 396 312 435T220 475Q135 475 98 392L62 423Q82 468 122 496T221 524Q282 524 320 490T369 392H377Q391
455 437 489T543 524Q634 524 685 461T736 261V245H398V211Q398 126 435 82T542 37Z" />
<glyph unicode="&#xe7;" glyph-name="ccedilla" horiz-adv-x="448" d="M245 524Q311 524 352 494T414 414L368 391Q352 433 323 454T245 475Q175 475 140 431T105 301V211Q105 126 140 82T245 37Q296 37 328 59T379 125L420 97Q398 50 360 22T262 -11L250 -73H256Q261
-68 268 -65T288 -61Q316 -61 332 -78T348 -128Q348 -166 322 -185T256 -205Q223 -205 203 -193T172 -168L198 -139Q208 -150 222 -157T256 -165Q304 -165 304 -126Q304 -87 256 -87H212L227 -11Q141 -6 94 57T46 256Q46 398 98 461T245 524Z" />
<glyph unicode="&#xe8;" glyph-name="egrave" horiz-adv-x="489" d="M249 -12Q204 -12 167 3T102 51T61 134T46 256Q46 327 60 377T102 460T166 508T249 524Q340 524 391 461T443 261V246H105V211Q105 126 142 82T249 37Q306 37 340 62T395 139L433 113Q411 54
367 21T249 -12ZM249 477Q180 477 143 432T105 301V288H384V301Q384 386 351 431T249 477ZM407 741L456 768L542 605L506 586L407 741Z" />
<glyph unicode="&#xe9;" glyph-name="eacute" horiz-adv-x="489" d="M249 -12Q204 -12 167 3T102 51T61 134T46 256Q46 327 60 377T102 460T166 508T249 524Q340 524 391 461T443 261V246H105V211Q105 126 142 82T249 37Q306 37 340 62T395 139L433 113Q411 54
367 21T249 -12ZM249 477Q180 477 143 432T105 301V288H384V301Q384 386 351 431T249 477ZM503 586L468 605L553 768L603 741L503 586Z" />
<glyph unicode="&#xea;" glyph-name="ecircumflex" horiz-adv-x="489" d="M249 -12Q204 -12 167 3T102 51T61 134T46 256Q46 327 60 377T102 460T166 508T249 524Q340 524 391 461T443 261V246H105V211Q105 126 142 82T249 37Q306 37 340 62T395 139L433 113Q411
54 367 21T249 -12ZM249 477Q180 477 143 432T105 301V288H384V301Q384 386 351 431T249 477ZM538 756L644 617L614 594L505 716L396 594L366 617L472 756H538Z" />
<glyph unicode="&#xeb;" glyph-name="edieresis" horiz-adv-x="489" d="M249 -12Q204 -12 167 3T102 51T61 134T46 256Q46 327 60 377T102 460T166 508T249 524Q340 524 391 461T443 261V246H105V211Q105 126 142 82T249 37Q306 37 340 62T395 139L433 113Q411
54 367 21T249 -12ZM249 477Q180 477 143 432T105 301V288H384V301Q384 386 351 431T249 477ZM421 629Q401 629 392 638T382 661V675Q382 689 391 698T421 707Q441 707 450 698T460 675V661Q460 647 451 638T421 629ZM589 629Q569 629 560 638T550 661V675Q550
689 559 698T589 707Q609 707 618 698T628 675V661Q628 647 619 638T589 629Z" />
<glyph unicode="&#xec;" glyph-name="igrave" horiz-adv-x="221" d="M83 0V512H138V0H83ZM13 741L62 768L148 605L112 586L13 741Z" />
<glyph unicode="&#xed;" glyph-name="iacute" horiz-adv-x="221" d="M83 0V512H138V0H83ZM109 586L74 605L159 768L209 741L109 586Z" />
<glyph unicode="&#xee;" glyph-name="icircumflex" horiz-adv-x="221" d="M83 0V512H138V0H83ZM144 756L236 617L206 594L111 716L16 594L-14 617L78 756H144Z" />
<glyph unicode="&#xef;" glyph-name="idieresis" horiz-adv-x="221" d="M83 0V512H138V0H83ZM32 629Q12 629 2 638T-8 661V675Q-8 689 2 698T32 707Q52 707 61 698T71 675V661Q71 647 62 638T32 629ZM190 629Q170 629 161 638T151 661V675Q151 689 160 698T190
707Q210 707 220 698T230 675V661Q230 647 220 638T190 629Z" />
<glyph unicode="&#xf0;" glyph-name="eth" horiz-adv-x="497" d="M372 723L292 661Q369 580 409 477T450 259Q450 118 397 53T247 -12Q148 -12 97 53T46 245Q46 373 96 438T241 504Q289 504 319 481T367 419H375Q360 478 328 531T251 631L166 566L144 595L224
657Q173 705 112 740H196Q227 720 265 687L350 752L372 723ZM248 37Q317 37 354 78T391 207V285Q391 373 354 414T248 455Q179 455 142 414T105 285V207Q105 119 142 78T248 37Z" />
<glyph unicode="&#xf1;" glyph-name="ntilde" horiz-adv-x="508" d="M83 0V512H138V431H146Q160 475 194 499T284 524Q354 524 393 479T432 342V0H377V339Q377 404 349 439T264 475Q238 475 215 467T175 444T148 406T138 355V0H83ZM581 619Q564 619 549 625T509
647Q487 661 473 666T448 672Q432 672 420 664T393 642L370 670Q402 717 449 717Q466 717 481 711T521 689Q543 675 557 670T582 664Q598 664 610 672T637 694L660 666Q628 619 581 619Z" />
<glyph unicode="&#xf2;" glyph-name="ograve" horiz-adv-x="498" d="M249 -12Q204 -12 167 3T102 51T61 134T46 256Q46 327 60 377T102 460T166 508T249 524Q294 524 331 509T396 461T437 378T452 256Q452 185 438 135T396 52T332 4T249 -12ZM249 37Q318 37 355
81T393 211V301Q393 386 356 430T249 475Q180 475 143 431T105 301V211Q105 126 142 82T249 37ZM408 741L457 768L543 605L507 586L408 741Z" />
<glyph unicode="&#xf3;" glyph-name="oacute" horiz-adv-x="498" d="M249 -12Q204 -12 167 3T102 51T61 134T46 256Q46 327 60 377T102 460T166 508T249 524Q294 524 331 509T396 461T437 378T452 256Q452 185 438 135T396 52T332 4T249 -12ZM249 37Q318 37 355
81T393 211V301Q393 386 356 430T249 475Q180 475 143 431T105 301V211Q105 126 142 82T249 37ZM504 586L469 605L554 768L604 741L504 586Z" />
<glyph unicode="&#xf4;" glyph-name="ocircumflex" horiz-adv-x="498" d="M249 -12Q204 -12 167 3T102 51T61 134T46 256Q46 327 60 377T102 460T166 508T249 524Q294 524 331 509T396 461T437 378T452 256Q452 185 438 135T396 52T332 4T249 -12ZM249 37Q318
37 355 81T393 211V301Q393 386 356 430T249 475Q180 475 143 431T105 301V211Q105 126 142 82T249 37ZM539 756L645 617L615 594L506 716L397 594L367 617L473 756H539Z" />
<glyph unicode="&#xf5;" glyph-name="otilde" horiz-adv-x="498" d="M249 -12Q204 -12 167 3T102 51T61 134T46 256Q46 327 60 377T102 460T166 508T249 524Q294 524 331 509T396 461T437 378T452 256Q452 185 438 135T396 52T332 4T249 -12ZM249 37Q318 37 355
81T393 211V301Q393 386 356 430T249 475Q180 475 143 431T105 301V211Q105 126 142 82T249 37ZM572 619Q555 619 540 625T500 647Q478 661 464 666T439 672Q423 672 411 664T384 642L361 670Q393 717 440 717Q457 717 472 711T512 689Q534 675 548 670T573 664Q589
664 601 672T628 694L651 666Q619 619 572 619Z" />
<glyph unicode="&#xf6;" glyph-name="odieresis" horiz-adv-x="498" d="M249 -12Q204 -12 167 3T102 51T61 134T46 256Q46 327 60 377T102 460T166 508T249 524Q294 524 331 509T396 461T437 378T452 256Q452 185 438 135T396 52T332 4T249 -12ZM249 37Q318 37
355 81T393 211V301Q393 386 356 430T249 475Q180 475 143 431T105 301V211Q105 126 142 82T249 37ZM422 629Q402 629 393 638T383 661V675Q383 689 392 698T422 707Q442 707 451 698T461 675V661Q461 647 452 638T422 629ZM590 629Q570 629 561 638T551 661V675Q551
689 560 698T590 707Q610 707 619 698T629 675V661Q629 647 620 638T590 629Z" />
<glyph unicode="&#xf7;" glyph-name="divide" horiz-adv-x="540" d="M58 282V328H482V282H58ZM270 69Q244 69 234 79T223 107V122Q223 139 233 149T270 160Q296 160 306 150T317 122V107Q317 90 307 80T270 69ZM270 451Q244 451 234 461T223 489V504Q223 521 233
531T270 542Q296 542 306 532T317 504V489Q317 472 307 462T270 451Z" />
<glyph unicode="&#xf8;" glyph-name="oslash" horiz-adv-x="498" d="M249 -12Q208 -12 174 0T114 38L62 -34L29 -11L88 71Q68 103 57 149T46 256Q46 327 60 377T102 460T166 508T249 524Q290 524 324 512T384 474L436 546L468 523L409 442Q430 410 441 364T452
256Q452 185 438 135T396 52T332 4T249 -12ZM123 112L209 235L354 432Q317 475 249 475Q180 475 143 431T105 301V217Q105 209 105 194T107 162T111 131T116 112H123ZM145 80Q162 60 188 49T249 37Q318 37 355 81T393 211V296Q393 304 393 319T391 350T387 381T382
400H375L290 279L145 80Z" />
<glyph unicode="&#xf9;" glyph-name="ugrave" horiz-adv-x="508" d="M374 81H366Q352 37 318 13T228 -12Q157 -12 119 33T80 170V512H135V173Q135 108 163 73T248 37Q274 37 297 45T337 68T364 106T374 157V512H429V0H374V81ZM410 741L459 768L545 605L509 586L410 741Z" />
<glyph unicode="&#xfa;" glyph-name="uacute" horiz-adv-x="508" d="M374 81H366Q352 37 318 13T228 -12Q157 -12 119 33T80 170V512H135V173Q135 108 163 73T248 37Q274 37 297 45T337 68T364 106T374 157V512H429V0H374V81ZM506 586L471 605L556 768L606 741L506 586Z" />
<glyph unicode="&#xfb;" glyph-name="ucircumflex" horiz-adv-x="508" d="M374 81H366Q352 37 318 13T228 -12Q157 -12 119 33T80 170V512H135V173Q135 108 163 73T248 37Q274 37 297 45T337 68T364 106T374 157V512H429V0H374V81ZM541 756L647 617L617 594L508
716L399 594L369 617L475 756H541Z" />
<glyph unicode="&#xfc;" glyph-name="udieresis" horiz-adv-x="508" d="M374 81H366Q352 37 318 13T228 -12Q157 -12 119 33T80 170V512H135V173Q135 108 163 73T248 37Q274 37 297 45T337 68T364 106T374 157V512H429V0H374V81ZM424 629Q404 629 395 638T385
661V675Q385 689 394 698T424 707Q444 707 453 698T463 675V661Q463 647 454 638T424 629ZM592 629Q572 629 563 638T553 661V675Q553 689 562 698T592 707Q612 707 621 698T631 675V661Q631 647 622 638T592 629Z" />
<glyph unicode="&#xfd;" glyph-name="yacute" horiz-adv-x="434" d="M359 512H413L201 -151Q192 -180 179 -190T135 -200H68V-152H151L189 -24L18 512H73L162 228L212 48H220L270 228L359 512ZM473 586L438 605L523 768L573 741L473 586Z" />
<glyph unicode="&#xfe;" glyph-name="thorn" horiz-adv-x="518" d="M83 740H138V430H147Q161 477 195 500T281 524Q375 524 423 456T471 256Q471 125 423 57T281 -12Q230 -12 196 11T147 81H138V-200H83V740ZM268 37Q338 37 375 83T412 211V301Q412 383 375 429T268
475Q241 475 218 467T176 444T148 408T138 361V151Q138 125 148 104T176 68T217 45T268 37Z" />
<glyph unicode="&#xff;" glyph-name="ydieresis" horiz-adv-x="434" d="M359 512H413L201 -151Q192 -180 179 -190T135 -200H68V-152H151L189 -24L18 512H73L162 228L212 48H220L270 228L359 512ZM391 629Q371 629 362 638T352 661V675Q352 689 361 698T391 707Q411
707 420 698T430 675V661Q430 647 421 638T391 629ZM559 629Q539 629 530 638T520 661V675Q520 689 529 698T559 707Q579 707 588 698T598 675V661Q598 647 589 638T559 629Z" />
<glyph unicode="&#x2013;" glyph-name="endash" horiz-adv-x="528" d="M32 279V330H496V279H32Z" />
<glyph unicode="&#x2014;" glyph-name="emdash" horiz-adv-x="702" d="M32 279V330H670V279H32Z" />
<glyph unicode="&#x2018;" glyph-name="quoteleft" horiz-adv-x="236" d="M118 518Q72 518 72 558V571Q72 613 94 659T152 740H197Q168 707 152 676T130 610Q164 606 164 571V558Q164 518 118 518Z" />
<glyph unicode="&#x2019;" glyph-name="quoteright" horiz-adv-x="236" d="M118 744Q164 744 164 704V691Q164 649 142 603T84 522H39Q68 555 84 586T106 652Q72 656 72 691V704Q72 744 118 744Z" />
<glyph unicode="&#x201a;" glyph-name="quotesinglbase" horiz-adv-x="236" d="M118 99Q164 99 164 59V46Q164 4 142 -42T84 -123H39Q68 -90 84 -59T106 7Q72 11 72 46V59Q72 99 118 99Z" />
<glyph unicode="&#x201c;" glyph-name="quotedblleft" horiz-adv-x="405" d="M118 518Q72 518 72 558V571Q72 613 94 659T152 740H197Q168 707 152 676T130 610Q164 606 164 571V558Q164 518 118 518ZM286 518Q240 518 240 558V571Q240 613 262 659T320 740H365Q336
707 320 676T298 610Q332 606 332 571V558Q332 518 286 518Z" />
<glyph unicode="&#x201d;" glyph-name="quotedblright" horiz-adv-x="405" d="M118 744Q164 744 164 704V691Q164 649 142 603T84 522H39Q68 555 84 586T106 652Q72 656 72 691V704Q72 744 118 744ZM286 744Q332 744 332 704V691Q332 649 310 603T252 522H207Q236
555 252 586T274 652Q240 656 240 691V704Q240 744 286 744Z" />
<glyph unicode="&#x201e;" glyph-name="quotedblbase" horiz-adv-x="405" d="M118 99Q164 99 164 59V46Q164 4 142 -42T84 -123H39Q68 -90 84 -59T106 7Q72 11 72 46V59Q72 99 118 99ZM286 99Q332 99 332 59V46Q332 4 310 -42T252 -123H207Q236 -90 252 -59T274
7Q240 11 240 46V59Q240 99 286 99Z" />
<glyph unicode="&#x2022;" glyph-name="bullet" horiz-adv-x="338" d="M170 202Q116 202 93 224T69 285V323Q69 361 92 383T170 406Q224 406 247 384T271 323V285Q271 247 248 225T170 202Z" />
<glyph unicode="&#x2039;" glyph-name="guilsinglleft" horiz-adv-x="270" d="M210 105L32 263V314L210 472L230 434L89 292V285L230 143L210 105Z" />
<glyph unicode="&#x203a;" glyph-name="guilsinglright" horiz-adv-x="270" d="M59 472L237 314V263L59 105L39 143L180 285V292L39 434L59 472Z" />
</font>
</defs>
</svg>
