<?xml version="1.0" standalone="no"?>
<!DOCTYPE svg PUBLIC "-//W3C//DTD SVG 1.1//EN" "http://www.w3.org/Graphics/SVG/1.1/DTD/svg11.dtd">
<svg xmlns="http://www.w3.org/2000/svg">
<defs >
<font id="IBMPlexSansCondensed" horiz-adv-x="527" ><font-face
    font-family="IBM Plex Sans Condensed Medium"
    units-per-em="1000"
    panose-1="2 11 6 6 5 2 3 0 2 3"
    ascent="1025"
    descent="-275"
    alphabetic="0" />
<glyph unicode=" " glyph-name="space" horiz-adv-x="212" />
<glyph unicode="!" glyph-name="exclam" horiz-adv-x="276" d="M104 197L133 497L173 698H279L239 497L149 197H104ZM87 -11Q60 -11 45 1T30 34Q30 40 32 51T37 74Q45 101 62 115T114 129Q141 129 156 117T171 84Q171 78 169 67T164 44Q156 17 139 3T87 -11Z" />
<glyph unicode="&quot;" glyph-name="quotedbl" horiz-adv-x="407" d="M104 445L164 740H256L197 445H104ZM285 445L345 740H437L378 445H285Z" />
<glyph unicode="#" glyph-name="numbersign" horiz-adv-x="596" d="M326 194H193L125 0H56L124 194H18L29 253H146L215 445H109L121 504H236L304 698H373L305 504H438L506 698H575L507 504H613L602 445H485L416 253H522L510 194H395L327 0H258L326 194ZM348 253L416
445H283L215 253H348Z" />
<glyph unicode="$" glyph-name="dollar" horiz-adv-x="519" d="M163 5Q107 15 66 44T5 119L74 175Q109 101 186 87L235 327Q160 350 124 390T88 496Q88 536 101 571T142 633T209 676T302 696L319 780H399L381 691Q432 681 466 655T521 593L451 534Q416 594 358
608L316 395Q389 372 427 332T465 221Q465 179 451 141T410 74T340 25T243 2L227 -82H147L163 5ZM367 210Q367 248 350 271T298 307L253 85Q308 93 337 125T367 210ZM185 507Q185 471 201 450T253 416L292 613Q236 609 211 581T185 507Z" />
<glyph unicode="%" glyph-name="percent" horiz-adv-x="823" d="M113 0L653 698H745L205 0H113ZM221 374Q250 374 266 396T292 463L310 551Q312 559 312 569T313 587Q313 650 264 650Q235 650 219 628T193 561L175 473Q173 465 173 455T172 437Q172 374 221 374ZM214
314Q151 314 121 351T91 449Q91 470 94 496T102 546Q120 625 161 667T271 710Q334 710 364 673T394 575Q394 554 391 528T383 478Q365 399 324 357T214 314ZM594 48Q623 48 639 70T665 137L683 225Q685 233 685 243T686 261Q686 324 637 324Q608 324 592 302T566
235L548 147Q546 139 546 129T545 111Q545 48 594 48ZM587 -12Q524 -12 494 25T464 123Q464 144 467 170T475 220Q493 299 534 341T644 384Q707 384 737 347T767 249Q767 228 764 202T756 152Q738 73 697 31T587 -12Z" />
<glyph unicode="&amp;" glyph-name="ampersand" horiz-adv-x="623" d="M371 104H359Q345 50 303 19T194 -12Q113 -12 72 30T31 150Q31 225 73 281T203 381Q156 458 156 521Q156 563 169 598T208 657T269 696T350 710Q416 710 456 677T496 575Q496 543 487 515T456
460T403 410T324 360L412 217Q431 257 443 295T463 373H601L584 289H518Q507 251 492 217T457 145L548 0H433L371 104ZM337 631Q304 631 286 613T257 555Q252 535 252 514Q252 494 260 473T286 420Q317 437 338 453T373 487T391 525T397 569Q397 598 382 614T337
631ZM228 72Q267 72 294 87T349 139L239 321Q215 305 198 292T169 265T150 237T138 205Q136 196 135 183T133 159Q133 117 156 95T228 72Z" />
<glyph unicode="&apos;" glyph-name="quotesingle" horiz-adv-x="226" d="M104 445L164 740H256L197 445H104Z" />
<glyph unicode="(" glyph-name="parenleft" horiz-adv-x="316" d="M59 195Q59 275 77 354T131 507T215 645T326 760H430Q382 719 340 672T265 576T210 477T178 382L156 275Q147 231 147 188Q147 97 173 14T251 -137H160Q112 -72 86 15T59 195Z" />
<glyph unicode=")" glyph-name="parenright" horiz-adv-x="316" d="M277 428Q277 348 259 269T205 116T121 -22T10 -137H-94Q-46 -97 -4 -50T71 47T126 146T158 241L180 348Q189 391 189 435Q189 526 163 609T85 760H176Q224 695 250 608T277 428Z" />
<glyph unicode="*" glyph-name="asterisk" horiz-adv-x="472" d="M158 346L95 400L227 522L226 534L80 567L125 648L253 580L263 586L283 747H372L320 587L328 580L483 647L495 563L333 529L328 518L408 396L327 345L278 488H267L158 346Z" />
<glyph unicode="+" glyph-name="plus" horiz-adv-x="540" d="M190 91L226 265H62L78 347H242L277 522H369L333 347H497L481 265H317L282 91H190Z" />
<glyph unicode="," glyph-name="comma" horiz-adv-x="261" d="M102 129Q130 129 145 117T160 84Q160 78 159 67T154 44Q138 -10 108 -57T34 -138H-40Q-4 -106 21 -76T63 -10Q42 -8 31 4T19 34Q19 40 20 51T25 74Q33 100 50 114T102 129Z" />
<glyph unicode="-" glyph-name="hyphen" horiz-adv-x="352" d="M52 255L72 354H318L298 255H52Z" />
<glyph unicode="." glyph-name="period" horiz-adv-x="261" d="M78 -11Q49 -11 35 1T20 34Q20 40 21 51T26 74Q34 101 51 115T103 129Q132 129 146 117T161 84Q161 78 160 67T155 44Q147 17 130 3T78 -11Z" />
<glyph unicode="/" glyph-name="slash" horiz-adv-x="400" d="M-65 -151L359 740H449L25 -151H-65Z" />
<glyph unicode="0" glyph-name="zero" horiz-adv-x="540" d="M228 -12Q139 -12 91 40T43 193Q43 230 51 287T77 426Q109 571 174 640T344 710Q433 710 481 658T529 505Q529 468 521 411T495 272Q463 127 398 58T228 -12ZM239 76Q269 76 292 86T332 118T361 175T383
260L416 426Q421 452 423 473T426 510Q426 566 404 594T333 622Q303 622 280 612T240 580T211 523T189 438L156 272Q151 246 149 225T146 188Q146 132 168 104T239 76Z" />
<glyph unicode="1" glyph-name="one" horiz-adv-x="540" d="M40 0L57 87H213L315 597L145 494L109 564L326 698H436L314 87H461L443 0H40Z" />
<glyph unicode="2" glyph-name="two" horiz-adv-x="540" d="M429 0H18L38 102L276 307Q335 359 361 399T396 478Q398 489 401 505T404 536Q404 577 383 599T320 621Q268 621 240 593T193 506L108 542Q139 623 191 666T332 710Q423 710 467 666T512 538Q512 499
503 465T474 397T419 327T335 246L152 87H447L429 0Z" />
<glyph unicode="3" glyph-name="three" horiz-adv-x="540" d="M273 407Q325 407 353 429T392 506Q394 518 395 527T397 547Q397 586 375 603T312 621Q270 621 238 603T180 537L119 599Q196 710 331 710Q417 710 461 669T505 555Q505 517 494 485T462 428T412 389T348
370L346 359Q400 353 430 317T460 221Q460 170 445 128T400 54T325 6T218 -12Q144 -12 93 21T21 114L100 169Q114 119 143 97T224 75Q279 75 307 102T347 187Q352 210 352 233Q352 273 330 296T258 320H192L210 407H273Z" />
<glyph unicode="4" glyph-name="four" horiz-adv-x="540" d="M266 0L294 136H15L34 230L368 698H504L407 218H490L474 136H391L364 0H266ZM118 218H310L384 589H372L118 218Z" />
<glyph unicode="5" glyph-name="five" horiz-adv-x="540" d="M510 611H241L178 349H190Q211 397 243 419T329 442Q401 442 441 401T481 265Q481 203 465 152T416 65T337 8T227 -12Q150 -12 101 20T31 115L115 169Q127 125 154 101T236 77Q293 77 323 107T366 200Q369
216 371 231T373 260Q373 308 352 332T280 356Q210 356 169 293L87 306L183 698H529L510 611Z" />
<glyph unicode="6" glyph-name="six" horiz-adv-x="540" d="M236 -12Q142 -12 94 37T45 179Q45 205 48 228T55 271Q82 406 158 514T354 698H500Q364 610 285 522T175 339H187Q210 389 245 414T331 439Q406 439 445 392T484 264Q484 240 481 220T475 186Q466 142
447 106T397 43T327 3T236 -12ZM244 75Q300 75 328 106T370 201Q372 212 374 225T376 252Q376 301 354 326T282 352Q226 352 198 320T156 226Q151 203 151 175Q151 126 173 101T244 75Z" />
<glyph unicode="7" glyph-name="seven" horiz-adv-x="540" d="M99 0L438 611H213L187 481H99L142 698H557L539 603L208 0H99Z" />
<glyph unicode="8" glyph-name="eight" horiz-adv-x="540" d="M228 -12Q136 -12 86 33T36 160Q36 199 47 233T80 295T133 340T204 362L206 373Q164 385 141 418T118 504Q118 547 133 584T177 650T249 694T348 710Q437 710 480 669T524 556Q524 523 514 492T485
436T439 394T379 370L376 358Q428 348 453 313T479 219Q479 168 462 126T412 53T333 5T228 -12ZM241 72Q293 72 321 95T364 169Q369 188 372 209T376 246Q376 282 352 302T275 323Q223 323 195 300T152 226Q147 207 144 186T140 149Q140 113 164 93T241 72ZM303
404Q353 404 378 426T414 501Q417 515 419 526T421 549Q421 585 401 605T332 626Q282 626 257 604T221 529Q218 515 216 504T214 481Q214 445 234 425T303 404Z" />
<glyph unicode="9" glyph-name="nine" horiz-adv-x="540" d="M242 259Q167 259 128 306T89 434Q89 458 92 478T98 512Q107 556 126 592T176 655T246 695T337 710Q431 710 479 661T528 519Q528 493 525 470T518 427Q491 292 415 184T219 0H73Q209 88 288 176T398
359H386Q363 309 328 284T242 259ZM291 346Q347 346 375 378T417 472Q422 495 422 523Q422 572 400 597T329 623Q273 623 245 592T203 497Q201 486 199 473T197 446Q197 397 219 372T291 346Z" />
<glyph unicode=":" glyph-name="colon" horiz-adv-x="280" d="M88 -11Q59 -11 45 1T30 34Q30 40 31 51T36 74Q44 101 61 115T113 129Q142 129 156 117T171 84Q171 78 170 67T165 44Q157 17 140 3T88 -11ZM167 387Q138 387 124 399T109 432Q109 438 110 449T115
472Q123 499 140 513T192 527Q221 527 235 515T250 482Q250 476 249 465T244 442Q236 415 219 401T167 387Z" />
<glyph unicode=";" glyph-name="semicolon" horiz-adv-x="280" d="M113 129Q141 129 156 117T171 84Q171 78 170 67T165 44Q149 -10 119 -57T45 -138H-29Q7 -106 32 -76T74 -10Q53 -8 42 4T30 34Q30 40 31 51T36 74Q44 100 61 114T113 129ZM167 387Q138 387 124
399T109 432Q109 438 110 449T115 472Q123 499 140 513T192 527Q221 527 235 515T250 482Q250 476 249 465T244 442Q236 415 219 401T167 387Z" />
<glyph unicode="&lt;" glyph-name="less" horiz-adv-x="540" d="M79 252L95 331L511 578L488 461L194 289L191 277L415 95L394 -9L79 252Z" />
<glyph unicode="=" glyph-name="equal" horiz-adv-x="540" d="M83 369L99 451H518L501 369H83ZM41 162L58 244H476L460 162H41Z" />
<glyph unicode="&gt;" glyph-name="greater" horiz-adv-x="540" d="M62 108L356 280L359 292L135 474L156 578L471 317L455 238L39 -9L62 108Z" />
<glyph unicode="?" glyph-name="question" horiz-adv-x="429" d="M137 216L169 376Q241 381 284 411T339 491Q341 502 343 517T345 542Q345 580 325 601T267 622Q225 622 197 596T149 512L67 547Q101 632 152 671T280 710Q363 710 406 669T450 551Q450 504 436
465T395 395T333 344T253 314L233 216H137ZM145 -11Q118 -11 103 1T88 34Q88 40 90 51T95 74Q103 101 120 115T172 129Q199 129 214 117T229 84Q229 78 227 67T222 44Q214 17 197 3T145 -11Z" />
<glyph unicode="@" glyph-name="at" horiz-adv-x="808" d="M353 -120Q279 -120 224 -98T131 -35T76 64T57 196Q57 220 59 249T69 316Q87 404 122 476T210 601T332 681T487 710Q556 710 609 690T698 630T752 535T771 409Q771 391 769 370T762 319Q740 200 687 138T558
75Q514 75 491 95T467 155V166H457Q446 123 414 99T340 75Q289 75 261 109T232 216Q232 232 234 255T243 308Q263 408 306 457T413 506Q451 506 473 485T500 422H510L524 497H606L549 210Q547 202 546 192T544 173Q544 158 550 150T574 142Q614 142 641 182T685
309L693 353Q699 384 699 418Q699 470 686 513T646 586T577 632T477 649Q409 649 355 627T261 562T193 462T151 331L141 278Q136 256 134 236T132 195Q132 137 146 90T188 10T259 -41T361 -59H535L522 -120H353ZM376 147Q412 147 438 173T474 246L496 355Q502 387
484 410T428 434Q390 434 368 409T337 338L319 247Q316 230 316 220Q316 182 330 165T376 147Z" />
<glyph unicode="A" glyph-name="A" horiz-adv-x="573" d="M401 0L386 195H165L75 0H-34L305 698H442L505 0H401ZM363 499L360 608H348L305 499L207 280H380L363 499Z" />
<glyph unicode="B" glyph-name="B" horiz-adv-x="579" d="M165 698H419Q486 698 525 663T564 554Q564 479 527 429T426 366L424 355Q475 347 501 321T528 235Q528 184 514 141T472 67T405 18T314 0H25L165 698ZM316 88Q352 88 377 111T411 186Q416 215 418 228T421
249Q421 280 405 297T356 314H190L145 88H316ZM352 399Q393 399 415 420T449 488Q454 512 455 526T457 547Q457 577 444 593T399 610H250L208 399H352Z" />
<glyph unicode="C" glyph-name="C" horiz-adv-x="555" d="M260 -12Q201 -12 161 6T95 55T58 128T46 219Q46 261 53 310T70 401Q85 472 110 529T173 627T260 688T374 710Q419 710 453 698T513 664T554 613T578 548L485 509Q478 564 449 591T365 619Q288 619 246
570T184 417L160 298Q151 253 151 222Q151 152 180 116T272 79Q333 79 371 108T432 200L519 159Q481 78 417 33T260 -12Z" />
<glyph unicode="D" glyph-name="D" horiz-adv-x="596" d="M165 698H364Q424 698 466 681T535 633T573 561T585 474Q585 432 578 384T563 297Q548 229 522 174T457 81T366 21T248 0H25L165 698ZM260 90Q342 90 385 135T449 281L472 395Q481 440 481 471Q481 539
451 573T353 608H250L145 90H260Z" />
<glyph unicode="E" glyph-name="E" horiz-adv-x="519" d="M25 0L165 698H551L533 608H250L208 400H462L443 310H190L145 90H443L425 0H25Z" />
<glyph unicode="F" glyph-name="F" horiz-adv-x="498" d="M25 0L165 698H541L523 608H250L208 400H454L436 310H190L128 0H25Z" />
<glyph unicode="G" glyph-name="G" horiz-adv-x="614" d="M432 111H420Q401 55 359 22T245 -12Q151 -12 99 48T46 217Q46 262 54 312T70 401Q102 555 180 632T382 710Q476 710 529 667T602 550L510 511Q501 563 469 591T375 619Q294 619 250 572T184 417L160 298Q151
253 151 222Q151 153 182 116T275 79Q344 79 388 117T445 217L458 281H334L352 367H574L500 0H410L432 111Z" />
<glyph unicode="H" glyph-name="H" horiz-adv-x="629" d="M459 310H190L128 0H25L165 698H268L208 400H478L537 698H640L500 0H397L459 310Z" />
<glyph unicode="I" glyph-name="I" horiz-adv-x="369" d="M1 0L17 84H98L205 614H124L141 698H405L388 614H308L201 84H282L265 0H1Z" />
<glyph unicode="J" glyph-name="J" horiz-adv-x="466" d="M480 698L372 161Q354 68 305 28T167 -12Q91 -12 48 34T3 158L94 177Q96 135 113 107T173 79Q195 79 211 83T239 98T259 127T272 172L360 612H162L179 698H480Z" />
<glyph unicode="K" glyph-name="K" horiz-adv-x="577" d="M280 329L170 212L128 0H25L165 698H268L223 475L190 340H201L310 469L510 698H637L359 393L514 0H402L280 329Z" />
<glyph unicode="L" glyph-name="L" horiz-adv-x="444" d="M25 0L165 698H268L145 90H391L372 0H25Z" />
<glyph unicode="M" glyph-name="M" horiz-adv-x="720" d="M580 434L611 566H599L521 435L336 148L263 435L236 566H225L210 434L123 0H25L165 698H281L346 437L365 316H375L440 437L606 698H731L591 0H493L580 434Z" />
<glyph unicode="N" glyph-name="N" horiz-adv-x="630" d="M270 419L239 566H227L207 419L123 0H25L165 698H288L396 279L427 132H439L459 279L543 698H641L501 0H378L270 419Z" />
<glyph unicode="O" glyph-name="O" horiz-adv-x="619" d="M267 -12Q160 -12 103 47T46 219Q46 254 52 302T70 401Q105 555 183 632T384 710Q491 710 548 651T605 479Q605 444 599 396T581 297Q546 143 468 66T267 -12ZM279 79Q359 79 403 128T467 281L491 400Q500
445 500 476Q500 546 469 582T372 619Q292 619 248 570T184 417L160 298Q151 253 151 222Q151 152 182 116T279 79Z" />
<glyph unicode="P" glyph-name="P" horiz-adv-x="556" d="M25 0L165 698H403Q491 698 530 657T570 533Q570 479 554 434T509 355T437 303T344 284H184L128 0H25ZM203 374H356Q430 374 451 461Q459 493 461 512T464 545Q464 575 450 591T397 608H250L203 374Z" />
<glyph unicode="Q" glyph-name="Q" horiz-adv-x="619" d="M370 -171H266Q228 -171 212 -158T195 -115Q195 -108 196 -99T201 -70L213 -7Q132 7 89 65T46 219Q46 254 52 302T70 401Q105 555 183 632T384 710Q491 710 548 651T605 479Q605 444 599 396T581 297Q549
156 481 79T308 -9L292 -89H386L370 -171ZM279 79Q359 79 403 128T467 281L491 400Q500 445 500 476Q500 546 469 582T372 619Q292 619 248 570T184 417L160 298Q151 253 151 222Q151 152 182 116T279 79Z" />
<glyph unicode="R" glyph-name="R" horiz-adv-x="582" d="M128 0H25L165 698H403Q491 698 530 657T570 533Q570 442 526 378T405 294L485 0H377L306 286H185L128 0ZM356 374Q430 374 451 461Q459 495 461 513T464 545Q464 575 450 591T397 608H250L203 374H356Z" />
<glyph unicode="S" glyph-name="S" horiz-adv-x="525" d="M215 -12Q140 -12 84 17T-2 113L78 171Q101 122 134 101T219 79Q290 79 328 114T367 209Q367 247 348 270T284 309L233 327Q166 350 130 390T93 500Q93 546 109 584T155 651T230 694T329 710Q404 710 454
682T534 606L459 542Q435 584 404 601T322 619Q264 619 230 593T196 511Q196 472 215 452T273 417L324 399Q402 372 436 330T471 220Q471 171 454 129T405 56T324 6T215 -12Z" />
<glyph unicode="T" glyph-name="T" horiz-adv-x="503" d="M373 608L251 0H148L270 608H92L110 698H569L550 608H373Z" />
<glyph unicode="U" glyph-name="U" horiz-adv-x="600" d="M262 698L173 258Q168 236 167 219T165 189Q165 127 192 103T272 79Q303 79 327 87T369 117T402 174T427 264L514 698H617L529 260Q513 182 491 130T437 46T363 1T265 -12Q167 -12 116 31T64 178Q64 198
66 224T75 280L159 698H262Z" />
<glyph unicode="V" glyph-name="V" horiz-adv-x="547" d="M161 0L101 698H203L234 261V92H246L313 261L513 698H622L283 0H161Z" />
<glyph unicode="W" glyph-name="W" horiz-adv-x="815" d="M114 0L109 698H210L205 272L194 96H205L261 272L433 698H554L558 272L549 93H561L617 272L775 698H881L598 0H474L471 382L479 596H467L390 378L240 0H114Z" />
<glyph unicode="X" glyph-name="X" horiz-adv-x="568" d="M491 0H382L288 273H278L88 0H-29L241 362L117 698H226L316 434H327L512 698H629L363 346L491 0Z" />
<glyph unicode="Y" glyph-name="Y" horiz-adv-x="536" d="M165 0L219 270L96 698H201L285 375H297L503 698H618L321 265L268 0H165Z" />
<glyph unicode="Z" glyph-name="Z" horiz-adv-x="520" d="M430 0H-14L5 92L422 608H116L134 698H562L543 606L125 90H448L430 0Z" />
<glyph unicode="[" glyph-name="bracketleft" horiz-adv-x="303" d="M4 -138L184 760H354L339 687H259L109 -65H189L174 -138H4Z" />
<glyph unicode="\" glyph-name="backslash" horiz-adv-x="368" d="M197 -151L129 740H211L280 -151H197Z" />
<glyph unicode="]" glyph-name="bracketright" horiz-adv-x="303" d="M320 760L140 -138H-30L-15 -65H65L215 687H135L150 760H320Z" />
<glyph unicode="^" glyph-name="asciicircum" horiz-adv-x="540" d="M428 295L342 598H330L129 295L57 342L300 698H397L510 323L428 295Z" />
<glyph unicode="_" glyph-name="underscore" horiz-adv-x="492" d="M-55 -171L-38 -88H402L386 -171H-55Z" />
<glyph unicode="`" glyph-name="grave" horiz-adv-x="540" d="M178 757L265 795L321 608L260 582L178 757Z" />
<glyph unicode="a" glyph-name="a" horiz-adv-x="531" d="M377 0Q314 0 314 56Q314 69 318 88L323 114H312Q288 51 253 20T162 -12Q99 -12 66 31T33 156Q33 185 36 218T46 281Q69 401 123 466T263 532Q311 532 341 506T375 432H387L404 520H503L415 82H475L459
0H377ZM207 72Q260 72 296 123Q313 148 327 176T347 231L370 349Q374 368 370 385T354 417T324 439T283 448Q232 448 202 415T159 317L140 221Q136 204 135 186T133 156Q133 72 207 72Z" />
<glyph unicode="b" glyph-name="b" horiz-adv-x="526" d="M170 740H269L202 406H213Q237 469 272 500T363 532Q426 532 459 489T492 364Q492 335 489 302T479 239Q456 119 402 54T262 -12Q214 -12 184 14T150 88H138L121 0H22L170 740ZM242 72Q293 72 323 105T366
203L385 299Q389 316 390 334T392 364Q392 448 318 448Q265 448 229 397Q212 372 198 344T178 289L155 171Q151 152 155 135T171 103T201 81T242 72Z" />
<glyph unicode="c" glyph-name="c" horiz-adv-x="444" d="M207 -12Q162 -12 129 2T75 42T44 103T33 180Q33 205 36 235T45 293Q68 405 127 468T281 532Q353 532 392 497T443 406L359 371Q352 412 332 430T274 448Q226 448 199 417T157 319L136 214Q134 203 133
191T132 167Q132 117 153 95T216 72Q258 72 283 94T326 166L405 129Q377 59 327 24T207 -12Z" />
<glyph unicode="d" glyph-name="d" horiz-adv-x="537" d="M379 0Q316 0 316 56Q316 64 317 71T320 88L325 114H314Q290 51 255 20T164 -12Q101 -12 68 31T35 156Q35 185 38 218T48 281Q71 401 125 466T265 532Q313 532 343 506T377 432H389L450 740H549L417 82H477L461
0H379ZM209 72Q262 72 298 123Q315 148 329 176T349 231L372 349Q376 368 372 385T356 417T326 439T285 448Q234 448 204 415T161 317L142 221Q138 204 137 186T135 156Q135 72 209 72Z" />
<glyph unicode="e" glyph-name="e" horiz-adv-x="464" d="M215 -12Q121 -12 77 39T33 180Q33 205 36 236T45 293Q71 410 132 471T289 532Q359 532 404 497T450 391Q450 303 374 262T137 217Q134 203 133 190T132 168Q132 118 153 95T220 72Q306 72 356 151L417
99Q347 -12 215 -12ZM278 451Q230 451 201 421T159 329L150 287Q210 290 249 296T310 314T342 343T351 383Q351 451 278 451Z" />
<glyph unicode="f" glyph-name="f" horiz-adv-x="313" d="M130 -102Q120 -153 93 -176T15 -200H-72L-56 -118H28L139 438H70L86 520H156L180 642Q190 693 217 716T295 740H388L371 658H282L255 520H343L327 438H238L130 -102Z" />
<glyph unicode="g" glyph-name="g" horiz-adv-x="483" d="M433 -31Q433 -72 419 -105T374 -162T292 -199T168 -212Q64 -212 22 -184T-21 -100Q-21 -57 5 -28T79 9L82 23Q59 29 48 46T36 89Q36 130 64 154T136 185L138 196Q105 213 90 245T74 323Q74 369 88 407T129
474T195 517T285 532Q335 532 372 515L378 545Q383 572 398 585T444 599H515L499 517H410L405 491Q424 474 435 445T446 376Q446 332 432 296T390 233T322 192T230 177Q204 177 176 182Q150 176 136 162T122 125Q122 90 171 90H293Q369 90 401 60T433 -31ZM333
-52Q333 -23 320 -11T270 1H107Q67 -21 67 -73Q67 -105 84 -121T149 -138H211Q278 -138 305 -117T333 -52ZM244 250Q287 250 309 270T343 339Q348 358 349 372T350 395Q350 426 334 442T276 459Q233 459 211 439T177 370Q172 351 171 337T170 314Q170 283 186 267T244
250Z" />
<glyph unicode="h" glyph-name="h" horiz-adv-x="524" d="M170 740H269L203 411H215Q259 532 364 532Q420 532 447 498T475 400Q475 383 472 363T464 323L416 82H473L457 0H375Q314 0 314 58Q314 65 315 72T318 87L364 319Q367 336 369 352T372 383Q372 418 357
432T314 447Q287 447 267 436T230 403Q212 379 198 348T179 288L121 0H22L170 740Z" />
<glyph unicode="i" glyph-name="i" horiz-adv-x="253" d="M194 619Q142 619 142 661Q142 673 148 691Q156 717 172 729T217 742Q269 742 269 700Q269 688 263 670Q255 644 239 632T194 619ZM97 0Q65 0 50 12T35 52Q35 68 39 85L126 520H225L137 82H194L178 0H97Z" />
<glyph unicode="j" glyph-name="j" horiz-adv-x="250" d="M131 520H230L105 -105Q94 -158 70 -179T-4 -200H-83L-67 -118H3L131 520ZM200 619Q148 619 148 661Q148 673 154 691Q162 717 178 729T223 742Q275 742 275 700Q275 688 269 670Q261 644 245 632T200 619Z" />
<glyph unicode="k" glyph-name="k" horiz-adv-x="487" d="M170 740H269L195 373L167 269H178L253 366L395 520H513L311 308L381 82H438L422 0H361Q332 0 316 12T291 53L231 249L155 170L121 0H22L170 740Z" />
<glyph unicode="l" glyph-name="l" horiz-adv-x="257" d="M97 0Q66 0 51 13T35 57Q35 64 36 71T39 87L170 740H269L137 82H201L185 0H97Z" />
<glyph unicode="m" glyph-name="m" horiz-adv-x="781" d="M22 0L126 520H225L203 411H215Q259 532 357 532Q408 532 434 501T463 411H475Q518 532 625 532Q679 532 705 498T732 400Q732 383 729 363T722 323L674 82H731L715 0H633Q572 0 572 55Q572 73 576 90L621
315Q624 332 626 350T629 383Q629 418 616 432T575 447Q550 447 533 436T498 403Q480 379 467 351T448 295L389 0H290L355 325Q361 356 361 383Q361 418 348 432T307 447Q282 447 265 436T230 403Q212 379 199 349T179 290L121 0H22Z" />
<glyph unicode="n" glyph-name="n" horiz-adv-x="524" d="M22 0L126 520H225L203 411H215Q259 532 364 532Q420 532 447 498T475 400Q475 383 472 362T464 322L416 82H473L457 0H375Q314 0 314 55Q314 71 318 88L364 318Q367 335 369 352T372 383Q372 418 357
432T314 447Q287 447 267 436T230 403Q212 379 199 349T179 290L121 0H22Z" />
<glyph unicode="o" glyph-name="o" horiz-adv-x="492" d="M208 -12Q122 -12 78 37T33 180Q33 203 36 233T45 293Q95 532 284 532Q370 532 414 483T459 340Q459 317 456 287T447 227Q397 -12 208 -12ZM216 72Q266 72 293 103T335 201L356 306Q358 317 359 329T360
352Q360 403 339 425T276 448Q226 448 199 417T157 319L136 214Q134 203 133 191T132 168Q132 117 153 95T216 72Z" />
<glyph unicode="p" glyph-name="p" horiz-adv-x="526" d="M126 520H225L202 406H213Q237 469 272 500T363 532Q426 532 459 489T492 364Q492 335 489 302T479 239Q456 119 402 54T262 -12Q214 -12 184 14T150 88H138L81 -200H-18L126 520ZM242 72Q293 72 323 105T366
203L385 299Q389 316 390 334T392 363Q392 448 318 448Q265 448 229 397Q212 372 198 344T178 289L155 171Q151 152 155 134T171 103T201 81T242 72Z" />
<glyph unicode="q" glyph-name="q" horiz-adv-x="525" d="M325 114H314Q290 51 255 20T164 -12Q101 -12 68 31T35 156Q35 185 38 218T48 281Q71 401 125 466T265 532Q313 532 343 506T377 432H389L406 520H505L362 -200H263L325 114ZM209 72Q262 72 298 123Q315
148 329 176T349 231L372 349Q376 368 372 385T356 417T326 439T285 448Q234 448 204 415T161 317L142 221Q138 204 137 186T135 156Q135 72 209 72Z" />
<glyph unicode="r" glyph-name="r" horiz-adv-x="348" d="M22 0L126 520H225L203 411H215Q232 464 264 492T349 520H378L357 422H311Q255 422 225 393T181 300L121 0H22Z" />
<glyph unicode="s" glyph-name="s" horiz-adv-x="441" d="M186 -12Q123 -12 80 12T7 81L72 140Q96 101 122 86T189 71Q234 71 259 90T285 149Q285 172 273 187T229 213L186 228Q122 250 96 281T69 364Q69 399 81 429T116 483T175 519T259 532Q313 532 350 513T418
453L353 394Q318 449 251 449Q209 449 188 431T166 377Q166 353 178 339T220 314L263 299Q327 277 354 247T382 162Q382 81 329 35T186 -12Z" />
<glyph unicode="t" glyph-name="t" horiz-adv-x="304" d="M107 0Q75 0 60 13T45 57Q45 71 49 88L119 438H52L69 520H103Q128 520 137 529T152 566L171 661H263L235 520H330L314 438H218L147 82H236L219 0H107Z" />
<glyph unicode="u" glyph-name="u" horiz-adv-x="523" d="M219 520L156 201Q148 166 148 137Q148 102 162 87T205 72Q231 72 250 83T286 117Q305 141 318 171T338 231L396 520H495L408 82H466L450 0H367Q305 0 305 58Q305 65 306 72T309 88L313 109H302Q257 -12
153 -12Q98 -12 72 22T45 120Q45 137 48 157T55 197L120 520H219Z" />
<glyph unicode="v" glyph-name="v" horiz-adv-x="446" d="M111 0L54 520H152L177 273L181 86H192L266 273L383 520H486L234 0H111Z" />
<glyph unicode="w" glyph-name="w" horiz-adv-x="688" d="M61 520H159L163 277L161 90H173L240 277L339 520H444L453 277L454 90H465L532 277L626 520H724L506 0H385L378 251L382 429H370L314 249L210 0H82L61 520Z" />
<glyph unicode="x" glyph-name="x" horiz-adv-x="462" d="M-37 0L174 274L74 520H180L244 335H255L392 520H501L293 254L394 0H288L222 192H211L71 0H-37Z" />
<glyph unicode="y" glyph-name="y" horiz-adv-x="455" d="M392 520H497L178 -124Q157 -167 131 -183T59 -200H-25L-8 -118H82L123 -29L62 520H160L186 273L189 86H200L274 273L392 520Z" />
<glyph unicode="z" glyph-name="z" horiz-adv-x="430" d="M-9 0L7 79L310 438H80L96 520H443L428 441L125 82H369L352 0H-9Z" />
<glyph unicode="{" glyph-name="braceleft" horiz-adv-x="323" d="M114 -138Q87 -138 71 -124T55 -86Q55 -72 60 -49L105 178Q108 190 109 198T110 217Q110 267 40 267L57 355Q101 355 124 371T156 429L208 690Q223 760 279 760H392L377 687H297L245 425Q234 375
207 348T119 315L117 302Q201 290 201 227Q201 216 199 203T195 175L147 -65H227L212 -138H114Z" />
<glyph unicode="|" glyph-name="bar" horiz-adv-x="332" d="M43 -138L223 760H310L130 -138H43Z" />
<glyph unicode="}" glyph-name="braceright" horiz-adv-x="323" d="M-33 -65H47L99 197Q110 247 137 274T225 307L227 320Q143 332 143 395Q143 406 145 419T149 447L197 687H117L132 760H230Q257 760 273 746T289 708Q289 694 284 671L239 444Q236 432 235 424T234
405Q234 355 304 355L287 267Q243 267 220 251T188 193L136 -68Q121 -138 65 -138H-48L-33 -65Z" />
<glyph unicode="~" glyph-name="asciitilde" horiz-adv-x="540" d="M372 228Q345 228 322 235T266 264Q235 284 215 292T172 300Q155 300 139 294T94 268L67 327Q115 382 188 382Q215 382 238 375T294 346Q325 326 345 318T388 310Q405 310 421 316T466 342L493
283Q445 228 372 228Z" />
<glyph unicode="&#xa0;" glyph-name="uni00A0" horiz-adv-x="212" />
<glyph unicode="&#xa1;" glyph-name="exclamdown" horiz-adv-x="276" d="M-2 -178L38 23L128 323H173L144 23L104 -178H-2ZM163 391Q136 391 121 403T106 436Q106 442 108 453T113 476Q121 503 138 517T190 531Q217 531 232 519T247 486Q247 480 245 469T240 446Q232
419 215 405T163 391Z" />
<glyph unicode="&#xa2;" glyph-name="cent" horiz-adv-x="464" d="M157 -5Q94 10 64 59T33 177Q33 202 36 232T45 290Q65 393 121 455T264 525L285 630H364L342 521Q392 510 420 480T458 407L379 369Q373 399 360 416T321 439L247 72Q285 77 308 100T344 162L416
120Q391 59 345 27T235 -11L215 -114H136L157 -5ZM130 165Q130 96 180 78L253 441Q177 426 155 317L134 212Q132 200 131 188T130 165Z" />
<glyph unicode="&#xa3;" glyph-name="sterling" horiz-adv-x="535" d="M26 0L48 110Q93 130 118 177T146 293H60L77 375H139Q137 394 136 412T135 448Q135 507 151 555T197 638T273 691T377 710Q443 710 486 682T559 593L475 538Q455 584 432 601T368 619Q237
619 237 447Q237 430 238 412T241 375H418L402 293H247Q246 253 236 221T209 164T169 123T120 100L118 90H449L431 0H26Z" />
<glyph unicode="&#xa5;" glyph-name="yen" horiz-adv-x="557" d="M306 141L278 0H175L203 141H55L69 212H218L236 303H87L101 374H211L119 698H224L299 397H311L503 698H618L393 374H501L486 303H339L320 212H469L454 141H306Z" />
<glyph unicode="&#xa6;" glyph-name="brokenbar" horiz-adv-x="332" d="M152 404L223 760H310L239 404H152ZM43 -138L115 218H202L130 -138H43Z" />
<glyph unicode="&#xa7;" glyph-name="section" horiz-adv-x="509" d="M456 299Q456 242 423 202T330 148L329 138Q355 115 366 88T378 26Q378 -16 364 -49T323 -107T258 -144T174 -157Q123 -157 83 -141T15 -92L77 -30Q99 -55 124 -66T183 -78Q232 -78 259 -55T286
12Q286 43 271 62T224 94L162 118Q109 138 84 171T58 254Q58 311 91 351T184 405L185 415Q159 438 148 465T136 527Q136 569 150 602T191 660T255 697T340 710Q391 710 431 694T499 645L437 583Q415 608 390 619T331 631Q282 631 255 608T228 541Q228 510 243 491T290
459L352 435Q405 415 430 382T456 299ZM149 285Q149 249 165 227T218 190L300 159Q365 198 365 268Q365 304 349 326T296 363L214 394Q149 355 149 285Z" />
<glyph unicode="&#xa8;" glyph-name="dieresis" horiz-adv-x="540" d="M194 612Q169 612 158 622T146 648Q146 654 147 660T151 681Q156 704 171 717T218 730Q243 730 254 720T266 694Q266 688 265 682T261 661Q256 638 241 625T194 612ZM368 612Q343 612 332
622T320 648Q320 654 321 660T325 681Q330 704 345 717T392 730Q417 730 428 720T440 694Q440 688 439 682T435 661Q430 638 415 625T368 612Z" />
<glyph unicode="&#xa9;" glyph-name="copyright" horiz-adv-x="718" d="M334 45Q387 45 433 62T515 111T577 188T616 292Q635 378 635 422Q635 529 580 591T421 653Q368 653 322 636T240 587T178 510T139 406Q120 320 120 276Q120 169 175 107T334 45ZM327 -12Q263
-12 213 8T127 65T74 157T55 278Q55 310 59 346T72 413Q88 481 120 536T197 629T301 689T428 710Q492 710 542 690T628 633T681 541T700 420Q700 388 696 352T683 285Q667 217 635 162T558 69T454 9T327 -12ZM353 148Q287 148 252 186T217 290Q217 309 220 333T226
374Q243 455 290 502T408 550Q463 550 496 522T536 449L465 419Q459 451 445 464T404 478Q370 478 352 456T323 388L309 320Q306 303 306 285Q306 220 361 220Q419 220 444 286L506 246Q482 197 443 173T353 148Z" />
<glyph unicode="&#xaa;" glyph-name="ordfeminine" horiz-adv-x="375" d="M355 351H306Q282 351 272 360T262 390Q262 393 262 397T264 408H255Q242 378 219 361T157 343Q115 343 93 364T71 424Q71 486 108 517T223 549H286L291 578Q294 593 294 606Q294 629 284
638T247 648Q191 648 157 601L116 639Q167 710 254 710Q308 710 339 686T370 610Q370 601 369 591T365 568L334 412H367L355 351ZM217 503Q157 503 148 457Q146 445 146 440T145 431Q145 398 187 398Q217 398 239 414T267 459L276 503H217Z" />
<glyph unicode="&#xab;" glyph-name="guillemotleft" horiz-adv-x="477" d="M165 87L29 238L46 327L233 473L263 406L120 281L117 269L212 142L165 87ZM368 87L232 238L249 327L436 473L466 406L323 281L320 269L415 142L368 87Z" />
<glyph unicode="&#xac;" glyph-name="logicalnot" horiz-adv-x="540" d="M347 78L385 265H62L78 347H492L438 78H347Z" />
<glyph unicode="&#xad;" glyph-name="uni00AD" horiz-adv-x="352" d="M52 255L72 354H318L298 255H52Z" />
<glyph unicode="&#xae;" glyph-name="registered" horiz-adv-x="441" d="M244 298Q203 298 171 311T117 347T84 402T73 470Q73 523 89 567T134 643T203 692T294 710Q335 710 367 697T420 661T453 606T465 538Q465 485 449 441T404 365T334 316T244 298ZM248 336Q314
336 358 374T414 478Q419 507 420 519T421 538Q421 599 387 635T290 672Q224 672 180 634T124 530Q119 501 118 489T117 470Q117 409 151 373T248 336ZM224 400H178L220 609H302Q330 609 342 595T355 557Q355 528 342 507T306 480L331 400H283L262 474H240L224
400ZM281 509Q298 509 304 530Q307 541 308 548T309 558Q309 564 305 568T293 573H258L246 509H281Z" />
<glyph unicode="&#xaf;" glyph-name="overscore" horiz-adv-x="540" d="M177 712H421L406 634H162L177 712Z" />
<glyph unicode="&#xb0;" glyph-name="degree" horiz-adv-x="417" d="M242 370Q179 370 140 409T100 517Q100 560 114 595T152 656T211 696T285 710Q348 710 387 671T427 563Q427 520 413 485T374 424T316 384T242 370ZM252 439Q297 439 324 471T351 560Q351 598
331 619T275 641Q230 641 203 608T176 520Q176 482 196 461T252 439Z" />
<glyph unicode="&#xb1;" glyph-name="plusminus" horiz-adv-x="540" d="M209 184L243 352H79L96 434H259L293 602H385L351 434H514L498 352H334L301 184H209ZM8 0L24 80H443L427 0H8Z" />
<glyph unicode="&#xb2;" glyph-name="twosuperior" horiz-adv-x="320" d="M290 329H45L58 394L201 504Q230 525 241 540T258 578Q261 591 261 604Q261 621 249 631T217 642Q193 642 176 628T150 587L93 612Q130 704 226 704Q279 704 307 678T336 604Q336 584 331
567T315 532T286 498T240 461L141 388H302L290 329Z" />
<glyph unicode="&#xb3;" glyph-name="threesuperior" horiz-adv-x="320" d="M193 549Q244 549 254 589Q257 601 257 613Q257 627 245 635T214 644Q191 644 173 635T137 600L98 642Q126 675 155 689T225 704Q276 704 303 682T330 617Q330 575 308 551T244 523L242
515Q304 509 304 444Q304 387 267 355T163 323Q68 323 43 393L95 430Q103 404 120 394T165 383Q193 383 207 392T228 428Q231 441 231 453Q231 470 218 480T181 490H142L154 549H193Z" />
<glyph unicode="&#xb4;" glyph-name="acute" horiz-adv-x="540" d="M288 582L230 617L336 795L413 746L288 582Z" />
<glyph unicode="&#xb5;" glyph-name="mu" horiz-adv-x="529" d="M-17 -200L126 520H225L162 201Q154 166 154 137Q154 102 168 88T212 73Q236 73 255 83T292 117Q311 141 324 171T344 231L402 520H501L413 82H472L456 0H373Q311 0 311 58Q311 65 312 72T315 88L320
109H308Q265 -12 185 -12Q157 -12 140 3T121 41H111L108 -68L83 -200H-17Z" />
<glyph unicode="&#xb6;" glyph-name="paragraph" horiz-adv-x="572" d="M211 289Q180 289 155 302T111 339T82 394T72 463Q72 516 88 559T134 633T206 681T299 698H596L580 622H525L371 -149H292L446 622H356L202 -149H123L211 289Z" />
<glyph unicode="&#xb7;" glyph-name="middot" horiz-adv-x="301" d="M147 234Q119 234 104 246T89 279Q89 285 90 296T95 319Q103 345 120 359T172 374Q200 374 215 362T230 329Q230 323 229 312T224 289Q216 263 199 249T147 234Z" />
<glyph unicode="&#xb8;" glyph-name="cedilla" horiz-adv-x="540" d="M250 -208Q212 -208 189 -196T155 -166L196 -124Q203 -135 215 -143T250 -152Q273 -152 284 -142T295 -113Q295 -98 287 -92T255 -86H215L253 19H305L272 -71H280Q285 -63 294 -58T320 -52Q367
-52 367 -107Q367 -157 335 -182T250 -208Z" />
<glyph unicode="&#xb9;" glyph-name="onesuperior" horiz-adv-x="320" d="M69 329L80 389H165L213 629L127 580L102 629L223 698H298L235 389H310L299 329H69Z" />
<glyph unicode="&#xba;" glyph-name="ordmasculine" horiz-adv-x="367" d="M210 342Q150 342 117 375T84 472Q84 489 85 509T92 549Q109 626 152 668T262 710Q322 710 355 677T388 580Q388 563 387 543T380 503Q363 426 320 384T210 342ZM216 401Q282 401 298
487L311 556Q313 564 314 572T315 587Q315 651 256 651Q190 651 174 565L161 496Q159 488 158 480T157 465Q157 401 216 401Z" />
<glyph unicode="&#xbb;" glyph-name="guillemotright" horiz-adv-x="477" d="M20 154L163 279L166 291L71 418L118 473L254 322L237 233L50 87L20 154ZM223 154L366 279L369 291L274 418L321 473L457 322L440 233L253 87L223 154Z" />
<glyph unicode="&#xbc;" glyph-name="onequarter" horiz-adv-x="737" d="M69 329L80 389H165L213 629L127 580L102 629L223 698H298L235 389H310L299 329H69ZM638 698H723L502 434H417L638 698ZM266 254H351L138 0H53L266 254ZM540 0L554 72H397L409 132L592 369H684L635
128H679L668 72H624L610 0H540ZM597 288H589L469 128H565L597 288Z" />
<glyph unicode="&#xbd;" glyph-name="onehalf" horiz-adv-x="737" d="M69 329L80 389H165L213 629L127 580L102 629L223 698H298L235 389H310L299 329H69ZM638 698H723L502 434H417L638 698ZM266 254H351L138 0H53L266 254ZM648 0H403L416 65L559 175Q588 196
599 211T616 249Q619 262 619 275Q619 292 607 302T575 313Q551 313 534 299T508 258L451 283Q488 375 584 375Q637 375 665 349T694 275Q694 255 689 238T673 203T644 169T598 132L499 59H660L648 0Z" />
<glyph unicode="&#xbe;" glyph-name="threequarters" horiz-adv-x="737" d="M193 549Q244 549 254 589Q257 601 257 613Q257 627 245 635T214 644Q191 644 173 635T137 600L98 642Q126 675 155 689T225 704Q276 704 303 682T330 617Q330 575 308 551T244 523L242
515Q304 509 304 444Q304 387 267 355T163 323Q68 323 43 393L95 430Q103 404 120 394T165 383Q193 383 207 392T228 428Q231 441 231 453Q231 470 218 480T181 490H142L154 549H193ZM638 698H723L502 434H417L638 698ZM266 254H351L138 0H53L266 254ZM540 0L554
72H397L409 132L592 369H684L635 128H679L668 72H624L610 0H540ZM597 288H589L469 128H565L597 288Z" />
<glyph unicode="&#xbf;" glyph-name="questiondown" horiz-adv-x="429" d="M151 -190Q68 -190 25 -149T-19 -31Q-19 16 -5 55T36 125T98 176T178 206L198 304H294L262 144Q190 139 147 109T92 29Q90 18 88 3T86 -22Q86 -60 106 -81T164 -102Q206 -102 234 -76T282
8L364 -27Q330 -112 279 -151T151 -190ZM259 391Q232 391 217 403T202 436Q202 442 204 453T209 476Q217 503 234 517T286 531Q313 531 328 519T343 486Q343 480 341 469T336 446Q328 419 311 405T259 391Z" />
<glyph unicode="&#xc0;" glyph-name="Agrave" horiz-adv-x="573" d="M401 0L386 195H165L75 0H-34L305 698H442L505 0H401ZM363 499L360 608H348L305 499L207 280H380L363 499ZM291 923L378 961L433 775L373 749L291 923Z" />
<glyph unicode="&#xc1;" glyph-name="Aacute" horiz-adv-x="573" d="M401 0L386 195H165L75 0H-34L305 698H442L505 0H401ZM363 499L360 608H348L305 499L207 280H380L363 499ZM400 749L342 784L447 961L525 912L400 749Z" />
<glyph unicode="&#xc2;" glyph-name="Acircumflex" horiz-adv-x="573" d="M401 0L386 195H165L75 0H-34L305 698H442L505 0H401ZM363 499L360 608H348L305 499L207 280H380L363 499ZM460 944L542 787L488 752L405 872L277 752L228 792L364 944H460Z" />
<glyph unicode="&#xc3;" glyph-name="Atilde" horiz-adv-x="573" d="M401 0L386 195H165L75 0H-34L305 698H442L505 0H401ZM363 499L360 608H348L305 499L207 280H380L363 499ZM457 775Q441 775 426 780T388 799Q351 823 328 823Q314 823 304 818T274 796L243
845Q287 901 339 901Q355 901 370 896T408 877Q445 853 468 853Q482 853 492 858T522 880L553 831Q509 775 457 775Z" />
<glyph unicode="&#xc4;" glyph-name="Adieresis" horiz-adv-x="573" d="M401 0L386 195H165L75 0H-34L305 698H442L505 0H401ZM363 499L360 608H348L305 499L207 280H380L363 499ZM300 780Q275 780 264 790T252 816Q252 822 253 828T257 849Q262 872 277 885T324
899Q349 899 360 889T372 863Q372 857 371 851T367 830Q362 807 347 794T300 780ZM474 780Q449 780 438 790T426 816Q426 822 427 828T431 849Q436 872 451 885T498 899Q523 899 534 889T546 863Q546 857 545 851T541 830Q536 807 521 794T474 780Z" />
<glyph unicode="&#xc5;" glyph-name="Aring" horiz-adv-x="573" d="M401 0L386 195H165L75 0H-34L305 698H442L505 0H401ZM363 499L360 608H348L305 499L207 280H380L363 499ZM381 734Q329 734 301 761T273 841Q273 907 312 947T417 988Q469 988 497 961T525 881Q525
815 486 775T381 734ZM388 791Q435 791 446 834Q451 851 453 867T456 894Q456 931 410 931Q363 931 352 888Q347 871 345 855T342 828Q342 791 388 791Z" />
<glyph unicode="&#xc6;" glyph-name="AE" horiz-adv-x="818" d="M363 195H181L66 0H-47L385 698H850L832 608H549L507 400H761L742 310H489L444 90H742L724 0H324L363 195ZM433 608L235 280H380L447 608H433Z" />
<glyph unicode="&#xc7;" glyph-name="Ccedilla" horiz-adv-x="555" d="M348 -107Q348 -157 316 -182T231 -208Q193 -208 170 -196T136 -166L177 -124Q184 -135 196 -143T231 -152Q254 -152 265 -142T276 -113Q276 -98 267 -92T235 -86H196L223 -10Q136 0 91 58T46
219Q46 261 53 310T70 401Q105 559 179 634T374 710Q419 710 453 698T513 664T554 613T578 548L485 509Q478 564 449 591T365 619Q288 619 246 570T184 417L160 298Q151 253 151 222Q151 152 180 116T272 79Q333 79 371 108T432 200L519 159Q482 80 423 36T275
-12L253 -71H261Q266 -63 275 -58T301 -52Q348 -52 348 -107Z" />
<glyph unicode="&#xc8;" glyph-name="Egrave" horiz-adv-x="519" d="M25 0L165 698H551L533 608H250L208 400H462L443 310H190L145 90H443L425 0H25ZM276 923L363 961L418 775L358 749L276 923Z" />
<glyph unicode="&#xc9;" glyph-name="Eacute" horiz-adv-x="519" d="M25 0L165 698H551L533 608H250L208 400H462L443 310H190L145 90H443L425 0H25ZM385 749L327 784L432 961L510 912L385 749Z" />
<glyph unicode="&#xca;" glyph-name="Ecircumflex" horiz-adv-x="519" d="M25 0L165 698H551L533 608H250L208 400H462L443 310H190L145 90H443L425 0H25ZM445 944L527 787L473 752L390 872L262 752L213 792L349 944H445Z" />
<glyph unicode="&#xcb;" glyph-name="Edieresis" horiz-adv-x="519" d="M25 0L165 698H551L533 608H250L208 400H462L443 310H190L145 90H443L425 0H25ZM285 780Q260 780 249 790T237 816Q237 822 238 828T242 849Q247 872 262 885T309 899Q334 899 345 889T357
863Q357 857 356 851T352 830Q347 807 332 794T285 780ZM459 780Q434 780 423 790T411 816Q411 822 412 828T416 849Q421 872 436 885T483 899Q508 899 519 889T531 863Q531 857 530 851T526 830Q521 807 506 794T459 780Z" />
<glyph unicode="&#xcc;" glyph-name="Igrave" horiz-adv-x="369" d="M1 0L17 84H98L205 614H124L141 698H405L388 614H308L201 84H282L265 0H1ZM193 923L280 961L335 775L275 749L193 923Z" />
<glyph unicode="&#xcd;" glyph-name="Iacute" horiz-adv-x="369" d="M1 0L17 84H98L205 614H124L141 698H405L388 614H308L201 84H282L265 0H1ZM302 749L244 784L349 961L427 912L302 749Z" />
<glyph unicode="&#xce;" glyph-name="Icircumflex" horiz-adv-x="369" d="M1 0L17 84H98L205 614H124L141 698H405L388 614H308L201 84H282L265 0H1ZM362 944L444 787L390 752L307 872L179 752L130 792L266 944H362Z" />
<glyph unicode="&#xcf;" glyph-name="Idieresis" horiz-adv-x="369" d="M1 0L17 84H98L205 614H124L141 698H405L388 614H308L201 84H282L265 0H1ZM202 780Q177 780 166 790T154 816Q154 822 155 828T159 849Q164 872 179 885T226 899Q251 899 262 889T274 863Q274
857 273 851T269 830Q264 807 249 794T202 780ZM376 780Q351 780 340 790T328 816Q328 822 329 828T333 849Q338 872 353 885T400 899Q425 899 436 889T448 863Q448 857 447 851T443 830Q438 807 423 794T376 780Z" />
<glyph unicode="&#xd0;" glyph-name="Eth" horiz-adv-x="606" d="M100 323H22L38 401H115L175 698H374Q480 698 537 640T595 474Q595 432 588 384T573 297Q558 229 532 174T467 81T376 21T258 0H35L100 323ZM270 90Q352 90 395 135T459 281L482 395Q491 440 491
471Q491 539 461 573T363 608H260L218 401H325L309 323H202L155 90H270Z" />
<glyph unicode="&#xd1;" glyph-name="Ntilde" horiz-adv-x="630" d="M270 419L239 566H227L207 419L123 0H25L165 698H288L396 279L427 132H439L459 279L543 698H641L501 0H378L270 419ZM483 775Q467 775 452 780T414 799Q377 823 354 823Q340 823 330 818T300
796L269 845Q313 901 365 901Q381 901 396 896T434 877Q471 853 494 853Q508 853 518 858T548 880L579 831Q535 775 483 775Z" />
<glyph unicode="&#xd2;" glyph-name="Ograve" horiz-adv-x="619" d="M267 -12Q160 -12 103 47T46 219Q46 254 52 302T70 401Q105 555 183 632T384 710Q491 710 548 651T605 479Q605 444 599 396T581 297Q546 143 468 66T267 -12ZM279 79Q359 79 403 128T467 281L491
400Q500 445 500 476Q500 546 469 582T372 619Q292 619 248 570T184 417L160 298Q151 253 151 222Q151 152 182 116T279 79ZM315 923L402 961L457 775L397 749L315 923Z" />
<glyph unicode="&#xd3;" glyph-name="Oacute" horiz-adv-x="619" d="M267 -12Q160 -12 103 47T46 219Q46 254 52 302T70 401Q105 555 183 632T384 710Q491 710 548 651T605 479Q605 444 599 396T581 297Q546 143 468 66T267 -12ZM279 79Q359 79 403 128T467 281L491
400Q500 445 500 476Q500 546 469 582T372 619Q292 619 248 570T184 417L160 298Q151 253 151 222Q151 152 182 116T279 79ZM424 749L366 784L471 961L549 912L424 749Z" />
<glyph unicode="&#xd4;" glyph-name="Ocircumflex" horiz-adv-x="619" d="M267 -12Q160 -12 103 47T46 219Q46 254 52 302T70 401Q105 555 183 632T384 710Q491 710 548 651T605 479Q605 444 599 396T581 297Q546 143 468 66T267 -12ZM279 79Q359 79 403 128T467
281L491 400Q500 445 500 476Q500 546 469 582T372 619Q292 619 248 570T184 417L160 298Q151 253 151 222Q151 152 182 116T279 79ZM484 944L566 787L512 752L429 872L301 752L252 792L388 944H484Z" />
<glyph unicode="&#xd5;" glyph-name="Otilde" horiz-adv-x="619" d="M267 -12Q160 -12 103 47T46 219Q46 254 52 302T70 401Q105 555 183 632T384 710Q491 710 548 651T605 479Q605 444 599 396T581 297Q546 143 468 66T267 -12ZM279 79Q359 79 403 128T467 281L491
400Q500 445 500 476Q500 546 469 582T372 619Q292 619 248 570T184 417L160 298Q151 253 151 222Q151 152 182 116T279 79ZM481 775Q465 775 450 780T412 799Q375 823 352 823Q338 823 328 818T298 796L267 845Q311 901 363 901Q379 901 394 896T432 877Q469 853
492 853Q506 853 516 858T546 880L577 831Q533 775 481 775Z" />
<glyph unicode="&#xd6;" glyph-name="Odieresis" horiz-adv-x="619" d="M267 -12Q160 -12 103 47T46 219Q46 254 52 302T70 401Q105 555 183 632T384 710Q491 710 548 651T605 479Q605 444 599 396T581 297Q546 143 468 66T267 -12ZM279 79Q359 79 403 128T467
281L491 400Q500 445 500 476Q500 546 469 582T372 619Q292 619 248 570T184 417L160 298Q151 253 151 222Q151 152 182 116T279 79ZM324 780Q299 780 288 790T276 816Q276 822 277 828T281 849Q286 872 301 885T348 899Q373 899 384 889T396 863Q396 857 395 851T391
830Q386 807 371 794T324 780ZM498 780Q473 780 462 790T450 816Q450 822 451 828T455 849Q460 872 475 885T522 899Q547 899 558 889T570 863Q570 857 569 851T565 830Q560 807 545 794T498 780Z" />
<glyph unicode="&#xd7;" glyph-name="multiply" horiz-adv-x="540" d="M272 245L113 107L62 169L223 309L115 451L182 505L289 365L451 505L499 441L337 301L443 161L376 107L272 245Z" />
<glyph unicode="&#xd8;" glyph-name="Oslash" horiz-adv-x="619" d="M279 77Q361 77 404 125T469 279L489 379L507 526H497L314 276L180 114Q214 77 279 77ZM71 94Q57 121 52 152T46 219Q46 254 52 302T70 401Q105 555 183 632T384 710Q432 710 468 698T531 665L596
746L654 696L580 604Q594 577 599 546T605 479Q605 444 599 396T581 297Q546 143 468 66T267 -12Q219 -12 183 0T120 33L55 -48L-3 2L71 94ZM372 621Q290 621 247 573T182 419L162 319L144 172H154L337 422L471 584Q437 621 372 621Z" />
<glyph unicode="&#xd9;" glyph-name="Ugrave" horiz-adv-x="600" d="M262 698L173 258Q168 236 167 219T165 189Q165 127 192 103T272 79Q303 79 327 87T369 117T402 174T427 264L514 698H617L529 260Q513 182 491 130T437 46T363 1T265 -12Q167 -12 116 31T64
178Q64 198 66 224T75 280L159 698H262ZM304 923L391 961L446 775L386 749L304 923Z" />
<glyph unicode="&#xda;" glyph-name="Uacute" horiz-adv-x="600" d="M262 698L173 258Q168 236 167 219T165 189Q165 127 192 103T272 79Q303 79 327 87T369 117T402 174T427 264L514 698H617L529 260Q513 182 491 130T437 46T363 1T265 -12Q167 -12 116 31T64
178Q64 198 66 224T75 280L159 698H262ZM413 749L355 784L460 961L538 912L413 749Z" />
<glyph unicode="&#xdb;" glyph-name="Ucircumflex" horiz-adv-x="600" d="M262 698L173 258Q168 236 167 219T165 189Q165 127 192 103T272 79Q303 79 327 87T369 117T402 174T427 264L514 698H617L529 260Q513 182 491 130T437 46T363 1T265 -12Q167 -12 116
31T64 178Q64 198 66 224T75 280L159 698H262ZM473 944L555 787L501 752L418 872L290 752L241 792L377 944H473Z" />
<glyph unicode="&#xdc;" glyph-name="Udieresis" horiz-adv-x="600" d="M262 698L173 258Q168 236 167 219T165 189Q165 127 192 103T272 79Q303 79 327 87T369 117T402 174T427 264L514 698H617L529 260Q513 182 491 130T437 46T363 1T265 -12Q167 -12 116 31T64
178Q64 198 66 224T75 280L159 698H262ZM313 780Q288 780 277 790T265 816Q265 822 266 828T270 849Q275 872 290 885T337 899Q362 899 373 889T385 863Q385 857 384 851T380 830Q375 807 360 794T313 780ZM487 780Q462 780 451 790T439 816Q439 822 440 828T444
849Q449 872 464 885T511 899Q536 899 547 889T559 863Q559 857 558 851T554 830Q549 807 534 794T487 780Z" />
<glyph unicode="&#xdd;" glyph-name="Yacute" horiz-adv-x="536" d="M165 0L219 270L96 698H201L285 375H297L503 698H618L321 265L268 0H165ZM364 749L306 784L411 961L489 912L364 749Z" />
<glyph unicode="&#xde;" glyph-name="Thorn" horiz-adv-x="554" d="M25 0L165 698H268L241 563H376Q464 563 503 522T543 398Q543 344 527 299T482 220T410 168T317 149H157L128 0H25ZM176 239H329Q403 239 424 326Q432 358 434 377T437 410Q437 440 423 456T370
473H223L176 239Z" />
<glyph unicode="&#xdf;" glyph-name="germandbls" horiz-adv-x="593" d="M549 168Q549 127 536 94T499 38T441 1T365 -12Q309 -12 268 11T203 77L267 134Q302 72 369 72Q411 72 433 93T455 155Q455 179 445 192T404 221L371 236Q326 257 306 287T286 362Q286 435
332 477T463 524L467 543Q469 555 470 570T472 596Q472 636 449 652T378 668Q320 668 289 640T244 542L135 0H36L124 438H54L72 520H141L145 542Q164 645 226 698T386 752Q472 752 519 712T567 598Q567 581 565 564T560 532L544 452H488Q380 452 380 377Q380 354
390 340T427 312L459 296Q509 272 529 244T549 168Z" />
<glyph unicode="&#xe0;" glyph-name="agrave" horiz-adv-x="531" d="M377 0Q314 0 314 56Q314 69 318 88L323 114H312Q288 51 253 20T162 -12Q99 -12 66 31T33 156Q33 185 36 218T46 281Q69 401 123 466T263 532Q311 532 341 506T375 432H387L404 520H503L415
82H475L459 0H377ZM207 72Q260 72 296 123Q313 148 327 176T347 231L370 349Q374 368 370 385T354 417T324 439T283 448Q232 448 202 415T159 317L140 221Q136 204 135 186T133 156Q133 72 207 72ZM206 757L293 795L349 608L288 582L206 757Z" />
<glyph unicode="&#xe1;" glyph-name="aacute" horiz-adv-x="531" d="M377 0Q314 0 314 56Q314 69 318 88L323 114H312Q288 51 253 20T162 -12Q99 -12 66 31T33 156Q33 185 36 218T46 281Q69 401 123 466T263 532Q311 532 341 506T375 432H387L404 520H503L415
82H475L459 0H377ZM207 72Q260 72 296 123Q313 148 327 176T347 231L370 349Q374 368 370 385T354 417T324 439T283 448Q232 448 202 415T159 317L140 221Q136 204 135 186T133 156Q133 72 207 72ZM316 582L258 617L364 795L441 746L316 582Z" />
<glyph unicode="&#xe2;" glyph-name="acircumflex" horiz-adv-x="531" d="M377 0Q314 0 314 56Q314 69 318 88L323 114H312Q288 51 253 20T162 -12Q99 -12 66 31T33 156Q33 185 36 218T46 281Q69 401 123 466T263 532Q311 532 341 506T375 432H387L404 520H503L415
82H475L459 0H377ZM207 72Q260 72 296 123Q313 148 327 176T347 231L370 349Q374 368 370 385T354 417T324 439T283 448Q232 448 202 415T159 317L140 221Q136 204 135 186T133 156Q133 72 207 72ZM380 778L462 621L408 586L325 706L197 586L148 627L284 778H380Z"
/>
<glyph unicode="&#xe3;" glyph-name="atilde" horiz-adv-x="531" d="M377 0Q314 0 314 56Q314 69 318 88L323 114H312Q288 51 253 20T162 -12Q99 -12 66 31T33 156Q33 185 36 218T46 281Q69 401 123 466T263 532Q311 532 341 506T375 432H387L404 520H503L415
82H475L459 0H377ZM207 72Q260 72 296 123Q313 148 327 176T347 231L370 349Q374 368 370 385T354 417T324 439T283 448Q232 448 202 415T159 317L140 221Q136 204 135 186T133 156Q133 72 207 72ZM380 608Q363 608 347 613T311 632Q290 646 276 651T251 656Q237
656 227 651T197 629L166 679Q209 734 262 734Q279 734 295 729T331 710Q352 696 366 691T391 686Q405 686 415 691T445 713L476 663Q433 608 380 608Z" />
<glyph unicode="&#xe4;" glyph-name="adieresis" horiz-adv-x="531" d="M377 0Q314 0 314 56Q314 69 318 88L323 114H312Q288 51 253 20T162 -12Q99 -12 66 31T33 156Q33 185 36 218T46 281Q69 401 123 466T263 532Q311 532 341 506T375 432H387L404 520H503L415
82H475L459 0H377ZM207 72Q260 72 296 123Q313 148 327 176T347 231L370 349Q374 368 370 385T354 417T324 439T283 448Q232 448 202 415T159 317L140 221Q136 204 135 186T133 156Q133 72 207 72ZM222 612Q197 612 186 622T174 648Q174 654 175 660T179 681Q184
704 199 717T246 730Q271 730 282 720T294 694Q294 688 293 682T289 661Q284 638 269 625T222 612ZM396 612Q371 612 360 622T348 648Q348 654 349 660T353 681Q358 704 373 717T420 730Q445 730 456 720T468 694Q468 688 467 682T463 661Q458 638 443 625T396
612Z" />
<glyph unicode="&#xe5;" glyph-name="aring" horiz-adv-x="531" d="M377 0Q314 0 314 56Q314 69 318 88L323 114H312Q288 51 253 20T162 -12Q99 -12 66 31T33 156Q33 185 36 218T46 281Q69 401 123 466T263 532Q311 532 341 506T375 432H387L404 520H503L415 82H475L459
0H377ZM207 72Q260 72 296 123Q313 148 327 176T347 231L370 349Q374 368 370 385T354 417T324 439T283 448Q232 448 202 415T159 317L140 221Q136 204 135 186T133 156Q133 72 207 72ZM303 568Q254 568 225 593T196 675Q196 740 235 781T340 822Q389 822 418 797T447
715Q447 650 408 609T303 568ZM312 625Q359 625 369 668Q374 686 376 703T379 728Q379 765 331 765Q284 765 274 722Q269 704 267 687T264 662Q264 625 312 625Z" />
<glyph unicode="&#xe6;" glyph-name="ae" horiz-adv-x="738" d="M190 66Q232 66 261 89T299 152L314 225L234 223Q180 222 157 207T128 161Q125 145 124 136T123 120Q123 66 190 66ZM553 452Q459 452 434 329L427 295Q482 297 520 302T581 319T615 348T626 389Q626
419 607 435T553 452ZM156 -12Q21 -12 21 109Q21 200 71 241T234 287L327 291L336 339Q338 347 339 355T340 372Q340 412 321 430T258 449Q217 449 190 432T140 377L82 433Q111 479 160 505T269 531Q380 531 400 436H412Q432 483 475 507T575 532Q644 532 684 495T724
397Q724 353 707 322T652 271T555 241T413 229Q410 212 408 196T406 167Q406 117 427 94T496 71Q579 71 631 151L692 99Q658 44 608 16T492 -12Q429 -12 387 15T331 93H319Q299 42 256 15T156 -12Z" />
<glyph unicode="&#xe7;" glyph-name="ccedilla" horiz-adv-x="444" d="M281 532Q353 532 392 497T443 406L359 371Q352 412 332 430T274 448Q226 448 199 417T157 319L136 214Q134 203 133 191T132 167Q132 117 153 95T216 72Q258 72 283 94T326 166L405 129Q379
64 335 29T228 -11L206 -71H214Q219 -63 228 -58T254 -52Q301 -52 301 -107Q301 -157 269 -182T184 -208Q146 -208 123 -196T89 -166L130 -124Q137 -135 149 -143T184 -152Q207 -152 218 -142T229 -113Q229 -98 221 -92T189 -86H149L177 -10Q102 0 68 52T33 180Q33
205 36 235T45 293Q68 405 127 468T281 532Z" />
<glyph unicode="&#xe8;" glyph-name="egrave" horiz-adv-x="464" d="M215 -12Q121 -12 77 39T33 180Q33 205 36 236T45 293Q71 410 132 471T289 532Q359 532 404 497T450 391Q450 303 374 262T137 217Q134 203 133 190T132 168Q132 118 153 95T220 72Q306 72 356
151L417 99Q347 -12 215 -12ZM278 451Q230 451 201 421T159 329L150 287Q210 290 249 296T310 314T342 343T351 383Q351 451 278 451ZM204 757L291 795L347 608L286 582L204 757Z" />
<glyph unicode="&#xe9;" glyph-name="eacute" horiz-adv-x="464" d="M215 -12Q121 -12 77 39T33 180Q33 205 36 236T45 293Q71 410 132 471T289 532Q359 532 404 497T450 391Q450 303 374 262T137 217Q134 203 133 190T132 168Q132 118 153 95T220 72Q306 72 356
151L417 99Q347 -12 215 -12ZM278 451Q230 451 201 421T159 329L150 287Q210 290 249 296T310 314T342 343T351 383Q351 451 278 451ZM314 582L256 617L362 795L439 746L314 582Z" />
<glyph unicode="&#xea;" glyph-name="ecircumflex" horiz-adv-x="464" d="M215 -12Q121 -12 77 39T33 180Q33 205 36 236T45 293Q71 410 132 471T289 532Q359 532 404 497T450 391Q450 303 374 262T137 217Q134 203 133 190T132 168Q132 118 153 95T220 72Q306
72 356 151L417 99Q347 -12 215 -12ZM278 451Q230 451 201 421T159 329L150 287Q210 290 249 296T310 314T342 343T351 383Q351 451 278 451ZM378 778L460 621L406 586L323 706L195 586L146 627L282 778H378Z" />
<glyph unicode="&#xeb;" glyph-name="edieresis" horiz-adv-x="464" d="M215 -12Q121 -12 77 39T33 180Q33 205 36 236T45 293Q71 410 132 471T289 532Q359 532 404 497T450 391Q450 303 374 262T137 217Q134 203 133 190T132 168Q132 118 153 95T220 72Q306 72
356 151L417 99Q347 -12 215 -12ZM278 451Q230 451 201 421T159 329L150 287Q210 290 249 296T310 314T342 343T351 383Q351 451 278 451ZM220 612Q195 612 184 622T172 648Q172 654 173 660T177 681Q182 704 197 717T244 730Q269 730 280 720T292 694Q292 688
291 682T287 661Q282 638 267 625T220 612ZM394 612Q369 612 358 622T346 648Q346 654 347 660T351 681Q356 704 371 717T418 730Q443 730 454 720T466 694Q466 688 465 682T461 661Q456 638 441 625T394 612Z" />
<glyph unicode="&#xec;" glyph-name="igrave" horiz-adv-x="253" d="M97 0Q65 0 50 12T35 52Q35 68 39 85L126 520H225L137 82H194L178 0H97ZM342 757L429 795L485 608L424 582L342 757Z" />
<glyph unicode="&#xed;" glyph-name="iacute" horiz-adv-x="253" d="M97 0Q65 0 50 12T35 52Q35 68 39 85L126 520H225L137 82H194L178 0H97ZM452 582L394 617L500 795L577 746L452 582Z" />
<glyph unicode="&#xee;" glyph-name="icircumflex" horiz-adv-x="253" d="M97 0Q65 0 50 12T35 52Q35 68 39 85L126 520H225L137 82H194L178 0H97ZM297 627L423 778H519L591 621L537 586L464 706L346 586L297 627Z" />
<glyph unicode="&#xef;" glyph-name="idieresis" horiz-adv-x="253" d="M97 0Q65 0 50 12T35 52Q35 68 39 85L126 520H225L137 82H194L178 0H97ZM524 612Q499 612 488 622T476 648Q476 654 477 660T481 681Q486 704 501 717T548 730Q573 730 584 720T596 694Q596
688 595 682T591 661Q586 638 571 625T524 612ZM365 612Q340 612 329 622T317 648Q317 654 318 660T322 681Q327 704 342 717T389 730Q414 730 425 720T437 694Q437 688 436 682T432 661Q427 638 412 625T365 612Z" />
<glyph unicode="&#xf0;" glyph-name="eth" horiz-adv-x="511" d="M395 655Q432 601 454 534T477 388Q477 349 472 306T459 228Q434 108 375 48T213 -12Q166 -12 132 1T77 39T45 96T34 170Q34 193 37 223T46 282Q66 387 118 445T248 504Q299 504 328 480T367 415H379Q377
459 362 508T314 605L227 550L200 597L282 648Q238 700 177 740H318Q329 731 340 720T361 697L447 752L473 705L395 655ZM222 72Q274 72 301 102T340 194L358 284Q360 296 361 307T363 330Q363 420 274 420Q222 420 195 390T155 298L137 207Q135 196 134 184T133
161Q133 72 222 72Z" />
<glyph unicode="&#xf1;" glyph-name="ntilde" horiz-adv-x="524" d="M22 0L126 520H225L203 411H215Q259 532 364 532Q420 532 447 498T475 400Q475 383 472 362T464 322L416 82H473L457 0H375Q314 0 314 55Q314 71 318 88L364 318Q367 335 369 352T372 383Q372
418 357 432T314 447Q287 447 267 436T230 403Q212 379 199 349T179 290L121 0H22ZM400 608Q383 608 367 613T331 632Q310 646 296 651T271 656Q257 656 247 651T217 629L186 679Q229 734 282 734Q299 734 315 729T351 710Q372 696 386 691T411 686Q425 686 435
691T465 713L496 663Q453 608 400 608Z" />
<glyph unicode="&#xf2;" glyph-name="ograve" horiz-adv-x="492" d="M208 -12Q122 -12 78 37T33 180Q33 203 36 233T45 293Q95 532 284 532Q370 532 414 483T459 340Q459 317 456 287T447 227Q397 -12 208 -12ZM216 72Q266 72 293 103T335 201L356 306Q358 317
359 329T360 352Q360 403 339 425T276 448Q226 448 199 417T157 319L136 214Q134 203 133 191T132 168Q132 117 153 95T216 72ZM207 757L294 795L350 608L289 582L207 757Z" />
<glyph unicode="&#xf3;" glyph-name="oacute" horiz-adv-x="492" d="M208 -12Q122 -12 78 37T33 180Q33 203 36 233T45 293Q95 532 284 532Q370 532 414 483T459 340Q459 317 456 287T447 227Q397 -12 208 -12ZM216 72Q266 72 293 103T335 201L356 306Q358 317
359 329T360 352Q360 403 339 425T276 448Q226 448 199 417T157 319L136 214Q134 203 133 191T132 168Q132 117 153 95T216 72ZM317 582L259 617L365 795L442 746L317 582Z" />
<glyph unicode="&#xf4;" glyph-name="ocircumflex" horiz-adv-x="492" d="M208 -12Q122 -12 78 37T33 180Q33 203 36 233T45 293Q95 532 284 532Q370 532 414 483T459 340Q459 317 456 287T447 227Q397 -12 208 -12ZM216 72Q266 72 293 103T335 201L356 306Q358
317 359 329T360 352Q360 403 339 425T276 448Q226 448 199 417T157 319L136 214Q134 203 133 191T132 168Q132 117 153 95T216 72ZM381 778L463 621L409 586L326 706L198 586L149 627L285 778H381Z" />
<glyph unicode="&#xf5;" glyph-name="otilde" horiz-adv-x="492" d="M208 -12Q122 -12 78 37T33 180Q33 203 36 233T45 293Q95 532 284 532Q370 532 414 483T459 340Q459 317 456 287T447 227Q397 -12 208 -12ZM216 72Q266 72 293 103T335 201L356 306Q358 317
359 329T360 352Q360 403 339 425T276 448Q226 448 199 417T157 319L136 214Q134 203 133 191T132 168Q132 117 153 95T216 72ZM381 608Q364 608 348 613T312 632Q291 646 277 651T252 656Q238 656 228 651T198 629L167 679Q210 734 263 734Q280 734 296 729T332
710Q353 696 367 691T392 686Q406 686 416 691T446 713L477 663Q434 608 381 608Z" />
<glyph unicode="&#xf6;" glyph-name="odieresis" horiz-adv-x="492" d="M208 -12Q122 -12 78 37T33 180Q33 203 36 233T45 293Q95 532 284 532Q370 532 414 483T459 340Q459 317 456 287T447 227Q397 -12 208 -12ZM216 72Q266 72 293 103T335 201L356 306Q358
317 359 329T360 352Q360 403 339 425T276 448Q226 448 199 417T157 319L136 214Q134 203 133 191T132 168Q132 117 153 95T216 72ZM223 612Q198 612 187 622T175 648Q175 654 176 660T180 681Q185 704 200 717T247 730Q272 730 283 720T295 694Q295 688 294 682T290
661Q285 638 270 625T223 612ZM397 612Q372 612 361 622T349 648Q349 654 350 660T354 681Q359 704 374 717T421 730Q446 730 457 720T469 694Q469 688 468 682T464 661Q459 638 444 625T397 612Z" />
<glyph unicode="&#xf7;" glyph-name="divide" horiz-adv-x="540" d="M62 265L78 347H497L481 265H62ZM232 55Q201 55 189 65T176 92Q176 99 178 109T182 128Q189 154 205 167T254 180Q285 180 297 170T310 143Q310 136 308 126T304 107Q297 81 281 68T232 55ZM306
432Q275 432 263 442T250 469Q250 476 252 486T256 505Q263 531 279 544T328 557Q359 557 371 547T384 520Q384 513 382 503T378 484Q371 458 355 445T306 432Z" />
<glyph unicode="&#xf8;" glyph-name="oslash" horiz-adv-x="492" d="M217 69Q267 69 295 100T337 199L351 269L374 363H365L284 260L146 102Q167 69 217 69ZM276 451Q226 451 198 420T156 321L142 252L119 157H128L209 260L347 418Q326 451 276 451ZM445 432Q459
394 459 341Q459 318 456 287T447 227Q397 -12 209 -12Q127 -12 85 30L21 -41L-29 4L48 88Q34 126 34 179Q34 202 37 233T46 293Q96 532 284 532Q366 532 408 490L472 561L522 516L445 432Z" />
<glyph unicode="&#xf9;" glyph-name="ugrave" horiz-adv-x="523" d="M219 520L156 201Q148 166 148 137Q148 102 162 87T205 72Q231 72 250 83T286 117Q305 141 318 171T338 231L396 520H495L408 82H466L450 0H367Q305 0 305 58Q305 65 306 72T309 88L313 109H302Q257
-12 153 -12Q98 -12 72 22T45 120Q45 137 48 157T55 197L120 520H219ZM215 757L302 795L358 608L297 582L215 757Z" />
<glyph unicode="&#xfa;" glyph-name="uacute" horiz-adv-x="523" d="M219 520L156 201Q148 166 148 137Q148 102 162 87T205 72Q231 72 250 83T286 117Q305 141 318 171T338 231L396 520H495L408 82H466L450 0H367Q305 0 305 58Q305 65 306 72T309 88L313 109H302Q257
-12 153 -12Q98 -12 72 22T45 120Q45 137 48 157T55 197L120 520H219ZM325 582L267 617L373 795L450 746L325 582Z" />
<glyph unicode="&#xfb;" glyph-name="ucircumflex" horiz-adv-x="523" d="M219 520L156 201Q148 166 148 137Q148 102 162 87T205 72Q231 72 250 83T286 117Q305 141 318 171T338 231L396 520H495L408 82H466L450 0H367Q305 0 305 58Q305 65 306 72T309 88L313
109H302Q257 -12 153 -12Q98 -12 72 22T45 120Q45 137 48 157T55 197L120 520H219ZM389 778L471 621L417 586L334 706L206 586L157 627L293 778H389Z" />
<glyph unicode="&#xfc;" glyph-name="udieresis" horiz-adv-x="523" d="M219 520L156 201Q148 166 148 137Q148 102 162 87T205 72Q231 72 250 83T286 117Q305 141 318 171T338 231L396 520H495L408 82H466L450 0H367Q305 0 305 58Q305 65 306 72T309 88L313 109H302Q257
-12 153 -12Q98 -12 72 22T45 120Q45 137 48 157T55 197L120 520H219ZM231 612Q206 612 195 622T183 648Q183 654 184 660T188 681Q193 704 208 717T255 730Q280 730 291 720T303 694Q303 688 302 682T298 661Q293 638 278 625T231 612ZM405 612Q380 612 369 622T357
648Q357 654 358 660T362 681Q367 704 382 717T429 730Q454 730 465 720T477 694Q477 688 476 682T472 661Q467 638 452 625T405 612Z" />
<glyph unicode="&#xfd;" glyph-name="yacute" horiz-adv-x="455" d="M392 520H497L178 -124Q157 -167 131 -183T59 -200H-25L-8 -118H82L123 -29L62 520H160L186 273L189 86H200L274 273L392 520ZM294 582L236 617L342 795L419 746L294 582Z" />
<glyph unicode="&#xfe;" glyph-name="thorn" horiz-adv-x="526" d="M170 740H269L202 406H213Q237 468 272 500T363 532Q427 532 459 489T492 364Q492 335 489 302T479 239Q456 119 403 54T263 -12Q215 -12 184 14T150 88H138L81 -200H-18L170 740ZM242 72Q294
72 323 105T366 203L385 299Q389 316 390 334T392 363Q392 448 318 448Q265 448 229 397Q212 372 198 344T178 289L155 171Q151 152 155 134T171 103T201 81T242 72Z" />
<glyph unicode="&#xff;" glyph-name="ydieresis" horiz-adv-x="455" d="M392 520H497L178 -124Q157 -167 131 -183T59 -200H-25L-8 -118H82L123 -29L62 520H160L186 273L189 86H200L274 273L392 520ZM200 612Q175 612 164 622T152 648Q152 654 153 660T157 681Q162
704 177 717T224 730Q249 730 260 720T272 694Q272 688 271 682T267 661Q262 638 247 625T200 612ZM374 612Q349 612 338 622T326 648Q326 654 327 660T331 681Q336 704 351 717T398 730Q423 730 434 720T446 694Q446 688 445 682T441 661Q436 638 421 625T374
612Z" />
<glyph unicode="&#x2013;" glyph-name="endash" horiz-adv-x="516" d="M32 261L49 347H503L485 261H32Z" />
<glyph unicode="&#x2014;" glyph-name="emdash" horiz-adv-x="685" d="M32 261L49 347H671L654 261H32Z" />
<glyph unicode="&#x2018;" glyph-name="quoteleft" horiz-adv-x="261" d="M176 479Q148 479 133 491T118 523Q118 530 119 541T124 564Q135 607 166 655T245 740H316Q281 708 256 679T215 615Q259 610 259 574Q259 567 258 556T253 533Q246 507 228 493T176 479Z" />
<glyph unicode="&#x2019;" glyph-name="quoteright" horiz-adv-x="261" d="M226 744Q254 744 269 732T284 700Q284 693 283 682T278 659Q267 616 236 568T157 483H86Q121 515 146 544T187 608Q143 613 143 649Q143 656 144 667T149 690Q156 716 174 730T226 744Z" />
<glyph unicode="&#x201a;" glyph-name="quotesinglbase" horiz-adv-x="261" d="M107 145Q135 145 150 133T165 101Q165 94 164 83T159 60Q148 17 117 -31T38 -116H-33Q2 -84 27 -55T68 9Q24 14 24 50Q24 57 25 68T30 91Q37 117 55 131T107 145Z" />
<glyph unicode="&#x201c;" glyph-name="quotedblleft" horiz-adv-x="455" d="M176 479Q148 479 133 491T118 523Q118 530 119 541T124 564Q135 607 166 655T245 740H316Q281 708 256 679T215 615Q259 610 259 574Q259 567 258 556T253 533Q246 507 228 493T176
479ZM370 479Q342 479 327 491T312 523Q312 530 313 541T318 564Q329 607 360 655T439 740H510Q475 708 450 679T409 615Q453 610 453 574Q453 567 452 556T447 533Q440 507 422 493T370 479Z" />
<glyph unicode="&#x201d;" glyph-name="quotedblright" horiz-adv-x="455" d="M226 744Q254 744 269 732T284 700Q284 693 283 682T278 659Q267 616 236 568T157 483H86Q121 515 146 544T187 608Q143 613 143 649Q143 656 144 667T149 690Q156 716 174 730T226
744ZM420 744Q448 744 463 732T478 700Q478 693 477 682T472 659Q461 616 430 568T351 483H280Q315 515 340 544T381 608Q337 613 337 649Q337 656 338 667T343 690Q350 716 368 730T420 744Z" />
<glyph unicode="&#x201e;" glyph-name="quotedblbase" horiz-adv-x="455" d="M107 145Q135 145 150 133T165 101Q165 94 164 83T159 60Q148 17 117 -31T38 -116H-33Q2 -84 27 -55T68 9Q24 14 24 50Q24 57 25 68T30 91Q37 117 55 131T107 145ZM301 145Q329 145
344 133T359 101Q359 94 358 83T353 60Q342 17 311 -31T232 -116H161Q196 -84 221 -55T262 9Q218 14 218 50Q218 57 219 68T224 91Q231 117 249 131T301 145Z" />
<glyph unicode="&#x2022;" glyph-name="bullet" horiz-adv-x="366" d="M170 177Q112 177 88 198T64 256Q64 263 66 278T73 320Q84 370 115 399T213 428Q271 428 295 407T319 349Q319 342 317 327T310 285Q299 235 268 206T170 177Z" />
<glyph unicode="&#x2039;" glyph-name="guilsinglleft" horiz-adv-x="274" d="M165 87L29 238L46 327L233 473L263 406L120 281L117 269L212 142L165 87Z" />
<glyph unicode="&#x203a;" glyph-name="guilsinglright" horiz-adv-x="274" d="M20 154L163 279L166 291L71 418L118 473L254 322L237 233L50 87L20 154Z" />
</font>
</defs>
</svg>
