<?xml version="1.0" standalone="no"?>
<!DOCTYPE svg PUBLIC "-//W3C//DTD SVG 1.1//EN" "http://www.w3.org/Graphics/SVG/1.1/DTD/svg11.dtd">
<svg xmlns="http://www.w3.org/2000/svg">
<defs >
<font id="IBMPlexSansCondensed" horiz-adv-x="532" ><font-face
    font-family="IBM Plex Sans Condensed SemiBold"
    units-per-em="1000"
    panose-1="2 11 7 6 5 2 3 0 2 3"
    ascent="1025"
    descent="-275"
    alphabetic="0" />
<glyph unicode=" " glyph-name="space" horiz-adv-x="212" />
<glyph unicode="!" glyph-name="exclam" horiz-adv-x="289" d="M107 205L129 500L169 698H293L253 500L158 205H107ZM91 -11Q59 -11 43 2T27 38Q27 45 29 57T34 82Q42 111 62 127T119 144Q151 144 167 131T183 94Q183 88 181 76T176 51Q168 22 148 6T91 -11Z" />
<glyph unicode="&quot;" glyph-name="quotedbl" horiz-adv-x="428" d="M97 433L158 740H267L205 433H97ZM290 433L351 740H460L398 433H290Z" />
<glyph unicode="#" glyph-name="numbersign" horiz-adv-x="587" d="M321 185H184L118 0H44L110 185H5L18 250H133L204 448H103L116 513H227L293 698H367L301 513H438L504 698H578L512 513H617L604 448H489L418 250H519L506 185H395L329 0H255L321 185ZM344 250L415
448H278L207 250H344Z" />
<glyph unicode="$" glyph-name="dollar" horiz-adv-x="515" d="M159 9Q102 20 61 48T2 116L81 183Q95 152 121 131T186 101L230 318Q153 339 118 379T82 487Q82 528 95 564T136 627T203 672T296 693L313 780H405L386 688Q437 677 472 652T524 594L445 526Q433
547 413 566T359 595L320 401Q395 378 432 339T469 229Q469 182 454 143T410 74T341 27T250 5L233 -82H141L159 9ZM356 212Q356 244 343 265T299 298L259 99Q306 106 331 135T356 212ZM193 501Q193 441 250 421L286 599Q240 595 217 570T193 501Z" />
<glyph unicode="%" glyph-name="percent" horiz-adv-x="833" d="M118 0L646 698H749L221 0H118ZM224 383Q249 383 263 403T288 472L303 548Q305 556 306 567T307 586Q307 641 263 641Q238 641 224 621T199 552L184 476Q182 468 181 457T180 438Q180 383 224 383ZM216
314Q153 314 120 351T86 457Q86 479 88 503T95 545Q113 627 158 668T271 710Q334 710 367 673T401 567Q401 545 399 521T392 479Q374 397 329 356T216 314ZM604 57Q629 57 643 77T668 146L683 222Q685 230 686 241T687 260Q687 315 643 315Q618 315 604 295T579
226L564 150Q562 142 561 131T560 112Q560 57 604 57ZM596 -12Q533 -12 500 25T466 131Q466 153 468 177T475 219Q493 301 538 342T651 384Q714 384 747 347T781 241Q781 219 779 195T772 153Q754 71 709 30T596 -12Z" />
<glyph unicode="&amp;" glyph-name="ampersand" horiz-adv-x="633" d="M369 102H356Q347 51 305 20T197 -12Q115 -12 73 28T30 147Q30 221 74 280T201 381Q177 419 164 456T151 524Q151 611 205 660T354 710Q429 710 469 674T510 570Q510 539 501 512T472 460T419
410T342 359L422 229Q439 267 450 303T469 378H617L597 280H529Q520 247 507 216T474 147L566 0H430L369 102ZM340 620Q310 620 294 604T269 553Q266 539 266 533T265 519Q265 502 272 481T298 428Q325 444 343 458T372 489T389 522T394 562Q394 591 382 605T340
620ZM239 86Q272 86 295 97T346 138L240 314Q197 287 179 263T154 208Q152 197 151 187T150 168Q150 86 239 86Z" />
<glyph unicode="&apos;" glyph-name="quotesingle" horiz-adv-x="235" d="M97 433L158 740H267L205 433H97Z" />
<glyph unicode="(" glyph-name="parenleft" horiz-adv-x="324" d="M54 202Q54 281 73 360T128 513T214 649T326 760H449Q398 718 354 671T275 574T218 474T185 377L164 272Q157 237 157 198Q157 104 186 19T270 -137H162Q111 -71 83 18T54 202Z" />
<glyph unicode=")" glyph-name="parenright" horiz-adv-x="324" d="M289 421Q289 341 270 262T215 110T129 -26T17 -137H-106Q-55 -95 -11 -48T68 49T125 149T158 246L179 351Q186 386 186 425Q186 519 157 604T73 760H181Q232 694 260 605T289 421Z" />
<glyph unicode="*" glyph-name="asterisk" horiz-adv-x="510" d="M165 307L92 369L240 500L239 515L76 547L130 641L269 564L282 572L299 747H405L343 573L352 566L524 641L536 541L357 508L352 496L442 368L345 307L296 462H284L165 307Z" />
<glyph unicode="+" glyph-name="plus" horiz-adv-x="540" d="M182 90L216 259H59L78 354H235L269 523H375L340 354H498L478 259H321L287 90H182Z" />
<glyph unicode="," glyph-name="comma" horiz-adv-x="272" d="M111 144Q143 144 159 131T175 96Q175 87 174 76T168 51Q151 -6 118 -56T40 -141H-43Q-5 -109 23 -78T68 -9Q45 -7 32 6T19 39Q19 45 21 58T27 82Q35 111 55 127T111 144Z" />
<glyph unicode="-" glyph-name="hyphen" horiz-adv-x="355" d="M44 248L68 361H325L302 248H44Z" />
<glyph unicode="." glyph-name="period" horiz-adv-x="272" d="M84 -11Q52 -11 36 2T19 39Q19 45 21 58T27 82Q35 111 55 127T111 144Q143 144 159 131T176 94Q176 88 174 75T168 51Q160 22 140 6T84 -11Z" />
<glyph unicode="/" glyph-name="slash" horiz-adv-x="426" d="M-66 -151L370 740H474L38 -151H-66Z" />
<glyph unicode="0" glyph-name="zero" horiz-adv-x="540" d="M226 -12Q134 -12 87 41T39 201Q39 278 70 423Q101 569 169 639T346 710Q438 710 485 657T533 497Q533 420 502 275Q471 129 403 59T226 -12ZM239 86Q267 86 288 95T324 125T351 182T374 272L403 418Q410
450 412 472T415 509Q415 563 396 587T333 612Q304 612 284 603T248 573T220 516T198 426L169 280Q162 248 160 226T157 189Q157 135 176 111T239 86Z" />
<glyph unicode="1" glyph-name="one" horiz-adv-x="540" d="M38 0L58 99H206L303 583L144 487L104 569L317 698H444L324 99H462L442 0H38Z" />
<glyph unicode="2" glyph-name="two" horiz-adv-x="540" d="M433 0H11L34 113L268 312Q324 359 351 396T387 479Q391 499 392 509T393 527Q393 608 315 608Q269 608 242 583T198 498L98 539Q132 629 186 669T328 710Q517 710 517 531Q517 493 508 460T477 392T423
323T341 246L168 99H453L433 0Z" />
<glyph unicode="3" glyph-name="three" horiz-adv-x="540" d="M270 412Q321 412 347 432T383 501Q385 512 386 522T387 539Q387 609 307 609Q225 609 178 527L111 599Q153 656 206 683T330 710Q419 710 465 670T512 552Q512 514 501 483T469 428T419 389T355 371L352
358Q405 353 435 317T465 221Q465 109 400 49T215 -12Q138 -12 86 21T15 117L104 179Q117 131 145 110T223 89Q272 89 300 112T337 190Q340 207 341 216T342 231Q342 312 254 312H189L209 412H270Z" />
<glyph unicode="4" glyph-name="four" horiz-adv-x="540" d="M259 0L286 135H10L33 242L362 698H511L417 228H497L479 135H398L371 0H259ZM127 228H305L373 567H360L127 228Z" />
<glyph unicode="5" glyph-name="five" horiz-adv-x="540" d="M512 596H239L178 348H191Q211 398 244 422T332 447Q406 447 446 406T486 266Q486 205 470 154T420 66T338 9T225 -12Q61 -12 22 118L119 179Q130 136 157 112T234 87Q288 87 314 116T354 205Q360 233
360 258Q360 305 340 326T274 348Q211 348 170 291L76 305L174 698H533L512 596Z" />
<glyph unicode="6" glyph-name="six" horiz-adv-x="540" d="M234 -12Q137 -12 87 36T36 179Q36 199 37 220T44 264Q73 407 149 515T346 698H517Q445 651 391 607T296 520T230 433T187 342H200Q245 443 344 443Q416 443 454 398T492 268Q492 233 484 193Q464 93
400 41T234 -12ZM245 87Q295 87 321 114T361 204Q367 232 367 256Q367 344 282 344Q232 344 206 317T166 227Q160 198 160 175Q160 87 245 87Z" />
<glyph unicode="7" glyph-name="seven" horiz-adv-x="540" d="M96 0L426 599H218L192 470H90L136 698H564L542 591L223 0H96Z" />
<glyph unicode="8" glyph-name="eight" horiz-adv-x="540" d="M219 -12Q125 -12 74 33T23 161Q23 201 35 236T70 297T122 340T190 360L193 372Q151 383 128 417T104 502Q104 550 121 588T169 654T245 695T344 710Q433 710 479 670T526 554Q526 520 515 490T485
435T438 393T380 370L377 357Q426 349 452 313T479 218Q479 166 461 124T408 51T326 5T219 -12ZM234 82Q284 82 309 103T347 175Q359 224 359 246Q359 315 269 315Q219 315 194 294T156 222Q150 197 147 180T144 151Q144 82 234 82ZM296 407Q343 407 366 427T400
499Q404 518 405 528T407 546Q407 616 326 616Q279 616 256 596T222 524Q218 505 217 495T215 477Q215 407 296 407Z" />
<glyph unicode="9" glyph-name="nine" horiz-adv-x="540" d="M228 255Q156 255 118 300T80 430Q80 465 88 505Q108 605 172 657T338 710Q435 710 485 662T536 519Q536 499 535 478T528 434Q499 291 423 183T226 0H55Q127 47 181 91T276 178T342 265T385 356H372Q327
255 228 255ZM290 354Q340 354 366 381T406 471Q412 499 412 523Q412 611 327 611Q277 611 251 584T211 494Q205 465 205 442Q205 354 290 354Z" />
<glyph unicode=":" glyph-name="colon" horiz-adv-x="292" d="M94 -11Q62 -11 46 2T29 39Q29 45 31 58T37 82Q45 111 65 127T121 144Q153 144 169 131T186 94Q186 88 184 75T178 51Q170 22 150 6T94 -11ZM171 375Q139 375 123 388T106 425Q106 431 108 444T114
468Q122 497 142 513T198 530Q230 530 246 517T263 480Q263 474 261 461T255 437Q247 408 227 392T171 375Z" />
<glyph unicode=";" glyph-name="semicolon" horiz-adv-x="292" d="M121 144Q153 144 169 131T185 96Q185 87 184 76T178 51Q161 -6 128 -56T50 -141H-33Q5 -109 33 -78T78 -9Q55 -7 42 6T29 39Q29 45 31 58T37 82Q45 111 65 127T121 144ZM171 375Q139 375 123
388T106 425Q106 431 108 444T114 468Q122 497 142 513T198 530Q230 530 246 517T263 480Q263 474 261 461T255 437Q247 408 227 392T171 375Z" />
<glyph unicode="&lt;" glyph-name="less" horiz-adv-x="540" d="M79 257L95 342L510 589L483 452L213 296L211 282L416 116L391 -6L79 257Z" />
<glyph unicode="=" glyph-name="equal" horiz-adv-x="540" d="M80 366L99 461H519L500 366H80ZM38 154L57 249H477L458 154H38Z" />
<glyph unicode="&gt;" glyph-name="greater" horiz-adv-x="540" d="M66 131L336 287L338 301L133 467L158 589L474 326L458 241L39 -6L66 131Z" />
<glyph unicode="?" glyph-name="question" horiz-adv-x="436" d="M133 223L164 380Q237 386 276 413T329 491Q331 500 333 515T336 538Q336 573 318 591T265 610Q190 610 157 508L62 548Q97 633 149 671T282 710Q367 710 412 669T458 549Q458 503 444 464T403
394T341 342T263 312L246 223H133ZM148 -11Q116 -11 100 2T84 38Q84 44 86 57T91 82Q99 111 119 127T176 143Q208 143 224 130T240 94Q240 88 238 75T233 50Q225 21 205 5T148 -11Z" />
<glyph unicode="@" glyph-name="at" horiz-adv-x="808" d="M350 -120Q277 -120 222 -98T130 -33T73 68T54 199Q54 224 56 253T66 318Q83 405 118 477T205 600T327 681T484 710Q553 710 606 689T696 629T752 534T771 406Q771 386 769 365T762 317Q741 204 686 141T555
78Q509 78 484 99T459 159V169H449Q439 129 407 104T335 78Q228 78 228 221Q228 250 239 305Q259 405 302 453T409 502Q445 502 466 481T491 422H501L514 494H607L552 217Q550 206 549 199T547 183Q547 152 575 152Q613 152 637 190T679 312L687 352Q690 367 691
384T693 416Q693 521 639 582T473 643Q408 643 355 620T261 556T193 457T154 332L145 283Q140 261 138 241T135 198Q135 141 149 95T191 15T262 -35T362 -53H529L514 -120H350ZM378 157Q410 157 433 181T465 245L486 352Q492 383 475 403T425 424Q390 424 371 401T342
333L326 251Q323 233 323 223Q323 188 336 173T378 157Z" />
<glyph unicode="A" glyph-name="A" horiz-adv-x="581" d="M394 0L381 184H172L90 0H-37L298 698H457L515 0H394ZM363 475L360 594H348L304 475L221 281H375L363 475Z" />
<glyph unicode="B" glyph-name="B" horiz-adv-x="582" d="M159 698H422Q493 698 532 663T571 554Q571 483 536 431T431 367L428 354Q482 348 508 320T535 234Q535 180 521 137T479 64T410 17T317 0H19L159 698ZM320 102Q385 102 403 187Q409 216 411 228T413 248Q413
276 401 290T359 305H199L158 102H320ZM355 404Q390 404 409 422T438 483Q444 510 445 522T447 542Q447 568 436 582T397 596H257L219 404H355Z" />
<glyph unicode="C" glyph-name="C" horiz-adv-x="561" d="M262 -12Q155 -12 101 46T46 219Q46 253 50 296T69 401Q138 710 380 710Q464 710 517 668T586 545L478 500Q469 605 371 605Q335 605 308 595T260 561T224 501T199 410L177 298Q167 251 167 223Q167 93
276 93Q334 93 369 119T427 208L528 162Q451 -12 262 -12Z" />
<glyph unicode="D" glyph-name="D" horiz-adv-x="609" d="M159 698H373Q481 698 536 641T592 471Q592 437 587 394T570 297Q507 0 251 0H19L159 698ZM265 104Q304 104 332 114T381 146T416 203T440 288L461 392Q466 415 468 433T471 466Q471 531 445 562T358 594H257L159
104H265Z" />
<glyph unicode="E" glyph-name="E" horiz-adv-x="520" d="M19 0L159 698H555L534 594H257L219 406H466L445 302H198L159 104H447L426 0H19Z" />
<glyph unicode="F" glyph-name="F" horiz-adv-x="501" d="M19 0L159 698H545L524 594H257L219 406H457L436 302H199L138 0H19Z" />
<glyph unicode="G" glyph-name="G" horiz-adv-x="620" d="M433 117H420Q400 57 359 23T245 -12Q149 -12 98 48T46 218Q46 289 69 401Q137 710 386 710Q482 710 536 668T610 547L505 504Q497 552 467 578T379 605Q341 605 312 595T262 561T225 501T199 410L177
298Q172 275 170 256T167 223Q167 93 278 93Q344 93 386 129T440 221L451 275H332L352 374H584L509 0H409L433 117Z" />
<glyph unicode="H" glyph-name="H" horiz-adv-x="632" d="M447 302H198L138 0H19L159 698H278L219 406H468L527 698H646L506 0H387L447 302Z" />
<glyph unicode="I" glyph-name="I" horiz-adv-x="379" d="M-3 0L17 96H97L198 602H118L137 698H416L396 602H317L216 96H295L276 0H-3Z" />
<glyph unicode="J" glyph-name="J" horiz-adv-x="471" d="M491 698L383 159Q365 68 315 28T173 -12Q92 -12 48 36T0 164L106 187Q110 93 180 93Q218 93 238 109T267 173L352 600H163L183 698H491Z" />
<glyph unicode="K" glyph-name="K" horiz-adv-x="584" d="M285 317L178 200L138 0H19L159 698H278L235 484L202 349H215L319 479L504 698H649L379 393L525 0H394L285 317Z" />
<glyph unicode="L" glyph-name="L" horiz-adv-x="447" d="M19 0L159 698H278L159 104H396L375 0H19Z" />
<glyph unicode="M" glyph-name="M" horiz-adv-x="723" d="M565 409L597 539H585L505 405L333 133L265 405L239 539H226L214 404L133 0H19L159 698H287L350 444L368 328H378L439 444L599 698H737L597 0H483L565 409Z" />
<glyph unicode="N" glyph-name="N" horiz-adv-x="633" d="M272 397L242 539H229L212 394L133 0H19L159 698H301L394 301L424 159H437L454 304L533 698H647L507 0H365L272 397Z" />
<glyph unicode="O" glyph-name="O" horiz-adv-x="623" d="M265 -12Q157 -12 102 46T46 219Q46 253 50 296T69 401Q138 710 388 710Q496 710 551 652T607 479Q607 445 603 402T584 297Q515 -12 265 -12ZM280 93Q317 93 344 103T393 137T428 197T454 288L476 400Q486
447 486 475Q486 605 373 605Q336 605 309 595T260 561T224 500T199 410L177 298Q167 251 167 223Q167 93 280 93Z" />
<glyph unicode="P" glyph-name="P" horiz-adv-x="565" d="M19 0L159 698H402Q493 698 536 657T579 528Q579 472 562 426T515 345T441 292T344 273H193L138 0H19ZM214 377H356Q426 377 444 459Q451 493 453 508T456 536Q456 564 443 579T395 594H258L214 377Z" />
<glyph unicode="Q" glyph-name="Q" horiz-adv-x="623" d="M379 -176H274Q228 -176 209 -162T189 -113Q189 -105 190 -93T197 -58L207 -7Q128 7 87 64T46 219Q46 253 50 296T69 401Q138 710 388 710Q496 710 551 652T607 479Q607 445 603 402T584 297Q552 156 486
81T315 -8L300 -83H398L379 -176ZM280 93Q317 93 345 103T394 137T429 197T454 288L476 400Q486 447 486 475Q486 541 459 573T373 605Q336 605 309 595T260 561T224 500T199 410L177 298Q172 275 170 256T167 223Q167 157 194 125T280 93Z" />
<glyph unicode="R" glyph-name="R" horiz-adv-x="588" d="M138 0H19L159 698H402Q493 698 536 657T579 528Q579 438 536 374T417 287L492 0H367L303 276H194L138 0ZM356 377Q426 377 444 459Q451 493 453 508T456 536Q456 564 443 579T395 594H258L214 377H356Z" />
<glyph unicode="S" glyph-name="S" horiz-adv-x="525" d="M212 -12Q131 -12 75 19T-8 112L85 181Q106 135 137 114T217 93Q281 93 317 124T354 211Q354 246 337 266T277 301L232 317Q157 341 123 382T88 491Q88 540 105 580T155 650T232 694T333 710Q405 710 458
685T540 609L452 533Q432 571 403 588T326 605Q269 605 239 580T208 505Q208 473 224 455T278 423L323 408Q404 381 439 339T475 227Q475 173 456 129T403 54T320 5T212 -12Z" />
<glyph unicode="T" glyph-name="T" horiz-adv-x="508" d="M379 594L260 0H141L260 594H90L111 698H570L549 594H379Z" />
<glyph unicode="U" glyph-name="U" horiz-adv-x="605" d="M273 698L186 263Q181 243 179 225T176 192Q176 137 201 115T277 93Q305 93 327 101T366 128T395 179T418 262L505 698H624L536 260Q521 184 499 132T444 48T369 2T268 -12Q163 -12 111 33T59 181Q59 204
62 229T72 285L154 698H273Z" />
<glyph unicode="V" glyph-name="V" horiz-adv-x="558" d="M158 0L98 698H218L245 270L242 108H255L315 270L507 698H634L297 0H158Z" />
<glyph unicode="W" glyph-name="W" horiz-adv-x="836" d="M114 0L112 698H230L222 288L207 115H220L272 288L437 698H571L574 288L564 109H576L630 288L776 698H897L618 0H477V387L485 580H472L407 385L258 0H114Z" />
<glyph unicode="X" glyph-name="X" horiz-adv-x="576" d="M505 0H377L289 261H277L100 0H-36L234 363L109 698H237L321 448H333L503 698H639L375 347L505 0Z" />
<glyph unicode="Y" glyph-name="Y" horiz-adv-x="543" d="M158 0L212 269L88 698H210L289 389H302L494 698H627L330 264L277 0H158Z" />
<glyph unicode="Z" glyph-name="Z" horiz-adv-x="522" d="M433 0H-15L7 105L403 594H114L135 698H566L545 593L148 104H454L433 0Z" />
<glyph unicode="[" glyph-name="bracketleft" horiz-adv-x="304" d="M0 -138L180 760H364L348 678H268L121 -56H201L184 -138H0Z" />
<glyph unicode="\" glyph-name="backslash" horiz-adv-x="395" d="M211 -151L131 740H225L306 -151H211Z" />
<glyph unicode="]" glyph-name="bracketright" horiz-adv-x="304" d="M322 760L142 -138H-42L-26 -56H54L201 678H121L138 760H322Z" />
<glyph unicode="^" glyph-name="asciicircum" horiz-adv-x="540" d="M420 293L336 580H323L136 293L52 349L291 698H401L516 328L420 293Z" />
<glyph unicode="_" glyph-name="underscore" horiz-adv-x="493" d="M-60 -177L-41 -80H402L383 -177H-60Z" />
<glyph unicode="`" glyph-name="grave" horiz-adv-x="540" d="M177 761L277 805L333 611L262 581L177 761Z" />
<glyph unicode="a" glyph-name="a" horiz-adv-x="537" d="M382 0Q312 0 312 63Q312 76 316 95L320 116H307Q281 47 246 18T157 -12Q95 -12 63 28T30 154Q30 184 34 216T43 277Q66 401 120 467T260 534Q311 534 339 507T370 432H383L401 522H516L430 93H487L468
0H382ZM212 85Q265 85 298 135Q314 159 326 186T344 240L365 345Q373 385 352 411T288 437Q239 437 213 406T174 312L157 229Q153 209 150 188T147 155Q147 122 163 104T212 85Z" />
<glyph unicode="b" glyph-name="b" d="M164 740H280L213 406H226Q252 475 287 504T376 534Q438 534 470 494T503 368Q503 338 499 306T490 245Q467 121 413 55T272 -12Q221 -12 193 15T163 90H150L132 0H17L164 740ZM245 85Q294 85 320 116T359 210L376 293Q380
313 383 334T386 367Q386 400 370 418T321 437Q268 437 235 387Q219 363 207 336T189 282L168 178Q160 137 181 111T245 85Z" />
<glyph unicode="c" glyph-name="c" horiz-adv-x="445" d="M208 -12Q122 -12 76 39T30 188Q30 212 32 240T40 294Q63 406 124 470T282 534Q356 534 397 498T448 403L351 366Q345 405 328 422T273 440Q229 440 206 411T168 313L149 215Q144 190 144 168Q144 82 218
82Q260 82 283 104T320 173L411 130Q384 58 332 23T208 -12Z" />
<glyph unicode="d" glyph-name="d" horiz-adv-x="541" d="M382 0Q312 0 312 63Q312 76 316 95L320 116H307Q281 47 246 18T157 -12Q95 -12 63 28T30 154Q30 184 34 216T43 277Q66 401 120 467T260 534Q311 534 339 507T370 432H383L444 740H559L430 93H487L468
0H382ZM212 85Q265 85 298 135Q314 159 326 186T344 240L365 345Q373 385 352 411T288 437Q239 437 213 406T174 312L157 229Q153 209 150 188T147 155Q147 122 163 104T212 85Z" />
<glyph unicode="e" glyph-name="e" horiz-adv-x="464" d="M218 -12Q119 -12 75 40T30 188Q30 212 32 241T40 294Q65 411 127 472T290 534Q364 534 409 498T455 392Q455 303 382 261T149 214Q146 202 145 190T144 168Q144 125 162 104T222 82Q263 82 294 100T353
160L424 101Q385 41 335 15T218 -12ZM276 444Q234 444 209 416T172 329L164 291Q218 294 252 300T307 318T334 345T342 382Q342 444 276 444Z" />
<glyph unicode="f" glyph-name="f" horiz-adv-x="324" d="M148 -84Q136 -144 104 -172T12 -200H-75L-58 -107H28L135 429H69L88 522H154L174 624Q186 684 218 712T310 740H400L383 647H294L269 522H357L338 429H250L148 -84Z" />
<glyph unicode="g" glyph-name="g" horiz-adv-x="487" d="M443 -26Q443 -212 170 -212Q114 -212 77 -205T18 -183T-14 -148T-24 -99Q-24 -54 3 -27T79 6L80 22Q57 27 44 45T31 91Q31 133 61 158T135 188V201Q71 234 71 329Q71 375 85 413T127 478T196 519T290
534Q337 534 373 520L379 550Q386 581 402 594T453 608H523L505 517H412L407 497Q429 482 443 452T457 380Q457 335 443 299T400 236T330 195T235 180Q198 180 171 187Q151 180 140 166T128 132Q128 115 139 107T176 99H300Q376 99 409 69T443 -26ZM327 -52Q327
-25 315 -14T266 -3H105Q74 -26 74 -70Q74 -101 91 -115T153 -129H218Q281 -129 304 -110T327 -52ZM249 261Q289 261 310 279T340 342Q347 376 347 391Q347 421 332 436T278 452Q238 452 217 434T187 371Q180 337 180 322Q180 292 195 277T249 261Z" />
<glyph unicode="h" glyph-name="h" horiz-adv-x="530" d="M165 740H280L213 408H227Q249 471 285 502T377 534Q486 534 486 403Q486 386 483 364T475 325L429 93H482L463 0H380Q310 0 310 65Q310 72 311 79T314 94L357 309Q360 326 362 346T365 380Q365 411 353
424T315 437Q289 437 272 426T237 391Q220 368 207 340T189 281L132 0H17L165 740Z" />
<glyph unicode="i" glyph-name="i" horiz-adv-x="261" d="M194 605Q165 605 150 617T134 651Q134 666 140 686Q157 744 221 744Q250 744 265 732T281 698Q281 682 275 663Q258 605 194 605ZM102 0Q66 0 49 15T32 64Q32 80 36 97L121 522H236L150 94H203L184 0H102Z" />
<glyph unicode="j" glyph-name="j" horiz-adv-x="257" d="M127 522H242L120 -88Q108 -149 80 -174T-6 -200H-86L-67 -107H1L127 522ZM200 605Q171 605 156 617T140 651Q140 666 146 686Q163 744 227 744Q256 744 271 732T287 698Q287 682 281 663Q264 605 200 605Z" />
<glyph unicode="k" glyph-name="k" horiz-adv-x="494" d="M165 740H280L207 375L180 275H192L258 370L392 522H527L330 309L390 93H447L429 0H362Q330 0 312 13T286 60L238 237L164 160L132 0H17L165 740Z" />
<glyph unicode="l" glyph-name="l" horiz-adv-x="260" d="M101 0Q64 0 48 15T31 64Q31 71 32 79T35 95L164 740H279L150 93H210L191 0H101Z" />
<glyph unicode="m" glyph-name="m" horiz-adv-x="788" d="M17 0L121 522H236L213 408H227Q249 471 283 502T369 534Q473 534 476 408H489Q512 471 548 502T638 534Q693 534 718 501T744 403Q744 386 741 364T733 324L687 94H740L721 0H638Q568 0 568 65Q568 77
572 94L616 314Q619 331 621 348T624 380Q624 411 613 424T576 437Q555 437 539 427T505 391Q489 368 476 341T457 285L400 0H285L350 325Q353 339 354 353T356 380Q356 411 345 424T309 437Q287 437 271 426T237 391Q220 368 208 342T189 285L132 0H17Z" />
<glyph unicode="n" glyph-name="n" horiz-adv-x="530" d="M17 0L121 522H236L213 408H227Q249 471 285 502T377 534Q486 534 486 403Q486 386 483 363T475 323L429 93H482L463 0H380Q310 0 310 65Q310 72 311 79T314 94L357 309Q360 326 362 346T365 380Q365 411
353 424T315 437Q289 437 272 426T237 391Q220 368 208 342T189 285L132 0H17Z" />
<glyph unicode="o" glyph-name="o" horiz-adv-x="492" d="M209 -12Q30 -12 30 188Q30 212 32 240T40 294Q63 406 121 470T283 534Q462 534 462 334Q462 310 460 282T452 228Q429 116 371 52T209 -12ZM219 82Q263 82 287 111T324 209L343 307Q348 332 348 354Q348
440 273 440Q229 440 205 411T168 313L149 215Q144 190 144 168Q144 82 219 82Z" />
<glyph unicode="p" glyph-name="p" d="M121 522H236L213 406H226Q252 475 287 504T376 534Q438 534 470 494T503 368Q503 338 499 306T490 245Q467 121 413 55T273 -12Q222 -12 194 15T163 90H150L92 -200H-23L121 522ZM245 85Q294 85 320 116T359 210L376 293Q380
313 383 334T386 367Q386 400 370 418T321 437Q268 437 235 387Q219 363 207 336T189 282L168 178Q160 137 181 111T245 85Z" />
<glyph unicode="q" glyph-name="q" horiz-adv-x="531" d="M320 116H307Q281 47 246 18T157 -12Q95 -12 63 28T30 154Q30 184 34 216T43 277Q66 401 120 467T260 534Q311 534 339 507T370 432H383L401 522H516L372 -200H257L320 116ZM212 85Q265 85 298 135Q314
159 326 186T344 240L365 345Q373 385 352 411T288 437Q239 437 213 406T174 312L157 229Q153 209 150 188T147 155Q147 122 163 104T212 85Z" />
<glyph unicode="r" glyph-name="r" horiz-adv-x="355" d="M17 0L121 522H236L213 408H227Q243 462 274 492T361 522H386L362 410H314Q260 410 232 383T190 290L132 0H17Z" />
<glyph unicode="s" glyph-name="s" horiz-adv-x="448" d="M188 -12Q60 -12 5 81L79 149Q100 112 125 97T192 82Q281 82 281 150Q281 172 270 184T229 207L184 222Q122 244 96 275T69 359Q69 395 81 427T117 483T179 520T266 534Q322 534 362 515T432 453L358 385Q321
440 258 440Q181 440 181 375Q181 354 193 342T231 321L276 306Q340 283 366 252T393 169Q393 129 380 96T340 38T275 1T188 -12Z" />
<glyph unicode="t" glyph-name="t" horiz-adv-x="312" d="M111 0Q75 0 58 15T41 64Q41 71 42 78T45 94L112 429H46L65 522H97Q123 522 133 532T149 571L168 664H274L246 522H340L321 429H227L160 93H246L227 0H111Z" />
<glyph unicode="u" glyph-name="u" horiz-adv-x="533" d="M233 522L170 211Q162 174 162 142Q162 112 174 99T212 86Q238 86 256 97T290 131Q306 154 318 180T337 235L394 522H509L424 93H479L461 0H374Q338 0 322 15T305 65Q305 72 306 79T309 95L312 114H299Q277
52 241 20T150 -12Q94 -12 68 20T42 114Q42 135 45 157T52 197L118 522H233Z" />
<glyph unicode="v" glyph-name="v" horiz-adv-x="453" d="M104 0L51 522H166L187 293L188 100H200L272 293L377 522H497L249 0H104Z" />
<glyph unicode="w" glyph-name="w" horiz-adv-x="702" d="M58 522H173L177 301L174 107H187L254 301L341 522H455L464 301L465 107H478L543 301L626 522H741L523 0H389L382 226L387 415H374L320 225L228 0H82L58 522Z" />
<glyph unicode="x" glyph-name="x" horiz-adv-x="469" d="M-42 0L167 276L70 522H193L250 344H261L388 522H512L306 254L402 0H279L221 184H210L82 0H-42Z" />
<glyph unicode="y" glyph-name="y" horiz-adv-x="460" d="M386 522H507L198 -111Q186 -136 173 -153T143 -180T107 -195T59 -200H-27L-8 -107H84L117 -34L57 522H172L194 293L193 100H206L277 293L386 522Z" />
<glyph unicode="z" glyph-name="z" horiz-adv-x="442" d="M-10 0L8 91L302 429H77L96 522H457L438 431L144 93H384L365 0H-10Z" />
<glyph unicode="{" glyph-name="braceleft" horiz-adv-x="330" d="M113 -138Q84 -138 67 -123T49 -80Q49 -72 50 -62T53 -43L95 167Q98 180 99 190T100 211Q100 262 30 262L49 360Q93 360 117 378T151 441L199 683Q207 724 228 742T279 760H399L383 678H303L253
429Q242 375 212 348T120 316L117 303Q163 298 185 279T208 227Q208 214 206 199T201 168L156 -56H236L219 -138H113Z" />
<glyph unicode="|" glyph-name="bar" horiz-adv-x="358" d="M46 -138L226 760H330L150 -138H46Z" />
<glyph unicode="}" glyph-name="braceright" horiz-adv-x="330" d="M-35 -56H45L94 193Q105 247 135 274T228 306L230 319Q184 324 162 343T140 395Q140 408 142 423T147 454L191 678H111L128 760H234Q263 760 281 745T299 702Q299 683 294 665L253 455Q250 442
249 432T247 411Q247 360 318 360L299 262Q254 262 230 244T197 181L149 -61Q141 -102 120 -120T69 -138H-52L-35 -56Z" />
<glyph unicode="~" glyph-name="asciitilde" horiz-adv-x="540" d="M367 222Q340 222 318 229T263 258Q234 278 212 286T168 294Q150 294 134 288T91 264L61 333Q108 389 185 389Q212 389 234 382T289 353Q318 333 340 325T384 317Q402 317 418 323T461 347L491
278Q444 222 367 222Z" />
<glyph unicode="&#xa0;" glyph-name="uni00A0" horiz-adv-x="212" />
<glyph unicode="&#xa1;" glyph-name="exclamdown" horiz-adv-x="289" d="M-6 -176L34 22L129 317H180L158 22L118 -176H-6ZM168 378Q136 378 120 391T104 428Q104 434 106 446T111 471Q119 500 139 516T196 533Q228 533 244 520T260 484Q260 477 258 465T253 440Q245
411 225 395T168 378Z" />
<glyph unicode="&#xa2;" glyph-name="cent" horiz-adv-x="476" d="M161 -5Q97 9 64 57T30 184Q30 207 33 235T41 290Q62 392 119 454T266 524L288 630H377L355 519Q407 508 437 478T474 405L385 362Q376 416 329 427L260 84Q296 89 318 109T352 166L431 116Q408
56 360 26T248 -11L228 -114H139L161 -5ZM141 163Q141 135 152 116T187 90L255 429Q220 421 199 392T166 309L146 211Q141 186 141 163Z" />
<glyph unicode="&#xa3;" glyph-name="sterling" horiz-adv-x="539" d="M28 0L52 119Q98 142 123 188T150 294H60L80 390H140Q138 402 138 417T137 446Q137 506 153 554T200 637T278 691T385 710Q453 710 497 682T570 592L474 529Q456 571 434 588T374 606Q311
606 284 567T256 449Q256 420 259 390H431L412 294H268Q266 219 230 172T140 114L138 103H467L446 0H28Z" />
<glyph unicode="&#xa5;" glyph-name="yen" horiz-adv-x="567" d="M318 138L290 0H171L199 138H51L66 214H214L231 300H83L98 376H204L114 698H236L306 407H319L498 698H631L410 376H512L497 300H350L333 214H480L465 138H318Z" />
<glyph unicode="&#xa6;" glyph-name="brokenbar" horiz-adv-x="358" d="M155 403L226 760H330L258 403H155ZM46 -138L118 219H221L150 -138H46Z" />
<glyph unicode="&#xa7;" glyph-name="section" horiz-adv-x="508" d="M459 304Q459 247 427 208T334 152L333 141Q359 119 371 93T383 29Q383 -14 368 -48T326 -107T261 -145T174 -158Q64 -158 9 -89L79 -20Q99 -47 123 -58T182 -70Q229 -70 254 -50T279 11Q279
40 265 57T218 87L155 111Q51 151 51 248Q51 305 83 344T176 400L177 411Q151 433 139 459T127 523Q127 566 142 600T184 659T249 697T336 710Q445 710 501 641L431 572Q411 599 387 610T328 622Q281 622 256 602T231 541Q231 512 245 495T292 465L355 441Q459
401 459 304ZM153 286Q153 251 168 230T217 196L303 163Q357 200 357 266Q357 301 342 322T293 356L207 389Q153 352 153 286Z" />
<glyph unicode="&#xa8;" glyph-name="dieresis" horiz-adv-x="540" d="M193 607Q164 607 152 619T139 648Q139 653 140 659T145 681Q159 738 218 738Q247 738 259 726T272 697Q272 692 271 686T266 664Q252 607 193 607ZM371 607Q342 607 330 619T317 648Q317
653 318 659T323 681Q337 738 396 738Q425 738 437 726T450 697Q450 692 449 686T444 664Q430 607 371 607Z" />
<glyph unicode="&#xa9;" glyph-name="copyright" horiz-adv-x="716" d="M331 45Q384 45 430 62T512 111T574 188T613 292Q622 336 626 367T631 422Q631 530 576 591T418 653Q365 653 319 636T237 587T175 510T136 406Q126 362 122 331T118 276Q118 168 173 107T331
45ZM324 -12Q260 -12 210 8T124 65T71 156T52 278Q52 310 56 345T69 412Q85 480 117 535T194 629T298 689T425 710Q489 710 539 690T625 633T678 541T697 420Q697 388 693 353T680 286Q664 218 632 163T555 69T451 9T324 -12ZM350 147Q283 147 248 185T212 291Q212
309 214 333T221 374Q238 456 285 503T405 551Q461 551 494 523T535 449L461 418Q456 450 442 463T400 477Q367 477 349 456T321 387L307 320Q304 303 304 285Q304 221 358 221Q417 221 441 287L505 246Q482 196 442 172T350 147Z" />
<glyph unicode="&#xaa;" glyph-name="ordfeminine" horiz-adv-x="391" d="M368 347H316Q288 347 277 357T266 389Q266 396 268 406H258Q245 374 222 357T162 339Q119 339 96 360T73 422Q73 483 109 516T228 550H288L293 575Q296 591 296 602Q296 624 285 634T246
645Q221 645 203 634T164 597L117 639Q145 676 179 693T260 710Q317 710 350 686T383 607Q383 600 382 590T379 567L348 413H382L368 347ZM223 500Q194 500 180 489T160 455Q157 444 157 439T156 430Q156 399 198 399Q224 399 244 414T269 456L277 500H223Z" />
<glyph unicode="&#xab;" glyph-name="guillemotleft" horiz-adv-x="497" d="M165 82L28 227L49 331L233 475L267 403L130 280L127 267L218 146L165 82ZM380 82L243 227L264 331L448 475L482 403L345 280L342 267L433 146L380 82Z" />
<glyph unicode="&#xac;" glyph-name="logicalnot" horiz-adv-x="540" d="M329 78L365 259H60L79 354H490L434 78H329Z" />
<glyph unicode="&#xad;" glyph-name="uni00AD" horiz-adv-x="355" d="M44 248L68 361H325L302 248H44Z" />
<glyph unicode="&#xae;" glyph-name="registered" horiz-adv-x="437" d="M241 298Q200 298 168 311T114 347T81 402T70 470Q70 523 86 567T130 643T199 692T290 710Q331 710 363 697T417 661T450 606T462 538Q462 485 446 441T401 365T331 316T241 298ZM245 337Q310
337 354 376T410 480Q415 509 416 520T418 539Q418 599 384 635T287 671Q222 671 178 632T122 528Q117 499 116 488T114 469Q114 409 148 373T245 337ZM222 400H174L216 609H299Q328 609 340 595T353 556Q353 527 340 506T303 479L328 400H279L259 473H237L222
400ZM277 509Q296 509 301 530Q303 541 304 547T305 556Q305 572 289 572H256L244 509H277Z" />
<glyph unicode="&#xaf;" glyph-name="overscore" horiz-adv-x="540" d="M182 718H425L407 631H164L182 718Z" />
<glyph unicode="&#xb0;" glyph-name="degree" horiz-adv-x="416" d="M241 361Q175 361 135 401T94 514Q94 559 108 595T148 656T208 696T282 710Q348 710 388 670T429 557Q429 512 415 476T375 415T315 375T241 361ZM251 437Q293 437 319 468T345 554Q345 594
326 614T272 634Q230 634 204 603T178 517Q178 477 197 457T251 437Z" />
<glyph unicode="&#xb1;" glyph-name="plusminus" horiz-adv-x="540" d="M203 194L234 352H77L96 447H253L285 605H391L359 447H516L497 352H340L308 194H203ZM6 0L25 92H444L426 0H6Z" />
<glyph unicode="&#xb2;" glyph-name="twosuperior" horiz-adv-x="320" d="M291 329H42L56 401L193 503Q225 527 237 542T252 575Q255 591 255 599Q255 616 244 626T215 636Q192 636 176 623T152 584L88 610Q130 704 225 704Q279 704 309 678T339 603Q339 582 334
565T317 530T285 494T233 454L150 394H304L291 329Z" />
<glyph unicode="&#xb3;" glyph-name="threesuperior" horiz-adv-x="320" d="M194 551Q217 551 232 561T250 588Q251 593 251 598T252 608Q252 621 242 630T212 639Q190 639 174 629T139 594L95 643Q125 676 155 690T225 704Q279 704 307 682T336 617Q336 574 313
551T247 524L246 515Q276 513 293 497T310 445Q310 388 271 356T163 323Q70 323 42 394L101 436Q110 410 124 399T165 388Q190 388 205 399T224 432Q225 437 225 442T226 451Q226 486 181 486H143L156 551H194Z" />
<glyph unicode="&#xb4;" glyph-name="acute" horiz-adv-x="540" d="M296 581L229 622L339 805L427 749L296 581Z" />
<glyph unicode="&#xb5;" glyph-name="mu" horiz-adv-x="537" d="M-23 -200L122 522H237L174 206Q170 189 168 173T166 142Q166 112 178 99T217 85Q242 85 260 96T294 131Q310 154 323 183T342 241L399 522H514L428 93H483L465 0H378Q342 0 326 15T309 65Q309 72
310 79T313 95L316 114H304Q280 46 253 17T186 -12Q159 -12 144 3T127 40H115V-85L92 -200H-23Z" />
<glyph unicode="&#xb6;" glyph-name="paragraph" horiz-adv-x="575" d="M204 279Q172 279 147 292T103 329T74 386T64 458Q64 511 80 555T127 631T201 680T299 698H606L589 617H534L381 -149H294L447 617H360L206 -149H119L204 279Z" />
<glyph unicode="&#xb7;" glyph-name="middot" horiz-adv-x="310" d="M148 227Q116 227 100 240T84 276Q84 282 86 295T91 320Q99 349 119 365T176 381Q208 381 224 368T240 332Q240 326 238 313T233 288Q225 259 205 243T148 227Z" />
<glyph unicode="&#xb8;" glyph-name="cedilla" horiz-adv-x="540" d="M248 -209Q208 -209 184 -197T148 -164L192 -121Q199 -132 211 -140T247 -149Q272 -149 283 -138T294 -109Q294 -95 286 -90T255 -85H211L255 24H311L272 -71H282Q294 -51 326 -51Q351 -51
362 -65T374 -104Q374 -155 340 -182T248 -209Z" />
<glyph unicode="&#xb9;" glyph-name="onesuperior" horiz-adv-x="320" d="M69 329L82 394H159L205 621L125 577L98 632L216 698H300L239 394H309L297 329H69Z" />
<glyph unicode="&#xba;" glyph-name="ordmasculine" horiz-adv-x="377" d="M214 337Q151 337 117 372T82 473Q82 492 84 511T89 546Q105 625 151 667T266 710Q329 710 363 675T398 574Q398 555 396 536T391 501Q375 422 329 380T214 337ZM221 403Q254 403 272
422T299 489L311 554Q313 562 314 570T315 587Q315 644 259 644Q226 644 208 625T181 558L169 493Q167 485 166 477T165 460Q165 403 221 403Z" />
<glyph unicode="&#xbb;" glyph-name="guillemotright" horiz-adv-x="497" d="M20 154L157 277L160 290L69 411L122 475L259 330L238 226L54 82L20 154ZM235 154L372 277L375 290L284 411L337 475L474 330L453 226L269 82L235 154Z" />
<glyph unicode="&#xbc;" glyph-name="onequarter" horiz-adv-x="737" d="M69 329L82 394H159L205 621L125 577L98 632L216 698H300L239 394H309L297 329H69ZM640 698H735L509 434H414L640 698ZM259 254H355L138 0H42L259 254ZM536 0L550 71H396L409 138L584 369H688L640
132H685L672 71H628L614 0H536ZM591 277H580L474 132H562L591 277Z" />
<glyph unicode="&#xbd;" glyph-name="onehalf" horiz-adv-x="737" d="M69 329L82 394H159L205 621L125 577L98 632L216 698H300L239 394H309L297 329H69ZM640 698H735L509 434H414L640 698ZM259 254H355L138 0H42L259 254ZM653 0H404L418 72L555 174Q587 198 599
213T614 246Q617 262 617 270Q617 287 606 297T577 307Q554 307 538 294T514 255L450 281Q492 375 587 375Q641 375 671 349T701 274Q701 253 696 236T679 201T647 165T595 125L512 65H666L653 0Z" />
<glyph unicode="&#xbe;" glyph-name="threequarters" horiz-adv-x="737" d="M194 551Q217 551 232 561T250 588Q251 593 251 598T252 608Q252 621 242 630T212 639Q190 639 174 629T139 594L95 643Q125 676 155 690T225 704Q279 704 307 682T336 617Q336 574 313
551T247 524L246 515Q276 513 293 497T310 445Q310 388 271 356T163 323Q70 323 42 394L101 436Q110 410 124 399T165 388Q190 388 205 399T224 432Q225 437 225 442T226 451Q226 486 181 486H143L156 551H194ZM640 698H735L509 434H414L640 698ZM259 254H355L138
0H42L259 254ZM536 0L550 71H396L409 138L584 369H688L640 132H685L672 71H628L614 0H536ZM591 277H580L474 132H562L591 277Z" />
<glyph unicode="&#xbf;" glyph-name="questiondown" horiz-adv-x="436" d="M155 -188Q70 -188 25 -147T-21 -27Q-21 19 -7 58T34 128T96 180T174 210L191 299H304L273 142Q200 136 161 109T108 31Q106 22 104 7T101 -16Q101 -51 119 -69T172 -88Q247 -88 280 14L375
-26Q340 -111 288 -149T155 -188ZM261 379Q229 379 213 392T197 428Q197 434 199 447T204 472Q212 501 232 517T289 533Q321 533 337 520T353 484Q353 478 351 465T346 440Q338 411 318 395T261 379Z" />
<glyph unicode="&#xc0;" glyph-name="Agrave" horiz-adv-x="581" d="M394 0L381 184H172L90 0H-37L298 698H457L515 0H394ZM363 475L360 594H348L304 475L221 281H375L363 475ZM287 925L387 969L444 774L373 744L287 925Z" />
<glyph unicode="&#xc1;" glyph-name="Aacute" horiz-adv-x="581" d="M394 0L381 184H172L90 0H-37L298 698H457L515 0H394ZM363 475L360 594H348L304 475L221 281H375L363 475ZM406 744L340 785L450 969L538 913L406 744Z" />
<glyph unicode="&#xc2;" glyph-name="Acircumflex" horiz-adv-x="581" d="M394 0L381 184H172L90 0H-37L298 698H457L515 0H394ZM363 475L360 594H348L304 475L221 281H375L363 475ZM467 950L553 786L491 745L407 867L280 745L224 793L364 950H467Z" />
<glyph unicode="&#xc3;" glyph-name="Atilde" horiz-adv-x="581" d="M394 0L381 184H172L90 0H-37L298 698H457L515 0H394ZM363 475L360 594H348L304 475L221 281H375L363 475ZM463 769Q446 769 430 774T393 792Q371 805 357 810T331 815Q318 815 308 811T278
789L243 846Q289 904 343 904Q360 904 376 899T413 881Q435 868 449 863T475 858Q488 858 498 862T528 884L563 827Q517 769 463 769Z" />
<glyph unicode="&#xc4;" glyph-name="Adieresis" horiz-adv-x="581" d="M394 0L381 184H172L90 0H-37L298 698H457L515 0H394ZM363 475L360 594H348L304 475L221 281H375L363 475ZM304 773Q275 773 263 784T250 813Q250 819 251 826T256 849Q262 876 278 890T329
904Q358 904 370 893T383 864Q383 858 382 851T377 828Q371 801 355 787T304 773ZM482 773Q453 773 441 784T428 813Q428 819 429 826T434 849Q440 876 456 890T507 904Q536 904 548 893T561 864Q561 858 560 851T555 828Q549 801 533 787T482 773Z" />
<glyph unicode="&#xc5;" glyph-name="Aring" horiz-adv-x="581" d="M394 0L381 184H172L90 0H-37L298 698H457L515 0H394ZM363 475L360 594H348L304 475L221 281H375L363 475ZM385 727Q331 727 299 754T267 839Q267 872 278 901T309 951T358 984T422 996Q475 996
507 969T539 884Q539 851 528 822T497 772T449 739T385 727ZM389 791Q412 791 426 801T447 836Q452 853 454 871T457 897Q457 914 445 923T412 932Q389 932 375 922T354 887Q349 870 347 852T344 826Q344 809 356 800T389 791Z" />
<glyph unicode="&#xc6;" glyph-name="AE" horiz-adv-x="825" d="M361 183H185L77 0H-52L372 698H860L839 594H562L524 406H771L750 302H503L464 104H752L731 0H324L361 183ZM429 594L243 281H380L443 594H429Z" />
<glyph unicode="&#xc7;" glyph-name="Ccedilla" horiz-adv-x="561" d="M356 -104Q356 -155 322 -182T230 -209Q190 -209 166 -197T130 -164L174 -121Q181 -132 193 -140T229 -149Q254 -149 265 -138T276 -109Q276 -95 268 -90T237 -85H193L223 -10Q135 1 91 58T46
219Q46 253 50 296T69 401Q138 710 380 710Q464 710 517 668T586 545L478 500Q469 605 371 605Q335 605 308 595T260 561T224 501T199 410L177 298Q167 251 167 223Q167 93 276 93Q334 93 369 119T427 208L528 162Q454 -4 278 -12L254 -71H264Q276 -51 308 -51Q333
-51 344 -65T356 -104Z" />
<glyph unicode="&#xc8;" glyph-name="Egrave" horiz-adv-x="520" d="M19 0L159 698H555L534 594H257L219 406H466L445 302H198L159 104H447L426 0H19ZM266 925L366 969L423 774L352 744L266 925Z" />
<glyph unicode="&#xc9;" glyph-name="Eacute" horiz-adv-x="520" d="M19 0L159 698H555L534 594H257L219 406H466L445 302H198L159 104H447L426 0H19ZM385 744L319 785L429 969L517 913L385 744Z" />
<glyph unicode="&#xca;" glyph-name="Ecircumflex" horiz-adv-x="520" d="M19 0L159 698H555L534 594H257L219 406H466L445 302H198L159 104H447L426 0H19ZM446 950L532 786L470 745L386 867L259 745L203 793L343 950H446Z" />
<glyph unicode="&#xcb;" glyph-name="Edieresis" horiz-adv-x="520" d="M19 0L159 698H555L534 594H257L219 406H466L445 302H198L159 104H447L426 0H19ZM283 773Q254 773 242 784T229 813Q229 819 230 826T235 849Q241 876 257 890T308 904Q337 904 349 893T362
864Q362 858 361 851T356 828Q350 801 334 787T283 773ZM461 773Q432 773 420 784T407 813Q407 819 408 826T413 849Q419 876 435 890T486 904Q515 904 527 893T540 864Q540 858 539 851T534 828Q528 801 512 787T461 773Z" />
<glyph unicode="&#xcc;" glyph-name="Igrave" horiz-adv-x="379" d="M-3 0L17 96H97L198 602H118L137 698H416L396 602H317L216 96H295L276 0H-3ZM187 925L287 969L344 774L273 744L187 925Z" />
<glyph unicode="&#xcd;" glyph-name="Iacute" horiz-adv-x="379" d="M-3 0L17 96H97L198 602H118L137 698H416L396 602H317L216 96H295L276 0H-3ZM306 744L240 785L350 969L438 913L306 744Z" />
<glyph unicode="&#xce;" glyph-name="Icircumflex" horiz-adv-x="379" d="M-3 0L17 96H97L198 602H118L137 698H416L396 602H317L216 96H295L276 0H-3ZM367 950L453 786L391 745L307 867L180 745L124 793L264 950H367Z" />
<glyph unicode="&#xcf;" glyph-name="Idieresis" horiz-adv-x="379" d="M-3 0L17 96H97L198 602H118L137 698H416L396 602H317L216 96H295L276 0H-3ZM204 773Q175 773 163 784T150 813Q150 819 151 826T156 849Q162 876 178 890T229 904Q258 904 270 893T283 864Q283
858 282 851T277 828Q271 801 255 787T204 773ZM382 773Q353 773 341 784T328 813Q328 819 329 826T334 849Q340 876 356 890T407 904Q436 904 448 893T461 864Q461 858 460 851T455 828Q449 801 433 787T382 773Z" />
<glyph unicode="&#xd0;" glyph-name="Eth" horiz-adv-x="623" d="M96 313H19L38 406H114L173 698H387Q495 698 550 641T606 471Q606 437 601 394T584 297Q521 0 265 0H33L96 313ZM279 104Q318 104 346 114T395 146T430 203T454 288L475 392Q480 415 482 433T485
466Q485 531 459 562T372 594H271L233 406H337L318 313H215L173 104H279Z" />
<glyph unicode="&#xd1;" glyph-name="Ntilde" horiz-adv-x="633" d="M272 397L242 539H229L212 394L133 0H19L159 698H301L394 301L424 159H437L454 304L533 698H647L507 0H365L272 397ZM485 769Q468 769 452 774T415 792Q393 805 379 810T353 815Q340 815 330
811T300 789L265 846Q311 904 365 904Q382 904 398 899T435 881Q457 868 471 863T497 858Q510 858 520 862T550 884L585 827Q539 769 485 769Z" />
<glyph unicode="&#xd2;" glyph-name="Ograve" horiz-adv-x="623" d="M265 -12Q157 -12 102 46T46 219Q46 253 50 296T69 401Q138 710 388 710Q496 710 551 652T607 479Q607 445 603 402T584 297Q515 -12 265 -12ZM280 93Q317 93 344 103T393 137T428 197T454 288L476
400Q486 447 486 475Q486 605 373 605Q336 605 309 595T260 561T224 500T199 410L177 298Q167 251 167 223Q167 93 280 93ZM309 925L409 969L466 774L395 744L309 925Z" />
<glyph unicode="&#xd3;" glyph-name="Oacute" horiz-adv-x="623" d="M265 -12Q157 -12 102 46T46 219Q46 253 50 296T69 401Q138 710 388 710Q496 710 551 652T607 479Q607 445 603 402T584 297Q515 -12 265 -12ZM280 93Q317 93 344 103T393 137T428 197T454 288L476
400Q486 447 486 475Q486 605 373 605Q336 605 309 595T260 561T224 500T199 410L177 298Q167 251 167 223Q167 93 280 93ZM428 744L362 785L472 969L560 913L428 744Z" />
<glyph unicode="&#xd4;" glyph-name="Ocircumflex" horiz-adv-x="623" d="M265 -12Q157 -12 102 46T46 219Q46 253 50 296T69 401Q138 710 388 710Q496 710 551 652T607 479Q607 445 603 402T584 297Q515 -12 265 -12ZM280 93Q317 93 344 103T393 137T428 197T454
288L476 400Q486 447 486 475Q486 605 373 605Q336 605 309 595T260 561T224 500T199 410L177 298Q167 251 167 223Q167 93 280 93ZM489 950L575 786L513 745L429 867L302 745L246 793L386 950H489Z" />
<glyph unicode="&#xd5;" glyph-name="Otilde" horiz-adv-x="623" d="M265 -12Q157 -12 102 46T46 219Q46 253 50 296T69 401Q138 710 388 710Q496 710 551 652T607 479Q607 445 603 402T584 297Q515 -12 265 -12ZM280 93Q317 93 344 103T393 137T428 197T454 288L476
400Q486 447 486 475Q486 605 373 605Q336 605 309 595T260 561T224 500T199 410L177 298Q167 251 167 223Q167 93 280 93ZM485 769Q468 769 452 774T415 792Q393 805 379 810T353 815Q340 815 330 811T300 789L265 846Q311 904 365 904Q382 904 398 899T435 881Q457
868 471 863T497 858Q510 858 520 862T550 884L585 827Q539 769 485 769Z" />
<glyph unicode="&#xd6;" glyph-name="Odieresis" horiz-adv-x="623" d="M265 -12Q157 -12 102 46T46 219Q46 253 50 296T69 401Q138 710 388 710Q496 710 551 652T607 479Q607 445 603 402T584 297Q515 -12 265 -12ZM280 93Q317 93 344 103T393 137T428 197T454
288L476 400Q486 447 486 475Q486 605 373 605Q336 605 309 595T260 561T224 500T199 410L177 298Q167 251 167 223Q167 93 280 93ZM326 773Q297 773 285 784T272 813Q272 819 273 826T278 849Q284 876 300 890T351 904Q380 904 392 893T405 864Q405 858 404 851T399
828Q393 801 377 787T326 773ZM504 773Q475 773 463 784T450 813Q450 819 451 826T456 849Q462 876 478 890T529 904Q558 904 570 893T583 864Q583 858 582 851T577 828Q571 801 555 787T504 773Z" />
<glyph unicode="&#xd7;" glyph-name="multiply" horiz-adv-x="540" d="M270 235L115 102L55 173L213 308L106 448L185 512L290 374L450 512L507 440L346 300L449 165L371 102L270 235Z" />
<glyph unicode="&#xd8;" glyph-name="Oslash" horiz-adv-x="623" d="M164 186L341 429L461 576Q433 607 374 607Q336 607 308 597T258 563T222 504T197 414L174 292L153 186H164ZM279 91Q317 91 345 101T395 135T431 194T456 284L479 406L500 512H489L312 269L192
122Q220 91 279 91ZM264 -12Q218 -12 184 -2T123 28L60 -50L-4 4L69 96Q57 122 52 153T46 219Q46 253 50 296T69 401Q138 710 389 710Q435 710 469 700T530 670L593 748L657 694L584 602Q596 576 601 545T607 479Q607 445 603 402T584 297Q515 -12 264 -12Z" />
<glyph unicode="&#xd9;" glyph-name="Ugrave" horiz-adv-x="605" d="M273 698L186 263Q181 243 179 225T176 192Q176 137 201 115T277 93Q305 93 327 101T366 128T395 179T418 262L505 698H624L536 260Q521 184 499 132T444 48T369 2T268 -12Q163 -12 111 33T59
181Q59 204 62 229T72 285L154 698H273ZM294 925L394 969L451 774L380 744L294 925Z" />
<glyph unicode="&#xda;" glyph-name="Uacute" horiz-adv-x="605" d="M273 698L186 263Q181 243 179 225T176 192Q176 137 201 115T277 93Q305 93 327 101T366 128T395 179T418 262L505 698H624L536 260Q521 184 499 132T444 48T369 2T268 -12Q163 -12 111 33T59
181Q59 204 62 229T72 285L154 698H273ZM413 744L347 785L457 969L545 913L413 744Z" />
<glyph unicode="&#xdb;" glyph-name="Ucircumflex" horiz-adv-x="605" d="M273 698L186 263Q181 243 179 225T176 192Q176 137 201 115T277 93Q305 93 327 101T366 128T395 179T418 262L505 698H624L536 260Q521 184 499 132T444 48T369 2T268 -12Q163 -12 111
33T59 181Q59 204 62 229T72 285L154 698H273ZM474 950L560 786L498 745L414 867L287 745L231 793L371 950H474Z" />
<glyph unicode="&#xdc;" glyph-name="Udieresis" horiz-adv-x="605" d="M273 698L186 263Q181 243 179 225T176 192Q176 137 201 115T277 93Q305 93 327 101T366 128T395 179T418 262L505 698H624L536 260Q521 184 499 132T444 48T369 2T268 -12Q163 -12 111 33T59
181Q59 204 62 229T72 285L154 698H273ZM311 773Q282 773 270 784T257 813Q257 819 258 826T263 849Q269 876 285 890T336 904Q365 904 377 893T390 864Q390 858 389 851T384 828Q378 801 362 787T311 773ZM489 773Q460 773 448 784T435 813Q435 819 436 826T441
849Q447 876 463 890T514 904Q543 904 555 893T568 864Q568 858 567 851T562 828Q556 801 540 787T489 773Z" />
<glyph unicode="&#xdd;" glyph-name="Yacute" horiz-adv-x="543" d="M158 0L212 269L88 698H210L289 389H302L494 698H627L330 264L277 0H158ZM368 744L302 785L412 969L500 913L368 744Z" />
<glyph unicode="&#xde;" glyph-name="Thorn" horiz-adv-x="565" d="M19 0L159 698H278L252 569H378Q469 569 512 528T556 399Q556 343 539 297T492 216T418 163T321 144H167L138 0H19ZM188 248H333Q404 248 420 330Q427 364 429 379T432 407Q432 434 419 449T372
465H232L188 248Z" />
<glyph unicode="&#xdf;" glyph-name="germandbls" horiz-adv-x="598" d="M558 177Q558 138 546 104T509 44T448 3T366 -12Q310 -12 270 9T208 72L283 138Q314 78 372 78Q408 78 428 100T448 160Q448 182 439 194T399 222L366 239Q291 279 291 362Q291 431 334
475T459 527L462 543Q464 555 465 567T466 587Q466 658 379 658Q326 658 297 632T253 539L145 0H30L116 429H50L69 522H135L138 539Q157 645 222 698T387 752Q477 752 527 709T577 591Q577 580 576 562T569 523L554 445H495Q448 445 424 429T399 382Q399 361 410
347T445 320L478 303Q522 280 540 251T558 177Z" />
<glyph unicode="&#xe0;" glyph-name="agrave" horiz-adv-x="537" d="M382 0Q312 0 312 63Q312 76 316 95L320 116H307Q281 47 246 18T157 -12Q95 -12 63 28T30 154Q30 184 34 216T43 277Q66 401 120 467T260 534Q311 534 339 507T370 432H383L401 522H516L430
93H487L468 0H382ZM212 85Q265 85 298 135Q314 159 326 186T344 240L365 345Q373 385 352 411T288 437Q239 437 213 406T174 312L157 229Q153 209 150 188T147 155Q147 122 163 104T212 85ZM210 761L310 805L366 611L295 581L210 761Z" />
<glyph unicode="&#xe1;" glyph-name="aacute" horiz-adv-x="537" d="M382 0Q312 0 312 63Q312 76 316 95L320 116H307Q281 47 246 18T157 -12Q95 -12 63 28T30 154Q30 184 34 216T43 277Q66 401 120 467T260 534Q311 534 339 507T370 432H383L401 522H516L430
93H487L468 0H382ZM212 85Q265 85 298 135Q314 159 326 186T344 240L365 345Q373 385 352 411T288 437Q239 437 213 406T174 312L157 229Q153 209 150 188T147 155Q147 122 163 104T212 85ZM329 581L262 622L372 805L460 749L329 581Z" />
<glyph unicode="&#xe2;" glyph-name="acircumflex" horiz-adv-x="537" d="M382 0Q312 0 312 63Q312 76 316 95L320 116H307Q281 47 246 18T157 -12Q95 -12 63 28T30 154Q30 184 34 216T43 277Q66 401 120 467T260 534Q311 534 339 507T370 432H383L401 522H516L430
93H487L468 0H382ZM212 85Q265 85 298 135Q314 159 326 186T344 240L365 345Q373 385 352 411T288 437Q239 437 213 406T174 312L157 229Q153 209 150 188T147 155Q147 122 163 104T212 85ZM390 787L476 623L413 583L330 704L203 583L147 630L286 787H390Z" />
<glyph unicode="&#xe3;" glyph-name="atilde" horiz-adv-x="537" d="M382 0Q312 0 312 63Q312 76 316 95L320 116H307Q281 47 246 18T157 -12Q95 -12 63 28T30 154Q30 184 34 216T43 277Q66 401 120 467T260 534Q311 534 339 507T370 432H383L401 522H516L430
93H487L468 0H382ZM212 85Q265 85 298 135Q314 159 326 186T344 240L365 345Q373 385 352 411T288 437Q239 437 213 406T174 312L157 229Q153 209 150 188T147 155Q147 122 163 104T212 85ZM386 605Q370 605 354 610T316 629Q293 643 280 647T254 652Q240 652 230
647T200 626L166 682Q212 741 266 741Q282 741 298 736T336 717Q359 703 372 699T398 694Q412 694 422 699T452 720L486 664Q440 605 386 605Z" />
<glyph unicode="&#xe4;" glyph-name="adieresis" horiz-adv-x="537" d="M382 0Q312 0 312 63Q312 76 316 95L320 116H307Q281 47 246 18T157 -12Q95 -12 63 28T30 154Q30 184 34 216T43 277Q66 401 120 467T260 534Q311 534 339 507T370 432H383L401 522H516L430
93H487L468 0H382ZM212 85Q265 85 298 135Q314 159 326 186T344 240L365 345Q373 385 352 411T288 437Q239 437 213 406T174 312L157 229Q153 209 150 188T147 155Q147 122 163 104T212 85ZM226 607Q197 607 185 619T172 648Q172 653 173 659T178 681Q192 738 251
738Q280 738 292 726T305 697Q305 692 304 686T299 664Q285 607 226 607ZM404 607Q375 607 363 619T350 648Q350 653 351 659T356 681Q370 738 429 738Q458 738 470 726T483 697Q483 692 482 686T477 664Q463 607 404 607Z" />
<glyph unicode="&#xe5;" glyph-name="aring" horiz-adv-x="537" d="M382 0Q312 0 312 63Q312 76 316 95L320 116H307Q281 47 246 18T157 -12Q95 -12 63 28T30 154Q30 184 34 216T43 277Q66 401 120 467T260 534Q311 534 339 507T370 432H383L401 522H516L430 93H487L468
0H382ZM212 85Q265 85 298 135Q314 159 326 186T344 240L365 345Q373 385 352 411T288 437Q239 437 213 406T174 312L157 229Q153 209 150 188T147 155Q147 122 163 104T212 85ZM307 563Q253 563 221 591T189 676Q189 709 200 737T231 787T279 821T343 833Q397
833 429 805T461 720Q461 687 450 659T419 609T371 575T307 563ZM314 628Q362 628 372 673Q376 690 379 707T382 734Q382 750 370 759T336 768Q288 768 278 723Q274 706 271 689T268 662Q268 646 280 637T314 628Z" />
<glyph unicode="&#xe6;" glyph-name="ae" horiz-adv-x="744" d="M202 75Q240 75 265 95T299 154L313 222L237 219Q193 217 174 204T148 164Q142 135 142 123Q142 75 202 75ZM557 444Q515 444 490 416T453 330L446 298Q495 300 528 306T583 322T613 348T622 386Q622
413 606 428T557 444ZM159 -12Q23 -12 23 111Q23 157 35 190T74 244T142 277T241 290L327 294L335 334Q338 352 338 367Q338 405 321 422T263 440Q222 440 196 424T149 369L82 434Q112 482 163 508T274 534Q387 534 408 440H421Q438 485 482 509T583 534Q655 534
695 497T735 397Q735 352 718 321T665 269T570 238T431 225Q427 209 426 194T424 167Q424 122 443 103T505 83Q546 83 576 101T633 160L704 101Q666 44 617 16T500 -12Q368 -12 334 92H321Q302 42 259 15T159 -12Z" />
<glyph unicode="&#xe7;" glyph-name="ccedilla" horiz-adv-x="445" d="M282 534Q356 534 397 498T448 403L351 366Q345 405 328 422T273 440Q229 440 206 411T168 313L149 215Q144 190 144 168Q144 82 218 82Q260 82 283 104T320 173L411 130Q386 63 340 29T230
-11L205 -71H215Q227 -51 259 -51Q284 -51 295 -65T307 -104Q307 -155 273 -182T181 -209Q141 -209 117 -197T81 -164L125 -121Q132 -132 144 -140T180 -149Q205 -149 216 -138T227 -109Q227 -95 219 -90T188 -85H144L174 -10Q104 0 67 50T30 188Q30 212 32 240T40
294Q63 406 124 470T282 534Z" />
<glyph unicode="&#xe8;" glyph-name="egrave" horiz-adv-x="464" d="M218 -12Q119 -12 75 40T30 188Q30 212 32 241T40 294Q65 411 127 472T290 534Q364 534 409 498T455 392Q455 303 382 261T149 214Q146 202 145 190T144 168Q144 125 162 104T222 82Q263 82
294 100T353 160L424 101Q385 41 335 15T218 -12ZM276 444Q234 444 209 416T172 329L164 291Q218 294 252 300T307 318T334 345T342 382Q342 444 276 444ZM205 761L305 805L361 611L290 581L205 761Z" />
<glyph unicode="&#xe9;" glyph-name="eacute" horiz-adv-x="464" d="M218 -12Q119 -12 75 40T30 188Q30 212 32 241T40 294Q65 411 127 472T290 534Q364 534 409 498T455 392Q455 303 382 261T149 214Q146 202 145 190T144 168Q144 125 162 104T222 82Q263 82
294 100T353 160L424 101Q385 41 335 15T218 -12ZM276 444Q234 444 209 416T172 329L164 291Q218 294 252 300T307 318T334 345T342 382Q342 444 276 444ZM324 581L257 622L367 805L455 749L324 581Z" />
<glyph unicode="&#xea;" glyph-name="ecircumflex" horiz-adv-x="464" d="M218 -12Q119 -12 75 40T30 188Q30 212 32 241T40 294Q65 411 127 472T290 534Q364 534 409 498T455 392Q455 303 382 261T149 214Q146 202 145 190T144 168Q144 125 162 104T222 82Q263
82 294 100T353 160L424 101Q385 41 335 15T218 -12ZM276 444Q234 444 209 416T172 329L164 291Q218 294 252 300T307 318T334 345T342 382Q342 444 276 444ZM385 787L471 623L408 583L325 704L198 583L142 630L281 787H385Z" />
<glyph unicode="&#xeb;" glyph-name="edieresis" horiz-adv-x="464" d="M218 -12Q119 -12 75 40T30 188Q30 212 32 241T40 294Q65 411 127 472T290 534Q364 534 409 498T455 392Q455 303 382 261T149 214Q146 202 145 190T144 168Q144 125 162 104T222 82Q263
82 294 100T353 160L424 101Q385 41 335 15T218 -12ZM276 444Q234 444 209 416T172 329L164 291Q218 294 252 300T307 318T334 345T342 382Q342 444 276 444ZM221 607Q192 607 180 619T167 648Q167 653 168 659T173 681Q187 738 246 738Q275 738 287 726T300 697Q300
692 299 686T294 664Q280 607 221 607ZM399 607Q370 607 358 619T345 648Q345 653 346 659T351 681Q365 738 424 738Q453 738 465 726T478 697Q478 692 477 686T472 664Q458 607 399 607Z" />
<glyph unicode="&#xec;" glyph-name="igrave" horiz-adv-x="261" d="M102 0Q66 0 49 15T32 64Q32 80 36 97L121 522H236L150 94H203L184 0H102ZM343 761L443 805L499 611L428 581L343 761Z" />
<glyph unicode="&#xed;" glyph-name="iacute" horiz-adv-x="261" d="M102 0Q66 0 49 15T32 64Q32 80 36 97L121 522H236L150 94H203L184 0H102ZM462 581L395 622L505 805L593 749L462 581Z" />
<glyph unicode="&#xee;" glyph-name="icircumflex" horiz-adv-x="261" d="M102 0Q66 0 49 15T32 64Q32 80 36 97L121 522H236L150 94H203L184 0H102ZM292 630L421 787H525L601 623L538 583L465 704L348 583L292 630Z" />
<glyph unicode="&#xef;" glyph-name="idieresis" horiz-adv-x="261" d="M102 0Q66 0 49 15T32 64Q32 80 36 97L121 522H236L150 94H203L184 0H102ZM532 607Q503 607 491 619T478 648Q478 653 479 659T484 681Q498 738 557 738Q586 738 598 726T611 697Q611 692
610 686T605 664Q591 607 532 607ZM366 607Q337 607 325 619T312 648Q312 653 313 659T318 681Q332 738 391 738Q420 738 432 726T445 697Q445 692 444 686T439 664Q425 607 366 607Z" />
<glyph unicode="&#xf0;" glyph-name="eth" horiz-adv-x="513" d="M400 654Q436 600 459 534T482 395Q482 357 478 316T465 238Q440 116 380 52T212 -12Q163 -12 129 2T72 41T40 101T29 178Q29 201 31 229T39 283Q60 386 110 444T238 503Q289 503 318 478T355 413H368Q367
456 352 503T304 597L211 542L184 592L269 643Q246 670 219 694T160 740H323Q343 724 364 700L450 752L478 702L400 654ZM221 83Q268 83 291 112T328 207L343 280Q345 292 346 304T348 328Q348 409 270 409Q223 409 200 380T163 285L148 212Q146 200 145 188T143
164Q143 83 221 83Z" />
<glyph unicode="&#xf1;" glyph-name="ntilde" horiz-adv-x="530" d="M17 0L121 522H236L213 408H227Q249 471 285 502T377 534Q486 534 486 403Q486 386 483 363T475 323L429 93H482L463 0H380Q310 0 310 65Q310 72 311 79T314 94L357 309Q360 326 362 346T365
380Q365 411 353 424T315 437Q289 437 272 426T237 391Q220 368 208 342T189 285L132 0H17ZM406 605Q390 605 374 610T336 629Q313 643 300 647T274 652Q260 652 250 647T220 626L186 682Q232 741 286 741Q302 741 318 736T356 717Q379 703 392 699T418 694Q432
694 442 699T472 720L506 664Q460 605 406 605Z" />
<glyph unicode="&#xf2;" glyph-name="ograve" horiz-adv-x="492" d="M209 -12Q30 -12 30 188Q30 212 32 240T40 294Q63 406 121 470T283 534Q462 534 462 334Q462 310 460 282T452 228Q429 116 371 52T209 -12ZM219 82Q263 82 287 111T324 209L343 307Q348 332
348 354Q348 440 273 440Q229 440 205 411T168 313L149 215Q144 190 144 168Q144 82 219 82ZM204 761L304 805L360 611L289 581L204 761Z" />
<glyph unicode="&#xf3;" glyph-name="oacute" horiz-adv-x="492" d="M209 -12Q30 -12 30 188Q30 212 32 240T40 294Q63 406 121 470T283 534Q462 534 462 334Q462 310 460 282T452 228Q429 116 371 52T209 -12ZM219 82Q263 82 287 111T324 209L343 307Q348 332
348 354Q348 440 273 440Q229 440 205 411T168 313L149 215Q144 190 144 168Q144 82 219 82ZM323 581L256 622L366 805L454 749L323 581Z" />
<glyph unicode="&#xf4;" glyph-name="ocircumflex" horiz-adv-x="492" d="M209 -12Q30 -12 30 188Q30 212 32 240T40 294Q63 406 121 470T283 534Q462 534 462 334Q462 310 460 282T452 228Q429 116 371 52T209 -12ZM219 82Q263 82 287 111T324 209L343 307Q348
332 348 354Q348 440 273 440Q229 440 205 411T168 313L149 215Q144 190 144 168Q144 82 219 82ZM384 787L470 623L407 583L324 704L197 583L141 630L280 787H384Z" />
<glyph unicode="&#xf5;" glyph-name="otilde" horiz-adv-x="492" d="M209 -12Q30 -12 30 188Q30 212 32 240T40 294Q63 406 121 470T283 534Q462 534 462 334Q462 310 460 282T452 228Q429 116 371 52T209 -12ZM219 82Q263 82 287 111T324 209L343 307Q348 332
348 354Q348 440 273 440Q229 440 205 411T168 313L149 215Q144 190 144 168Q144 82 219 82ZM380 605Q364 605 348 610T310 629Q287 643 274 647T248 652Q234 652 224 647T194 626L160 682Q206 741 260 741Q276 741 292 736T330 717Q353 703 366 699T392 694Q406
694 416 699T446 720L480 664Q434 605 380 605Z" />
<glyph unicode="&#xf6;" glyph-name="odieresis" horiz-adv-x="492" d="M209 -12Q30 -12 30 188Q30 212 32 240T40 294Q63 406 121 470T283 534Q462 534 462 334Q462 310 460 282T452 228Q429 116 371 52T209 -12ZM219 82Q263 82 287 111T324 209L343 307Q348
332 348 354Q348 440 273 440Q229 440 205 411T168 313L149 215Q144 190 144 168Q144 82 219 82ZM220 607Q191 607 179 619T166 648Q166 653 167 659T172 681Q186 738 245 738Q274 738 286 726T299 697Q299 692 298 686T293 664Q279 607 220 607ZM398 607Q369 607
357 619T344 648Q344 653 345 659T350 681Q364 738 423 738Q452 738 464 726T477 697Q477 692 476 686T471 664Q457 607 398 607Z" />
<glyph unicode="&#xf7;" glyph-name="divide" horiz-adv-x="540" d="M59 260L78 355H497L478 260H59ZM228 53Q195 53 182 63T168 92Q168 100 170 111T174 132Q181 158 199 173T254 188Q287 188 300 178T314 149Q314 141 312 130T308 109Q301 83 283 68T228 53ZM302
428Q269 428 256 438T242 467Q242 475 244 486T248 507Q255 533 273 548T328 563Q361 563 374 553T388 524Q388 516 386 505T382 484Q375 458 357 443T302 428Z" />
<glyph unicode="&#xf8;" glyph-name="oslash" horiz-adv-x="492" d="M232 291L337 415Q319 443 274 443Q229 443 205 414T167 316L160 278L131 175H141L232 291ZM218 80Q263 80 287 109T325 207L332 245L361 348H351L260 232L155 108Q173 80 218 80ZM209 -12Q169
-12 139 -2T88 25L26 -44L-33 9L44 92Q30 133 30 188Q30 212 32 240T40 294Q63 406 121 470T283 534Q362 534 404 497L467 567L525 514L448 430Q456 409 459 385T462 334Q462 310 460 282T452 228Q429 116 371 52T209 -12Z" />
<glyph unicode="&#xf9;" glyph-name="ugrave" horiz-adv-x="533" d="M233 522L170 211Q162 174 162 142Q162 112 174 99T212 86Q238 86 256 97T290 131Q306 154 318 180T337 235L394 522H509L424 93H479L461 0H374Q338 0 322 15T305 65Q305 72 306 79T309 95L312
114H299Q277 52 241 20T150 -12Q94 -12 68 20T42 114Q42 135 45 157T52 197L118 522H233ZM217 761L317 805L373 611L302 581L217 761Z" />
<glyph unicode="&#xfa;" glyph-name="uacute" horiz-adv-x="533" d="M233 522L170 211Q162 174 162 142Q162 112 174 99T212 86Q238 86 256 97T290 131Q306 154 318 180T337 235L394 522H509L424 93H479L461 0H374Q338 0 322 15T305 65Q305 72 306 79T309 95L312
114H299Q277 52 241 20T150 -12Q94 -12 68 20T42 114Q42 135 45 157T52 197L118 522H233ZM336 581L269 622L379 805L467 749L336 581Z" />
<glyph unicode="&#xfb;" glyph-name="ucircumflex" horiz-adv-x="533" d="M233 522L170 211Q162 174 162 142Q162 112 174 99T212 86Q238 86 256 97T290 131Q306 154 318 180T337 235L394 522H509L424 93H479L461 0H374Q338 0 322 15T305 65Q305 72 306 79T309
95L312 114H299Q277 52 241 20T150 -12Q94 -12 68 20T42 114Q42 135 45 157T52 197L118 522H233ZM397 787L483 623L420 583L337 704L210 583L154 630L293 787H397Z" />
<glyph unicode="&#xfc;" glyph-name="udieresis" horiz-adv-x="533" d="M233 522L170 211Q162 174 162 142Q162 112 174 99T212 86Q238 86 256 97T290 131Q306 154 318 180T337 235L394 522H509L424 93H479L461 0H374Q338 0 322 15T305 65Q305 72 306 79T309 95L312
114H299Q277 52 241 20T150 -12Q94 -12 68 20T42 114Q42 135 45 157T52 197L118 522H233ZM233 607Q204 607 192 619T179 648Q179 653 180 659T185 681Q199 738 258 738Q287 738 299 726T312 697Q312 692 311 686T306 664Q292 607 233 607ZM411 607Q382 607 370
619T357 648Q357 653 358 659T363 681Q377 738 436 738Q465 738 477 726T490 697Q490 692 489 686T484 664Q470 607 411 607Z" />
<glyph unicode="&#xfd;" glyph-name="yacute" horiz-adv-x="460" d="M386 522H507L198 -111Q186 -136 173 -153T143 -180T107 -195T59 -200H-27L-8 -107H84L117 -34L57 522H172L194 293L193 100H206L277 293L386 522ZM298 581L231 622L341 805L429 749L298 581Z" />
<glyph unicode="&#xfe;" glyph-name="thorn" d="M164 740H279L212 406H225Q252 475 286 504T375 534Q437 534 469 494T502 368Q502 338 498 306T489 245Q466 121 412 55T272 -12Q221 -12 193 15T162 90H149L91 -200H-24L164 740ZM245 85Q293 85 319 116T358 211L375
294Q379 314 382 335T385 368Q385 401 369 419T320 437Q292 437 272 425T234 387Q217 364 205 336T188 282L167 178Q159 138 180 112T245 85Z" />
<glyph unicode="&#xff;" glyph-name="ydieresis" horiz-adv-x="460" d="M386 522H507L198 -111Q186 -136 173 -153T143 -180T107 -195T59 -200H-27L-8 -107H84L117 -34L57 522H172L194 293L193 100H206L277 293L386 522ZM195 607Q166 607 154 619T141 648Q141
653 142 659T147 681Q161 738 220 738Q249 738 261 726T274 697Q274 692 273 686T268 664Q254 607 195 607ZM373 607Q344 607 332 619T319 648Q319 653 320 659T325 681Q339 738 398 738Q427 738 439 726T452 697Q452 692 451 686T446 664Q432 607 373 607Z" />
<glyph unicode="&#x2013;" glyph-name="endash" horiz-adv-x="522" d="M29 255L49 352H507L487 255H29Z" />
<glyph unicode="&#x2014;" glyph-name="emdash" horiz-adv-x="692" d="M29 255L49 352H677L657 255H29Z" />
<glyph unicode="&#x2018;" glyph-name="quoteleft" horiz-adv-x="272" d="M178 463Q146 463 130 476T114 513Q114 519 116 531T121 556Q133 605 166 653T250 740H328Q291 708 265 678T221 613Q245 611 257 599T270 569Q270 562 268 550T263 525Q255 496 235 480T178 463Z" />
<glyph unicode="&#x2019;" glyph-name="quoteright" horiz-adv-x="272" d="M231 744Q263 744 279 731T295 694Q295 688 293 676T288 651Q276 602 243 554T159 467H81Q118 499 144 529T188 594Q164 596 152 608T139 638Q139 645 141 657T146 682Q154 711 174 727T231 744Z" />
<glyph unicode="&#x201a;" glyph-name="quotesinglbase" horiz-adv-x="272" d="M114 160Q146 160 162 147T178 110Q178 104 176 92T171 67Q159 18 126 -30T42 -117H-36Q1 -85 27 -55T71 10Q47 12 35 24T22 54Q22 61 24 73T29 98Q37 127 57 143T114 160Z" />
<glyph unicode="&#x201c;" glyph-name="quotedblleft" horiz-adv-x="477" d="M178 463Q146 463 130 476T114 513Q114 519 116 531T121 556Q133 605 166 653T250 740H328Q291 708 265 678T221 613Q245 611 257 599T270 569Q270 562 268 550T263 525Q255 496 235
480T178 463ZM383 463Q351 463 335 476T319 513Q319 519 321 531T326 556Q338 605 371 653T455 740H533Q496 708 470 678T426 613Q450 611 462 599T475 569Q475 562 473 550T468 525Q460 496 440 480T383 463Z" />
<glyph unicode="&#x201d;" glyph-name="quotedblright" horiz-adv-x="477" d="M231 744Q263 744 279 731T295 694Q295 688 293 676T288 651Q276 602 243 554T159 467H81Q118 499 144 529T188 594Q164 596 152 608T139 638Q139 645 141 657T146 682Q154 711 174
727T231 744ZM436 744Q468 744 484 731T500 694Q500 688 498 676T493 651Q481 602 448 554T364 467H286Q323 499 349 529T393 594Q369 596 357 608T344 638Q344 645 346 657T351 682Q359 711 379 727T436 744Z" />
<glyph unicode="&#x201e;" glyph-name="quotedblbase" horiz-adv-x="477" d="M114 160Q146 160 162 147T178 110Q178 104 176 92T171 67Q159 18 126 -30T42 -117H-36Q1 -85 27 -55T71 10Q47 12 35 24T22 54Q22 61 24 73T29 98Q37 127 57 143T114 160ZM319 160Q351
160 367 147T383 110Q383 104 381 92T376 67Q364 18 331 -30T247 -117H169Q206 -85 232 -55T276 10Q252 12 240 24T227 54Q227 61 229 73T234 98Q242 127 262 143T319 160Z" />
<glyph unicode="&#x2022;" glyph-name="bullet" horiz-adv-x="375" d="M172 168Q109 168 84 191T58 252Q58 260 60 275T69 319Q94 434 218 434Q281 434 306 411T332 350Q332 342 330 327T321 283Q296 168 172 168Z" />
<glyph unicode="&#x2039;" glyph-name="guilsinglleft" horiz-adv-x="282" d="M165 82L28 227L49 331L233 475L267 403L130 280L127 267L218 146L165 82Z" />
<glyph unicode="&#x203a;" glyph-name="guilsinglright" horiz-adv-x="282" d="M20 154L157 277L160 290L69 411L122 475L259 330L238 226L54 82L20 154Z" />
</font>
</defs>
</svg>
