<?xml version="1.0" standalone="no"?>
<!DOCTYPE svg PUBLIC "-//W3C//DTD SVG 1.1//EN" "http://www.w3.org/Graphics/SVG/1.1/DTD/svg11.dtd">
<svg xmlns="http://www.w3.org/2000/svg">
<defs >
<font id="IBMPlexSerif" horiz-adv-x="588" ><font-face
    font-family="IBM Plex Serif Medium"
    units-per-em="1000"
    panose-1="2 6 6 3 5 4 6 0 2 3"
    ascent="1025"
    descent="-275"
    alphabetic="0" />
<glyph unicode=" " glyph-name="space" horiz-adv-x="212" />
<glyph unicode="!" glyph-name="exclam" horiz-adv-x="276" d="M141 520L186 698H309L265 520L149 201H99L141 520ZM80 -12Q47 -12 29 6T11 50Q11 60 14 75Q22 106 45 124T100 142Q133 142 151 124T169 80Q169 70 166 55Q158 24 135 6T80 -12Z" />
<glyph unicode="&quot;" glyph-name="quotedbl" horiz-adv-x="418" d="M161 638L187 740H282L256 638L176 440H141L161 638ZM352 638L378 740H473L447 638L367 440H332L352 638Z" />
<glyph unicode="#" glyph-name="numbersign" horiz-adv-x="610" d="M338 201H194L113 0H41L122 201H19L35 262H147L218 436H115L131 497H242L323 698H395L314 497H458L539 698H611L530 497H633L617 436H505L434 262H537L521 201H410L329 0H257L338 201ZM362 262L433
436H290L219 262H362Z" />
<glyph unicode="$" glyph-name="dollar" horiz-adv-x="553" d="M184 -3Q149 -1 119 7T67 29T33 65T20 114Q20 131 25 147T40 176T64 196T97 204Q125 204 140 187T155 147Q155 121 140 99T92 70V63Q111 55 134 51T197 46L263 310L256 313Q185 339 152 377T119 482Q119
527 135 566T183 634T259 681T360 702L380 780H434L414 702Q444 699 470 691T516 668T547 632T559 584Q559 567 554 551T539 523T515 503T482 495Q454 495 439 511T424 552Q424 578 439 599T487 628V636Q469 642 450 646T401 652L339 407L356 401Q429 375 461 337T493
237Q493 190 475 148T424 73T344 20T238 -4L218 -82H164L184 -3ZM392 199Q392 234 371 255T311 293L250 50Q281 56 307 69T352 103T381 147T392 199ZM216 519Q216 486 234 464T292 424L348 649Q314 644 290 632T249 601T224 562T216 519Z" />
<glyph unicode="%" glyph-name="percent" horiz-adv-x="847" d="M718 698H788L174 0H104L718 698ZM226 314Q173 314 138 342T103 439Q103 461 107 490T122 549T149 608T189 659T244 696T317 710Q370 710 404 682T440 585Q440 563 435 534T420 475T393 416T353
365T298 328T226 314ZM233 359Q295 359 324 466Q336 518 345 554T355 611Q355 640 342 652T310 665Q247 665 219 558Q206 506 197 470T188 413Q188 384 200 372T233 359ZM576 -12Q523 -12 488 16T453 113Q453 135 457 164T472 223T499 282T539 333T594 370T667
384Q720 384 754 356T790 259Q790 237 785 208T770 149T743 90T703 39T648 2T576 -12ZM583 33Q645 33 674 140Q686 192 695 228T705 285Q705 314 692 326T660 339Q597 339 569 232Q556 180 547 144T538 87Q538 58 550 46T583 33Z" />
<glyph unicode="&amp;" glyph-name="ampersand" horiz-adv-x="680" d="M216 -12Q120 -12 66 25T11 138Q11 184 27 219T71 282T139 334T225 379L216 395Q198 430 189 455T179 511Q179 557 197 594T247 656T320 696T408 710Q487 710 525 680T563 596Q563 557 543
525T492 467T421 421T345 383L457 179Q481 211 501 248T534 328H472L486 382H673L660 328H597Q578 268 550 218T486 125L504 93Q517 70 541 61T603 52L590 0H498Q465 0 444 12T406 49Q364 20 317 4T216 -12ZM244 48Q281 48 315 60T379 96L249 335Q204 305 180 271T147
195Q144 184 141 167T137 137Q137 92 166 70T244 48ZM292 527Q292 501 299 477T323 424Q377 453 409 485T451 556Q453 562 455 575T458 599Q458 627 443 642T401 657Q363 657 336 632T298 568Q292 547 292 527Z" />
<glyph unicode="&apos;" glyph-name="quotesingle" horiz-adv-x="227" d="M161 638L187 740H282L256 638L176 440H141L161 638Z" />
<glyph unicode="(" glyph-name="parenleft" horiz-adv-x="315" d="M438 739Q393 709 354 667T283 573T227 463T187 342L168 263Q148 185 148 108Q148 77 152 46T165 -16T188 -73T222 -121L185 -156Q155 -135 129 -103T83 -29T52 64T40 177Q40 262 67 351Q88 421
124 486T207 606T307 706T414 780L438 739Z" />
<glyph unicode=")" glyph-name="parenright" horiz-adv-x="315" d="M-98 -115Q-54 -85 -15 -43T56 51T112 161T152 282L172 361Q192 439 192 516Q192 547 188 578T175 640T152 697T118 745L155 780Q185 759 211 727T257 653T288 560T300 447Q300 405 294 362T273
273Q252 202 216 138T133 18T33 -82T-74 -156L-98 -115Z" />
<glyph unicode="*" glyph-name="asterisk" horiz-adv-x="484" d="M304 694L317 747H413L400 694L344 589H309L304 694ZM157 553L109 569L157 650L204 634L285 574L269 546L157 553ZM360 574L464 635L520 651L528 563L474 547L363 544L360 574ZM233 402L190 358L122
413L164 457L271 524L296 504L233 402ZM347 522L422 450L442 406L355 357L334 401L318 505L347 522Z" />
<glyph unicode="+" glyph-name="plus" horiz-adv-x="550" d="M242 273H65L81 337H258L307 534H380L331 337H507L490 273H315L266 76H193L242 273Z" />
<glyph unicode="," glyph-name="comma" horiz-adv-x="267" d="M-58 -139Q-19 -109 11 -76T61 -10Q36 -5 22 12T7 51Q7 64 10 76Q17 105 40 123T96 142Q128 142 146 122T165 76Q165 70 164 63T161 48Q154 22 138 -4T101 -55T56 -101T9 -139H-58Z" />
<glyph unicode="-" glyph-name="hyphen" horiz-adv-x="369" d="M55 265L75 345H337L317 265H55Z" />
<glyph unicode="." glyph-name="period" horiz-adv-x="266" d="M76 -12Q43 -12 25 6T7 50Q7 60 10 75Q18 106 41 124T96 142Q129 142 147 124T165 80Q165 70 162 55Q154 24 131 6T76 -12Z" />
<glyph unicode="/" glyph-name="slash" horiz-adv-x="383" d="M-95 -151L382 740H467L-11 -151H-95Z" />
<glyph unicode="0" glyph-name="zero" horiz-adv-x="550" d="M213 -12Q129 -12 84 37T39 189Q39 218 45 268T67 376T107 493T171 600T260 679T380 710Q462 710 507 661T554 509Q554 480 548 430T526 322T485 205T422 98T333 19T213 -12ZM218 44Q251 44 276 60T320
106T354 180T383 279Q398 341 410 386T429 466T441 524T445 570Q445 608 429 631T375 654Q342 654 317 638T273 592T239 518T210 419Q195 357 183 312T164 232T152 174T148 128Q148 90 164 67T218 44Z" />
<glyph unicode="1" glyph-name="one" horiz-adv-x="550" d="M40 52H188L326 609L155 542L146 591L373 698H471L309 52H450L437 0H27L40 52Z" />
<glyph unicode="2" glyph-name="two" horiz-adv-x="550" d="M-1 81L243 298Q299 347 337 398T393 512Q395 520 399 539T404 576Q404 613 383 635T322 657Q291 657 269 652T230 638L227 630Q244 625 254 612T265 579Q265 566 260 553T246 529T222 511T189 504Q162
504 146 519T129 564Q129 592 146 618T194 665T264 697T349 710Q444 710 487 670T531 568Q531 513 510 468T456 385T381 313T298 249L99 99L96 90H367L390 183H463L418 0H-21L-1 81Z" />
<glyph unicode="3" glyph-name="three" horiz-adv-x="550" d="M186 -12Q139 -12 106 -2T51 26T20 65T10 108Q10 129 17 145T35 172T60 189T89 195Q121 195 135 178T149 139Q149 122 143 110T126 89T105 77T83 71L80 63Q96 51 118 46T167 41Q303 41 336 174Q337
178 339 187T344 207T348 229T350 250Q350 274 342 290T320 316T285 330T242 335H178L193 394H252Q321 394 360 427T412 511Q414 523 419 544T424 582Q424 618 402 637T335 657Q309 657 285 653T243 640L240 632Q260 627 269 614T278 581Q278 553 258 530T202 507Q175
507 159 522T142 566Q142 593 159 619T205 665T275 698T364 710Q458 710 504 675T551 576Q551 529 533 494T486 435T421 395T349 373L347 365Q407 354 442 320T477 232Q477 189 459 146T405 67T314 10T186 -12Z" />
<glyph unicode="4" glyph-name="four" horiz-adv-x="550" d="M276 146H2L21 220L403 698H530L412 225H504L484 146H392L356 0H239L276 146ZM295 225L389 596H382L91 225H295Z" />
<glyph unicode="5" glyph-name="five" horiz-adv-x="550" d="M197 -12Q149 -12 116 -1T63 27T33 66T24 108Q24 150 48 172T103 195Q134 195 148 178T163 139Q163 122 157 110T142 90T120 77T97 71L94 63Q108 51 130 46T178 41Q242 41 284 81T346 197Q348 203 353
227T359 274Q359 322 333 342T270 362Q233 362 202 343T151 299L94 312L214 698H570L546 602H239L159 342H168Q191 377 230 404T331 431Q361 431 389 423T439 398T474 352T487 283Q487 220 465 167T403 73T311 11T197 -12Z" />
<glyph unicode="6" glyph-name="six" horiz-adv-x="550" d="M213 -12Q132 -12 84 32T36 167Q36 221 50 279T91 393T160 502T257 596T381 668T532 710L534 662Q473 649 420 620T322 549T246 456T195 346L203 344Q213 362 228 379T264 409T309 431T366 439Q428 439
465 403T502 295Q502 223 478 167T413 70T321 9T213 -12ZM220 44Q250 44 272 55T311 88T339 138T360 202Q361 206 363 216T369 240T374 268T376 295Q376 329 360 351T305 373Q275 373 253 361T214 328T186 278T165 215Q164 210 162 200T156 177T151 149T149 122Q149
88 165 66T220 44Z" />
<glyph unicode="7" glyph-name="seven" horiz-adv-x="550" d="M496 602H213L181 474H108L164 698H601L582 621L208 0H86L496 602Z" />
<glyph unicode="8" glyph-name="eight" horiz-adv-x="550" d="M217 -12Q118 -12 70 30T21 141Q21 189 38 227T85 293T151 338T227 360L229 368Q189 377 159 410T128 499Q128 542 146 580T197 647T277 693T383 710Q431 710 465 700T521 672T554 629T565 572Q565
529 548 493T504 431T444 388T380 368L378 360Q431 349 463 317T496 227Q496 186 479 144T427 67T340 10T217 -12ZM226 42Q283 42 315 81T362 183Q363 186 365 195T369 216T374 240T376 262Q376 299 355 319T293 340Q236 340 204 301T157 199Q156 196 154 187T150
166T145 142T143 120Q143 83 164 63T226 42ZM313 392Q340 392 359 402T393 429T416 470T433 522Q439 546 442 560T445 589Q445 624 427 641T375 658Q348 658 329 648T295 621T272 580T255 528Q249 504 246 490T243 461Q243 426 261 409T313 392Z" />
<glyph unicode="9" glyph-name="nine" horiz-adv-x="550" d="M61 36Q122 49 175 78T273 149T349 242T400 352L392 354Q382 336 367 319T331 289T286 267T229 259Q167 259 130 295T93 403Q93 475 117 531T182 628T274 689T382 710Q463 710 511 666T559 531Q559
477 545 419T504 305T435 196T338 102T214 29T63 -12L61 36ZM290 325Q320 325 342 336T381 369T409 419T430 483Q431 487 433 497T439 521T444 549T446 576Q446 610 430 632T375 654Q345 654 323 642T284 609T256 559T235 496Q234 491 232 481T226 458T221 430T219
403Q219 369 235 347T290 325Z" />
<glyph unicode=":" glyph-name="colon" horiz-adv-x="274" d="M83 -12Q50 -12 32 6T14 50Q14 60 17 75Q25 106 48 124T103 142Q136 142 154 124T172 80Q172 70 169 55Q161 24 138 6T83 -12ZM180 376Q147 376 129 394T111 438Q111 448 114 463Q122 494 145 512T200
530Q233 530 251 512T269 468Q269 458 266 443Q258 412 235 394T180 376Z" />
<glyph unicode=";" glyph-name="semicolon" horiz-adv-x="274" d="M-52 -139Q-13 -109 17 -76T67 -10Q42 -5 28 12T13 51Q13 64 16 76Q23 105 46 123T102 142Q134 142 152 122T171 76Q171 70 170 63T167 48Q160 22 144 -4T107 -55T62 -101T15 -139H-52ZM180 376Q147
376 129 394T111 438Q111 448 114 463Q122 494 145 512T200 530Q233 530 251 512T269 468Q269 458 266 443Q258 412 235 394T180 376Z" />
<glyph unicode="&lt;" glyph-name="less" horiz-adv-x="550" d="M81 231L99 304L520 546L500 463L172 266L169 256L399 57L382 -12L81 231Z" />
<glyph unicode="=" glyph-name="equal" horiz-adv-x="550" d="M92 381L108 445H534L517 381H92ZM39 167L55 231H481L464 167H39Z" />
<glyph unicode="&gt;" glyph-name="greater" horiz-adv-x="550" d="M55 71L383 268L385 278L155 477L173 546L474 303L456 230L35 -12L55 71Z" />
<glyph unicode="?" glyph-name="question" horiz-adv-x="462" d="M176 376Q248 380 298 415T366 520Q368 528 372 546T376 581Q376 618 354 637T294 657Q271 657 247 653T207 640L204 632Q221 627 231 615T242 582Q242 555 223 531T167 507Q138 507 122 522T105
566Q105 596 124 622T174 667T246 698T330 710Q376 710 409 700T463 671T494 628T504 574Q504 515 480 469T415 391T326 341T225 319L200 219H136L176 376ZM122 -12Q89 -12 71 6T53 50Q53 60 56 75Q64 106 87 124T142 142Q175 142 193 124T211 80Q211 70 208 55Q200
24 177 6T122 -12Z" />
<glyph unicode="@" glyph-name="at" horiz-adv-x="840" d="M363 136Q378 136 394 148T426 179T456 223T482 272T502 318T513 355L516 372Q524 409 516 430T475 452Q439 452 408 420T357 319Q353 305 349 287T342 251T337 217T335 188Q335 163 341 150T363 136ZM531
-109Q483 -114 440 -117T349 -121Q290 -121 237 -104T144 -51T81 38T58 164Q58 226 71 291T111 416T177 530T267 624T382 687T519 710Q582 710 634 694T723 645T781 565T802 454Q802 384 785 315T736 192T663 103T569 69Q521 69 499 94T477 161Q477 185 484 212L476
214Q461 182 446 156T414 110T375 80T328 69Q284 69 264 101T244 191Q244 241 258 297T300 400T365 478T451 509Q487 509 509 491T542 433H549L591 500H637L559 183Q556 172 555 165T554 149Q554 115 586 115Q605 115 624 129T659 170T690 233T716 314Q727 356
732 387T737 454Q737 560 680 615T519 670Q448 670 389 643T282 568T202 456T150 317Q148 310 144 293T135 254T127 208T123 162Q123 104 141 60T191 -15T265 -60T358 -76H540L531 -109Z" />
<glyph unicode="A" glyph-name="A" horiz-adv-x="652" d="M-54 0L-41 52H9L380 698H491L539 52H589L576 0H335L348 52H419L410 224H180L85 52H156L144 0H-54ZM384 600L208 278H407L391 600H384Z" />
<glyph unicode="B" glyph-name="B" horiz-adv-x="630" d="M-26 0L-13 52H53L201 646H135L148 698H462Q550 698 591 664T632 564Q632 489 586 438T459 368L457 360Q508 347 541 313T575 223Q575 182 559 143T512 71T436 20T334 0H-26ZM299 56Q350 56 387 87T439
174Q446 200 450 219T455 252Q455 287 435 309T372 332H246L177 56H299ZM366 388Q414 388 448 418T496 500Q502 524 506 542T511 574Q511 603 494 622T435 642H323L260 388H366Z" />
<glyph unicode="C" glyph-name="C" horiz-adv-x="603" d="M543 165Q525 133 499 101T437 44T360 4T268 -12Q221 -12 182 2T115 46T70 121T54 228Q54 278 64 333T96 442T149 544T221 630T312 688T422 710Q478 710 510 689T552 637H561L576 698H668L615 485H523L535
533Q537 541 538 548T539 563Q539 604 510 626T435 649Q393 649 360 632T300 584T255 515T226 433Q212 377 203 340T189 278T181 234T178 197Q178 135 209 97T304 59Q370 59 419 96T504 190L543 165V165Z" />
<glyph unicode="D" glyph-name="D" horiz-adv-x="682" d="M-13 52H53L201 646H135L148 698H428Q486 698 530 681T605 632T651 556T667 458Q667 418 658 369T630 269T580 170T505 84T403 23T272 0H-26L-13 52ZM256 56Q350 56 412 116T501 286Q515 343 524 379T538
438T545 477T547 509Q547 574 512 608T407 642H323L177 56H256Z" />
<glyph unicode="E" glyph-name="E" horiz-adv-x="601" d="M396 334H246L177 56H408L442 192H534L486 0H-26L-13 52H53L201 646H135L148 698H651L607 520H515L546 642H323L261 390H410L429 463H491L440 261H377L396 334Z" />
<glyph unicode="F" glyph-name="F" horiz-adv-x="575" d="M-13 52H53L201 646H135L148 698H651L607 520H515L546 642H323L257 376H407L425 448H487L436 246H373L392 320H243L176 52H266L254 0H-26L-13 52Z" />
<glyph unicode="G" glyph-name="G" horiz-adv-x="697" d="M470 93H462Q450 74 432 56T390 22T334 -2T267 -12Q167 -12 111 48T54 227Q54 279 65 335T99 444T153 546T228 631T323 688T436 710Q499 710 537 689T586 637H594L610 698H701L648 485H557L569 532Q573
547 573 563Q573 603 540 627T451 651Q407 651 370 633T305 584T256 512T224 424Q210 367 201 330T186 267T178 223T175 186Q175 126 204 89T290 51Q350 51 399 88T466 195L489 292H387L400 344H677L663 292H612L540 0H497L470 93Z" />
<glyph unicode="H" glyph-name="H" horiz-adv-x="731" d="M372 0L385 52H451L519 327H245L176 52H242L230 0H-26L-13 52H53L201 646H135L148 698H404L391 646H324L259 384H533L599 646H533L545 698H801L788 646H722L574 52H640L628 0H372Z" />
<glyph unicode="I" glyph-name="I" horiz-adv-x="333" d="M-26 0L-13 52H53L201 646H135L148 698H404L390 646H324L176 52H242L230 0H-26Z" />
<glyph unicode="J" glyph-name="J" horiz-adv-x="455" d="M63 44Q69 42 78 40T97 38Q141 38 168 68T209 155L331 646H241L254 698H533L520 646H454L336 169Q314 79 258 34T108 -12Q40 -12 6 16T-28 84Q-28 115 -9 138T45 161Q73 161 89 146T105 106Q105 88 95
72T63 48V44V44Z" />
<glyph unicode="K" glyph-name="K" horiz-adv-x="687" d="M350 0L363 52H429L338 349L224 245L176 52H242L230 0H-26L-13 52H53L201 646H135L148 698H404L390 646H324L246 333H253L362 435L588 646H512L525 698H749L736 646H675L434 425L561 52H622L609 0H350Z" />
<glyph unicode="L" glyph-name="L" horiz-adv-x="555" d="M324 646L177 56H379L413 192H505L457 0H-26L-13 52H53L201 646H135L148 698H403L390 646H324Z" />
<glyph unicode="M" glyph-name="M" horiz-adv-x="815" d="M872 646H806L657 52H723L710 0H456L469 52H535L669 587H661L568 449L341 109L281 451L259 587H252L118 52H184L171 0H-26L-13 52H53L201 646H135L148 698H353L411 321H418L667 698H885L872 646Z" />
<glyph unicode="N" glyph-name="N" horiz-adv-x="713" d="M-13 52H53L201 646H135L148 698H352L519 169H527L647 646H581L594 698H791L778 646H712L550 0H453L260 592H253L118 52H184L171 0H-26L-13 52Z" />
<glyph unicode="O" glyph-name="O" horiz-adv-x="695" d="M301 47Q341 47 374 63T432 107T476 174T506 257Q521 318 531 359T547 428T555 477T558 518Q558 546 551 570T529 613T489 641T432 651Q392 651 359 635T301 591T257 524T227 441Q212 379 202 339T186
270T178 221T175 180Q175 152 182 128T204 85T244 57T301 47ZM289 -12Q233 -12 189 5T115 56T70 136T54 241Q54 284 64 336T95 440T148 540T223 627T321 687T444 710Q500 710 544 693T618 642T663 562T679 457Q679 414 669 362T638 258T586 158T511 71T412 11T289
-12Z" />
<glyph unicode="P" glyph-name="P" horiz-adv-x="603" d="M474 698Q548 698 592 666T637 565Q637 533 626 490T587 409T511 344T387 317H242L176 52H266L253 0H-26L-13 52H53L201 646H135L148 698H474ZM256 374H371Q419 374 452 404T498 485Q499 492 502 503T508
526T513 550T515 570Q515 602 496 622T438 642H323L256 374Z" />
<glyph unicode="Q" glyph-name="Q" horiz-adv-x="695" d="M400 -177Q348 -177 321 -159T274 -99L230 -5Q145 12 100 76T54 241Q54 284 64 336T95 440T148 540T223 627T321 687T444 710Q500 710 544 693T618 642T663 562T679 457Q679 417 671 370T645 275T601 181T538
97T455 32T352 -6L399 -81Q413 -103 432 -114T479 -126H498L485 -177H400ZM301 47Q341 47 374 63T432 107T476 174T506 257Q521 318 531 359T547 428T555 477T558 518Q558 546 551 570T529 613T489 641T432 651Q392 651 359 635T301 591T257 524T227 441Q212 379
202 339T186 270T178 221T175 180Q175 152 182 128T204 85T244 57T301 47Z" />
<glyph unicode="R" glyph-name="R" horiz-adv-x="644" d="M-13 52H53L201 646H135L148 698H474Q548 698 592 666T637 567Q637 527 626 488T591 417T531 362T445 329L505 113Q514 81 531 67T580 52H589L576 0H505Q475 0 454 4T419 20T396 49T381 96L331 320H243L176
52H242L230 0H-26L-13 52ZM370 374Q418 374 451 404T498 485Q499 492 502 503T508 526T513 550T515 570Q515 602 496 622T438 642H323L256 374H370Z" />
<glyph unicode="S" glyph-name="S" horiz-adv-x="566" d="M226 48Q265 48 297 59T351 90T386 136T398 193Q398 232 377 253T307 292L265 307Q190 333 155 373T120 480Q120 529 139 571T192 644T273 692T377 710Q432 710 463 691T500 642H508L522 698H614L565 499H473L484
546Q488 562 488 576Q488 650 378 650Q340 650 311 639T263 611T235 570T225 523Q225 485 247 462T325 419L365 405Q441 378 473 339T506 237Q506 186 487 141T431 62T345 8T234 -12Q177 -12 143 8T103 61H94L78 0H-14L37 204H129L118 159Q116 150 115 143T113
128Q113 91 140 70T226 48Z" />
<glyph unicode="T" glyph-name="T" horiz-adv-x="639" d="M116 52H206L353 642H215L184 520H92L136 698H720L676 520H584L615 642H477L329 52H419L406 0H103L116 52Z" />
<glyph unicode="U" glyph-name="U" horiz-adv-x="689" d="M318 646L219 245Q205 191 205 152Q205 101 232 76T320 51Q403 51 451 101T526 256L623 646H557L570 698H768L754 646H688L590 251Q573 182 548 133T487 51T407 3T303 -12Q252 -12 212 -3T144 28T101 82T86
162Q86 209 104 277L195 646H129L142 698H397L384 646H318Z" />
<glyph unicode="V" glyph-name="V" horiz-adv-x="622" d="M659 646L300 0H194L155 646H105L118 698H360L347 646H276L286 364L293 110H301L433 362L585 646H514L527 698H722L709 646H659Z" />
<glyph unicode="W" glyph-name="W" horiz-adv-x="929" d="M160 646H110L124 698H365L352 646H281L264 142H271L545 698H652L648 142H655L890 646H819L832 698H1027L1014 646H964L649 0H539L543 548H536L263 0H148L160 646Z" />
<glyph unicode="X" glyph-name="X" horiz-adv-x="634" d="M319 52H380L304 283H296L99 52H160L147 0H-53L-40 52H17L279 342L173 646H116L129 698H373L360 646H299L373 424H381L567 646H506L519 698H719L706 646H649L396 366L508 52H565L553 0H306L319 52Z" />
<glyph unicode="Y" glyph-name="Y" horiz-adv-x="619" d="M117 52H197L254 282L159 646H109L122 698H370L357 646H286L354 358H361L572 646H501L514 698H714L701 646H651L380 295L319 52H399L387 0H104L117 52Z" />
<glyph unicode="Z" glyph-name="Z" horiz-adv-x="584" d="M-11 56L488 642H238L208 520H116L160 698H641L627 642L129 56H399L433 192H525L477 0H-25L-11 56Z" />
<glyph unicode="[" glyph-name="bracketleft" horiz-adv-x="310" d="M196 760H409L396 708H290L90 -86H196L183 -138H-30L196 760Z" />
<glyph unicode="\" glyph-name="backslash" horiz-adv-x="383" d="M193 -151L161 740H235L267 -151H193Z" />
<glyph unicode="]" glyph-name="bracketright" horiz-adv-x="310" d="M139 -138H-73L-60 -86H46L245 708H139L152 760H365L139 -138Z" />
<glyph unicode="^" glyph-name="asciicircum" horiz-adv-x="550" d="M449 311L372 625H365L134 311L78 343L339 698H424L514 337L449 311Z" />
<glyph unicode="_" glyph-name="underscore" horiz-adv-x="521" d="M-60 -97H403L387 -160H-75L-60 -97Z" />
<glyph unicode="`" glyph-name="grave" horiz-adv-x="600" d="M226 747L329 785L352 594L318 582L226 747Z" />
<glyph unicode="a" glyph-name="a" horiz-adv-x="574" d="M141 -12Q84 -12 59 27T34 140Q34 202 52 271T104 398T186 494T295 532Q340 532 368 510T408 437H418L472 520H530L416 67L434 59L536 174L567 152L504 69Q470 24 443 6T388 -12Q347 -12 332 9T316 58Q316
71 319 87T324 113L337 164L327 166Q309 127 290 95T249 38T200 1T141 -12ZM328 467Q285 467 246 426T181 293Q176 276 171 255T163 211T157 169T154 133Q154 102 160 85T187 68Q206 68 226 83T265 123T302 178T334 239T358 297T372 343L377 363Q388 411 377 439T328
467Z" />
<glyph unicode="b" glyph-name="b" horiz-adv-x="547" d="M252 -12Q207 -12 179 10T139 82H129L75 0H17L186 678H100L112 726L325 770L210 356L220 354Q238 392 257 424T298 481T346 518T406 532Q463 532 488 493T513 380Q513 318 495 249T443 122T361 26T252
-12ZM219 53Q262 53 301 94T366 227Q371 243 376 265T384 309T390 351T393 387Q393 418 387 435T360 452Q341 452 321 437T282 397T245 342T213 281T189 223T175 177L170 157Q159 109 170 81T219 53Z" />
<glyph unicode="c" glyph-name="c" horiz-adv-x="448" d="M180 -12Q106 -12 71 30T36 152Q36 210 52 276T102 400T187 494T307 532Q372 532 408 502T445 423Q445 385 423 358T363 330Q334 330 321 347T307 386Q307 411 325 434T385 461V470Q362 487 321 487Q300
487 282 480T246 452T214 396T184 304Q172 259 164 215T156 140Q156 58 221 58Q265 58 304 95T379 201L415 184Q391 136 367 99T315 38T254 1T180 -12Z" />
<glyph unicode="d" glyph-name="d" horiz-adv-x="575" d="M141 -12Q84 -12 59 27T34 140Q34 202 52 271T104 398T186 494T294 532Q339 532 361 512T394 459H404L454 678H368L380 726L593 770L416 67L434 59L536 174L567 152L504 69Q470 24 443 6T388 -12Q348 -12
332 9T316 58Q316 71 319 87T324 113L337 164L327 166Q309 127 290 95T249 38T200 1T141 -12ZM328 467Q285 467 246 426T181 293Q176 276 171 255T163 211T157 169T154 133Q154 102 160 85T187 68Q206 68 226 83T265 123T302 178T334 239T358 297T372 343L377 363Q388
411 377 439T328 467Z" />
<glyph unicode="e" glyph-name="e" horiz-adv-x="467" d="M181 -12Q106 -12 71 31T36 155Q36 193 43 236T65 321T103 401T157 468T229 515T319 532Q346 532 371 527T415 509T447 477T459 428Q459 402 447 375T402 323T315 282T172 259Q165 227 161 196T156 141Q156
58 221 58Q266 58 305 95T381 201L417 184Q393 136 369 100T317 39T256 1T181 -12ZM181 296Q279 309 318 344T358 430Q358 454 347 469T308 484Q287 484 270 475T238 444T209 386T181 296Z" />
<glyph unicode="f" glyph-name="f" horiz-adv-x="341" d="M-71 -212Q-125 -212 -150 -191T-175 -137Q-175 -110 -158 -91T-111 -71Q-85 -71 -70 -86T-55 -123Q-55 -154 -87 -173L-80 -181Q-41 -179 -19 -155T18 -76L153 464H65L79 520H167L184 589Q206 677 265
723T404 770Q460 770 485 749T511 695Q511 667 494 647T446 627Q420 627 405 641T390 679Q390 694 398 708T422 731L415 739Q374 738 350 713T312 634L283 520H390L376 464H269L145 -32Q134 -76 113 -109T64 -166T1 -200T-71 -212Z" />
<glyph unicode="g" glyph-name="g" horiz-adv-x="496" d="M226 189Q215 189 204 190T183 193Q159 189 140 178T121 149Q121 132 135 125T174 108L265 77Q338 52 373 24T409 -56Q409 -98 387 -127T328 -176T243 -203T141 -212Q82 -212 42 -204T-24 -181T-61 -148T-73
-107Q-73 -83 -60 -64T-25 -31T25 -6T82 13L84 22Q54 36 41 54T28 97Q28 119 37 136T62 166T96 188T136 202L138 210Q109 226 93 255T76 324Q76 370 94 408T145 474T221 517T312 532Q356 532 392 515Q403 561 425 589T485 617Q511 617 525 605T540 570Q540 545
524 528T485 511Q466 511 455 520T439 546H434L417 498Q438 480 450 455T462 397Q462 350 444 312T393 246T317 204T226 189ZM125 6Q82 -10 51 -34T19 -96Q19 -131 50 -153T155 -175Q182 -175 208 -171T255 -157T288 -131T301 -92Q301 -64 284 -53T233 -30L125
6ZM238 233Q278 233 300 261T333 336Q344 379 348 399T352 431Q352 457 341 472T300 488Q260 488 238 460T205 385Q194 342 190 322T186 290Q186 264 197 249T238 233Z" />
<glyph unicode="h" glyph-name="h" horiz-adv-x="580" d="M385 -12Q342 -12 325 10T307 60Q307 72 309 86T315 111L396 403Q399 415 399 425Q399 451 374 451Q351 451 322 427T263 360T208 261T166 138L131 0H16L185 678H99L111 726L324 770L210 351L220 347Q241
384 261 417T306 476T358 517T422 532Q470 532 492 506T514 436Q514 404 504 370L419 67L437 59L539 174L570 152L507 69Q473 22 444 5T385 -12Z" />
<glyph unicode="i" glyph-name="i" horiz-adv-x="320" d="M128 -12Q85 -12 67 10T49 60Q49 72 52 86T57 111L139 440H53L65 488L278 532L162 67L180 59L281 174L312 152L250 69Q214 20 184 4T128 -12ZM245 621Q214 621 198 637T182 675Q182 686 185 698Q191 724
212 740T262 756Q293 756 309 740T325 702Q325 691 322 679Q316 653 295 637T245 621Z" />
<glyph unicode="j" glyph-name="j" horiz-adv-x="294" d="M-62 -212Q-116 -212 -140 -192T-165 -142Q-165 -115 -149 -95T-101 -74Q-75 -74 -61 -89T-46 -127Q-46 -139 -53 -153T-76 -177L-70 -185Q-36 -183 -19 -154T13 -70L140 440H54L66 488L279 532L137 -37Q116
-122 63 -167T-62 -212ZM246 621Q215 621 199 637T183 675Q183 686 186 698Q192 724 213 740T263 756Q294 756 310 740T326 702Q326 691 323 679Q317 653 296 637T246 621Z" />
<glyph unicode="k" glyph-name="k" horiz-adv-x="565" d="M386 -12Q360 -12 340 -2T305 44L234 216Q278 241 309 268T361 321T391 372T401 416Q401 451 372 451Q348 451 319 427T261 360T207 260T166 138L131 0H16L185 678H99L111 726L324 770L210 351L220 347Q241
386 262 420T307 478T358 517T421 532Q470 532 492 506T514 438Q514 402 498 371T457 314T403 270T346 238L422 65H436L531 174L562 153L498 67Q481 44 467 29T440 4T414 -8T386 -12Z" />
<glyph unicode="l" glyph-name="l" horiz-adv-x="305" d="M113 -12Q91 -12 76 -6T52 10T38 33T34 60Q34 72 37 86T42 111L183 678H97L109 726L322 770L147 67L165 59L266 174L297 152L235 69Q199 20 169 4T113 -12Z" />
<glyph unicode="m" glyph-name="m" horiz-adv-x="871" d="M140 440H54L66 488L269 532L224 351L234 347Q255 384 275 417T319 476T370 517T433 532Q476 532 495 507T515 438Q515 418 510 390L501 351L511 347Q532 384 552 417T597 476T649 517T713 532Q762 532
783 505T805 436Q805 404 795 370L711 67L729 59L830 174L861 152L799 69Q764 22 735 5T676 -12Q633 -12 616 10T598 60Q598 72 600 86T606 111L687 403Q690 415 690 425Q690 451 665 451Q642 451 613 428T555 362T500 263T457 138L422 0H307L408 403Q411 415 411
425Q411 451 387 451Q364 451 335 427T276 360T222 260T180 138L145 0H30L140 440Z" />
<glyph unicode="n" glyph-name="n" horiz-adv-x="594" d="M140 440H54L66 488L269 532L224 351L234 347Q255 384 275 417T320 476T372 517T436 532Q484 532 506 506T528 436Q528 404 518 370L434 67L452 59L553 174L584 152L522 69Q487 23 458 6T399 -12Q356 -12
339 10T321 60Q321 72 323 86T329 111L410 403Q413 415 413 425Q413 451 388 451Q365 451 336 427T277 360T222 261T180 138L145 0H30L140 440Z" />
<glyph unicode="o" glyph-name="o" horiz-adv-x="527" d="M204 -12Q119 -12 77 39T35 177Q35 234 54 297T109 412T200 498T323 532Q408 532 450 481T492 343Q492 286 473 223T418 108T327 22T204 -12ZM209 38Q258 38 288 78T334 181Q349 239 358 277T373 340T381
378T383 403Q383 437 368 459T318 482Q293 482 274 471T239 441T212 396T193 339Q178 280 169 242T154 180T146 142T144 117Q144 83 159 61T209 38Z" />
<glyph unicode="p" glyph-name="p" horiz-adv-x="561" d="M-73 -149H-6L142 440H56L68 488L269 532L225 356L235 354Q253 393 272 426T314 482T362 519T420 532Q477 532 502 493T528 380Q528 318 510 249T458 122T376 26T268 -12Q222 -12 199 8T167 61H157L109
-149H199L186 -200H-86L-73 -149ZM234 53Q278 53 317 95T381 227Q386 244 391 265T399 309T405 351T408 387Q408 418 402 435T375 452Q356 452 336 437T297 397T260 342T228 281T204 223T190 177L185 157Q174 109 185 81T234 53Z" />
<glyph unicode="q" glyph-name="q" horiz-adv-x="548" d="M159 -149H248L337 163L327 166Q309 127 290 95T249 38T200 1T141 -12Q84 -12 59 27T34 140Q34 202 52 271T104 398T186 494T295 532Q340 532 368 510T408 437H418L472 520H530L363 -149H431L419 -200H146L159
-149ZM328 467Q285 467 246 426T181 293Q176 276 171 255T163 211T157 169T154 133Q154 102 160 85T187 68Q206 68 226 83T265 123T302 178T334 239T358 297T372 343L377 363Q388 411 377 439T328 467Z" />
<glyph unicode="r" glyph-name="r" horiz-adv-x="464" d="M140 440H54L66 488L266 532L222 355L232 351Q250 397 268 431T306 487T349 521T402 532Q444 532 466 511T488 456Q488 424 468 400T414 376Q388 376 372 390T355 428Q355 443 361 457T376 480L369 486Q344
481 314 441T253 334Q243 314 232 288T210 231T189 167T171 102L145 0H30L140 440Z" />
<glyph unicode="s" glyph-name="s" horiz-adv-x="400" d="M111 -12Q46 -12 19 9T-8 62Q-8 88 8 108T57 129Q81 129 96 115T111 76Q111 63 106 49T92 25L97 17Q149 23 181 46T214 114Q214 135 207 152T187 185T160 217T129 251Q109 274 95 300T80 362Q80 402 96
434T140 487T205 520T285 532Q348 532 374 511T401 457Q401 432 385 412T336 391Q312 391 297 405T282 444Q282 457 287 471T301 495L296 503Q246 497 219 473T192 406Q192 384 199 367T219 334T246 303T277 269Q294 249 309 223T325 158Q325 117 308 86T261 33T193
0T111 -12Z" />
<glyph unicode="t" glyph-name="t" horiz-adv-x="373" d="M78 520H119Q152 520 168 531T200 568L255 658H316L281 520H402L389 464H267L170 71L187 60L316 169L344 142L252 54Q231 33 215 20T185 0T159 -9T133 -12Q112 -12 97 -6T73 10T60 33T56 59Q56 72 59 86T64
111L152 464H64L78 520Z" />
<glyph unicode="u" glyph-name="u" horiz-adv-x="592" d="M143 -12Q95 -12 73 15T51 84Q51 116 61 150L142 440H56L68 488L284 532L169 117Q166 105 166 95Q166 69 191 69Q214 69 243 93T301 160T356 259T399 381L434 520H549L435 67L453 59L554 174L585 152L523
69Q505 44 489 29T458 4T430 -8T404 -12Q363 -12 348 10T332 58Q332 71 335 87T341 113L355 169L345 173Q324 135 304 102T259 43T207 3T143 -12Z" />
<glyph unicode="v" glyph-name="v" horiz-adv-x="482" d="M237 122L426 469H370L383 520H546L534 469H495L217 0H129L92 469H50L63 520H281L268 469H211L228 122H237Z" />
<glyph unicode="w" glyph-name="w" horiz-adv-x="748" d="M399 369L201 0H107L102 469H61L74 520H289L277 469H219L207 125H216L425 524H510L504 125H513L689 469H630L642 520H808L796 469H757L493 0H405L408 369H399Z" />
<glyph unicode="x" glyph-name="x" horiz-adv-x="596" d="M403 68L419 66L501 154L529 131L481 69Q443 19 414 4T359 -12Q326 -12 310 6T288 57L265 192H258Q245 153 233 122T204 65Q177 23 144 6T78 -12Q35 -12 13 7T-10 59Q-10 92 10 116T65 141Q91 141 107
126T123 88Q123 74 117 59T102 36L110 30Q125 34 142 52T176 100T210 167T244 249L192 452L176 454L95 365L67 389L114 451Q153 501 181 516T236 532Q270 532 286 514T308 463L330 328H338Q350 367 363 398T392 454Q419 497 452 514T517 532Q561 532 583 512T605
460Q605 428 585 404T531 379Q505 379 489 394T473 432Q473 446 479 460T493 483L486 490Q471 485 454 467T420 420T385 353T351 271L403 68Z" />
<glyph unicode="y" glyph-name="y" horiz-adv-x="482" d="M0 -212Q-42 -212 -67 -193T-93 -141Q-93 -112 -74 -90T-23 -68Q3 -68 17 -82T32 -119Q32 -133 27 -147T12 -169L19 -175Q52 -158 80 -125T140 -32L88 469H46L58 520H276L263 469H207L229 123H238L430
469H375L388 520H550L537 469H498L178 -65Q153 -106 130 -134T84 -180T40 -204T0 -212Z" />
<glyph unicode="z" glyph-name="z" horiz-adv-x="472" d="M-9 35Q-6 47 -3 55T5 70T16 85T32 102L330 395L142 429L124 418L91 321L54 327L86 462Q96 502 116 517T175 532Q197 532 218 528T265 517T325 498T406 471L419 520H476L467 485Q461 462 453 450T426 418L127
124L347 91L364 102L398 199L435 193L402 58Q392 17 372 3T313 -12Q290 -12 267 -9T214 2T145 21T52 49L40 0H-18L-9 35Z" />
<glyph unicode="{" glyph-name="braceleft" horiz-adv-x="330" d="M36 339Q75 339 106 363T149 430L211 675Q221 713 250 736T333 760H428L414 708H327L259 437Q253 414 241 394T210 358T171 331T127 316L124 306Q155 299 176 272T197 204Q197 196 196 188T192
168L127 -86H215L203 -138H91Q59 -138 43 -120T27 -74Q27 -60 31 -45L91 196Q93 203 94 209T95 222Q95 252 75 267T22 282L36 339Z" />
<glyph unicode="|" glyph-name="bar" horiz-adv-x="332" d="M29 -138L253 760H328L104 -138H29Z" />
<glyph unicode="}" glyph-name="braceright" horiz-adv-x="330" d="M319 283Q280 283 249 259T206 192L144 -53Q134 -91 105 -114T22 -138H-73L-59 -86H28L96 185Q102 207 114 227T145 264T184 291T228 306L231 316Q200 323 179 350T158 418Q158 426 159 434T163
454L228 708H140L152 760H264Q296 760 312 742T328 696Q328 682 324 667L264 426Q262 419 261 413T260 400Q260 370 280 355T333 340L319 283Z" />
<glyph unicode="~" glyph-name="asciitilde" horiz-adv-x="550" d="M374 241Q342 241 319 250T269 277Q248 291 228 300T180 310Q159 310 141 303T99 280L76 324Q99 349 126 363T196 377Q228 377 251 368T301 341Q322 327 342 318T390 308Q411 308 429 315T471
338L494 294Q471 269 444 255T374 241Z" />
<glyph unicode="&#xa0;" glyph-name="uni00A0" horiz-adv-x="212" />
<glyph unicode="&#xa1;" glyph-name="exclamdown" horiz-adv-x="276" d="M128 319H178L136 0L91 -178H-32L12 0L128 319ZM177 378Q144 378 126 396T108 440Q108 450 111 465Q119 496 142 514T197 532Q230 532 248 514T266 470Q266 460 263 445Q255 414 232 396T177 378Z" />
<glyph unicode="&#xa2;" glyph-name="cent" horiz-adv-x="475" d="M159 -10Q96 -5 66 36T35 152Q35 208 50 271T96 390T177 484T294 530L320 630H373L347 530Q404 524 435 495T466 425Q466 390 447 365T392 340Q365 340 352 355T339 390Q339 401 343 413T356 435T379
452T412 460V469Q401 476 380 480T335 486L228 58Q278 61 318 98T393 201L429 184Q385 95 336 46T212 -10L187 -114H133L159 -10ZM148 140Q148 82 180 65L283 481Q248 470 223 431T176 304Q164 259 156 215T148 140Z" />
<glyph unicode="&#xa3;" glyph-name="sterling" horiz-adv-x="549" d="M65 365H129Q127 379 126 397T125 437Q125 510 148 561T209 646T294 694T387 710Q422 710 453 703T509 680T547 641T561 587Q561 569 556 553T540 524T516 504T484 496Q455 496 440 513T424
554Q424 581 440 602T489 632L490 639Q470 646 452 649T407 653Q364 653 334 636T283 589T254 521T244 440Q244 423 244 405T245 365H399L386 312H244Q241 266 227 231T190 169T141 124T84 94L83 86H375L403 196H477L429 0H-24L-3 85Q17 94 40 115T85 165T120 232T134
312H51L65 365Z" />
<glyph unicode="&#xa5;" glyph-name="yen" horiz-adv-x="610" d="M117 350H249L176 646H126L140 698H383L370 646H299L352 380H359L550 646H479L492 698H692L679 646H629L403 350H539L526 298H372L348 201H502L489 149H335L311 52H386L373 0H108L121 52H196L220
149H66L79 201H233L258 298H104L117 350Z" />
<glyph unicode="&#xa6;" glyph-name="brokenbar" horiz-adv-x="332" d="M163 401L253 760H328L239 401H163ZM29 -138L118 221H194L104 -138H29Z" />
<glyph unicode="&#xa7;" glyph-name="section" horiz-adv-x="526" d="M151 -157Q121 -157 95 -151T50 -132T20 -103T9 -63Q9 -31 29 -6T82 19Q106 19 120 5T135 -33Q135 -56 120 -75T78 -98V-107Q90 -112 105 -114T137 -117Q195 -117 231 -90T267 -21Q267 -4 261
10T245 37T220 62T189 88L145 122Q122 141 102 158T67 195T43 237T34 286Q34 315 45 339T77 383T126 414T186 432L188 443Q172 463 164 484T156 532Q156 567 172 599T217 656T285 695T372 710Q402 710 428 704T472 685T502 656T513 616Q513 584 493 559T441 534Q417
534 402 548T387 586Q387 609 403 628T445 651V660Q432 665 417 667T386 670Q328 670 292 643T256 574Q256 557 262 543T278 516T303 491T334 465L378 431Q400 412 420 395T456 358T480 316T489 267Q489 238 478 214T446 170T397 139T337 121L334 109Q351 89 359
68T367 21Q367 -14 351 -46T305 -103T237 -142T151 -157ZM306 138Q348 147 368 173T388 228Q388 245 383 259T367 285T342 310T310 336L267 371Q253 382 240 393T216 415Q174 406 155 380T135 325Q135 308 140 294T156 268T181 243T213 217L256 182Q259 180 266
174T281 160T297 147T306 138Z" />
<glyph unicode="&#xa8;" glyph-name="dieresis" horiz-adv-x="600" d="M229 611Q202 611 188 627T174 662Q174 670 177 682Q182 703 199 717T243 732Q270 732 283 716T297 681Q297 676 297 672T295 661Q290 640 273 626T229 611ZM421 611Q394 611 381 627T367
662Q367 667 367 671T369 682Q374 703 391 717T435 732Q462 732 476 716T490 681Q490 673 487 661Q482 640 465 626T421 611Z" />
<glyph unicode="&#xa9;" glyph-name="copyright" horiz-adv-x="774" d="M346 -12Q281 -12 230 9T142 70T86 163T66 283Q66 364 94 441T175 578T301 674T464 710Q528 710 580 689T668 628T724 535T744 415Q744 334 716 257T635 120T509 24T346 -12ZM350 32Q408
32 460 52T553 108T622 191T663 292Q667 310 671 328T678 362T683 393T685 417Q685 475 669 521T624 599T553 649T460 666Q401 666 350 646T257 590T188 507T147 406Q143 388 139 370T132 336T127 305T125 281Q125 223 141 177T186 99T257 49T350 32ZM353 148Q296
148 270 178T243 269Q243 312 255 361T292 452T356 521T448 549Q497 549 522 526T548 467Q548 439 533 419T490 399Q468 399 458 411T447 439Q447 458 461 475T504 495V501Q487 513 456 513Q440 513 427 508T401 489T377 449T355 381Q346 349 341 318T335 263Q335
203 383 203Q415 203 443 229T499 305L527 293Q492 221 453 185T353 148Z" />
<glyph unicode="&#xaa;" glyph-name="ordfeminine" horiz-adv-x="392" d="M160 335Q126 335 105 354T84 405Q84 433 96 456T134 497T202 526T302 540Q306 557 310 580T315 618Q315 645 301 657T264 669Q255 669 244 667T222 661L221 655Q226 652 229 647T232 630Q232
610 219 595T183 579Q166 579 157 588T147 617Q147 633 157 649T186 677T230 696T284 704Q332 704 363 681T395 613Q395 602 393 587T388 559L346 390L359 384L427 461L448 446L404 389Q381 359 362 347T324 335Q298 335 286 348T273 382Q273 389 274 396T280 420L273
422Q256 380 227 358T160 335ZM197 381Q209 381 223 390T250 414T273 447T287 482L294 511Q233 506 205 488T170 441Q168 436 167 429T166 415Q166 381 197 381Z" />
<glyph unicode="&#xab;" glyph-name="guillemotleft" horiz-adv-x="497" d="M178 72L47 257L59 310L275 491L292 453L154 272L207 103L178 72ZM384 72L253 257L265 310L481 491L498 453L360 272L413 103L384 72Z" />
<glyph unicode="&#xac;" glyph-name="logicalnot" horiz-adv-x="550" d="M357 78L406 273H65L81 337H495L429 78H357Z" />
<glyph unicode="&#xad;" glyph-name="uni00AD" horiz-adv-x="369" d="M55 265L75 345H337L317 265H55Z" />
<glyph unicode="&#xae;" glyph-name="registered" horiz-adv-x="442" d="M258 298Q221 298 189 311T134 348T98 404T84 473Q84 524 100 567T145 642T214 692T301 710Q338 710 370 697T425 660T461 604T475 535Q475 484 459 441T414 366T345 316T258 298ZM261 331Q295
331 323 342T372 374T408 421T429 481Q431 492 433 509T435 532Q435 563 425 589T397 635T354 666T298 677Q264 677 236 666T187 634T151 587T130 527Q128 516 126 499T124 476Q124 445 134 419T162 373T205 342T261 331ZM374 566Q374 539 358 520T316 493L334
435Q339 420 356 420H358L353 398H333Q313 398 304 404T290 428L273 489H252L234 420H249L243 398H164L169 420H188L230 588H212L217 610H319Q374 610 374 566ZM289 512Q301 512 309 520T321 542Q323 547 324 554T326 566Q326 584 306 584H275L258 512H289Z" />
<glyph unicode="&#xaf;" glyph-name="overscore" horiz-adv-x="600" d="M204 707H477L460 638H187L204 707Z" />
<glyph unicode="&#xb0;" glyph-name="degree" horiz-adv-x="431" d="M264 352Q232 352 205 364T157 397T125 447T113 511Q113 553 127 589T167 653T226 695T302 710Q335 710 362 698T410 665T442 615T454 552Q454 509 440 473T400 409T340 367T264 352ZM271 413Q297
413 318 424T354 453T377 497T386 551Q386 592 362 620T296 649Q270 649 249 638T212 609T189 565T181 511Q181 470 205 442T271 413Z" />
<glyph unicode="&#xb1;" glyph-name="plusminus" horiz-adv-x="550" d="M265 364H89L105 428H281L328 615H401L354 428H530L514 364H338L291 177H218L265 364ZM14 64H440L423 0H-2L14 64Z" />
<glyph unicode="&#xb2;" glyph-name="twosuperior" horiz-adv-x="341" d="M70 388L197 491Q228 517 250 541T281 597Q283 602 285 610T287 629Q287 646 276 657T242 668Q216 668 198 660L196 655Q214 649 214 630Q214 610 200 596T166 581Q149 581 140 590T130
617Q130 635 141 651T170 678T211 697T260 704Q317 704 343 682T370 622Q370 593 358 569T326 525T285 490T243 462L131 392L129 387H280L291 432H338L313 329H56L70 388Z" />
<glyph unicode="&#xb3;" glyph-name="threesuperior" horiz-adv-x="336" d="M166 323Q120 323 94 342T67 392Q67 417 81 431T115 446Q132 446 142 438T152 412Q152 396 143 386T119 372L117 367Q132 358 157 358Q190 358 213 376T244 428Q246 434 247 443T248
458Q248 501 198 501H169L179 541H201Q236 541 255 559T282 604Q283 607 285 616T287 632Q287 650 275 659T242 668Q231 668 220 666T200 660L198 656Q215 649 215 628Q215 612 203 598T168 583Q150 583 141 593T132 620Q132 637 142 652T171 678T213 697T264 704Q372
704 372 630Q372 606 363 588T339 557T306 537T270 527L269 522Q299 515 316 496T333 451Q333 425 322 402T290 361T238 333T166 323Z" />
<glyph unicode="&#xb4;" glyph-name="acute" horiz-adv-x="600" d="M307 582L275 599L377 785L470 737L307 582Z" />
<glyph unicode="&#xb5;" glyph-name="mu" horiz-adv-x="592" d="M140 440H54L66 488L282 532L174 142Q170 129 167 117T164 97Q164 69 189 69Q210 69 238 91T296 155T352 254T397 381L432 520H547L433 67L451 59L552 174L583 152L519 67Q502 44 487 29T457 4T428
-8T401 -12Q361 -12 346 10T330 58Q330 71 333 87T339 113L353 169L343 173Q323 135 304 102T264 43T220 3T168 -12Q144 -12 130 2T113 49H103L95 -148L82 -200H-28L140 440Z" />
<glyph unicode="&#xb6;" glyph-name="paragraph" horiz-adv-x="566" d="M85 467Q85 522 108 565T171 638T262 682T369 698H631L618 646H551L410 83Q381 -32 315 -93T158 -155Q86 -155 47 -124T7 -47Q7 -11 28 13T80 37Q106 37 120 21T134 -16Q134 -42 119 -60T73
-83L72 -91Q89 -100 111 -103T157 -107Q159 -107 163 -107T170 -106L271 295Q230 295 196 306T137 340T99 394T85 467ZM231 -91Q274 -71 305 -27T354 86L495 646H416L231 -91Z" />
<glyph unicode="&#xb7;" glyph-name="middot" horiz-adv-x="322" d="M162 228Q129 228 111 246T93 290Q93 300 96 315Q104 346 127 364T182 382Q215 382 233 364T251 320Q251 310 248 295Q240 264 217 246T162 228Z" />
<glyph unicode="&#xb8;" glyph-name="cedilla" horiz-adv-x="600" d="M269 -209Q231 -209 209 -195T178 -164L204 -138Q223 -164 260 -164Q277 -164 287 -159T304 -145T312 -129T314 -114Q314 -102 305 -93T268 -79L244 -76L282 12H328L297 -59L299 -62Q320 -56
336 -56Q362 -56 378 -69T395 -108Q395 -132 385 -150T356 -182T316 -202T269 -209Z" />
<glyph unicode="&#xb9;" glyph-name="onesuperior" horiz-adv-x="334" d="M75 368H165L232 639L132 599L125 633L270 698H327L245 368H323L314 329H65L75 368Z" />
<glyph unicode="&#xba;" glyph-name="ordmasculine" horiz-adv-x="386" d="M421 579Q421 536 407 493T367 414T304 357T218 335Q158 335 127 369T96 460Q96 503 110 546T150 625T213 682T299 704Q359 704 390 670T421 579ZM201 563Q188 512 180 481T172 429Q172
401 186 388T223 374Q259 374 282 402T316 476Q329 527 337 558T345 610Q345 638 331 651T294 665Q258 665 235 637T201 563Z" />
<glyph unicode="&#xbb;" glyph-name="guillemotright" horiz-adv-x="497" d="M147 292L94 461L123 492L254 307L242 254L26 73L9 111L147 292ZM353 292L300 461L329 492L460 307L448 254L232 73L215 111L353 292Z" />
<glyph unicode="&#xbc;" glyph-name="onequarter" horiz-adv-x="848" d="M75 368H165L232 639L132 599L125 633L270 698H327L245 368H323L314 329H65L75 368ZM730 698H802L165 0H93L730 698ZM587 72H429L442 127L646 369H737L677 127H723L709 72H663L645 0H569L587
72ZM486 127H601L646 310H639L486 127Z" />
<glyph unicode="&#xbd;" glyph-name="onehalf" horiz-adv-x="850" d="M75 368H165L232 639L132 599L125 633L270 698H327L245 368H323L314 329H65L75 368ZM730 698H802L165 0H93L730 698ZM470 59L597 162Q628 188 650 212T681 268Q683 273 685 281T687 300Q687
317 676 328T642 339Q616 339 598 331L596 326Q614 320 614 301Q614 281 600 267T566 252Q549 252 540 261T530 288Q530 306 541 322T570 349T611 368T660 375Q717 375 743 353T770 293Q770 264 758 240T726 196T685 161T643 133L531 63L529 58H680L691 103H738L713
0H456L470 59Z" />
<glyph unicode="&#xbe;" glyph-name="threequarters" horiz-adv-x="810" d="M166 323Q120 323 94 342T67 392Q67 417 81 431T115 446Q132 446 142 438T152 412Q152 396 143 386T119 372L117 367Q132 358 157 358Q190 358 213 376T244 428Q246 434 247 443T248
458Q248 501 198 501H169L179 541H201Q236 541 255 559T282 604Q283 607 285 616T287 632Q287 650 275 659T242 668Q231 668 220 666T200 660L198 656Q215 649 215 628Q215 612 203 598T168 583Q150 583 141 593T132 620Q132 637 142 652T171 678T213 697T264 704Q372
704 372 630Q372 606 363 588T339 557T306 537T270 527L269 522Q299 515 316 496T333 451Q333 425 322 402T290 361T238 333T166 323ZM692 698H764L127 0H55L692 698ZM549 72H391L404 127L608 369H699L639 127H685L671 72H625L607 0H531L549 72ZM448 127H563L608
310H601L448 127Z" />
<glyph unicode="&#xbf;" glyph-name="questiondown" horiz-adv-x="465" d="M134 -190Q87 -190 54 -180T0 -151T-30 -108T-40 -54Q-40 5 -16 51T49 129T138 179T239 201L264 301H328L288 144Q216 140 166 105T98 0Q96 -8 92 -26T88 -61Q88 -98 110 -117T170 -137Q193
-137 217 -133T257 -120L260 -112Q243 -107 233 -95T222 -62Q222 -35 241 -11T297 13Q326 13 342 -2T359 -46Q359 -76 340 -102T290 -148T218 -179T134 -190ZM322 378Q289 378 271 396T253 440Q253 450 256 465Q264 496 287 514T342 532Q375 532 393 514T411 470Q411
460 408 445Q400 414 377 396T322 378Z" />
<glyph unicode="&#xc0;" glyph-name="Agrave" horiz-adv-x="652" d="M-54 0L-41 52H9L380 698H491L539 52H589L576 0H335L348 52H419L410 224H180L85 52H156L144 0H-54ZM384 600L208 278H407L391 600H384ZM352 917L455 955L478 764L444 752L352 917Z" />
<glyph unicode="&#xc1;" glyph-name="Aacute" horiz-adv-x="652" d="M-54 0L-41 52H9L380 698H491L539 52H589L576 0H335L348 52H419L410 224H180L85 52H156L144 0H-54ZM384 600L208 278H407L391 600H384ZM444 752L412 769L514 955L607 907L444 752Z" />
<glyph unicode="&#xc2;" glyph-name="Acircumflex" horiz-adv-x="652" d="M-54 0L-41 52H9L380 698H491L539 52H589L576 0H335L348 52H419L410 224H180L85 52H156L144 0H-54ZM384 600L208 278H407L391 600H384ZM527 945L605 773L574 756L477 857L329 756L301 777L454
945H527Z" />
<glyph unicode="&#xc3;" glyph-name="Atilde" horiz-adv-x="652" d="M-54 0L-41 52H9L380 698H491L539 52H589L576 0H335L348 52H419L410 224H180L85 52H156L144 0H-54ZM384 600L208 278H407L391 600H384ZM528 776Q505 776 486 784T447 803Q424 815 408 823T376
832Q363 832 351 826T320 800L295 824Q319 856 342 880T400 904Q423 904 442 896T481 877Q504 865 520 857T552 848Q565 848 577 854T608 880L633 856Q609 824 586 800T528 776Z" />
<glyph unicode="&#xc4;" glyph-name="Adieresis" horiz-adv-x="652" d="M-54 0L-41 52H9L380 698H491L539 52H589L576 0H335L348 52H419L410 224H180L85 52H156L144 0H-54ZM384 600L208 278H407L391 600H384ZM362 779Q335 779 321 795T307 830Q307 838 310 850Q315
871 332 885T376 900Q403 900 416 884T430 849Q430 844 430 840T428 829Q423 808 406 794T362 779ZM554 779Q527 779 514 795T500 830Q500 835 500 839T502 850Q507 871 524 885T568 900Q595 900 609 884T623 849Q623 841 620 829Q615 808 598 794T554 779Z" />
<glyph unicode="&#xc5;" glyph-name="Aring" horiz-adv-x="652" d="M-54 0L-41 52H9L380 698H491L539 52H589L576 0H335L348 52H419L410 224H180L85 52H156L144 0H-54ZM384 600L208 278H407L391 600H384ZM450 734Q424 734 405 742T372 763T351 794T344 831Q344
865 355 894T385 944T431 977T489 989Q514 989 534 981T567 960T588 929T595 892Q595 858 584 829T554 779T508 746T450 734ZM453 776Q501 776 515 832Q520 855 524 876T529 907Q529 924 519 935T486 947Q438 947 424 891Q419 868 415 847T410 816Q410 799 420
788T453 776Z" />
<glyph unicode="&#xc6;" glyph-name="AE" horiz-adv-x="920" d="M-54 0L-41 52H13L441 646H373L386 698H970L926 520H834L865 642H642L580 390H729L748 463H810L759 261H696L715 334H565L496 56H726L761 192H852L804 0H292L304 52H372L415 225H210L87 52H155L142
0H-54ZM428 279L520 646H512L248 279H428Z" />
<glyph unicode="&#xc7;" glyph-name="Ccedilla" horiz-adv-x="603" d="M242 -209Q204 -209 182 -195T151 -164L177 -138Q196 -164 233 -164Q250 -164 260 -159T277 -145T285 -129T287 -114Q287 -102 278 -93T241 -79L216 -76L245 -11Q203 -8 168 8T107 53T68 126T54
228Q54 278 64 333T96 442T149 544T221 630T312 688T422 710Q478 710 510 689T552 637H561L576 698H668L615 485H523L535 533Q539 549 539 563Q539 604 510 626T435 649Q393 649 360 632T300 584T255 515T226 433Q212 377 203 340T189 278T181 234T178 197Q178
135 209 97T304 59Q370 59 419 96T504 190L543 165Q526 135 502 105T445 51T374 10T291 -11L270 -59L272 -62Q293 -56 309 -56Q335 -56 351 -69T368 -108Q368 -132 358 -150T329 -182T289 -202T242 -209Z" />
<glyph unicode="&#xc8;" glyph-name="Egrave" horiz-adv-x="601" d="M396 334H246L177 56H408L442 192H534L486 0H-26L-13 52H53L201 646H135L148 698H651L607 520H515L546 642H323L261 390H410L429 463H491L440 261H377L396 334ZM327 917L430 955L453 764L419
752L327 917Z" />
<glyph unicode="&#xc9;" glyph-name="Eacute" horiz-adv-x="601" d="M396 334H246L177 56H408L442 192H534L486 0H-26L-13 52H53L201 646H135L148 698H651L607 520H515L546 642H323L261 390H410L429 463H491L440 261H377L396 334ZM419 752L387 769L489 955L582
907L419 752Z" />
<glyph unicode="&#xca;" glyph-name="Ecircumflex" horiz-adv-x="601" d="M396 334H246L177 56H408L442 192H534L486 0H-26L-13 52H53L201 646H135L148 698H651L607 520H515L546 642H323L261 390H410L429 463H491L440 261H377L396 334ZM502 945L580 773L549 756L452
857L304 756L276 777L429 945H502Z" />
<glyph unicode="&#xcb;" glyph-name="Edieresis" horiz-adv-x="601" d="M396 334H246L177 56H408L442 192H534L486 0H-26L-13 52H53L201 646H135L148 698H651L607 520H515L546 642H323L261 390H410L429 463H491L440 261H377L396 334ZM337 779Q310 779 296 795T282
830Q282 838 285 850Q290 871 307 885T351 900Q378 900 391 884T405 849Q405 844 405 840T403 829Q398 808 381 794T337 779ZM529 779Q502 779 489 795T475 830Q475 835 475 839T477 850Q482 871 499 885T543 900Q570 900 584 884T598 849Q598 841 595 829Q590
808 573 794T529 779Z" />
<glyph unicode="&#xcc;" glyph-name="Igrave" horiz-adv-x="333" d="M-26 0L-13 52H53L201 646H135L148 698H404L390 646H324L176 52H242L230 0H-26ZM452 917L555 955L578 764L544 752L452 917Z" />
<glyph unicode="&#xcd;" glyph-name="Iacute" horiz-adv-x="333" d="M-26 0L-13 52H53L201 646H135L148 698H404L390 646H324L176 52H242L230 0H-26ZM544 752L512 769L614 955L707 907L544 752Z" />
<glyph unicode="&#xce;" glyph-name="Icircumflex" horiz-adv-x="333" d="M-26 0L-13 52H53L201 646H135L148 698H404L390 646H324L176 52H242L230 0H-26ZM627 945L705 773L674 756L577 857L429 756L401 777L554 945H627Z" />
<glyph unicode="&#xcf;" glyph-name="Idieresis" horiz-adv-x="333" d="M-26 0L-13 52H53L201 646H135L148 698H404L390 646H324L176 52H242L230 0H-26ZM462 779Q435 779 421 795T407 830Q407 838 410 850Q415 871 432 885T476 900Q503 900 516 884T530 849Q530
844 530 840T528 829Q523 808 506 794T462 779ZM654 779Q627 779 614 795T600 830Q600 835 600 839T602 850Q607 871 624 885T668 900Q695 900 709 884T723 849Q723 841 720 829Q715 808 698 794T654 779Z" />
<glyph unicode="&#xd0;" glyph-name="Eth" horiz-adv-x="682" d="M-13 52H53L121 325H41L54 380H135L201 646H135L148 698H428Q486 698 530 681T605 632T651 556T667 458Q667 418 658 369T630 269T580 170T505 84T403 23T272 0H-26L-13 52ZM256 56Q350 56 412
116T501 286Q515 343 524 379T538 438T545 477T547 509Q547 574 512 608T407 642H323L258 380H370L357 325H244L177 56H256Z" />
<glyph unicode="&#xd1;" glyph-name="Ntilde" horiz-adv-x="713" d="M-13 52H53L201 646H135L148 698H352L519 169H527L647 646H581L594 698H791L778 646H712L550 0H453L260 592H253L118 52H184L171 0H-26L-13 52ZM579 776Q556 776 537 784T498 803Q475 815 459
823T427 832Q414 832 402 826T371 800L346 824Q370 856 393 880T451 904Q474 904 493 896T532 877Q555 865 571 857T603 848Q616 848 628 854T659 880L684 856Q660 824 637 800T579 776Z" />
<glyph unicode="&#xd2;" glyph-name="Ograve" horiz-adv-x="695" d="M301 47Q341 47 374 63T432 107T476 174T506 257Q521 318 531 359T547 428T555 477T558 518Q558 546 551 570T529 613T489 641T432 651Q392 651 359 635T301 591T257 524T227 441Q212 379 202
339T186 270T178 221T175 180Q175 152 182 128T204 85T244 57T301 47ZM289 -12Q233 -12 189 5T115 56T70 136T54 241Q54 284 64 336T95 440T148 540T223 627T321 687T444 710Q500 710 544 693T618 642T663 562T679 457Q679 414 669 362T638 258T586 158T511 71T412
11T289 -12ZM359 917L462 955L485 764L451 752L359 917Z" />
<glyph unicode="&#xd3;" glyph-name="Oacute" horiz-adv-x="695" d="M301 47Q341 47 374 63T432 107T476 174T506 257Q521 318 531 359T547 428T555 477T558 518Q558 546 551 570T529 613T489 641T432 651Q392 651 359 635T301 591T257 524T227 441Q212 379 202
339T186 270T178 221T175 180Q175 152 182 128T204 85T244 57T301 47ZM289 -12Q233 -12 189 5T115 56T70 136T54 241Q54 284 64 336T95 440T148 540T223 627T321 687T444 710Q500 710 544 693T618 642T663 562T679 457Q679 414 669 362T638 258T586 158T511 71T412
11T289 -12ZM451 752L419 769L521 955L614 907L451 752Z" />
<glyph unicode="&#xd4;" glyph-name="Ocircumflex" horiz-adv-x="695" d="M301 47Q341 47 374 63T432 107T476 174T506 257Q521 318 531 359T547 428T555 477T558 518Q558 546 551 570T529 613T489 641T432 651Q392 651 359 635T301 591T257 524T227 441Q212 379
202 339T186 270T178 221T175 180Q175 152 182 128T204 85T244 57T301 47ZM289 -12Q233 -12 189 5T115 56T70 136T54 241Q54 284 64 336T95 440T148 540T223 627T321 687T444 710Q500 710 544 693T618 642T663 562T679 457Q679 414 669 362T638 258T586 158T511
71T412 11T289 -12ZM534 945L612 773L581 756L484 857L336 756L308 777L461 945H534Z" />
<glyph unicode="&#xd5;" glyph-name="Otilde" horiz-adv-x="695" d="M301 47Q341 47 374 63T432 107T476 174T506 257Q521 318 531 359T547 428T555 477T558 518Q558 546 551 570T529 613T489 641T432 651Q392 651 359 635T301 591T257 524T227 441Q212 379 202
339T186 270T178 221T175 180Q175 152 182 128T204 85T244 57T301 47ZM289 -12Q233 -12 189 5T115 56T70 136T54 241Q54 284 64 336T95 440T148 540T223 627T321 687T444 710Q500 710 544 693T618 642T663 562T679 457Q679 414 669 362T638 258T586 158T511 71T412
11T289 -12ZM535 776Q512 776 493 784T454 803Q431 815 415 823T383 832Q370 832 358 826T327 800L302 824Q326 856 349 880T407 904Q430 904 449 896T488 877Q511 865 527 857T559 848Q572 848 584 854T615 880L640 856Q616 824 593 800T535 776Z" />
<glyph unicode="&#xd6;" glyph-name="Odieresis" horiz-adv-x="695" d="M301 47Q341 47 374 63T432 107T476 174T506 257Q521 318 531 359T547 428T555 477T558 518Q558 546 551 570T529 613T489 641T432 651Q392 651 359 635T301 591T257 524T227 441Q212 379
202 339T186 270T178 221T175 180Q175 152 182 128T204 85T244 57T301 47ZM289 -12Q233 -12 189 5T115 56T70 136T54 241Q54 284 64 336T95 440T148 540T223 627T321 687T444 710Q500 710 544 693T618 642T663 562T679 457Q679 414 669 362T638 258T586 158T511
71T412 11T289 -12ZM369 779Q342 779 328 795T314 830Q314 838 317 850Q322 871 339 885T383 900Q410 900 423 884T437 849Q437 844 437 840T435 829Q430 808 413 794T369 779ZM561 779Q534 779 521 795T507 830Q507 835 507 839T509 850Q514 871 531 885T575 900Q602
900 616 884T630 849Q630 841 627 829Q622 808 605 794T561 779Z" />
<glyph unicode="&#xd7;" glyph-name="multiply" horiz-adv-x="550" d="M51 144L240 306L132 469L188 513L294 352L479 512L519 461L330 299L438 136L382 92L276 253L91 93L51 144Z" />
<glyph unicode="&#xd8;" glyph-name="Oslash" horiz-adv-x="695" d="M16 -8L95 82Q54 146 54 241Q54 284 64 336T95 440T148 540T223 627T321 687T444 710Q493 710 532 697T601 658L676 743L717 706L638 616Q679 552 679 457Q679 414 669 362T638 258T585 158T510
71T412 11T289 -12Q240 -12 201 1T132 40L57 -45L16 -8ZM432 651Q392 651 359 635T300 591T255 524T225 441Q214 396 206 362T191 300T181 252T176 211Q174 190 176 173L544 592Q530 619 502 635T432 651ZM301 47Q341 47 374 63T433 107T478 174T508 257Q519 302
527 336T542 398T551 446T557 487Q559 508 557 525L189 106Q203 79 231 63T301 47Z" />
<glyph unicode="&#xd9;" glyph-name="Ugrave" horiz-adv-x="689" d="M318 646L219 245Q205 191 205 152Q205 101 232 76T320 51Q403 51 451 101T526 256L623 646H557L570 698H768L754 646H688L590 251Q573 182 548 133T487 51T407 3T303 -12Q252 -12 212 -3T144
28T101 82T86 162Q86 209 104 277L195 646H129L142 698H397L384 646H318ZM402 917L505 955L528 764L494 752L402 917Z" />
<glyph unicode="&#xda;" glyph-name="Uacute" horiz-adv-x="689" d="M318 646L219 245Q205 191 205 152Q205 101 232 76T320 51Q403 51 451 101T526 256L623 646H557L570 698H768L754 646H688L590 251Q573 182 548 133T487 51T407 3T303 -12Q252 -12 212 -3T144
28T101 82T86 162Q86 209 104 277L195 646H129L142 698H397L384 646H318ZM494 752L462 769L564 955L657 907L494 752Z" />
<glyph unicode="&#xdb;" glyph-name="Ucircumflex" horiz-adv-x="689" d="M318 646L219 245Q205 191 205 152Q205 101 232 76T320 51Q403 51 451 101T526 256L623 646H557L570 698H768L754 646H688L590 251Q573 182 548 133T487 51T407 3T303 -12Q252 -12 212
-3T144 28T101 82T86 162Q86 209 104 277L195 646H129L142 698H397L384 646H318ZM577 945L655 773L624 756L527 857L379 756L351 777L504 945H577Z" />
<glyph unicode="&#xdc;" glyph-name="Udieresis" horiz-adv-x="689" d="M318 646L219 245Q205 191 205 152Q205 101 232 76T320 51Q403 51 451 101T526 256L623 646H557L570 698H768L754 646H688L590 251Q573 182 548 133T487 51T407 3T303 -12Q252 -12 212 -3T144
28T101 82T86 162Q86 209 104 277L195 646H129L142 698H397L384 646H318ZM412 779Q385 779 371 795T357 830Q357 838 360 850Q365 871 382 885T426 900Q453 900 466 884T480 849Q480 844 480 840T478 829Q473 808 456 794T412 779ZM604 779Q577 779 564 795T550
830Q550 835 550 839T552 850Q557 871 574 885T618 900Q645 900 659 884T673 849Q673 841 670 829Q665 808 648 794T604 779Z" />
<glyph unicode="&#xdd;" glyph-name="Yacute" horiz-adv-x="619" d="M117 52H197L254 282L159 646H109L122 698H370L357 646H286L354 358H361L572 646H501L514 698H714L701 646H651L380 295L319 52H399L387 0H104L117 52ZM452 752L420 769L522 955L615 907L452 752Z" />
<glyph unicode="&#xde;" glyph-name="Thorn" horiz-adv-x="595" d="M390 646H324L297 541H435Q509 541 553 509T598 409Q598 376 587 333T548 252T472 187T348 160H203L176 52H242L230 0H-26L-13 52H53L201 646H135L148 698H402L390 646ZM284 485L217 217H331Q379
217 412 246T459 327Q461 334 464 345T469 369T474 393T476 413Q476 445 457 465T398 485H284Z" />
<glyph unicode="&#xdf;" glyph-name="germandbls" horiz-adv-x="624" d="M349 -12Q285 -12 258 9T230 62Q230 88 247 108T295 129Q319 129 334 115T350 76Q350 63 345 49T330 25L336 17Q387 23 417 47T448 116Q448 135 443 151T427 181T405 210T377 242Q356 266
340 294T324 362Q324 395 336 422T371 468T421 500T481 515L496 574Q505 611 505 639Q505 681 486 702T431 724Q377 724 346 685T295 567L145 -32Q134 -76 113 -109T64 -166T2 -200T-70 -212Q-124 -212 -149 -191T-174 -137Q-174 -110 -157 -91T-110 -71Q-84 -71
-69 -86T-54 -123Q-54 -154 -86 -173L-79 -181Q-40 -179 -18 -155T19 -76L154 464H66L80 520H168L176 554Q202 654 266 712T436 770Q525 770 566 728T608 617Q608 583 599 546L586 497H549Q498 497 467 474T436 404Q436 369 456 342T505 283Q525 260 542 232T559
161Q559 121 543 89T498 35T431 0T349 -12Z" />
<glyph unicode="&#xe0;" glyph-name="agrave" horiz-adv-x="574" d="M141 -12Q84 -12 59 27T34 140Q34 202 52 271T104 398T186 494T295 532Q340 532 368 510T408 437H418L472 520H530L416 67L434 59L536 174L567 152L504 69Q470 24 443 6T388 -12Q347 -12 332
9T316 58Q316 71 319 87T324 113L337 164L327 166Q309 127 290 95T249 38T200 1T141 -12ZM328 467Q285 467 246 426T181 293Q176 276 171 255T163 211T157 169T154 133Q154 102 160 85T187 68Q206 68 226 83T265 123T302 178T334 239T358 297T372 343L377 363Q388
411 377 439T328 467ZM246 747L349 785L372 594L338 582L246 747Z" />
<glyph unicode="&#xe1;" glyph-name="aacute" horiz-adv-x="574" d="M141 -12Q84 -12 59 27T34 140Q34 202 52 271T104 398T186 494T295 532Q340 532 368 510T408 437H418L472 520H530L416 67L434 59L536 174L567 152L504 69Q470 24 443 6T388 -12Q347 -12 332
9T316 58Q316 71 319 87T324 113L337 164L327 166Q309 127 290 95T249 38T200 1T141 -12ZM328 467Q285 467 246 426T181 293Q176 276 171 255T163 211T157 169T154 133Q154 102 160 85T187 68Q206 68 226 83T265 123T302 178T334 239T358 297T372 343L377 363Q388
411 377 439T328 467ZM327 582L295 599L397 785L490 737L327 582Z" />
<glyph unicode="&#xe2;" glyph-name="acircumflex" horiz-adv-x="574" d="M141 -12Q84 -12 59 27T34 140Q34 202 52 271T104 398T186 494T295 532Q340 532 368 510T408 437H418L472 520H530L416 67L434 59L536 174L567 152L504 69Q470 24 443 6T388 -12Q347 -12
332 9T316 58Q316 71 319 87T324 113L337 164L327 166Q309 127 290 95T249 38T200 1T141 -12ZM328 467Q285 467 246 426T181 293Q176 276 171 255T163 211T157 169T154 133Q154 102 160 85T187 68Q206 68 226 83T265 123T302 178T334 239T358 297T372 343L377 363Q388
411 377 439T328 467ZM410 779L488 607L457 590L360 691L212 590L184 611L337 779H410Z" />
<glyph unicode="&#xe3;" glyph-name="atilde" horiz-adv-x="574" d="M141 -12Q84 -12 59 27T34 140Q34 202 52 271T104 398T186 494T295 532Q340 532 368 510T408 437H418L472 520H530L416 67L434 59L536 174L567 152L504 69Q470 24 443 6T388 -12Q347 -12 332
9T316 58Q316 71 319 87T324 113L337 164L327 166Q309 127 290 95T249 38T200 1T141 -12ZM328 467Q285 467 246 426T181 293Q176 276 171 255T163 211T157 169T154 133Q154 102 160 85T187 68Q206 68 226 83T265 123T302 178T334 239T358 297T372 343L377 363Q388
411 377 439T328 467ZM411 610Q388 610 369 618T330 637Q307 649 291 657T259 666Q246 666 234 660T203 634L178 658Q202 690 225 714T283 738Q306 738 325 730T364 711Q387 699 403 691T435 682Q448 682 460 688T491 714L516 690Q492 658 469 634T411 610Z" />
<glyph unicode="&#xe4;" glyph-name="adieresis" horiz-adv-x="574" d="M141 -12Q84 -12 59 27T34 140Q34 202 52 271T104 398T186 494T295 532Q340 532 368 510T408 437H418L472 520H530L416 67L434 59L536 174L567 152L504 69Q470 24 443 6T388 -12Q347 -12
332 9T316 58Q316 71 319 87T324 113L337 164L327 166Q309 127 290 95T249 38T200 1T141 -12ZM328 467Q285 467 246 426T181 293Q176 276 171 255T163 211T157 169T154 133Q154 102 160 85T187 68Q206 68 226 83T265 123T302 178T334 239T358 297T372 343L377 363Q388
411 377 439T328 467ZM249 611Q222 611 208 627T194 662Q194 670 197 682Q202 703 219 717T263 732Q290 732 303 716T317 681Q317 676 317 672T315 661Q310 640 293 626T249 611ZM441 611Q414 611 401 627T387 662Q387 667 387 671T389 682Q394 703 411 717T455
732Q482 732 496 716T510 681Q510 673 507 661Q502 640 485 626T441 611Z" />
<glyph unicode="&#xe5;" glyph-name="aring" horiz-adv-x="574" d="M141 -12Q84 -12 59 27T34 140Q34 202 52 271T104 398T186 494T295 532Q340 532 368 510T408 437H418L472 520H530L416 67L434 59L536 174L567 152L504 69Q470 24 443 6T388 -12Q347 -12 332
9T316 58Q316 71 319 87T324 113L337 164L327 166Q309 127 290 95T249 38T200 1T141 -12ZM328 467Q285 467 246 426T181 293Q176 276 171 255T163 211T157 169T154 133Q154 102 160 85T187 68Q206 68 226 83T265 123T302 178T334 239T358 297T372 343L377 363Q388
411 377 439T328 467ZM338 568Q312 568 293 576T260 597T239 628T232 665Q232 699 243 728T273 778T319 811T377 823Q402 823 422 815T455 794T476 763T483 726Q483 692 472 663T442 613T396 580T338 568ZM341 610Q389 610 403 666Q408 689 412 710T417 741Q417
758 407 769T374 781Q326 781 312 725Q307 702 303 681T298 650Q298 633 308 622T341 610Z" />
<glyph unicode="&#xe6;" glyph-name="ae" horiz-adv-x="711" d="M110 -12Q63 -12 35 17T6 92Q6 132 22 165T75 224T169 266T309 287Q315 313 323 346T331 405Q331 445 310 464T255 483Q240 483 225 481T196 473L193 464Q202 457 208 447T215 420Q215 391 197 369T144
346Q120 346 105 360T90 402Q90 427 105 450T148 492T210 521T286 532Q328 532 359 515T405 460H415Q439 493 478 512T564 532Q591 532 616 527T660 509T691 477T703 428Q703 402 691 375T646 324T559 283T417 260Q409 227 405 196T400 141Q400 58 465 58Q510 58
549 95T625 201L661 184Q638 136 614 100T561 38T499 1T426 -12Q358 -12 328 24T295 119H284Q258 57 212 23T110 -12ZM159 56Q177 56 197 69T235 102T267 149T288 203L300 252Q216 241 174 215T121 144Q119 136 117 126T115 106Q115 56 159 56ZM425 296Q523 309
562 344T602 430Q602 454 591 469T552 484Q531 484 514 475T482 444T453 386T425 296Z" />
<glyph unicode="&#xe7;" glyph-name="ccedilla" horiz-adv-x="448" d="M154 -209Q116 -209 94 -195T63 -164L89 -138Q108 -164 145 -164Q162 -164 172 -159T189 -145T197 -129T199 -114Q199 -102 190 -93T153 -79L129 -76L157 -11Q95 -4 66 38T36 152Q36 210 52
276T102 400T187 494T307 532Q372 532 408 502T445 423Q445 385 423 358T363 330Q334 330 321 347T307 386Q307 411 325 434T385 461V470Q362 487 321 487Q300 487 282 480T246 452T214 396T184 304Q172 259 164 215T156 140Q156 58 221 58Q265 58 304 95T379 201L415
184Q371 94 323 45T203 -11L182 -59L184 -62Q205 -56 221 -56Q247 -56 263 -69T280 -108Q280 -132 270 -150T241 -182T201 -202T154 -209Z" />
<glyph unicode="&#xe8;" glyph-name="egrave" horiz-adv-x="467" d="M181 -12Q106 -12 71 31T36 155Q36 193 43 236T65 321T103 401T157 468T229 515T319 532Q346 532 371 527T415 509T447 477T459 428Q459 402 447 375T402 323T315 282T172 259Q165 227 161 196T156
141Q156 58 221 58Q266 58 305 95T381 201L417 184Q393 136 369 100T317 39T256 1T181 -12ZM181 296Q279 309 318 344T358 430Q358 454 347 469T308 484Q287 484 270 475T238 444T209 386T181 296ZM246 747L349 785L372 594L338 582L246 747Z" />
<glyph unicode="&#xe9;" glyph-name="eacute" horiz-adv-x="467" d="M181 -12Q106 -12 71 31T36 155Q36 193 43 236T65 321T103 401T157 468T229 515T319 532Q346 532 371 527T415 509T447 477T459 428Q459 402 447 375T402 323T315 282T172 259Q165 227 161 196T156
141Q156 58 221 58Q266 58 305 95T381 201L417 184Q393 136 369 100T317 39T256 1T181 -12ZM181 296Q279 309 318 344T358 430Q358 454 347 469T308 484Q287 484 270 475T238 444T209 386T181 296ZM327 582L295 599L397 785L490 737L327 582Z" />
<glyph unicode="&#xea;" glyph-name="ecircumflex" horiz-adv-x="467" d="M181 -12Q106 -12 71 31T36 155Q36 193 43 236T65 321T103 401T157 468T229 515T319 532Q346 532 371 527T415 509T447 477T459 428Q459 402 447 375T402 323T315 282T172 259Q165 227
161 196T156 141Q156 58 221 58Q266 58 305 95T381 201L417 184Q393 136 369 100T317 39T256 1T181 -12ZM181 296Q279 309 318 344T358 430Q358 454 347 469T308 484Q287 484 270 475T238 444T209 386T181 296ZM410 779L488 607L457 590L360 691L212 590L184 611L337
779H410Z" />
<glyph unicode="&#xeb;" glyph-name="edieresis" horiz-adv-x="467" d="M181 -12Q106 -12 71 31T36 155Q36 193 43 236T65 321T103 401T157 468T229 515T319 532Q346 532 371 527T415 509T447 477T459 428Q459 402 447 375T402 323T315 282T172 259Q165 227 161
196T156 141Q156 58 221 58Q266 58 305 95T381 201L417 184Q393 136 369 100T317 39T256 1T181 -12ZM181 296Q279 309 318 344T358 430Q358 454 347 469T308 484Q287 484 270 475T238 444T209 386T181 296ZM249 611Q222 611 208 627T194 662Q194 670 197 682Q202
703 219 717T263 732Q290 732 303 716T317 681Q317 676 317 672T315 661Q310 640 293 626T249 611ZM441 611Q414 611 401 627T387 662Q387 667 387 671T389 682Q394 703 411 717T455 732Q482 732 496 716T510 681Q510 673 507 661Q502 640 485 626T441 611Z" />
<glyph unicode="&#xec;" glyph-name="igrave" horiz-adv-x="320" d="M128 -12Q85 -12 67 10T49 60Q49 72 52 86T57 111L139 440H53L65 488L278 532L162 67L180 59L281 174L312 152L250 69Q214 20 184 4T128 -12ZM388 747L491 785L514 594L480 582L388 747Z" />
<glyph unicode="&#xed;" glyph-name="iacute" horiz-adv-x="320" d="M128 -12Q85 -12 67 10T49 60Q49 72 52 86T57 111L139 440H53L65 488L278 532L162 67L180 59L281 174L312 152L250 69Q214 20 184 4T128 -12ZM469 582L437 599L539 785L632 737L469 582Z" />
<glyph unicode="&#xee;" glyph-name="icircumflex" horiz-adv-x="320" d="M128 -12Q85 -12 67 10T49 60Q49 72 52 86T57 111L139 440H53L65 488L278 532L162 67L180 59L281 174L312 152L250 69Q214 20 184 4T128 -12ZM552 779L630 607L599 590L502 691L354 590L326
611L479 779H552Z" />
<glyph unicode="&#xef;" glyph-name="idieresis" horiz-adv-x="320" d="M128 -12Q85 -12 67 10T49 60Q49 72 52 86T57 111L139 440H53L65 488L278 532L162 67L180 59L281 174L312 152L250 69Q214 20 184 4T128 -12ZM391 611Q364 611 350 627T336 662Q336 670 339
682Q344 703 361 717T405 732Q432 732 445 716T459 681Q459 676 459 672T457 661Q452 640 435 626T391 611ZM583 611Q556 611 543 627T529 662Q529 667 529 671T531 682Q536 703 553 717T597 732Q624 732 638 716T652 681Q652 673 649 661Q644 640 627 626T583
611Z" />
<glyph unicode="&#xf0;" glyph-name="eth" horiz-adv-x="535" d="M204 -12Q120 -12 78 39T36 177Q36 237 54 296T106 401T186 476T290 505Q335 505 361 481T392 413L401 415Q401 475 389 528T352 625L257 568L231 614L324 671Q305 696 285 717T237 758H315Q332
747 349 733T381 705L486 769L513 724L417 664Q459 610 480 545T502 405Q502 316 482 240T422 108T328 20T204 -12ZM210 38Q259 38 290 78T336 181Q350 237 358 269T371 320T376 348T377 369Q377 403 362 425T310 448Q285 448 265 437T230 407T203 362T184 306Q170
250 162 217T149 166T144 137T143 117Q143 83 158 61T210 38Z" />
<glyph unicode="&#xf1;" glyph-name="ntilde" horiz-adv-x="594" d="M140 440H54L66 488L269 532L224 351L234 347Q255 384 275 417T320 476T372 517T436 532Q484 532 506 506T528 436Q528 404 518 370L434 67L452 59L553 174L584 152L522 69Q487 23 458 6T399
-12Q356 -12 339 10T321 60Q321 72 323 86T329 111L410 403Q413 415 413 425Q413 451 388 451Q365 451 336 427T277 360T222 261T180 138L145 0H30L140 440ZM444 610Q421 610 402 618T363 637Q340 649 324 657T292 666Q279 666 267 660T236 634L211 658Q235 690
258 714T316 738Q339 738 358 730T397 711Q420 699 436 691T468 682Q481 682 493 688T524 714L549 690Q525 658 502 634T444 610Z" />
<glyph unicode="&#xf2;" glyph-name="ograve" horiz-adv-x="527" d="M204 -12Q119 -12 77 39T35 177Q35 234 54 297T109 412T200 498T323 532Q408 532 450 481T492 343Q492 286 473 223T418 108T327 22T204 -12ZM209 38Q258 38 288 78T334 181Q349 239 358 277T373
340T381 378T383 403Q383 437 368 459T318 482Q293 482 274 471T239 441T212 396T193 339Q178 280 169 242T154 180T146 142T144 117Q144 83 159 61T209 38ZM252 747L355 785L378 594L344 582L252 747Z" />
<glyph unicode="&#xf3;" glyph-name="oacute" horiz-adv-x="527" d="M204 -12Q119 -12 77 39T35 177Q35 234 54 297T109 412T200 498T323 532Q408 532 450 481T492 343Q492 286 473 223T418 108T327 22T204 -12ZM209 38Q258 38 288 78T334 181Q349 239 358 277T373
340T381 378T383 403Q383 437 368 459T318 482Q293 482 274 471T239 441T212 396T193 339Q178 280 169 242T154 180T146 142T144 117Q144 83 159 61T209 38ZM333 582L301 599L403 785L496 737L333 582Z" />
<glyph unicode="&#xf4;" glyph-name="ocircumflex" horiz-adv-x="527" d="M204 -12Q119 -12 77 39T35 177Q35 234 54 297T109 412T200 498T323 532Q408 532 450 481T492 343Q492 286 473 223T418 108T327 22T204 -12ZM209 38Q258 38 288 78T334 181Q349 239 358
277T373 340T381 378T383 403Q383 437 368 459T318 482Q293 482 274 471T239 441T212 396T193 339Q178 280 169 242T154 180T146 142T144 117Q144 83 159 61T209 38ZM416 779L494 607L463 590L366 691L218 590L190 611L343 779H416Z" />
<glyph unicode="&#xf5;" glyph-name="otilde" horiz-adv-x="527" d="M204 -12Q119 -12 77 39T35 177Q35 234 54 297T109 412T200 498T323 532Q408 532 450 481T492 343Q492 286 473 223T418 108T327 22T204 -12ZM209 38Q258 38 288 78T334 181Q349 239 358 277T373
340T381 378T383 403Q383 437 368 459T318 482Q293 482 274 471T239 441T212 396T193 339Q178 280 169 242T154 180T146 142T144 117Q144 83 159 61T209 38ZM417 610Q394 610 375 618T336 637Q313 649 297 657T265 666Q252 666 240 660T209 634L184 658Q208 690
231 714T289 738Q312 738 331 730T370 711Q393 699 409 691T441 682Q454 682 466 688T497 714L522 690Q498 658 475 634T417 610Z" />
<glyph unicode="&#xf6;" glyph-name="odieresis" horiz-adv-x="527" d="M204 -12Q119 -12 77 39T35 177Q35 234 54 297T109 412T200 498T323 532Q408 532 450 481T492 343Q492 286 473 223T418 108T327 22T204 -12ZM209 38Q258 38 288 78T334 181Q349 239 358
277T373 340T381 378T383 403Q383 437 368 459T318 482Q293 482 274 471T239 441T212 396T193 339Q178 280 169 242T154 180T146 142T144 117Q144 83 159 61T209 38ZM255 611Q228 611 214 627T200 662Q200 670 203 682Q208 703 225 717T269 732Q296 732 309 716T323
681Q323 676 323 672T321 661Q316 640 299 626T255 611ZM447 611Q420 611 407 627T393 662Q393 667 393 671T395 682Q400 703 417 717T461 732Q488 732 502 716T516 681Q516 673 513 661Q508 640 491 626T447 611Z" />
<glyph unicode="&#xf7;" glyph-name="divide" horiz-adv-x="550" d="M65 273L81 337H507L490 273H65ZM231 54Q201 54 185 71T169 108Q169 118 172 130Q179 157 198 172T248 187Q278 187 294 170T310 133Q310 123 307 111Q300 84 281 69T231 54ZM324 423Q294 423
278 440T262 477Q262 487 265 499Q272 526 291 541T341 556Q371 556 387 539T403 502Q403 492 400 480Q393 453 374 438T324 423Z" />
<glyph unicode="&#xf8;" glyph-name="oslash" horiz-adv-x="527" d="M204 -12Q126 -12 82 34L9 -42L-26 -5L54 77Q35 118 35 177Q35 234 54 297T109 412T200 498T323 532Q363 532 393 520T445 486L517 562L552 525L473 443Q492 402 492 343Q492 286 473 223T418
108T327 22T204 -12ZM318 482Q293 482 274 471T239 441T212 396T193 339Q178 280 169 243T154 180L382 421Q378 448 363 465T318 482ZM209 38Q258 38 288 78T334 181Q349 239 358 276T373 339L145 99Q149 72 164 55T209 38Z" />
<glyph unicode="&#xf9;" glyph-name="ugrave" horiz-adv-x="592" d="M143 -12Q95 -12 73 15T51 84Q51 116 61 150L142 440H56L68 488L284 532L169 117Q166 105 166 95Q166 69 191 69Q214 69 243 93T301 160T356 259T399 381L434 520H549L435 67L453 59L554 174L585
152L523 69Q505 44 489 29T458 4T430 -8T404 -12Q363 -12 348 10T332 58Q332 71 335 87T341 113L355 169L345 173Q324 135 304 102T259 43T207 3T143 -12ZM285 747L388 785L411 594L377 582L285 747Z" />
<glyph unicode="&#xfa;" glyph-name="uacute" horiz-adv-x="592" d="M143 -12Q95 -12 73 15T51 84Q51 116 61 150L142 440H56L68 488L284 532L169 117Q166 105 166 95Q166 69 191 69Q214 69 243 93T301 160T356 259T399 381L434 520H549L435 67L453 59L554 174L585
152L523 69Q505 44 489 29T458 4T430 -8T404 -12Q363 -12 348 10T332 58Q332 71 335 87T341 113L355 169L345 173Q324 135 304 102T259 43T207 3T143 -12ZM366 582L334 599L436 785L529 737L366 582Z" />
<glyph unicode="&#xfb;" glyph-name="ucircumflex" horiz-adv-x="592" d="M143 -12Q95 -12 73 15T51 84Q51 116 61 150L142 440H56L68 488L284 532L169 117Q166 105 166 95Q166 69 191 69Q214 69 243 93T301 160T356 259T399 381L434 520H549L435 67L453 59L554
174L585 152L523 69Q505 44 489 29T458 4T430 -8T404 -12Q363 -12 348 10T332 58Q332 71 335 87T341 113L355 169L345 173Q324 135 304 102T259 43T207 3T143 -12ZM449 779L527 607L496 590L399 691L251 590L223 611L376 779H449Z" />
<glyph unicode="&#xfc;" glyph-name="udieresis" horiz-adv-x="592" d="M143 -12Q95 -12 73 15T51 84Q51 116 61 150L142 440H56L68 488L284 532L169 117Q166 105 166 95Q166 69 191 69Q214 69 243 93T301 160T356 259T399 381L434 520H549L435 67L453 59L554
174L585 152L523 69Q505 44 489 29T458 4T430 -8T404 -12Q363 -12 348 10T332 58Q332 71 335 87T341 113L355 169L345 173Q324 135 304 102T259 43T207 3T143 -12ZM288 611Q261 611 247 627T233 662Q233 670 236 682Q241 703 258 717T302 732Q329 732 342 716T356
681Q356 676 356 672T354 661Q349 640 332 626T288 611ZM480 611Q453 611 440 627T426 662Q426 667 426 671T428 682Q433 703 450 717T494 732Q521 732 535 716T549 681Q549 673 546 661Q541 640 524 626T480 611Z" />
<glyph unicode="&#xfd;" glyph-name="yacute" horiz-adv-x="482" d="M0 -212Q-42 -212 -67 -193T-93 -141Q-93 -112 -74 -90T-23 -68Q3 -68 17 -82T32 -119Q32 -133 27 -147T12 -169L19 -175Q52 -158 80 -125T140 -32L88 469H46L58 520H276L263 469H207L229 123H238L430
469H375L388 520H550L537 469H498L178 -65Q153 -106 130 -134T84 -180T40 -204T0 -212ZM341 582L309 599L411 785L504 737L341 582Z" />
<glyph unicode="&#xfe;" glyph-name="thorn" horiz-adv-x="544" d="M-91 -149H-24L183 678H96L108 726L321 770L207 356L217 354Q235 393 254 425T295 482T344 519T402 532Q459 532 484 493T510 380Q510 318 492 249T440 122T358 26T250 -12Q204 -12 181 8T149
61H139L92 -149H181L168 -200H-104L-91 -149ZM216 53Q259 53 298 95T363 227Q368 244 373 265T381 309T387 351T390 387Q390 418 384 435T357 452Q338 452 318 437T279 397T242 342T210 281T186 223T172 177L167 157Q156 109 167 81T216 53Z" />
<glyph unicode="&#xff;" glyph-name="ydieresis" horiz-adv-x="482" d="M0 -212Q-42 -212 -67 -193T-93 -141Q-93 -112 -74 -90T-23 -68Q3 -68 17 -82T32 -119Q32 -133 27 -147T12 -169L19 -175Q52 -158 80 -125T140 -32L88 469H46L58 520H276L263 469H207L229
123H238L430 469H375L388 520H550L537 469H498L178 -65Q153 -106 130 -134T84 -180T40 -204T0 -212ZM263 611Q236 611 222 627T208 662Q208 670 211 682Q216 703 233 717T277 732Q304 732 317 716T331 681Q331 676 331 672T329 661Q324 640 307 626T263 611ZM455
611Q428 611 415 627T401 662Q401 667 401 671T403 682Q408 703 425 717T469 732Q496 732 510 716T524 681Q524 673 521 661Q516 640 499 626T455 611Z" />
<glyph unicode="&#x2013;" glyph-name="endash" horiz-adv-x="557" d="M42 271L58 335H536L520 271H42Z" />
<glyph unicode="&#x2014;" glyph-name="emdash" horiz-adv-x="735" d="M42 271L58 335H714L698 271H42Z" />
<glyph unicode="&#x2018;" glyph-name="quoteleft" horiz-adv-x="267" d="M341 740Q302 710 274 679T227 616Q253 612 268 596T284 557Q284 551 284 544T281 532Q273 502 250 484T195 466Q162 466 144 486T126 533Q126 539 127 546T130 561Q136 586 151 611T187
660T229 704T274 740H341V740Z" />
<glyph unicode="&#x2019;" glyph-name="quoteright" horiz-adv-x="267" d="M97 466Q136 496 164 527T211 590Q185 594 170 610T154 649Q154 663 157 674Q165 704 188 722T243 740Q276 740 294 720T312 673Q312 667 311 660T308 645Q302 620 287 595T251 546T209
502T164 466H97V466Z" />
<glyph unicode="&#x201a;" glyph-name="quotesinglbase" horiz-adv-x="267" d="M-51 -120Q-12 -90 16 -59T63 4Q37 8 22 24T6 63Q6 77 9 88Q17 118 40 136T95 154Q128 154 146 134T164 87Q164 81 163 74T160 59Q154 34 139 9T103 -40T61 -84T16 -120H-51V-120Z" />
<glyph unicode="&#x201c;" glyph-name="quotedblleft" horiz-adv-x="484" d="M341 740Q302 710 274 679T227 616Q253 612 268 596T284 557Q284 551 284 544T281 532Q273 502 250 484T195 466Q162 466 144 486T126 533Q126 539 127 546T130 561Q136 586 151 611T187
660T229 704T274 740H341V740ZM558 740Q519 710 491 679T444 616Q470 612 485 596T501 557Q501 551 501 544T498 532Q490 502 467 484T412 466Q379 466 361 486T343 533Q343 539 344 546T347 561Q353 586 368 611T404 660T446 704T491 740H558V740Z" />
<glyph unicode="&#x201d;" glyph-name="quotedblright" horiz-adv-x="484" d="M97 466Q136 496 164 527T211 590Q185 594 170 610T154 649Q154 663 157 674Q165 704 188 722T243 740Q276 740 294 720T312 673Q312 667 311 660T308 645Q302 620 287 595T251 546T209
502T164 466H97V466ZM314 466Q353 496 381 527T428 590Q402 594 387 610T371 649Q371 663 374 674Q382 704 405 722T460 740Q493 740 511 720T529 673Q529 667 528 660T525 645Q519 620 504 595T468 546T426 502T381 466H314V466Z" />
<glyph unicode="&#x201e;" glyph-name="quotedblbase" horiz-adv-x="484" d="M-51 -120Q-12 -90 16 -59T63 4Q37 8 22 24T6 63Q6 77 9 88Q17 118 40 136T95 154Q128 154 146 134T164 87Q164 81 163 74T160 59Q154 34 139 9T103 -40T61 -84T16 -120H-51V-120ZM166
-120Q205 -90 233 -59T280 4Q254 8 239 24T223 63Q223 77 226 88Q234 118 257 136T312 154Q345 154 363 134T381 87Q381 81 380 74T377 59Q371 34 356 9T320 -40T278 -84T233 -120H166V-120Z" />
<glyph unicode="&#x2022;" glyph-name="bullet" horiz-adv-x="390" d="M191 176Q164 176 143 184T108 207T86 239T79 277Q79 288 81 300T86 325Q97 371 133 400T225 430Q252 430 273 422T308 399T330 367T337 329Q337 318 335 306T330 281Q319 235 283 206T191 176Z" />
<glyph unicode="&#x2039;" glyph-name="guilsinglleft" horiz-adv-x="291" d="M178 72L47 257L59 310L275 491L292 453L154 272L207 103L178 72Z" />
<glyph unicode="&#x203a;" glyph-name="guilsinglright" horiz-adv-x="291" d="M147 292L94 461L123 492L254 307L242 254L26 73L9 111L147 292Z" />
</font>
</defs>
</svg>
