<?xml version="1.0" standalone="no"?>
<!DOCTYPE svg PUBLIC "-//W3C//DTD SVG 1.1//EN" "http://www.w3.org/Graphics/SVG/1.1/DTD/svg11.dtd">
<svg xmlns="http://www.w3.org/2000/svg">
<defs >
<font id="IBMPlexSerif" horiz-adv-x="615" ><font-face
    font-family="IBM Plex Serif Light"
    units-per-em="1000"
    panose-1="2 6 4 3 5 4 6 0 2 3"
    ascent="1025"
    descent="-275"
    alphabetic="0" />
<glyph unicode=" " glyph-name="space" horiz-adv-x="232" />
<glyph unicode="!" glyph-name="exclam" horiz-adv-x="273" d="M136 -9Q113 -9 99 5T85 41V45Q85 66 99 80T137 95Q160 95 174 81T188 45V41Q188 20 174 6T136 -9ZM105 464V698H168V464L150 181H123L105 464Z" />
<glyph unicode="&quot;" glyph-name="quotedbl" horiz-adv-x="402" d="M89 646V740H145V646L129 472H105L89 646ZM257 646V740H313V646L297 472H273L257 646Z" />
<glyph unicode="#" glyph-name="numbersign" horiz-adv-x="709" d="M202 213H63V252H208L242 446H102V485H249L285 698H329L293 485H462L499 698H543L506 485H645V446H500L466 252H606V213H459L423 0H379L415 213H246L209 0H165L202 213ZM252 252H422L456 446H286L252
252Z" />
<glyph unicode="$" glyph-name="dollar" horiz-adv-x="601" d="M286 -4Q238 -4 199 6T133 32T92 70T77 114Q77 139 91 154T129 169Q155 169 167 154T180 118Q180 82 143 66V64Q163 53 197 44T288 34V333L277 336Q179 360 130 404T80 526Q80 607 136 651T286 701V780H327V702Q414
697 463 663T512 584Q512 559 498 544T460 529Q435 529 422 544T409 580Q409 616 446 632V634Q429 645 402 653T326 664V388L335 386Q438 360 484 313T531 192Q531 111 480 59T327 -2V-82H286V-4ZM288 398V663Q213 659 175 626T136 537Q136 478 176 447T285 399L288
398ZM326 36Q402 43 439 79T476 178Q476 209 466 232T437 273T392 302T333 322L326 324V36Z" />
<glyph unicode="%" glyph-name="percent" horiz-adv-x="913" d="M223 351Q268 351 295 383T323 484V545Q323 614 296 646T224 678Q179 678 152 646T124 545V484Q124 415 151 383T223 351ZM689 20Q734 20 761 52T789 153V214Q789 283 762 315T690 347Q645 347 618
315T590 214V153Q590 84 617 52T689 20ZM224 319Q155 319 112 367T69 514Q69 614 112 662T224 710Q292 710 335 662T378 515Q378 416 335 368T224 319ZM690 -12Q621 -12 578 36T535 183Q535 283 578 331T690 379Q758 379 801 331T844 184Q844 85 801 37T690 -12ZM675
698H722L238 0H191L675 698Z" />
<glyph unicode="&amp;" glyph-name="ampersand" horiz-adv-x="720" d="M291 -12Q240 -12 198 0T125 37T78 95T61 173Q61 210 72 239T104 292T153 335T217 372L206 384Q170 422 148 463T125 552Q125 624 174 667T309 710Q348 710 379 700T433 670T468 626T481 570Q481
538 467 511T427 459T368 413T295 373L501 157Q518 193 527 236T539 330H459V367H664V330H580Q574 212 528 129L573 82Q585 70 596 61T621 47T651 39T689 36V0H640Q600 0 574 12T521 53L495 81Q457 36 406 12T291 -12ZM271 398Q346 434 384 471T423 556V570Q423
616 391 644T306 673Q249 673 218 640T187 560V547Q187 508 210 473T267 402L271 398ZM295 29Q355 29 398 49T470 107L241 347Q181 316 155 278T129 183V165Q129 133 141 108T176 66T228 39T295 29Z" />
<glyph unicode="&apos;" glyph-name="quotesingle" horiz-adv-x="234" d="M89 646V740H145V646L129 472H105L89 646Z" />
<glyph unicode="(" glyph-name="parenleft" horiz-adv-x="329" d="M301 -149Q260 -120 221 -75T149 30T98 160T78 312Q78 393 97 464T149 593T220 697T301 772L326 752Q286 720 253 676T196 579T159 466T145 343V280Q145 217 158 157T196 44T253 -53T326 -129L301
-149V-149Z" />
<glyph unicode=")" glyph-name="parenright" horiz-adv-x="329" d="M3 -129Q43 -98 76 -54T133 44T170 157T184 280V343Q184 406 171 466T133 579T76 676T3 752L28 772Q68 743 108 698T180 593T231 463T251 311Q251 230 232 159T180 30T108 -74T28 -149L3 -129Z" />
<glyph unicode="*" glyph-name="asterisk" horiz-adv-x="414" d="M79 438L108 478L181 548L198 535L154 445L125 405L79 438ZM75 580L28 595L45 649L93 634L180 587L173 567L75 580ZM179 697V747H236V697L218 600H197L179 697ZM235 587L322 634L370 649L387 595L339
580L242 567L235 587ZM261 445L217 535L234 548L307 478L336 438L290 405L261 445Z" />
<glyph unicode="+" glyph-name="plus" horiz-adv-x="600" d="M277 284H65V326H277V534H323V326H535V284H323V76H277V284Z" />
<glyph unicode="," glyph-name="comma" horiz-adv-x="258" d="M46 -139Q118 -71 129 -9H126Q103 -9 91 5T78 40V44Q78 66 92 80T129 95Q152 95 166 80T180 42V35Q180 13 173 -11T153 -58T123 -102T86 -139H46V-139Z" />
<glyph unicode="-" glyph-name="hyphen" horiz-adv-x="400" d="M73 331H327V279H73V331Z" />
<glyph unicode="." glyph-name="period" horiz-adv-x="258" d="M129 -9Q106 -9 92 5T78 41V45Q78 66 92 80T129 95Q152 95 166 81T180 45V41Q180 20 166 6T129 -9Z" />
<glyph unicode="/" glyph-name="slash" horiz-adv-x="347" d="M262 740H307L55 -151H10L262 740Z" />
<glyph unicode="0" glyph-name="zero" horiz-adv-x="600" d="M300 27Q389 27 430 96T471 289V409Q471 533 430 602T300 671Q211 671 170 602T129 409V289Q129 165 170 96T300 27ZM300 -12Q183 -12 121 77T58 349Q58 531 120 620T300 710Q417 710 479 621T542 349Q542
167 480 78T300 -12Z" />
<glyph unicode="1" glyph-name="one" horiz-adv-x="585" d="M90 36H277V643L82 546L69 580L285 698H342V36H524V0H90V36Z" />
<glyph unicode="2" glyph-name="two" horiz-adv-x="600" d="M74 50L310 295Q359 346 387 396T415 505V530Q415 594 375 633T264 672Q224 672 194 663T147 641V639Q159 634 169 621T180 589Q180 567 167 553T130 538Q107 538 94 553T80 592Q80 614 95 635T136 673T197
700T274 710Q373 710 430 660T487 519Q487 478 476 444T445 378T398 318T339 260L132 62V58H479V166H519V0H74V50Z" />
<glyph unicode="3" glyph-name="three" horiz-adv-x="600" d="M274 -12Q229 -12 192 -2T129 24T88 61T73 104Q73 129 87 144T124 159Q147 159 160 145T173 107Q173 90 163 77T140 58V56Q158 43 189 35T266 26Q345 26 392 64T440 171V203Q440 269 397 307T274 345H190V386H269Q342
386 383 421T425 514V548Q425 607 385 639T279 672Q237 672 207 663T159 641V639Q172 634 182 621T192 589Q192 567 179 553T142 538Q119 538 106 553T92 592Q92 613 106 634T145 672T205 699T282 710Q327 710 366 699T434 665T480 611T497 535Q497 500 485 472T453
424T406 391T350 370V367Q381 362 410 348T462 312T498 259T512 189Q512 142 495 105T446 42T370 2T274 -12Z" />
<glyph unicode="4" glyph-name="four" horiz-adv-x="600" d="M383 161H43V206L384 698H446V210H551V161H446V0H383V161ZM90 210H383V626H380L90 210Z" />
<glyph unicode="5" glyph-name="five" horiz-adv-x="600" d="M276 -12Q232 -12 197 -2T135 24T95 61T81 104Q81 129 95 144T132 159Q155 159 168 145T181 108Q181 91 172 78T148 59V56Q166 44 197 35T272 26Q358 26 402 71T447 189V214Q447 289 407 333T288 378Q236
378 203 359T149 310L105 319L130 698H489V636H164L144 341L147 340Q170 378 210 401T306 424Q352 424 391 410T458 369T502 300T518 206Q518 157 501 117T451 49T375 4T276 -12Z" />
<glyph unicode="6" glyph-name="six" horiz-adv-x="600" d="M300 -12Q243 -12 200 7T129 60T86 144T72 253Q72 353 101 432T180 569T296 662T438 710L449 677Q317 651 237 558T142 321L147 320Q156 341 170 360T206 395T255 419T318 428Q366 428 404 413T470 369T512
300T527 210Q527 160 510 119T463 49T391 4T300 -12ZM299 27Q339 27 369 40T418 75T447 128T457 195V218Q457 254 448 284T419 337T370 373T300 386Q260 386 230 373T181 338T152 285T142 218V195Q142 159 151 129T180 76T229 40T299 27Z" />
<glyph unicode="7" glyph-name="seven" horiz-adv-x="600" d="M475 636H112V503H72V698H523V651L243 0H188L475 636Z" />
<glyph unicode="8" glyph-name="eight" horiz-adv-x="600" d="M300 -12Q245 -12 201 2T127 42T80 104T64 184Q64 222 77 252T112 305T164 342T227 362V368Q198 373 173 387T128 422T97 472T86 533Q86 573 101 606T145 662T212 697T300 710Q348 710 387 698T455
662T498 606T514 533Q514 500 503 472T473 423T428 387T373 368V362Q406 356 435 342T487 306T523 253T536 184Q536 140 520 104T474 42T399 2T300 -12ZM300 25Q339 25 370 36T422 68T455 115T467 175V198Q467 230 456 257T423 305T370 336T300 348Q261 348 230
337T178 305T145 258T133 198V175Q133 143 144 116T177 68T230 37T300 25ZM300 384Q336 384 363 395T408 424T435 467T445 520V538Q445 566 436 590T408 633T363 663T300 674Q264 674 237 663T192 634T165 591T155 538V520Q155 492 164 468T192 425T237 395T300
384Z" />
<glyph unicode="9" glyph-name="nine" horiz-adv-x="600" d="M152 21Q284 47 364 140T459 377L454 378Q445 357 431 338T395 303T345 279T283 270Q235 270 197 285T131 329T89 398T74 488Q74 538 91 579T138 649T209 694T301 710Q358 710 400 691T471 638T514
554T529 445Q529 344 500 265T421 129T305 36T163 -12L152 21ZM301 312Q341 312 371 325T420 360T449 413T459 480V503Q459 539 450 569T421 622T372 658T302 671Q262 671 232 658T183 623T154 570T144 503V480Q144 444 153 414T182 361T231 325T301 312Z" />
<glyph unicode=":" glyph-name="colon" horiz-adv-x="278" d="M139 -9Q116 -9 102 5T88 41V45Q88 66 102 80T139 95Q162 95 176 81T190 45V41Q190 20 176 6T139 -9ZM139 408Q116 408 102 422T88 458V462Q88 483 102 497T139 512Q162 512 176 498T190 462V458Q190
437 176 423T139 408Z" />
<glyph unicode=";" glyph-name="semicolon" horiz-adv-x="278" d="M56 -139Q128 -71 139 -9H136Q113 -9 101 5T88 40V44Q88 66 102 80T139 95Q162 95 176 80T190 42V35Q190 13 183 -11T163 -58T133 -102T96 -139H56V-139ZM139 408Q116 408 102 422T88 458V462Q88
483 102 497T139 512Q162 512 176 498T190 462V458Q190 437 176 423T139 408Z" />
<glyph unicode="&lt;" glyph-name="less" horiz-adv-x="600" d="M88 238V287L511 537V489L135 265V260L511 36V-12L88 238Z" />
<glyph unicode="=" glyph-name="equal" horiz-adv-x="600" d="M65 228H535V186H65V228ZM65 425H535V383H65V425Z" />
<glyph unicode="&gt;" glyph-name="greater" horiz-adv-x="600" d="M88 36L464 260V265L88 489V537L511 287V238L88 -12V36Z" />
<glyph unicode="?" glyph-name="question" horiz-adv-x="469" d="M171 364Q258 366 309 406T361 515V538Q361 601 323 636T221 672Q179 672 153 663T107 639V637Q118 633 129 619T140 588Q140 566 127 551T90 536Q67 536 54 550T40 591Q40 613 55 634T96 672T156
699T229 710Q274 710 310 697T373 661T414 604T429 529Q429 485 414 449T370 387T302 345T215 325V195H171V364ZM193 -9Q170 -9 156 5T142 41V45Q142 66 156 80T194 95Q217 95 231 81T245 45V41Q245 20 231 6T193 -9Z" />
<glyph unicode="@" glyph-name="at" horiz-adv-x="918" d="M454 -120Q371 -120 302 -92T182 -9T104 121T76 294Q76 388 104 464T183 596T304 681T459 711Q542 711 612 684T733 606T813 484T842 324Q842 272 833 226T805 145T756 90T682 70Q633 70 607 94T576 158H572Q556
122 526 96T444 70Q407 70 376 83T321 124T285 192T272 290Q272 345 285 386T321 455T375 495T444 509Q469 509 489 502T524 484T549 458T566 427H570L589 499H620V177Q620 141 637 122T685 102Q737 102 765 152T794 306V353Q794 423 771 482T704 585T598 653T459
677Q382 677 320 651T215 577T148 465T124 325V267Q124 190 147 126T214 15T319 -57T454 -83H679V-107Q630 -112 574 -116T454 -120ZM451 110Q505 110 537 138T570 218V361Q570 412 538 440T451 469Q390 469 360 432T329 330V249Q329 184 359 147T451 110Z" />
<glyph unicode="A" glyph-name="A" horiz-adv-x="697" d="M20 36H75L312 698H385L622 36H677V0H456V36H552L483 230H191L123 36H219V0H20V36ZM203 267H471L340 642H335L203 267Z" />
<glyph unicode="B" glyph-name="B" horiz-adv-x="664" d="M53 36H133V662H53V698H390Q474 698 521 654T569 531Q569 495 559 468T533 420T494 387T447 368V365Q476 362 503 350T551 315T585 263T598 192Q598 148 585 113T548 52T491 14T415 0H53V36ZM198 39H394Q427
39 452 49T494 77T519 119T528 170V213Q528 240 520 264T494 306T452 334T394 344H198V39ZM198 382H378Q438 382 468 416T499 499V542Q499 591 469 625T378 659H198V382Z" />
<glyph unicode="C" glyph-name="C" horiz-adv-x="658" d="M348 -12Q281 -12 227 12T135 83T77 196T56 349Q56 437 76 504T134 617T225 686T345 710Q421 710 467 685T526 628H530V698H585V494H530V549Q530 575 517 597T481 635T424 660T352 669Q296 669 254 650T185
594T143 509T129 399V304Q129 176 190 106T361 36Q439 36 489 73T563 171L595 156Q584 125 564 95T513 41T441 3T348 -12Z" />
<glyph unicode="D" glyph-name="D" horiz-adv-x="704" d="M53 36H133V662H53V698H339Q483 698 565 611T648 349Q648 174 566 87T339 0H53V36ZM198 39H333Q391 39 436 57T512 110T559 192T575 299V399Q575 457 559 505T513 587T437 640T333 659H198V39Z" />
<glyph unicode="E" glyph-name="E" horiz-adv-x="627" d="M53 36H133V662H53V698H558V537H503V659H198V382H421V464H468V261H421V343H198V39H512V167H567V0H53V36Z" />
<glyph unicode="F" glyph-name="F" horiz-adv-x="610" d="M53 36H133V662H53V698H554V537H499V659H198V369H421V451H468V248H421V330H198V36H298V0H53V36Z" />
<glyph unicode="G" glyph-name="G" horiz-adv-x="744" d="M351 -12Q283 -12 228 12T135 82T77 195T56 349Q56 438 77 505T137 618T233 687T360 710Q403 710 436 703T494 685T534 658T556 627H560V698H615V494H560V549Q560 577 546 599T506 637T445 661T368 669Q249
669 189 598T129 399V300Q129 237 145 188T191 104T263 51T357 33Q399 33 435 44T499 76T542 128T558 201V295H423V331H696V295H624V0H595L561 105H557Q548 81 531 60T488 23T428 -2T351 -12Z" />
<glyph unicode="H" glyph-name="H" horiz-adv-x="781" d="M53 36H133V662H53V698H278V662H198V379H583V662H503V698H728V662H648V36H728V0H503V36H583V340H198V36H278V0H53V36Z" />
<glyph unicode="I" glyph-name="I" horiz-adv-x="331" d="M53 36H133V662H53V698H278V662H198V36H278V0H53V36Z" />
<glyph unicode="J" glyph-name="J" horiz-adv-x="443" d="M151 -12Q85 -12 52 13T19 75Q19 98 32 113T70 128Q91 128 103 114T116 80Q116 62 107 51T83 36V33Q94 29 110 26T151 22Q201 22 228 49T256 138V662H156V698H401V662H321V145Q321 64 275 26T151 -12Z" />
<glyph unicode="K" glyph-name="K" horiz-adv-x="702" d="M53 36H133V662H53V698H278V662H198V300H201L310 420L534 662H450V698H657V662H589L358 413L608 36H679V0H455V36H533L313 367L198 246V36H278V0H53V36Z" />
<glyph unicode="L" glyph-name="L" horiz-adv-x="590" d="M53 36H133V662H53V698H278V662H198V39H481V167H536V0H53V36Z" />
<glyph unicode="M" glyph-name="M" horiz-adv-x="875" d="M53 36H133V662H53V698H212L437 270H440L671 698H822V662H742V36H822V0H598V36H677V624H674L611 506L424 158L251 489L181 623H177V36H257V0H53V36Z" />
<glyph unicode="N" glyph-name="N" horiz-adv-x="774" d="M53 36H133V662H53V698H208L603 101H607V662H527V698H731V662H651V0H596L181 626H177V36H257V0H53V36Z" />
<glyph unicode="O" glyph-name="O" horiz-adv-x="732" d="M366 29Q422 29 465 48T539 103T584 190T600 304V394Q600 457 585 508T539 594T466 649T366 669Q310 669 267 650T193 595T148 508T132 394V304Q132 241 147 190T193 104T266 49T366 29ZM366 -12Q295 -12
239 12T142 82T81 196T59 349Q59 435 80 502T142 615T238 686T366 710Q436 710 493 686T590 616T651 502T673 349Q673 263 652 196T590 83T493 12T366 -12Z" />
<glyph unicode="P" glyph-name="P" horiz-adv-x="619" d="M53 36H133V662H53V698H381Q474 698 523 650T573 513Q573 424 523 374T380 324H198V36H298V0H53V36ZM198 363H376Q407 363 431 373T471 400T495 440T503 489V533Q503 559 495 582T471 622T431 649T376
659H198V363Z" />
<glyph unicode="Q" glyph-name="Q" horiz-adv-x="731" d="M522 -162Q470 -162 440 -146T386 -95L326 -10Q201 4 130 96T59 349Q59 435 80 502T142 615T238 686T365 710Q435 710 492 686T589 616T650 502T672 349Q672 186 599 94T397 -10L443 -73Q465 -103 485
-114T539 -126H571V-162H522ZM365 29Q421 29 464 48T538 103T583 190T599 304V394Q599 457 584 508T538 594T465 649T365 669Q309 669 266 650T193 595T148 508T132 394V304Q132 241 147 190T193 104T266 49T365 29Z" />
<glyph unicode="R" glyph-name="R" horiz-adv-x="678" d="M53 36H133V662H53V698H381Q473 698 523 651T573 514Q573 438 531 390T407 333L531 105Q568 36 638 36H652V0H600Q574 0 555 5T520 20T493 47T470 84L341 325H198V36H278V0H53V36ZM198 363H376Q407 363
430 373T470 400T494 440T503 489V533Q503 559 495 582T470 622T431 649T376 659H198V363Z" />
<glyph unicode="S" glyph-name="S" horiz-adv-x="592" d="M295 -12Q221 -12 181 10T124 66H119V0H64V208H119V156Q119 129 127 106T155 66T206 39T284 29Q378 29 421 68T464 175Q464 206 455 229T427 269T384 297T327 317L266 333Q168 359 121 405T74 529Q74 572
90 605T134 662T203 697T294 710Q362 710 401 689T455 638H460V698H515V500H460V554Q460 606 420 637T294 669Q216 669 176 634T135 539Q135 478 173 447T278 398L337 383Q434 357 479 310T525 190Q525 145 510 108T466 45T394 3T295 -12Z" />
<glyph unicode="T" glyph-name="T" horiz-adv-x="657" d="M196 36H296V659H94V537H39V698H618V537H563V659H361V36H461V0H196V36Z" />
<glyph unicode="U" glyph-name="U" horiz-adv-x="735" d="M373 -12Q305 -12 258 3T180 51T137 138T123 269V662H43V698H268V662H188V258Q188 199 197 157T229 86T287 45T376 32Q430 32 466 45T526 86T559 156T569 258V662H489V698H692V662H612V278Q612 201 600
146T560 56T486 5T373 -12Z" />
<glyph unicode="V" glyph-name="V" horiz-adv-x="673" d="M78 662H23V698H243V662H147L260 328L346 65H350L437 329L547 662H451V698H650V662H595L370 0H303L78 662Z" />
<glyph unicode="W" glyph-name="W" horiz-adv-x="980" d="M80 662H24V698H245V662H149L294 78H298L465 698H533L702 78H705L853 662H758V698H956V662H900L727 0H662L490 615H487L318 0H253L80 662Z" />
<glyph unicode="X" glyph-name="X" horiz-adv-x="667" d="M17 36H79L299 346L85 662H23V698H248V662H164L341 395H344L524 662H446V698H642V662H579L367 361L586 36H650V0H424V36H507L325 311H322L134 36H213V0H17V36Z" />
<glyph unicode="Y" glyph-name="Y" horiz-adv-x="637" d="M186 36H286V282L75 662H17V698H243V662H149L329 331H333L514 662H421V698H620V662H562L351 286V36H451V0H186V36Z" />
<glyph unicode="Z" glyph-name="Z" horiz-adv-x="634" d="M60 39L485 659H124V537H69V698H561V659L136 39H516V167H571V0H60V39Z" />
<glyph unicode="[" glyph-name="bracketleft" horiz-adv-x="291" d="M77 760H248V724H135V-102H248V-138H77V760Z" />
<glyph unicode="\" glyph-name="backslash" horiz-adv-x="347" d="M42 740H87L339 -151H294L42 740Z" />
<glyph unicode="]" glyph-name="bracketright" horiz-adv-x="291" d="M43 -102H156V724H43V760H214V-138H43V-102Z" />
<glyph unicode="^" glyph-name="asciicircum" horiz-adv-x="600" d="M61 337L273 698H327L539 337L502 317L302 651H298L98 317L61 337Z" />
<glyph unicode="_" glyph-name="underscore" horiz-adv-x="573" d="M27 -110H546V-152H27V-110Z" />
<glyph unicode="`" glyph-name="grave" horiz-adv-x="600" d="M187 738L246 768L333 598L311 586L187 738Z" />
<glyph unicode="a" glyph-name="a" horiz-adv-x="541" d="M209 -12Q134 -12 93 25T51 126Q51 163 63 191T103 238T173 266T279 276H367V357Q367 421 334 454T237 488Q202 488 177 482T136 466V464Q147 459 156 449T165 421Q165 399 153 387T119 375Q99 375 87
387T74 422Q74 441 87 459T123 492T180 515T256 524Q337 524 383 483T429 366V33H508V6Q497 -1 478 -5T439 -10Q369 -10 369 57V81H365Q358 64 346 47T316 17T271 -4T209 -12ZM232 30Q260 30 285 38T328 60T356 96T367 143V244H287Q239 244 207 237T155 217T127
185T118 140V118Q118 77 147 54T232 30Z" />
<glyph unicode="b" glyph-name="b" horiz-adv-x="594" d="M326 -12Q262 -12 223 15T166 80H162L130 0H102V707L23 718V745L164 768V432H168Q185 469 223 496T326 524Q425 524 482 456T540 256Q540 124 483 56T326 -12ZM310 31Q388 31 430 82T472 220V292Q472 379
430 430T310 481Q282 481 256 473T210 450T177 414T164 366V146Q164 119 176 98T209 62T256 39T310 31Z" />
<glyph unicode="c" glyph-name="c" horiz-adv-x="516" d="M282 -12Q228 -12 185 6T113 59T67 144T51 256Q51 319 68 369T116 453T190 506T287 524Q324 524 355 516T408 494T442 460T455 418Q455 393 441 379T404 364Q379 364 367 378T354 413Q354 431 363 444T390
464V467Q359 487 293 487Q254 487 222 473T168 434T133 374T120 297V232Q120 143 166 90T290 36Q322 36 346 43T390 64T422 95T447 133L474 117Q464 93 448 70T409 29T354 -1T282 -12Z" />
<glyph unicode="d" glyph-name="d" horiz-adv-x="604" d="M268 -12Q169 -12 112 56T54 256Q54 388 111 456T268 524Q332 524 370 497T426 432H430V707L351 718V745L492 768V51L571 40V13L430 -10V80H426Q410 42 371 15T268 -12ZM284 31Q312 31 338 39T384 62T417
98T430 146V366Q430 393 418 414T385 450T338 473T284 481Q206 481 164 430T122 292V220Q122 133 164 82T284 31Z" />
<glyph unicode="e" glyph-name="e" horiz-adv-x="540" d="M281 -12Q174 -12 113 58T51 256Q51 317 68 367T115 451T187 505T279 524Q328 524 367 506T434 457T476 381T491 284V266H120V235Q120 139 166 88T290 36Q354 36 392 64T453 133L480 117Q470 93 453 70T411
29T354 -1T281 -12ZM120 301H425V308Q425 346 416 379T389 436T344 473T279 487Q241 487 212 474T162 436T131 379T120 307V301Z" />
<glyph unicode="f" glyph-name="f" horiz-adv-x="336" d="M47 36H126V473H47V512H126V620Q126 654 137 682T169 729T216 759T275 770Q326 770 353 751T380 701Q380 680 368 667T336 654Q317 654 306 665T294 694Q294 724 320 734V736Q312 738 302 739T281 740Q237
740 213 711T188 627V512H299V473H188V36H287V0H47V36Z" />
<glyph unicode="g" glyph-name="g" horiz-adv-x="549" d="M263 -212Q203 -212 162 -203T94 -178T56 -138T44 -86Q44 -65 52 -48T76 -16T110 7T150 23V26Q88 46 88 106Q88 144 115 166T176 198V202Q129 221 102 260T75 354Q75 393 89 424T128 478T189 512T266 524Q313
524 347 511T405 477Q405 534 423 556T470 579Q489 579 501 569T513 539Q513 521 502 510T471 499Q444 499 434 522H431Q430 519 429 512T428 494T427 473T427 453Q439 436 448 413T458 354Q458 315 444 284T404 231T343 197T266 185Q237 185 212 191Q180 184 158
167T135 124Q135 101 153 88T220 75H346Q435 75 476 41T518 -55Q518 -130 453 -171T263 -212ZM266 219Q326 219 358 251T391 335V374Q391 425 359 457T267 490Q207 490 175 458T142 374V335Q142 284 174 252T266 219ZM100 -83Q100 -128 138 -151T242 -174H291Q370
-174 417 -147T464 -69Q464 -29 436 -7T336 15H178Q100 -13 100 -83Z" />
<glyph unicode="h" glyph-name="h" horiz-adv-x="616" d="M33 36H112V707L33 718V745L174 768V433H178Q184 450 196 466T227 495T271 516T330 524Q422 524 463 476T504 331V36H583V0H363V36H442V325Q442 481 309 481Q283 481 259 474T216 453T186 417T174 367V36H253V0H33V36Z"
/>
<glyph unicode="i" glyph-name="i" horiz-adv-x="299" d="M156 647Q134 647 123 659T111 690V694Q111 712 122 724T156 737Q178 737 189 725T201 694V690Q201 672 190 660T156 647ZM46 36H125V461L46 472V499L187 522V36H266V0H46V36Z" />
<glyph unicode="j" glyph-name="j" horiz-adv-x="289" d="M57 -212Q10 -212 -12 -192T-34 -144Q-34 -125 -23 -113T8 -101Q27 -101 37 -112T47 -141Q47 -154 41 -163T24 -177V-179Q36 -183 56 -183Q88 -183 106 -162T125 -98V461L46 472V499L187 522V-68Q187 -143
152 -177T57 -212ZM156 647Q134 647 123 659T111 690V694Q111 712 122 724T156 737Q178 737 189 725T201 694V690Q201 672 190 660T156 647Z" />
<glyph unicode="k" glyph-name="k" horiz-adv-x="577" d="M33 36H112V707L33 718V745L174 768V227H178L265 320L411 476H338V512H540V476H468L307 309L503 36H563V0H364V36H432L264 268L174 177V36H253V0H33V36Z" />
<glyph unicode="l" glyph-name="l" horiz-adv-x="286" d="M33 36H112V707L33 718V745L174 768V36H253V0H33V36Z" />
<glyph unicode="m" glyph-name="m" horiz-adv-x="949" d="M46 36H125V461L46 472V499L185 522V432H189Q195 449 207 465T239 495T283 516T340 524Q469 524 500 417H503Q511 438 524 457T557 491T603 515T665 524Q756 524 796 476T837 330V36H916V0H696V36H775V325Q775
481 644 481Q618 481 595 474T553 453T523 417T512 366V36H591V0H371V36H450V325Q450 481 319 481Q293 481 270 474T228 453T198 417T187 366V36H266V0H46V36Z" />
<glyph unicode="n" glyph-name="n" horiz-adv-x="629" d="M46 36H125V461L46 472V499L185 522V432H189Q195 449 208 465T240 495T284 516T343 524Q435 524 476 476T517 331V36H596V0H376V36H455V325Q455 481 322 481Q296 481 272 474T229 453T199 417T187 367V36H266V0H46V36Z"
/>
<glyph unicode="o" glyph-name="o" horiz-adv-x="564" d="M282 27Q363 27 403 78T443 212V300Q443 382 403 433T282 485Q201 485 161 434T121 300V212Q121 130 161 79T282 27ZM282 -12Q229 -12 187 6T114 58T68 143T51 256Q51 319 67 368T114 452T186 505T282
524Q335 524 377 506T450 453T496 369T513 256Q513 193 497 143T450 59T378 6T282 -12Z" />
<glyph unicode="p" glyph-name="p" horiz-adv-x="604" d="M33 -164H112V462L33 472V499L174 522V432H178Q195 469 233 496T336 524Q435 524 492 456T550 256Q550 124 493 56T336 -12Q272 -12 233 15T178 80H174V-164H273V-200H33V-164ZM320 31Q398 31 440 82T482
221V292Q482 379 440 430T320 481Q292 481 266 473T220 450T187 414T174 366V146Q174 119 186 98T219 62T266 39T320 31Z" />
<glyph unicode="q" glyph-name="q" horiz-adv-x="594" d="M331 -164H430V80H426Q410 42 371 15T268 -12Q169 -12 112 56T54 256Q54 388 111 456T268 524Q332 524 372 497T428 433H432L464 512H492V-164H571V-200H331V-164ZM284 31Q312 31 338 39T384 62T417 98T430
146V366Q430 393 418 414T385 450T338 473T284 481Q206 481 164 430T122 292V221Q122 133 164 82T284 31Z" />
<glyph unicode="r" glyph-name="r" horiz-adv-x="423" d="M46 36H125V461L46 472V499L185 522V428H190Q197 445 208 462T236 493T275 515T326 524Q364 524 386 507T409 457Q409 433 396 420T363 406Q341 406 328 418T315 449Q315 465 322 475T338 487V489Q335
490 327 490T313 491Q291 491 269 480T228 451T199 410T187 364V36H286V0H46V36Z" />
<glyph unicode="s" glyph-name="s" horiz-adv-x="488" d="M247 -12Q194 -12 160 7T111 53H108V0H60V151H108V125Q108 78 141 53T237 27Q300 27 334 50T368 123Q368 165 343 188T268 223L213 235Q141 250 103 285T64 386Q64 452 111 488T235 524Q287 524 319 507T362
466H365V512H413V361H365V397Q365 442 334 463T243 485Q186 485 154 463T122 396Q122 353 148 330T223 296L276 285Q350 268 389 234T428 134Q428 69 380 29T247 -12Z" />
<glyph unicode="t" glyph-name="t" horiz-adv-x="346" d="M192 -4Q148 -4 132 12T116 68V473H47V512H61Q79 512 91 514T110 522T120 535T126 555L142 650H178V512H316V473H178V39H316V11Q307 8 292 5T260 0T225 -3T192 -4Z" />
<glyph unicode="u" glyph-name="u" horiz-adv-x="611" d="M281 -12Q189 -12 148 36T107 182V461L28 472V499L169 522V188Q169 31 302 31Q327 31 351 38T395 59T425 95T437 145V461L358 472V499L499 522V51L578 40V13L439 -10V80H435Q429 63 417 47T385 17T340
-4T281 -12Z" />
<glyph unicode="v" glyph-name="v" horiz-adv-x="533" d="M56 476H4V512H208V476H124L276 69H279L429 476H345V512H527V476H475L291 0H241L56 476Z" />
<glyph unicode="w" glyph-name="w" horiz-adv-x="794" d="M66 476H14V512H214V476H129L246 62H249L384 512H438L566 62H569L687 476H603V512H779V476H727L588 0H526L402 427H398L266 0H205L66 476Z" />
<glyph unicode="x" glyph-name="x" horiz-adv-x="554" d="M25 36H83L245 252L83 476H28V512H227V476H158L288 293H291L416 476H345V512H524V476H465L311 263L474 36H529V0H330V36H399L268 222H265L132 36H204V0H25V36Z" />
<glyph unicode="y" glyph-name="y" horiz-adv-x="533" d="M118 -212Q72 -212 51 -193T30 -144Q30 -123 41 -110T75 -97Q95 -97 105 -108T116 -139Q116 -153 109 -162T91 -176V-178Q102 -182 120 -182Q151 -182 177 -157T224 -76L247 -15L57 476H5V512H208V476H124L277
69H280L429 476H345V512H527V476H475L259 -83Q236 -143 202 -177T118 -212Z" />
<glyph unicode="z" glyph-name="z" horiz-adv-x="500" d="M48 29L361 475H105V361H57V512H440V483L127 37H400V151H448V0H48V29Z" />
<glyph unicode="{" glyph-name="braceleft" horiz-adv-x="324" d="M179 -138Q149 -138 134 -121T119 -78V199Q119 243 92 264T19 286V336Q64 336 91 357T119 423V700Q119 726 134 743T179 760H278V724H177V435Q177 411 169 391T146 355T111 330T69 317V305Q91
302 111 293T145 267T168 231T177 187V-102H278V-138H179V-138Z" />
<glyph unicode="|" glyph-name="bar" horiz-adv-x="279" d="M118 760H161V-138H118V760Z" />
<glyph unicode="}" glyph-name="braceright" horiz-adv-x="324" d="M46 -102H147V187Q147 211 155 231T178 267T212 292T255 305V317Q232 320 213 329T179 355T156 391T147 435V724H46V760H145Q175 760 190 743T205 700V423Q205 379 232 358T305 336V286Q260 286
233 265T205 199V-78Q205 -104 190 -121T145 -138H46V-102Z" />
<glyph unicode="~" glyph-name="asciitilde" horiz-adv-x="600" d="M421 248Q387 248 359 258T292 286Q257 302 231 311T176 321Q150 321 129 313T85 286L64 312Q87 337 112 350T179 364Q213 364 241 354T308 326Q343 310 369 301T424 291Q450 291 471 299T515
326L536 300Q513 275 488 262T421 248Z" />
<glyph unicode="&#xa0;" glyph-name="uni00A0" horiz-adv-x="232" />
<glyph unicode="&#xa1;" glyph-name="exclamdown" horiz-adv-x="273" d="M136 417Q113 417 99 431T85 467V471Q85 492 99 506T137 521Q160 521 174 507T188 471V467Q188 446 174 432T136 417ZM105 49L123 331H150L168 49V-186H105V49Z" />
<glyph unicode="&#xa2;" glyph-name="cent" horiz-adv-x="520" d="M259 -11Q161 -3 106 67T51 256Q51 375 108 444T259 523V626H299V524Q369 521 412 492T455 418Q455 394 441 380T404 366Q381 366 369 380T356 414Q356 431 366 443T393 462V465Q357 487 298 487V36Q358
38 392 66T447 133L474 117Q465 94 450 72T414 33T364 3T299 -11V-114H259V-11ZM260 484Q194 473 157 423T119 297V232Q119 152 157 101T260 38V484Z" />
<glyph unicode="&#xa3;" glyph-name="sterling" horiz-adv-x="589" d="M73 55Q117 79 141 127T166 236Q166 255 164 272T156 307H62V343H146Q132 384 119 425T105 514Q105 558 121 594T165 656T234 696T322 710Q365 710 402 700T465 674T506 636T521 590Q521 565
507 550T468 534Q443 534 431 549T418 585Q418 621 455 637V640Q438 652 405 660T333 669Q252 669 210 628T167 521Q167 469 181 427T208 343H407V307H218Q221 292 223 276T225 243Q225 211 217 183T194 130T160 87T121 56V53H488V163H528V0H73V55Z" />
<glyph unicode="&#xa5;" glyph-name="yen" horiz-adv-x="640" d="M188 36H287V157H103V193H287V311H103V347H267L79 662H20V698H248V662H153L330 359H334L512 662H420V698H620V662H561L370 347H537V311H353V193H537V157H353V36H452V0H188V36Z" />
<glyph unicode="&#xa6;" glyph-name="brokenbar" horiz-adv-x="279" d="M118 221H161V-138H118V221ZM118 760H161V401H118V760Z" />
<glyph unicode="&#xa7;" glyph-name="section" horiz-adv-x="591" d="M275 -154Q239 -154 209 -147T158 -127T124 -97T112 -59Q112 -35 126 -21T162 -7Q184 -7 196 -19T209 -51Q209 -69 200 -79T178 -94V-96Q194 -105 215 -111T266 -118Q332 -118 367 -92T403
-12Q403 35 375 61T303 100L234 121Q197 132 169 145T121 177T91 221T80 281Q80 334 113 372T201 427V431Q131 474 131 557Q131 632 180 671T317 710Q353 710 383 703T434 683T468 653T480 615Q480 591 466 577T430 563Q408 563 396 575T383 607Q383 625 392 635T414
650V652Q398 661 377 667T326 674Q260 674 225 648T189 568Q189 521 217 495T289 456L358 435Q395 424 423 411T471 378T501 334T512 275Q512 222 479 184T391 129V125Q461 82 461 -1Q461 -76 412 -115T275 -154ZM357 143Q402 155 427 184T452 264Q452 310 426
336T350 377L278 398Q267 401 257 405T235 413Q190 401 165 372T140 292Q140 246 166 220T242 179L314 158Q325 155 335 151T357 143Z" />
<glyph unicode="&#xa8;" glyph-name="dieresis" horiz-adv-x="600" d="M209 626Q189 626 179 638T168 666V670Q168 686 178 698T209 710Q229 710 239 698T250 670V666Q250 650 240 638T209 626ZM391 626Q371 626 361 638T350 666V670Q350 686 360 698T391 710Q411
710 421 698T432 670V666Q432 650 422 638T391 626Z" />
<glyph unicode="&#xa9;" glyph-name="copyright" horiz-adv-x="776" d="M396 154Q318 154 274 205T229 348Q229 394 241 430T276 492T330 530T399 544Q453 544 487 521T521 464Q521 424 483 424Q466 424 457 434T447 460Q447 485 476 496V498Q464 505 446 509T404
513Q349 513 316 476T282 379V331Q282 268 314 231T402 193Q447 193 473 211T513 256L534 244Q527 227 516 211T487 183T448 162T396 154ZM388 25Q451 25 503 47T594 109T653 203T674 322V376Q674 440 653 494T594 588T504 650T388 673Q325 673 273 651T182 589T123
495T102 376V322Q102 258 123 204T182 110T272 48T388 25ZM388 -12Q317 -12 257 13T153 86T84 199T59 349Q59 432 84 498T153 612T257 684T388 710Q458 710 518 685T623 612T692 499T717 349Q717 266 692 200T623 86T519 14T388 -12Z" />
<glyph unicode="&#xaa;" glyph-name="ordfeminine" horiz-adv-x="381" d="M146 350Q95 350 68 375T40 441Q40 489 73 514T187 540H248V590Q248 632 228 654T166 677Q125 677 103 666V663Q112 660 118 652T124 632Q124 618 115 610T90 601Q74 601 65 609T55 635Q55
661 87 682T178 704Q235 704 265 676T296 597V385H348V365Q340 361 328 358T301 354Q252 354 252 400V407H249Q238 384 215 367T146 350ZM162 381Q199 381 223 398T248 453V515H191Q134 515 112 499T90 450V437Q90 409 109 395T162 381Z" />
<glyph unicode="&#xab;" glyph-name="guillemotleft" horiz-adv-x="502" d="M35 269V307L230 486L246 462L101 288L246 114L230 90L35 269ZM233 269V307L428 486L444 462L299 288L444 114L428 90L233 269Z" />
<glyph unicode="&#xac;" glyph-name="logicalnot" horiz-adv-x="600" d="M474 284H65V326H519V88H474V284Z" />
<glyph unicode="&#xad;" glyph-name="uni00AD" horiz-adv-x="400" d="M73 331H327V279H73V331Z" />
<glyph unicode="&#xae;" glyph-name="registered" horiz-adv-x="472" d="M148 414H169V594H148V610H247Q278 610 295 595T312 554Q312 507 266 496L302 430Q312 414 330 414H334V398H320Q303 398 292 403T271 426L234 492H200V414H220V398H148V414ZM236 324Q273
324 303 337T356 374T390 427T403 493V515Q403 549 391 580T356 634T304 670T236 684Q199 684 169 671T116 634T82 580T69 515V493Q69 458 81 428T116 374T168 338T236 324ZM236 298Q194 298 158 313T96 356T54 421T38 504Q38 549 53 586T95 651T158 694T236 710Q278
710 314 695T376 652T418 587T434 504Q434 459 419 422T377 357T314 314T236 298ZM200 510H245Q262 510 270 520T279 544V557Q279 571 271 581T245 591H200V510Z" />
<glyph unicode="&#xaf;" glyph-name="overscore" horiz-adv-x="600" d="M164 692H436V647H164V692Z" />
<glyph unicode="&#xb0;" glyph-name="degree" horiz-adv-x="466" d="M234 369Q199 369 169 382T116 418T81 472T68 540Q68 576 80 607T115 661T168 697T233 710Q268 710 298 697T351 661T386 607T399 539Q399 503 387 472T352 418T299 382T234 369ZM234 409Q261
409 283 419T321 447T345 488T354 539Q354 566 346 590T321 631T283 659T233 670Q206 670 184 660T146 632T122 591T113 540Q113 513 121 489T146 448T184 420T234 409Z" />
<glyph unicode="&#xb1;" glyph-name="plusminus" horiz-adv-x="600" d="M277 368H65V410H277V615H323V410H535V368H323V163H277V368ZM65 42H535V0H65V42Z" />
<glyph unicode="&#xb2;" glyph-name="twosuperior" horiz-adv-x="346" d="M40 368L169 480Q200 506 218 533T236 590V601Q236 635 215 656T155 677Q112 677 90 661V658Q100 653 104 645T109 627Q109 612 100 603T75 593Q60 593 51 603T42 630Q42 643 50 656T75
680T112 697T161 704Q223 704 255 676T288 600Q288 555 262 521T193 454L81 371V367H275V421H306V329H40V368Z" />
<glyph unicode="&#xb3;" glyph-name="threesuperior" horiz-adv-x="347" d="M158 323Q101 323 69 346T37 397Q37 414 46 423T72 433Q88 433 96 424T105 400Q105 379 86 370V367Q108 350 152 350Q197 350 221 369T245 424V437Q245 469 222 488T154 507H119V536H152Q196
536 217 554T238 602V614Q238 645 218 661T160 677Q114 677 94 661V659Q113 649 113 628Q113 614 104 605T79 595Q45 595 45 632Q45 645 53 657T78 680T116 697T164 704Q224 704 256 681T289 611Q289 576 265 554T209 525V521Q245 516 270 493T296 432Q296 378
259 351T158 323Z" />
<glyph unicode="&#xb4;" glyph-name="acute" horiz-adv-x="600" d="M267 598L354 768L412 738L289 586L267 598Z" />
<glyph unicode="&#xb5;" glyph-name="mu" horiz-adv-x="611" d="M107 461L28 472V499L169 522V188Q169 31 302 31Q327 31 351 38T395 59T425 95T437 145V461L358 472V499L499 522V51L578 40V13L439 -10V80H435Q429 63 417 47T385 17T340 -4T282 -12Q234 -12 200
5T148 55H144L173 -110V-200H107V461Z" />
<glyph unicode="&#xb6;" glyph-name="paragraph" horiz-adv-x="630" d="M288 -154Q252 -154 221 -146T168 -122T132 -85T119 -37Q119 -11 133 4T171 20Q193 20 205 7T217 -27Q217 -66 171 -77V-80Q187 -99 215 -110T288 -121H294V314Q244 314 200 326T123 362T71
422T52 506Q52 554 71 590T123 650T200 686T294 698H548V662H474V66Q474 -44 425 -99T288 -154ZM334 -115Q382 -102 407 -58T433 66V662H334V-115Z" />
<glyph unicode="&#xb7;" glyph-name="middot" horiz-adv-x="314" d="M157 253Q134 253 120 267T106 303V307Q106 328 120 342T157 357Q180 357 194 343T208 307V303Q208 282 194 268T157 253Z" />
<glyph unicode="&#xb8;" glyph-name="cedilla" horiz-adv-x="600" d="M311 -205Q277 -205 257 -193T225 -168L242 -150Q252 -161 268 -168T304 -175Q330 -175 345 -164T360 -129Q360 -112 348 -99T299 -82L268 -80L288 13H319L302 -66L305 -68Q313 -66 322 -65T339
-64Q370 -64 390 -80T410 -127Q410 -164 382 -184T311 -205Z" />
<glyph unicode="&#xb9;" glyph-name="onesuperior" horiz-adv-x="362" d="M57 358H173V657L52 608L41 633L183 698H222V358H326V329H57V358Z" />
<glyph unicode="&#xba;" glyph-name="ordmasculine" horiz-adv-x="392" d="M196 378Q222 378 241 387T272 413T290 450T296 496V558Q296 582 290 603T272 641T241 666T196 676Q170 676 151 667T120 641T102 604T96 558V496Q96 472 102 451T120 413T151 388T196
378ZM196 350Q125 350 84 398T43 527Q43 607 84 655T196 704Q267 704 308 656T349 527Q349 447 308 399T196 350Z" />
<glyph unicode="&#xbb;" glyph-name="guillemotright" horiz-adv-x="502" d="M58 114L203 288L58 462L74 486L269 307V269L74 90L58 114ZM256 114L401 288L256 462L272 486L467 307V269L272 90L256 114Z" />
<glyph unicode="&#xbc;" glyph-name="onequarter" horiz-adv-x="889" d="M57 358H173V657L52 608L41 633L183 698H222V358H326V329H57V358ZM692 698H740L269 0H221L692 698ZM741 79H544V115L737 369H786V115H846V79H786V0H741V79ZM578 115H741V325H738L578 115Z" />
<glyph unicode="&#xbd;" glyph-name="onehalf" horiz-adv-x="907" d="M57 358H173V657L52 608L41 633L183 698H222V358H326V329H57V358ZM692 698H740L269 0H221L692 698ZM601 39L730 151Q761 177 779 204T797 261V272Q797 306 776 327T716 348Q673 348 651 332V329Q661
324 665 316T670 298Q670 283 661 274T636 264Q621 264 612 274T603 301Q603 314 611 327T636 351T673 368T722 375Q784 375 816 347T849 271Q849 226 823 192T754 125L642 42V38H836V92H867V0H601V39Z" />
<glyph unicode="&#xbe;" glyph-name="threequarters" horiz-adv-x="834" d="M158 323Q101 323 69 346T37 397Q37 414 46 423T72 433Q88 433 96 424T105 400Q105 379 86 370V367Q108 350 152 350Q197 350 221 369T245 424V437Q245 469 222 488T154 507H119V536H152Q196
536 217 554T238 602V614Q238 645 218 661T160 677Q114 677 94 661V659Q113 649 113 628Q113 614 104 605T79 595Q45 595 45 632Q45 645 53 657T78 680T116 697T164 704Q224 704 256 681T289 611Q289 576 265 554T209 525V521Q245 516 270 493T296 432Q296 378
259 351T158 323ZM637 698H685L214 0H166L637 698ZM686 79H489V115L682 369H731V115H791V79H731V0H686V79ZM523 115H686V325H683L523 115Z" />
<glyph unicode="&#xbf;" glyph-name="questiondown" horiz-adv-x="469" d="M239 -198Q194 -198 158 -185T95 -149T55 -92T40 -17Q40 27 55 63T99 125T167 166T254 187V317H297V149Q211 146 160 106T108 -3V-26Q108 -89 146 -124T248 -160Q289 -160 316 -151T362
-127V-125Q351 -121 340 -107T329 -75Q329 -54 342 -39T378 -24Q401 -24 415 -38T429 -79Q429 -101 414 -122T373 -160T313 -187T239 -198ZM275 417Q252 417 238 431T224 467V471Q224 492 238 506T276 521Q299 521 313 507T327 471V467Q327 446 313 432T275 417Z"
/>
<glyph unicode="&#xc0;" glyph-name="Agrave" horiz-adv-x="697" d="M20 36H75L312 698H385L622 36H677V0H456V36H552L483 230H191L123 36H219V0H20V36ZM203 267H471L340 642H335L203 267ZM235 916L294 946L381 776L359 764L235 916Z" />
<glyph unicode="&#xc1;" glyph-name="Aacute" horiz-adv-x="697" d="M20 36H75L312 698H385L622 36H677V0H456V36H552L483 230H191L123 36H219V0H20V36ZM203 267H471L340 642H335L203 267ZM315 776L402 946L460 916L337 764L315 776Z" />
<glyph unicode="&#xc2;" glyph-name="Acircumflex" horiz-adv-x="697" d="M20 36H75L312 698H385L622 36H677V0H456V36H552L483 230H191L123 36H219V0H20V36ZM203 267H471L340 642H335L203 267ZM201 787L325 930H371L495 787L475 773L348 879L221 773L201 787Z" />
<glyph unicode="&#xc3;" glyph-name="Atilde" horiz-adv-x="697" d="M20 36H75L312 698H385L622 36H677V0H456V36H552L483 230H191L123 36H219V0H20V36ZM203 267H471L340 642H335L203 267ZM412 793Q394 793 376 801T338 821Q319 832 301 840T268 849Q252 849 241
842T211 816L195 833Q218 860 237 876T284 892Q302 892 320 884T358 864Q377 853 395 845T428 836Q444 836 455 843T485 869L501 852Q478 824 459 809T412 793Z" />
<glyph unicode="&#xc4;" glyph-name="Adieresis" horiz-adv-x="697" d="M20 36H75L312 698H385L622 36H677V0H456V36H552L483 230H191L123 36H219V0H20V36ZM203 267H471L340 642H335L203 267ZM256 801Q236 801 226 813T215 841V845Q215 861 225 873T256 885Q276
885 286 873T297 845V841Q297 825 287 813T256 801ZM439 801Q419 801 409 813T398 841V845Q398 861 408 873T439 885Q459 885 469 873T480 845V841Q480 825 470 813T439 801Z" />
<glyph unicode="&#xc5;" glyph-name="Aring" horiz-adv-x="697" d="M20 36H75L312 698H385L622 36H677V0H456V36H552L483 230H191L123 36H219V0H20V36ZM203 267H471L340 642H335L203 267ZM348 783Q377 783 394 799T411 847V874Q411 905 394 921T348 938Q319 938
302 922T285 874V847Q285 816 302 800T348 783ZM348 755Q325 755 305 763T271 785T248 818T239 860Q239 906 270 936T348 966Q371 966 391 958T425 936T448 903T457 861Q457 815 426 785T348 755Z" />
<glyph unicode="&#xc6;" glyph-name="AE" horiz-adv-x="957" d="M3 36H66L406 662H326V698H888V537H833V659H528V382H751V464H798V261H751V343H528V39H842V167H897V0H383V36H463V230H220L115 36H204V0H3V36ZM237 267H463V662H453L237 267Z" />
<glyph unicode="&#xc7;" glyph-name="Ccedilla" horiz-adv-x="658" d="M361 -205Q327 -205 307 -193T275 -168L292 -150Q302 -161 318 -168T354 -175Q380 -175 395 -164T410 -129Q410 -112 398 -99T349 -82L318 -80L333 -11Q269 -8 218 17T130 88T75 200T56 349Q56
437 76 504T134 617T225 686T345 710Q421 710 467 685T526 628H530V698H585V494H530V549Q530 575 517 597T481 635T424 660T352 669Q296 669 254 650T185 594T143 509T129 399V304Q129 176 190 106T361 36Q439 36 489 73T563 171L595 156Q585 126 566 97T518 45T451
7T364 -11L352 -66L355 -68Q363 -66 372 -65T389 -64Q420 -64 440 -80T460 -127Q460 -164 432 -184T361 -205Z" />
<glyph unicode="&#xc8;" glyph-name="Egrave" horiz-adv-x="627" d="M53 36H133V662H53V698H558V537H503V659H198V382H421V464H468V261H421V343H198V39H512V167H567V0H53V36ZM216 916L275 946L362 776L340 764L216 916Z" />
<glyph unicode="&#xc9;" glyph-name="Eacute" horiz-adv-x="627" d="M53 36H133V662H53V698H558V537H503V659H198V382H421V464H468V261H421V343H198V39H512V167H567V0H53V36ZM296 776L383 946L441 916L318 764L296 776Z" />
<glyph unicode="&#xca;" glyph-name="Ecircumflex" horiz-adv-x="627" d="M53 36H133V662H53V698H558V537H503V659H198V382H421V464H468V261H421V343H198V39H512V167H567V0H53V36ZM182 787L306 930H352L476 787L456 773L329 879L202 773L182 787Z" />
<glyph unicode="&#xcb;" glyph-name="Edieresis" horiz-adv-x="627" d="M53 36H133V662H53V698H558V537H503V659H198V382H421V464H468V261H421V343H198V39H512V167H567V0H53V36ZM237 801Q217 801 207 813T196 841V845Q196 861 206 873T237 885Q257 885 267 873T278
845V841Q278 825 268 813T237 801ZM420 801Q400 801 390 813T379 841V845Q379 861 389 873T420 885Q440 885 450 873T461 845V841Q461 825 451 813T420 801Z" />
<glyph unicode="&#xcc;" glyph-name="Igrave" horiz-adv-x="331" d="M53 36H133V662H53V698H278V662H198V36H278V0H53V36ZM53 916L112 946L199 776L177 764L53 916Z" />
<glyph unicode="&#xcd;" glyph-name="Iacute" horiz-adv-x="331" d="M53 36H133V662H53V698H278V662H198V36H278V0H53V36ZM133 776L220 946L278 916L155 764L133 776Z" />
<glyph unicode="&#xce;" glyph-name="Icircumflex" horiz-adv-x="331" d="M53 36H133V662H53V698H278V662H198V36H278V0H53V36ZM19 787L143 930H189L313 787L293 773L166 879L39 773L19 787Z" />
<glyph unicode="&#xcf;" glyph-name="Idieresis" horiz-adv-x="331" d="M53 36H133V662H53V698H278V662H198V36H278V0H53V36ZM74 801Q54 801 44 813T33 841V845Q33 861 43 873T74 885Q94 885 104 873T115 845V841Q115 825 105 813T74 801ZM257 801Q237 801 227
813T216 841V845Q216 861 226 873T257 885Q277 885 287 873T298 845V841Q298 825 288 813T257 801Z" />
<glyph unicode="&#xd0;" glyph-name="Eth" horiz-adv-x="704" d="M53 36H133V330H38V368H133V662H53V698H339Q483 698 565 611T648 349Q648 174 566 87T339 0H53V36ZM198 39H333Q391 39 436 57T512 110T559 192T575 299V399Q575 457 559 505T513 587T437 640T333
659H198V368H350V330H198V39Z" />
<glyph unicode="&#xd1;" glyph-name="Ntilde" horiz-adv-x="774" d="M53 36H133V662H53V698H208L603 101H607V662H527V698H731V662H651V0H596L181 626H177V36H257V0H53V36ZM453 793Q435 793 417 801T379 821Q360 832 342 840T309 849Q293 849 282 842T252 816L236
833Q259 860 278 876T325 892Q343 892 361 884T399 864Q418 853 436 845T469 836Q485 836 496 843T526 869L542 852Q519 824 500 809T453 793Z" />
<glyph unicode="&#xd2;" glyph-name="Ograve" horiz-adv-x="732" d="M366 29Q422 29 465 48T539 103T584 190T600 304V394Q600 457 585 508T539 594T466 649T366 669Q310 669 267 650T193 595T148 508T132 394V304Q132 241 147 190T193 104T266 49T366 29ZM366
-12Q295 -12 239 12T142 82T81 196T59 349Q59 435 80 502T142 615T238 686T366 710Q436 710 493 686T590 616T651 502T673 349Q673 263 652 196T590 83T493 12T366 -12ZM252 916L311 946L398 776L376 764L252 916Z" />
<glyph unicode="&#xd3;" glyph-name="Oacute" horiz-adv-x="732" d="M366 29Q422 29 465 48T539 103T584 190T600 304V394Q600 457 585 508T539 594T466 649T366 669Q310 669 267 650T193 595T148 508T132 394V304Q132 241 147 190T193 104T266 49T366 29ZM366
-12Q295 -12 239 12T142 82T81 196T59 349Q59 435 80 502T142 615T238 686T366 710Q436 710 493 686T590 616T651 502T673 349Q673 263 652 196T590 83T493 12T366 -12ZM332 776L419 946L477 916L354 764L332 776Z" />
<glyph unicode="&#xd4;" glyph-name="Ocircumflex" horiz-adv-x="732" d="M366 29Q422 29 465 48T539 103T584 190T600 304V394Q600 457 585 508T539 594T466 649T366 669Q310 669 267 650T193 595T148 508T132 394V304Q132 241 147 190T193 104T266 49T366 29ZM366
-12Q295 -12 239 12T142 82T81 196T59 349Q59 435 80 502T142 615T238 686T366 710Q436 710 493 686T590 616T651 502T673 349Q673 263 652 196T590 83T493 12T366 -12ZM218 787L342 930H388L512 787L492 773L365 879L238 773L218 787Z" />
<glyph unicode="&#xd5;" glyph-name="Otilde" horiz-adv-x="732" d="M366 29Q422 29 465 48T539 103T584 190T600 304V394Q600 457 585 508T539 594T466 649T366 669Q310 669 267 650T193 595T148 508T132 394V304Q132 241 147 190T193 104T266 49T366 29ZM366
-12Q295 -12 239 12T142 82T81 196T59 349Q59 435 80 502T142 615T238 686T366 710Q436 710 493 686T590 616T651 502T673 349Q673 263 652 196T590 83T493 12T366 -12ZM429 793Q411 793 393 801T355 821Q336 832 318 840T285 849Q269 849 258 842T228 816L212
833Q235 860 254 876T301 892Q319 892 337 884T375 864Q394 853 412 845T445 836Q461 836 472 843T502 869L518 852Q495 824 476 809T429 793Z" />
<glyph unicode="&#xd6;" glyph-name="Odieresis" horiz-adv-x="732" d="M366 29Q422 29 465 48T539 103T584 190T600 304V394Q600 457 585 508T539 594T466 649T366 669Q310 669 267 650T193 595T148 508T132 394V304Q132 241 147 190T193 104T266 49T366 29ZM366
-12Q295 -12 239 12T142 82T81 196T59 349Q59 435 80 502T142 615T238 686T366 710Q436 710 493 686T590 616T651 502T673 349Q673 263 652 196T590 83T493 12T366 -12ZM273 801Q253 801 243 813T232 841V845Q232 861 242 873T273 885Q293 885 303 873T314 845V841Q314
825 304 813T273 801ZM456 801Q436 801 426 813T415 841V845Q415 861 425 873T456 885Q476 885 486 873T497 845V841Q497 825 487 813T456 801Z" />
<glyph unicode="&#xd7;" glyph-name="multiply" horiz-adv-x="600" d="M99 133L271 305L99 477L129 506L300 334L471 506L501 477L329 305L501 133L471 104L300 276L129 104L99 133Z" />
<glyph unicode="&#xd8;" glyph-name="Oslash" horiz-adv-x="732" d="M92 -19L153 71Q108 117 84 187T59 349Q59 435 80 502T142 615T238 686T366 710Q475 710 550 653L608 738L640 717L579 627Q624 581 648 511T673 349Q673 263 652 196T590 83T493 12T366 -12Q257
-12 182 45L124 -40L92 -19ZM523 612Q463 669 366 669Q310 669 267 650T193 595T148 508T132 394V304Q132 188 184 116L523 612ZM366 29Q422 29 465 48T539 103T584 190T600 304V394Q600 510 548 582L209 86Q269 29 366 29Z" />
<glyph unicode="&#xd9;" glyph-name="Ugrave" horiz-adv-x="735" d="M373 -12Q305 -12 258 3T180 51T137 138T123 269V662H43V698H268V662H188V258Q188 199 197 157T229 86T287 45T376 32Q430 32 466 45T526 86T559 156T569 258V662H489V698H692V662H612V278Q612
201 600 146T560 56T486 5T373 -12ZM265 916L324 946L411 776L389 764L265 916Z" />
<glyph unicode="&#xda;" glyph-name="Uacute" horiz-adv-x="735" d="M373 -12Q305 -12 258 3T180 51T137 138T123 269V662H43V698H268V662H188V258Q188 199 197 157T229 86T287 45T376 32Q430 32 466 45T526 86T559 156T569 258V662H489V698H692V662H612V278Q612
201 600 146T560 56T486 5T373 -12ZM345 776L432 946L490 916L367 764L345 776Z" />
<glyph unicode="&#xdb;" glyph-name="Ucircumflex" horiz-adv-x="735" d="M373 -12Q305 -12 258 3T180 51T137 138T123 269V662H43V698H268V662H188V258Q188 199 197 157T229 86T287 45T376 32Q430 32 466 45T526 86T559 156T569 258V662H489V698H692V662H612V278Q612
201 600 146T560 56T486 5T373 -12ZM231 787L355 930H401L525 787L505 773L378 879L251 773L231 787Z" />
<glyph unicode="&#xdc;" glyph-name="Udieresis" horiz-adv-x="735" d="M373 -12Q305 -12 258 3T180 51T137 138T123 269V662H43V698H268V662H188V258Q188 199 197 157T229 86T287 45T376 32Q430 32 466 45T526 86T559 156T569 258V662H489V698H692V662H612V278Q612
201 600 146T560 56T486 5T373 -12ZM286 801Q266 801 256 813T245 841V845Q245 861 255 873T286 885Q306 885 316 873T327 845V841Q327 825 317 813T286 801ZM469 801Q449 801 439 813T428 841V845Q428 861 438 873T469 885Q489 885 499 873T510 845V841Q510 825
500 813T469 801Z" />
<glyph unicode="&#xdd;" glyph-name="Yacute" horiz-adv-x="637" d="M186 36H286V282L75 662H17V698H243V662H149L329 331H333L514 662H421V698H620V662H562L351 286V36H451V0H186V36ZM298 776L385 946L443 916L320 764L298 776Z" />
<glyph unicode="&#xde;" glyph-name="Thorn" horiz-adv-x="619" d="M53 36H133V662H53V698H278V662H198V541H381Q474 541 523 493T573 356Q573 267 523 217T380 167H198V36H278V0H53V36ZM198 206H376Q407 206 431 216T471 243T495 283T503 332V376Q503 402 495
425T471 465T431 492T376 502H198V206Z" />
<glyph unicode="&#xdf;" glyph-name="germandbls" horiz-adv-x="656" d="M444 -12Q407 -12 378 -5T327 14T295 43T284 79Q284 99 295 111T325 124Q344 124 354 113T364 84Q364 56 341 45V42Q361 32 383 28T434 24Q494 24 527 50T561 125Q561 170 538 192T465 227L432
236Q366 253 334 283T301 375Q301 441 352 476T488 513V551Q488 639 450 685T339 731Q263 731 226 685T188 551V0H47V36H126V473H47V512H126V544Q126 595 140 636T183 708T250 754T339 770Q388 770 427 753T493 706T534 634T549 543V478H518Q440 478 400 454T359
381Q359 343 379 324T448 291L481 283Q548 266 584 234T620 139Q620 71 573 30T444 -12Z" />
<glyph unicode="&#xe0;" glyph-name="agrave" horiz-adv-x="541" d="M209 -12Q134 -12 93 25T51 126Q51 163 63 191T103 238T173 266T279 276H367V357Q367 421 334 454T237 488Q202 488 177 482T136 466V464Q147 459 156 449T165 421Q165 399 153 387T119 375Q99
375 87 387T74 422Q74 441 87 459T123 492T180 515T256 524Q337 524 383 483T429 366V33H508V6Q497 -1 478 -5T439 -10Q369 -10 369 57V81H365Q358 64 346 47T316 17T271 -4T209 -12ZM232 30Q260 30 285 38T328 60T356 96T367 143V244H287Q239 244 207 237T155
217T127 185T118 140V118Q118 77 147 54T232 30ZM400 738L459 768L546 598L524 586L400 738Z" />
<glyph unicode="&#xe1;" glyph-name="aacute" horiz-adv-x="541" d="M209 -12Q134 -12 93 25T51 126Q51 163 63 191T103 238T173 266T279 276H367V357Q367 421 334 454T237 488Q202 488 177 482T136 466V464Q147 459 156 449T165 421Q165 399 153 387T119 375Q99
375 87 387T74 422Q74 441 87 459T123 492T180 515T256 524Q337 524 383 483T429 366V33H508V6Q497 -1 478 -5T439 -10Q369 -10 369 57V81H365Q358 64 346 47T316 17T271 -4T209 -12ZM232 30Q260 30 285 38T328 60T356 96T367 143V244H287Q239 244 207 237T155
217T127 185T118 140V118Q118 77 147 54T232 30ZM480 598L567 768L625 738L502 586L480 598Z" />
<glyph unicode="&#xe2;" glyph-name="acircumflex" horiz-adv-x="541" d="M209 -12Q134 -12 93 25T51 126Q51 163 63 191T103 238T173 266T279 276H367V357Q367 421 334 454T237 488Q202 488 177 482T136 466V464Q147 459 156 449T165 421Q165 399 153 387T119
375Q99 375 87 387T74 422Q74 441 87 459T123 492T180 515T256 524Q337 524 383 483T429 366V33H508V6Q497 -1 478 -5T439 -10Q369 -10 369 57V81H365Q358 64 346 47T316 17T271 -4T209 -12ZM232 30Q260 30 285 38T328 60T356 96T367 143V244H287Q239 244 207 237T155
217T127 185T118 140V118Q118 77 147 54T232 30ZM366 613L490 756H536L660 613L640 599L513 705L386 599L366 613Z" />
<glyph unicode="&#xe3;" glyph-name="atilde" horiz-adv-x="541" d="M209 -12Q134 -12 93 25T51 126Q51 163 63 191T103 238T173 266T279 276H367V357Q367 421 334 454T237 488Q202 488 177 482T136 466V464Q147 459 156 449T165 421Q165 399 153 387T119 375Q99
375 87 387T74 422Q74 441 87 459T123 492T180 515T256 524Q337 524 383 483T429 366V33H508V6Q497 -1 478 -5T439 -10Q369 -10 369 57V81H365Q358 64 346 47T316 17T271 -4T209 -12ZM232 30Q260 30 285 38T328 60T356 96T367 143V244H287Q239 244 207 237T155
217T127 185T118 140V118Q118 77 147 54T232 30ZM577 621Q559 621 541 629T503 649Q484 660 466 668T433 677Q417 677 406 670T376 644L360 661Q383 688 402 704T449 720Q467 720 485 712T523 692Q542 681 560 673T593 664Q609 664 620 671T650 697L666 680Q643
652 624 637T577 621Z" />
<glyph unicode="&#xe4;" glyph-name="adieresis" horiz-adv-x="541" d="M209 -12Q134 -12 93 25T51 126Q51 163 63 191T103 238T173 266T279 276H367V357Q367 421 334 454T237 488Q202 488 177 482T136 466V464Q147 459 156 449T165 421Q165 399 153 387T119 375Q99
375 87 387T74 422Q74 441 87 459T123 492T180 515T256 524Q337 524 383 483T429 366V33H508V6Q497 -1 478 -5T439 -10Q369 -10 369 57V81H365Q358 64 346 47T316 17T271 -4T209 -12ZM232 30Q260 30 285 38T328 60T356 96T367 143V244H287Q239 244 207 237T155
217T127 185T118 140V118Q118 77 147 54T232 30ZM422 626Q402 626 392 638T381 666V670Q381 686 391 698T422 710Q442 710 452 698T463 670V666Q463 650 453 638T422 626ZM604 626Q584 626 574 638T563 666V670Q563 686 573 698T604 710Q624 710 634 698T645 670V666Q645
650 635 638T604 626Z" />
<glyph unicode="&#xe5;" glyph-name="aring" horiz-adv-x="541" d="M209 -12Q134 -12 93 25T51 126Q51 163 63 191T103 238T173 266T279 276H367V357Q367 421 334 454T237 488Q202 488 177 482T136 466V464Q147 459 156 449T165 421Q165 399 153 387T119 375Q99
375 87 387T74 422Q74 441 87 459T123 492T180 515T256 524Q337 524 383 483T429 366V33H508V6Q497 -1 478 -5T439 -10Q369 -10 369 57V81H365Q358 64 346 47T316 17T271 -4T209 -12ZM232 30Q260 30 285 38T328 60T356 96T367 143V244H287Q239 244 207 237T155
217T127 185T118 140V118Q118 77 147 54T232 30ZM513 613Q542 613 559 629T576 677V704Q576 735 559 751T513 768Q484 768 467 752T450 704V677Q450 646 467 630T513 613ZM513 585Q490 585 470 593T436 615T413 648T404 690Q404 736 435 766T513 796Q536 796 556
788T590 766T613 733T622 691Q622 645 591 615T513 585Z" />
<glyph unicode="&#xe6;" glyph-name="ae" horiz-adv-x="838" d="M213 -12Q135 -12 93 26T51 128Q51 169 63 198T103 247T173 276T278 285H367V357Q367 421 333 454T230 488Q198 488 174 482T136 466V464Q147 459 156 449T165 421Q165 399 153 387T119 375Q99 375
87 387T74 422Q74 441 86 459T121 491T176 515T250 524Q323 524 363 490T408 406H413Q429 458 475 491T585 524Q632 524 670 506T734 456T775 379T789 279V252H430V235Q430 139 476 88T599 36Q658 36 694 62T751 127L778 111Q768 88 752 66T712 27T659 -1T590 -12Q524
-12 474 20T402 112H397Q391 87 377 65T340 25T286 -2T213 -12ZM232 30Q290 30 328 60T367 143V252H286Q238 252 206 246T154 226T126 192T118 144V122Q118 79 148 55T232 30ZM430 287H725V302Q725 342 717 376T691 434T647 473T585 487Q548 487 520 474T471 436T441
379T430 307V287Z" />
<glyph unicode="&#xe7;" glyph-name="ccedilla" horiz-adv-x="516" d="M294 -205Q260 -205 240 -193T208 -168L225 -150Q235 -161 251 -168T287 -175Q313 -175 328 -164T343 -129Q343 -112 331 -99T282 -82L251 -80L266 -11Q165 -6 108 65T51 256Q51 319 68 368T116
452T191 505T287 524Q324 524 355 516T408 494T442 460T455 418Q455 393 441 379T404 364Q379 364 367 378T354 413Q354 431 363 444T390 464V467Q359 487 293 487Q253 487 221 473T167 434T132 374T120 297V232Q120 143 166 90T290 36Q322 36 346 43T390 64T422
95T447 133L474 117Q465 94 450 72T414 32T363 3T297 -11L285 -66L288 -68Q296 -66 305 -65T322 -64Q353 -64 373 -80T393 -127Q393 -164 365 -184T294 -205Z" />
<glyph unicode="&#xe8;" glyph-name="egrave" horiz-adv-x="540" d="M281 -12Q174 -12 113 58T51 256Q51 317 68 367T115 451T187 505T279 524Q328 524 367 506T434 457T476 381T491 284V266H120V235Q120 139 166 88T290 36Q354 36 392 64T453 133L480 117Q470
93 453 70T411 29T354 -1T281 -12ZM120 301H425V308Q425 346 416 379T389 436T344 473T279 487Q241 487 212 474T162 436T131 379T120 307V301ZM422 738L481 768L568 598L546 586L422 738Z" />
<glyph unicode="&#xe9;" glyph-name="eacute" horiz-adv-x="540" d="M281 -12Q174 -12 113 58T51 256Q51 317 68 367T115 451T187 505T279 524Q328 524 367 506T434 457T476 381T491 284V266H120V235Q120 139 166 88T290 36Q354 36 392 64T453 133L480 117Q470
93 453 70T411 29T354 -1T281 -12ZM120 301H425V308Q425 346 416 379T389 436T344 473T279 487Q241 487 212 474T162 436T131 379T120 307V301ZM502 598L589 768L647 738L524 586L502 598Z" />
<glyph unicode="&#xea;" glyph-name="ecircumflex" horiz-adv-x="540" d="M281 -12Q174 -12 113 58T51 256Q51 317 68 367T115 451T187 505T279 524Q328 524 367 506T434 457T476 381T491 284V266H120V235Q120 139 166 88T290 36Q354 36 392 64T453 133L480 117Q470
93 453 70T411 29T354 -1T281 -12ZM120 301H425V308Q425 346 416 379T389 436T344 473T279 487Q241 487 212 474T162 436T131 379T120 307V301ZM388 613L512 756H558L682 613L662 599L535 705L408 599L388 613Z" />
<glyph unicode="&#xeb;" glyph-name="edieresis" horiz-adv-x="540" d="M281 -12Q174 -12 113 58T51 256Q51 317 68 367T115 451T187 505T279 524Q328 524 367 506T434 457T476 381T491 284V266H120V235Q120 139 166 88T290 36Q354 36 392 64T453 133L480 117Q470
93 453 70T411 29T354 -1T281 -12ZM120 301H425V308Q425 346 416 379T389 436T344 473T279 487Q241 487 212 474T162 436T131 379T120 307V301ZM444 626Q424 626 414 638T403 666V670Q403 686 413 698T444 710Q464 710 474 698T485 670V666Q485 650 475 638T444
626ZM626 626Q606 626 596 638T585 666V670Q585 686 595 698T626 710Q646 710 656 698T667 670V666Q667 650 657 638T626 626Z" />
<glyph unicode="&#xec;" glyph-name="igrave" horiz-adv-x="299" d="M46 36H125V461L46 472V499L187 522V36H266V0H46V36ZM44 738L103 768L190 598L168 586L44 738Z" />
<glyph unicode="&#xed;" glyph-name="iacute" horiz-adv-x="299" d="M46 36H125V461L46 472V499L187 522V36H266V0H46V36ZM124 598L211 768L269 738L146 586L124 598Z" />
<glyph unicode="&#xee;" glyph-name="icircumflex" horiz-adv-x="299" d="M46 36H125V461L46 472V499L187 522V36H266V0H46V36ZM10 613L134 756H180L304 613L284 599L157 705L30 599L10 613Z" />
<glyph unicode="&#xef;" glyph-name="idieresis" horiz-adv-x="299" d="M46 36H125V461L46 472V499L187 522V36H266V0H46V36ZM66 626Q46 626 36 638T25 666V670Q25 686 35 698T66 710Q86 710 96 698T107 670V666Q107 650 97 638T66 626ZM248 626Q228 626 218 638T207
666V670Q207 686 217 698T248 710Q268 710 278 698T289 670V666Q289 650 279 638T248 626Z" />
<glyph unicode="&#xf0;" glyph-name="eth" horiz-adv-x="566" d="M279 -12Q226 -12 184 6T112 57T66 139T50 249Q50 309 65 357T110 440T179 492T270 510Q316 510 351 492T411 440L415 442Q395 499 363 552T285 652L187 582L164 612L257 679Q204 726 141 758H209Q228
748 249 735T292 704L384 770L408 740L323 679Q358 648 391 607T451 515T493 401T509 264Q509 127 447 58T279 -12ZM280 27Q352 27 396 74T441 213V285Q441 376 396 423T279 471Q207 471 163 424T118 285V213Q118 122 163 75T280 27Z" />
<glyph unicode="&#xf1;" glyph-name="ntilde" horiz-adv-x="629" d="M46 36H125V461L46 472V499L185 522V432H189Q195 449 208 465T240 495T284 516T343 524Q435 524 476 476T517 331V36H596V0H376V36H455V325Q455 481 322 481Q296 481 272 474T229 453T199 417T187
367V36H266V0H46V36ZM391 621Q373 621 355 629T317 649Q298 660 280 668T247 677Q231 677 220 670T190 644L174 661Q197 688 216 704T263 720Q281 720 299 712T337 692Q356 681 374 673T407 664Q423 664 434 671T464 697L480 680Q457 652 438 637T391 621Z" />
<glyph unicode="&#xf2;" glyph-name="ograve" horiz-adv-x="564" d="M282 27Q363 27 403 78T443 212V300Q443 382 403 433T282 485Q201 485 161 434T121 300V212Q121 130 161 79T282 27ZM282 -12Q229 -12 187 6T114 58T68 143T51 256Q51 319 67 368T114 452T186
505T282 524Q335 524 377 506T450 453T496 369T513 256Q513 193 497 143T450 59T378 6T282 -12ZM426 738L485 768L572 598L550 586L426 738Z" />
<glyph unicode="&#xf3;" glyph-name="oacute" horiz-adv-x="564" d="M282 27Q363 27 403 78T443 212V300Q443 382 403 433T282 485Q201 485 161 434T121 300V212Q121 130 161 79T282 27ZM282 -12Q229 -12 187 6T114 58T68 143T51 256Q51 319 67 368T114 452T186
505T282 524Q335 524 377 506T450 453T496 369T513 256Q513 193 497 143T450 59T378 6T282 -12ZM506 598L593 768L651 738L528 586L506 598Z" />
<glyph unicode="&#xf4;" glyph-name="ocircumflex" horiz-adv-x="564" d="M282 27Q363 27 403 78T443 212V300Q443 382 403 433T282 485Q201 485 161 434T121 300V212Q121 130 161 79T282 27ZM282 -12Q229 -12 187 6T114 58T68 143T51 256Q51 319 67 368T114 452T186
505T282 524Q335 524 377 506T450 453T496 369T513 256Q513 193 497 143T450 59T378 6T282 -12ZM392 613L516 756H562L686 613L666 599L539 705L412 599L392 613Z" />
<glyph unicode="&#xf5;" glyph-name="otilde" horiz-adv-x="564" d="M282 27Q363 27 403 78T443 212V300Q443 382 403 433T282 485Q201 485 161 434T121 300V212Q121 130 161 79T282 27ZM282 -12Q229 -12 187 6T114 58T68 143T51 256Q51 319 67 368T114 452T186
505T282 524Q335 524 377 506T450 453T496 369T513 256Q513 193 497 143T450 59T378 6T282 -12ZM603 621Q585 621 567 629T529 649Q510 660 492 668T459 677Q443 677 432 670T402 644L386 661Q409 688 428 704T475 720Q493 720 511 712T549 692Q568 681 586 673T619
664Q635 664 646 671T676 697L692 680Q669 652 650 637T603 621Z" />
<glyph unicode="&#xf6;" glyph-name="odieresis" horiz-adv-x="564" d="M282 27Q363 27 403 78T443 212V300Q443 382 403 433T282 485Q201 485 161 434T121 300V212Q121 130 161 79T282 27ZM282 -12Q229 -12 187 6T114 58T68 143T51 256Q51 319 67 368T114 452T186
505T282 524Q335 524 377 506T450 453T496 369T513 256Q513 193 497 143T450 59T378 6T282 -12ZM448 626Q428 626 418 638T407 666V670Q407 686 417 698T448 710Q468 710 478 698T489 670V666Q489 650 479 638T448 626ZM630 626Q610 626 600 638T589 666V670Q589
686 599 698T630 710Q650 710 660 698T671 670V666Q671 650 661 638T630 626Z" />
<glyph unicode="&#xf7;" glyph-name="divide" horiz-adv-x="600" d="M300 71Q276 71 263 84T249 118V125Q249 145 262 158T300 172Q324 172 337 159T351 125V118Q351 98 338 85T300 71ZM300 439Q276 439 263 452T249 486V492Q249 512 262 525T300 539Q324 539
337 526T351 492V486Q351 466 338 453T300 439ZM65 326H535V284H65V326Z" />
<glyph unicode="&#xf8;" glyph-name="oslash" horiz-adv-x="564" d="M45 -15L108 65Q81 100 66 148T51 256Q51 319 67 368T114 452T186 505T282 524Q373 524 431 472L491 548L519 527L456 447Q483 412 498 364T513 256Q513 193 497 143T450 59T378 6T282 -12Q191
-12 133 40L73 -36L45 -15ZM402 434Q382 458 352 471T282 485Q201 485 161 434T121 300V212Q121 150 143 107L402 434ZM282 27Q363 27 403 78T443 212V300Q443 362 421 405L162 78Q182 54 212 41T282 27Z" />
<glyph unicode="&#xf9;" glyph-name="ugrave" horiz-adv-x="611" d="M281 -12Q189 -12 148 36T107 182V461L28 472V499L169 522V188Q169 31 302 31Q327 31 351 38T395 59T425 95T437 145V461L358 472V499L499 522V51L578 40V13L439 -10V80H435Q429 63 417 47T385
17T340 -4T281 -12ZM435 738L494 768L581 598L559 586L435 738Z" />
<glyph unicode="&#xfa;" glyph-name="uacute" horiz-adv-x="611" d="M281 -12Q189 -12 148 36T107 182V461L28 472V499L169 522V188Q169 31 302 31Q327 31 351 38T395 59T425 95T437 145V461L358 472V499L499 522V51L578 40V13L439 -10V80H435Q429 63 417 47T385
17T340 -4T281 -12ZM515 598L602 768L660 738L537 586L515 598Z" />
<glyph unicode="&#xfb;" glyph-name="ucircumflex" horiz-adv-x="611" d="M281 -12Q189 -12 148 36T107 182V461L28 472V499L169 522V188Q169 31 302 31Q327 31 351 38T395 59T425 95T437 145V461L358 472V499L499 522V51L578 40V13L439 -10V80H435Q429 63 417
47T385 17T340 -4T281 -12ZM401 613L525 756H571L695 613L675 599L548 705L421 599L401 613Z" />
<glyph unicode="&#xfc;" glyph-name="udieresis" horiz-adv-x="611" d="M281 -12Q189 -12 148 36T107 182V461L28 472V499L169 522V188Q169 31 302 31Q327 31 351 38T395 59T425 95T437 145V461L358 472V499L499 522V51L578 40V13L439 -10V80H435Q429 63 417 47T385
17T340 -4T281 -12ZM457 626Q437 626 427 638T416 666V670Q416 686 426 698T457 710Q477 710 487 698T498 670V666Q498 650 488 638T457 626ZM639 626Q619 626 609 638T598 666V670Q598 686 608 698T639 710Q659 710 669 698T680 670V666Q680 650 670 638T639 626Z"
/>
<glyph unicode="&#xfd;" glyph-name="yacute" horiz-adv-x="533" d="M118 -212Q72 -212 51 -193T30 -144Q30 -123 41 -110T75 -97Q95 -97 105 -108T116 -139Q116 -153 109 -162T91 -176V-178Q102 -182 120 -182Q151 -182 177 -157T224 -76L247 -15L57 476H5V512H208V476H124L277
69H280L429 476H345V512H527V476H475L259 -83Q236 -143 202 -177T118 -212ZM500 598L587 768L645 738L522 586L500 598Z" />
<glyph unicode="&#xfe;" glyph-name="thorn" horiz-adv-x="594" d="M23 -164H102V707L23 718V745L164 768V432H168Q185 469 223 496T326 524Q425 524 482 456T540 256Q540 124 483 56T326 -12Q262 -12 223 15T168 80H164V-164H263V-200H23V-164ZM310 31Q388 31
430 82T472 221V292Q472 379 430 430T310 481Q282 481 256 473T210 450T177 414T164 366V146Q164 119 176 98T209 62T256 39T310 31Z" />
<glyph unicode="&#xff;" glyph-name="ydieresis" horiz-adv-x="533" d="M118 -212Q72 -212 51 -193T30 -144Q30 -123 41 -110T75 -97Q95 -97 105 -108T116 -139Q116 -153 109 -162T91 -176V-178Q102 -182 120 -182Q151 -182 177 -157T224 -76L247 -15L57 476H5V512H208V476H124L277
69H280L429 476H345V512H527V476H475L259 -83Q236 -143 202 -177T118 -212ZM442 626Q422 626 412 638T401 666V670Q401 686 411 698T442 710Q462 710 472 698T483 670V666Q483 650 473 638T442 626ZM624 626Q604 626 594 638T583 666V670Q583 686 593 698T624 710Q644
710 654 698T665 670V666Q665 650 655 638T624 626Z" />
<glyph unicode="&#x2013;" glyph-name="endash" horiz-adv-x="594" d="M33 325H561V283H33V325Z" />
<glyph unicode="&#x2014;" glyph-name="emdash" horiz-adv-x="791" d="M33 325H758V283H33V325Z" />
<glyph unicode="&#x2018;" glyph-name="quoteleft" horiz-adv-x="258" d="M129 506Q106 506 92 521T78 559V566Q78 588 85 612T105 659T135 703T172 740H212Q140 672 129 610H132Q155 610 167 596T180 561V557Q180 535 166 521T129 506Z" />
<glyph unicode="&#x2019;" glyph-name="quoteright" horiz-adv-x="258" d="M46 506Q118 574 129 636H126Q103 636 91 650T78 685V689Q78 711 92 725T129 740Q152 740 166 725T180 687V680Q180 658 173 634T153 587T123 543T86 506H46V506Z" />
<glyph unicode="&#x201a;" glyph-name="quotesinglbase" horiz-adv-x="258" d="M46 -127Q118 -59 129 3H126Q103 3 91 17T78 52V56Q78 78 92 92T129 107Q152 107 166 92T180 54V47Q180 25 173 1T153 -46T123 -90T86 -127H46V-127Z" />
<glyph unicode="&#x201c;" glyph-name="quotedblleft" horiz-adv-x="441" d="M129 506Q106 506 92 521T78 559V566Q78 588 85 612T105 659T135 703T172 740H212Q140 672 129 610H132Q155 610 167 596T180 561V557Q180 535 166 521T129 506ZM312 506Q289 506 275
521T261 559V566Q261 588 268 612T288 659T318 703T355 740H395Q323 672 312 610H315Q338 610 350 596T363 561V557Q363 535 349 521T312 506Z" />
<glyph unicode="&#x201d;" glyph-name="quotedblright" horiz-adv-x="441" d="M46 506Q118 574 129 636H126Q103 636 91 650T78 685V689Q78 711 92 725T129 740Q152 740 166 725T180 687V680Q180 658 173 634T153 587T123 543T86 506H46V506ZM229 506Q301 574
312 636H309Q286 636 274 650T261 685V689Q261 711 275 725T312 740Q335 740 349 725T363 687V680Q363 658 356 634T336 587T306 543T269 506H229V506Z" />
<glyph unicode="&#x201e;" glyph-name="quotedblbase" horiz-adv-x="441" d="M46 -127Q118 -59 129 3H126Q103 3 91 17T78 52V56Q78 78 92 92T129 107Q152 107 166 92T180 54V47Q180 25 173 1T153 -46T123 -90T86 -127H46V-127ZM231 -127Q303 -59 314 3H311Q288
3 276 17T263 52V56Q263 78 277 92T314 107Q337 107 351 92T365 54V47Q365 25 358 1T338 -46T308 -90T271 -127H231V-127Z" />
<glyph unicode="&#x2022;" glyph-name="bullet" horiz-adv-x="388" d="M194 196Q144 196 115 225T86 300V308Q86 353 115 382T194 412Q244 412 273 383T302 308V300Q302 255 273 226T194 196Z" />
<glyph unicode="&#x2039;" glyph-name="guilsinglleft" horiz-adv-x="304" d="M35 269V307L230 486L246 462L101 288L246 114L230 90L35 269Z" />
<glyph unicode="&#x203a;" glyph-name="guilsinglright" horiz-adv-x="304" d="M58 114L203 288L58 462L74 486L269 307V269L74 90L58 114Z" />
</font>
</defs>
</svg>
