<?xml version="1.0" standalone="no"?>
<!DOCTYPE svg PUBLIC "-//W3C//DTD SVG 1.1//EN" "http://www.w3.org/Graphics/SVG/1.1/DTD/svg11.dtd">
<svg xmlns="http://www.w3.org/2000/svg">
<defs >
<font id="IBMPlexSerif" horiz-adv-x="606" ><font-face
    font-family="IBM Plex Serif"
    units-per-em="1000"
    panose-1="2 6 8 3 5 4 6 0 2 3"
    ascent="1025"
    descent="-275"
    alphabetic="0" />
<glyph unicode=" " glyph-name="space" horiz-adv-x="212" />
<glyph unicode="!" glyph-name="exclam" horiz-adv-x="296" d="M134 553L170 698H342L306 553L174 222H104L134 553ZM92 -12Q53 -12 31 10T8 63Q8 78 11 90Q19 125 46 146T114 168Q153 168 175 146T198 93Q198 78 195 66Q187 31 160 10T92 -12Z" />
<glyph unicode="&quot;" glyph-name="quotedbl" horiz-adv-x="449" d="M148 621L178 740H298L268 621L177 413H135L148 621ZM361 621L391 740H511L481 621L390 413H348L361 621Z" />
<glyph unicode="#" glyph-name="numbersign" horiz-adv-x="567" d="M312 186H170L96 0H7L81 186H-6L14 263H112L181 435H94L114 512H212L286 698H375L301 512H443L517 698H606L532 512H619L599 435H501L432 263H519L499 186H401L327 0H238L312 186ZM343 263L412
435H270L201 263H343Z" />
<glyph unicode="$" glyph-name="dollar" horiz-adv-x="562" d="M186 -1Q157 1 128 8T76 30T38 66T23 119Q23 137 29 154T45 185T71 207T107 216Q137 216 152 197T168 154Q168 128 151 105T99 77V68Q120 62 145 59T201 55L258 285L254 286Q178 306 144 349T109
464Q109 509 125 550T173 624T252 677T362 701L382 780H440L419 700Q446 697 472 689T520 667T554 632T568 580Q568 562 562 545T546 514T519 492T484 483Q454 483 439 502T423 545Q423 571 440 594T492 622V631Q472 636 452 639T405 644L348 418L357 416Q438 394
473 354T509 249Q509 200 491 156T440 78T357 23T244 -2L224 -82H166L186 -1ZM381 196Q381 245 311 270L259 60Q314 74 347 112T381 196ZM229 519Q229 493 241 471T295 433L347 640Q317 635 295 623T259 594T237 558T229 519Z" />
<glyph unicode="%" glyph-name="percent" horiz-adv-x="863" d="M719 698H803L188 0H105L719 698ZM237 314Q178 314 140 344T101 442Q101 473 111 519T146 607T214 680T323 710Q382 710 420 680T459 582Q459 551 449 505T414 417T346 344T237 314ZM247 368Q290
368 310 447Q321 491 328 520T340 569T346 598T348 615Q348 638 338 647T313 656Q270 656 250 577Q238 528 231 498T219 450T214 424T212 409Q212 386 222 377T247 368ZM584 -12Q525 -12 487 18T448 116Q448 147 458 193T493 281T561 354T670 384Q729 384 767 354T806
256Q806 225 796 179T761 91T693 18T584 -12ZM594 42Q637 42 657 121Q668 165 675 194T687 243T693 272T695 289Q695 312 685 321T660 330Q617 330 597 251Q585 202 578 172T566 124T561 98T559 83Q559 60 569 51T594 42Z" />
<glyph unicode="&amp;" glyph-name="ampersand" horiz-adv-x="704" d="M213 -12Q168 -12 128 -4T59 24T12 73T-5 148Q-5 194 14 230T65 294T139 344T229 385L224 396Q216 413 209 427T197 456T188 484T185 517Q185 565 206 601T262 662T341 698T430 710Q479 710
512 701T567 677T597 640T606 595Q606 554 585 524T531 470T460 429T387 398L486 207Q506 233 524 263T554 327H497L513 391H705L689 327H632Q614 273 585 226T521 138L539 104Q551 81 576 72T636 63L621 0H500Q439 0 410 39Q367 15 320 2T213 -12ZM268 62Q296
62 323 71T378 97L257 332Q227 306 208 275T182 218Q177 200 173 181T168 147Q168 105 195 84T268 62ZM338 534Q338 510 343 491T362 446Q397 466 423 492T458 554Q459 557 460 563T462 577T464 591T465 600Q465 623 453 634T419 645Q393 645 373 630T345 581Q342
568 340 557T338 534Z" />
<glyph unicode="&apos;" glyph-name="quotesingle" horiz-adv-x="236" d="M148 621L178 740H298L268 621L177 413H135L148 621Z" />
<glyph unicode="(" glyph-name="parenleft" horiz-adv-x="332" d="M451 726Q407 696 370 654T303 562T250 455T212 337L194 264Q185 226 179 188T173 105Q173 81 175 53T185 -3T206 -59T241 -109L192 -156Q156 -134 126 -103T75 -29T41 66T28 184Q28 285 65 388Q87
449 122 506T202 614T303 707T421 780L451 726Z" />
<glyph unicode=")" glyph-name="parenright" horiz-adv-x="332" d="M-94 -102Q-51 -72 -14 -30T54 62T107 169T145 287L163 360Q172 398 178 436T184 519Q184 543 181 571T171 627T150 683T116 733L165 780Q201 758 231 727T282 653T316 558T329 440Q329 339 292
236Q269 175 235 118T155 10T54 -83T-64 -156L-94 -102Z" />
<glyph unicode="*" glyph-name="asterisk" horiz-adv-x="566" d="M331 684L346 747H470L455 684L385 557H337L331 684ZM156 512L100 531L162 637L217 618L313 542L291 505L156 512ZM403 542L529 618L594 637L605 523L541 504L406 501L403 542ZM253 332L204 281L117
353L166 404L293 483L327 456L253 332ZM393 479L484 395L508 343L394 279L370 331L354 456L393 479Z" />
<glyph unicode="+" glyph-name="plus" horiz-adv-x="550" d="M229 265H62L83 346H250L297 534H390L343 346H510L489 265H322L274 76H181L229 265Z" />
<glyph unicode="," glyph-name="comma" horiz-adv-x="286" d="M-72 -147Q18 -82 64 -9Q35 -1 19 18T2 63Q2 76 5 90Q13 125 40 146T108 168Q147 168 169 145T192 89Q192 74 189 62Q181 30 163 0T122 -56T71 -106T18 -147H-72Z" />
<glyph unicode="-" glyph-name="hyphen" horiz-adv-x="374" d="M45 254L71 356H350L324 254H45Z" />
<glyph unicode="." glyph-name="period" horiz-adv-x="284" d="M86 -12Q47 -12 24 10T1 63Q1 78 4 90Q12 125 39 146T107 168Q146 168 168 146T191 93Q191 78 188 66Q180 31 154 10T86 -12Z" />
<glyph unicode="/" glyph-name="slash" horiz-adv-x="420" d="M-101 -151L398 740H508L9 -151H-101Z" />
<glyph unicode="0" glyph-name="zero" horiz-adv-x="550" d="M214 -12Q172 -12 138 -1T80 36T42 100T29 195Q29 215 34 261T52 364T90 483T152 594T245 677T375 710Q417 710 451 699T509 662T547 598T560 503Q560 483 555 437T537 334T499 215T437 104T344 21T214
-12ZM222 56Q248 56 265 70T295 113T318 182T342 276Q375 408 393 483T412 594Q412 614 402 628T367 642Q341 642 324 628T294 585T271 515T247 422Q214 290 196 215T177 104Q177 84 187 70T222 56Z" />
<glyph unicode="1" glyph-name="one" horiz-adv-x="550" d="M25 63H167L297 584L134 530L119 586L366 698H490L331 63H462L447 0H10L25 63Z" />
<glyph unicode="2" glyph-name="two" horiz-adv-x="550" d="M-8 107L215 307Q268 354 307 400T362 506Q363 509 365 517T369 537T373 560T375 581Q375 616 357 633T303 651Q280 651 263 648T228 640L225 632Q247 628 259 613T272 576Q272 543 249 518T183 493Q155
493 135 509T114 562Q114 588 128 614T172 662T244 696T343 710Q398 710 436 699T498 667T533 620T544 561Q544 507 522 464T466 386T389 320T307 262L116 127L113 116H384L408 209H481L429 0H-34L-8 107Z" />
<glyph unicode="3" glyph-name="three" horiz-adv-x="550" d="M184 -12Q134 -12 98 -2T38 25T4 64T-7 110Q-7 134 1 152T22 182T53 201T87 207Q124 207 140 189T156 146Q156 127 150 113T132 90T107 76T78 70L75 62Q109 48 157 48Q217 48 250 75T299 164Q300 168
302 177T307 199T312 223T314 247Q314 291 288 310T210 329H160L178 401H229Q264 401 290 409T333 431T362 464T378 505Q379 508 380 515T384 533T387 553T389 572Q389 594 383 609T365 634T340 647T311 651Q286 651 269 648T237 640L234 632Q258 627 269 611T281
576Q281 539 257 517T193 494Q165 494 144 510T123 561Q123 588 138 614T182 662T255 696T358 710Q455 710 509 678T563 573Q563 526 543 491T490 432T417 393T336 373L334 365Q405 357 446 323T487 230Q487 200 474 158T427 79T334 15T184 -12Z" />
<glyph unicode="4" glyph-name="four" horiz-adv-x="550" d="M242 155H-9L16 252L349 698H535L427 261H518L491 155H400L362 0H203L242 155ZM268 261L351 593H341L102 261H268Z" />
<glyph unicode="5" glyph-name="five" horiz-adv-x="550" d="M182 -12Q131 -12 97 -1T42 27T12 66T3 110Q3 134 11 152T32 182T63 201T97 207Q134 207 150 189T166 146Q166 110 143 91T88 69L85 61Q99 55 118 51T160 47Q212 47 250 81T306 191Q307 194 309 203T314
224T319 250T321 276Q321 316 300 332T249 348Q219 348 189 331T141 290L76 305L199 698H576L544 571H226L154 341H165Q175 358 189 374T224 404T272 425T334 433Q368 433 397 425T448 399T482 354T494 288Q494 224 472 170T410 75T311 11T182 -12Z" />
<glyph unicode="6" glyph-name="six" horiz-adv-x="550" d="M210 -12Q169 -12 135 -1T75 34T35 94T20 181Q20 233 34 290T76 404T148 512T249 605T381 674T545 710L548 649Q420 618 339 544T221 357L231 355Q239 374 252 391T285 422T330 444T385 453Q448 453
482 417T516 313Q516 240 494 180T431 78T334 12T210 -12ZM224 56Q246 56 261 66T288 94T308 139T325 198Q326 201 329 214T336 244T343 279T346 309Q346 334 332 348T293 362Q270 362 255 352T228 324T209 279T192 220Q191 217 188 204T181 174T174 139T171 109Q171
84 185 70T224 56Z" />
<glyph unicode="7" glyph-name="seven" horiz-adv-x="550" d="M472 570H192L161 444H88L151 698H605L577 587L241 0H73L472 570Z" />
<glyph unicode="8" glyph-name="eight" horiz-adv-x="550" d="M210 -12Q104 -12 53 30T2 143Q2 188 18 225T62 291T131 337T219 360L221 368Q201 371 181 381T145 407T118 447T107 501Q107 546 125 584T178 650T263 694T377 710Q432 710 469 699T530 669T564 625T574
570Q574 526 558 491T514 430T451 388T377 368L375 360Q401 356 424 346T464 320T492 279T503 224Q503 189 488 148T439 71T349 12T210 -12ZM222 53Q269 53 289 88T323 183Q324 186 327 198T333 227T339 258T342 283Q342 304 329 319T287 334Q240 334 220 299T186
204Q185 201 182 189T176 160T170 129T167 104Q167 83 180 68T222 53ZM309 397Q330 397 343 404T364 427T379 463T393 514Q399 538 402 553T408 577T410 593T411 605Q411 624 399 634T365 645Q344 645 331 638T310 615T295 578T281 528Q275 504 272 489T266 465T264
449T263 437Q263 418 275 408T309 397Z" />
<glyph unicode="9" glyph-name="nine" horiz-adv-x="550" d="M41 49Q169 80 250 154T368 341L358 343Q350 324 337 307T304 276T259 254T204 245Q141 245 107 281T73 385Q73 458 95 517T158 620T255 686T379 710Q420 710 454 699T514 664T554 604T569 517Q569
465 555 408T513 294T441 186T340 93T207 23T44 -12L41 49ZM296 336Q318 336 333 346T360 374T380 419T397 478Q398 481 401 494T408 524T415 559T418 589Q418 614 404 628T365 642Q342 642 327 632T300 604T281 559T264 500Q263 497 260 484T253 454T246 419T243
389Q243 364 257 350T296 336Z" />
<glyph unicode=":" glyph-name="colon" horiz-adv-x="284" d="M96 -12Q57 -12 34 10T11 63Q11 78 14 90Q22 125 49 146T117 168Q156 168 178 146T201 93Q201 78 198 66Q190 31 164 10T96 -12ZM189 362Q150 362 127 384T104 437Q104 452 107 464Q115 499 142 520T210
542Q249 542 271 520T294 467Q294 452 291 440Q283 405 257 384T189 362Z" />
<glyph unicode=";" glyph-name="semicolon" horiz-adv-x="284" d="M189 361Q150 361 127 383T104 436Q104 451 107 463Q115 498 142 519T210 541Q249 541 271 519T294 466Q294 451 291 439Q283 404 257 383T189 361ZM-64 -147Q26 -82 72 -9Q43 -1 27 18T10 63Q10
76 13 90Q21 125 48 146T116 168Q155 168 177 145T200 89Q200 74 197 62Q189 30 171 0T130 -56T79 -106T26 -147H-64Z" />
<glyph unicode="&lt;" glyph-name="less" horiz-adv-x="550" d="M85 229L106 311L515 546L490 442L210 268L207 256L400 79L377 -12L85 229Z" />
<glyph unicode="=" glyph-name="equal" horiz-adv-x="550" d="M90 378L111 459H538L517 378H90ZM34 152L55 233H482L461 152H34Z" />
<glyph unicode="&gt;" glyph-name="greater" horiz-adv-x="550" d="M63 92L343 266L346 278L153 455L176 546L468 305L447 223L38 -12L63 92Z" />
<glyph unicode="?" glyph-name="question" horiz-adv-x="476" d="M171 386Q242 390 284 420T345 522Q348 534 351 550T355 581Q355 614 334 632T279 651Q262 651 243 649T208 640L205 632Q228 627 240 612T252 577Q252 543 229 519T166 494Q134 494 114 511T94
561Q94 591 111 618T160 665T235 698T331 710Q384 710 421 700T483 672T518 628T529 571Q529 511 504 465T437 386T341 336T228 312L209 234H133L171 386ZM123 -12Q84 -12 62 10T39 63Q39 78 42 90Q50 125 77 146T145 168Q184 168 206 146T229 93Q229 78 226 66Q218
31 191 10T123 -12Z" />
<glyph unicode="@" glyph-name="at" horiz-adv-x="842" d="M378 148Q397 148 415 168T450 217T478 279T496 338L502 365Q510 398 505 417T471 436Q444 436 420 412T377 325Q372 308 368 289T361 251T356 215T354 185Q354 168 359 158T378 148ZM527 -109Q482 -113
440 -117T348 -121Q282 -121 228 -103T136 -50T76 39T55 162Q55 225 69 290T110 416T178 530T270 623T387 686T527 709Q592 709 645 692T735 643T792 563T812 454Q812 373 792 303T738 181T661 99T572 69Q516 69 493 94T470 159Q470 165 470 171T472 184L463 186Q452
163 440 142T412 105T376 79T329 69Q281 69 261 101T240 190Q240 242 254 298T295 401T358 478T442 509Q476 509 500 491T532 427H541L593 501H651L571 174Q567 159 567 146Q567 120 592 120Q628 120 659 174T714 324Q719 342 726 378T734 457Q734 559 684 613T525
668Q456 668 398 640T292 563T211 448T158 306Q156 300 152 285T144 250T136 205T132 157Q132 103 149 61T196 -11T267 -56T359 -71H536L527 -109Z" />
<glyph unicode="A" glyph-name="A" horiz-adv-x="665" d="M-53 0L-38 63H8L370 698H508L559 63H605L590 0H316L331 63H399L392 216H179L97 63H165L150 0H-53ZM371 585L213 281H389L380 585H371Z" />
<glyph unicode="B" glyph-name="B" horiz-adv-x="657" d="M-33 0L-18 63H44L188 635H126L142 698H464Q519 698 557 689T619 662T653 621T664 565Q664 484 613 436T477 371L475 362Q500 357 523 346T565 318T595 277T607 222Q607 180 591 141T541 70T455 19T331
0H-33ZM296 67Q345 67 382 94T433 179Q438 201 441 214T445 235T447 248T448 256Q448 286 430 305T370 325H274L209 67H296ZM357 393Q405 393 438 421T486 503Q491 523 494 535T498 555T500 567T501 575Q501 601 484 616T429 631H350L291 393H357Z" />
<glyph unicode="C" glyph-name="C" horiz-adv-x="609" d="M553 173Q530 136 501 103T437 44T360 3T273 -12Q228 -12 187 1T115 43T65 120T46 237Q46 290 57 346T91 454T145 553T219 635T311 690T421 710Q472 710 500 689T538 639H550L565 698H682L626 473H509L519
512Q524 532 524 550Q524 594 498 615T433 636Q373 636 333 591T274 469Q256 397 245 351T226 276T217 227T214 189Q214 138 240 104T320 70Q353 70 380 80T429 107T471 149T509 202L553 173V173Z" />
<glyph unicode="D" glyph-name="D" horiz-adv-x="699" d="M-18 63H44L187 635H125L141 698H437Q504 698 552 678T630 623T675 544T689 451Q689 370 662 289T583 144T454 40T278 0H-33L-18 63ZM253 67Q300 67 335 78T397 115T442 180T475 276Q494 354 505 399T522
471T528 510T530 535Q530 591 498 611T405 632H351L209 67H253Z" />
<glyph unicode="E" glyph-name="E" horiz-adv-x="609" d="M386 332H275L209 67H395L431 209H548L496 0H-33L-18 63H44L187 635H125L141 698H662L615 510H498L529 631H350L292 399H403L418 461H490L442 270H370L386 332Z" />
<glyph unicode="F" glyph-name="F" horiz-adv-x="579" d="M-18 63H44L187 635H125L141 698H662L615 510H498L529 631H350L289 386H400L415 448H487L439 257H367L383 319H272L208 63H298L283 0H-33L-18 63Z" />
<glyph unicode="G" glyph-name="G" horiz-adv-x="714" d="M481 99H470Q459 80 441 60T397 24T340 -2T273 -12Q168 -12 107 50T46 234Q46 321 73 406T153 558T278 668T444 710Q502 710 535 690T579 639H591L606 698H723L667 473H550L560 511Q562 520 564 529T566
550Q566 592 538 616T459 640Q390 640 341 590T268 447Q249 372 237 326T218 250T209 201T206 162Q206 117 231 89T303 60Q326 60 349 69T391 96T426 137T448 190L472 287H384L400 350H697L681 287H636L565 0H510L481 99Z" />
<glyph unicode="H" glyph-name="H" horiz-adv-x="736" d="M351 0L366 63H428L493 324H273L208 63H270L255 0H-33L-18 63H44L187 635H125L141 698H429L413 635H351L291 393H511L571 635H509L525 698H813L797 635H735L592 63H654L639 0H351Z" />
<glyph unicode="I" glyph-name="I" horiz-adv-x="352" d="M-33 0L-18 63H44L187 635H125L141 698H429L413 635H351L208 63H270L255 0H-33Z" />
<glyph unicode="J" glyph-name="J" horiz-adv-x="474" d="M61 53Q69 50 78 49T97 47Q134 47 158 75T196 156L315 635H225L241 698H557L541 635H479L370 197Q358 149 338 111T287 45T213 3T110 -12Q79 -12 53 -4T7 18T-24 51T-35 94Q-35 109 -30 124T-14 152T12
171T48 179Q79 179 96 165T114 122Q114 94 98 78T61 58V53V53Z" />
<glyph unicode="K" glyph-name="K" horiz-adv-x="717" d="M345 0L360 63H422L352 336L254 245L208 63H270L255 0H-33L-18 63H44L187 635H125L141 698H429L413 635H351L280 349H288L409 462L591 635H519L535 698H778L762 635H700L484 437L599 63H661L646 0H345Z" />
<glyph unicode="L" glyph-name="L" horiz-adv-x="559" d="M351 635L209 67H364L400 209H517L465 0H-33L-18 63H44L187 635H125L141 698H429L413 635H351Z" />
<glyph unicode="M" glyph-name="M" horiz-adv-x="833" d="M894 635H832L689 63H751L736 0H448L463 63H525L655 580H645L558 448L340 116L278 450L260 578H250L121 63H183L168 0H-33L-18 63H44L187 635H125L141 698H393L440 388H449L648 698H910L894 635Z" />
<glyph unicode="N" glyph-name="N" horiz-adv-x="715" d="M-18 63H44L187 635H125L141 698H400L515 194H526L636 635H574L589 698H791L776 635H714L555 0H409L261 583H251L121 63H183L168 0H-33L-18 63Z" />
<glyph unicode="O" glyph-name="O" horiz-adv-x="705" d="M294 -12Q234 -12 188 6T110 58T63 140T47 248Q47 326 73 407T151 556T276 667T447 710Q507 710 553 692T631 640T678 558T694 450Q694 372 668 291T590 142T465 31T294 -12ZM308 56Q366 56 405 95T460
198Q484 292 498 349T521 442T532 497T535 538Q535 583 509 612T433 642Q375 642 336 603T281 500Q257 405 243 348T220 256T209 200T206 160Q206 115 232 86T308 56Z" />
<glyph unicode="P" glyph-name="P" horiz-adv-x="629" d="M500 698Q539 698 571 691T627 669T663 628T676 566Q676 520 661 475T615 393T533 333T413 310H270L208 63H298L283 0H-33L-18 63H44L187 635H125L141 698H500ZM287 378H370Q418 378 448 403T493 483Q495
491 498 503T504 528T509 552T511 570Q511 599 492 615T432 631H350L287 378Z" />
<glyph unicode="Q" glyph-name="Q" horiz-adv-x="705" d="M360 -182Q309 -182 281 -161T232 -87L199 2Q124 27 86 90T47 248Q47 326 73 407T151 556T276 667T447 710Q507 710 553 692T631 640T678 558T694 450Q694 380 673 306T610 169T508 58T368 -5L404 -83Q414
-104 434 -113T476 -123H495L480 -182H360ZM308 56Q366 56 405 95T460 198Q484 292 498 349T521 442T532 497T535 538Q535 583 509 612T433 642Q375 642 336 603T281 500Q257 405 243 348T220 256T209 200T206 160Q206 115 232 86T308 56Z" />
<glyph unicode="R" glyph-name="R" horiz-adv-x="685" d="M-18 63H44L187 635H125L141 698H500Q539 698 571 691T627 669T663 628T676 566Q676 518 662 479T623 409T561 357T482 327L542 124Q552 90 572 77T621 63H626L611 0H512Q478 0 455 5T416 22T391 52T376
98L332 315H271L208 63H270L255 0H-33L-18 63ZM369 378Q418 378 448 403T493 484Q495 492 498 504T504 528T509 552T511 570Q511 599 492 615T432 631H350L287 378H369Z" />
<glyph unicode="S" glyph-name="S" horiz-adv-x="584" d="M243 58Q280 58 308 68T356 97T386 138T396 186Q396 215 378 234T308 268L270 278Q104 321 104 459Q104 511 123 557T177 637T262 690T375 710Q433 710 462 688T494 641H506L520 698H637L586 493H469L481
540Q485 556 485 567Q485 605 455 622T373 640Q341 640 316 630T272 604T245 568T235 525Q235 510 238 497T252 473T282 452T334 433L371 423Q458 400 496 357T534 249Q534 194 515 147T460 64T370 8T250 -12Q192 -12 160 8T121 58H108L94 0H-23L28 205H145L134
160Q130 144 130 132Q130 94 160 76T243 58Z" />
<glyph unicode="T" glyph-name="T" horiz-adv-x="687" d="M121 63H211L353 631H231L200 510H83L130 698H773L726 510H609L640 631H518L376 63H466L451 0H106L121 63Z" />
<glyph unicode="U" glyph-name="U" horiz-adv-x="707" d="M351 635L255 250Q241 197 241 159Q241 112 267 88T350 63Q425 63 470 112T544 272L634 635H572L588 698H789L773 635H711L618 260Q585 128 514 58T321 -12Q206 -12 144 29T82 167Q82 188 86 220T101 291L187
635H125L141 698H429L413 635H351Z" />
<glyph unicode="V" glyph-name="V" horiz-adv-x="640" d="M674 635L331 0H180L149 635H103L119 698H395L379 635H311L313 355L311 109H320L441 356L584 635H516L532 698H736L720 635H674Z" />
<glyph unicode="W" glyph-name="W" horiz-adv-x="974" d="M153 635H107L123 698H400L384 635H316L300 163H309L564 698H700V163H709L918 635H850L866 698H1070L1054 635H1008L705 0H553L554 508H545L302 0H138L153 635Z" />
<glyph unicode="X" glyph-name="X" horiz-adv-x="670" d="M318 63H374L307 270H298L126 63H182L167 0H-38L-23 63H29L279 338L179 635H127L143 698H419L403 635H347L406 446H417L569 635H513L529 698H736L720 635H668L433 377L541 63H593L578 0H303L318 63Z" />
<glyph unicode="Y" glyph-name="Y" horiz-adv-x="654" d="M115 63H195L249 279L155 635H109L125 698H406L390 635H322L386 375H395L586 635H518L534 698H743L727 635H681L420 305L359 63H439L424 0H100L115 63Z" />
<glyph unicode="Z" glyph-name="Z" horiz-adv-x="591" d="M-18 67L456 631H255L224 510H107L154 698H660L643 631L173 67H395L431 209H548L496 0H-34L-18 67Z" />
<glyph unicode="[" glyph-name="bracketleft" horiz-adv-x="339" d="M189 760H434L418 698H315L121 -76H224L208 -138H-37L189 760Z" />
<glyph unicode="\" glyph-name="backslash" horiz-adv-x="420" d="M210 -151L156 740H252L306 -151H210Z" />
<glyph unicode="]" glyph-name="bracketright" horiz-adv-x="339" d="M173 -138H-72L-56 -76H47L241 698H138L154 760H399L173 -138Z" />
<glyph unicode="^" glyph-name="asciicircum" horiz-adv-x="550" d="M433 306L367 599H358L150 306L80 347L329 698H434L517 341L433 306Z" />
<glyph unicode="_" glyph-name="underscore" horiz-adv-x="518" d="M-51 -87H393L372 -170H-71L-51 -87Z" />
<glyph unicode="`" glyph-name="grave" horiz-adv-x="600" d="M197 754L328 805L341 592L301 579L197 754Z" />
<glyph unicode="a" glyph-name="a" horiz-adv-x="603" d="M146 -12Q82 -12 55 30T27 147Q27 189 35 234T59 323T98 406T150 474T215 520T292 537Q314 537 333 532T368 513T395 480T411 430H423L492 525H568L457 80L475 72L561 186L599 164L545 79Q515 31 483 10T417
-12Q391 -12 374 -5T347 14T332 41T328 71Q328 86 331 103T337 131L338 135L326 137Q312 108 296 81T258 34T209 1T146 -12ZM337 459Q304 459 272 421T214 295Q208 276 204 254T195 210T189 168T187 131Q187 110 192 97T215 84Q238 84 262 109T306 170T343 249T366
324L373 356Q384 404 377 431T337 459Z" />
<glyph unicode="b" glyph-name="b" horiz-adv-x="578" d="M285 -12Q241 -12 209 12T166 95H154L85 0H9L174 661H94L110 724L356 770L239 392L251 388Q264 417 281 444T319 491T368 524T431 537Q495 537 522 495T550 378Q550 336 542 291T518 202T479 120T427 52T362
5T285 -12ZM241 67Q274 67 306 105T364 231Q370 250 374 272T383 316T389 358T391 395Q391 416 386 429T363 442Q340 442 316 417T272 356T235 277T212 202L205 170Q194 122 201 95T241 67Z" />
<glyph unicode="c" glyph-name="c" horiz-adv-x="467" d="M191 -12Q108 -12 69 35T29 165Q29 226 46 291T99 411T188 501T312 537Q389 537 429 503T470 418Q470 397 464 377T445 342T416 318T377 309Q346 309 330 330T314 377Q314 404 336 429T400 460V470Q388
479 372 483T339 488Q320 488 305 482T275 457T247 405T219 320Q203 262 196 219T189 148Q189 104 205 87T250 70Q295 70 329 107T399 213L440 196Q417 147 394 109T341 43T275 2T191 -12Z" />
<glyph unicode="d" glyph-name="d" horiz-adv-x="604" d="M146 -12Q82 -12 55 30T27 147Q27 189 35 234T60 323T99 406T151 474T214 520T289 537Q374 537 392 458H404L448 661H368L384 724L630 770L457 80L475 72L561 186L599 164L545 79Q515 31 483 10T417 -12Q391
-12 374 -5T347 14T333 41T328 71Q328 86 331 103T337 131L338 135L326 137Q312 108 296 81T258 34T209 1T146 -12ZM337 459Q304 459 272 421T214 295Q208 276 204 254T195 210T189 168T187 131Q187 110 192 97T215 84Q238 84 262 109T306 170T343 249T366 324L373
356Q384 404 377 431T337 459Z" />
<glyph unicode="e" glyph-name="e" horiz-adv-x="489" d="M191 -12Q108 -12 69 35T29 167Q29 227 46 292T101 411T195 501T332 537Q367 537 396 531T447 511T480 477T492 427Q492 404 481 377T438 325T350 282T203 258Q195 223 192 196T189 148Q189 104 205 87T250
70Q296 70 332 107T403 213L444 196Q422 148 398 110T343 44T276 3T191 -12ZM213 300Q259 307 288 321T335 354T359 395T366 440Q366 483 326 483Q306 483 291 474T264 443T239 386T213 300Z" />
<glyph unicode="f" glyph-name="f" horiz-adv-x="373" d="M-58 -212Q-118 -212 -149 -187T-180 -124Q-180 -97 -161 -75T-108 -53Q-80 -53 -63 -69T-46 -110Q-46 -133 -59 -146T-89 -168L-80 -177Q-49 -177 -28 -161T5 -100L146 459H63L79 525H163L176 577Q189
629 213 665T268 725T337 759T413 770Q474 770 506 745T538 682Q538 653 519 630T463 606Q435 606 418 621T401 662Q401 686 414 702T444 726L435 735Q404 735 383 719T350 658L316 525H423L407 459H300L180 -19Q167 -71 143 -107T87 -167T18 -201T-58 -212Z" />
<glyph unicode="g" glyph-name="g" horiz-adv-x="518" d="M238 189Q224 189 212 191T188 195Q166 190 155 183T144 161Q144 145 156 138T187 124L268 98Q315 83 348 69T401 38T431 1T441 -46Q441 -92 418 -124T354 -175T261 -203T147 -212Q82 -212 39 -204T-31
-181T-68 -149T-79 -109Q-79 -88 -68 -71T-38 -42T8 -19T65 -1L67 11Q41 25 32 43T22 84Q22 130 55 157T133 197L136 209Q106 225 87 254T67 327Q67 377 87 416T143 482T226 523T327 537Q377 537 413 522Q427 571 454 600T521 630Q552 630 569 616T587 575Q587
546 570 526T526 506Q506 506 491 518T471 552H464L445 505Q469 486 483 461T497 399Q497 349 477 310T421 244T338 203T238 189ZM109 -9Q71 -26 47 -47T22 -97Q22 -130 53 -149T162 -169Q192 -169 217 -165T261 -153T290 -132T301 -101Q301 -76 284 -67T235 -48L109
-9ZM253 240Q272 240 285 248T307 269T321 299T332 334Q343 376 349 404T355 444Q355 463 345 474T312 486Q293 486 280 478T258 457T243 427T233 392Q222 350 216 322T210 282Q210 263 220 252T253 240Z" />
<glyph unicode="h" glyph-name="h" horiz-adv-x="608" d="M407 -12Q378 -12 359 -5T329 15T313 43T308 73Q308 86 311 102T317 130L391 395Q394 407 394 416Q394 441 372 441Q352 441 329 419T281 355T235 255T194 124L163 0H9L174 661H94L110 724L356 770L243
383L255 379Q273 413 292 442T333 492T382 525T444 537Q499 537 524 508T549 429Q549 392 535 344L459 80L477 72L563 186L601 164L547 79Q515 29 481 9T407 -12Z" />
<glyph unicode="i" glyph-name="i" horiz-adv-x="340" d="M143 -12Q114 -12 95 -5T65 15T48 43T43 74Q43 86 46 103T52 131L126 428H46L62 491L308 537L193 80L211 72L297 186L335 164L281 79Q263 51 245 34T210 6T175 -8T143 -12ZM255 603Q216 603 195 622T174
671Q174 677 174 684T177 698Q185 732 212 751T276 770Q315 770 336 750T357 701Q357 696 357 689T354 675Q346 641 320 622T255 603Z" />
<glyph unicode="j" glyph-name="j" horiz-adv-x="316" d="M-59 -212Q-120 -212 -150 -192T-181 -136Q-181 -107 -163 -83T-107 -59Q-81 -59 -64 -73T-47 -114Q-47 -131 -57 -146T-87 -172L-77 -182Q-48 -179 -32 -156T-3 -86L127 428H47L63 491L309 537L165 -31Q141
-126 80 -169T-59 -212ZM256 603Q217 603 196 622T175 671Q175 677 175 684T178 698Q186 732 213 751T277 770Q316 770 337 750T358 701Q358 696 358 689T355 675Q347 641 321 622T256 603Z" />
<glyph unicode="k" glyph-name="k" horiz-adv-x="598" d="M408 -12Q367 -12 340 3T298 61L255 218Q297 244 325 271T369 323T391 370T398 407Q398 441 369 441Q347 441 324 419T278 355T234 255T194 124L163 0H9L174 661H94L110 724L356 770L244 383L256 379Q274
413 293 442T334 492T383 525T445 537Q500 537 524 508T549 436Q549 406 538 380T507 330T461 288T404 253L454 76H473L556 186L594 164L539 79Q521 51 505 34T474 6T442 -8T408 -12Z" />
<glyph unicode="l" glyph-name="l" horiz-adv-x="326" d="M129 -12Q100 -12 81 -5T51 15T34 43T29 74Q29 86 32 103T38 131L170 661H90L106 724L352 770L179 80L197 72L283 186L321 164L267 79Q249 51 231 34T196 6T161 -8T129 -12Z" />
<glyph unicode="m" glyph-name="m" horiz-adv-x="897" d="M126 428H46L62 491L291 537L253 383L265 379Q283 413 302 442T342 492T390 525T449 537Q494 537 514 511T534 434Q534 413 531 391L530 383L542 379Q561 413 580 442T621 492T671 525T734 537Q789 537
813 507T838 428Q838 391 824 344L748 80L766 72L852 186L890 164L836 79Q804 29 770 9T696 -12Q667 -12 648 -5T618 15T602 43T597 73Q597 86 600 102T606 130L680 395Q683 407 683 416Q683 441 661 441Q641 441 618 419T570 355T524 255T483 124L452 0H298L396
395Q399 408 399 416Q399 441 378 441Q357 441 334 418T288 354T244 254T204 124L173 0H19L126 428Z" />
<glyph unicode="n" glyph-name="n" horiz-adv-x="618" d="M126 428H46L62 491L291 537L253 383L265 379Q283 413 302 442T343 492T392 525T454 537Q509 537 534 508T559 429Q559 392 545 344L469 80L487 72L573 186L611 164L557 79Q525 29 491 9T417 -12Q388 -12
369 -5T339 15T323 43T318 73Q318 86 321 102T327 130L401 395Q404 407 404 416Q404 441 382 441Q362 441 339 419T291 355T245 255T204 124L173 0H19L126 428Z" />
<glyph unicode="o" glyph-name="o" horiz-adv-x="560" d="M222 -12Q128 -12 80 41T32 186Q32 245 52 307T112 420T208 504T338 537Q432 537 480 484T528 339Q528 280 508 218T448 105T352 21T222 -12ZM229 46Q265 46 287 75T323 153Q342 227 354 274T374 352T383
397T386 422Q386 445 373 462T331 479Q295 479 273 450T237 372Q218 298 206 251T186 173T177 128T174 103Q174 80 187 63T229 46Z" />
<glyph unicode="p" glyph-name="p" horiz-adv-x="590" d="M-12 -139L130 428H50L66 491L289 537L252 390L264 388Q277 417 294 444T332 491T381 524T444 537Q508 537 535 495T563 378Q563 336 555 291T530 202T491 120T439 52T375 5T301 -12Q216 -12 198 67H186L141
-139H227L212 -200H-89L-74 -139H-12ZM255 67Q288 67 320 105T378 231Q384 250 388 272T397 316T403 358T405 395Q405 416 400 429T377 442Q354 442 330 417T286 356T249 277T226 202L219 170Q208 122 215 95T255 67Z" />
<glyph unicode="q" glyph-name="q" horiz-adv-x="579" d="M162 -139H250L338 133L326 137Q312 108 296 81T258 34T209 1T146 -12Q82 -12 55 30T27 147Q27 189 35 234T59 323T98 406T150 474T215 520T292 537Q314 537 333 532T368 513T395 480T411 430H423L492
525H568L402 -139H463L448 -200H147L162 -139ZM337 459Q304 459 272 421T214 295Q208 276 204 254T195 210T189 168T187 131Q187 110 192 97T215 84Q238 84 262 109T306 170T343 249T366 324L373 356Q384 404 377 431T337 459Z" />
<glyph unicode="r" glyph-name="r" horiz-adv-x="489" d="M126 428H46L62 491L284 537L244 377L257 373Q290 458 326 497T419 537Q464 537 488 514T513 451Q513 413 491 385T427 356Q398 356 378 372T358 414Q358 430 364 446T382 473L374 480Q357 475 333 440T279
346Q250 289 232 228T196 95L173 0H19L126 428Z" />
<glyph unicode="s" glyph-name="s" horiz-adv-x="436" d="M114 -12Q40 -12 10 9T-20 67Q-20 81 -15 95T-1 120T23 138T56 145Q84 145 100 129T117 86Q117 71 111 54T94 27L103 16Q153 27 183 54T213 119Q213 138 205 154T183 186T154 215T124 246Q106 267 90 292T74
353Q74 401 94 435T148 492T223 526T311 537Q384 537 414 516T444 458Q444 444 439 430T425 405T401 387T368 380Q340 380 324 396T307 439Q307 454 313 471T330 498L321 509Q274 498 250 469T225 406Q225 386 233 370T255 339T285 310T316 279Q333 261 348 236T364
172Q364 124 342 90T285 33T205 -1T114 -12Z" />
<glyph unicode="t" glyph-name="t" horiz-adv-x="391" d="M77 525H112Q149 525 169 536T210 577L275 670H352L315 525H426L410 459H299L207 88L227 76L338 186L372 159L291 67Q269 42 251 27T216 3T184 -9T152 -12Q123 -12 105 -5T75 15T60 42T55 72Q55 86 58
103T64 131L145 459H61L77 525Z" />
<glyph unicode="u" glyph-name="u" horiz-adv-x="616" d="M146 -12Q91 -12 66 17T41 97Q41 134 55 181L126 428H46L62 491L313 537L199 130Q196 118 196 109Q196 84 218 84Q238 84 261 106T309 170T355 270T396 401L427 525H581L470 80L488 72L574 186L612 164L558
79Q540 51 522 33T487 5T455 -8T424 -12Q398 -12 381 -5T353 15T339 42T335 71Q335 86 338 103T344 131L347 142L335 146Q317 112 298 83T257 33T207 0T146 -12Z" />
<glyph unicode="v" glyph-name="v" horiz-adv-x="515" d="M276 145L440 464H395L410 525H570L555 464H521L251 0H130L95 464H59L74 525H324L309 464H258L264 145H276Z" />
<glyph unicode="w" glyph-name="w" horiz-adv-x="800" d="M416 330L237 0H110L93 464H59L74 525H324L309 464H255L244 145H256L451 525H564L559 145H571L727 464H673L688 525H855L840 464H807L546 0H425L427 330H416Z" />
<glyph unicode="x" glyph-name="x" horiz-adv-x="628" d="M438 78H454L529 166L563 141L521 79Q501 49 481 32T442 4T405 -9T371 -12Q324 -12 304 13T276 90L263 191H257Q243 140 230 109T203 55Q189 33 172 20T138 0T106 -9T79 -12Q32 -12 8 9T-16 68Q-16 87
-10 104T7 135T34 157T70 165Q99 165 119 149T139 107Q139 91 133 75T115 48L123 41Q135 44 149 62T179 108T211 173T242 251L190 447H174L99 359L65 384L107 446Q127 476 147 493T186 521T223 534T257 537Q304 537 324 512T352 435L365 334H371Q385 385 398 416T425
470Q439 492 456 505T490 525T522 534T549 537Q596 537 620 516T644 457Q644 438 638 421T621 390T594 368T558 360Q529 360 509 376T489 418Q489 434 495 450T513 477L505 484Q493 481 479 463T449 417T417 352T386 274L438 78Z" />
<glyph unicode="y" glyph-name="y" horiz-adv-x="518" d="M24 -212Q-24 -212 -53 -191T-83 -132Q-83 -103 -64 -79T-7 -55Q20 -55 37 -69T54 -110Q54 -126 48 -141T32 -165L38 -171Q70 -160 97 -130T154 -43L87 464H49L64 525H312L297 464H248L266 154H278L450
464H407L422 525H580L565 464H530L213 -58Q160 -145 114 -178T24 -212Z" />
<glyph unicode="z" glyph-name="z" horiz-adv-x="489" d="M-6 35Q-3 47 0 55T7 71T18 86T35 104L304 373L136 398L115 385L86 309L44 315L81 467Q92 509 113 523T171 537Q194 537 215 534T263 523T324 505T408 478L420 525H489L480 490Q474 467 466 454T439 421L170
152L368 127L389 140L418 216L460 210L423 58Q412 16 391 2T333 -12Q310 -12 286 -9T230 2T160 20T66 47L54 0H-15L-6 35Z" />
<glyph unicode="{" glyph-name="braceleft" horiz-adv-x="365" d="M41 345Q80 345 110 367T151 433L206 653Q219 704 254 732T361 760H461L445 698H360L295 438Q284 394 249 360T166 318L163 304Q191 297 211 271T231 202Q231 180 225 156L166 -76H251L236 -138H103Q69
-138 49 -118T29 -65Q29 -49 33 -36L90 188Q92 196 93 202T94 215Q94 245 75 260T24 276L41 345Z" />
<glyph unicode="|" glyph-name="bar" horiz-adv-x="356" d="M30 -138L255 760H351L126 -138H30Z" />
<glyph unicode="}" glyph-name="braceright" horiz-adv-x="365" d="M346 277Q307 277 277 255T236 189L181 -31Q168 -82 133 -110T26 -138H-74L-58 -76H27L92 184Q103 228 138 262T221 304L224 318Q196 325 176 351T156 420Q156 442 162 466L221 698H136L151 760H284Q318
760 338 740T358 687Q358 674 354 658L297 434Q295 426 294 420T293 407Q293 377 312 362T363 346L346 277Z" />
<glyph unicode="~" glyph-name="asciitilde" horiz-adv-x="550" d="M366 234Q334 234 311 243T263 270Q243 284 224 293T178 303Q159 303 143 297T105 275L80 333Q102 359 131 374T203 390Q235 390 258 381T306 354Q326 340 345 331T391 321Q410 321 426 327T464
349L489 291Q467 265 438 250T366 234Z" />
<glyph unicode="&#xa0;" glyph-name="uni00A0" horiz-adv-x="212" />
<glyph unicode="&#xa1;" glyph-name="exclamdown" horiz-adv-x="296" d="M123 303H193L163 -28L127 -173H-45L-9 -28L123 303ZM183 357Q144 357 122 379T99 432Q99 447 102 459Q110 494 137 515T205 537Q244 537 266 515T289 462Q289 447 286 435Q278 400 251
379T183 357Z" />
<glyph unicode="&#xa2;" glyph-name="cent" horiz-adv-x="502" d="M178 -11Q106 -7 68 36T29 165Q29 224 45 288T97 406T186 496T315 536L339 630H397L372 534Q439 526 467 495T495 423Q495 386 475 357T417 328Q389 328 375 346T360 385Q360 410 378 433T434
461V470Q423 475 404 480T360 487L255 70Q310 74 348 111T420 213L461 196Q441 152 419 117T370 55T311 13T236 -9L210 -114H152L178 -11ZM175 148Q175 119 180 102T201 77L302 483Q285 478 272 468T248 438T227 390T205 320Q189 262 182 219T175 148Z" />
<glyph unicode="&#xa3;" glyph-name="sterling" horiz-adv-x="543" d="M52 385H110Q107 398 105 414T103 456Q103 518 125 565T183 645T266 693T365 710Q401 710 435 703T497 681T540 641T557 580Q557 562 551 545T535 514T508 492T473 483Q441 483 424 503T407
548Q407 576 425 598T481 627V636Q462 641 447 644T411 647Q369 647 341 628T295 580T270 518T263 456Q263 439 263 422T264 385H400L384 321H264Q262 276 247 242T209 184T156 146T94 126L92 116H388L416 227H489L433 0H-46L-19 110Q-1 120 23 139T70 187T106
249T120 321H36L52 385Z" />
<glyph unicode="&#xa5;" glyph-name="yen" horiz-adv-x="644" d="M123 355H238L171 635H125L141 698H418L402 635H334L379 389H387L561 635H493L509 698H717L701 635H656L439 355H567L551 292H406L386 210H531L515 147H370L349 63H419L404 0H110L125 63H195L216
147H71L87 210H232L252 292H107L123 355Z" />
<glyph unicode="&#xa6;" glyph-name="brokenbar" horiz-adv-x="356" d="M165 402L255 760H351L261 402H165ZM30 -138L120 220H216L126 -138H30Z" />
<glyph unicode="&#xa7;" glyph-name="section" horiz-adv-x="519" d="M157 -161Q121 -161 91 -153T40 -129T7 -94T-5 -50Q-5 -31 0 -14T16 16T41 38T74 46Q103 46 117 28T132 -12Q132 -37 113 -60T57 -88V-97Q74 -104 94 -108T139 -112Q193 -112 224 -91T255 -34Q255
-5 236 15T183 60L116 108Q93 124 73 141T38 177T15 220T6 272Q6 300 17 325T50 369T100 402T163 418L166 430Q152 448 144 470T136 524Q136 560 153 593T200 653T271 694T363 710Q399 710 429 702T480 678T513 643T525 599Q525 580 520 563T504 533T479 511T446
503Q417 503 403 521T388 561Q388 586 407 609T463 637V646Q446 653 426 657T381 661Q327 661 296 640T265 583Q265 554 284 534T337 489L404 441Q427 424 447 408T482 372T505 329T514 277Q514 249 503 224T470 180T420 147T357 131L354 118Q368 100 376 78T384
25Q384 -11 367 -44T320 -104T249 -145T157 -161ZM326 146Q355 155 370 174T385 217Q385 234 380 247T364 271T340 293T308 317L242 365Q228 374 216 383T193 402Q164 394 150 375T135 332Q135 315 140 302T156 278T180 256T212 232L278 184Q291 174 303 165T326
146Z" />
<glyph unicode="&#xa8;" glyph-name="dieresis" horiz-adv-x="600" d="M216 602Q184 602 166 620T148 664Q148 675 151 687Q157 712 179 729T233 747Q265 747 283 729T301 685Q301 674 298 662Q292 637 270 620T216 602ZM431 602Q399 602 381 620T363 664Q363
675 366 687Q372 712 394 729T448 747Q480 747 498 729T516 685Q516 674 513 662Q507 637 485 620T431 602Z" />
<glyph unicode="&#xa9;" glyph-name="copyright" horiz-adv-x="761" d="M341 -12Q275 -12 222 9T130 69T72 160T51 279Q51 324 62 374T95 472T150 563T227 638T327 690T450 710Q516 710 569 689T661 629T719 537T740 419Q740 374 729 324T696 226T641 135T564
60T464 8T341 -12ZM343 35Q400 35 450 53T539 105T606 184T646 285Q650 304 654 326T662 368T668 405T671 431Q671 483 655 526T610 599T539 646T448 663Q391 663 341 645T252 593T185 514T145 413Q141 393 137 372T129 330T123 293T120 267Q120 214 136 172T181
99T251 52T343 35ZM339 134Q214 134 214 272Q214 320 228 371T270 465T340 535T439 563Q495 563 525 537T555 470Q555 438 538 414T489 389Q465 389 453 404T440 438Q440 459 456 479T503 503V511Q494 517 481 521T454 525Q439 525 427 520T403 500T381 460T359
393Q347 348 342 315T336 259Q336 225 348 212T384 198Q419 198 446 227T500 310L532 297Q514 259 496 229T455 177T404 145T339 134Z" />
<glyph unicode="&#xaa;" glyph-name="ordfeminine" horiz-adv-x="424" d="M169 323Q137 323 113 342T89 394Q89 459 146 493T308 531Q309 539 312 550T317 574T321 599T323 619Q323 640 310 651T276 662Q268 662 257 661T239 658L237 651Q247 644 247 624Q247
605 234 587T192 569Q151 569 151 611Q151 628 162 644T194 674T242 696T302 704Q356 704 390 680T424 604Q424 591 421 572T414 536L378 391L393 385L448 458L474 443L437 385Q417 353 395 338T350 323Q318 323 304 339T289 380Q289 389 292 404L282 406Q276 392
267 378T243 351T210 331T169 323ZM219 379Q230 379 241 386T262 406T279 433T291 463L300 498Q249 495 227 480T198 435Q197 432 195 423T193 406Q193 392 201 386T219 379Z" />
<glyph unicode="&#xab;" glyph-name="guillemotleft" horiz-adv-x="519" d="M160 59L32 251L47 312L261 495L286 452L171 273L198 94L160 59ZM384 59L256 251L271 312L485 495L510 452L395 273L422 94L384 59Z" />
<glyph unicode="&#xac;" glyph-name="logicalnot" horiz-adv-x="550" d="M338 80L385 265H62L83 346H498L430 80H338Z" />
<glyph unicode="&#xad;" glyph-name="uni00AD" horiz-adv-x="374" d="M45 254L71 356H350L324 254H45Z" />
<glyph unicode="&#xae;" glyph-name="registered" horiz-adv-x="429" d="M255 298Q217 298 185 311T130 348T93 404T79 473Q79 524 95 567T141 642T210 692T298 710Q336 710 368 697T423 660T460 604T474 535Q474 484 458 441T412 366T342 316T255 298ZM258 331Q291
331 318 342T367 374T402 421T422 481Q424 492 426 509T428 533Q428 564 419 590T392 636T351 666T295 677Q262 677 235 666T186 634T151 587T131 527Q129 516 127 499T125 475Q125 444 134 418T160 372T202 342T258 331ZM375 568Q375 536 357 518T319 494L337
436Q341 423 356 423H359L353 398H321Q301 398 294 404T283 427L269 489H259L242 423H254L248 398H164L170 423H185L225 585H211L217 610H324Q347 610 361 601T375 568ZM284 513Q309 513 315 541Q316 544 318 553T320 565Q320 572 316 577T301 582H282L266 513H284Z"
/>
<glyph unicode="&#xaf;" glyph-name="overscore" horiz-adv-x="600" d="M196 716H489L469 633H176L196 716Z" />
<glyph unicode="&#xb0;" glyph-name="degree" horiz-adv-x="438" d="M265 333Q230 333 201 346T151 381T117 435T105 503Q105 548 120 585T163 651T226 694T304 710Q338 710 367 697T418 662T452 608T464 540Q464 495 449 458T406 392T343 349T265 333ZM273 406Q297
406 317 416T351 445T374 487T382 541Q382 582 359 609T295 637Q271 637 251 627T217 598T195 555T187 502Q187 462 210 434T273 406Z" />
<glyph unicode="&#xb1;" glyph-name="plusminus" horiz-adv-x="550" d="M253 360H86L107 441H274L318 615H411L367 441H534L513 360H346L302 185H209L253 360ZM17 81H444L423 0H-4L17 81Z" />
<glyph unicode="&#xb2;" glyph-name="twosuperior" horiz-adv-x="329" d="M64 406L175 504Q207 532 228 554T258 606Q260 612 261 618T263 630Q263 643 254 652T225 662Q218 662 209 661T193 658L191 653Q209 650 209 629Q209 611 194 596T156 580Q136 580 126
590T116 618Q116 637 127 652T157 679T200 697T250 704Q314 704 341 683T369 623Q369 594 356 572T323 531T279 499T234 471L136 413L134 405H271L281 446H338L309 329H44L64 406Z" />
<glyph unicode="&#xb3;" glyph-name="threesuperior" horiz-adv-x="318" d="M148 323Q100 323 74 341T48 388Q48 415 64 431T100 447Q118 447 129 438T141 411Q141 397 131 387T110 374L108 369Q121 363 137 363Q169 363 186 377T212 427Q216 442 217 448T218
460Q218 478 207 488T170 498H144L156 544H176Q211 544 228 561T253 607Q254 610 255 617T257 630Q257 663 216 663Q205 663 188 658L186 653Q203 647 203 628Q203 614 191 598T152 581Q134 581 123 591T112 619Q112 637 122 652T151 679T194 697T248 704Q309 704
337 685T365 628Q365 605 356 587T331 557T297 537T260 528L258 521Q326 507 326 451Q326 394 279 359T148 323Z" />
<glyph unicode="&#xb4;" glyph-name="acute" horiz-adv-x="600" d="M310 579L273 600L372 805L490 743L310 579Z" />
<glyph unicode="&#xb5;" glyph-name="mu" horiz-adv-x="611" d="M121 428H41L57 491L308 537L197 140Q191 119 191 109Q191 84 214 84Q232 84 255 105T302 166T349 265T391 401L422 525H576L465 80L483 72L569 186L607 164L550 75Q518 24 484 6T417 -12Q392 -12
375 -5T348 15T334 42T330 71Q330 86 333 103T339 131L342 142L330 146Q314 111 299 82T267 32T231 0T186 -12Q168 -12 153 -2T132 33H120L117 -139L101 -200H-39L121 428Z" />
<glyph unicode="&#xb6;" glyph-name="paragraph" horiz-adv-x="568" d="M87 458Q87 516 110 561T173 636T263 682T370 698H634L618 635H556L420 92Q405 33 379 -13T317 -92T238 -141T147 -159Q66 -159 27 -127T-13 -49Q-13 -32 -8 -16T8 14T34 35T67 43Q96 43
111 25T126 -18Q126 -45 109 -64T55 -88V-96Q78 -104 99 -105T137 -106Q142 -106 148 -106T159 -104L257 283Q219 283 188 296T134 333T99 388T87 458ZM230 -83Q275 -59 307 -13T356 100L490 635H411L230 -83Z" />
<glyph unicode="&#xb7;" glyph-name="middot" horiz-adv-x="335" d="M167 216Q128 216 105 238T82 291Q82 306 85 318Q93 353 120 374T188 396Q227 396 249 374T272 321Q272 306 269 294Q261 259 235 238T167 216Z" />
<glyph unicode="&#xb8;" glyph-name="cedilla" horiz-adv-x="600" d="M275 -212Q228 -212 201 -196T162 -165L194 -130Q204 -143 221 -150T260 -158Q283 -158 296 -147T310 -112Q310 -101 301 -92T260 -78L238 -75L278 15H334L301 -56L304 -60Q326 -53 345 -53Q373
-53 391 -66T410 -107Q410 -131 399 -150T370 -183T327 -204T275 -212Z" />
<glyph unicode="&#xb9;" glyph-name="onesuperior" horiz-adv-x="325" d="M69 373H149L212 626L125 593L118 629L265 698H331L250 373H320L309 329H58L69 373Z" />
<glyph unicode="&#xba;" glyph-name="ordmasculine" horiz-adv-x="402" d="M439 572Q439 531 426 488T387 407T321 347T228 323Q171 323 134 355T96 455Q96 495 109 539T148 620T214 680T307 704Q364 704 401 672T439 572ZM229 576Q217 528 210 499T199 453T194
428T193 414Q193 393 204 381T235 369Q261 369 278 391T306 451Q318 499 325 528T336 574T341 599T342 613Q342 634 331 646T300 658Q274 658 257 637T229 576Z" />
<glyph unicode="&#xbb;" glyph-name="guillemotright" horiz-adv-x="519" d="M123 281L96 460L134 495L262 303L247 242L33 59L8 102L123 281ZM347 281L320 460L358 495L486 303L471 242L257 59L232 102L347 281Z" />
<glyph unicode="&#xbc;" glyph-name="onequarter" horiz-adv-x="833" d="M69 373H149L212 626L125 593L118 629L265 698H331L250 373H320L309 329H58L69 373ZM726 698H811L150 0H64L726 698ZM570 74H425L443 143L622 369H742L686 143H726L708 74H668L650 0H552L570
74ZM490 143H588L630 311H623L490 143Z" />
<glyph unicode="&#xbd;" glyph-name="onehalf" horiz-adv-x="843" d="M69 373H149L212 626L125 593L118 629L265 698H331L250 373H320L309 329H58L69 373ZM726 698H811L150 0H64L726 698ZM462 77L573 175Q605 203 626 225T656 277Q658 283 659 289T661 301Q661
314 652 323T623 333Q616 333 607 332T591 329L589 324Q607 321 607 300Q607 282 592 267T554 251Q534 251 524 261T514 289Q514 308 525 323T555 350T598 368T648 375Q712 375 739 354T767 294Q767 265 754 243T721 202T677 170T632 142L534 84L532 76H669L679
117H736L707 0H442L462 77Z" />
<glyph unicode="&#xbe;" glyph-name="threequarters" horiz-adv-x="786" d="M148 323Q100 323 74 341T48 388Q48 415 64 431T100 447Q118 447 129 438T141 411Q141 397 131 387T110 374L108 369Q121 363 137 363Q169 363 186 377T212 427Q216 442 217 448T218
460Q218 478 207 488T170 498H144L156 544H176Q211 544 228 561T253 607Q254 610 255 617T257 630Q257 663 216 663Q205 663 188 658L186 653Q203 647 203 628Q203 614 191 598T152 581Q134 581 123 591T112 619Q112 637 122 652T151 679T194 697T248 704Q309 704
337 685T365 628Q365 605 356 587T331 557T297 537T260 528L258 521Q326 507 326 451Q326 394 279 359T148 323ZM679 698H764L103 0H17L679 698ZM523 74H378L396 143L575 369H695L639 143H679L661 74H621L603 0H505L523 74ZM443 143H541L583 311H576L443 143Z"
/>
<glyph unicode="&#xbf;" glyph-name="questiondown" horiz-adv-x="483" d="M152 -185Q99 -185 62 -175T0 -147T-35 -103T-46 -46Q-46 14 -21 60T46 139T142 189T255 213L274 291H350L312 139Q241 135 199 105T138 3Q135 -9 132 -25T128 -56Q128 -89 149 -107T204
-126Q221 -126 240 -124T275 -115L278 -107Q255 -102 243 -87T231 -52Q231 -18 254 6T317 31Q349 31 369 14T389 -36Q389 -66 372 -93T323 -140T248 -173T152 -185ZM338 357Q299 357 277 379T254 432Q254 447 257 459Q265 494 292 515T360 537Q399 537 421 515T444
462Q444 447 441 435Q433 400 406 379T338 357Z" />
<glyph unicode="&#xc0;" glyph-name="Agrave" horiz-adv-x="665" d="M-53 0L-38 63H8L370 698H508L559 63H605L590 0H316L331 63H399L392 216H179L97 63H165L150 0H-53ZM371 585L213 281H389L380 585H371ZM346 914L477 965L490 752L450 739L346 914Z" />
<glyph unicode="&#xc1;" glyph-name="Aacute" horiz-adv-x="665" d="M-53 0L-38 63H8L370 698H508L559 63H605L590 0H316L331 63H399L392 216H179L97 63H165L150 0H-53ZM371 585L213 281H389L380 585H371ZM448 739L411 760L510 965L628 903L448 739Z" />
<glyph unicode="&#xc2;" glyph-name="Acircumflex" horiz-adv-x="665" d="M-53 0L-38 63H8L370 698H508L559 63H605L590 0H316L331 63H399L392 216H179L97 63H165L150 0H-53ZM371 585L213 281H389L380 585H371ZM544 958L620 761L584 740L485 856L334 740L304 768L455
958H544Z" />
<glyph unicode="&#xc3;" glyph-name="Atilde" horiz-adv-x="665" d="M-53 0L-38 63H8L370 698H508L559 63H605L590 0H316L331 63H399L392 216H179L97 63H165L150 0H-53ZM371 585L213 281H389L380 585H371ZM526 764Q503 764 485 773T448 793Q431 804 417 813T385
823Q371 823 358 818T318 787L290 818Q322 860 349 887T416 914Q439 914 457 905T494 884Q511 873 525 864T557 855Q564 855 570 856T584 860T601 871T624 890L652 859Q620 817 593 791T526 764Z" />
<glyph unicode="&#xc4;" glyph-name="Adieresis" horiz-adv-x="665" d="M-53 0L-38 63H8L370 698H508L559 63H605L590 0H316L331 63H399L392 216H179L97 63H165L150 0H-53ZM371 585L213 281H389L380 585H371ZM355 765Q323 765 305 783T287 827Q287 838 290 850Q296
875 318 892T372 910Q404 910 422 892T440 848Q440 837 437 825Q431 800 409 783T355 765ZM569 765Q537 765 519 783T501 827Q501 838 504 850Q510 875 532 892T586 910Q618 910 636 892T654 848Q654 837 651 825Q645 800 623 783T569 765Z" />
<glyph unicode="&#xc5;" glyph-name="Aring" horiz-adv-x="665" d="M-53 0L-38 63H8L370 698H508L559 63H605L590 0H316L331 63H399L392 216H179L97 63H165L150 0H-53ZM371 585L213 281H389L380 585H371ZM456 718Q427 718 405 727T368 753T345 789T337 831Q337
867 350 899T385 955T437 993T500 1007Q529 1007 551 998T588 972T611 936T619 894Q619 858 606 826T571 770T519 732T456 718ZM459 768Q503 768 516 823Q535 903 535 920Q535 935 527 946T497 957Q453 957 440 902Q421 822 421 805Q421 790 429 779T459 768Z"
/>
<glyph unicode="&#xc6;" glyph-name="AE" horiz-adv-x="953" d="M-52 0L-37 63H19L432 635H370L386 698H1006L959 510H842L873 631H694L636 399H747L762 461H834L786 270H714L730 332H619L553 67H739L775 209H892L840 0H311L326 63H388L426 216H216L105 63H167L152
0H-52ZM442 281L531 635H520L263 281H442Z" />
<glyph unicode="&#xc7;" glyph-name="Ccedilla" horiz-adv-x="609" d="M252 -212Q205 -212 178 -196T139 -165L171 -130Q181 -143 198 -150T237 -158Q260 -158 273 -147T287 -112Q287 -101 278 -92T237 -78L215 -75L244 -11Q203 -7 167 8T104 53T62 128T46 237Q46
290 57 346T91 454T145 553T219 635T311 690T421 710Q472 710 500 689T538 639H550L565 698H682L626 473H509L519 512Q524 532 524 550Q524 594 498 615T433 636Q373 636 333 591T274 469Q256 397 245 351T226 276T217 227T214 189Q214 138 240 104T320 70Q353
70 380 80T429 107T471 149T509 202L553 173Q532 139 505 108T446 52T377 10T299 -11L278 -56L281 -60Q303 -53 322 -53Q350 -53 368 -66T387 -107Q387 -131 376 -150T347 -183T304 -204T252 -212Z" />
<glyph unicode="&#xc8;" glyph-name="Egrave" horiz-adv-x="609" d="M386 332H275L209 67H395L431 209H548L496 0H-33L-18 63H44L187 635H125L141 698H662L615 510H498L529 631H350L292 399H403L418 461H490L442 270H370L386 332ZM320 914L451 965L464 752L424
739L320 914Z" />
<glyph unicode="&#xc9;" glyph-name="Eacute" horiz-adv-x="609" d="M386 332H275L209 67H395L431 209H548L496 0H-33L-18 63H44L187 635H125L141 698H662L615 510H498L529 631H350L292 399H403L418 461H490L442 270H370L386 332ZM422 739L385 760L484 965L602
903L422 739Z" />
<glyph unicode="&#xca;" glyph-name="Ecircumflex" horiz-adv-x="609" d="M386 332H275L209 67H395L431 209H548L496 0H-33L-18 63H44L187 635H125L141 698H662L615 510H498L529 631H350L292 399H403L418 461H490L442 270H370L386 332ZM518 958L594 761L558 740L459
856L308 740L278 768L429 958H518Z" />
<glyph unicode="&#xcb;" glyph-name="Edieresis" horiz-adv-x="609" d="M386 332H275L209 67H395L431 209H548L496 0H-33L-18 63H44L187 635H125L141 698H662L615 510H498L529 631H350L292 399H403L418 461H490L442 270H370L386 332ZM329 765Q297 765 279 783T261
827Q261 838 264 850Q270 875 292 892T346 910Q378 910 396 892T414 848Q414 837 411 825Q405 800 383 783T329 765ZM543 765Q511 765 493 783T475 827Q475 838 478 850Q484 875 506 892T560 910Q592 910 610 892T628 848Q628 837 625 825Q619 800 597 783T543
765Z" />
<glyph unicode="&#xcc;" glyph-name="Igrave" horiz-adv-x="352" d="M-33 0L-18 63H44L187 635H125L141 698H429L413 635H351L208 63H270L255 0H-33ZM448 914L579 965L592 752L552 739L448 914Z" />
<glyph unicode="&#xcd;" glyph-name="Iacute" horiz-adv-x="352" d="M-33 0L-18 63H44L187 635H125L141 698H429L413 635H351L208 63H270L255 0H-33ZM550 739L513 760L612 965L730 903L550 739Z" />
<glyph unicode="&#xce;" glyph-name="Icircumflex" horiz-adv-x="352" d="M-33 0L-18 63H44L187 635H125L141 698H429L413 635H351L208 63H270L255 0H-33ZM646 958L722 761L686 740L587 856L436 740L406 768L557 958H646Z" />
<glyph unicode="&#xcf;" glyph-name="Idieresis" horiz-adv-x="352" d="M-33 0L-18 63H44L187 635H125L141 698H429L413 635H351L208 63H270L255 0H-33ZM457 765Q425 765 407 783T389 827Q389 838 392 850Q398 875 420 892T474 910Q506 910 524 892T542 848Q542
837 539 825Q533 800 511 783T457 765ZM671 765Q639 765 621 783T603 827Q603 838 606 850Q612 875 634 892T688 910Q720 910 738 892T756 848Q756 837 753 825Q747 800 725 783T671 765Z" />
<glyph unicode="&#xd0;" glyph-name="Eth" horiz-adv-x="700" d="M-17 63H45L108 316H33L49 383H125L188 635H126L142 698H438Q505 698 553 678T631 623T676 544T690 451Q690 370 663 289T584 144T455 40T279 0H-32L-17 63ZM254 67Q301 67 336 78T398 115T443
180T476 276Q495 354 506 399T523 471T529 510T531 535Q531 591 499 611T406 632H352L289 383H388L372 316H272L210 67H254Z" />
<glyph unicode="&#xd1;" glyph-name="Ntilde" horiz-adv-x="715" d="M-18 63H44L187 635H125L141 698H400L515 194H526L636 635H574L589 698H791L776 635H714L555 0H409L261 583H251L121 63H183L168 0H-33L-18 63ZM578 764Q555 764 537 773T500 793Q483 804 469
813T437 823Q423 823 410 818T370 787L342 818Q374 860 401 887T468 914Q491 914 509 905T546 884Q563 873 577 864T609 855Q616 855 622 856T636 860T653 871T676 890L704 859Q672 817 645 791T578 764Z" />
<glyph unicode="&#xd2;" glyph-name="Ograve" horiz-adv-x="705" d="M294 -12Q234 -12 188 6T110 58T63 140T47 248Q47 326 73 407T151 556T276 667T447 710Q507 710 553 692T631 640T678 558T694 450Q694 372 668 291T590 142T465 31T294 -12ZM308 56Q366 56
405 95T460 198Q484 292 498 349T521 442T532 497T535 538Q535 583 509 612T433 642Q375 642 336 603T281 500Q257 405 243 348T220 256T209 200T206 160Q206 115 232 86T308 56ZM352 914L483 965L496 752L456 739L352 914Z" />
<glyph unicode="&#xd3;" glyph-name="Oacute" horiz-adv-x="705" d="M294 -12Q234 -12 188 6T110 58T63 140T47 248Q47 326 73 407T151 556T276 667T447 710Q507 710 553 692T631 640T678 558T694 450Q694 372 668 291T590 142T465 31T294 -12ZM308 56Q366 56
405 95T460 198Q484 292 498 349T521 442T532 497T535 538Q535 583 509 612T433 642Q375 642 336 603T281 500Q257 405 243 348T220 256T209 200T206 160Q206 115 232 86T308 56ZM454 739L417 760L516 965L634 903L454 739Z" />
<glyph unicode="&#xd4;" glyph-name="Ocircumflex" horiz-adv-x="705" d="M294 -12Q234 -12 188 6T110 58T63 140T47 248Q47 326 73 407T151 556T276 667T447 710Q507 710 553 692T631 640T678 558T694 450Q694 372 668 291T590 142T465 31T294 -12ZM308 56Q366
56 405 95T460 198Q484 292 498 349T521 442T532 497T535 538Q535 583 509 612T433 642Q375 642 336 603T281 500Q257 405 243 348T220 256T209 200T206 160Q206 115 232 86T308 56ZM550 958L626 761L590 740L491 856L340 740L310 768L461 958H550Z" />
<glyph unicode="&#xd5;" glyph-name="Otilde" horiz-adv-x="705" d="M294 -12Q234 -12 188 6T110 58T63 140T47 248Q47 326 73 407T151 556T276 667T447 710Q507 710 553 692T631 640T678 558T694 450Q694 372 668 291T590 142T465 31T294 -12ZM308 56Q366 56
405 95T460 198Q484 292 498 349T521 442T532 497T535 538Q535 583 509 612T433 642Q375 642 336 603T281 500Q257 405 243 348T220 256T209 200T206 160Q206 115 232 86T308 56ZM532 764Q509 764 491 773T454 793Q437 804 423 813T391 823Q377 823 364 818T324
787L296 818Q328 860 355 887T422 914Q445 914 463 905T500 884Q517 873 531 864T563 855Q570 855 576 856T590 860T607 871T630 890L658 859Q626 817 599 791T532 764Z" />
<glyph unicode="&#xd6;" glyph-name="Odieresis" horiz-adv-x="705" d="M294 -12Q234 -12 188 6T110 58T63 140T47 248Q47 326 73 407T151 556T276 667T447 710Q507 710 553 692T631 640T678 558T694 450Q694 372 668 291T590 142T465 31T294 -12ZM308 56Q366
56 405 95T460 198Q484 292 498 349T521 442T532 497T535 538Q535 583 509 612T433 642Q375 642 336 603T281 500Q257 405 243 348T220 256T209 200T206 160Q206 115 232 86T308 56ZM361 765Q329 765 311 783T293 827Q293 838 296 850Q302 875 324 892T378 910Q410
910 428 892T446 848Q446 837 443 825Q437 800 415 783T361 765ZM575 765Q543 765 525 783T507 827Q507 838 510 850Q516 875 538 892T592 910Q624 910 642 892T660 848Q660 837 657 825Q651 800 629 783T575 765Z" />
<glyph unicode="&#xd7;" glyph-name="multiply" horiz-adv-x="550" d="M48 152L225 304L124 457L195 517L296 365L473 517L520 449L341 295L442 144L371 84L271 235L95 84L48 152Z" />
<glyph unicode="&#xd8;" glyph-name="Oslash" horiz-adv-x="705" d="M89 86Q47 150 47 248Q47 326 73 407T151 556T276 667T447 710Q543 710 604 664L675 743L725 699L650 615Q694 550 694 450Q694 372 668 291T590 142T465 31T294 -12Q195 -12 134 37L60 -46L11
-1L89 86ZM433 642Q375 642 333 603T275 500Q259 436 248 390T228 311T214 254T205 214L532 581Q521 609 495 625T433 642ZM308 56Q366 56 408 95T466 198Q483 265 495 313T515 395T529 451T537 491L207 120Q218 91 244 74T308 56Z" />
<glyph unicode="&#xd9;" glyph-name="Ugrave" horiz-adv-x="707" d="M351 635L255 250Q241 197 241 159Q241 112 267 88T350 63Q425 63 470 112T544 272L634 635H572L588 698H789L773 635H711L618 260Q585 128 514 58T321 -12Q206 -12 144 29T82 167Q82 188 86
220T101 291L187 635H125L141 698H429L413 635H351ZM414 914L545 965L558 752L518 739L414 914Z" />
<glyph unicode="&#xda;" glyph-name="Uacute" horiz-adv-x="707" d="M351 635L255 250Q241 197 241 159Q241 112 267 88T350 63Q425 63 470 112T544 272L634 635H572L588 698H789L773 635H711L618 260Q585 128 514 58T321 -12Q206 -12 144 29T82 167Q82 188 86
220T101 291L187 635H125L141 698H429L413 635H351ZM516 739L479 760L578 965L696 903L516 739Z" />
<glyph unicode="&#xdb;" glyph-name="Ucircumflex" horiz-adv-x="707" d="M351 635L255 250Q241 197 241 159Q241 112 267 88T350 63Q425 63 470 112T544 272L634 635H572L588 698H789L773 635H711L618 260Q585 128 514 58T321 -12Q206 -12 144 29T82 167Q82 188
86 220T101 291L187 635H125L141 698H429L413 635H351ZM612 958L688 761L652 740L553 856L402 740L372 768L523 958H612Z" />
<glyph unicode="&#xdc;" glyph-name="Udieresis" horiz-adv-x="707" d="M351 635L255 250Q241 197 241 159Q241 112 267 88T350 63Q425 63 470 112T544 272L634 635H572L588 698H789L773 635H711L618 260Q585 128 514 58T321 -12Q206 -12 144 29T82 167Q82 188
86 220T101 291L187 635H125L141 698H429L413 635H351ZM423 765Q391 765 373 783T355 827Q355 838 358 850Q364 875 386 892T440 910Q472 910 490 892T508 848Q508 837 505 825Q499 800 477 783T423 765ZM637 765Q605 765 587 783T569 827Q569 838 572 850Q578
875 600 892T654 910Q686 910 704 892T722 848Q722 837 719 825Q713 800 691 783T637 765Z" />
<glyph unicode="&#xdd;" glyph-name="Yacute" horiz-adv-x="654" d="M115 63H195L249 279L155 635H109L125 698H406L390 635H322L386 375H395L586 635H518L534 698H743L727 635H681L420 305L359 63H439L424 0H100L115 63ZM479 739L442 760L541 965L659 903L479 739Z" />
<glyph unicode="&#xde;" glyph-name="Thorn" horiz-adv-x="622" d="M413 635H351L328 543H461Q500 543 532 536T588 514T624 473T637 411Q637 366 622 320T576 238T494 178T374 155H231L208 63H270L255 0H-33L-18 63H44L187 635H125L141 698H428L413 635ZM311
476L248 223H331Q379 223 409 247T454 328Q456 336 459 348T465 373T470 397T472 415Q472 444 453 460T393 476H311Z" />
<glyph unicode="&#xdf;" glyph-name="germandbls" horiz-adv-x="657" d="M365 -12Q291 -12 261 9T231 67Q231 81 236 95T250 120T274 138T307 145Q335 145 351 129T368 86Q368 71 362 54T345 27L354 16Q402 27 428 57T454 122Q454 154 437 177T398 224Q376 248
358 277T339 351Q339 384 352 410T387 456T432 488T480 505L499 584Q508 621 508 646Q508 680 492 698T447 716Q400 716 372 677T324 555L180 -19Q167 -71 143 -107T87 -167T18 -201T-58 -212Q-118 -212 -149 -187T-180 -124Q-180 -97 -161 -75T-108 -53Q-80 -53
-63 -69T-46 -110Q-46 -133 -59 -146T-89 -168L-80 -177Q-49 -177 -28 -161T5 -100L146 459H63L79 525H163L169 549Q182 599 205 640T263 710T345 754T456 770Q557 770 602 726T647 612Q647 594 645 575T637 537L627 502H601Q547 502 519 478T490 409Q490 380 506
358T543 312Q566 287 585 257T605 181Q605 134 585 98T532 38T455 1T365 -12Z" />
<glyph unicode="&#xe0;" glyph-name="agrave" horiz-adv-x="603" d="M146 -12Q82 -12 55 30T27 147Q27 189 35 234T59 323T98 406T150 474T215 520T292 537Q314 537 333 532T368 513T395 480T411 430H423L492 525H568L457 80L475 72L561 186L599 164L545 79Q515
31 483 10T417 -12Q391 -12 374 -5T347 14T332 41T328 71Q328 86 331 103T337 131L338 135L326 137Q312 108 296 81T258 34T209 1T146 -12ZM337 459Q304 459 272 421T214 295Q208 276 204 254T195 210T189 168T187 131Q187 110 192 97T215 84Q238 84 262 109T306
170T343 249T366 324L373 356Q384 404 377 431T337 459ZM227 754L358 805L371 592L331 579L227 754Z" />
<glyph unicode="&#xe1;" glyph-name="aacute" horiz-adv-x="603" d="M146 -12Q82 -12 55 30T27 147Q27 189 35 234T59 323T98 406T150 474T215 520T292 537Q314 537 333 532T368 513T395 480T411 430H423L492 525H568L457 80L475 72L561 186L599 164L545 79Q515
31 483 10T417 -12Q391 -12 374 -5T347 14T332 41T328 71Q328 86 331 103T337 131L338 135L326 137Q312 108 296 81T258 34T209 1T146 -12ZM337 459Q304 459 272 421T214 295Q208 276 204 254T195 210T189 168T187 131Q187 110 192 97T215 84Q238 84 262 109T306
170T343 249T366 324L373 356Q384 404 377 431T337 459ZM340 579L303 600L402 805L520 743L340 579Z" />
<glyph unicode="&#xe2;" glyph-name="acircumflex" horiz-adv-x="603" d="M146 -12Q82 -12 55 30T27 147Q27 189 35 234T59 323T98 406T150 474T215 520T292 537Q314 537 333 532T368 513T395 480T411 430H423L492 525H568L457 80L475 72L561 186L599 164L545
79Q515 31 483 10T417 -12Q391 -12 374 -5T347 14T332 41T328 71Q328 86 331 103T337 131L338 135L326 137Q312 108 296 81T258 34T209 1T146 -12ZM337 459Q304 459 272 421T214 295Q208 276 204 254T195 210T189 168T187 131Q187 110 192 97T215 84Q238 84 262
109T306 170T343 249T366 324L373 356Q384 404 377 431T337 459ZM428 798L504 601L468 580L369 696L218 580L188 608L339 798H428Z" />
<glyph unicode="&#xe3;" glyph-name="atilde" horiz-adv-x="603" d="M146 -12Q82 -12 55 30T27 147Q27 189 35 234T59 323T98 406T150 474T215 520T292 537Q314 537 333 532T368 513T395 480T411 430H423L492 525H568L457 80L475 72L561 186L599 164L545 79Q515
31 483 10T417 -12Q391 -12 374 -5T347 14T332 41T328 71Q328 86 331 103T337 131L338 135L326 137Q312 108 296 81T258 34T209 1T146 -12ZM337 459Q304 459 272 421T214 295Q208 276 204 254T195 210T189 168T187 131Q187 110 192 97T215 84Q238 84 262 109T306
170T343 249T366 324L373 356Q384 404 377 431T337 459ZM416 601Q393 601 375 610T338 630Q321 641 307 650T275 660Q261 660 248 655T208 624L180 655Q212 697 239 724T306 751Q329 751 347 742T384 721Q401 710 415 701T447 692Q454 692 460 693T474 697T491
708T514 727L542 696Q510 654 483 628T416 601Z" />
<glyph unicode="&#xe4;" glyph-name="adieresis" horiz-adv-x="603" d="M146 -12Q82 -12 55 30T27 147Q27 189 35 234T59 323T98 406T150 474T215 520T292 537Q314 537 333 532T368 513T395 480T411 430H423L492 525H568L457 80L475 72L561 186L599 164L545 79Q515
31 483 10T417 -12Q391 -12 374 -5T347 14T332 41T328 71Q328 86 331 103T337 131L338 135L326 137Q312 108 296 81T258 34T209 1T146 -12ZM337 459Q304 459 272 421T214 295Q208 276 204 254T195 210T189 168T187 131Q187 110 192 97T215 84Q238 84 262 109T306
170T343 249T366 324L373 356Q384 404 377 431T337 459ZM246 602Q214 602 196 620T178 664Q178 675 181 687Q187 712 209 729T263 747Q295 747 313 729T331 685Q331 674 328 662Q322 637 300 620T246 602ZM461 602Q429 602 411 620T393 664Q393 675 396 687Q402
712 424 729T478 747Q510 747 528 729T546 685Q546 674 543 662Q537 637 515 620T461 602Z" />
<glyph unicode="&#xe5;" glyph-name="aring" horiz-adv-x="603" d="M146 -12Q82 -12 55 30T27 147Q27 189 35 234T59 323T98 406T150 474T215 520T292 537Q314 537 333 532T368 513T395 480T411 430H423L492 525H568L457 80L475 72L561 186L599 164L545 79Q515
31 483 10T417 -12Q391 -12 374 -5T347 14T332 41T328 71Q328 86 331 103T337 131L338 135L326 137Q312 108 296 81T258 34T209 1T146 -12ZM337 459Q304 459 272 421T214 295Q208 276 204 254T195 210T189 168T187 131Q187 110 192 97T215 84Q238 84 262 109T306
170T343 249T366 324L373 356Q384 404 377 431T337 459ZM349 557Q320 557 298 566T261 592T238 628T230 670Q230 706 243 738T278 794T330 832T393 846Q422 846 444 837T481 811T504 775T512 733Q512 697 499 665T464 609T412 571T349 557ZM352 607Q375 607 389
621T409 662Q428 742 428 759Q428 774 420 785T390 796Q367 796 353 782T333 741Q314 661 314 644Q314 629 322 618T352 607Z" />
<glyph unicode="&#xe6;" glyph-name="ae" horiz-adv-x="729" d="M98 -12Q50 -12 21 16T-8 92Q-8 179 70 228T296 286Q299 297 303 313T311 348T318 382T321 410Q321 442 300 459T243 476Q231 476 217 475T193 472L190 463Q201 455 208 445T216 418Q216 404 211
390T196 364T171 345T135 337Q107 337 91 352T75 398Q75 423 91 448T137 493T205 525T292 537Q334 537 366 521T412 473H425Q448 502 487 519T574 537Q643 537 687 511T732 427Q732 404 721 377T678 326T590 283T444 259Q436 224 433 196T429 148Q429 103 446 87T491
70Q536 70 572 107T643 213L684 196Q641 98 582 43T435 -12Q368 -12 328 21T283 119H270Q261 99 247 76T211 34T162 1T98 -12ZM169 70Q185 70 201 81T232 109T257 149T273 193L287 248Q220 237 185 216T139 152Q137 146 134 133T131 109Q131 89 143 80T169 70ZM453
299Q499 306 528 320T575 354T599 395T606 440Q606 483 566 483Q546 483 531 474T504 443T479 386T453 299Z" />
<glyph unicode="&#xe7;" glyph-name="ccedilla" horiz-adv-x="467" d="M171 -212Q124 -212 97 -196T58 -165L90 -130Q100 -143 117 -150T156 -158Q179 -158 192 -147T206 -112Q206 -101 197 -92T156 -78L134 -75L163 -10Q94 -2 62 44T29 165Q29 226 46 291T99
411T188 501T312 537Q389 537 429 503T470 418Q470 397 464 377T445 342T416 318T377 309Q346 309 330 330T314 377Q314 404 336 429T400 460V470Q388 479 372 483T339 488Q320 488 305 482T275 457T247 405T219 320Q203 262 196 219T189 148Q189 104 205 87T250
70Q295 70 329 107T399 213L440 196Q419 151 397 115T349 52T291 9T218 -11L197 -56L200 -60Q222 -53 241 -53Q269 -53 287 -66T306 -107Q306 -131 295 -150T266 -183T223 -204T171 -212Z" />
<glyph unicode="&#xe8;" glyph-name="egrave" horiz-adv-x="489" d="M191 -12Q108 -12 69 35T29 167Q29 227 46 292T101 411T195 501T332 537Q367 537 396 531T447 511T480 477T492 427Q492 404 481 377T438 325T350 282T203 258Q195 223 192 196T189 148Q189
104 205 87T250 70Q296 70 332 107T403 213L444 196Q422 148 398 110T343 44T276 3T191 -12ZM213 300Q259 307 288 321T335 354T359 395T366 440Q366 483 326 483Q306 483 291 474T264 443T239 386T213 300ZM232 754L363 805L376 592L336 579L232 754Z" />
<glyph unicode="&#xe9;" glyph-name="eacute" horiz-adv-x="489" d="M191 -12Q108 -12 69 35T29 167Q29 227 46 292T101 411T195 501T332 537Q367 537 396 531T447 511T480 477T492 427Q492 404 481 377T438 325T350 282T203 258Q195 223 192 196T189 148Q189
104 205 87T250 70Q296 70 332 107T403 213L444 196Q422 148 398 110T343 44T276 3T191 -12ZM213 300Q259 307 288 321T335 354T359 395T366 440Q366 483 326 483Q306 483 291 474T264 443T239 386T213 300ZM345 579L308 600L407 805L525 743L345 579Z" />
<glyph unicode="&#xea;" glyph-name="ecircumflex" horiz-adv-x="489" d="M191 -12Q108 -12 69 35T29 167Q29 227 46 292T101 411T195 501T332 537Q367 537 396 531T447 511T480 477T492 427Q492 404 481 377T438 325T350 282T203 258Q195 223 192 196T189 148Q189
104 205 87T250 70Q296 70 332 107T403 213L444 196Q422 148 398 110T343 44T276 3T191 -12ZM213 300Q259 307 288 321T335 354T359 395T366 440Q366 483 326 483Q306 483 291 474T264 443T239 386T213 300ZM433 798L509 601L473 580L374 696L223 580L193 608L344
798H433Z" />
<glyph unicode="&#xeb;" glyph-name="edieresis" horiz-adv-x="489" d="M191 -12Q108 -12 69 35T29 167Q29 227 46 292T101 411T195 501T332 537Q367 537 396 531T447 511T480 477T492 427Q492 404 481 377T438 325T350 282T203 258Q195 223 192 196T189 148Q189
104 205 87T250 70Q296 70 332 107T403 213L444 196Q422 148 398 110T343 44T276 3T191 -12ZM213 300Q259 307 288 321T335 354T359 395T366 440Q366 483 326 483Q306 483 291 474T264 443T239 386T213 300ZM251 602Q219 602 201 620T183 664Q183 675 186 687Q192
712 214 729T268 747Q300 747 318 729T336 685Q336 674 333 662Q327 637 305 620T251 602ZM466 602Q434 602 416 620T398 664Q398 675 401 687Q407 712 429 729T483 747Q515 747 533 729T551 685Q551 674 548 662Q542 637 520 620T466 602Z" />
<glyph unicode="&#xec;" glyph-name="igrave" horiz-adv-x="340" d="M143 -12Q114 -12 95 -5T65 15T48 43T43 74Q43 86 46 103T52 131L126 428H46L62 491L308 537L193 80L211 72L297 186L335 164L281 79Q263 51 245 34T210 6T175 -8T143 -12ZM374 754L505 805L518
592L478 579L374 754Z" />
<glyph unicode="&#xed;" glyph-name="iacute" horiz-adv-x="340" d="M143 -12Q114 -12 95 -5T65 15T48 43T43 74Q43 86 46 103T52 131L126 428H46L62 491L308 537L193 80L211 72L297 186L335 164L281 79Q263 51 245 34T210 6T175 -8T143 -12ZM487 579L450 600L549
805L667 743L487 579Z" />
<glyph unicode="&#xee;" glyph-name="icircumflex" horiz-adv-x="340" d="M143 -12Q114 -12 95 -5T65 15T48 43T43 74Q43 86 46 103T52 131L126 428H46L62 491L308 537L193 80L211 72L297 186L335 164L281 79Q263 51 245 34T210 6T175 -8T143 -12ZM575 798L651
601L615 580L516 696L365 580L335 608L486 798H575Z" />
<glyph unicode="&#xef;" glyph-name="idieresis" horiz-adv-x="340" d="M143 -12Q114 -12 95 -5T65 15T48 43T43 74Q43 86 46 103T52 131L126 428H46L62 491L308 537L193 80L211 72L297 186L335 164L281 79Q263 51 245 34T210 6T175 -8T143 -12ZM393 602Q361 602
343 620T325 664Q325 675 328 687Q334 712 356 729T410 747Q442 747 460 729T478 685Q478 674 475 662Q469 637 447 620T393 602ZM608 602Q576 602 558 620T540 664Q540 675 543 687Q549 712 571 729T625 747Q657 747 675 729T693 685Q693 674 690 662Q684 637
662 620T608 602Z" />
<glyph unicode="&#xf0;" glyph-name="eth" horiz-adv-x="562" d="M220 -12Q129 -12 82 41T34 186Q34 251 53 309T105 410T182 479T276 505Q318 505 346 484T382 420L393 424Q395 521 354 607L248 546L216 601L323 662Q306 688 285 712T238 758H323Q341 747 359
734T395 703L506 767L538 712L439 655Q477 607 502 542T528 388Q528 291 506 217T443 91T346 14T220 -12ZM227 46Q263 46 285 75T321 153Q339 221 349 260T364 322T370 354T372 374Q372 397 359 414T317 431Q281 431 259 402T223 324Q205 256 195 217T180 155T174
123T172 103Q172 80 185 63T227 46Z" />
<glyph unicode="&#xf1;" glyph-name="ntilde" horiz-adv-x="618" d="M126 428H46L62 491L291 537L253 383L265 379Q283 413 302 442T343 492T392 525T454 537Q509 537 534 508T559 429Q559 392 545 344L469 80L487 72L573 186L611 164L557 79Q525 29 491 9T417
-12Q388 -12 369 -5T339 15T323 43T318 73Q318 86 321 102T327 130L401 395Q404 407 404 416Q404 441 382 441Q362 441 339 419T291 355T245 255T204 124L173 0H19L126 428ZM430 601Q407 601 389 610T352 630Q335 641 321 650T289 660Q275 660 262 655T222 624L194
655Q226 697 253 724T320 751Q343 751 361 742T398 721Q415 710 429 701T461 692Q468 692 474 693T488 697T505 708T528 727L556 696Q524 654 497 628T430 601Z" />
<glyph unicode="&#xf2;" glyph-name="ograve" horiz-adv-x="560" d="M222 -12Q128 -12 80 41T32 186Q32 245 52 307T112 420T208 504T338 537Q432 537 480 484T528 339Q528 280 508 218T448 105T352 21T222 -12ZM229 46Q265 46 287 75T323 153Q342 227 354 274T374
352T383 397T386 422Q386 445 373 462T331 479Q295 479 273 450T237 372Q218 298 206 251T186 173T177 128T174 103Q174 80 187 63T229 46ZM239 754L370 805L383 592L343 579L239 754Z" />
<glyph unicode="&#xf3;" glyph-name="oacute" horiz-adv-x="560" d="M222 -12Q128 -12 80 41T32 186Q32 245 52 307T112 420T208 504T338 537Q432 537 480 484T528 339Q528 280 508 218T448 105T352 21T222 -12ZM229 46Q265 46 287 75T323 153Q342 227 354 274T374
352T383 397T386 422Q386 445 373 462T331 479Q295 479 273 450T237 372Q218 298 206 251T186 173T177 128T174 103Q174 80 187 63T229 46ZM352 579L315 600L414 805L532 743L352 579Z" />
<glyph unicode="&#xf4;" glyph-name="ocircumflex" horiz-adv-x="560" d="M222 -12Q128 -12 80 41T32 186Q32 245 52 307T112 420T208 504T338 537Q432 537 480 484T528 339Q528 280 508 218T448 105T352 21T222 -12ZM229 46Q265 46 287 75T323 153Q342 227 354
274T374 352T383 397T386 422Q386 445 373 462T331 479Q295 479 273 450T237 372Q218 298 206 251T186 173T177 128T174 103Q174 80 187 63T229 46ZM440 798L516 601L480 580L381 696L230 580L200 608L351 798H440Z" />
<glyph unicode="&#xf5;" glyph-name="otilde" horiz-adv-x="560" d="M222 -12Q128 -12 80 41T32 186Q32 245 52 307T112 420T208 504T338 537Q432 537 480 484T528 339Q528 280 508 218T448 105T352 21T222 -12ZM229 46Q265 46 287 75T323 153Q342 227 354 274T374
352T383 397T386 422Q386 445 373 462T331 479Q295 479 273 450T237 372Q218 298 206 251T186 173T177 128T174 103Q174 80 187 63T229 46ZM428 601Q405 601 387 610T350 630Q333 641 319 650T287 660Q273 660 260 655T220 624L192 655Q224 697 251 724T318 751Q341
751 359 742T396 721Q413 710 427 701T459 692Q466 692 472 693T486 697T503 708T526 727L554 696Q522 654 495 628T428 601Z" />
<glyph unicode="&#xf6;" glyph-name="odieresis" horiz-adv-x="560" d="M222 -12Q128 -12 80 41T32 186Q32 245 52 307T112 420T208 504T338 537Q432 537 480 484T528 339Q528 280 508 218T448 105T352 21T222 -12ZM229 46Q265 46 287 75T323 153Q342 227 354
274T374 352T383 397T386 422Q386 445 373 462T331 479Q295 479 273 450T237 372Q218 298 206 251T186 173T177 128T174 103Q174 80 187 63T229 46ZM258 602Q226 602 208 620T190 664Q190 675 193 687Q199 712 221 729T275 747Q307 747 325 729T343 685Q343 674
340 662Q334 637 312 620T258 602ZM473 602Q441 602 423 620T405 664Q405 675 408 687Q414 712 436 729T490 747Q522 747 540 729T558 685Q558 674 555 662Q549 637 527 620T473 602Z" />
<glyph unicode="&#xf7;" glyph-name="divide" horiz-adv-x="550" d="M62 265L83 346H510L489 265H62ZM227 43Q192 43 172 60T152 104Q152 118 155 130Q163 163 187 179T249 195Q284 195 304 178T324 134Q324 120 321 108Q313 75 289 59T227 43ZM323 414Q288 414
268 431T248 475Q248 489 251 501Q259 534 283 550T345 566Q380 566 400 549T420 505Q420 491 417 479Q409 446 385 430T323 414Z" />
<glyph unicode="&#xf8;" glyph-name="oslash" horiz-adv-x="560" d="M222 -12Q143 -12 95 28L26 -44L-16 -2L57 74Q32 121 32 186Q32 245 52 307T112 420T208 504T338 537Q417 537 465 497L534 569L576 527L503 451Q528 404 528 339Q528 280 508 218T448 105T352
21T222 -12ZM331 481Q290 481 264 452T225 373Q210 314 200 273T181 202L398 427Q396 449 381 465T331 481ZM229 44Q270 44 296 73T335 153Q350 211 360 252T378 323L162 98Q164 76 180 60T229 44Z" />
<glyph unicode="&#xf9;" glyph-name="ugrave" horiz-adv-x="616" d="M146 -12Q91 -12 66 17T41 97Q41 134 55 181L126 428H46L62 491L313 537L199 130Q196 118 196 109Q196 84 218 84Q238 84 261 106T309 170T355 270T396 401L427 525H581L470 80L488 72L574 186L612
164L558 79Q540 51 522 33T487 5T455 -8T424 -12Q398 -12 381 -5T353 15T339 42T335 71Q335 86 338 103T344 131L347 142L335 146Q317 112 298 83T257 33T207 0T146 -12ZM263 754L394 805L407 592L367 579L263 754Z" />
<glyph unicode="&#xfa;" glyph-name="uacute" horiz-adv-x="616" d="M146 -12Q91 -12 66 17T41 97Q41 134 55 181L126 428H46L62 491L313 537L199 130Q196 118 196 109Q196 84 218 84Q238 84 261 106T309 170T355 270T396 401L427 525H581L470 80L488 72L574 186L612
164L558 79Q540 51 522 33T487 5T455 -8T424 -12Q398 -12 381 -5T353 15T339 42T335 71Q335 86 338 103T344 131L347 142L335 146Q317 112 298 83T257 33T207 0T146 -12ZM376 579L339 600L438 805L556 743L376 579Z" />
<glyph unicode="&#xfb;" glyph-name="ucircumflex" horiz-adv-x="616" d="M146 -12Q91 -12 66 17T41 97Q41 134 55 181L126 428H46L62 491L313 537L199 130Q196 118 196 109Q196 84 218 84Q238 84 261 106T309 170T355 270T396 401L427 525H581L470 80L488 72L574
186L612 164L558 79Q540 51 522 33T487 5T455 -8T424 -12Q398 -12 381 -5T353 15T339 42T335 71Q335 86 338 103T344 131L347 142L335 146Q317 112 298 83T257 33T207 0T146 -12ZM464 798L540 601L504 580L405 696L254 580L224 608L375 798H464Z" />
<glyph unicode="&#xfc;" glyph-name="udieresis" horiz-adv-x="616" d="M146 -12Q91 -12 66 17T41 97Q41 134 55 181L126 428H46L62 491L313 537L199 130Q196 118 196 109Q196 84 218 84Q238 84 261 106T309 170T355 270T396 401L427 525H581L470 80L488 72L574
186L612 164L558 79Q540 51 522 33T487 5T455 -8T424 -12Q398 -12 381 -5T353 15T339 42T335 71Q335 86 338 103T344 131L347 142L335 146Q317 112 298 83T257 33T207 0T146 -12ZM282 602Q250 602 232 620T214 664Q214 675 217 687Q223 712 245 729T299 747Q331
747 349 729T367 685Q367 674 364 662Q358 637 336 620T282 602ZM497 602Q465 602 447 620T429 664Q429 675 432 687Q438 712 460 729T514 747Q546 747 564 729T582 685Q582 674 579 662Q573 637 551 620T497 602Z" />
<glyph unicode="&#xfd;" glyph-name="yacute" horiz-adv-x="518" d="M24 -212Q-24 -212 -53 -191T-83 -132Q-83 -103 -64 -79T-7 -55Q20 -55 37 -69T54 -110Q54 -126 48 -141T32 -165L38 -171Q70 -160 97 -130T154 -43L87 464H49L64 525H312L297 464H248L266 154H278L450
464H407L422 525H580L565 464H530L213 -58Q160 -145 114 -178T24 -212ZM380 579L343 600L442 805L560 743L380 579Z" />
<glyph unicode="&#xfe;" glyph-name="thorn" horiz-adv-x="577" d="M-26 -139L174 661H94L110 724L356 770L238 390L250 388Q263 417 280 444T318 491T368 524T431 537Q495 537 522 495T550 378Q550 336 542 291T517 202T478 120T426 52T362 5T288 -12Q202 -12
184 67H172L128 -139H214L199 -200H-102L-87 -139H-26ZM241 67Q274 67 306 105T364 231Q370 250 374 272T383 316T389 358T391 395Q391 416 386 429T363 442Q340 442 316 417T272 356T235 277T212 202L205 170Q194 122 201 95T241 67Z" />
<glyph unicode="&#xff;" glyph-name="ydieresis" horiz-adv-x="518" d="M24 -212Q-24 -212 -53 -191T-83 -132Q-83 -103 -64 -79T-7 -55Q20 -55 37 -69T54 -110Q54 -126 48 -141T32 -165L38 -171Q70 -160 97 -130T154 -43L87 464H49L64 525H312L297 464H248L266
154H278L450 464H407L422 525H580L565 464H530L213 -58Q160 -145 114 -178T24 -212ZM286 602Q254 602 236 620T218 664Q218 675 221 687Q227 712 249 729T303 747Q335 747 353 729T371 685Q371 674 368 662Q362 637 340 620T286 602ZM501 602Q469 602 451 620T433
664Q433 675 436 687Q442 712 464 729T518 747Q550 747 568 729T586 685Q586 674 583 662Q577 637 555 620T501 602Z" />
<glyph unicode="&#x2013;" glyph-name="endash" horiz-adv-x="553" d="M44 261L65 344H529L508 261H44Z" />
<glyph unicode="&#x2014;" glyph-name="emdash" horiz-adv-x="726" d="M44 261L65 344H702L681 261H44Z" />
<glyph unicode="&#x2018;" glyph-name="quoteleft" horiz-adv-x="286" d="M368 740Q322 708 295 680T245 615Q277 610 294 591T312 547Q312 540 311 532T308 518Q299 482 273 462T206 441Q167 441 145 465T123 522Q123 537 126 551Q133 580 148 607T185 658T230
702T278 740H368V740Z" />
<glyph unicode="&#x2019;" glyph-name="quoteright" horiz-adv-x="286" d="M91 441Q137 473 164 501T214 566Q182 571 165 590T147 634Q147 641 148 649T151 663Q160 699 186 719T253 740Q292 740 314 716T336 659Q336 643 333 630Q326 601 311 574T274 523T229
478T181 441H91V441Z" />
<glyph unicode="&#x201a;" glyph-name="quotesinglbase" horiz-adv-x="286" d="M-53 -117Q-7 -85 20 -57T70 8Q38 13 21 32T3 76Q3 83 4 91T7 105Q16 141 42 161T109 182Q148 182 170 158T192 101Q192 85 189 72Q182 43 167 16T130 -35T85 -80T37 -117H-53V-117Z" />
<glyph unicode="&#x201c;" glyph-name="quotedblleft" horiz-adv-x="530" d="M368 740Q322 708 295 680T245 615Q277 610 294 591T312 547Q312 540 311 532T308 518Q299 482 273 462T206 441Q167 441 145 465T123 522Q123 537 126 551Q133 580 148 607T185 658T230
702T278 740H368V740ZM612 740Q566 708 539 680T489 615Q521 610 538 591T556 547Q556 540 555 532T552 518Q543 482 517 462T450 441Q411 441 389 465T367 522Q367 537 370 551Q377 580 392 607T429 658T474 702T522 740H612V740Z" />
<glyph unicode="&#x201d;" glyph-name="quotedblright" horiz-adv-x="530" d="M91 441Q137 473 164 501T214 566Q182 571 165 590T147 634Q147 641 148 649T151 663Q160 699 186 719T253 740Q292 740 314 716T336 659Q336 643 333 630Q326 601 311 574T274 523T229
478T181 441H91V441ZM335 441Q381 473 408 501T458 566Q426 571 409 590T391 634Q391 641 392 649T395 663Q404 699 430 719T497 740Q536 740 558 716T580 659Q580 643 577 630Q570 601 555 574T518 523T473 478T425 441H335V441Z" />
<glyph unicode="&#x201e;" glyph-name="quotedblbase" horiz-adv-x="530" d="M-53 -117Q-7 -85 20 -57T70 8Q38 13 21 32T3 76Q3 83 4 91T7 105Q16 141 42 161T109 182Q148 182 170 158T192 101Q192 85 189 72Q182 43 167 16T130 -35T85 -80T37 -117H-53V-117ZM191
-117Q237 -85 264 -57T314 8Q282 13 265 32T247 76Q247 83 248 91T251 105Q260 141 286 161T353 182Q392 182 414 158T436 101Q436 85 433 72Q426 43 411 16T374 -35T329 -80T281 -117H191V-117Z" />
<glyph unicode="&#x2022;" glyph-name="bullet" horiz-adv-x="400" d="M186 158Q154 158 130 167T90 192T67 228T59 272Q59 286 62 304T67 331Q73 353 84 373T115 408T160 433T222 442Q254 442 278 433T317 408T341 371T349 328Q349 314 346 296T341 269Q335 247
324 227T293 192T248 167T186 158Z" />
<glyph unicode="&#x2039;" glyph-name="guilsinglleft" horiz-adv-x="294" d="M160 59L32 251L47 312L261 495L286 452L171 273L198 94L160 59Z" />
<glyph unicode="&#x203a;" glyph-name="guilsinglright" horiz-adv-x="294" d="M123 281L96 460L134 495L262 303L247 242L33 59L8 102L123 281Z" />
</font>
</defs>
</svg>
