<?xml version="1.0" standalone="no"?>
<!DOCTYPE svg PUBLIC "-//W3C//DTD SVG 1.1//EN" "http://www.w3.org/Graphics/SVG/1.1/DTD/svg11.dtd">
<svg xmlns="http://www.w3.org/2000/svg">
<defs >
<font id="IBMPlexSerif" horiz-adv-x="557" ><font-face
    font-family="IBM Plex Serif Thin"
    units-per-em="1000"
    panose-1="2 6 2 3 5 4 6 0 2 3"
    ascent="1025"
    descent="-275"
    alphabetic="0" />
<glyph unicode=" " glyph-name="space" horiz-adv-x="212" />
<glyph unicode="!" glyph-name="exclam" horiz-adv-x="236" d="M148 415L218 698H240L170 415L105 176H93L148 415ZM59 -5Q47 -5 41 1T35 16Q35 27 39 35Q42 41 48 46T66 51Q78 51 84 45T90 30Q90 19 86 11Q83 5 77 0T59 -5Z" />
<glyph unicode="&quot;" glyph-name="quotedbl" horiz-adv-x="340" d="M189 662L209 740H231L211 662L163 490H150L189 662ZM333 662L353 740H375L355 662L307 490H294L333 662Z" />
<glyph unicode="#" glyph-name="numbersign" horiz-adv-x="680" d="M385 220H209L118 0H97L188 220H51L55 236H195L289 462H150L154 478H296L387 698H408L317 478H493L584 698H605L514 478H651L647 462H507L413 236H552L548 220H406L315 0H294L385 220ZM392 236L486
462H310L216 236H392Z" />
<glyph unicode="$" glyph-name="dollar" horiz-adv-x="566" d="M208 1Q177 4 151 12T105 33T75 61T64 95Q64 126 91 126Q102 126 109 119T117 99Q117 72 83 67V65Q100 46 133 34T212 19L297 361L270 372Q216 393 187 429T157 523Q157 563 173 595T218 651T285
686T368 698H381L402 780H420L399 696Q459 690 497 664T535 603Q535 572 508 572Q497 572 490 579T482 599Q482 626 516 631V633Q499 651 469 663T395 679L319 374L354 360Q421 333 449 296T477 205Q477 163 462 126T416 60T341 16T238 0H226L206 -82H188L208 1ZM456
205Q456 233 449 254T426 291T390 320T340 344L314 355L230 18H240Q289 18 329 32T397 71T441 130T456 205ZM178 524Q178 469 205 438T284 387L302 380L377 680H366Q320 680 285 667T226 633T190 583T178 524Z" />
<glyph unicode="%" glyph-name="percent" horiz-adv-x="827" d="M730 698H753L135 0H112L730 698ZM212 326Q169 326 141 354T112 442Q112 498 125 547T163 632T222 689T296 710Q339 710 367 682T396 594Q396 538 383 489T345 404T286 347T212 326ZM212 342Q233
342 255 350T297 377T335 429T365 511Q371 536 373 557T376 598Q376 649 353 671T296 694Q275 694 253 686T211 659T173 607T143 525Q137 500 135 479T132 438Q132 387 155 365T212 342ZM569 -12Q526 -12 498 16T469 104Q469 160 482 209T520 294T579 351T653 372Q696
372 724 344T753 256Q753 200 740 151T702 66T643 9T569 -12ZM569 4Q590 4 612 12T654 39T692 91T722 173Q728 198 730 219T733 260Q733 311 710 333T653 356Q632 356 610 348T568 321T530 269T500 187Q494 162 492 141T489 100Q489 49 512 27T569 4Z" />
<glyph unicode="&amp;" glyph-name="ampersand" horiz-adv-x="618" d="M194 -12Q112 -12 73 27T33 135Q33 189 53 228T102 296T163 344T221 375L214 387Q195 419 184 448T172 515Q172 554 185 589T223 652T281 694T358 710Q418 710 447 683T477 603Q477 536 418
481T246 369L400 105Q435 147 461 204T504 333H415L419 349H615L612 333H524Q506 251 477 191T410 88L427 59Q442 33 465 26T535 18L531 0H520Q478 0 453 9T409 53L397 74Q352 29 300 9T194 -12ZM196 6Q307 6 387 91L229 360Q205 348 179 333T130 299T89 253T64
192Q62 181 59 164T55 135Q55 99 66 75T96 35T140 13T196 6ZM194 517Q194 477 206 446T238 383Q274 401 308 422T370 465T418 512T448 560Q455 580 455 603Q455 645 432 668T357 692Q295 692 256 658T202 568Q199 556 197 543T194 517Z" />
<glyph unicode="&apos;" glyph-name="quotesingle" horiz-adv-x="196" d="M189 662L209 740H231L211 662L163 490H150L189 662Z" />
<glyph unicode="(" glyph-name="parenleft" horiz-adv-x="273" d="M398 760Q354 727 310 683T227 584T156 466T106 331L98 300Q86 252 81 217T76 153Q76 64 102 -13T170 -138H152Q133 -117 116 -88T86 -21T65 59T57 151Q57 193 62 234T78 316Q96 384 125 448T194
569T279 674T376 760H398Z" />
<glyph unicode=")" glyph-name="parenright" horiz-adv-x="273" d="M-98 -138Q-54 -105 -10 -61T73 38T144 156T194 291L202 322Q214 370 219 405T224 469Q224 558 198 635T130 760H148Q167 739 184 710T214 643T235 563T243 471Q243 429 238 388T222 306Q204
238 175 174T106 53T21 -52T-76 -138H-98Z" />
<glyph unicode="*" glyph-name="asterisk" horiz-adv-x="435" d="M317 697L330 747H352L339 697L310 600H298L317 697ZM191 605L148 620L157 640L200 625L283 589L278 579L191 605ZM321 589L417 623L467 640L473 620L422 604L322 578L321 589ZM211 476L172 435L157
449L197 490L277 564L286 557L211 476ZM314 562L355 485L375 446L355 436L337 476L305 558L314 562Z" />
<glyph unicode="+" glyph-name="plus" horiz-adv-x="550" d="M276 298H48L52 314H280L339 549H359L300 314H528L524 298H296L237 63H217L276 298Z" />
<glyph unicode="," glyph-name="comma" horiz-adv-x="205" d="M-59 -147Q-14 -113 11 -76T48 -4H41Q16 -4 16 19Q16 33 25 42T48 52Q74 52 74 24Q74 14 70 4T60 -20Q52 -38 41 -56T15 -92T-14 -124T-45 -147H-59Z" />
<glyph unicode="-" glyph-name="hyphen" horiz-adv-x="348" d="M79 295L84 315H295L290 295H79Z" />
<glyph unicode="." glyph-name="period" horiz-adv-x="205" d="M41 -5Q28 -5 23 2T17 19Q17 29 22 37Q25 42 31 46T48 51Q61 51 66 44T72 27Q72 17 67 9Q64 4 58 0T41 -5Z" />
<glyph unicode="/" glyph-name="slash" horiz-adv-x="314" d="M-85 -151L375 740H395L-65 -151H-85Z" />
<glyph unicode="0" glyph-name="zero" horiz-adv-x="550" d="M219 -12Q138 -12 99 42T60 198Q60 247 67 304T91 419T131 528T190 621T269 686T369 710Q450 710 489 656T528 500Q528 451 521 394T497 279T457 170T398 77T319 12T219 -12ZM221 6Q313 6 379 84T479
308Q488 349 494 379T503 431T507 471T508 503Q508 546 500 580T475 640T432 678T367 692Q275 692 209 614T109 390Q100 349 94 319T85 267T81 227T80 195Q80 152 88 117T113 58T156 20T221 6Z" />
<glyph unicode="1" glyph-name="one" horiz-adv-x="550" d="M56 18H211L374 673L191 583L189 602L380 698H402L233 18H398L394 0H52L56 18Z" />
<glyph unicode="2" glyph-name="two" horiz-adv-x="550" d="M25 18L323 286Q382 339 420 385T474 486Q484 522 486 537T488 561Q488 626 453 659T338 692Q298 692 263 680T203 645V642Q235 637 235 610Q235 598 228 591T208 583Q196 583 188 591T180 614Q180 632
194 649T230 679T282 701T341 710Q430 710 470 671T510 560Q510 484 462 413T336 273L50 20L51 18H387L415 128H435L403 0H21L25 18Z" />
<glyph unicode="3" glyph-name="three" horiz-adv-x="550" d="M203 -12Q168 -12 139 -4T88 18T54 47T42 77Q42 92 51 102T74 113Q88 113 94 107T100 89Q100 76 91 67T64 54V50Q92 26 128 16T201 6Q277 6 331 43T403 146Q408 164 412 185T416 226Q416 259 405 283T373
324T325 349T264 357H219L223 375H277Q311 375 342 383T399 406T442 443T467 494Q472 512 476 533T480 574Q480 628 446 660T339 692Q297 692 259 680T196 645V642Q228 637 228 610Q228 598 221 591T201 583Q189 583 181 591T173 614Q173 632 187 649T225 679T279
701T342 710Q417 710 459 673T502 570Q502 485 454 432T323 366V363Q345 360 366 350T403 321T428 278T438 222Q438 170 421 127T374 53T300 5T203 -12Z" />
<glyph unicode="4" glyph-name="four" horiz-adv-x="550" d="M334 161H14L18 179L452 698H490L361 179H446L442 161H356L316 0H294L334 161ZM339 179L465 684H463L42 179H339Z" />
<glyph unicode="5" glyph-name="five" horiz-adv-x="550" d="M210 -12Q177 -12 150 -4T103 18T72 47T61 77Q61 92 70 102T93 113Q107 113 113 107T119 89Q119 76 110 67T83 54V50Q108 27 141 17T208 6Q289 6 346 51T425 177Q430 194 434 216T438 257Q438 333 402
365T307 398Q256 398 219 379T151 321L127 327L233 698H539L535 680H248L153 344L156 343Q187 382 223 399T311 416Q383 416 421 375T460 257Q460 206 444 158T395 72T317 11T210 -12Z" />
<glyph unicode="6" glyph-name="six" horiz-adv-x="550" d="M223 -12Q151 -12 111 30T71 154Q71 199 83 252T118 359T177 468T258 568T360 652T485 710L492 698Q420 673 359 629T248 529T165 411T113 288H117Q150 353 196 384T312 416Q382 416 422 377T463 257Q463
201 446 153T396 67T320 9T223 -12ZM227 6Q301 6 354 51T429 176Q434 193 437 215T441 257Q441 329 406 363T308 398Q234 398 181 353T106 228Q101 211 98 189T94 147Q94 70 130 38T227 6Z" />
<glyph unicode="7" glyph-name="seven" horiz-adv-x="550" d="M555 680H217L176 518H156L201 698H581L577 680L146 0H120L555 680Z" />
<glyph unicode="8" glyph-name="eight" horiz-adv-x="550" d="M219 -12Q138 -12 91 31T44 146Q44 189 58 226T99 293T160 341T238 367L239 371Q200 384 177 416T154 498Q154 543 171 582T218 649T288 694T376 710Q446 710 487 671T529 568Q529 529 516 496T481
435T428 390T363 365L362 361Q407 345 436 309T465 216Q465 167 446 126T394 54T316 6T219 -12ZM221 6Q302 6 359 48T434 164Q440 188 441 198T443 220Q443 281 401 318T288 356Q207 356 150 314T75 198Q69 174 68 164T66 142Q66 81 108 44T221 6ZM310 374Q381
374 431 413T498 516Q503 537 505 548T507 571Q507 626 472 659T373 692Q302 692 252 653T185 550Q180 529 178 518T176 495Q176 440 211 407T310 374Z" />
<glyph unicode="9" glyph-name="nine" horiz-adv-x="550" d="M106 0Q178 25 239 69T350 169T433 287T485 410H481Q448 345 402 314T286 282Q216 282 176 321T135 441Q135 496 152 545T202 631T278 689T375 710Q447 710 487 668T527 544Q527 499 515 446T480 339T421
230T340 130T237 46T113 -12L106 0ZM290 300Q364 300 417 345T492 470Q497 487 500 509T504 551Q504 628 468 660T371 692Q297 692 244 647T169 522Q164 505 161 483T157 441Q157 369 192 335T290 300Z" />
<glyph unicode=":" glyph-name="colon" horiz-adv-x="225" d="M51 -5Q38 -5 33 2T27 19Q27 29 32 37Q35 42 41 46T58 51Q71 51 76 44T82 27Q82 17 77 9Q74 4 68 0T51 -5ZM161 436Q148 436 143 443T137 460Q137 470 142 478Q145 483 151 487T168 492Q181 492 186
485T192 468Q192 458 187 450Q184 445 178 441T161 436Z" />
<glyph unicode=";" glyph-name="semicolon" horiz-adv-x="225" d="M161 436Q148 436 143 443T137 460Q137 470 142 478Q145 483 151 487T168 492Q181 492 186 485T192 468Q192 458 187 450Q184 445 178 441T161 436ZM-49 -147Q-4 -113 21 -76T58 -4H51Q26 -4 26
19Q26 33 35 42T58 52Q84 52 84 24Q84 14 80 4T70 -20Q62 -38 51 -56T25 -92T-4 -124T-35 -147H-49Z" />
<glyph unicode="&lt;" glyph-name="less" horiz-adv-x="550" d="M87 298L90 311L536 572L530 548L111 303V301L408 58L403 38L87 298Z" />
<glyph unicode="=" glyph-name="equal" horiz-adv-x="550" d="M70 387L74 403H550L546 387H70ZM26 209L30 225H506L502 209H26Z" />
<glyph unicode="&gt;" glyph-name="greater" horiz-adv-x="550" d="M45 62L464 307V309L167 552L172 572L488 312L485 299L39 38L45 62Z" />
<glyph unicode="?" glyph-name="question" horiz-adv-x="487" d="M204 349Q295 357 353 400T428 501Q436 530 439 548T443 580Q443 635 409 663T314 692Q267 692 231 678T171 643V640Q186 638 193 630T200 609Q200 598 193 590T173 582Q160 582 153 590T146 609Q146
627 159 645T196 677T250 701T316 710Q392 710 428 674T465 580Q465 535 449 494T402 419T324 364T218 335L178 176H161L204 349ZM129 -5Q117 -5 111 1T105 16Q105 27 109 35Q112 41 118 46T136 51Q148 51 154 45T160 30Q160 19 156 11Q153 5 147 0T129 -5Z" />
<glyph unicode="@" glyph-name="at" horiz-adv-x="837" d="M336 85Q357 85 378 99T419 137T455 188T485 243T508 295T521 334L534 385Q547 434 535 462T475 491Q434 491 405 471T354 420T320 349T296 271Q294 262 290 233T285 172Q285 155 287 140T295 112T311
93T336 85ZM533 -115Q516 -116 495 -117T454 -119T415 -120T385 -121Q224 -121 145 -41T66 191Q66 296 100 390T195 555T339 668T519 710Q644 710 712 637T780 428Q780 366 765 302T721 186T652 102T563 69Q541 69 527 76T503 97T491 126T487 160Q487 190 495 220L503
253H497Q486 224 470 192T433 133T386 87T331 69Q311 69 299 77T279 101T268 136T265 181Q265 235 278 292T318 397T383 475T472 506Q501 506 524 494T551 452H555L572 494H581L513 220Q509 203 506 189T503 160Q503 124 516 104T560 83Q585 83 611 95T663 133T709
200T744 302Q753 340 757 372T761 434Q761 554 700 624T519 694Q448 694 383 670T262 599T167 484T104 328Q94 290 91 255T87 187Q87 47 162 -29T387 -105H536L533 -115Z" />
<glyph unicode="A" glyph-name="A" horiz-adv-x="651" d="M-42 0L-38 18H18L422 698H452L518 18H574L570 0H392L396 18H496L476 234H170L42 18H142L138 0H-42ZM432 678L180 252H474L434 678H432Z" />
<glyph unicode="B" glyph-name="B" horiz-adv-x="621" d="M-3 0L1 18H81L246 680H166L170 698H447Q522 698 556 666T591 570Q591 530 579 496T544 434T491 390T424 367V364Q484 357 508 325T532 236Q532 185 517 142T472 67T400 18T302 0H-3ZM301 18Q374 18 427
53T497 156Q502 174 506 195T510 236Q510 294 480 325T378 356H187L103 18H301ZM370 374Q402 374 432 382T486 406T529 444T556 494Q562 513 565 534T569 574Q569 623 542 651T449 680H268L192 374H370Z" />
<glyph unicode="C" glyph-name="C" horiz-adv-x="603" d="M526 141Q507 109 484 81T433 33T370 0T292 -12Q243 -12 204 1T137 41T95 112T80 216Q80 267 88 323T114 434T160 539T226 627T314 687T426 710Q485 710 528 688T584 621H587L606 698H626L575 493H555L573
566Q576 579 576 589Q576 614 564 633T532 666T484 685T426 692Q317 692 241 615T129 394Q119 355 114 326T106 276T103 240T102 215Q102 108 149 57T292 6Q367 6 420 45T511 148L526 141V141Z" />
<glyph unicode="D" glyph-name="D" horiz-adv-x="675" d="M1 18H81L246 680H166L170 698H412Q463 698 504 686T574 648T618 580T634 482Q634 427 625 371T596 261T548 160T480 77T390 21T278 0H-3L1 18ZM278 18Q330 18 378 37T466 93T537 183T585 304Q595 344
600 373T608 423T611 458T612 483Q612 584 562 632T412 680H268L103 18H278Z" />
<glyph unicode="E" glyph-name="E" horiz-adv-x="581" d="M430 359H188L103 18H445L478 148H498L461 0H-3L1 18H81L246 680H166L170 698H614L577 550H557L590 680H268L192 377H434L455 462H475L428 274H408L430 359Z" />
<glyph unicode="F" glyph-name="F" horiz-adv-x="548" d="M1 18H81L246 680H166L170 698H604L567 550H547L580 680H268L190 366H431L453 452H473L426 264H406L427 348H185L103 18H203L199 0H-3L1 18Z" />
<glyph unicode="G" glyph-name="G" horiz-adv-x="687" d="M503 101H500Q473 51 422 20T306 -12Q253 -12 212 1T141 41T96 112T80 216Q80 267 89 323T116 434T164 539T234 627T328 687T447 710Q474 710 501 705T552 687T592 657T614 614H617L638 698H658L607 493H587L605
566Q608 579 608 589Q608 614 595 633T559 666T507 685T444 692Q389 692 339 673T246 612T170 505T117 348Q109 310 106 273T102 215Q102 108 152 57T306 6Q346 6 382 19T445 54T492 104T518 162L552 302H420L424 320H649L645 302H572L497 0H481L503 101Z" />
<glyph unicode="H" glyph-name="H" horiz-adv-x="726" d="M423 0L427 18H507L592 358H188L103 18H183L179 0H-3L1 18H81L246 680H166L170 698H352L348 680H268L192 376H596L672 680H592L596 698H778L774 680H694L529 18H609L605 0H423Z" />
<glyph unicode="I" glyph-name="I" horiz-adv-x="300" d="M-3 0L1 18H81L246 680H166L170 698H352L348 680H268L103 18H183L179 0H-3Z" />
<glyph unicode="J" glyph-name="J" horiz-adv-x="418" d="M13 22Q22 14 42 9T88 4Q203 4 234 128L371 680H271L275 698H477L473 680H393L254 121Q237 55 196 22T92 -12Q48 -12 18 6T-13 56Q-13 68 -6 76T14 85Q41 85 41 59Q41 37 13 25V22V22Z" />
<glyph unicode="K" glyph-name="K" horiz-adv-x="643" d="M383 0L387 18H479L312 386L158 239L103 18H183L179 0H-3L1 18H81L246 680H166L170 698H352L348 680H268L166 272H168L313 410L602 680H512L516 698H694L690 680H628L328 399L502 18H564L560 0H383Z" />
<glyph unicode="L" glyph-name="L" horiz-adv-x="555" d="M268 680L103 18H416L449 149H469L432 0H-3L1 18H81L246 680H166L170 698H352L348 680H268Z" />
<glyph unicode="M" glyph-name="M" horiz-adv-x="814" d="M862 680H782L617 18H697L693 0H511L515 18H595L759 678H756L616 502L405 236L322 502L269 675H266L103 18H183L179 0H-3L1 18H81L246 680H166L170 698H283L412 278H415L748 698H866L862 680Z" />
<glyph unicode="N" glyph-name="N" horiz-adv-x="744" d="M1 18H81L246 680H166L170 698H283L523 25H526L690 680H610L614 698H796L792 680H712L542 0H510L270 673H267L103 18H183L179 0H-3L1 18Z" />
<glyph unicode="O" glyph-name="O" horiz-adv-x="682" d="M293 -12Q189 -12 135 46T80 216Q80 267 88 323T115 434T160 539T226 627T315 687T427 710Q531 710 585 652T640 482Q640 431 632 375T605 264T560 159T494 71T405 11T293 -12ZM293 6Q347 6 394 26T479
85T546 178T591 304Q601 344 606 373T614 423T617 458T618 483Q618 586 570 639T427 692Q373 692 326 672T241 613T174 520T129 394Q119 354 114 325T106 274T103 239T102 215Q102 112 150 59T293 6Z" />
<glyph unicode="P" glyph-name="P" horiz-adv-x="568" d="M457 698Q532 698 566 666T601 570Q601 523 586 480T542 404T471 352T375 332H181L103 18H203L199 0H-3L1 18H81L246 680H166L170 698H457ZM186 350H374Q446 350 497 387T566 494Q571 512 575 533T579
574Q579 623 552 651T459 680H268L186 350Z" />
<glyph unicode="Q" glyph-name="Q" horiz-adv-x="682" d="M470 -173Q426 -173 404 -164T365 -130L281 -12Q183 -8 132 49T80 216Q80 267 88 323T115 434T160 539T226 627T315 687T427 710Q531 710 585 652T640 482Q640 432 632 377T607 267T562 163T498 75T412
14T304 -12L384 -121Q398 -140 418 -147T474 -155H484L480 -173H470ZM293 6Q347 6 394 26T479 85T546 178T591 304Q601 344 606 373T614 423T617 458T618 483Q618 586 570 639T427 692Q373 692 326 672T241 613T174 520T129 394Q119 354 114 325T106 274T103 239T102
215Q102 112 150 59T293 6Z" />
<glyph unicode="R" glyph-name="R" horiz-adv-x="628" d="M1 18H81L246 680H166L170 698H457Q532 698 566 666T601 570Q601 525 587 483T545 408T477 355T385 332L456 60Q468 18 513 18H549L545 0H509Q477 0 459 14T433 60L363 332H181L103 18H183L179 0H-3L1
18ZM374 350Q446 350 497 387T566 494Q571 512 575 533T579 574Q579 623 552 651T459 680H268L186 350H374Z" />
<glyph unicode="S" glyph-name="S" horiz-adv-x="567" d="M241 6Q292 6 332 20T402 61T446 122T462 199Q462 257 431 289T342 344L269 373Q213 395 182 433T151 530Q151 572 168 605T215 662T285 697T370 710Q398 710 425 705T476 688T515 660T538 621H541L560
698H580L529 493H509L527 566Q530 579 530 589Q530 615 517 634T482 666T431 685T369 692Q321 692 285 679T224 644T186 592T173 531Q173 474 201 442T283 389L356 360Q426 332 455 293T484 199Q484 155 468 117T422 50T346 5T240 -12Q210 -12 182 -7T129 10T88
38T65 77H62L43 0H23L77 215H97L76 132Q74 125 74 120T73 109Q73 83 86 64T123 32T176 13T241 6Z" />
<glyph unicode="T" glyph-name="T" horiz-adv-x="610" d="M136 18H236L401 680H168L136 550H116L153 698H680L643 550H623L656 680H423L258 18H358L354 0H132L136 18Z" />
<glyph unicode="U" glyph-name="U" horiz-adv-x="696" d="M258 680L154 261Q144 222 138 191T132 132Q132 74 170 40T289 6Q344 6 385 20T456 64T509 143T548 261L652 680H572L576 698H758L754 680H674L570 261Q550 182 525 130T465 46T388 1T289 -12Q201 -12
156 25T110 136Q110 163 116 194T132 261L236 680H156L160 698H342L338 680H258Z" />
<glyph unicode="V" glyph-name="V" horiz-adv-x="622" d="M654 680L265 0H232L183 680H127L131 698H309L305 680H205L233 285L251 20H253L405 286L630 680H530L534 698H714L710 680H654Z" />
<glyph unicode="W" glyph-name="W" horiz-adv-x="853" d="M174 680H118L122 698H298L294 680H194L192 20H194L514 698H550L548 20H550L860 680H760L764 698H944L940 680H884L561 0H528L530 680H528L206 0H172L174 680Z" />
<glyph unicode="X" glyph-name="X" horiz-adv-x="609" d="M362 18H452L330 339H327L44 18H135L131 0H-43L-39 18H19L320 359L194 680H134L138 698H310L306 680H216L335 373H338L615 680H523L527 698H703L699 680H639L345 353L474 18H534L530 0H358L362 18Z" />
<glyph unicode="Y" glyph-name="Y" horiz-adv-x="599" d="M131 18H231L297 285L187 680H131L135 698H313L309 680H208L312 306H314L603 680H500L504 698H687L683 680H627L319 284L253 18H353L349 0H127L131 18Z" />
<glyph unicode="Z" glyph-name="Z" horiz-adv-x="593" d="M1 18L586 680H197L164 550H144L181 698H616L612 680L27 18H447L480 148H500L463 0H-3L1 18Z" />
<glyph unicode="[" glyph-name="bracketleft" horiz-adv-x="270" d="M220 760H345L341 743H235L21 -121H126L122 -138H-4L220 760Z" />
<glyph unicode="\" glyph-name="backslash" horiz-adv-x="314" d="M177 -151L166 740H184L195 -151H177Z" />
<glyph unicode="]" glyph-name="bracketright" horiz-adv-x="270" d="M79 -138H-46L-42 -121H64L278 743H173L177 760H303L79 -138Z" />
<glyph unicode="^" glyph-name="asciicircum" horiz-adv-x="550" d="M505 322L377 678H374L73 322L59 334L369 698H389L522 329L505 322Z" />
<glyph unicode="_" glyph-name="underscore" horiz-adv-x="541" d="M-65 -123H418L414 -141H-69L-65 -123Z" />
<glyph unicode="`" glyph-name="grave" horiz-adv-x="600" d="M216 739L235 751L322 595L312 588L216 739Z" />
<glyph unicode="a" glyph-name="a" horiz-adv-x="505" d="M140 -12Q113 -12 96 -2T68 27T54 68T50 117Q50 184 66 255T115 384T195 480T308 518Q341 518 366 503T400 447H404L427 506H439L316 14L334 6L469 119L476 111L387 28Q361 3 349 -4T325 -12Q317 -12 307
-8T297 13Q297 24 301 40L346 217L341 218Q327 186 308 146T264 71T208 12T140 -12ZM309 501Q267 501 233 483T171 433T124 356T91 260Q80 213 76 180T72 117Q72 94 74 74T85 39T107 15T144 6Q161 6 184 16T229 51Q253 78 275 114T317 188T352 265T375 336L381
360Q400 434 380 467T309 501Z" />
<glyph unicode="b" glyph-name="b" horiz-adv-x="484" d="M175 -12Q142 -12 117 3T83 59H79L56 0H44L229 742H144L146 753L256 764L137 289L142 288Q155 320 174 360T219 435T275 494T343 518Q370 518 387 508T415 479T429 438T433 389Q433 322 417 251T368 122T288
26T175 -12ZM174 5Q216 5 250 23T312 73T359 150T392 246Q403 293 407 326T411 389Q411 411 409 431T398 467T376 491T339 500Q322 500 299 490T254 455Q230 428 208 392T166 318T131 241T108 170L102 146Q83 72 103 39T174 5Z" />
<glyph unicode="c" glyph-name="c" horiz-adv-x="395" d="M152 -12Q98 -12 74 22T50 127Q50 162 55 205T72 291T102 376T146 448T205 499T280 518Q326 518 353 497T381 446Q381 432 374 425T355 418Q344 418 337 424T330 442Q330 455 339 462T363 472V475Q352
486 332 494T280 502Q250 502 221 487T167 441T121 366T88 262Q87 257 85 244T79 213T74 172T72 127Q72 104 75 83T87 44T112 17T154 6Q200 6 244 46T329 161L341 156Q294 64 247 26T152 -12Z" />
<glyph unicode="d" glyph-name="d" horiz-adv-x="510" d="M140 -12Q113 -12 96 -2T68 27T54 68T50 117Q50 184 66 255T115 384T195 480T308 518Q341 518 366 503T400 447H404L477 742H392L394 753L504 764L316 14L334 6L469 119L476 111L387 28Q361 3 349 -4T325
-12Q317 -12 307 -8T297 13Q297 24 301 40L346 217L341 218Q327 186 308 146T264 71T208 12T140 -12ZM309 501Q267 501 233 483T171 433T124 356T91 260Q80 213 76 180T72 117Q72 94 74 74T85 39T107 15T144 6Q161 6 184 16T229 51Q253 78 275 114T317 188T352
265T375 336L381 360Q400 434 380 467T309 501Z" />
<glyph unicode="e" glyph-name="e" horiz-adv-x="424" d="M153 -12Q98 -12 74 22T50 128Q50 163 56 205T74 291T105 375T151 448T212 499T290 518Q309 518 327 514T360 498T383 470T392 426Q392 358 322 317T89 262Q83 232 78 199T72 128Q72 105 75 83T87 44T112
17T155 6Q205 6 254 45T345 161L357 156Q333 109 308 77T257 25T205 -3T153 -12ZM92 274Q157 281 208 292T296 321T351 364T371 424Q371 438 367 452T354 477T330 495T292 502Q260 502 230 488T173 445T126 374T92 274Z" />
<glyph unicode="f" glyph-name="f" horiz-adv-x="280" d="M-62 -212Q-86 -212 -101 -201T-117 -172Q-117 -161 -110 -154T-91 -146Q-79 -146 -73 -153T-66 -170Q-66 -179 -72 -186T-86 -198V-201H-71Q-26 -201 0 -170T41 -80L183 489H82L86 506H187L221 645Q235
703 269 736T355 770Q379 770 394 759T410 730Q410 719 403 712T384 704Q372 704 366 711T359 728Q359 737 365 744T379 756V759H364Q315 759 285 726T240 638L208 506H336L332 489H203L60 -87Q45 -147 16 -179T-62 -212Z" />
<glyph unicode="g" glyph-name="g" horiz-adv-x="454" d="M213 190Q193 190 178 194Q170 194 156 190T128 178T104 157T93 125Q93 110 104 99T151 73L268 28Q313 11 339 -10T365 -74Q365 -112 345 -138T291 -180T218 -204T137 -212Q56 -212 10 -184T-37 -104Q-37
-72 -19 -48T26 -5T88 25T156 46L157 50L141 56Q109 68 90 83T71 124Q71 143 79 156T101 178T130 191T159 198V200Q127 214 113 244T98 317Q98 360 112 396T150 460T208 502T278 518Q338 518 369 476L390 532Q403 565 431 565Q444 565 451 558T458 539Q458 528
451 521T431 513Q423 513 416 519T409 539H406L374 467Q393 438 393 391Q393 348 379 312T341 248T283 206T213 190ZM174 44Q137 33 103 19T43 -13T1 -53T-15 -102Q-15 -126 -2 -144T32 -173T80 -189T138 -195Q168 -195 203 -190T270 -170T322 -133T343 -74Q343
-55 337 -42T319 -19T292 -2T260 11L174 44ZM217 207Q242 207 266 217T309 244T342 283T362 329Q368 352 369 368T371 391Q371 443 349 472T274 501Q248 501 225 491T182 464T149 425T129 379Q123 356 122 340T120 317Q120 265 142 236T217 207Z" />
<glyph unicode="h" glyph-name="h" horiz-adv-x="521" d="M338 -12Q330 -12 320 -8T310 13Q310 24 314 40L417 425Q422 447 422 458Q422 500 377 500Q327 500 272 448Q248 425 222 392T174 321T134 244T107 169L65 0H44L229 742H144L146 753L256 764L134 278L139
277Q155 310 179 351T235 430T303 492T383 518Q416 518 429 502T443 461Q443 447 438 425L329 14L347 6L482 119L489 111L400 28Q374 3 362 -4T338 -12Z" />
<glyph unicode="i" glyph-name="i" horiz-adv-x="271" d="M90 -12Q82 -12 73 -8T63 13Q63 24 67 40L179 490H94L96 501L206 512L82 14L100 6L235 119L242 111L153 28Q127 3 114 -4T90 -12ZM238 670Q227 670 222 676T216 691Q216 701 221 709Q228 720 244 720Q255
720 260 714T266 699Q266 695 265 691T261 681Q254 670 238 670Z" />
<glyph unicode="j" glyph-name="j" horiz-adv-x="246" d="M-66 -212Q-90 -212 -105 -201T-121 -172Q-121 -161 -114 -154T-95 -146Q-83 -146 -77 -153T-70 -170Q-70 -179 -76 -186T-90 -198V-201H-75Q-30 -201 -4 -170T37 -80L179 490H94L96 501L206 512L56 -87Q41
-147 12 -179T-66 -212ZM238 670Q227 670 222 676T216 691Q216 701 221 709Q228 720 244 720Q255 720 260 714T266 699Q266 695 265 691T261 681Q254 670 238 670Z" />
<glyph unicode="k" glyph-name="k" horiz-adv-x="494" d="M309 -12Q293 -12 283 9L192 221Q306 278 364 342T422 457Q422 478 412 489T377 500Q327 500 272 448Q248 425 222 392T174 321T134 244T107 169L65 0H44L230 742H145L147 753L257 764L134 278L139 277Q155
310 179 351T235 430T303 492T383 518Q415 518 429 503T443 460Q443 421 418 383T357 313T282 256T215 218L305 11H323L451 118L458 111L370 28Q344 3 331 -4T309 -12Z" />
<glyph unicode="l" glyph-name="l" horiz-adv-x="263" d="M77 -12Q69 -12 60 -8T50 13Q50 24 54 40L230 742H145L147 753L257 764L69 14L87 6L222 119L229 111L140 28Q114 3 101 -4T77 -12Z" />
<glyph unicode="m" glyph-name="m" horiz-adv-x="800" d="M179 490H94L96 501L206 512L147 278L152 277Q167 308 191 349T246 428T315 492T395 518Q428 518 441 501T455 458Q455 438 449 419L413 278L418 277Q433 307 457 348T512 427T581 491T661 518Q695 518
708 502T722 461Q722 447 717 425L608 14L626 6L761 119L768 111L679 28Q653 3 641 -4T617 -12Q609 -12 599 -8T589 13Q589 24 593 40L696 425Q701 447 701 458Q701 500 656 500Q606 500 551 448Q527 425 501 392T453 321T413 244T386 169L344 0H323L429 423Q431
433 432 441T434 457Q434 500 390 500Q340 500 285 448Q261 425 235 392T187 321T147 244T120 169L78 0H57L179 490Z" />
<glyph unicode="n" glyph-name="n" horiz-adv-x="534" d="M179 490H94L96 501L206 512L147 278L152 277Q168 310 192 351T248 430T316 492T396 518Q429 518 442 502T456 461Q456 447 451 425L342 14L360 6L495 119L502 111L413 28Q387 3 375 -4T351 -12Q343 -12
333 -8T323 13Q323 24 327 40L430 425Q435 447 435 458Q435 500 390 500Q340 500 285 448Q261 425 235 392T187 321T147 244T120 169L78 0H57L179 490Z" />
<glyph unicode="o" glyph-name="o" horiz-adv-x="461" d="M177 -12Q109 -12 80 31T50 149Q50 217 68 283T117 401T191 486T284 518Q352 518 381 474T411 357Q411 289 393 223T344 105T269 20T177 -12ZM177 5Q215 5 246 25T303 80T346 158T376 252Q385 290 387
312T389 357Q389 389 384 415T367 461T335 490T284 501Q246 501 215 481T158 426T115 348T85 254Q76 216 74 194T72 149Q72 117 77 91T94 45T126 16T177 5Z" />
<glyph unicode="p" glyph-name="p" horiz-adv-x="497" d="M11 -183L179 490H94L96 501L206 512L150 289L155 288Q168 320 187 360T232 435T288 494T356 518Q383 518 400 508T428 479T442 438T446 389Q446 322 430 251T381 122T301 26T188 -12Q155 -12 130 3T96
59H92L32 -183H130L126 -200H-66L-62 -183H11ZM187 5Q229 5 263 23T325 73T372 150T405 246Q416 293 420 326T424 389Q424 411 422 431T411 467T389 491T352 500Q335 500 312 490T267 455Q243 428 221 392T179 318T144 241T121 170L115 146Q96 72 116 39T187 5Z"
/>
<glyph unicode="q" glyph-name="q" horiz-adv-x="484" d="M147 -183H245L346 217L341 218Q327 186 308 146T264 71T208 12T140 -12Q113 -12 96 -2T68 27T54 68T50 117Q50 184 66 255T115 384T195 480T308 518Q341 518 366 503T400 447H404L427 506H439L266 -183H339L335
-200H143L147 -183ZM309 501Q267 501 233 483T171 433T124 356T91 260Q80 213 76 180T72 117Q72 94 74 74T85 39T107 15T144 6Q161 6 184 16T229 51Q253 78 275 114T317 188T352 265T375 336L381 360Q400 434 380 467T309 501Z" />
<glyph unicode="r" glyph-name="r" horiz-adv-x="372" d="M179 490H94L96 501L206 512L150 290L155 289Q168 319 187 359T231 434T286 493T351 518Q375 518 387 508T400 481Q400 468 393 460T374 452Q362 452 356 459T349 476Q349 485 355 492T369 504V507H354Q336
507 316 497T270 460Q252 442 230 408T187 334T147 250T120 169L78 0H57L179 490Z" />
<glyph unicode="s" glyph-name="s" horiz-adv-x="347" d="M91 -12Q54 -12 33 -1T11 33Q11 44 18 51T37 59Q49 59 55 52T62 35Q62 26 56 19T42 7V4Q49 2 59 1T81 0Q105 0 132 6T183 26T223 65T239 127Q239 144 236 157T226 183T204 213T169 250Q135 284 118 311T100
377Q100 411 113 437T148 482T199 509T261 518Q298 518 319 507T341 473Q341 462 334 455T315 447Q303 447 297 454T290 471Q290 480 296 487T310 499V502Q299 506 274 506Q250 506 223 500T174 480T136 441T121 379Q121 362 124 349T134 323T155 294T191 256Q227
220 243 193T260 129Q260 95 247 69T210 24T156 -3T91 -12Z" />
<glyph unicode="t" glyph-name="t" horiz-adv-x="315" d="M96 506H131Q155 506 168 513T188 541L224 650H233L197 506H337L333 489H193L74 14L92 6L256 111L262 103L142 17Q116 -2 105 -7T82 -12Q74 -12 65 -8T55 13Q55 24 59 40L171 489H92L96 506Z" />
<glyph unicode="u" glyph-name="u" horiz-adv-x="527" d="M124 -12Q90 -12 77 4T63 45Q63 59 68 81L177 490H92L94 501L204 512L89 81Q84 59 84 48Q84 6 129 6Q179 6 234 58Q258 81 284 114T332 185T372 262T399 337L441 506H462L339 14L357 6L492 119L499 111L410
28Q384 3 372 -4T348 -12Q340 -12 330 -8T320 13Q320 23 325 43L372 228L367 229Q351 196 327 155T271 76T203 14T124 -12Z" />
<glyph unicode="v" glyph-name="v" horiz-adv-x="438" d="M157 24L423 488H351L356 506H494L489 488H443L161 0H137L95 488H49L54 506H193L188 488H116L153 24H157Z" />
<glyph unicode="w" glyph-name="w" horiz-adv-x="637" d="M358 486L136 0H108L107 488H61L66 506H202L197 488H125V24H129L352 510H379L376 24H380L604 488H532L537 506H675L670 488H624L385 0H359L362 486H358Z" />
<glyph unicode="x" glyph-name="x" horiz-adv-x="519" d="M317 11H336L465 118L472 111L383 28Q357 3 346 -4T324 -12Q315 -12 307 -8T297 9L256 230H252Q243 212 232 189T206 142T175 93T139 48Q114 22 87 5T30 -12Q7 -12 -7 -2T-22 27Q-22 40 -15 47T4 55Q15
55 22 48T29 31Q29 20 23 13T8 3V0H22Q45 0 71 13T127 57T187 135T251 253L203 495H184L55 388L48 395L137 478Q163 503 174 510T196 518Q205 518 213 514T223 497L264 276H268Q277 294 288 317T314 364T345 413T381 458Q406 484 433 501T490 518Q513 518 527 508T542
479Q542 466 535 459T516 451Q505 451 498 458T491 475Q491 486 497 493T512 503V506H498Q475 506 449 493T393 449T333 371T269 253L317 11Z" />
<glyph unicode="y" glyph-name="y" horiz-adv-x="439" d="M-61 -212Q-86 -212 -101 -201T-116 -172Q-116 -161 -110 -154T-90 -146Q-77 -146 -71 -153T-64 -172Q-64 -191 -85 -198V-201H-73Q-19 -201 19 -173T94 -82L137 -7L95 488H49L54 506H193L188 488H116L153
21H158L425 488H353L358 506H496L491 488H445L110 -91Q74 -154 34 -183T-61 -212Z" />
<glyph unicode="z" glyph-name="z" horiz-adv-x="469" d="M21 44Q25 58 32 67T49 85L420 450L165 501L149 493L106 350L96 352L128 488Q132 504 140 511T168 518Q179 518 203 513T262 500T337 482T423 461L434 506H453L442 462Q438 448 431 439T414 421L43 56L335
5L351 13L394 156L404 154L372 18Q368 2 360 -5T332 -12Q320 -12 292 -7T225 6T139 24T40 45L29 0H10L21 44Z" />
<glyph unicode="{" glyph-name="braceleft" horiz-adv-x="304" d="M51 333Q99 333 128 352T169 420L249 740Q252 752 257 756T276 760H375L371 743H269L189 421Q176 368 146 344T64 319L60 303Q95 300 117 281T139 229Q139 222 138 216T135 201L55 -121H155L151
-138H56Q34 -138 34 -125Q34 -122 36 -114L115 202Q117 210 118 216T119 229Q119 261 98 275T39 289L51 333Z" />
<glyph unicode="|" glyph-name="bar" horiz-adv-x="322" d="M55 -138L279 760H297L73 -138H55Z" />
<glyph unicode="}" glyph-name="braceright" horiz-adv-x="305" d="M286 289Q238 289 209 270T168 202L88 -118Q85 -130 80 -134T61 -138H-38L-34 -121H68L148 201Q161 254 191 278T273 303L277 319Q241 322 220 340T198 393Q198 400 199 406T202 421L282 743H182L186
760H281Q303 760 303 747Q303 744 301 736L222 420Q220 412 219 406T218 393Q218 361 239 347T298 333L286 289Z" />
<glyph unicode="~" glyph-name="asciitilde" horiz-adv-x="550" d="M409 257Q397 257 386 258T360 264T326 276T281 296Q257 307 240 314T211 326T187 331T163 333Q134 333 111 325T62 291L51 304Q77 330 104 340T163 351Q175 351 186 350T212 344T246 332T291
312Q315 301 332 294T361 282T385 277T409 275Q438 275 461 284T510 317L521 304Q495 278 468 268T409 257Z" />
<glyph unicode="&#xa0;" glyph-name="uni00A0" horiz-adv-x="212" />
<glyph unicode="&#xa1;" glyph-name="exclamdown" horiz-adv-x="236" d="M132 330H144L89 91L19 -192H-3L67 91L132 330ZM171 455Q159 455 153 461T147 476Q147 487 151 495Q154 501 160 506T178 511Q190 511 196 505T202 490Q202 479 198 471Q195 465 189 460T171 455Z" />
<glyph unicode="&#xa2;" glyph-name="cent" horiz-adv-x="395" d="M143 -12Q93 -9 72 25T50 127Q50 162 55 205T72 291T102 376T145 448T202 499T275 518L301 620H319L293 517Q334 514 357 494T381 446Q381 432 374 425T355 418Q344 418 337 424T330 442Q330 455
339 462T363 472V475Q352 486 334 493T289 502L165 7Q209 12 251 51T331 161L341 156Q296 68 252 30T161 -12L135 -114H117L143 -12ZM72 127Q72 105 74 84T85 46T108 18T147 6L271 502Q213 497 163 437T88 262Q87 257 85 244T79 213T74 172T72 127Z" />
<glyph unicode="&#xa3;" glyph-name="sterling" horiz-adv-x="540" d="M71 330H159Q157 370 153 412T149 488Q149 528 160 568T196 639T262 690T363 710Q396 710 424 703T474 682T508 652T520 615Q520 584 493 584Q482 584 475 591T467 611Q467 638 501 643V645Q483
665 448 678T361 692Q309 692 273 675T215 630T182 566T172 493Q172 459 176 415T182 330H380L376 313H183V291Q183 192 141 128T22 20V18H394L426 148H447L410 0H1L8 25Q40 45 68 69T116 125T149 194T161 282Q161 290 161 297T160 313H67L71 330Z" />
<glyph unicode="&#xa5;" glyph-name="yen" horiz-adv-x="599" d="M141 343H302L187 680H131L135 698H313L309 680H208L322 347H324L603 680H500L504 698H687L683 680H627L343 343H504L500 326H329L294 186H465L461 169H290L253 18H353L349 0H127L131 18H231L268
169H98L102 186H272L307 326H137L141 343Z" />
<glyph unicode="&#xa6;" glyph-name="brokenbar" horiz-adv-x="322" d="M192 412L279 760H297L210 412H192ZM55 -138L142 210H160L73 -138H55Z" />
<glyph unicode="&#xa7;" glyph-name="section" horiz-adv-x="506" d="M159 -154Q111 -154 82 -135T53 -87Q53 -73 60 -66T79 -59Q90 -59 97 -65T104 -83Q104 -96 95 -103T72 -113V-116Q94 -138 154 -138Q217 -138 257 -103T298 -7Q298 25 285 48T245 97L168 175Q139
204 117 237T94 313Q94 370 132 409T236 465V470Q218 492 209 514T199 564Q199 598 212 625T247 671T298 700T359 710Q407 710 436 691T465 643Q465 629 458 622T439 615Q428 615 421 621T414 639Q414 652 423 659T446 669V672Q424 694 364 694Q301 694 261 659T220
563Q220 531 233 508T273 459L350 381Q379 352 401 319T424 243Q424 186 386 147T282 91V86Q300 64 309 42T319 -8Q319 -43 306 -70T271 -115T220 -144T159 -154ZM271 99Q331 117 366 152T402 242Q402 263 396 281T381 314T360 343T337 367L260 444L247 457Q187
439 152 404T116 314Q116 293 122 275T137 242T158 213T181 189L258 112L271 99Z" />
<glyph unicode="&#xa8;" glyph-name="dieresis" horiz-adv-x="600" d="M237 642Q226 642 221 648T216 662Q216 670 220 677Q223 682 228 686T243 690Q254 690 259 684T264 670Q264 662 260 655Q257 650 252 646T237 642ZM419 642Q408 642 403 648T398 662Q398
670 402 677Q405 682 410 686T425 690Q436 690 441 684T446 670Q446 662 442 655Q439 650 434 646T419 642Z" />
<glyph unicode="&#xa9;" glyph-name="copyright" horiz-adv-x="730" d="M310 -12Q191 -12 131 55T71 238Q71 284 81 337T111 442T163 543T238 629T337 688T461 710Q580 710 640 643T700 460Q700 414 690 361T660 256T608 155T533 69T434 10T310 -12ZM314 3Q381
3 437 27T538 97T615 207T666 352Q676 394 678 421T681 466Q681 572 624 633T457 695Q390 695 334 671T233 601T156 491T105 346Q95 304 93 277T90 232Q90 126 147 65T314 3ZM321 149Q248 149 248 254Q248 280 252 311T267 375T292 437T327 490T375 528T435 543Q470
543 490 526T510 488Q510 476 503 470T488 464Q480 464 474 469T468 484Q468 493 475 499T495 508V511Q485 519 473 524T439 529Q386 529 346 488T284 356Q279 333 276 318T271 292T269 271T268 251Q268 235 270 220T278 192T296 173T325 165Q359 165 396 193T464
278L471 274Q434 203 395 176T321 149Z" />
<glyph unicode="&#xaa;" glyph-name="ordfeminine" horiz-adv-x="361" d="M142 354Q113 354 101 370T88 409Q88 436 103 458T148 498T217 527T307 544L316 584Q318 595 321 609T325 635Q325 661 308 676T254 691Q230 691 210 686T174 670V668Q194 663 194 646Q194
627 174 627Q154 627 154 648Q154 667 182 685T258 704Q305 704 324 685T344 635Q344 621 341 608T335 584L280 372L288 367L381 449L386 443L313 371Q302 360 296 357T282 354Q263 354 263 369Q263 372 264 377T267 391L292 476H287Q278 457 264 436T230 396T189
366T142 354ZM145 368Q170 368 196 386T245 429T283 481T303 526L304 531Q208 520 157 487T106 410Q106 393 115 381T145 368Z" />
<glyph unicode="&#xab;" glyph-name="guillemotleft" horiz-adv-x="451" d="M184 106L51 285L55 303L279 482L286 471L76 291L195 114L184 106ZM364 106L231 285L235 303L459 482L466 471L256 291L375 114L364 106Z" />
<glyph unicode="&#xac;" glyph-name="logicalnot" horiz-adv-x="550" d="M441 104L489 298H49L53 314H513L461 104H441Z" />
<glyph unicode="&#xad;" glyph-name="uni00AD" horiz-adv-x="348" d="M79 295L84 315H295L290 295H79Z" />
<glyph unicode="&#xae;" glyph-name="registered" horiz-adv-x="465" d="M254 298Q219 298 189 307T138 336T104 385T92 455Q92 504 109 550T157 632T231 688T328 710Q363 710 393 701T444 672T478 623T490 553Q490 503 473 457T425 376T351 320T254 298ZM255
311Q283 311 314 320T374 350T426 404T462 486Q467 507 469 526T472 558Q472 595 460 621T428 664T382 689T327 697Q299 697 268 688T208 658T156 604T120 522Q115 501 113 482T110 450Q110 413 122 387T154 344T200 319T255 311ZM376 568Q376 538 358 519T305
496L327 426Q332 410 355 410H362L359 398H342Q328 398 322 404T311 425L289 496H246L224 410H251L248 398H181L184 410H208L255 598H231L234 610H324Q350 610 363 598T376 568ZM299 508Q320 508 334 518T354 545Q357 556 358 561T359 569Q359 581 350 589T321
598H271L249 508H299Z" />
<glyph unicode="&#xaf;" glyph-name="overscore" horiz-adv-x="600" d="M204 676H462L458 659H200L204 676Z" />
<glyph unicode="&#xb0;" glyph-name="degree" horiz-adv-x="470" d="M285 374Q255 374 229 384T184 414T155 460T144 521Q144 560 157 594T193 654T250 695T323 710Q353 710 379 700T424 670T453 624T464 563Q464 524 451 490T415 430T358 389T285 374ZM288 390Q322
390 351 403T401 440T433 496T445 565Q445 625 410 659T320 694Q285 694 257 681T207 644T175 588T163 519Q163 459 198 425T288 390Z" />
<glyph unicode="&#xb1;" glyph-name="plusminus" horiz-adv-x="550" d="M289 351H61L65 367H293L352 602H372L313 367H541L537 351H309L251 116H231L289 351ZM-22 16H453L449 0H-26L-22 16Z" />
<glyph unicode="&#xb2;" glyph-name="twosuperior" horiz-adv-x="336" d="M67 349L220 464Q270 502 296 531T332 590Q335 600 336 608T337 625Q337 656 316 672T250 688Q223 688 199 682T157 663V661Q181 655 181 634Q181 612 159 612Q148 612 142 618T135 637Q135
648 143 660T166 681T204 697T254 704Q303 704 329 683T356 628Q356 583 325 541T229 452L87 349L86 346H294L311 414H330L309 329H62L67 349Z" />
<glyph unicode="&#xb3;" glyph-name="threesuperior" horiz-adv-x="339" d="M182 323Q156 323 136 329T103 344T82 363T75 384Q75 397 82 405T101 414Q123 414 123 394Q123 384 115 376T93 365V363Q110 349 133 344T178 339Q221 339 257 358T307 422Q309 430 310
438T311 453Q311 482 289 497T218 513H179L183 529H221Q277 529 304 547T342 602Q345 614 345 625Q345 656 324 672T258 688Q231 688 207 682T165 663V661Q189 655 189 634Q189 612 167 612Q156 612 150 618T143 637Q143 648 151 660T174 681T212 697T262 704Q311
704 337 683T364 628Q364 604 356 586T334 554T303 532T269 521L268 518Q295 513 312 497T330 453Q330 422 318 398T284 358T237 332T182 323Z" />
<glyph unicode="&#xb4;" glyph-name="acute" horiz-adv-x="600" d="M312 588L303 595L429 751L445 739L312 588Z" />
<glyph unicode="&#xb5;" glyph-name="mu" horiz-adv-x="527" d="M177 490H92L94 501L204 512L89 81Q84 59 84 48Q84 6 129 6Q179 6 234 58Q258 81 284 114T332 185T372 262T399 337L441 506H462L339 14L357 6L492 119L499 111L410 28Q384 3 372 -4T348 -12Q340
-12 330 -8T320 13Q320 23 325 43L372 228L367 229Q351 196 327 155T271 76T203 14T124 -12Q98 -12 86 -1T68 31H65L54 -44L15 -200H-6L177 490Z" />
<glyph unicode="&#xb6;" glyph-name="paragraph" d="M136 473Q136 522 154 563T206 635T289 681T401 698H610L606 680H525L357 6Q337 -72 298 -112T189 -152Q134 -152 98 -128T61 -64Q61 -50 68 -42T88 -33Q100 -33 106 -39T112 -57Q112 -69 103 -77T76 -88V-91Q92
-113 120 -125T189 -137H193L309 330Q271 330 240 339T185 367T149 412T136 473ZM212 -136Q261 -129 291 -93T338 6L506 680H415L212 -136Z" />
<glyph unicode="&#xb7;" glyph-name="middot" horiz-adv-x="203" d="M111 278Q98 278 93 285T87 302Q87 312 92 320Q95 325 101 329T118 334Q131 334 136 327T142 310Q142 300 137 292Q134 287 128 283T111 278Z" />
<glyph unicode="&#xb8;" glyph-name="cedilla" horiz-adv-x="600" d="M258 -202Q230 -202 212 -192T188 -169L196 -161Q204 -173 220 -180T259 -187Q294 -187 316 -167T338 -121Q338 -85 283 -84L250 -83L293 3H311L273 -73L274 -75Q289 -72 305 -72Q330 -72 344
-85T359 -120Q359 -135 352 -149T331 -176T299 -195T258 -202Z" />
<glyph unicode="&#xb9;" glyph-name="onesuperior" horiz-adv-x="355" d="M83 345H207L289 676L145 617L141 631L298 698H314L226 345H339L335 329H79L83 345Z" />
<glyph unicode="&#xba;" glyph-name="ordmasculine" horiz-adv-x="356" d="M384 583Q384 539 372 498T337 424T282 373T211 354Q108 354 108 475Q108 519 120 560T155 634T210 685T281 704Q384 704 384 583ZM139 558Q134 537 131 523T127 499T125 482T125 469Q125
425 145 396T211 367Q237 367 260 377T301 406T333 448T353 500Q363 542 365 559T367 589Q367 633 347 662T281 691Q255 691 232 681T191 652T159 610T139 558Z" />
<glyph unicode="&#xbb;" glyph-name="guillemotright" horiz-adv-x="450" d="M216 297L97 474L108 482L241 303L237 285L13 106L6 117L216 297ZM396 297L277 474L288 482L421 303L417 285L193 106L186 117L396 297Z" />
<glyph unicode="&#xbc;" glyph-name="onequarter" horiz-adv-x="842" d="M83 345H207L289 676L145 617L141 631L298 698H314L226 345H339L335 329H79L83 345ZM763 698H784L203 0H182L763 698ZM677 89H474L478 106L745 369H766L700 105H766L762 89H696L674 0H655L677
89ZM497 105H681L739 340H736L497 105Z" />
<glyph unicode="&#xbd;" glyph-name="onehalf" horiz-adv-x="869" d="M83 345H207L289 676L145 617L141 631L298 698H314L226 345H339L335 329H79L83 345ZM763 698H784L203 0H182L763 698ZM516 20L669 135Q719 173 745 202T781 261Q784 271 785 279T786 296Q786
327 765 343T699 359Q672 359 648 353T606 334V332Q630 326 630 305Q630 283 608 283Q597 283 591 289T584 308Q584 319 592 331T615 352T653 368T703 375Q752 375 778 354T805 299Q805 254 774 212T678 123L536 20L535 17H743L760 85H779L758 0H511L516 20Z" />
<glyph unicode="&#xbe;" glyph-name="threequarters" horiz-adv-x="786" d="M182 323Q156 323 136 329T103 344T82 363T75 384Q75 397 82 405T101 414Q123 414 123 394Q123 384 115 376T93 365V363Q110 349 133 344T178 339Q221 339 257 358T307 422Q309 430 310
438T311 453Q311 482 289 497T218 513H179L183 529H221Q277 529 304 547T342 602Q345 614 345 625Q345 656 324 672T258 688Q231 688 207 682T165 663V661Q189 655 189 634Q189 612 167 612Q156 612 150 618T143 637Q143 648 151 660T174 681T212 697T262 704Q311
704 337 683T364 628Q364 604 356 586T334 554T303 532T269 521L268 518Q295 513 312 497T330 453Q330 422 318 398T284 358T237 332T182 323ZM707 698H728L147 0H126L707 698ZM621 89H418L422 106L689 369H710L644 105H710L706 89H640L618 0H599L621 89ZM441 105H625L683
340H680L441 105Z" />
<glyph unicode="&#xbf;" glyph-name="questiondown" horiz-adv-x="487" d="M170 -204Q94 -204 58 -168T21 -74Q21 -29 37 12T84 87T162 142T268 171L308 330H325L282 157Q191 149 133 106T58 5Q50 -24 47 -42T43 -74Q43 -129 77 -157T172 -186Q219 -186 255 -172T315
-137V-134Q300 -132 293 -124T286 -103Q286 -92 293 -84T313 -76Q326 -76 333 -84T340 -103Q340 -121 327 -139T290 -171T235 -195T170 -204ZM350 455Q338 455 332 461T326 476Q326 487 330 495Q333 501 339 506T357 511Q369 511 375 505T381 490Q381 479 377 471Q374
465 368 460T350 455Z" />
<glyph unicode="&#xc0;" glyph-name="Agrave" horiz-adv-x="651" d="M-42 0L-38 18H18L422 698H452L518 18H574L570 0H392L396 18H496L476 234H170L42 18H142L138 0H-42ZM432 678L180 252H474L434 678H432ZM360 919L379 931L466 775L456 768L360 919Z" />
<glyph unicode="&#xc1;" glyph-name="Aacute" horiz-adv-x="651" d="M-42 0L-38 18H18L422 698H452L518 18H574L570 0H392L396 18H496L476 234H170L42 18H142L138 0H-42ZM432 678L180 252H474L434 678H432ZM455 768L446 775L572 931L588 919L455 768Z" />
<glyph unicode="&#xc2;" glyph-name="Acircumflex" horiz-adv-x="651" d="M-42 0L-38 18H18L422 698H452L518 18H574L570 0H392L396 18H496L476 234H170L42 18H142L138 0H-42ZM432 678L180 252H474L434 678H432ZM503 922L597 788L587 781L490 905L337 781L329
790L479 922H503Z" />
<glyph unicode="&#xc3;" glyph-name="Atilde" horiz-adv-x="651" d="M-42 0L-38 18H18L422 698H452L518 18H574L570 0H392L396 18H496L476 234H170L42 18H142L138 0H-42ZM432 678L180 252H474L434 678H432ZM539 808Q521 808 506 815T468 839Q450 853 436 859T408
865Q371 865 333 833L326 842Q372 882 410 882Q428 882 443 875T481 851Q499 837 513 831T541 825Q578 825 616 857L623 848Q577 808 539 808Z" />
<glyph unicode="&#xc4;" glyph-name="Adieresis" horiz-adv-x="651" d="M-42 0L-38 18H18L422 698H452L518 18H574L570 0H392L396 18H496L476 234H170L42 18H142L138 0H-42ZM432 678L180 252H474L434 678H432ZM381 819Q370 819 365 825T360 839Q360 847 364 854Q367
859 372 863T387 867Q398 867 403 861T408 847Q408 839 404 832Q401 827 396 823T381 819ZM563 819Q552 819 547 825T542 839Q542 847 546 854Q549 859 554 863T569 867Q580 867 585 861T590 847Q590 839 586 832Q583 827 578 823T563 819Z" />
<glyph unicode="&#xc5;" glyph-name="Aring" horiz-adv-x="651" d="M-42 0L-38 18H18L422 698H452L518 18H574L570 0H392L396 18H496L476 234H170L42 18H142L138 0H-42ZM432 678L180 252H474L434 678H432ZM461 769Q427 769 406 788T385 839Q385 861 393 881T416
917T451 942T495 951Q529 951 550 932T571 881Q571 858 563 838T540 803T505 778T461 769ZM464 785Q495 785 518 804T548 853Q552 872 552 882Q552 906 536 920T492 935Q461 935 438 916T408 867Q404 848 404 838Q404 814 420 800T464 785Z" />
<glyph unicode="&#xc6;" glyph-name="AE" horiz-adv-x="911" d="M-52 0L-48 18H8L543 680H446L450 698H944L907 550H887L920 680H598L522 377H764L785 462H805L758 274H738L760 359H518L433 18H775L808 148H828L791 0H327L331 18H411L465 234H207L32 18H132L128
0H-52ZM469 252L576 680H568L221 252H469Z" />
<glyph unicode="&#xc7;" glyph-name="Ccedilla" horiz-adv-x="603" d="M250 -202Q222 -202 204 -192T180 -169L188 -161Q196 -173 212 -180T251 -187Q286 -187 308 -167T330 -121Q330 -85 275 -84L242 -83L278 -12Q232 -10 195 4T133 45T94 115T80 216Q80 267
88 323T114 434T160 539T226 627T314 687T426 710Q485 710 528 688T584 621H587L606 698H626L575 493H555L573 566Q576 579 576 589Q576 614 564 633T532 666T484 685T426 692Q317 692 241 615T129 394Q119 355 114 326T106 276T103 240T102 215Q102 108 149 57T292
6Q367 6 420 45T511 148L526 141Q507 109 485 81T434 33T371 0T296 -12L265 -73L266 -75Q281 -72 297 -72Q322 -72 336 -85T351 -120Q351 -135 344 -149T323 -176T291 -195T250 -202Z" />
<glyph unicode="&#xc8;" glyph-name="Egrave" horiz-adv-x="581" d="M430 359H188L103 18H445L478 148H498L461 0H-3L1 18H81L246 680H166L170 698H614L577 550H557L590 680H268L192 377H434L455 462H475L428 274H408L430 359ZM326 919L345 931L432 775L422 768L326 919Z" />
<glyph unicode="&#xc9;" glyph-name="Eacute" horiz-adv-x="581" d="M430 359H188L103 18H445L478 148H498L461 0H-3L1 18H81L246 680H166L170 698H614L577 550H557L590 680H268L192 377H434L455 462H475L428 274H408L430 359ZM421 768L412 775L538 931L554 919L421 768Z" />
<glyph unicode="&#xca;" glyph-name="Ecircumflex" horiz-adv-x="581" d="M430 359H188L103 18H445L478 148H498L461 0H-3L1 18H81L246 680H166L170 698H614L577 550H557L590 680H268L192 377H434L455 462H475L428 274H408L430 359ZM469 922L563 788L553 781L456
905L303 781L295 790L445 922H469Z" />
<glyph unicode="&#xcb;" glyph-name="Edieresis" horiz-adv-x="581" d="M430 359H188L103 18H445L478 148H498L461 0H-3L1 18H81L246 680H166L170 698H614L577 550H557L590 680H268L192 377H434L455 462H475L428 274H408L430 359ZM347 819Q336 819 331 825T326
839Q326 847 330 854Q333 859 338 863T353 867Q364 867 369 861T374 847Q374 839 370 832Q367 827 362 823T347 819ZM529 819Q518 819 513 825T508 839Q508 847 512 854Q515 859 520 863T535 867Q546 867 551 861T556 847Q556 839 552 832Q549 827 544 823T529
819Z" />
<glyph unicode="&#xcc;" glyph-name="Igrave" horiz-adv-x="300" d="M-3 0L1 18H81L246 680H166L170 698H352L348 680H268L103 18H183L179 0H-3ZM440 919L459 931L546 775L536 768L440 919Z" />
<glyph unicode="&#xcd;" glyph-name="Iacute" horiz-adv-x="300" d="M-3 0L1 18H81L246 680H166L170 698H352L348 680H268L103 18H183L179 0H-3ZM535 768L526 775L652 931L668 919L535 768Z" />
<glyph unicode="&#xce;" glyph-name="Icircumflex" horiz-adv-x="300" d="M-3 0L1 18H81L246 680H166L170 698H352L348 680H268L103 18H183L179 0H-3ZM583 922L677 788L667 781L570 905L417 781L409 790L559 922H583Z" />
<glyph unicode="&#xcf;" glyph-name="Idieresis" horiz-adv-x="300" d="M-3 0L1 18H81L246 680H166L170 698H352L348 680H268L103 18H183L179 0H-3ZM461 819Q450 819 445 825T440 839Q440 847 444 854Q447 859 452 863T467 867Q478 867 483 861T488 847Q488 839
484 832Q481 827 476 823T461 819ZM643 819Q632 819 627 825T622 839Q622 847 626 854Q629 859 634 863T649 867Q660 867 665 861T670 847Q670 839 666 832Q663 827 658 823T643 819Z" />
<glyph unicode="&#xd0;" glyph-name="Eth" horiz-adv-x="675" d="M1 18H81L162 341H66L70 358H166L246 680H166L170 698H412Q463 698 504 686T574 648T618 580T634 482Q634 427 625 371T596 261T548 160T480 77T390 21T278 0H-3L1 18ZM278 18Q330 18 378 37T466
93T537 183T585 304Q595 344 600 373T608 423T611 458T612 483Q612 584 562 632T412 680H268L188 358H354L350 341H184L103 18H278Z" />
<glyph unicode="&#xd1;" glyph-name="Ntilde" horiz-adv-x="744" d="M1 18H81L246 680H166L170 698H283L523 25H526L690 680H610L614 698H796L792 680H712L542 0H510L270 673H267L103 18H183L179 0H-3L1 18ZM581 808Q563 808 548 815T510 839Q492 853 478 859T450
865Q413 865 375 833L368 842Q414 882 452 882Q470 882 485 875T523 851Q541 837 555 831T583 825Q620 825 658 857L665 848Q619 808 581 808Z" />
<glyph unicode="&#xd2;" glyph-name="Ograve" horiz-adv-x="682" d="M293 -12Q189 -12 135 46T80 216Q80 267 88 323T115 434T160 539T226 627T315 687T427 710Q531 710 585 652T640 482Q640 431 632 375T605 264T560 159T494 71T405 11T293 -12ZM293 6Q347 6
394 26T479 85T546 178T591 304Q601 344 606 373T614 423T617 458T618 483Q618 586 570 639T427 692Q373 692 326 672T241 613T174 520T129 394Q119 354 114 325T106 274T103 239T102 215Q102 112 150 59T293 6ZM359 919L378 931L465 775L455 768L359 919Z" />
<glyph unicode="&#xd3;" glyph-name="Oacute" horiz-adv-x="682" d="M293 -12Q189 -12 135 46T80 216Q80 267 88 323T115 434T160 539T226 627T315 687T427 710Q531 710 585 652T640 482Q640 431 632 375T605 264T560 159T494 71T405 11T293 -12ZM293 6Q347 6
394 26T479 85T546 178T591 304Q601 344 606 373T614 423T617 458T618 483Q618 586 570 639T427 692Q373 692 326 672T241 613T174 520T129 394Q119 354 114 325T106 274T103 239T102 215Q102 112 150 59T293 6ZM454 768L445 775L571 931L587 919L454 768Z" />
<glyph unicode="&#xd4;" glyph-name="Ocircumflex" horiz-adv-x="682" d="M293 -12Q189 -12 135 46T80 216Q80 267 88 323T115 434T160 539T226 627T315 687T427 710Q531 710 585 652T640 482Q640 431 632 375T605 264T560 159T494 71T405 11T293 -12ZM293 6Q347
6 394 26T479 85T546 178T591 304Q601 344 606 373T614 423T617 458T618 483Q618 586 570 639T427 692Q373 692 326 672T241 613T174 520T129 394Q119 354 114 325T106 274T103 239T102 215Q102 112 150 59T293 6ZM502 922L596 788L586 781L489 905L336 781L328
790L478 922H502Z" />
<glyph unicode="&#xd5;" glyph-name="Otilde" horiz-adv-x="682" d="M293 -12Q189 -12 135 46T80 216Q80 267 88 323T115 434T160 539T226 627T315 687T427 710Q531 710 585 652T640 482Q640 431 632 375T605 264T560 159T494 71T405 11T293 -12ZM293 6Q347 6
394 26T479 85T546 178T591 304Q601 344 606 373T614 423T617 458T618 483Q618 586 570 639T427 692Q373 692 326 672T241 613T174 520T129 394Q119 354 114 325T106 274T103 239T102 215Q102 112 150 59T293 6ZM538 808Q520 808 505 815T467 839Q449 853 435 859T407
865Q370 865 332 833L325 842Q371 882 409 882Q427 882 442 875T480 851Q498 837 512 831T540 825Q577 825 615 857L622 848Q576 808 538 808Z" />
<glyph unicode="&#xd6;" glyph-name="Odieresis" horiz-adv-x="682" d="M293 -12Q189 -12 135 46T80 216Q80 267 88 323T115 434T160 539T226 627T315 687T427 710Q531 710 585 652T640 482Q640 431 632 375T605 264T560 159T494 71T405 11T293 -12ZM293 6Q347
6 394 26T479 85T546 178T591 304Q601 344 606 373T614 423T617 458T618 483Q618 586 570 639T427 692Q373 692 326 672T241 613T174 520T129 394Q119 354 114 325T106 274T103 239T102 215Q102 112 150 59T293 6ZM380 819Q369 819 364 825T359 839Q359 847 363
854Q366 859 371 863T386 867Q397 867 402 861T407 847Q407 839 403 832Q400 827 395 823T380 819ZM562 819Q551 819 546 825T541 839Q541 847 545 854Q548 859 553 863T568 867Q579 867 584 861T589 847Q589 839 585 832Q582 827 577 823T562 819Z" />
<glyph unicode="&#xd7;" glyph-name="multiply" horiz-adv-x="550" d="M49 122L277 306L143 490L157 500L291 317L517 500L529 488L301 304L435 120L421 110L287 293L61 110L49 122Z" />
<glyph unicode="&#xd8;" glyph-name="Oslash" horiz-adv-x="682" d="M113 76Q80 130 80 216Q80 267 88 323T115 434T160 539T226 627T315 687T427 710Q540 710 595 640L674 731L687 720L607 623Q640 569 640 482Q640 431 632 375T605 264T560 159T494 71T405 11T293
-12Q178 -12 124 59L46 -31L33 -20L113 76ZM427 692Q373 692 326 672T241 613T174 520T129 394Q119 354 114 325T106 274T103 239T102 215Q102 142 128 93L582 623Q534 692 427 692ZM293 6Q347 6 394 26T479 85T546 178T591 304Q601 344 606 373T614 423T617 458T618
483Q618 557 592 607L138 76Q185 6 293 6Z" />
<glyph unicode="&#xd9;" glyph-name="Ugrave" horiz-adv-x="696" d="M258 680L154 261Q144 222 138 191T132 132Q132 74 170 40T289 6Q344 6 385 20T456 64T509 143T548 261L652 680H572L576 698H758L754 680H674L570 261Q550 182 525 130T465 46T388 1T289 -12Q201
-12 156 25T110 136Q110 163 116 194T132 261L236 680H156L160 698H342L338 680H258ZM382 919L401 931L488 775L478 768L382 919Z" />
<glyph unicode="&#xda;" glyph-name="Uacute" horiz-adv-x="696" d="M258 680L154 261Q144 222 138 191T132 132Q132 74 170 40T289 6Q344 6 385 20T456 64T509 143T548 261L652 680H572L576 698H758L754 680H674L570 261Q550 182 525 130T465 46T388 1T289 -12Q201
-12 156 25T110 136Q110 163 116 194T132 261L236 680H156L160 698H342L338 680H258ZM477 768L468 775L594 931L610 919L477 768Z" />
<glyph unicode="&#xdb;" glyph-name="Ucircumflex" horiz-adv-x="696" d="M258 680L154 261Q144 222 138 191T132 132Q132 74 170 40T289 6Q344 6 385 20T456 64T509 143T548 261L652 680H572L576 698H758L754 680H674L570 261Q550 182 525 130T465 46T388 1T289
-12Q201 -12 156 25T110 136Q110 163 116 194T132 261L236 680H156L160 698H342L338 680H258ZM525 922L619 788L609 781L512 905L359 781L351 790L501 922H525Z" />
<glyph unicode="&#xdc;" glyph-name="Udieresis" horiz-adv-x="696" d="M258 680L154 261Q144 222 138 191T132 132Q132 74 170 40T289 6Q344 6 385 20T456 64T509 143T548 261L652 680H572L576 698H758L754 680H674L570 261Q550 182 525 130T465 46T388 1T289
-12Q201 -12 156 25T110 136Q110 163 116 194T132 261L236 680H156L160 698H342L338 680H258ZM403 819Q392 819 387 825T382 839Q382 847 386 854Q389 859 394 863T409 867Q420 867 425 861T430 847Q430 839 426 832Q423 827 418 823T403 819ZM585 819Q574 819
569 825T564 839Q564 847 568 854Q571 859 576 863T591 867Q602 867 607 861T612 847Q612 839 608 832Q605 827 600 823T585 819Z" />
<glyph unicode="&#xdd;" glyph-name="Yacute" horiz-adv-x="599" d="M131 18H231L297 285L187 680H131L135 698H313L309 680H208L312 306H314L603 680H500L504 698H687L683 680H627L319 284L253 18H353L349 0H127L131 18ZM428 768L419 775L545 931L561 919L428 768Z" />
<glyph unicode="&#xde;" glyph-name="Thorn" horiz-adv-x="568" d="M348 680H268L231 532H416Q491 532 525 500T560 404Q560 357 545 314T501 238T430 186T334 166H140L103 18H183L179 0H-3L1 18H81L246 680H166L170 698H352L348 680ZM227 514L144 184H333Q405
184 456 221T525 328Q530 346 534 367T538 408Q538 457 511 485T418 514H227Z" />
<glyph unicode="&#xdf;" glyph-name="germandbls" horiz-adv-x="539" d="M302 -12Q267 -12 247 -1T226 33Q226 44 233 51T252 59Q264 59 270 52T277 35Q277 26 271 19T257 7V4Q264 2 274 1T295 0Q319 0 346 6T397 26T437 65T453 127Q453 144 450 157T440 183T418
213T383 250Q349 284 332 311T314 377Q314 411 329 436T371 479T432 504T503 513L511 548Q516 570 519 589T523 626Q523 692 492 722T404 753Q343 753 296 713T230 596L60 -87Q45 -147 16 -179T-62 -212Q-86 -212 -101 -201T-117 -172Q-117 -161 -110 -154T-91
-146Q-79 -146 -73 -153T-66 -170Q-66 -179 -72 -186T-86 -198V-201H-71Q-26 -201 0 -170T41 -80L183 489H82L86 506H187L209 596Q229 677 280 723T404 770Q470 770 506 732T542 626Q542 612 539 591T530 548L518 499H499Q469 499 440 492T387 470T350 433T335
379Q335 362 338 349T348 323T369 294T405 256Q441 220 457 193T474 129Q474 95 461 69T424 24T369 -3T302 -12Z" />
<glyph unicode="&#xe0;" glyph-name="agrave" horiz-adv-x="505" d="M140 -12Q113 -12 96 -2T68 27T54 68T50 117Q50 184 66 255T115 384T195 480T308 518Q341 518 366 503T400 447H404L427 506H439L316 14L334 6L469 119L476 111L387 28Q361 3 349 -4T325 -12Q317
-12 307 -8T297 13Q297 24 301 40L346 217L341 218Q327 186 308 146T264 71T208 12T140 -12ZM309 501Q267 501 233 483T171 433T124 356T91 260Q80 213 76 180T72 117Q72 94 74 74T85 39T107 15T144 6Q161 6 184 16T229 51Q253 78 275 114T317 188T352 265T375
336L381 360Q400 434 380 467T309 501ZM227 739L246 751L333 595L323 588L227 739Z" />
<glyph unicode="&#xe1;" glyph-name="aacute" horiz-adv-x="505" d="M140 -12Q113 -12 96 -2T68 27T54 68T50 117Q50 184 66 255T115 384T195 480T308 518Q341 518 366 503T400 447H404L427 506H439L316 14L334 6L469 119L476 111L387 28Q361 3 349 -4T325 -12Q317
-12 307 -8T297 13Q297 24 301 40L346 217L341 218Q327 186 308 146T264 71T208 12T140 -12ZM309 501Q267 501 233 483T171 433T124 356T91 260Q80 213 76 180T72 117Q72 94 74 74T85 39T107 15T144 6Q161 6 184 16T229 51Q253 78 275 114T317 188T352 265T375
336L381 360Q400 434 380 467T309 501ZM323 588L314 595L440 751L456 739L323 588Z" />
<glyph unicode="&#xe2;" glyph-name="acircumflex" horiz-adv-x="505" d="M140 -12Q113 -12 96 -2T68 27T54 68T50 117Q50 184 66 255T115 384T195 480T308 518Q341 518 366 503T400 447H404L427 506H439L316 14L334 6L469 119L476 111L387 28Q361 3 349 -4T325
-12Q317 -12 307 -8T297 13Q297 24 301 40L346 217L341 218Q327 186 308 146T264 71T208 12T140 -12ZM309 501Q267 501 233 483T171 433T124 356T91 260Q80 213 76 180T72 117Q72 94 74 74T85 39T107 15T144 6Q161 6 184 16T229 51Q253 78 275 114T317 188T352
265T375 336L381 360Q400 434 380 467T309 501ZM370 742L464 608L454 601L357 725L204 601L196 610L346 742H370Z" />
<glyph unicode="&#xe3;" glyph-name="atilde" horiz-adv-x="505" d="M140 -12Q113 -12 96 -2T68 27T54 68T50 117Q50 184 66 255T115 384T195 480T308 518Q341 518 366 503T400 447H404L427 506H439L316 14L334 6L469 119L476 111L387 28Q361 3 349 -4T325 -12Q317
-12 307 -8T297 13Q297 24 301 40L346 217L341 218Q327 186 308 146T264 71T208 12T140 -12ZM309 501Q267 501 233 483T171 433T124 356T91 260Q80 213 76 180T72 117Q72 94 74 74T85 39T107 15T144 6Q161 6 184 16T229 51Q253 78 275 114T317 188T352 265T375
336L381 360Q400 434 380 467T309 501ZM406 628Q388 628 373 635T335 659Q317 673 303 679T275 685Q238 685 200 653L193 662Q239 702 277 702Q295 702 310 695T348 671Q366 657 380 651T408 645Q445 645 483 677L490 668Q444 628 406 628Z" />
<glyph unicode="&#xe4;" glyph-name="adieresis" horiz-adv-x="505" d="M140 -12Q113 -12 96 -2T68 27T54 68T50 117Q50 184 66 255T115 384T195 480T308 518Q341 518 366 503T400 447H404L427 506H439L316 14L334 6L469 119L476 111L387 28Q361 3 349 -4T325
-12Q317 -12 307 -8T297 13Q297 24 301 40L346 217L341 218Q327 186 308 146T264 71T208 12T140 -12ZM309 501Q267 501 233 483T171 433T124 356T91 260Q80 213 76 180T72 117Q72 94 74 74T85 39T107 15T144 6Q161 6 184 16T229 51Q253 78 275 114T317 188T352
265T375 336L381 360Q400 434 380 467T309 501ZM248 642Q237 642 232 648T227 662Q227 670 231 677Q234 682 239 686T254 690Q265 690 270 684T275 670Q275 662 271 655Q268 650 263 646T248 642ZM430 642Q419 642 414 648T409 662Q409 670 413 677Q416 682 421
686T436 690Q447 690 452 684T457 670Q457 662 453 655Q450 650 445 646T430 642Z" />
<glyph unicode="&#xe5;" glyph-name="aring" horiz-adv-x="505" d="M140 -12Q113 -12 96 -2T68 27T54 68T50 117Q50 184 66 255T115 384T195 480T308 518Q341 518 366 503T400 447H404L427 506H439L316 14L334 6L469 119L476 111L387 28Q361 3 349 -4T325 -12Q317
-12 307 -8T297 13Q297 24 301 40L346 217L341 218Q327 186 308 146T264 71T208 12T140 -12ZM309 501Q267 501 233 483T171 433T124 356T91 260Q80 213 76 180T72 117Q72 94 74 74T85 39T107 15T144 6Q161 6 184 16T229 51Q253 78 275 114T317 188T352 265T375
336L381 360Q400 434 380 467T309 501ZM331 598Q297 598 276 617T255 668Q255 690 263 710T286 746T321 771T365 780Q399 780 420 761T441 710Q441 687 433 667T410 632T375 607T331 598ZM334 614Q365 614 388 633T418 682Q422 701 422 711Q422 735 406 749T362
764Q331 764 308 745T278 696Q274 677 274 667Q274 643 290 629T334 614Z" />
<glyph unicode="&#xe6;" glyph-name="ae" horiz-adv-x="683" d="M115 -12Q69 -12 50 14T31 77Q31 150 107 203T329 272Q330 276 331 280T335 294T342 318T352 360Q356 375 358 389T361 419Q361 458 339 479T266 501Q233 501 202 492T150 464V461Q178 456 178 430Q178
419 171 413T153 406Q142 406 134 413T126 434Q126 449 138 464T170 491T215 510T267 518Q322 518 350 494T379 422Q379 408 376 390H380Q407 445 451 481T549 518Q568 518 586 514T619 498T642 470T651 426Q651 392 635 365T582 318T488 283T349 262Q347 256 344
243T338 211T333 172T331 128Q331 105 334 83T346 44T371 17T414 6Q464 6 513 45T604 161L616 156Q592 109 567 77T516 25T464 -3T412 -12Q357 -12 334 22T311 128Q311 139 311 150T313 174H309Q298 148 279 116T235 56T180 8T115 -12ZM351 274Q416 281 468 292T556
321T611 364T630 424Q630 438 626 452T613 477T589 495T551 502Q487 502 433 445T351 274ZM119 6Q154 6 187 32T248 97T296 176T324 249L327 260Q256 252 205 234T119 191T69 137T53 77Q53 47 67 27T119 6Z" />
<glyph unicode="&#xe7;" glyph-name="ccedilla" horiz-adv-x="395" d="M111 -202Q83 -202 65 -192T41 -169L49 -161Q57 -173 73 -180T112 -187Q147 -187 169 -167T191 -121Q191 -85 136 -84L103 -83L139 -11Q91 -7 71 27T50 127Q50 162 55 205T72 291T102 376T146
448T205 499T280 518Q326 518 353 497T381 446Q381 432 374 425T355 418Q344 418 337 424T330 442Q330 455 339 462T363 472V475Q352 486 332 494T280 502Q250 502 221 487T167 441T121 366T88 262Q87 257 85 244T79 213T74 172T72 127Q72 104 75 83T87 44T112
17T154 6Q200 6 244 46T329 161L341 156Q294 66 249 28T157 -12L126 -73L127 -75Q142 -72 158 -72Q183 -72 197 -85T212 -120Q212 -135 205 -149T184 -176T152 -195T111 -202Z" />
<glyph unicode="&#xe8;" glyph-name="egrave" horiz-adv-x="424" d="M153 -12Q98 -12 74 22T50 128Q50 163 56 205T74 291T105 375T151 448T212 499T290 518Q309 518 327 514T360 498T383 470T392 426Q392 358 322 317T89 262Q83 232 78 199T72 128Q72 105 75
83T87 44T112 17T155 6Q205 6 254 45T345 161L357 156Q333 109 308 77T257 25T205 -3T153 -12ZM92 274Q157 281 208 292T296 321T351 364T371 424Q371 438 367 452T354 477T330 495T292 502Q260 502 230 488T173 445T126 374T92 274ZM464 739L483 751L570 595L560
588L464 739Z" />
<glyph unicode="&#xe9;" glyph-name="eacute" horiz-adv-x="424" d="M153 -12Q98 -12 74 22T50 128Q50 163 56 205T74 291T105 375T151 448T212 499T290 518Q309 518 327 514T360 498T383 470T392 426Q392 358 322 317T89 262Q83 232 78 199T72 128Q72 105 75
83T87 44T112 17T155 6Q205 6 254 45T345 161L357 156Q333 109 308 77T257 25T205 -3T153 -12ZM92 274Q157 281 208 292T296 321T351 364T371 424Q371 438 367 452T354 477T330 495T292 502Q260 502 230 488T173 445T126 374T92 274ZM560 588L551 595L677 751L693
739L560 588Z" />
<glyph unicode="&#xea;" glyph-name="ecircumflex" horiz-adv-x="424" d="M153 -12Q98 -12 74 22T50 128Q50 163 56 205T74 291T105 375T151 448T212 499T290 518Q309 518 327 514T360 498T383 470T392 426Q392 358 322 317T89 262Q83 232 78 199T72 128Q72 105
75 83T87 44T112 17T155 6Q205 6 254 45T345 161L357 156Q333 109 308 77T257 25T205 -3T153 -12ZM92 274Q157 281 208 292T296 321T351 364T371 424Q371 438 367 452T354 477T330 495T292 502Q260 502 230 488T173 445T126 374T92 274ZM607 742L701 608L691 601L594
725L441 601L433 610L583 742H607Z" />
<glyph unicode="&#xeb;" glyph-name="edieresis" horiz-adv-x="424" d="M153 -12Q98 -12 74 22T50 128Q50 163 56 205T74 291T105 375T151 448T212 499T290 518Q309 518 327 514T360 498T383 470T392 426Q392 358 322 317T89 262Q83 232 78 199T72 128Q72 105
75 83T87 44T112 17T155 6Q205 6 254 45T345 161L357 156Q333 109 308 77T257 25T205 -3T153 -12ZM92 274Q157 281 208 292T296 321T351 364T371 424Q371 438 367 452T354 477T330 495T292 502Q260 502 230 488T173 445T126 374T92 274ZM485 642Q474 642 469 648T464
662Q464 670 468 677Q471 682 476 686T491 690Q502 690 507 684T512 670Q512 662 508 655Q505 650 500 646T485 642ZM667 642Q656 642 651 648T646 662Q646 670 650 677Q653 682 658 686T673 690Q684 690 689 684T694 670Q694 662 690 655Q687 650 682 646T667
642Z" />
<glyph unicode="&#xec;" glyph-name="igrave" horiz-adv-x="271" d="M90 -12Q82 -12 73 -8T63 13Q63 24 67 40L179 490H94L96 501L206 512L82 14L100 6L235 119L242 111L153 28Q127 3 114 -4T90 -12ZM365 739L384 751L471 595L461 588L365 739Z" />
<glyph unicode="&#xed;" glyph-name="iacute" horiz-adv-x="271" d="M90 -12Q82 -12 73 -8T63 13Q63 24 67 40L179 490H94L96 501L206 512L82 14L100 6L235 119L242 111L153 28Q127 3 114 -4T90 -12ZM461 588L452 595L578 751L594 739L461 588Z" />
<glyph unicode="&#xee;" glyph-name="icircumflex" horiz-adv-x="271" d="M90 -12Q82 -12 73 -8T63 13Q63 24 67 40L179 490H94L96 501L206 512L82 14L100 6L235 119L242 111L153 28Q127 3 114 -4T90 -12ZM508 742L602 608L592 601L495 725L342 601L334 610L484 742H508Z" />
<glyph unicode="&#xef;" glyph-name="idieresis" horiz-adv-x="271" d="M90 -12Q82 -12 73 -8T63 13Q63 24 67 40L179 490H94L96 501L206 512L82 14L100 6L235 119L242 111L153 28Q127 3 114 -4T90 -12ZM386 642Q375 642 370 648T365 662Q365 670 369 677Q372
682 377 686T392 690Q403 690 408 684T413 670Q413 662 409 655Q406 650 401 646T386 642ZM568 642Q557 642 552 648T547 662Q547 670 551 677Q554 682 559 686T574 690Q585 690 590 684T595 670Q595 662 591 655Q588 650 583 646T568 642Z" />
<glyph unicode="&#xf0;" glyph-name="eth" horiz-adv-x="504" d="M185 -12Q117 -12 85 34T53 154Q53 207 69 270T117 389T198 481T312 518Q354 518 381 497T419 438H423Q415 495 388 556T318 668L210 590L200 604L306 681Q285 705 261 725T213 758H245Q282 735
320 691L430 770L440 756L332 678Q354 650 374 617T411 544T436 462T445 373Q445 310 429 242T380 117T299 25T185 -12ZM186 5Q230 5 266 25T329 78T376 155T408 247Q418 286 420 308T422 352Q422 383 416 410T397 457T363 489T311 501Q267 501 231 481T168 428T121
351T89 259Q79 220 77 198T75 154Q75 121 80 94T99 47T133 16T186 5Z" />
<glyph unicode="&#xf1;" glyph-name="ntilde" horiz-adv-x="534" d="M179 490H94L96 501L206 512L147 278L152 277Q168 310 192 351T248 430T316 492T396 518Q429 518 442 502T456 461Q456 447 451 425L342 14L360 6L495 119L502 111L413 28Q387 3 375 -4T351
-12Q343 -12 333 -8T323 13Q323 24 327 40L430 425Q435 447 435 458Q435 500 390 500Q340 500 285 448Q261 425 235 392T187 321T147 244T120 169L78 0H57L179 490ZM436 628Q418 628 403 635T365 659Q347 673 333 679T305 685Q268 685 230 653L223 662Q269 702
307 702Q325 702 340 695T378 671Q396 657 410 651T438 645Q475 645 513 677L520 668Q474 628 436 628Z" />
<glyph unicode="&#xf2;" glyph-name="ograve" horiz-adv-x="461" d="M177 -12Q109 -12 80 31T50 149Q50 217 68 283T117 401T191 486T284 518Q352 518 381 474T411 357Q411 289 393 223T344 105T269 20T177 -12ZM177 5Q215 5 246 25T303 80T346 158T376 252Q385
290 387 312T389 357Q389 389 384 415T367 461T335 490T284 501Q246 501 215 481T158 426T115 348T85 254Q76 216 74 194T72 149Q72 117 77 91T94 45T126 16T177 5ZM460 739L479 751L566 595L556 588L460 739Z" />
<glyph unicode="&#xf3;" glyph-name="oacute" horiz-adv-x="461" d="M177 -12Q109 -12 80 31T50 149Q50 217 68 283T117 401T191 486T284 518Q352 518 381 474T411 357Q411 289 393 223T344 105T269 20T177 -12ZM177 5Q215 5 246 25T303 80T346 158T376 252Q385
290 387 312T389 357Q389 389 384 415T367 461T335 490T284 501Q246 501 215 481T158 426T115 348T85 254Q76 216 74 194T72 149Q72 117 77 91T94 45T126 16T177 5ZM556 588L547 595L673 751L689 739L556 588Z" />
<glyph unicode="&#xf4;" glyph-name="ocircumflex" horiz-adv-x="461" d="M177 -12Q109 -12 80 31T50 149Q50 217 68 283T117 401T191 486T284 518Q352 518 381 474T411 357Q411 289 393 223T344 105T269 20T177 -12ZM177 5Q215 5 246 25T303 80T346 158T376 252Q385
290 387 312T389 357Q389 389 384 415T367 461T335 490T284 501Q246 501 215 481T158 426T115 348T85 254Q76 216 74 194T72 149Q72 117 77 91T94 45T126 16T177 5ZM603 742L697 608L687 601L590 725L437 601L429 610L579 742H603Z" />
<glyph unicode="&#xf5;" glyph-name="otilde" horiz-adv-x="461" d="M177 -12Q109 -12 80 31T50 149Q50 217 68 283T117 401T191 486T284 518Q352 518 381 474T411 357Q411 289 393 223T344 105T269 20T177 -12ZM177 5Q215 5 246 25T303 80T346 158T376 252Q385
290 387 312T389 357Q389 389 384 415T367 461T335 490T284 501Q246 501 215 481T158 426T115 348T85 254Q76 216 74 194T72 149Q72 117 77 91T94 45T126 16T177 5ZM639 628Q621 628 606 635T568 659Q550 673 536 679T508 685Q471 685 433 653L426 662Q472 702
510 702Q528 702 543 695T581 671Q599 657 613 651T641 645Q678 645 716 677L723 668Q677 628 639 628Z" />
<glyph unicode="&#xf6;" glyph-name="odieresis" horiz-adv-x="461" d="M177 -12Q109 -12 80 31T50 149Q50 217 68 283T117 401T191 486T284 518Q352 518 381 474T411 357Q411 289 393 223T344 105T269 20T177 -12ZM177 5Q215 5 246 25T303 80T346 158T376 252Q385
290 387 312T389 357Q389 389 384 415T367 461T335 490T284 501Q246 501 215 481T158 426T115 348T85 254Q76 216 74 194T72 149Q72 117 77 91T94 45T126 16T177 5ZM481 642Q470 642 465 648T460 662Q460 670 464 677Q467 682 472 686T487 690Q498 690 503 684T508
670Q508 662 504 655Q501 650 496 646T481 642ZM663 642Q652 642 647 648T642 662Q642 670 646 677Q649 682 654 686T669 690Q680 690 685 684T690 670Q690 662 686 655Q683 650 678 646T663 642Z" />
<glyph unicode="&#xf7;" glyph-name="divide" horiz-adv-x="550" d="M48 298L52 314H528L524 298H48ZM235 85Q210 85 210 108Q210 113 211 119T218 131Q228 141 243 141Q268 141 268 118Q268 113 267 107T260 95Q250 85 235 85ZM333 471Q308 471 308 494Q308 499
309 505T316 517Q326 527 341 527Q366 527 366 504Q366 499 365 493T358 481Q348 471 333 471Z" />
<glyph unicode="&#xf8;" glyph-name="oslash" horiz-adv-x="461" d="M177 -12Q138 -12 112 2T72 44L13 -29L0 -18L64 61Q56 79 53 101T50 149Q50 217 68 283T117 401T191 486T284 518Q323 518 349 504T389 462L448 535L461 524L397 445Q405 427 408 405T411 357Q411
289 393 223T344 105T269 20T177 -12ZM284 501Q246 501 215 481T158 426T115 348T85 254Q76 216 74 194T72 149Q72 108 79 80L375 446Q364 472 343 486T284 501ZM177 5Q215 5 246 25T303 80T346 158T376 252Q385 290 387 312T389 357Q389 398 382 426L86 60Q97
34 118 20T177 5Z" />
<glyph unicode="&#xf9;" glyph-name="ugrave" horiz-adv-x="527" d="M124 -12Q90 -12 77 4T63 45Q63 59 68 81L177 490H92L94 501L204 512L89 81Q84 59 84 48Q84 6 129 6Q179 6 234 58Q258 81 284 114T332 185T372 262T399 337L441 506H462L339 14L357 6L492 119L499
111L410 28Q384 3 372 -4T348 -12Q340 -12 330 -8T320 13Q320 23 325 43L372 228L367 229Q351 196 327 155T271 76T203 14T124 -12ZM239 739L258 751L345 595L335 588L239 739Z" />
<glyph unicode="&#xfa;" glyph-name="uacute" horiz-adv-x="527" d="M124 -12Q90 -12 77 4T63 45Q63 59 68 81L177 490H92L94 501L204 512L89 81Q84 59 84 48Q84 6 129 6Q179 6 234 58Q258 81 284 114T332 185T372 262T399 337L441 506H462L339 14L357 6L492 119L499
111L410 28Q384 3 372 -4T348 -12Q340 -12 330 -8T320 13Q320 23 325 43L372 228L367 229Q351 196 327 155T271 76T203 14T124 -12ZM335 588L326 595L452 751L468 739L335 588Z" />
<glyph unicode="&#xfb;" glyph-name="ucircumflex" horiz-adv-x="527" d="M124 -12Q90 -12 77 4T63 45Q63 59 68 81L177 490H92L94 501L204 512L89 81Q84 59 84 48Q84 6 129 6Q179 6 234 58Q258 81 284 114T332 185T372 262T399 337L441 506H462L339 14L357 6L492
119L499 111L410 28Q384 3 372 -4T348 -12Q340 -12 330 -8T320 13Q320 23 325 43L372 228L367 229Q351 196 327 155T271 76T203 14T124 -12ZM382 742L476 608L466 601L369 725L216 601L208 610L358 742H382Z" />
<glyph unicode="&#xfc;" glyph-name="udieresis" horiz-adv-x="527" d="M124 -12Q90 -12 77 4T63 45Q63 59 68 81L177 490H92L94 501L204 512L89 81Q84 59 84 48Q84 6 129 6Q179 6 234 58Q258 81 284 114T332 185T372 262T399 337L441 506H462L339 14L357 6L492
119L499 111L410 28Q384 3 372 -4T348 -12Q340 -12 330 -8T320 13Q320 23 325 43L372 228L367 229Q351 196 327 155T271 76T203 14T124 -12ZM260 642Q249 642 244 648T239 662Q239 670 243 677Q246 682 251 686T266 690Q277 690 282 684T287 670Q287 662 283 655Q280
650 275 646T260 642ZM442 642Q431 642 426 648T421 662Q421 670 425 677Q428 682 433 686T448 690Q459 690 464 684T469 670Q469 662 465 655Q462 650 457 646T442 642Z" />
<glyph unicode="&#xfd;" glyph-name="yacute" horiz-adv-x="439" d="M-61 -212Q-86 -212 -101 -201T-116 -172Q-116 -161 -110 -154T-90 -146Q-77 -146 -71 -153T-64 -172Q-64 -191 -85 -198V-201H-73Q-19 -201 19 -173T94 -82L137 -7L95 488H49L54 506H193L188
488H116L153 21H158L425 488H353L358 506H496L491 488H445L110 -91Q74 -154 34 -183T-61 -212ZM553 588L544 595L670 751L686 739L553 588Z" />
<glyph unicode="&#xfe;" glyph-name="thorn" horiz-adv-x="484" d="M-2 -183L229 742H144L146 753L256 764L137 289L142 288Q155 320 174 360T219 435T275 494T343 518Q370 518 387 508T415 479T429 438T433 389Q433 322 417 251T368 122T288 26T175 -12Q142 -12
117 3T83 59H79L19 -183H117L113 -200H-79L-75 -183H-2ZM174 5Q216 5 250 23T312 73T359 150T392 246Q403 293 407 326T411 389Q411 411 409 431T398 467T376 491T339 500Q322 500 299 490T254 455Q230 428 208 392T166 318T131 241T108 170L102 146Q83 72 103
39T174 5Z" />
<glyph unicode="&#xff;" glyph-name="ydieresis" horiz-adv-x="439" d="M-61 -212Q-86 -212 -101 -201T-116 -172Q-116 -161 -110 -154T-90 -146Q-77 -146 -71 -153T-64 -172Q-64 -191 -85 -198V-201H-73Q-19 -201 19 -173T94 -82L137 -7L95 488H49L54 506H193L188
488H116L153 21H158L425 488H353L358 506H496L491 488H445L110 -91Q74 -154 34 -183T-61 -212ZM478 642Q467 642 462 648T457 662Q457 670 461 677Q464 682 469 686T484 690Q495 690 500 684T505 670Q505 662 501 655Q498 650 493 646T478 642ZM660 642Q649 642
644 648T639 662Q639 670 643 677Q646 682 651 686T666 690Q677 690 682 684T687 670Q687 662 683 655Q680 650 675 646T660 642Z" />
<glyph unicode="&#x2013;" glyph-name="endash" horiz-adv-x="576" d="M55 296L59 314H547L543 296H55Z" />
<glyph unicode="&#x2014;" glyph-name="emdash" horiz-adv-x="759" d="M55 295L59 313H730L726 295H55Z" />
<glyph unicode="&#x2018;" glyph-name="quoteleft" horiz-adv-x="205" d="M276 740Q231 706 206 669T169 597H176Q201 597 201 574Q201 560 192 551T169 541Q143 541 143 569Q143 579 147 589T157 613Q165 631 176 649T202 685T231 717T262 740H276Z" />
<glyph unicode="&#x2019;" glyph-name="quoteright" horiz-adv-x="238" d="M125 541Q170 575 195 612T232 684H225Q200 684 200 707Q200 721 209 730T232 740Q258 740 258 712Q258 702 254 692T244 668Q236 650 225 632T199 596T170 564T139 541H125Z" />
<glyph unicode="&#x201a;" glyph-name="quotesinglbase" horiz-adv-x="206" d="M-60 -134Q-15 -100 10 -63T47 9H40Q15 9 15 32Q15 46 24 55T47 65Q73 65 73 37Q73 27 69 17T59 -7Q51 -25 40 -43T14 -79T-15 -111T-46 -134H-60Z" />
<glyph unicode="&#x201c;" glyph-name="quotedblleft" horiz-adv-x="355" d="M276 740Q231 706 206 669T169 597H176Q201 597 201 574Q201 560 192 551T169 541Q143 541 143 569Q143 579 147 589T157 613Q165 631 176 649T202 685T231 717T262 740H276ZM426 740Q381
706 356 669T319 597H326Q351 597 351 574Q351 560 342 551T319 541Q293 541 293 569Q293 579 297 589T307 613Q315 631 326 649T352 685T381 717T412 740H426Z" />
<glyph unicode="&#x201d;" glyph-name="quotedblright" horiz-adv-x="388" d="M125 541Q170 575 195 612T232 684H225Q200 684 200 707Q200 721 209 730T232 740Q258 740 258 712Q258 702 254 692T244 668Q236 650 225 632T199 596T170 564T139 541H125ZM275 541Q320
575 345 612T382 684H375Q350 684 350 707Q350 721 359 730T382 740Q408 740 408 712Q408 702 404 692T394 668Q386 650 375 632T349 596T320 564T289 541H275Z" />
<glyph unicode="&#x201e;" glyph-name="quotedblbase" horiz-adv-x="356" d="M-60 -134Q-15 -100 10 -63T47 9H40Q15 9 15 32Q15 46 24 55T47 65Q73 65 73 37Q73 27 69 17T59 -7Q51 -25 40 -43T14 -79T-15 -111T-46 -134H-60ZM90 -134Q135 -100 160 -63T197 9H190Q165
9 165 32Q165 46 174 55T197 65Q223 65 223 37Q223 27 219 17T209 -7Q201 -25 190 -43T164 -79T135 -111T104 -134H90Z" />
<glyph unicode="&#x2022;" glyph-name="bullet" horiz-adv-x="352" d="M177 218Q140 218 119 239T98 289Q98 304 101 316Q109 350 135 370T199 390Q236 390 257 369T278 319Q278 304 275 292Q267 258 241 238T177 218Z" />
<glyph unicode="&#x2039;" glyph-name="guilsinglleft" horiz-adv-x="271" d="M184 106L51 285L55 303L279 482L286 471L76 291L195 114L184 106Z" />
<glyph unicode="&#x203a;" glyph-name="guilsinglright" horiz-adv-x="270" d="M216 297L97 474L108 482L241 303L237 285L13 106L6 117L216 297Z" />
</font>
</defs>
</svg>
