<?xml version="1.0" standalone="no"?>
<!DOCTYPE svg PUBLIC "-//W3C//DTD SVG 1.1//EN" "http://www.w3.org/Graphics/SVG/1.1/DTD/svg11.dtd">
<svg xmlns="http://www.w3.org/2000/svg">
<defs >
<font id="IBMPlexSerif" horiz-adv-x="602" ><font-face
    font-family="IBM Plex Serif ExtraLight"
    units-per-em="1000"
    panose-1="2 6 3 3 5 4 6 0 2 3"
    ascent="1025"
    descent="-275"
    alphabetic="0" />
<glyph unicode=" " glyph-name="space" horiz-adv-x="232" />
<glyph unicode="!" glyph-name="exclam" horiz-adv-x="263" d="M131 -7Q114 -7 104 3T94 29V33Q94 49 104 59T131 69Q148 69 158 59T168 33V29Q168 13 158 3T131 -7ZM113 434V698H150V434L140 178H123L113 434Z" />
<glyph unicode="&quot;" glyph-name="quotedbl" horiz-adv-x="384" d="M95 642V740H130V642L121 483H104L95 642ZM254 642V740H289V642L280 483H263L254 642Z" />
<glyph unicode="#" glyph-name="numbersign" horiz-adv-x="711" d="M213 217H67V243H217L253 455H106V481H258L295 698H325L288 481H467L505 698H535L498 481H643V455H493L457 243H604V217H453L415 0H385L423 217H243L205 0H175L213 217ZM247 243H427L463 455H283L247
243Z" />
<glyph unicode="$" glyph-name="dollar" horiz-adv-x="599" d="M290 -1H285Q237 -1 199 8T134 33T93 68T79 106Q79 123 89 134T118 146Q135 146 145 135T155 108Q155 94 147 83T125 67V64Q146 48 182 36T284 24H291V345L268 351Q172 375 127 417T82 529Q82 611
137 653T290 699V780H317V699Q361 697 395 687T454 662T491 629T504 592Q504 575 494 564T466 552Q448 552 438 563T428 590Q428 618 458 631V634Q439 648 408 660T316 674V377L339 371Q439 345 480 299T522 186Q522 108 472 58T317 0V-82H290V-1ZM291 384V674Q204
671 161 635T118 533Q118 499 130 476T164 435T214 407T275 388L291 384ZM316 25Q404 31 446 71T488 179Q488 215 476 241T442 284T393 313T334 333L316 338V25Z" />
<glyph unicode="%" glyph-name="percent" horiz-adv-x="894" d="M220 346Q243 346 263 354T299 381T323 427T332 495V539Q332 578 323 606T299 653T264 679T220 688Q197 688 177 680T141 653T117 607T108 539V495Q108 456 117 428T141 381T176 355T220 346ZM674
10Q697 10 717 18T753 45T777 91T786 159V203Q786 242 777 270T753 317T718 343T674 352Q651 352 631 344T595 317T571 271T562 203V159Q562 120 571 92T595 45T630 19T674 10ZM220 324Q189 324 162 335T116 370T85 430T73 517Q73 567 84 603T115 663T162 698T220
710Q251 710 278 699T324 664T355 604T367 517Q367 467 356 431T325 371T278 336T220 324ZM674 -12Q643 -12 616 -1T570 34T539 94T527 181Q527 231 538 267T569 327T616 362T674 374Q705 374 732 363T778 328T809 268T821 181Q821 131 810 95T779 35T732 0T674
-12ZM673 698H705L221 0H189L673 698Z" />
<glyph unicode="&amp;" glyph-name="ampersand" horiz-adv-x="716" d="M280 -12Q232 -12 193 1T125 37T82 94T66 169Q66 208 78 237T113 291T165 334T232 371L227 376Q186 418 160 462T134 554Q134 588 146 617T181 666T236 698T309 710Q346 710 377 699T429 670T463
625T475 569Q475 536 461 508T422 456T360 410T281 369L496 150Q513 188 521 234T531 331H444V356H646V331H560Q555 209 515 131L572 73Q585 59 597 50T622 36T651 28T688 25V0H661Q622 0 597 13T540 58L498 101Q461 44 406 16T280 -12ZM264 386Q345 425 391 465T438
558V571Q438 597 428 618T400 653T359 676T308 684Q276 684 251 675T209 649T182 611T173 564V547Q173 505 198 466T261 389L264 386ZM281 16Q353 16 401 43T480 119L249 354Q216 338 190 321T146 283T117 237T107 179V160Q107 127 120 101T156 55T211 26T281 16Z"
/>
<glyph unicode="&apos;" glyph-name="quotesingle" horiz-adv-x="225" d="M95 642V740H130V642L121 483H104L95 642Z" />
<glyph unicode="(" glyph-name="parenleft" horiz-adv-x="329" d="M293 -142Q257 -111 221 -66T157 37T112 164T94 311Q94 389 111 458T157 585T221 688T293 765L318 757Q280 725 247 680T188 581T148 464T133 334V289Q133 222 147 160T187 43T246 -57T318 -134L293
-142V-142Z" />
<glyph unicode=")" glyph-name="parenright" horiz-adv-x="329" d="M11 -134Q49 -102 82 -57T141 42T181 159T196 289V334Q196 401 182 463T142 580T83 680T11 757L36 765Q72 734 108 689T172 585T217 458T235 311Q235 233 218 164T172 37T108 -66T36 -142L11 -134Z" />
<glyph unicode="*" glyph-name="asterisk" horiz-adv-x="380" d="M73 444L102 484L169 558L181 549L131 463L101 423L73 444ZM67 595L19 610L30 644L78 629L168 588L163 574L67 595ZM172 697V747H208V697L198 600H182L172 697ZM212 588L302 629L350 644L361 610L313
595L217 574L212 588ZM249 463L199 549L211 558L278 484L307 444L279 423L249 463Z" />
<glyph unicode="+" glyph-name="plus" horiz-adv-x="600" d="M285 292H63V318H285V534H315V318H537V292H315V76H285V292Z" />
<glyph unicode="," glyph-name="comma" horiz-adv-x="244" d="M49 -144Q85 -108 103 -74T125 -7H122Q105 -7 95 3T85 29V33Q85 49 95 59T122 69Q139 69 149 59T159 33V29Q159 -17 135 -64T75 -144H49V-144Z" />
<glyph unicode="-" glyph-name="hyphen" horiz-adv-x="400" d="M81 321H319V289H81V321Z" />
<glyph unicode="." glyph-name="period" horiz-adv-x="244" d="M122 -7Q105 -7 95 3T85 29V33Q85 49 95 59T122 69Q139 69 149 59T159 33V29Q159 13 149 3T122 -7Z" />
<glyph unicode="/" glyph-name="slash" horiz-adv-x="323" d="M254 740H283L40 -151H11L254 740Z" />
<glyph unicode="0" glyph-name="zero" horiz-adv-x="600" d="M300 14Q397 14 444 88T492 306V392Q492 535 445 609T300 684Q203 684 156 610T108 392V306Q108 163 155 89T300 14ZM300 -12Q244 -12 201 9T127 74T82 187T66 349Q66 536 127 623T300 710Q412 710
473 623T534 349Q534 255 519 187T473 75T400 9T300 -12Z" />
<glyph unicode="1" glyph-name="one" horiz-adv-x="594" d="M92 25H299V661L83 546L73 569L304 698H337V25H536V0H92V25Z" />
<glyph unicode="2" glyph-name="two" horiz-adv-x="600" d="M91 30L339 296Q387 349 416 399T445 506V534Q445 601 400 642T275 684Q229 684 193 672T138 644V642Q149 637 158 627T167 602Q167 586 157 575T130 564Q113 564 103 575T93 602Q93 622 107 641T147
676T207 700T281 710Q376 710 431 661T487 520Q487 484 478 452T451 391T410 333T358 275L126 36V32H496V155H524V0H91V30Z" />
<glyph unicode="3" glyph-name="three" horiz-adv-x="600" d="M277 -12Q235 -12 200 -4T138 20T98 54T83 94Q83 110 93 121T120 132Q137 132 147 121T157 94Q157 80 149 70T128 54V52Q148 36 185 25T274 14Q314 14 348 25T406 56T444 106T458 170V200Q458 269
412 311T281 353H194V380H275Q312 380 342 390T395 418T430 461T443 518V547Q443 609 399 646T281 684Q234 684 200 672T146 644V642Q158 637 166 627T175 602Q175 586 165 575T138 564Q121 564 111 575T101 602Q101 621 115 640T153 675T210 700T283 710Q326 710
363 698T427 664T469 609T485 536Q485 500 474 472T443 423T397 389T340 369V366Q373 361 402 348T453 312T487 258T500 188Q500 141 484 104T438 42T367 2T277 -12Z" />
<glyph unicode="4" glyph-name="four" horiz-adv-x="600" d="M401 161H45V191L395 698H438V191H550V161H438V0H401V161ZM78 191H401V655H398L78 191Z" />
<glyph unicode="5" glyph-name="five" horiz-adv-x="600" d="M285 -12Q244 -12 209 -4T148 20T108 54T93 94Q93 110 103 121T130 132Q147 132 157 121T167 94Q167 80 159 70T138 54V52Q158 36 195 25T281 14Q325 14 360 27T419 63T455 118T468 188V216Q468 294
425 341T298 389Q239 389 204 371T142 318L110 323L136 698H484V663H161L138 340L141 339Q197 417 305 417Q400 417 455 361T510 204Q510 155 495 116T450 48T379 4T285 -12Z" />
<glyph unicode="6" glyph-name="six" horiz-adv-x="600" d="M299 -12Q242 -12 201 6T133 58T94 137T81 237Q81 344 110 426T187 567T300 661T435 710L444 687Q308 661 224 564T124 306L127 305Q146 356 191 389T306 422Q354 422 393 407T459 363T502 295T517 206Q517
156 502 116T458 48T389 4T299 -12ZM299 14Q342 14 374 27T429 65T463 121T475 190V218Q475 255 464 287T430 343T375 380T299 394Q256 394 224 381T169 343T135 287T123 218V190Q123 153 134 121T168 65T223 28T299 14Z" />
<glyph unicode="7" glyph-name="seven" horiz-adv-x="600" d="M482 666H104V508H76V698H516V669L226 0H187L482 666Z" />
<glyph unicode="8" glyph-name="eight" horiz-adv-x="600" d="M300 -12Q246 -12 204 2T131 41T85 102T69 182Q69 219 81 249T116 303T168 342T233 363V368Q172 379 132 423T92 534Q92 574 106 607T148 662T213 697T300 710Q348 710 386 698T452 663T493 607T508
534Q508 467 468 423T367 368V363Q402 357 432 342T484 304T518 250T531 182Q531 138 515 103T469 42T397 2T300 -12ZM300 13Q343 13 378 24T438 57T476 107T489 170V196Q489 230 476 259T438 309T378 341T300 353Q256 353 222 342T162 309T124 259T111 196V170Q111
136 124 107T162 57T221 25T300 13ZM300 378Q339 378 370 388T422 418T454 463T466 520V543Q466 574 455 600T422 645T370 674T300 685Q261 685 230 675T178 645T146 600T134 543V520Q134 489 145 463T178 418T230 389T300 378Z" />
<glyph unicode="9" glyph-name="nine" horiz-adv-x="600" d="M158 11Q294 37 378 134T478 392L475 393Q456 342 411 309T296 276Q248 276 209 291T143 335T100 403T85 492Q85 541 100 581T144 650T213 694T303 710Q360 710 401 692T469 640T508 561T521 461Q521
354 492 272T415 131T302 37T167 -12L158 11ZM303 304Q346 304 378 317T433 355T467 411T479 480V508Q479 545 468 577T434 633T379 670T303 684Q260 684 228 671T173 633T139 577T127 508V480Q127 443 138 411T172 355T227 318T303 304Z" />
<glyph unicode=":" glyph-name="colon" horiz-adv-x="264" d="M132 -7Q115 -7 105 3T95 29V33Q95 49 105 59T132 69Q149 69 159 59T169 33V29Q169 13 159 3T132 -7ZM132 425Q115 425 105 435T95 461V465Q95 481 105 491T132 501Q149 501 159 491T169 465V461Q169
445 159 435T132 425Z" />
<glyph unicode=";" glyph-name="semicolon" horiz-adv-x="264" d="M59 -144Q95 -108 113 -74T135 -7H132Q115 -7 105 3T95 29V33Q95 49 105 59T132 69Q149 69 159 59T169 33V29Q169 -17 145 -64T85 -144H59V-144ZM132 425Q115 425 105 435T95 461V465Q95 481 105
491T132 501Q149 501 159 491T169 465V461Q169 445 159 435T132 425Z" />
<glyph unicode="&lt;" glyph-name="less" horiz-adv-x="600" d="M86 243V273L514 528V495L119 260V256L514 21V-12L86 243Z" />
<glyph unicode="=" glyph-name="equal" horiz-adv-x="600" d="M63 225H537V199H63V225ZM63 411H537V385H63V411Z" />
<glyph unicode="&gt;" glyph-name="greater" horiz-adv-x="600" d="M86 21L481 256V260L86 495V528L514 273V243L86 -12V21Z" />
<glyph unicode="?" glyph-name="question" horiz-adv-x="446" d="M172 355Q265 357 316 400T368 516V541Q368 606 326 645T212 684Q166 684 135 673T83 644V642Q94 638 103 628T112 602Q112 586 102 575T75 564Q58 564 48 575T38 602Q38 621 51 640T89 675T145
700T216 710Q259 710 295 697T356 661T395 604T409 530Q409 443 355 391T202 329V184H172V355ZM188 -7Q171 -7 161 3T151 29V33Q151 49 161 59T188 69Q205 69 215 59T225 33V29Q225 13 215 3T188 -7Z" />
<glyph unicode="@" glyph-name="at" horiz-adv-x="896" d="M446 -121Q366 -121 298 -93T180 -11T101 120T72 297Q72 392 100 468T179 598T299 681T449 710Q527 710 595 684T715 609T795 489T824 327Q824 274 816 227T789 145T743 90T674 69Q629 69 604 94T577
159H573Q566 142 555 126T528 98T489 77T440 69Q362 69 315 123T267 288Q267 399 314 453T440 507Q467 507 488 499T526 479T553 451T570 420H573L583 495H605V166Q605 132 624 112T675 92Q729 92 760 146T791 304V353Q791 427 766 488T695 594T587 662T449 686Q373
686 310 659T202 584T131 470T105 326V270Q105 189 130 122T201 6T308 -69T446 -96H666V-112Q620 -117 563 -119T446 -121ZM442 95Q469 95 493 103T535 127T563 165T573 215V361Q573 389 563 411T535 448T493 472T442 481Q374 481 339 438T303 318V258Q303 181
338 138T442 95Z" />
<glyph unicode="A" glyph-name="A" horiz-adv-x="693" d="M23 25H81L324 698H370L613 25H671V0H470V25H571L497 232H188L114 25H215V0H23V25ZM197 258H488L344 662H340L197 258Z" />
<glyph unicode="B" glyph-name="B" horiz-adv-x="645" d="M51 25H134V673H51V698H382Q460 698 504 654T548 529Q548 461 518 423T440 371V368Q503 358 541 313T579 190Q579 102 533 51T402 0H51V25ZM173 26H393Q430 26 457 37T502 68T529 113T538 167V212Q538
240 529 265T502 310T457 341T393 353H173V26ZM173 379H377Q410 379 434 389T474 416T499 455T507 503V548Q507 573 499 595T475 635T434 662T377 672H173V379Z" />
<glyph unicode="C" glyph-name="C" horiz-adv-x="655" d="M346 -12Q212 -12 137 79T61 349Q61 527 136 618T346 710Q389 710 423 702T481 680T520 651T541 619H544V698H578V493H544V553Q544 581 530 605T491 646T430 673T350 683Q234 683 169 607T104 383V318Q104
171 169 95T350 18Q435 18 488 55T566 157L587 147Q575 114 555 85T505 35T436 1T346 -12Z" />
<glyph unicode="D" glyph-name="D" horiz-adv-x="685" d="M51 25H134V673H51V698H322Q471 698 547 611T624 349Q624 174 548 87T322 0H51V25ZM173 26H321Q387 26 436 46T517 104T565 193T581 310V388Q581 452 565 504T517 594T436 651T321 672H173V26Z" />
<glyph unicode="E" glyph-name="E" horiz-adv-x="598" d="M51 25H134V673H51V698H530V545H496V672H173V379H420V463H451V269H420V353H173V26H504V156H538V0H51V25Z" />
<glyph unicode="F" glyph-name="F" horiz-adv-x="573" d="M51 25H134V673H51V698H522V545H488V672H173V368H420V452H451V258H420V342H173V25H276V0H51V25Z" />
<glyph unicode="G" glyph-name="G" horiz-adv-x="752" d="M355 -12Q215 -12 138 79T61 349Q61 531 142 620T364 710Q409 710 444 702T506 681T548 652T571 618H574V698H608V493H574V557Q574 585 558 608T513 648T447 674T367 683Q238 683 171 606T104 381V317Q104
171 171 94T356 16Q401 16 441 28T511 63T559 122T577 204V299H433V324H697V299H616V0H594L578 115H575Q552 58 498 23T355 -12Z" />
<glyph unicode="H" glyph-name="H" horiz-adv-x="757" d="M51 25H134V673H51V698H256V673H173V377H584V673H501V698H706V673H623V25H706V0H501V25H584V351H173V25H256V0H51V25Z" />
<glyph unicode="I" glyph-name="I" horiz-adv-x="307" d="M51 25H134V673H51V698H256V673H173V25H256V0H51V25Z" />
<glyph unicode="J" glyph-name="J" horiz-adv-x="417" d="M145 -12Q84 -12 54 11T23 64Q23 80 33 91T61 103Q78 103 87 92T96 67Q96 51 87 42T64 28V26Q76 21 94 16T145 10Q195 10 224 35T254 123V673H151V698H376V673H293V127Q293 89 282 63T252 20T205 -4T145 -12Z" />
<glyph unicode="K" glyph-name="K" horiz-adv-x="681" d="M51 25H134V673H51V698H256V673H173V280H176L301 416L537 673H449V698H640V673H574L330 407L586 25H656V0H456V25H541L304 380L173 242V25H256V0H51V25Z" />
<glyph unicode="L" glyph-name="L" horiz-adv-x="561" d="M51 25H134V673H51V698H256V673H173V26H480V156H514V0H51V25Z" />
<glyph unicode="M" glyph-name="M" horiz-adv-x="861" d="M51 25H134V673H51V698H186L429 274H433L678 698H810V673H727V25H810V0H605V25H688V656H685L602 512L425 206L254 505L168 655H165V25H248V0H51V25Z" />
<glyph unicode="N" glyph-name="N" horiz-adv-x="752" d="M51 25H134V673H51V698H184L593 58H597V673H514V698H711V673H628V0H587L168 655H165V25H248V0H51V25Z" />
<glyph unicode="O" glyph-name="O" horiz-adv-x="714" d="M357 15Q477 15 543 93T610 318V380Q610 526 544 604T357 683Q237 683 171 605T104 380V318Q104 172 170 94T357 15ZM357 -12Q217 -12 139 79T61 349Q61 527 139 618T357 710Q497 710 575 619T653 349Q653
171 575 80T357 -12Z" />
<glyph unicode="P" glyph-name="P" horiz-adv-x="601" d="M51 25H134V673H51V698H373Q462 698 508 649T555 514Q555 428 508 379T372 329H173V25H276V0H51V25ZM173 355H371Q406 355 432 366T477 397T504 441T513 493V534Q513 561 504 586T477 630T433 660T371
672H173V355Z" />
<glyph unicode="Q" glyph-name="Q" horiz-adv-x="714" d="M511 -152Q467 -152 438 -135T386 -86L334 -11Q203 -3 132 87T61 349Q61 527 139 618T357 710Q497 710 575 619T653 349Q653 177 581 86T376 -11L422 -76Q442 -105 465 -116T521 -127H554V-152H511ZM357
15Q477 15 543 93T610 318V380Q610 526 544 604T357 683Q237 683 171 605T104 380V318Q104 172 170 94T357 15Z" />
<glyph unicode="R" glyph-name="R" horiz-adv-x="669" d="M51 25H134V673H51V698H373Q461 698 508 650T555 515Q555 434 511 385T382 332L511 91Q546 25 614 25H634V0H598Q553 0 524 20T475 78L342 329H173V25H256V0H51V25ZM173 355H371Q406 355 432 366T477 397T504
441T513 493V534Q513 561 504 586T477 630T433 660T371 672H173V355Z" />
<glyph unicode="S" glyph-name="S" horiz-adv-x="583" d="M287 -12Q245 -12 214 -5T162 14T128 41T106 73H102V0H68V212H102V153Q102 124 111 99T142 55T197 26T282 15Q382 15 429 57T477 174Q477 211 465 237T432 281T383 310T324 330L258 348Q208 361 173 379T116
420T85 471T75 533Q75 620 133 665T290 710Q329 710 358 703T408 685T443 659T464 630H468V698H502V496H468V559Q468 615 422 649T290 683Q203 683 158 645T112 537Q112 502 124 478T157 436T206 407T267 386L332 368Q434 341 474 294T514 181Q514 138 500 103T458
42T387 2T287 -12Z" />
<glyph unicode="T" glyph-name="T" horiz-adv-x="649" d="M202 25H305V672H78V545H44V698H605V545H571V672H344V25H447V0H202V25Z" />
<glyph unicode="U" glyph-name="U" horiz-adv-x="720" d="M360 -12Q294 -12 249 3T177 52T137 140T124 272V673H41V698H246V673H163V264Q163 198 172 151T205 74T266 31T363 17Q421 17 460 30T522 74T556 151T566 264V673H483V698H679V673H596V272Q596 194 584
140T544 53T471 4T360 -12Z" />
<glyph unicode="V" glyph-name="V" horiz-adv-x="669" d="M82 673H24V698H225V673H123L247 312L338 41H341L433 313L556 673H454V698H645V673H587L356 0H313L82 673Z" />
<glyph unicode="W" glyph-name="W" horiz-adv-x="973" d="M83 673H25V698H227V673H125L285 49H288L468 698H513L693 49H696L860 673H758V698H948V673H890L712 0H670L488 651H484L303 0H261L83 673Z" />
<glyph unicode="X" glyph-name="X" horiz-adv-x="651" d="M16 25H80L304 352L88 673H24V698H228V673H134L327 383H331L524 673H433V698H625V673H561L346 359L571 25H635V0H431V25H525L323 327H319L117 25H208V0H16V25Z" />
<glyph unicode="Y" glyph-name="Y" horiz-adv-x="630" d="M192 25H295V283L77 673H15V698H219V673H120L318 317H321L520 673H421V698H614V673H552L334 286V25H437V0H192V25Z" />
<glyph unicode="Z" glyph-name="Z" horiz-adv-x="617" d="M60 26L502 672H103V545H69V698H546V672L104 26H522V156H556V0H60V26Z" />
<glyph unicode="[" glyph-name="bracketleft" horiz-adv-x="300" d="M97 760H240V735H132V-113H240V-138H97V760Z" />
<glyph unicode="\" glyph-name="backslash" horiz-adv-x="323" d="M43 740H72L316 -151H287L43 740Z" />
<glyph unicode="]" glyph-name="bracketright" horiz-adv-x="300" d="M59 -113H168V735H59V760H203V-138H59V-113Z" />
<glyph unicode="^" glyph-name="asciicircum" horiz-adv-x="600" d="M65 334L283 698H317L535 334L510 320L301 666H299L90 320L65 334Z" />
<glyph unicode="_" glyph-name="underscore" horiz-adv-x="571" d="M29 -118H542V-145H29V-118Z" />
<glyph unicode="`" glyph-name="grave" horiz-adv-x="600" d="M196 739L231 758L332 597L315 587L196 739Z" />
<glyph unicode="a" glyph-name="a" horiz-adv-x="530" d="M216 -12Q141 -12 99 25T56 124Q56 197 107 234T277 271H379V359Q379 427 343 461T239 495Q194 495 165 488T120 469V467Q131 462 138 454T145 432Q145 399 111 399Q96 399 87 407T78 433Q78 449 90 465T125
493T178 512T246 520Q324 520 370 480T416 364V22H496V3Q486 -2 468 -5T434 -8Q406 -8 394 3T381 44V86H378Q371 69 359 52T327 20T280 -3T216 -12ZM225 15Q258 15 286 24T335 51T367 92T379 144V249H284Q231 249 195 242T137 220T106 185T96 137V114Q96 71 129
43T225 15Z" />
<glyph unicode="b" glyph-name="b" horiz-adv-x="576" d="M306 -12Q240 -12 200 16T143 83H140L125 0H104V725L21 732V750L141 765V425H144Q161 463 200 491T306 520Q406 520 462 454T519 254Q519 121 463 55T306 -12ZM300 16Q386 16 432 72T478 226V282Q478 379
432 435T300 492Q269 492 240 483T189 458T154 418T141 365V143Q141 114 154 91T189 51T240 25T300 16Z" />
<glyph unicode="c" glyph-name="c" horiz-adv-x="504" d="M279 -12Q229 -12 188 5T117 56T72 139T56 254Q56 318 72 368T117 451T187 502T279 520Q312 520 340 513T388 494T421 467T433 433Q433 396 398 396Q381 396 372 405T363 431Q363 458 391 468V471Q370
485 342 490T281 495Q239 495 205 480T147 437T110 370T97 283V230Q97 182 110 143T147 77T205 34T281 18Q314 18 338 26T382 49T415 81T441 120L460 109Q450 88 435 66T399 27T348 -1T279 -12Z" />
<glyph unicode="d" glyph-name="d" horiz-adv-x="586" d="M271 -12Q171 -12 115 54T58 254Q58 387 114 453T271 520Q337 520 376 492T433 425H436V725L353 732V750L473 765V32L556 25V7L436 -8V83H433Q417 45 377 17T271 -12ZM277 16Q308 16 337 25T388 50T423
90T436 143V365Q436 394 423 417T388 457T337 483T277 492Q191 492 145 436T99 282V226Q99 129 145 73T277 16Z" />
<glyph unicode="e" glyph-name="e" horiz-adv-x="535" d="M277 -12Q228 -12 188 5T118 55T72 139T56 254Q56 319 72 369T117 452T187 503T277 520Q323 520 360 503T424 454T465 379T479 284V271H97V234Q97 128 148 73T280 18Q313 18 339 26T386 49T422 81T449
120L468 109Q457 88 441 66T401 27T347 -1T277 -12ZM439 295V297Q439 340 429 376T397 438T346 480T277 495Q236 495 203 481T146 440T110 376T97 295H439Z" />
<glyph unicode="f" glyph-name="f" horiz-adv-x="318" d="M48 25H131V482H48V508H131V635Q131 667 141 692T169 734T211 761T262 770Q307 770 328 753T350 714Q350 698 341 689T317 680Q302 680 294 688T285 711Q285 735 308 743V745Q299 748 289 749T266 750Q221
750 195 721T168 638V508H276V482H168V25H271V0H48V25Z" />
<glyph unicode="g" glyph-name="g" horiz-adv-x="539" d="M260 -212Q145 -212 95 -177T45 -83Q45 -39 74 -10T149 31V34Q120 42 106 61T91 107Q91 143 118 164T179 195V198Q134 216 108 255T82 351Q82 390 95 421T132 474T189 508T262 520Q306 520 340 507T397
468Q398 574 453 574Q468 574 477 565T486 542Q486 528 477 520T454 511Q441 511 434 519T425 538H422Q418 528 417 505T416 446Q427 428 434 405T442 351Q442 312 429 281T392 228T335 194T262 182Q232 182 207 188Q168 180 144 161T120 115Q120 92 138 77T207
62H339Q427 62 466 29T506 -61Q506 -136 443 -174T260 -212ZM262 206Q330 206 366 242T402 332V370Q402 424 366 460T262 496Q194 496 158 460T122 370V332Q122 278 158 242T262 206ZM81 -83Q81 -131 123 -158T237 -186H286Q369 -186 420 -157T471 -66Q471 -23
441 1T333 26H175Q131 12 106 -14T81 -83Z" />
<glyph unicode="h" glyph-name="h" horiz-adv-x="594" d="M31 25H114V725L31 732V750L151 765V427H154Q161 445 173 462T204 491T249 512T309 520Q397 520 438 472T480 328V25H563V0H360V25H443V323Q443 411 407 451T299 492Q270 492 244 484T197 461T164 421T151
364V25H234V0H31V25Z" />
<glyph unicode="i" glyph-name="i" horiz-adv-x="280" d="M143 660Q127 660 119 669T110 692V695Q110 708 118 717T144 727Q160 727 168 718T177 695V692Q177 679 169 670T143 660ZM42 25H125V476L42 483V501L162 516V25H245V0H42V25Z" />
<glyph unicode="j" glyph-name="j" horiz-adv-x="277" d="M51 -212Q9 -212 -10 -195T-30 -156Q-30 -142 -21 -133T3 -124Q34 -124 34 -155Q34 -178 12 -186V-188Q20 -190 29 -191T49 -192Q84 -192 104 -170T125 -100V476L42 483V501L162 516V-88Q162 -155 130
-183T51 -212ZM143 660Q127 660 119 669T110 692V695Q110 708 118 717T144 727Q160 727 168 718T177 695V692Q177 679 169 670T143 660Z" />
<glyph unicode="k" glyph-name="k" horiz-adv-x="555" d="M31 25H114V725L31 732V750L151 765V215H154L242 307L408 483H330V508H514V483H446L268 298L478 25H541V0H362V25H435L243 273L151 182V25H234V0H31V25Z" />
<glyph unicode="l" glyph-name="l" horiz-adv-x="265" d="M31 25H114V725L31 732V750L151 765V25H234V0H31V25Z" />
<glyph unicode="m" glyph-name="m" horiz-adv-x="926" d="M42 25H125V476L42 483V501L161 516V427H165Q178 463 214 491T318 520Q382 520 421 493T476 408H479Q495 456 534 488T643 520Q730 520 771 472T812 327V25H895V0H692V25H775V323Q775 411 739 451T633
492Q604 492 578 484T531 460T499 420T487 364V25H570V0H367V25H450V323Q450 411 414 451T308 492Q279 492 253 484T206 460T174 420T162 364V25H245V0H42V25Z" />
<glyph unicode="n" glyph-name="n" horiz-adv-x="605" d="M42 25H125V476L42 483V501L161 516V427H165Q178 463 215 491T320 520Q408 520 449 472T491 328V25H574V0H371V25H454V323Q454 411 418 451T310 492Q281 492 255 484T208 461T175 421T162 364V25H245V0H42V25Z" />
<glyph unicode="o" glyph-name="o" horiz-adv-x="550" d="M275 14Q362 14 407 70T452 222V286Q452 333 441 371T407 437T352 479T275 494Q231 494 198 479T143 437T110 372T98 286V222Q98 127 143 71T275 14ZM275 -12Q172 -12 114 56T56 254Q56 384 114 452T275
520Q378 520 436 452T494 254Q494 124 436 56T275 -12Z" />
<glyph unicode="p" glyph-name="p" horiz-adv-x="595" d="M40 -175H123V476L40 483V501L160 516V425H163Q171 444 185 461T219 491T265 512T325 520Q425 520 481 454T538 254Q538 121 482 55T325 -12Q259 -12 219 16T163 83H160V-175H263V-200H40V-175ZM319 16Q405
16 451 72T497 226V282Q497 379 451 435T319 492Q288 492 260 483T209 458T174 418T160 365V143Q160 114 173 91T209 51T259 25T319 16Z" />
<glyph unicode="q" glyph-name="q" horiz-adv-x="576" d="M333 -175H436V83H433Q416 45 377 17T271 -12Q171 -12 115 54T58 254Q58 387 114 453T271 520Q337 520 377 492T434 425H437L452 508H473V-175H556V-200H333V-175ZM277 16Q308 16 337 25T388 50T423 90T436
143V365Q436 394 423 417T388 457T337 483T277 492Q191 492 145 436T99 282V226Q99 129 145 73T277 16Z" />
<glyph unicode="r" glyph-name="r" horiz-adv-x="389" d="M42 25H125V476L42 483V501L161 516V418H165Q172 436 184 454T214 487T255 511T308 520Q372 520 372 471Q372 454 363 445T338 435Q322 435 313 444T303 467Q303 478 308 486T320 496V498Q318 499 309
499T297 499Q274 499 250 487T207 456T175 411T162 361V25H265V0H42V25Z" />
<glyph unicode="s" glyph-name="s" horiz-adv-x="478" d="M237 -12Q178 -12 144 8T95 55H91V0H60V147H91V115Q91 64 130 39T233 14Q300 14 338 42T376 124Q376 175 347 199T259 236L211 246Q144 261 106 292T67 390Q67 453 113 486T231 520Q287 520 320 501T364
457H367V508H398V361H367V395Q367 445 332 469T234 494Q173 494 138 470T102 395Q102 343 132 319T218 282L265 272Q335 257 373 225T411 129Q411 63 365 26T237 -12Z" />
<glyph unicode="t" glyph-name="t" horiz-adv-x="329" d="M175 -3Q143 -3 132 7T121 44V482H50V508H69Q100 508 111 517T124 550L133 650H158V508H299V482H158V26H299V6Q288 4 272 3T239 0T204 -2T175 -3Z" />
<glyph unicode="u" glyph-name="u" horiz-adv-x="589" d="M280 -12Q192 -12 151 36T109 180V476L26 483V501L146 516V185Q146 97 182 57T290 16Q319 16 345 24T392 47T425 87T438 144V476L355 483V501L475 516V32L558 25V7L439 -8V81H435Q422 45 385 17T280 -12Z" />
<glyph unicode="v" glyph-name="v" horiz-adv-x="516" d="M58 483H8V508H194V483H98L262 41H265L428 483H331V508H508V483H458L275 0H241L58 483Z" />
<glyph unicode="w" glyph-name="w" horiz-adv-x="793" d="M72 483H21V508H207V483H110L240 41H244L386 508H420L559 41H563L694 483H597V508H773V483H722L576 0H537L400 455H397L256 0H218L72 483Z" />
<glyph unicode="x" glyph-name="x" horiz-adv-x="536" d="M19 25H78L249 253L80 483H22V508H203V483H124L273 278H276L419 483H340V508H512V483H452L288 259L459 25H518V0H336V25H415L265 233H262L111 25H191V0H19V25Z" />
<glyph unicode="y" glyph-name="y" horiz-adv-x="516" d="M110 -212Q69 -212 52 -195T34 -156Q34 -122 68 -122Q82 -122 91 -131T100 -154Q100 -166 93 -174T76 -186V-188Q83 -190 91 -191T109 -192Q144 -192 170 -163T219 -74L244 -8L58 483H7V508H194V483H98L262
41H265L427 483H331V508H508V483H457L244 -79Q219 -145 188 -178T110 -212Z" />
<glyph unicode="z" glyph-name="z" horiz-adv-x="481" d="M46 23L373 482H87V361H56V508H418V485L91 26H395V147H427V0H46V23Z" />
<glyph unicode="{" glyph-name="braceleft" horiz-adv-x="320" d="M160 -138Q121 -138 121 -99V200Q121 245 95 266T23 287V335Q68 335 94 356T121 422V721Q121 760 160 760H259V736H156V426Q156 379 127 350T54 318V304Q98 302 127 273T156 196V-114H259V-138H160V-138Z" />
<glyph unicode="|" glyph-name="bar" horiz-adv-x="255" d="M113 760H142V-138H113V760Z" />
<glyph unicode="}" glyph-name="braceright" horiz-adv-x="320" d="M61 -114H164V196Q164 243 193 272T266 304V318Q222 320 193 349T164 426V736H61V760H160Q199 760 199 721V422Q199 377 225 356T297 335V287Q252 287 226 266T199 200V-99Q199 -138 160 -138H61V-114Z" />
<glyph unicode="~" glyph-name="asciitilde" horiz-adv-x="600" d="M423 253Q408 253 394 255T364 262T332 274T293 291Q273 300 258 306T229 317T202 324T175 327Q147 327 126 318T81 288L65 307Q89 332 115 344T177 356Q192 356 206 354T236 347T268 335T307
318Q327 309 342 302T371 291T398 284T425 282Q453 282 474 291T519 321L535 302Q511 277 485 265T423 253Z" />
<glyph unicode="&#xa0;" glyph-name="uni00A0" horiz-adv-x="232" />
<glyph unicode="&#xa1;" glyph-name="exclamdown" horiz-adv-x="263" d="M132 439Q115 439 105 449T95 475V479Q95 495 105 505T132 515Q149 515 159 505T169 479V475Q169 459 159 449T132 439ZM113 74L123 330H140L150 74V-190H113V74Z" />
<glyph unicode="&#xa2;" glyph-name="cent" horiz-adv-x="511" d="M260 -11Q214 -8 177 10T112 63T71 144T56 254Q56 315 70 363T112 445T176 497T260 519V622H287V520Q318 519 345 512T391 493T422 466T433 433Q433 396 398 396Q381 396 372 405T363 431Q363
458 391 468V471Q370 485 343 490T286 495V18Q317 19 341 27T384 50T416 82T441 120L460 109Q450 88 436 67T401 29T352 0T287 -12V-114H260V-11ZM261 494Q185 487 141 430T97 283V230Q97 140 141 83T261 19V494Z" />
<glyph unicode="&#xa3;" glyph-name="sterling" horiz-adv-x="579" d="M79 37Q122 66 148 114T174 226Q174 249 171 269T161 310H67V335H153Q139 377 124 419T109 511Q109 557 125 594T170 656T238 696T323 710Q363 710 397 701T458 676T499 641T514 602Q514 585
504 574T475 562Q457 562 448 573T438 600Q438 615 446 625T468 641V644Q448 660 411 671T328 683Q246 683 197 638T147 514Q147 488 151 466T162 421T176 378T191 335H402V310H198Q203 291 206 272T209 229Q209 168 181 116T107 35V32H490V154H518V0H79V37Z" />
<glyph unicode="&#xa5;" glyph-name="yen" horiz-adv-x="633" d="M194 25H297V166H104V190H297V320H104V344H283L85 673H23V698H228V673H129L320 352H323L515 673H416V698H610V673H547L349 344H529V320H336V190H529V166H336V25H437V0H194V25Z" />
<glyph unicode="&#xa6;" glyph-name="brokenbar" horiz-adv-x="255" d="M113 221H142V-138H113V221ZM113 760H142V401H113V760Z" />
<glyph unicode="&#xa7;" glyph-name="section" horiz-adv-x="573" d="M271 -154Q235 -154 204 -146T151 -123T116 -92T103 -58Q103 -41 113 -31T141 -20Q158 -20 167 -30T176 -55Q176 -69 169 -78T149 -93V-95Q167 -109 196 -119T267 -129Q336 -129 374 -100T413
-13Q413 14 404 33T379 67T342 92T298 109L230 131Q195 142 168 155T122 187T93 231T83 290Q83 346 114 383T197 438V442Q125 485 125 565Q125 601 138 628T174 674T230 701T302 710Q338 710 369 702T422 679T457 648T470 614Q470 597 460 587T432 576Q415 576
406 586T397 611Q397 625 404 634T424 649V651Q406 665 377 675T306 685Q237 685 199 656T160 569Q160 542 169 523T194 489T231 464T275 447L343 425Q377 414 404 401T451 369T480 325T490 266Q490 210 459 173T376 118V114Q448 71 448 -9Q448 -45 435 -72T399
-118T343 -145T271 -154ZM352 126Q400 144 427 176T455 261Q455 315 425 344T334 392L266 413Q255 417 244 421T221 430Q173 412 146 380T118 295Q118 241 148 212T239 164L307 143Q318 139 329 135T352 126Z" />
<glyph unicode="&#xa8;" glyph-name="dieresis" horiz-adv-x="600" d="M209 636Q193 636 186 645T179 665V669Q179 680 186 689T209 698Q225 698 232 689T239 669V665Q239 654 232 645T209 636ZM391 636Q375 636 368 645T361 665V669Q361 680 368 689T391 698Q407
698 414 689T421 669V665Q421 654 414 645T391 636Z" />
<glyph unicode="&#xa9;" glyph-name="copyright" horiz-adv-x="773" d="M393 153Q321 153 278 203T235 349Q235 444 278 494T393 545Q417 545 437 540T474 525T499 505T508 480Q508 450 480 450Q467 450 460 457T453 475Q453 495 478 503V505Q464 513 443 518T395
523Q336 523 302 481T268 369V331Q268 262 302 220T395 177Q442 177 468 197T509 245L524 236Q517 222 507 207T480 180T443 161T393 153ZM387 14Q453 14 507 37T599 102T659 201T681 325V373Q681 440 660 497T600 595T507 660T387 684Q321 684 267 661T175 596T115
497T93 373V325Q93 258 114 201T174 103T267 38T387 14ZM387 -12Q316 -12 257 13T154 86T87 199T63 349Q63 431 87 498T154 612T256 684T387 710Q458 710 517 685T620 612T687 498T711 349Q711 266 687 200T620 86T518 14T387 -12Z" />
<glyph unicode="&#xaa;" glyph-name="ordfeminine" horiz-adv-x="361" d="M145 356Q92 356 66 380T40 445Q40 490 71 514T174 539H251V593Q251 637 229 661T162 685Q113 685 90 670V668Q108 661 108 641Q108 630 101 623T81 616Q68 616 61 623T54 643Q54 666 84
685T166 704Q223 704 252 675T281 596V382H337V368Q329 365 317 363T292 360Q271 360 262 368T253 399V412H250Q239 390 216 373T145 356ZM152 377Q194 377 222 396T251 457V520H177Q120 520 96 502T72 452V440Q72 409 93 393T152 377Z" />
<glyph unicode="&#xab;" glyph-name="guillemotleft" horiz-adv-x="491" d="M34 278V306L231 484L243 466L74 292L243 118L231 100L34 278ZM221 278V306L418 484L430 466L261 292L430 118L418 100L221 278Z" />
<glyph unicode="&#xac;" glyph-name="logicalnot" horiz-adv-x="600" d="M491 292H63V318H521V97H491V292Z" />
<glyph unicode="&#xad;" glyph-name="uni00AD" horiz-adv-x="399" d="M81 321H319V289H81V321Z" />
<glyph unicode="&#xae;" glyph-name="registered" horiz-adv-x="468" d="M149 412H171V596H149V610H245Q275 610 292 595T309 553Q309 530 296 515T258 497L297 426Q305 412 326 412H332V398H316Q302 398 293 403T275 423L235 494H193V412H215V398H149V412ZM234
316Q272 316 304 329T359 367T395 423T408 494V514Q408 551 395 583T359 640T304 678T234 692Q196 692 164 678T109 640T73 584T60 514V494Q60 456 73 424T109 367T164 330T234 316ZM234 298Q191 298 155 313T93 355T51 421T36 504Q36 549 51 587T92 652T155 695T234
710Q277 710 313 695T375 653T417 587T432 504Q432 459 417 421T376 356T313 313T234 298ZM193 509H244Q264 509 274 519T285 544V560Q285 575 275 585T244 595H193V509Z" />
<glyph unicode="&#xaf;" glyph-name="overscore" horiz-adv-x="600" d="M168 683H432V655H168V683Z" />
<glyph unicode="&#xb0;" glyph-name="degree" horiz-adv-x="466" d="M233 372Q198 372 168 385T116 420T82 474T69 541Q69 577 81 608T116 661T168 697T233 710Q268 710 298 697T350 662T384 608T397 541Q397 505 385 474T350 421T298 385T233 372ZM233 399Q263
399 288 410T330 440T357 486T367 541Q367 570 358 596T331 641T288 672T233 683Q203 683 178 672T136 642T109 596T99 541Q99 512 108 486T135 441T178 410T233 399Z" />
<glyph unicode="&#xb1;" glyph-name="plusminus" horiz-adv-x="600" d="M285 375H63V401H285V615H315V401H537V375H315V161H285V375ZM63 26H536V0H63V26Z" />
<glyph unicode="&#xb2;" glyph-name="twosuperior" horiz-adv-x="346" d="M44 357L172 470Q210 503 229 532T248 591V602Q248 639 226 661T157 684Q105 684 77 662V659Q98 651 98 632Q98 620 90 613T71 605Q43 605 43 634Q43 646 51 658T75 680T111 697T160 704Q220
704 250 675T280 599Q280 558 257 524T188 453L72 357V354H277V417H301V329H44V357Z" />
<glyph unicode="&#xb3;" glyph-name="threesuperior" horiz-adv-x="348" d="M159 323Q132 323 111 329T74 346T50 369T42 393Q42 422 70 422Q81 422 89 415T97 395Q97 376 76 368V365Q104 343 157 343Q208 343 234 363T260 421V433Q260 471 234 491T157 511H119V532H155Q206
532 229 551T253 605V615Q253 648 231 666T165 684Q135 684 116 679T83 662V659Q104 651 104 632Q104 620 96 613T77 605Q49 605 49 634Q49 645 57 657T81 680T118 697T167 704Q224 704 254 680T285 610Q285 573 263 552T208 524V520Q243 515 267 492T292 431Q292
379 257 351T159 323Z" />
<glyph unicode="&#xb4;" glyph-name="acute" horiz-adv-x="600" d="M268 597L369 758L403 739L284 587L268 597Z" />
<glyph unicode="&#xb5;" glyph-name="mu" horiz-adv-x="589" d="M109 476L26 483V501L146 516V185Q146 97 182 57T289 16Q319 16 346 24T393 48T426 88T438 144V476L355 483V501L475 516V32L558 25V7L439 -8V81H435Q422 45 385 17T280 -12Q171 -12 135 70H132L148
-70V-200H109V476Z" />
<glyph unicode="&#xb6;" glyph-name="paragraph" horiz-adv-x="605" d="M273 -154Q239 -154 210 -146T160 -123T126 -86T114 -37Q114 -17 125 -4T155 9Q172 9 180 -1T189 -28Q189 -61 146 -70V-73Q158 -99 189 -116T273 -133H274V324Q228 324 188 336T117 372T69
431T51 511Q51 556 68 591T116 650T187 686T274 698H514V673H443V57Q443 -49 397 -101T273 -154ZM302 -131Q356 -121 385 -75T415 57V673H302V-131Z" />
<glyph unicode="&#xb7;" glyph-name="middot" horiz-adv-x="303" d="M152 268Q135 268 125 278T115 304V308Q115 324 125 334T152 344Q169 344 179 334T189 308V304Q189 288 179 278T152 268Z" />
<glyph unicode="&#xb8;" glyph-name="cedilla" horiz-adv-x="600" d="M310 -203Q279 -203 258 -193T228 -169L239 -155Q250 -168 267 -174T307 -181Q333 -181 349 -169T366 -131Q366 -113 353 -100T305 -85L270 -82L291 7H314L296 -70L298 -72Q313 -69 330 -69Q360
-69 379 -85T399 -129Q399 -161 375 -182T310 -203Z" />
<glyph unicode="&#xb9;" glyph-name="onesuperior" horiz-adv-x="364" d="M58 350H182V668L53 613L44 632L188 698H213V350H325V329H58V350Z" />
<glyph unicode="&#xba;" glyph-name="ordmasculine" horiz-adv-x="376" d="M188 376Q216 376 236 386T270 415T291 457T298 507V553Q298 579 291 603T271 645T237 673T188 684Q160 684 140 674T106 645T85 603T78 553V507Q78 481 85 457T105 415T139 387T188 376ZM188
356Q120 356 82 403T44 530Q44 610 82 657T188 704Q256 704 294 657T332 530Q332 450 294 403T188 356Z" />
<glyph unicode="&#xbb;" glyph-name="guillemotright" horiz-adv-x="491" d="M61 118L230 292L61 466L73 484L270 306V278L73 100L61 118ZM248 118L417 292L248 466L260 484L457 306V278L260 100L248 118Z" />
<glyph unicode="&#xbc;" glyph-name="onequarter" horiz-adv-x="879" d="M58 350H182V668L53 613L44 632L188 698H213V350H325V329H58V350ZM694 698H726L270 0H238L694 698ZM752 85H545V110L749 369H781V110H845V85H781V0H752V85ZM570 110H752V336H749L570 110Z" />
<glyph unicode="&#xbd;" glyph-name="onehalf" horiz-adv-x="910" d="M58 350H182V668L53 613L44 632L188 698H213V350H325V329H58V350ZM694 698H726L270 0H238L694 698ZM608 28L736 141Q774 174 793 203T812 262V273Q812 310 790 332T721 355Q669 355 641 333V330Q662
322 662 303Q662 291 654 284T635 276Q607 276 607 305Q607 317 615 329T639 351T675 368T724 375Q784 375 814 346T844 270Q844 229 821 195T752 124L636 28V25H841V88H865V0H608V28Z" />
<glyph unicode="&#xbe;" glyph-name="threequarters" horiz-adv-x="823" d="M159 323Q132 323 111 329T74 346T50 369T42 393Q42 422 70 422Q81 422 89 415T97 395Q97 376 76 368V365Q104 343 157 343Q208 343 234 363T260 421V433Q260 471 234 491T157 511H119V532H155Q206
532 229 551T253 605V615Q253 648 231 666T165 684Q135 684 116 679T83 662V659Q104 651 104 632Q104 620 96 613T77 605Q49 605 49 634Q49 645 57 657T81 680T118 697T167 704Q224 704 254 680T285 610Q285 573 263 552T208 524V520Q243 515 267 492T292 431Q292
379 257 351T159 323ZM638 698H670L214 0H182L638 698ZM696 85H489V110L693 369H725V110H789V85H725V0H696V85ZM514 110H696V336H693L514 110Z" />
<glyph unicode="&#xbf;" glyph-name="questiondown" horiz-adv-x="446" d="M230 -202Q186 -202 151 -189T90 -153T51 -96T37 -22Q37 65 91 117T244 179V324H274V153Q181 151 130 108T78 -8V-33Q78 -98 120 -137T234 -176Q280 -176 311 -165T363 -136V-134Q352
-130 343 -120T334 -94Q334 -78 344 -67T371 -56Q388 -56 398 -67T408 -94Q408 -114 395 -133T357 -167T301 -192T230 -202ZM258 439Q241 439 231 449T221 475V479Q221 495 231 505T258 515Q275 515 285 505T295 479V475Q295 459 285 449T258 439Z" />
<glyph unicode="&#xc0;" glyph-name="Agrave" horiz-adv-x="693" d="M23 25H81L324 698H370L613 25H671V0H470V25H571L497 232H188L114 25H215V0H23V25ZM197 258H488L344 662H340L197 258ZM243 918L278 937L379 776L362 766L243 918Z" />
<glyph unicode="&#xc1;" glyph-name="Aacute" horiz-adv-x="693" d="M23 25H81L324 698H370L613 25H671V0H470V25H571L497 232H188L114 25H215V0H23V25ZM197 258H488L344 662H340L197 258ZM315 776L416 937L450 918L331 766L315 776Z" />
<glyph unicode="&#xc2;" glyph-name="Acircumflex" horiz-adv-x="693" d="M23 25H81L324 698H370L613 25H671V0H470V25H571L497 232H188L114 25H215V0H23V25ZM197 258H488L344 662H340L197 258ZM205 789L331 926H363L489 789L474 778L347 896L220 778L205 789Z" />
<glyph unicode="&#xc3;" glyph-name="Atilde" horiz-adv-x="693" d="M23 25H81L324 698H370L613 25H671V0H470V25H571L497 232H188L114 25H215V0H23V25ZM197 258H488L344 662H340L197 258ZM415 803Q398 803 381 810T340 832Q320 845 303 852T272 859Q255 859 241
851T209 826L197 839Q217 862 236 874T279 886Q296 886 313 879T354 857Q374 844 391 837T422 830Q439 830 453 838T485 863L497 850Q477 827 458 815T415 803Z" />
<glyph unicode="&#xc4;" glyph-name="Adieresis" horiz-adv-x="693" d="M23 25H81L324 698H370L613 25H671V0H470V25H571L497 232H188L114 25H215V0H23V25ZM197 258H488L344 662H340L197 258ZM256 812Q240 812 233 821T226 841V845Q226 856 233 865T256 874Q272
874 279 865T286 845V841Q286 830 279 821T256 812ZM438 812Q422 812 415 821T408 841V845Q408 856 415 865T438 874Q454 874 461 865T468 845V841Q468 830 461 821T438 812Z" />
<glyph unicode="&#xc5;" glyph-name="Aring" horiz-adv-x="693" d="M23 25H81L324 698H370L613 25H671V0H470V25H571L497 232H188L114 25H215V0H23V25ZM197 258H488L344 662H340L197 258ZM347 785Q378 785 396 802T414 852V870Q414 902 396 919T347 937Q316 937
298 920T280 870V852Q280 820 298 803T347 785ZM347 764Q304 764 277 791T250 861Q250 903 277 930T347 958Q390 958 417 931T444 861Q444 819 417 792T347 764Z" />
<glyph unicode="&#xc6;" glyph-name="AE" horiz-adv-x="941" d="M15 25H68L435 673H352V698H873V545H839V672H516V379H763V463H794V269H763V353H516V26H847V156H881V0H394V25H477V232H219L102 25H185V0H15V25ZM232 258H477V673H467L232 258Z" />
<glyph unicode="&#xc7;" glyph-name="Ccedilla" horiz-adv-x="655" d="M362 -203Q331 -203 310 -193T280 -169L291 -155Q302 -168 319 -174T359 -181Q385 -181 401 -169T418 -131Q418 -113 405 -100T357 -85L322 -82L339 -12Q210 -9 136 81T61 349Q61 527 136
618T346 710Q389 710 423 702T481 680T520 651T541 619H544V698H578V493H544V553Q544 581 530 605T491 646T429 673T350 683Q234 683 169 607T104 383V318Q104 171 169 95T350 18Q435 18 488 55T566 157L587 147Q575 115 556 87T509 38T445 4T362 -12L348 -70L350
-72Q365 -69 382 -69Q412 -69 431 -85T451 -129Q451 -161 427 -182T362 -203Z" />
<glyph unicode="&#xc8;" glyph-name="Egrave" horiz-adv-x="598" d="M51 25H134V673H51V698H530V545H496V672H173V379H420V463H451V269H420V353H173V26H504V156H538V0H51V25ZM211 918L246 937L347 776L330 766L211 918Z" />
<glyph unicode="&#xc9;" glyph-name="Eacute" horiz-adv-x="598" d="M51 25H134V673H51V698H530V545H496V672H173V379H420V463H451V269H420V353H173V26H504V156H538V0H51V25ZM283 776L384 937L418 918L299 766L283 776Z" />
<glyph unicode="&#xca;" glyph-name="Ecircumflex" horiz-adv-x="598" d="M51 25H134V673H51V698H530V545H496V672H173V379H420V463H451V269H420V353H173V26H504V156H538V0H51V25ZM173 789L299 926H331L457 789L442 778L315 896L188 778L173 789Z" />
<glyph unicode="&#xcb;" glyph-name="Edieresis" horiz-adv-x="598" d="M51 25H134V673H51V698H530V545H496V672H173V379H420V463H451V269H420V353H173V26H504V156H538V0H51V25ZM224 812Q208 812 201 821T194 841V845Q194 856 201 865T224 874Q240 874 247 865T254
845V841Q254 830 247 821T224 812ZM406 812Q390 812 383 821T376 841V845Q376 856 383 865T406 874Q422 874 429 865T436 845V841Q436 830 429 821T406 812Z" />
<glyph unicode="&#xcc;" glyph-name="Igrave" horiz-adv-x="307" d="M51 25H134V673H51V698H256V673H173V25H256V0H51V25ZM51 918L86 937L187 776L170 766L51 918Z" />
<glyph unicode="&#xcd;" glyph-name="Iacute" horiz-adv-x="307" d="M51 25H134V673H51V698H256V673H173V25H256V0H51V25ZM123 776L224 937L258 918L139 766L123 776Z" />
<glyph unicode="&#xce;" glyph-name="Icircumflex" horiz-adv-x="307" d="M51 25H134V673H51V698H256V673H173V25H256V0H51V25ZM13 789L139 926H171L297 789L282 778L155 896L28 778L13 789Z" />
<glyph unicode="&#xcf;" glyph-name="Idieresis" horiz-adv-x="307" d="M51 25H134V673H51V698H256V673H173V25H256V0H51V25ZM64 812Q48 812 41 821T34 841V845Q34 856 41 865T64 874Q80 874 87 865T94 845V841Q94 830 87 821T64 812ZM246 812Q230 812 223 821T216
841V845Q216 856 223 865T246 874Q262 874 269 865T276 845V841Q276 830 269 821T246 812Z" />
<glyph unicode="&#xd0;" glyph-name="Eth" horiz-adv-x="685" d="M51 25H134V336H36V362H134V673H51V698H322Q471 698 547 611T624 349Q624 174 548 87T322 0H51V25ZM173 26H321Q387 26 436 46T517 104T565 193T581 310V388Q581 452 565 504T517 594T436 651T321
672H173V362H337V336H173V26Z" />
<glyph unicode="&#xd1;" glyph-name="Ntilde" horiz-adv-x="752" d="M51 25H134V673H51V698H184L593 58H597V673H514V698H711V673H628V0H587L168 655H165V25H248V0H51V25ZM445 803Q428 803 411 810T370 832Q350 845 333 852T302 859Q285 859 271 851T239 826L227
839Q247 862 266 874T309 886Q326 886 343 879T384 857Q404 844 421 837T452 830Q469 830 483 838T515 863L527 850Q507 827 488 815T445 803Z" />
<glyph unicode="&#xd2;" glyph-name="Ograve" horiz-adv-x="714" d="M357 15Q477 15 543 93T610 318V380Q610 526 544 604T357 683Q237 683 171 605T104 380V318Q104 172 170 94T357 15ZM357 -12Q217 -12 139 79T61 349Q61 527 139 618T357 710Q497 710 575 619T653
349Q653 171 575 80T357 -12ZM253 918L288 937L389 776L372 766L253 918Z" />
<glyph unicode="&#xd3;" glyph-name="Oacute" horiz-adv-x="714" d="M357 15Q477 15 543 93T610 318V380Q610 526 544 604T357 683Q237 683 171 605T104 380V318Q104 172 170 94T357 15ZM357 -12Q217 -12 139 79T61 349Q61 527 139 618T357 710Q497 710 575 619T653
349Q653 171 575 80T357 -12ZM325 776L426 937L460 918L341 766L325 776Z" />
<glyph unicode="&#xd4;" glyph-name="Ocircumflex" horiz-adv-x="714" d="M357 15Q477 15 543 93T610 318V380Q610 526 544 604T357 683Q237 683 171 605T104 380V318Q104 172 170 94T357 15ZM357 -12Q217 -12 139 79T61 349Q61 527 139 618T357 710Q497 710 575
619T653 349Q653 171 575 80T357 -12ZM215 789L341 926H373L499 789L484 778L357 896L230 778L215 789Z" />
<glyph unicode="&#xd5;" glyph-name="Otilde" horiz-adv-x="714" d="M357 15Q477 15 543 93T610 318V380Q610 526 544 604T357 683Q237 683 171 605T104 380V318Q104 172 170 94T357 15ZM357 -12Q217 -12 139 79T61 349Q61 527 139 618T357 710Q497 710 575 619T653
349Q653 171 575 80T357 -12ZM425 803Q408 803 391 810T350 832Q330 845 313 852T282 859Q265 859 251 851T219 826L207 839Q227 862 246 874T289 886Q306 886 323 879T364 857Q384 844 401 837T432 830Q449 830 463 838T495 863L507 850Q487 827 468 815T425 803Z"
/>
<glyph unicode="&#xd6;" glyph-name="Odieresis" horiz-adv-x="714" d="M357 15Q477 15 543 93T610 318V380Q610 526 544 604T357 683Q237 683 171 605T104 380V318Q104 172 170 94T357 15ZM357 -12Q217 -12 139 79T61 349Q61 527 139 618T357 710Q497 710 575
619T653 349Q653 171 575 80T357 -12ZM266 812Q250 812 243 821T236 841V845Q236 856 243 865T266 874Q282 874 289 865T296 845V841Q296 830 289 821T266 812ZM448 812Q432 812 425 821T418 841V845Q418 856 425 865T448 874Q464 874 471 865T478 845V841Q478
830 471 821T448 812Z" />
<glyph unicode="&#xd7;" glyph-name="multiply" horiz-adv-x="600" d="M103 127L281 305L103 483L123 502L300 324L477 502L497 483L319 305L497 127L477 108L300 286L123 108L103 127Z" />
<glyph unicode="&#xd8;" glyph-name="Oslash" horiz-adv-x="714" d="M86 -20L148 70Q106 115 84 185T61 349Q61 527 139 618T357 710Q474 710 546 647L605 733L628 718L566 628Q608 583 630 513T653 349Q653 171 575 80T357 -12Q240 -12 168 51L109 -35L86 -20ZM528
620Q463 683 357 683Q237 683 171 605T104 380V318Q104 176 168 98L528 620ZM357 15Q477 15 543 93T610 318V380Q610 522 546 600L186 78Q251 15 357 15Z" />
<glyph unicode="&#xd9;" glyph-name="Ugrave" horiz-adv-x="720" d="M360 -12Q294 -12 249 3T177 52T137 140T124 272V673H41V698H246V673H163V264Q163 198 172 151T205 74T266 31T363 17Q421 17 460 30T522 74T556 151T566 264V673H483V698H679V673H596V272Q596
194 584 140T544 53T471 4T360 -12ZM261 918L296 937L397 776L380 766L261 918Z" />
<glyph unicode="&#xda;" glyph-name="Uacute" horiz-adv-x="720" d="M360 -12Q294 -12 249 3T177 52T137 140T124 272V673H41V698H246V673H163V264Q163 198 172 151T205 74T266 31T363 17Q421 17 460 30T522 74T556 151T566 264V673H483V698H679V673H596V272Q596
194 584 140T544 53T471 4T360 -12ZM333 776L434 937L468 918L349 766L333 776Z" />
<glyph unicode="&#xdb;" glyph-name="Ucircumflex" horiz-adv-x="720" d="M360 -12Q294 -12 249 3T177 52T137 140T124 272V673H41V698H246V673H163V264Q163 198 172 151T205 74T266 31T363 17Q421 17 460 30T522 74T556 151T566 264V673H483V698H679V673H596V272Q596
194 584 140T544 53T471 4T360 -12ZM223 789L349 926H381L507 789L492 778L365 896L238 778L223 789Z" />
<glyph unicode="&#xdc;" glyph-name="Udieresis" horiz-adv-x="720" d="M360 -12Q294 -12 249 3T177 52T137 140T124 272V673H41V698H246V673H163V264Q163 198 172 151T205 74T266 31T363 17Q421 17 460 30T522 74T556 151T566 264V673H483V698H679V673H596V272Q596
194 584 140T544 53T471 4T360 -12ZM274 812Q258 812 251 821T244 841V845Q244 856 251 865T274 874Q290 874 297 865T304 845V841Q304 830 297 821T274 812ZM456 812Q440 812 433 821T426 841V845Q426 856 433 865T456 874Q472 874 479 865T486 845V841Q486 830
479 821T456 812Z" />
<glyph unicode="&#xdd;" glyph-name="Yacute" horiz-adv-x="630" d="M192 25H295V283L77 673H15V698H219V673H120L318 317H321L520 673H421V698H614V673H552L334 286V25H437V0H192V25ZM288 776L389 937L423 918L304 766L288 776Z" />
<glyph unicode="&#xde;" glyph-name="Thorn" horiz-adv-x="601" d="M51 25H134V673H51V698H256V673H173V534H373Q462 534 508 486T555 350Q555 264 508 215T372 165H173V25H256V0H51V25ZM173 191H371Q406 191 432 202T477 233T504 277T513 330V370Q513 397 504
422T477 466T433 496T371 508H173V191Z" />
<glyph unicode="&#xdf;" glyph-name="germandbls" horiz-adv-x="651" d="M440 -12Q408 -12 380 -6T332 12T301 38T289 70Q289 85 298 94T321 104Q336 104 344 95T353 72Q353 61 347 53T330 40V38Q352 24 378 19T436 13Q497 13 534 41T572 124Q572 175 546 199T468
236L428 246Q367 261 334 288T301 376Q301 409 315 434T356 475T418 500T498 509V544Q498 640 456 692T333 744Q252 744 210 692T168 544V0H48V25H131V482H48V508H131V541Q131 593 144 635T184 707T247 753T333 770Q381 770 418 754T482 707T521 635T535 541V484H513Q433
484 385 459T336 380Q336 357 342 341T360 313T392 294T437 280L476 269Q506 261 530 251T571 224T598 185T607 130Q607 63 561 26T440 -12Z" />
<glyph unicode="&#xe0;" glyph-name="agrave" horiz-adv-x="530" d="M216 -12Q141 -12 99 25T56 124Q56 197 107 234T277 271H379V359Q379 427 343 461T239 495Q194 495 165 488T120 469V467Q131 462 138 454T145 432Q145 399 111 399Q96 399 87 407T78 433Q78
449 90 465T125 493T178 512T246 520Q324 520 370 480T416 364V22H496V3Q486 -2 468 -5T434 -8Q406 -8 394 3T381 44V86H378Q371 69 359 52T327 20T280 -3T216 -12ZM225 15Q258 15 286 24T335 51T367 92T379 144V249H284Q231 249 195 242T137 220T106 185T96 137V114Q96
71 129 43T225 15ZM399 739L434 758L535 597L518 587L399 739Z" />
<glyph unicode="&#xe1;" glyph-name="aacute" horiz-adv-x="530" d="M216 -12Q141 -12 99 25T56 124Q56 197 107 234T277 271H379V359Q379 427 343 461T239 495Q194 495 165 488T120 469V467Q131 462 138 454T145 432Q145 399 111 399Q96 399 87 407T78 433Q78
449 90 465T125 493T178 512T246 520Q324 520 370 480T416 364V22H496V3Q486 -2 468 -5T434 -8Q406 -8 394 3T381 44V86H378Q371 69 359 52T327 20T280 -3T216 -12ZM225 15Q258 15 286 24T335 51T367 92T379 144V249H284Q231 249 195 242T137 220T106 185T96 137V114Q96
71 129 43T225 15ZM471 597L572 758L606 739L487 587L471 597Z" />
<glyph unicode="&#xe2;" glyph-name="acircumflex" horiz-adv-x="530" d="M216 -12Q141 -12 99 25T56 124Q56 197 107 234T277 271H379V359Q379 427 343 461T239 495Q194 495 165 488T120 469V467Q131 462 138 454T145 432Q145 399 111 399Q96 399 87 407T78 433Q78
449 90 465T125 493T178 512T246 520Q324 520 370 480T416 364V22H496V3Q486 -2 468 -5T434 -8Q406 -8 394 3T381 44V86H378Q371 69 359 52T327 20T280 -3T216 -12ZM225 15Q258 15 286 24T335 51T367 92T379 144V249H284Q231 249 195 242T137 220T106 185T96 137V114Q96
71 129 43T225 15ZM361 611L487 748H519L645 611L630 600L503 718L376 600L361 611Z" />
<glyph unicode="&#xe3;" glyph-name="atilde" horiz-adv-x="530" d="M216 -12Q141 -12 99 25T56 124Q56 197 107 234T277 271H379V359Q379 427 343 461T239 495Q194 495 165 488T120 469V467Q131 462 138 454T145 432Q145 399 111 399Q96 399 87 407T78 433Q78
449 90 465T125 493T178 512T246 520Q324 520 370 480T416 364V22H496V3Q486 -2 468 -5T434 -8Q406 -8 394 3T381 44V86H378Q371 69 359 52T327 20T280 -3T216 -12ZM225 15Q258 15 286 24T335 51T367 92T379 144V249H284Q231 249 195 242T137 220T106 185T96 137V114Q96
71 129 43T225 15ZM571 626Q554 626 537 633T496 655Q476 668 459 675T428 682Q411 682 397 674T365 649L353 662Q373 685 392 697T435 709Q452 709 469 702T510 680Q530 667 547 660T578 653Q595 653 609 661T641 686L653 673Q633 650 614 638T571 626Z" />
<glyph unicode="&#xe4;" glyph-name="adieresis" horiz-adv-x="530" d="M216 -12Q141 -12 99 25T56 124Q56 197 107 234T277 271H379V359Q379 427 343 461T239 495Q194 495 165 488T120 469V467Q131 462 138 454T145 432Q145 399 111 399Q96 399 87 407T78 433Q78
449 90 465T125 493T178 512T246 520Q324 520 370 480T416 364V22H496V3Q486 -2 468 -5T434 -8Q406 -8 394 3T381 44V86H378Q371 69 359 52T327 20T280 -3T216 -12ZM225 15Q258 15 286 24T335 51T367 92T379 144V249H284Q231 249 195 242T137 220T106 185T96 137V114Q96
71 129 43T225 15ZM412 636Q396 636 389 645T382 665V669Q382 680 389 689T412 698Q428 698 435 689T442 669V665Q442 654 435 645T412 636ZM594 636Q578 636 571 645T564 665V669Q564 680 571 689T594 698Q610 698 617 689T624 669V665Q624 654 617 645T594 636Z"
/>
<glyph unicode="&#xe5;" glyph-name="aring" horiz-adv-x="530" d="M216 -12Q141 -12 99 25T56 124Q56 197 107 234T277 271H379V359Q379 427 343 461T239 495Q194 495 165 488T120 469V467Q131 462 138 454T145 432Q145 399 111 399Q96 399 87 407T78 433Q78
449 90 465T125 493T178 512T246 520Q324 520 370 480T416 364V22H496V3Q486 -2 468 -5T434 -8Q406 -8 394 3T381 44V86H378Q371 69 359 52T327 20T280 -3T216 -12ZM225 15Q258 15 286 24T335 51T367 92T379 144V249H284Q231 249 195 242T137 220T106 185T96 137V114Q96
71 129 43T225 15ZM503 614Q534 614 552 631T570 681V699Q570 731 552 748T503 766Q472 766 454 749T436 699V681Q436 649 454 632T503 614ZM503 593Q460 593 433 620T406 690Q406 732 433 759T503 787Q546 787 573 760T600 690Q600 648 573 621T503 593Z" />
<glyph unicode="&#xe6;" glyph-name="ae" horiz-adv-x="846" d="M216 -12Q141 -12 99 25T56 125Q56 164 68 193T106 241T175 269T276 279H379V359Q379 495 234 495Q190 495 163 488T120 469V467Q131 462 138 454T145 432Q145 399 111 399Q96 399 87 407T78 433Q78
449 90 464T124 492T176 512T243 520Q321 520 362 484T405 391H410Q430 450 477 485T594 520Q639 520 675 503T736 453T776 375T790 274V256H418V234Q418 181 431 141T468 73T525 32T598 18Q659 18 697 48T758 118L777 107Q767 86 751 65T713 27T661 -1T594 -12Q528
-12 479 20T406 117H401Q396 91 382 68T345 27T289 -1T216 -12ZM225 15Q259 15 287 24T336 51T367 92T379 144V256H282Q229 256 194 249T137 227T106 190T96 139V116Q96 71 129 43T225 15ZM418 279H750V285Q750 331 740 370T710 436T661 479T594 495Q553 495 521
481T466 439T431 375T418 292V279Z" />
<glyph unicode="&#xe7;" glyph-name="ccedilla" horiz-adv-x="504" d="M289 -203Q258 -203 237 -193T207 -169L218 -155Q229 -168 246 -174T286 -181Q312 -181 328 -169T345 -131Q345 -113 332 -100T284 -85L249 -82L266 -12Q221 -10 183 8T116 59T72 140T56 254Q56
318 72 368T117 451T188 502T279 520Q312 520 340 513T388 494T421 467T433 433Q433 396 398 396Q381 396 372 405T363 431Q363 458 391 468V471Q370 485 342 490T281 495Q239 495 205 480T147 437T110 370T97 283V230Q97 182 110 143T147 77T205 34T281 18Q314
18 338 26T382 49T415 81T441 120L460 109Q450 88 436 68T402 30T354 2T289 -12L275 -70L277 -72Q285 -70 293 -70T309 -69Q339 -69 358 -85T378 -129Q378 -161 354 -182T289 -203Z" />
<glyph unicode="&#xe8;" glyph-name="egrave" horiz-adv-x="535" d="M277 -12Q228 -12 188 5T118 55T72 139T56 254Q56 319 72 369T117 452T187 503T277 520Q323 520 360 503T424 454T465 379T479 284V271H97V234Q97 128 148 73T280 18Q313 18 339 26T386 49T422
81T449 120L468 109Q457 88 441 66T401 27T347 -1T277 -12ZM439 295V297Q439 340 429 376T397 438T346 480T277 495Q236 495 203 481T146 440T110 376T97 295H439ZM430 739L465 758L566 597L549 587L430 739Z" />
<glyph unicode="&#xe9;" glyph-name="eacute" horiz-adv-x="535" d="M277 -12Q228 -12 188 5T118 55T72 139T56 254Q56 319 72 369T117 452T187 503T277 520Q323 520 360 503T424 454T465 379T479 284V271H97V234Q97 128 148 73T280 18Q313 18 339 26T386 49T422
81T449 120L468 109Q457 88 441 66T401 27T347 -1T277 -12ZM439 295V297Q439 340 429 376T397 438T346 480T277 495Q236 495 203 481T146 440T110 376T97 295H439ZM502 597L603 758L637 739L518 587L502 597Z" />
<glyph unicode="&#xea;" glyph-name="ecircumflex" horiz-adv-x="535" d="M277 -12Q228 -12 188 5T118 55T72 139T56 254Q56 319 72 369T117 452T187 503T277 520Q323 520 360 503T424 454T465 379T479 284V271H97V234Q97 128 148 73T280 18Q313 18 339 26T386
49T422 81T449 120L468 109Q457 88 441 66T401 27T347 -1T277 -12ZM439 295V297Q439 340 429 376T397 438T346 480T277 495Q236 495 203 481T146 440T110 376T97 295H439ZM392 611L518 748H550L676 611L661 600L534 718L407 600L392 611Z" />
<glyph unicode="&#xeb;" glyph-name="edieresis" horiz-adv-x="535" d="M277 -12Q228 -12 188 5T118 55T72 139T56 254Q56 319 72 369T117 452T187 503T277 520Q323 520 360 503T424 454T465 379T479 284V271H97V234Q97 128 148 73T280 18Q313 18 339 26T386 49T422
81T449 120L468 109Q457 88 441 66T401 27T347 -1T277 -12ZM439 295V297Q439 340 429 376T397 438T346 480T277 495Q236 495 203 481T146 440T110 376T97 295H439ZM443 636Q427 636 420 645T413 665V669Q413 680 420 689T443 698Q459 698 466 689T473 669V665Q473
654 466 645T443 636ZM625 636Q609 636 602 645T595 665V669Q595 680 602 689T625 698Q641 698 648 689T655 669V665Q655 654 648 645T625 636Z" />
<glyph unicode="&#xec;" glyph-name="igrave" horiz-adv-x="280" d="M42 25H125V476L42 483V501L162 516V25H245V0H42V25ZM41 739L76 758L177 597L160 587L41 739Z" />
<glyph unicode="&#xed;" glyph-name="iacute" horiz-adv-x="280" d="M42 25H125V476L42 483V501L162 516V25H245V0H42V25ZM113 597L214 758L248 739L129 587L113 597Z" />
<glyph unicode="&#xee;" glyph-name="icircumflex" horiz-adv-x="280" d="M42 25H125V476L42 483V501L162 516V25H245V0H42V25ZM3 611L129 748H161L287 611L272 600L145 718L18 600L3 611Z" />
<glyph unicode="&#xef;" glyph-name="idieresis" horiz-adv-x="280" d="M42 25H125V476L42 483V501L162 516V25H245V0H42V25ZM54 636Q38 636 31 645T24 665V669Q24 680 31 689T54 698Q70 698 77 689T84 669V665Q84 654 77 645T54 636ZM236 636Q220 636 213 645T206
665V669Q206 680 213 689T236 698Q252 698 259 689T266 669V665Q266 654 259 645T236 636Z" />
<glyph unicode="&#xf0;" glyph-name="eth" horiz-adv-x="554" d="M274 -12Q224 -12 184 6T116 58T72 141T56 252Q56 377 112 446T268 516Q318 516 357 496T423 437L426 439Q403 504 366 560T281 664L174 587L159 607L263 682Q237 704 210 723T153 758H201Q221
747 242 732T285 698L385 770L400 750L304 681Q340 648 373 606T433 511T476 395T492 259Q492 193 477 143T433 58T364 6T274 -12ZM274 14Q313 14 345 28T402 68T439 133T452 222V282Q452 331 439 370T402 435T346 476T274 490Q235 490 203 476T146 436T109 370T96
282V222Q96 172 109 134T146 69T202 28T274 14Z" />
<glyph unicode="&#xf1;" glyph-name="ntilde" horiz-adv-x="605" d="M42 25H125V476L42 483V501L161 516V427H165Q178 463 215 491T320 520Q408 520 449 472T491 328V25H574V0H371V25H454V323Q454 411 418 451T310 492Q281 492 255 484T208 461T175 421T162 364V25H245V0H42V25ZM378
626Q361 626 344 633T303 655Q283 668 266 675T235 682Q218 682 204 674T172 649L160 662Q180 685 199 697T242 709Q259 709 276 702T317 680Q337 667 354 660T385 653Q402 653 416 661T448 686L460 673Q440 650 421 638T378 626Z" />
<glyph unicode="&#xf2;" glyph-name="ograve" horiz-adv-x="550" d="M275 14Q362 14 407 70T452 222V286Q452 333 441 371T407 437T352 479T275 494Q231 494 198 479T143 437T110 372T98 286V222Q98 127 143 71T275 14ZM275 -12Q172 -12 114 56T56 254Q56 384
114 452T275 520Q378 520 436 452T494 254Q494 124 436 56T275 -12ZM427 739L462 758L563 597L546 587L427 739Z" />
<glyph unicode="&#xf3;" glyph-name="oacute" horiz-adv-x="550" d="M275 14Q362 14 407 70T452 222V286Q452 333 441 371T407 437T352 479T275 494Q231 494 198 479T143 437T110 372T98 286V222Q98 127 143 71T275 14ZM275 -12Q172 -12 114 56T56 254Q56 384
114 452T275 520Q378 520 436 452T494 254Q494 124 436 56T275 -12ZM499 597L600 758L634 739L515 587L499 597Z" />
<glyph unicode="&#xf4;" glyph-name="ocircumflex" horiz-adv-x="550" d="M275 14Q362 14 407 70T452 222V286Q452 333 441 371T407 437T352 479T275 494Q231 494 198 479T143 437T110 372T98 286V222Q98 127 143 71T275 14ZM275 -12Q172 -12 114 56T56 254Q56
384 114 452T275 520Q378 520 436 452T494 254Q494 124 436 56T275 -12ZM389 611L515 748H547L673 611L658 600L531 718L404 600L389 611Z" />
<glyph unicode="&#xf5;" glyph-name="otilde" horiz-adv-x="550" d="M275 14Q362 14 407 70T452 222V286Q452 333 441 371T407 437T352 479T275 494Q231 494 198 479T143 437T110 372T98 286V222Q98 127 143 71T275 14ZM275 -12Q172 -12 114 56T56 254Q56 384
114 452T275 520Q378 520 436 452T494 254Q494 124 436 56T275 -12ZM599 626Q582 626 565 633T524 655Q504 668 487 675T456 682Q439 682 425 674T393 649L381 662Q401 685 420 697T463 709Q480 709 497 702T538 680Q558 667 575 660T606 653Q623 653 637 661T669
686L681 673Q661 650 642 638T599 626Z" />
<glyph unicode="&#xf6;" glyph-name="odieresis" horiz-adv-x="550" d="M275 14Q362 14 407 70T452 222V286Q452 333 441 371T407 437T352 479T275 494Q231 494 198 479T143 437T110 372T98 286V222Q98 127 143 71T275 14ZM275 -12Q172 -12 114 56T56 254Q56 384
114 452T275 520Q378 520 436 452T494 254Q494 124 436 56T275 -12ZM440 636Q424 636 417 645T410 665V669Q410 680 417 689T440 698Q456 698 463 689T470 669V665Q470 654 463 645T440 636ZM622 636Q606 636 599 645T592 665V669Q592 680 599 689T622 698Q638
698 645 689T652 669V665Q652 654 645 645T622 636Z" />
<glyph unicode="&#xf7;" glyph-name="divide" horiz-adv-x="600" d="M300 84Q280 84 270 93T259 119V126Q259 142 269 151T300 161Q320 161 330 152T341 126V119Q341 103 331 94T300 84ZM300 449Q280 449 270 459T259 484V492Q259 507 269 517T300 527Q320 527
330 517T341 492V484Q341 469 331 459T300 449ZM63 318H537V292H63V318Z" />
<glyph unicode="&#xf8;" glyph-name="oslash" horiz-adv-x="550" d="M40 -18L107 66Q56 134 56 254Q56 384 114 452T275 520Q370 520 426 462L490 541L510 526L442 443Q494 374 494 254Q494 124 436 56T275 -12Q180 -12 124 46L60 -33L40 -18ZM407 437Q384 464
352 479T275 494Q231 494 198 479T143 437T110 372T98 286V222Q98 143 128 92L407 437ZM275 14Q362 14 407 70T452 222V286Q452 366 421 416L143 71Q166 44 198 29T275 14Z" />
<glyph unicode="&#xf9;" glyph-name="ugrave" horiz-adv-x="589" d="M280 -12Q192 -12 151 36T109 180V476L26 483V501L146 516V185Q146 97 182 57T290 16Q319 16 345 24T392 47T425 87T438 144V476L355 483V501L475 516V32L558 25V7L439 -8V81H435Q422 45 385
17T280 -12ZM429 739L464 758L565 597L548 587L429 739Z" />
<glyph unicode="&#xfa;" glyph-name="uacute" horiz-adv-x="589" d="M280 -12Q192 -12 151 36T109 180V476L26 483V501L146 516V185Q146 97 182 57T290 16Q319 16 345 24T392 47T425 87T438 144V476L355 483V501L475 516V32L558 25V7L439 -8V81H435Q422 45 385
17T280 -12ZM501 597L602 758L636 739L517 587L501 597Z" />
<glyph unicode="&#xfb;" glyph-name="ucircumflex" horiz-adv-x="589" d="M280 -12Q192 -12 151 36T109 180V476L26 483V501L146 516V185Q146 97 182 57T290 16Q319 16 345 24T392 47T425 87T438 144V476L355 483V501L475 516V32L558 25V7L439 -8V81H435Q422 45
385 17T280 -12ZM391 611L517 748H549L675 611L660 600L533 718L406 600L391 611Z" />
<glyph unicode="&#xfc;" glyph-name="udieresis" horiz-adv-x="589" d="M280 -12Q192 -12 151 36T109 180V476L26 483V501L146 516V185Q146 97 182 57T290 16Q319 16 345 24T392 47T425 87T438 144V476L355 483V501L475 516V32L558 25V7L439 -8V81H435Q422 45
385 17T280 -12ZM442 636Q426 636 419 645T412 665V669Q412 680 419 689T442 698Q458 698 465 689T472 669V665Q472 654 465 645T442 636ZM624 636Q608 636 601 645T594 665V669Q594 680 601 689T624 698Q640 698 647 689T654 669V665Q654 654 647 645T624 636Z"
/>
<glyph unicode="&#xfd;" glyph-name="yacute" horiz-adv-x="516" d="M110 -212Q69 -212 52 -195T34 -156Q34 -122 68 -122Q82 -122 91 -131T100 -154Q100 -166 93 -174T76 -186V-188Q83 -190 91 -191T109 -192Q144 -192 170 -163T219 -74L244 -8L58 483H7V508H194V483H98L262
41H265L427 483H331V508H508V483H457L244 -79Q219 -145 188 -178T110 -212ZM487 597L588 758L622 739L503 587L487 597Z" />
<glyph unicode="&#xfe;" glyph-name="thorn" horiz-adv-x="576" d="M21 -175H104V725L21 732V750L141 765V425H144Q152 444 166 461T200 491T246 512T306 520Q406 520 462 454T519 254Q519 121 463 55T306 -12Q240 -12 200 16T144 83H141V-175H244V-200H21V-175ZM300
16Q386 16 432 72T478 226V282Q478 379 432 435T300 492Q269 492 241 483T190 458T155 418T141 365V143Q141 114 154 91T190 51T240 25T300 16Z" />
<glyph unicode="&#xff;" glyph-name="ydieresis" horiz-adv-x="516" d="M110 -212Q69 -212 52 -195T34 -156Q34 -122 68 -122Q82 -122 91 -131T100 -154Q100 -166 93 -174T76 -186V-188Q83 -190 91 -191T109 -192Q144 -192 170 -163T219 -74L244 -8L58 483H7V508H194V483H98L262
41H265L427 483H331V508H508V483H457L244 -79Q219 -145 188 -178T110 -212ZM428 636Q412 636 405 645T398 665V669Q398 680 405 689T428 698Q444 698 451 689T458 669V665Q458 654 451 645T428 636ZM610 636Q594 636 587 645T580 665V669Q580 680 587 689T610 698Q626
698 633 689T640 669V665Q640 654 633 645T610 636Z" />
<glyph unicode="&#x2013;" glyph-name="endash" horiz-adv-x="589" d="M34 318H555V291H34V318Z" />
<glyph unicode="&#x2014;" glyph-name="emdash" horiz-adv-x="783" d="M34 318H749V291H34V318Z" />
<glyph unicode="&#x2018;" glyph-name="quoteleft" horiz-adv-x="244" d="M122 527Q105 527 95 537T85 563V567Q85 613 109 660T169 740H195Q159 704 141 670T119 603H122Q139 603 149 593T159 567V563Q159 547 149 537T122 527Z" />
<glyph unicode="&#x2019;" glyph-name="quoteright" horiz-adv-x="244" d="M49 527Q85 563 103 597T125 664H122Q105 664 95 674T85 700V704Q85 720 95 730T122 740Q139 740 149 730T159 704V700Q159 654 135 607T75 527H49V527Z" />
<glyph unicode="&#x201a;" glyph-name="quotesinglbase" horiz-adv-x="244" d="M49 -131Q85 -95 103 -61T125 6H122Q105 6 95 16T85 42V46Q85 62 95 72T122 82Q139 82 149 72T159 46V42Q159 -4 135 -51T75 -131H49V-131Z" />
<glyph unicode="&#x201c;" glyph-name="quotedblleft" horiz-adv-x="414" d="M122 527Q105 527 95 537T85 563V567Q85 613 109 660T169 740H195Q159 704 141 670T119 603H122Q139 603 149 593T159 567V563Q159 547 149 537T122 527ZM292 527Q275 527 265 537T255
563V567Q255 613 279 660T339 740H365Q329 704 311 670T289 603H292Q309 603 319 593T329 567V563Q329 547 319 537T292 527Z" />
<glyph unicode="&#x201d;" glyph-name="quotedblright" horiz-adv-x="414" d="M49 527Q85 563 103 597T125 664H122Q105 664 95 674T85 700V704Q85 720 95 730T122 740Q139 740 149 730T159 704V700Q159 654 135 607T75 527H49V527ZM219 527Q255 563 273 597T295
664H292Q275 664 265 674T255 700V704Q255 720 265 730T292 740Q309 740 319 730T329 704V700Q329 654 305 607T245 527H219V527Z" />
<glyph unicode="&#x201e;" glyph-name="quotedblbase" horiz-adv-x="414" d="M49 -131Q85 -95 103 -61T125 6H122Q105 6 95 16T85 42V46Q85 62 95 72T122 82Q139 82 149 72T159 46V42Q159 -4 135 -51T75 -131H49V-131ZM219 -131Q255 -95 273 -61T295 6H292Q275
6 265 16T255 42V46Q255 62 265 72T292 82Q309 82 319 72T329 46V42Q329 -4 305 -51T245 -131H219V-131Z" />
<glyph unicode="&#x2022;" glyph-name="bullet" horiz-adv-x="354" d="M177 209Q133 209 108 234T83 301V307Q83 348 108 373T177 399Q221 399 246 374T271 307V301Q271 260 246 235T177 209Z" />
<glyph unicode="&#x2039;" glyph-name="guilsinglleft" horiz-adv-x="304" d="M34 278V306L231 484L243 466L74 292L243 118L231 100L34 278Z" />
<glyph unicode="&#x203a;" glyph-name="guilsinglright" horiz-adv-x="304" d="M61 118L230 292L61 466L73 484L270 306V278L73 100L61 118Z" />
</font>
</defs>
</svg>
