<?xml version="1.0" standalone="no"?>
<!DOCTYPE svg PUBLIC "-//W3C//DTD SVG 1.1//EN" "http://www.w3.org/Graphics/SVG/1.1/DTD/svg11.dtd">
<svg xmlns="http://www.w3.org/2000/svg">
<defs >
<font id="IBMPlexSerif" horiz-adv-x="597" ><font-face
    font-family="IBM Plex Serif SemiBold"
    units-per-em="1000"
    panose-1="2 6 7 3 5 4 6 0 2 3"
    ascent="1025"
    descent="-275"
    alphabetic="0" />
<glyph unicode=" " glyph-name="space" horiz-adv-x="212" />
<glyph unicode="!" glyph-name="exclam" horiz-adv-x="286" d="M138 536L178 698H325L285 536L161 211H101L138 536ZM87 -12Q51 -12 31 8T10 57Q10 68 13 82Q21 115 46 134T108 154Q144 154 164 134T185 85Q185 73 182 60Q174 27 149 8T87 -12Z" />
<glyph unicode="&quot;" glyph-name="quotedbl" horiz-adv-x="433" d="M155 630L183 740H290L262 630L177 427H138L155 630ZM356 630L384 740H491L463 630L378 427H339L356 630Z" />
<glyph unicode="#" glyph-name="numbersign" horiz-adv-x="589" d="M325 194H182L105 0H25L102 194H7L25 262H130L200 436H105L123 504H228L305 698H385L308 504H451L528 698H608L531 504H626L608 436H503L433 262H528L510 194H405L328 0H248L325 194ZM353 262L423
436H280L210 262H353Z" />
<glyph unicode="$" glyph-name="dollar" horiz-adv-x="557" d="M185 -2Q153 0 124 7T72 29T36 65T22 117Q22 134 27 151T43 181T68 202T102 210Q131 210 146 192T162 150Q162 124 146 102T95 73V65Q115 58 139 55T199 51L261 298L255 300Q182 323 148 363T114
473Q114 518 130 558T178 630T256 680T361 702L381 780H437L416 701Q444 698 470 690T517 668T550 632T563 582Q563 565 558 548T542 518T517 497T483 489Q454 489 439 507T423 549Q423 575 439 597T489 625L490 633Q470 639 451 643T403 648L344 412L356 408Q433
384 467 345T501 243Q501 195 483 152T432 75T350 21T241 -3L221 -82H165L185 -2ZM387 198Q387 227 368 247T311 282L255 55Q314 68 350 108T387 198ZM222 519Q222 490 237 468T293 429L348 645Q316 640 293 628T253 598T230 560T222 519Z" />
<glyph unicode="%" glyph-name="percent" horiz-adv-x="855" d="M719 698H795L181 0H105L719 698ZM231 314Q175 314 139 343T102 440Q102 473 112 519T147 607T214 680T320 710Q377 710 413 681T449 584Q449 551 439 505T404 417T337 344T231 314ZM240 364Q294
364 317 457Q327 494 333 519T344 563T349 593T351 613Q351 639 340 649T311 660Q256 660 234 567Q224 530 218 504T207 460T202 431T200 411Q200 385 211 375T240 364ZM580 -12Q524 -12 488 17T451 114Q451 147 461 193T496 281T563 354T669 384Q726 384 762 355T798
258Q798 225 788 179T753 91T686 18T580 -12ZM589 38Q643 38 666 131Q676 168 682 193T693 237T698 267T700 287Q700 313 689 323T660 334Q605 334 583 241Q573 204 567 178T556 134T551 105T549 85Q549 59 560 49T589 38Z" />
<glyph unicode="&amp;" glyph-name="ampersand" horiz-adv-x="692" d="M215 -12Q168 -12 129 -3T62 24T19 72T3 143Q3 189 20 224T68 288T139 339T227 382L220 396Q203 430 193 455T182 514Q182 561 202 597T255 659T330 697T419 710Q507 710 545 679T584 596Q584
556 564 525T511 468T440 424T365 390L471 193Q493 222 512 256T544 328H484L499 387H689L674 328H614Q595 271 567 222T503 132L521 98Q534 75 558 66T619 57L605 0H499Q467 0 446 10T408 44Q366 17 319 3T215 -12ZM256 55Q288 55 319 65T379 96L253 333Q215 305
194 272T164 206Q160 192 156 174T152 142Q152 98 181 77T256 55ZM314 530Q314 505 321 483T342 434Q387 459 416 488T454 555Q456 561 458 576T461 599Q461 625 447 638T410 651Q378 651 354 631T321 574Q318 563 316 553T314 530Z" />
<glyph unicode="&apos;" glyph-name="quotesingle" horiz-adv-x="232" d="M155 630L183 740H290L262 630L177 427H138L155 630Z" />
<glyph unicode="(" glyph-name="parenleft" horiz-adv-x="323" d="M444 733Q400 702 362 660T293 568T238 459T199 340L180 263Q171 225 166 187T160 107Q160 79 163 49T175 -10T196 -66T231 -115L188 -156Q155 -134 127 -103T79 -29T46 65T34 180Q34 273 66 369Q88
435 123 496T205 611T305 707T417 780L444 733Z" />
<glyph unicode=")" glyph-name="parenright" horiz-adv-x="323" d="M-96 -109Q-52 -78 -14 -36T55 56T110 164T149 284L168 361Q177 399 182 437T188 517Q188 545 185 575T173 634T152 690T117 739L160 780Q193 758 221 727T269 653T302 559T314 444Q314 351 282
255Q261 189 225 128T143 13T43 -83T-69 -156L-96 -109Z" />
<glyph unicode="*" glyph-name="asterisk" horiz-adv-x="524" d="M317 689L331 747H441L427 689L364 573H323L317 689ZM157 533L104 550L160 643L211 626L299 558L280 526L157 533ZM381 559L496 627L556 644L566 543L506 526L384 523L381 559ZM243 368L197 321L119
384L165 431L281 504L311 480L243 368ZM370 501L452 423L474 375L374 319L352 367L336 481L370 501Z" />
<glyph unicode="+" glyph-name="plus" horiz-adv-x="550" d="M236 269H64L82 342H254L302 534H385L337 342H509L491 269H319L270 76H187L236 269Z" />
<glyph unicode="," glyph-name="comma" horiz-adv-x="276" d="M-65 -143Q-22 -111 10 -78T63 -9Q35 -3 20 15T4 57Q4 69 7 83Q15 115 40 134T102 154Q137 154 157 133T178 82Q178 68 175 55Q167 26 151 -2T112 -56T64 -104T13 -143H-65Z" />
<glyph unicode="-" glyph-name="hyphen" horiz-adv-x="371" d="M51 260L74 350H344L321 260H51Z" />
<glyph unicode="." glyph-name="period" horiz-adv-x="275" d="M81 -12Q45 -12 25 8T4 57Q4 68 7 82Q15 115 40 134T102 154Q138 154 158 134T179 85Q179 73 176 60Q168 27 143 8T81 -12Z" />
<glyph unicode="/" glyph-name="slash" horiz-adv-x="401" d="M-98 -151L390 740H487L-1 -151H-98Z" />
<glyph unicode="0" glyph-name="zero" horiz-adv-x="550" d="M216 -12Q132 -12 84 36T36 192Q36 217 41 265T61 370T101 488T164 597T255 678T379 710Q463 710 511 662T559 506Q559 481 554 433T534 328T494 210T431 101T340 20T216 -12ZM222 50Q252 50 273 65T310
110T338 181T365 278Q381 342 393 390T414 474T426 536T431 582Q431 611 418 629T373 648Q343 648 322 633T285 588T256 517T230 420Q214 356 202 308T181 224T169 162T164 116Q164 87 177 69T222 50Z" />
<glyph unicode="1" glyph-name="one" horiz-adv-x="550" d="M34 57H179L314 597L146 536L134 588L371 698H481L321 57H457L444 0H20L34 57Z" />
<glyph unicode="2" glyph-name="two" horiz-adv-x="550" d="M-3 93L231 302Q285 350 324 398T379 509Q380 512 382 520T386 538T389 558T391 578Q391 614 372 634T314 654Q287 654 268 650T231 639L228 631Q247 626 258 612T270 578Q270 548 249 524T187 499Q160
499 142 515T123 563Q123 590 139 616T184 664T255 697T348 710Q399 710 435 699T494 669T528 623T539 565Q539 511 518 467T462 385T386 316T304 255L109 113L106 102H376L400 195H473L425 0H-26L-3 93Z" />
<glyph unicode="3" glyph-name="three" horiz-adv-x="550" d="M186 -12Q138 -12 103 -2T46 26T14 64T3 109Q3 131 10 148T30 177T58 195T90 201Q124 201 139 183T154 142Q154 124 148 111T131 90T107 77T82 71L79 63Q95 53 117 49T164 44Q228 44 265 74T319 169Q320
173 322 182T327 203T332 226T334 248Q334 294 305 313T228 332H171L187 397H242Q312 397 348 429T397 508Q399 517 404 538T409 577Q409 618 386 636T325 654Q275 654 242 640L239 632Q260 627 270 613T281 579Q281 547 259 524T199 500Q172 500 153 515T134 563Q134
590 150 616T195 664T267 697T362 710Q458 710 508 677T558 574Q558 527 539 492T489 433T420 394T344 373L342 365Q408 355 445 322T483 231Q483 194 468 152T417 73T325 12T186 -12Z" />
<glyph unicode="4" glyph-name="four" horiz-adv-x="550" d="M261 151H-2L20 236L378 698H534L421 243H512L489 151H397L360 0H223L261 151ZM283 243L372 594H363L98 243H283Z" />
<glyph unicode="5" glyph-name="five" horiz-adv-x="550" d="M191 -12Q142 -12 109 -1T54 27T24 66T15 109Q15 131 22 148T42 177T69 195T101 201Q136 201 151 183T166 142Q166 107 144 90T94 70L91 62Q119 44 171 44Q229 44 269 81T328 194Q330 203 336 227T342
275Q342 319 318 337T261 355Q227 355 196 337T148 294L87 309L208 698H575L547 587H234L158 341H168Q179 359 194 375T229 404T275 424T334 432Q366 432 394 424T445 399T479 353T492 286Q492 223 470 169T408 74T313 11T191 -12Z" />
<glyph unicode="6" glyph-name="six" horiz-adv-x="550" d="M213 -12Q132 -12 81 33T30 174Q30 227 44 284T86 398T156 507T255 601T383 671T540 710L542 655Q417 627 332 547T209 351L218 349Q227 367 241 384T276 415T321 437T376 446Q439 446 474 410T510 304Q510
232 487 174T423 74T328 10T213 -12ZM223 50Q249 50 268 61T301 92T325 139T343 200Q344 204 347 216T353 243T359 274T362 303Q362 332 347 350T300 368Q274 368 255 357T222 326T198 279T180 218Q179 214 176 202T170 175T164 144T161 115Q161 86 176 68T223
50Z" />
<glyph unicode="7" glyph-name="seven" horiz-adv-x="550" d="M486 586H204L172 459H99L159 698H604L581 604L225 0H81L486 586Z" />
<glyph unicode="8" glyph-name="eight" horiz-adv-x="550" d="M214 -12Q112 -12 62 30T12 142Q12 188 28 226T74 292T141 337T224 360L226 368Q206 372 187 382T152 408T128 448T118 500Q118 543 136 581T188 648T270 693T380 710Q431 710 467 700T526 671T559
627T570 571Q570 527 553 492T509 430T448 388T379 368L377 360Q429 351 464 318T500 225Q500 187 484 146T434 69T345 11T214 -12ZM225 47Q277 47 303 84T344 183Q345 187 348 198T354 222T359 249T361 272Q361 301 344 319T291 337Q265 337 246 327T213 299T189
256T172 201Q171 196 168 186T162 162T157 135T155 112Q155 83 172 65T225 47ZM311 395Q335 395 351 403T378 428T398 467T413 518Q417 536 420 548T425 568T427 583T428 597Q428 623 413 637T370 651Q346 651 330 643T303 618T283 579T268 528Q259 493 256 478T253
449Q253 423 268 409T311 395Z" />
<glyph unicode="9" glyph-name="nine" horiz-adv-x="550" d="M54 43Q179 71 264 151T387 347L378 349Q369 331 355 314T320 283T275 261T220 252Q157 252 122 288T86 394Q86 466 109 524T173 624T268 688T383 710Q464 710 515 665T566 524Q566 471 552 414T510
300T440 191T341 97T213 26T56 -12L54 43ZM296 330Q322 330 341 341T374 372T398 419T416 480Q417 484 420 496T426 523T432 554T435 583Q435 612 420 630T373 648Q347 648 328 637T295 606T271 559T253 498Q252 494 249 482T243 455T237 424T234 395Q234 366 249
348T296 330Z" />
<glyph unicode=":" glyph-name="colon" horiz-adv-x="279" d="M90 -12Q54 -12 34 8T13 57Q13 68 16 82Q24 115 49 134T111 154Q147 154 167 134T188 85Q188 73 185 60Q177 27 152 8T90 -12ZM185 369Q149 369 129 389T108 438Q108 449 111 463Q119 496 144 515T206
535Q242 535 262 515T283 466Q283 454 280 441Q272 408 247 389T185 369Z" />
<glyph unicode=";" glyph-name="semicolon" horiz-adv-x="279" d="M-58 -143Q-15 -111 17 -78T70 -9Q42 -3 27 15T11 57Q11 69 14 83Q22 115 47 134T109 154Q144 154 164 133T185 82Q185 68 182 55Q174 26 158 -2T119 -56T71 -104T20 -143H-58ZM185 369Q149 369
129 389T108 438Q108 449 111 463Q119 496 144 515T206 535Q242 535 262 515T283 466Q283 454 280 441Q272 408 247 389T185 369Z" />
<glyph unicode="&lt;" glyph-name="less" horiz-adv-x="550" d="M83 230L103 307L518 546L495 453L191 267L188 256L400 68L380 -12L83 230Z" />
<glyph unicode="=" glyph-name="equal" horiz-adv-x="550" d="M91 378L109 451H536L518 378H91ZM37 160L55 233H482L464 160H37Z" />
<glyph unicode="&gt;" glyph-name="greater" horiz-adv-x="550" d="M59 81L363 267L366 278L154 466L174 546L471 304L451 227L36 -12L59 81Z" />
<glyph unicode="?" glyph-name="question" horiz-adv-x="469" d="M174 381Q246 385 292 417T356 521Q358 531 362 548T366 581Q366 616 344 635T287 654Q267 654 245 651T207 640L204 632Q225 627 236 613T247 579Q247 549 226 525T166 500Q136 500 118 517T100
563Q100 593 118 619T167 666T241 698T330 710Q380 710 415 700T472 672T505 628T516 572Q516 512 491 467T426 389T333 339T227 316L205 226H135L174 381ZM123 -12Q87 -12 67 8T46 57Q46 68 49 82Q57 115 82 134T144 154Q180 154 200 134T221 85Q221 73 218 60Q210
27 185 8T123 -12Z" />
<glyph unicode="@" glyph-name="at" horiz-adv-x="841" d="M362 142Q383 142 404 165T444 220T477 288T496 347L501 369Q509 404 502 424T464 444Q433 444 405 416T358 322Q354 307 350 289T343 252T338 216T336 187Q336 166 341 154T362 142ZM521 -109Q473 -114
431 -117T340 -121Q278 -121 225 -103T132 -50T71 39T48 163Q48 226 62 291T103 416T169 530T261 623T376 686T515 709Q579 709 631 693T720 644T777 564T798 454Q798 379 780 309T729 186T653 101T562 69Q510 69 488 94T465 160Q465 169 466 178T470 198L461 200Q448
173 434 149T404 108T367 80T320 69Q274 69 254 101T233 190Q233 241 247 297T288 401T353 478T438 509Q473 509 496 491T528 430H537L584 501H635L556 178Q552 162 552 148Q552 118 580 118Q618 118 650 172T706 319Q714 349 720 383T727 456Q727 560 673 614T513
669Q444 669 385 641T279 565T198 452T146 312Q144 305 140 289T131 252T123 206T119 160Q119 103 136 60T185 -13T258 -58T350 -73H529L521 -109Z" />
<glyph unicode="A" glyph-name="A" horiz-adv-x="659" d="M-53 0L-39 57H8L375 699H499L549 57H596L582 0H325L339 57H409L401 220H179L91 57H161L147 0H-53ZM377 594L210 280H398L386 594H377Z" />
<glyph unicode="B" glyph-name="B" horiz-adv-x="643" d="M-29 0L-15 57H49L195 641H131L145 698H463Q562 698 605 663T648 564Q648 486 599 436T468 369L466 361Q491 355 513 344T553 316T580 275T591 222Q591 181 575 142T526 71T445 20T332 0H-29ZM298 61Q348
61 385 90T436 176Q445 211 448 227T452 254Q452 286 433 307T371 328H259L192 61H298ZM361 390Q409 390 443 419T491 502Q499 534 502 549T506 575Q506 602 489 619T432 637H336L275 390H361Z" />
<glyph unicode="C" glyph-name="C" horiz-adv-x="606" d="M547 169Q527 134 499 102T436 44T358 4T269 -12Q223 -12 183 1T113 44T66 120T49 232Q49 284 60 339T92 448T146 549T219 632T310 689T420 710Q474 710 504 689T544 638H554L570 698H674L619 479H515L526
523Q528 532 529 540T531 556Q531 599 503 621T433 643Q397 643 368 628T315 587T276 526T249 451Q233 387 223 346T206 277T198 231T195 193Q195 137 223 101T311 64Q377 64 423 101T505 196L547 169V169Z" />
<glyph unicode="D" glyph-name="D" horiz-adv-x="689" d="M-15 57H49L194 641H130L145 698H433Q495 698 541 680T617 628T663 551T678 455Q678 408 668 356T636 254T581 157T504 76T402 21T275 0H-29L-15 57ZM255 61Q349 61 405 116T488 281Q505 348 515 388T530
454T537 493T539 522Q539 582 505 609T406 637H337L192 61H255Z" />
<glyph unicode="E" glyph-name="E" horiz-adv-x="605" d="M391 333H260L193 61H402L437 200H541L491 0H-29L-15 57H49L194 641H130L145 698H656L611 515H507L538 637H336L276 394H407L424 460H491L441 264H374L391 333Z" />
<glyph unicode="F" glyph-name="F" horiz-adv-x="577" d="M-15 57H49L194 641H130L145 698H656L611 515H507L538 637H336L273 381H404L420 447H487L437 251H370L388 319H257L192 57H282L268 0H-29L-15 57Z" />
<glyph unicode="G" glyph-name="G" horiz-adv-x="705" d="M474 96H465Q454 77 436 58T392 23T336 -2T269 -12Q166 -12 108 49T49 230Q49 285 61 342T96 452T152 552T229 634T325 689T439 710Q499 710 534 690T581 638H592L607 698H711L656 479H552L564 522Q569
542 569 556Q569 598 538 622T454 646Q415 646 382 631T322 587T276 520T244 435Q228 369 218 328T201 258T192 212T189 174Q189 122 216 89T295 56Q322 56 347 65T394 92T432 135T456 193L480 291H385L399 349H685L671 291H622L551 0H502L474 96Z" />
<glyph unicode="H" glyph-name="H" horiz-adv-x="733" d="M361 0L376 57H440L506 326H259L191 57H255L241 0H-29L-15 57H49L194 641H130L145 698H416L401 641H337L275 389H523L585 641H521L535 698H807L792 641H728L582 57H646L632 0H361Z" />
<glyph unicode="I" glyph-name="I" horiz-adv-x="342" d="M-29 0L-15 57H49L194 641H130L145 698H416L401 641H337L191 57H255L241 0H-29Z" />
<glyph unicode="J" glyph-name="J" horiz-adv-x="464" d="M62 49Q75 43 97 43Q176 43 203 156L323 641H233L248 698H545L530 641H466L352 183Q329 90 272 39T109 -12Q44 -12 7 17T-31 89Q-31 120 -11 145T46 170Q75 170 92 155T110 114Q110 91 97 75T62 53V49V49Z" />
<glyph unicode="K" glyph-name="K" horiz-adv-x="702" d="M349 0L362 57H426L345 343L239 245L191 57H255L241 0H-29L-15 57H49L194 641H130L145 698H416L401 641H337L263 341H270L385 448L590 641H515L530 698H763L748 641H687L458 431L580 57H641L627 0H349Z" />
<glyph unicode="L" glyph-name="L" horiz-adv-x="557" d="M337 641L193 61H372L407 200H511L461 0H-29L-15 57H49L194 641H130L145 698H416L401 641H337Z" />
<glyph unicode="M" glyph-name="M" horiz-adv-x="824" d="M882 641H818L673 57H737L723 0H452L466 57H530L662 584H653L563 449L341 112L279 450L260 582H251L119 57H183L169 0H-28L-14 57H49L194 641H130L145 698H372L425 353H433L658 698H896L882 641Z" />
<glyph unicode="N" glyph-name="N" horiz-adv-x="714" d="M-15 57H49L194 641H130L145 698H376L517 181H527L642 641H578L591 698H791L777 641H713L553 0H431L261 587H252L119 57H183L169 0H-29L-15 57Z" />
<glyph unicode="O" glyph-name="O" horiz-adv-x="697" d="M303 52Q337 52 366 65T417 102T456 158T483 228Q502 306 514 355T534 435T543 487T546 528Q546 579 518 612T432 646Q397 646 369 633T318 596T279 540T252 470Q233 392 221 343T201 263T192 211T189
170Q189 119 217 86T303 52ZM290 -12Q173 -12 112 57T50 244Q50 291 61 344T94 449T148 548T225 631T324 688T445 710Q562 710 623 641T685 454Q685 407 674 354T641 249T587 150T510 67T411 10T290 -12Z" />
<glyph unicode="P" glyph-name="P" horiz-adv-x="616" d="M487 698Q563 698 609 667T656 566Q656 527 644 483T601 401T522 339T400 314H256L191 57H281L268 0H-29L-15 57H49L194 641H130L145 698H487ZM271 376H370Q418 376 450 403T495 484Q497 491 500 502T506
526T511 550T513 570Q513 601 494 619T435 637H336L271 376Z" />
<glyph unicode="Q" glyph-name="Q" horiz-adv-x="697" d="M379 -179Q328 -179 300 -160T253 -93L215 -3Q134 18 92 82T50 244Q50 291 61 344T94 449T148 548T225 631T324 688T445 710Q562 710 623 641T685 454Q685 389 665 316T604 176T502 61T359 -5L400 -82Q412
-104 431 -114T476 -124H495L481 -179H379ZM303 52Q337 52 366 65T417 102T456 158T483 228Q502 306 514 355T534 435T543 487T546 528Q546 579 518 612T432 646Q397 646 369 633T318 596T279 540T252 470Q233 392 221 343T201 263T192 211T189 170Q189 119 217
86T303 52Z" />
<glyph unicode="R" glyph-name="R" horiz-adv-x="664" d="M-15 57H49L194 641H130L145 698H487Q563 698 609 667T656 566Q656 522 644 483T606 413T545 359T463 328L523 118Q533 86 551 72T600 57H607L593 0H508Q476 0 454 5T417 21T393 51T378 97L331 317H257L191
57H255L241 0H-29L-15 57ZM370 376Q418 376 450 403T495 485Q497 492 500 503T506 527T511 550T513 570Q513 601 494 619T435 637H336L271 376H370Z" />
<glyph unicode="S" glyph-name="S" horiz-adv-x="575" d="M234 53Q272 53 302 64T354 93T386 137T397 190Q397 224 378 244T308 280L268 293Q188 317 150 359T112 470Q112 520 131 564T184 640T267 691T376 710Q433 710 463 690T497 641H507L521 698H625L575 496H471L483
543Q487 559 487 571Q487 609 458 627T376 645Q341 645 314 635T268 607T240 569T230 524Q230 490 250 467T330 426L368 414Q449 388 484 347T520 243Q520 190 501 144T445 63T358 8T242 -12Q185 -12 152 7T112 59H101L86 0H-18L33 205H137L126 160Q124 151 123
144T121 130Q121 92 150 73T234 53Z" />
<glyph unicode="T" glyph-name="T" horiz-adv-x="662" d="M119 57H209L353 637H223L192 515H88L134 698H745L699 515H595L626 637H496L351 57H441L427 0H106L119 57Z" />
<glyph unicode="U" glyph-name="U" horiz-adv-x="698" d="M337 641L239 248Q225 194 225 155Q225 107 252 82T337 57Q417 57 463 106T537 264L631 641H567L582 698H780L766 641H702L606 256Q572 120 503 54T314 -12Q206 -12 147 28T87 164Q87 186 91 217T105 284L194
641H130L145 698H415L401 641H337Z" />
<glyph unicode="V" glyph-name="V" horiz-adv-x="631" d="M666 641L315 0H187L152 641H105L120 698H377L363 641H293L299 359L302 109H310L437 359L585 641H515L529 698H728L713 641H666Z" />
<glyph unicode="W" glyph-name="W" horiz-adv-x="948" d="M155 641H108L122 698H380L366 641H296L279 152H288L552 698H673L671 152H680L902 641H832L846 698H1046L1031 641H984L674 0H544L546 528H538L280 0H141L155 641Z" />
<glyph unicode="X" glyph-name="X" horiz-adv-x="649" d="M319 57H377L305 277H297L112 57H170L157 0H-45L-31 57H23L279 340L176 641H121L136 698H395L381 641H323L389 435H398L568 641H510L525 698H727L713 641H658L414 371L524 57H578L564 0H305L319 57Z" />
<glyph unicode="Y" glyph-name="Y" horiz-adv-x="633" d="M114 57H194L250 281L156 641H109L123 698H386L372 641H302L368 366H376L577 641H507L521 698H725L711 641H664L398 300L337 57H417L403 0H101L114 57Z" />
<glyph unicode="Z" glyph-name="Z" horiz-adv-x="587" d="M-14 61L472 637H246L215 515H111L157 698H650L635 637L151 61H397L432 200H536L486 0H-29L-14 61Z" />
<glyph unicode="[" glyph-name="bracketleft" horiz-adv-x="324" d="M193 760H421L406 703H302L105 -81H210L195 -138H-33L193 760Z" />
<glyph unicode="\" glyph-name="backslash" horiz-adv-x="401" d="M201 -151L159 740H243L286 -151H201Z" />
<glyph unicode="]" glyph-name="bracketright" horiz-adv-x="324" d="M156 -138H-72L-57 -81H47L244 703H139L154 760H382L156 -138Z" />
<glyph unicode="^" glyph-name="asciicircum" horiz-adv-x="550" d="M441 308L369 612H362L142 308L79 345L334 698H429L515 339L441 308Z" />
<glyph unicode="_" glyph-name="underscore" horiz-adv-x="519" d="M-55 -92H399L380 -165H-73L-55 -92Z" />
<glyph unicode="`" glyph-name="grave" horiz-adv-x="600" d="M212 750L329 795L347 593L310 581L212 750Z" />
<glyph unicode="a" glyph-name="a" horiz-adv-x="588" d="M143 -12Q83 -12 57 29T31 143Q31 206 49 275T101 401T183 496T293 534Q338 534 368 511T410 434H421L482 522H549L436 73L454 65L548 180L582 158L524 74Q492 27 463 8T402 -12Q379 -12 364 -6T339 12T326
36T322 64Q322 78 325 94T331 122L337 150L327 152Q311 118 293 88T253 36T204 1T143 -12ZM332 463Q294 463 258 423T197 294Q192 276 187 254T178 210T172 168T170 132Q170 106 176 91T201 76Q218 76 236 89T271 125T304 174T333 231T355 287T369 334L375 360Q386
408 377 435T332 463Z" />
<glyph unicode="b" glyph-name="b" horiz-adv-x="562" d="M268 -12Q224 -12 194 11T152 88H141L80 0H13L180 670H97L111 725L340 770L225 372L235 370Q251 403 269 433T308 485T357 521T418 534Q478 534 504 493T531 379Q531 316 513 248T461 121T378 26T268 -12ZM230
59Q268 59 304 99T365 228Q370 246 375 268T383 312T389 354T392 390Q392 416 386 431T361 446Q344 446 326 433T291 397T258 348T229 291T207 235T193 188L187 162Q176 114 185 87T230 59Z" />
<glyph unicode="c" glyph-name="c" horiz-adv-x="457" d="M185 -12Q107 -12 70 33T33 158Q33 218 50 284T101 405T187 497T309 534Q380 534 418 502T457 421Q457 380 434 350T370 320Q340 320 325 339T310 382Q310 408 330 432T392 461V470Q381 478 365 482T330
487Q310 487 293 480T260 454T230 400T201 312Q187 261 180 217T172 144Q172 101 188 83T235 64Q280 64 316 101T389 207L427 190Q404 141 380 104T328 41T265 2T185 -12Z" />
<glyph unicode="d" glyph-name="d" horiz-adv-x="589" d="M143 -12Q83 -12 57 29T31 143Q31 206 49 275T102 401T184 496T291 534Q335 534 359 514T393 458H404L451 670H368L382 725L611 770L436 73L454 65L548 180L582 158L524 74Q492 27 463 8T402 -12Q379 -12
364 -6T340 12T326 36T322 64Q322 78 325 94T331 122L337 150L327 152Q311 118 293 88T253 36T204 1T143 -12ZM332 463Q294 463 258 423T197 294Q192 276 187 254T178 210T172 168T170 132Q170 106 176 91T201 76Q218 76 236 89T271 125T304 174T333 231T355 287T369
334L375 360Q386 408 377 435T332 463Z" />
<glyph unicode="e" glyph-name="e" horiz-adv-x="477" d="M186 -12Q107 -12 70 33T33 161Q33 219 50 285T102 406T193 497T326 534Q357 534 384 529T431 510T463 477T475 428Q475 404 463 377T419 325T331 282T187 259Q180 224 176 195T172 144Q172 101 188 83T235
64Q280 64 318 101T391 207L430 190Q407 142 383 105T330 41T266 2T186 -12ZM197 298Q245 305 276 318T327 349T354 389T362 435Q362 457 351 470T317 483Q296 483 280 474T251 443T224 386T197 298Z" />
<glyph unicode="f" glyph-name="f" horiz-adv-x="357" d="M-64 -212Q-121 -212 -149 -189T-177 -130Q-177 -104 -159 -83T-109 -62Q-82 -62 -66 -78T-50 -117Q-50 -135 -61 -148T-87 -171L-80 -179Q-45 -178 -23 -158T12 -88L150 462H65L80 522H166L181 583Q193
631 215 666T268 724T334 759T409 770Q467 770 495 747T524 688Q524 660 506 639T454 617Q428 617 412 631T395 671Q395 691 406 706T432 729L425 737Q389 736 366 716T331 646L299 522H406L391 462H284L162 -26Q150 -74 128 -109T75 -167T10 -201T-64 -212Z" />
<glyph unicode="g" glyph-name="g" horiz-adv-x="507" d="M232 189Q219 189 208 191T186 195Q163 190 148 181T132 155Q132 138 145 131T181 116L266 87Q308 73 338 60T387 31T416 -5T425 -51Q425 -95 402 -125T341 -175T251 -203T144 -212Q82 -212 40 -204T-27
-181T-64 -148T-76 -108Q-76 -85 -64 -67T-31 -36T17 -12T74 6L76 17Q48 31 37 49T25 90Q25 113 34 131T58 162T93 185T134 199L137 209Q108 226 90 255T72 326Q72 374 91 412T145 478T223 519T319 534Q369 534 402 518Q414 566 439 594T502 623Q531 623 547 610T563
572Q563 546 546 528T505 509Q465 509 455 549H449L431 501Q453 483 466 458T479 398Q479 350 460 312T406 246T328 204T232 189ZM117 -1Q76 -18 48 -41T20 -96Q20 -131 51 -151T158 -172Q187 -172 213 -168T258 -155T289 -132T301 -96Q301 -70 284 -60T234 -39L117
-1ZM245 236Q284 236 303 264T332 335Q343 377 348 401T353 437Q353 460 343 473T306 487Q267 487 248 459T219 388Q208 346 203 322T198 286Q198 263 208 250T245 236Z" />
<glyph unicode="h" glyph-name="h" horiz-adv-x="594" d="M396 -12Q371 -12 354 -5T327 13T312 38T307 66Q307 79 310 94T316 120L393 399Q396 411 396 420Q396 446 373 446Q351 446 325 423T272 358T221 258T180 131L147 0H13L180 670H96L110 725L339 770L226
366L237 363Q256 398 276 429T319 483T369 520T432 534Q484 534 507 506T531 433Q531 399 519 357L439 73L457 65L551 180L585 158L527 74Q494 26 463 7T396 -12Z" />
<glyph unicode="i" glyph-name="i" horiz-adv-x="330" d="M135 -12Q110 -12 93 -5T66 13T51 38T46 67Q46 79 49 94T55 121L133 434H50L63 490L293 534L177 73L195 65L289 180L323 158L265 74Q247 48 230 31T197 5T165 -8T135 -12ZM250 613Q215 613 197 631T178
674Q178 686 181 698Q189 728 212 745T269 763Q304 763 322 745T341 702Q341 690 338 678Q330 648 307 631T250 613Z" />
<glyph unicode="j" glyph-name="j" horiz-adv-x="304" d="M-60 -212Q-118 -212 -145 -192T-173 -139Q-173 -110 -156 -89T-104 -67Q-78 -67 -62 -82T-46 -120Q-46 -135 -55 -149T-81 -174L-73 -183Q-42 -181 -25 -155T5 -78L134 434H51L64 490L294 534L150 -34Q127
-124 71 -168T-60 -212ZM251 613Q216 613 198 631T179 674Q179 686 182 698Q190 728 213 745T270 763Q305 763 323 745T342 702Q342 690 339 678Q331 648 308 631T251 613Z" />
<glyph unicode="k" glyph-name="k" horiz-adv-x="581" d="M397 -12Q364 -12 340 1T302 52L244 217Q287 242 317 269T365 322T392 371T400 412Q400 446 370 446Q347 446 321 423T269 357T220 258T180 131L147 0H13L180 670H96L110 725L339 770L226 366L237 363Q257
399 277 430T320 485T371 521T433 534Q484 534 507 507T531 437Q531 404 517 375T481 322T431 279T375 245L438 70H454L543 180L578 158L518 73Q500 47 486 31T457 5T429 -8T397 -12Z" />
<glyph unicode="l" glyph-name="l" horiz-adv-x="315" d="M121 -12Q96 -12 79 -5T51 13T36 38T31 67Q31 79 34 94T40 121L177 670H94L107 725L337 770L162 73L180 65L274 180L308 158L250 74Q215 23 182 6T121 -12Z" />
<glyph unicode="m" glyph-name="m" horiz-adv-x="884" d="M133 434H50L64 490L280 534L238 366L249 363Q268 398 288 429T330 483T380 520T441 534Q485 534 504 509T524 436Q524 425 523 414T520 390L515 366L527 363Q546 398 566 429T609 483T660 520T723 534Q775
534 798 506T821 432Q821 397 809 357L729 73L747 65L841 180L875 158L817 74Q784 26 753 7T686 -12Q661 -12 645 -5T618 13T603 38T598 66Q598 79 600 94T606 120L683 399Q686 411 686 420Q686 446 663 446Q641 446 615 423T562 358T511 258T470 131L437 0H303L402
399Q405 411 405 420Q405 446 382 446Q360 446 334 423T282 357T233 257T192 131L159 0H25L133 434Z" />
<glyph unicode="n" glyph-name="n" horiz-adv-x="606" d="M133 434H50L64 490L280 534L238 366L249 363Q268 398 288 429T331 483T382 520T445 534Q496 534 519 506T543 433Q543 399 531 357L451 73L469 65L563 180L597 158L539 74Q506 26 475 7T408 -12Q383 -12
366 -5T339 13T324 38T319 66Q319 79 322 94T328 120L405 399Q408 411 408 420Q408 446 385 446Q363 446 337 423T284 358T233 258T192 131L159 0H25L133 434Z" />
<glyph unicode="o" glyph-name="o" horiz-adv-x="543" d="M213 -12Q124 -12 79 40T33 181Q33 239 53 301T111 415T204 500T330 534Q419 534 464 482T510 341Q510 283 490 221T432 107T339 22T213 -12ZM219 42Q262 42 288 76T328 167Q345 233 356 275T373 345T381
387T384 412Q384 441 370 460T324 480Q281 480 255 446T215 355Q198 289 187 247T170 177T162 135T159 110Q159 81 173 62T219 42Z" />
<glyph unicode="p" glyph-name="p" horiz-adv-x="575" d="M-9 -144L136 434H53L67 490L279 534L239 372L249 370Q265 403 283 433T322 485T371 521T432 534Q492 534 518 493T545 379Q545 316 527 248T475 121T393 26T284 -12Q240 -12 216 8T182 64H171L125 -144H213L199
-200H-88L-74 -144H-9ZM244 59Q282 59 318 99T379 228Q384 246 389 268T397 312T403 354T406 390Q406 416 400 431T375 446Q358 446 340 433T305 397T272 348T243 291T221 235T207 188L201 162Q190 114 199 87T244 59Z" />
<glyph unicode="q" glyph-name="q" horiz-adv-x="563" d="M161 -144H249L337 150L327 152Q311 118 293 88T253 36T204 1T143 -12Q83 -12 57 29T31 143Q31 206 49 275T101 401T183 496T293 534Q338 534 368 511T410 434H421L482 522H549L382 -144H447L433 -200H147L161
-144ZM332 463Q294 463 258 423T197 294Q192 276 187 254T178 210T172 168T170 132Q170 106 176 91T201 76Q218 76 236 89T271 125T304 174T333 231T355 287T369 334L375 360Q386 408 377 435T332 463Z" />
<glyph unicode="r" glyph-name="r" horiz-adv-x="476" d="M133 434H50L64 490L275 534L233 365L244 362Q279 450 316 492T410 534Q454 534 477 513T500 454Q500 419 479 393T420 366Q393 366 375 381T357 421Q357 436 363 452T379 477L371 483Q351 478 323 440T265
340Q242 292 222 230T184 100L159 0H25L133 434Z" />
<glyph unicode="s" glyph-name="s" horiz-adv-x="418" d="M112 -12Q43 -12 15 9T-14 65Q-14 78 -10 91T4 114T26 130T57 137Q83 137 98 122T114 81Q114 67 109 52T93 26L100 16Q151 24 182 49T213 117Q213 137 205 154T185 186T157 216T127 249Q107 271 92 296T77
358Q77 402 95 435T143 490T214 523T297 534Q365 534 393 513T422 458Q422 431 404 409T351 386Q325 386 310 401T294 442Q294 456 299 471T315 496L308 506Q260 497 234 471T208 406Q208 385 216 369T236 337T265 306T296 274Q313 254 328 229T344 165Q344 121
325 88T273 32T199 -1T112 -12Z" />
<glyph unicode="t" glyph-name="t" horiz-adv-x="382" d="M77 522H116Q151 522 169 533T205 572L265 664H334L298 522H414L399 462H283L188 79L207 68L326 177L358 150L271 61Q250 38 233 24T200 2T171 -9T142 -12Q117 -12 100 -5T73 13T59 38T55 66Q55 79 58
94T64 121L149 462H62L77 522Z" />
<glyph unicode="u" glyph-name="u" horiz-adv-x="604" d="M145 -12Q93 -12 70 16T46 90Q46 124 58 165L134 434H51L65 490L298 534L184 123Q181 111 181 102Q181 76 203 76Q225 76 252 99T305 164T356 264T397 391L430 522H564L452 73L470 65L564 180L598 158L540
74Q522 48 505 31T472 5T442 -8T414 -12Q391 -12 376 -5T351 12T338 36T334 64Q334 78 337 94T343 123L351 156L340 159Q320 124 301 93T258 39T208 2T145 -12Z" />
<glyph unicode="v" glyph-name="v" horiz-adv-x="498" d="M256 133L433 466H379L393 522H560L546 466H508L234 0H129L93 466H55L68 522H302L288 466H234L245 133H256Z" />
<glyph unicode="w" glyph-name="w" horiz-adv-x="773" d="M407 350L218 0H108L97 466H59L73 522H306L292 466H236L225 135H236L438 526H536L531 135H542L708 466H652L666 522H833L819 466H781L519 0H415L417 350H407Z" />
<glyph unicode="x" glyph-name="x" horiz-adv-x="611" d="M420 73L436 71L514 160L545 136L500 74Q480 47 462 30T427 4T395 -9T365 -12Q324 -12 306 9T282 73L264 191H257Q244 146 231 115T203 60Q175 17 140 3T78 -12Q33 -12 10 8T-13 63Q-13 98 8 125T67 152Q94
152 112 137T130 97Q130 82 124 67T108 42L116 35Q129 39 145 57T177 103T211 169T243 249L191 449L175 451L97 362L66 386L111 448Q130 475 148 492T184 518T216 531T246 534Q287 534 305 513T329 449L347 331H354Q367 376 380 407T408 462Q436 505 471 519T533
534Q578 534 601 514T624 459Q624 424 603 397T544 370Q517 370 499 385T481 425Q481 440 487 455T503 480L495 487Q481 483 466 465T434 419T400 353T368 273L420 73Z" />
<glyph unicode="y" glyph-name="y" horiz-adv-x="500" d="M12 -212Q-33 -212 -60 -192T-88 -136Q-88 -107 -69 -84T-15 -61Q11 -61 27 -75T43 -115Q43 -130 37 -144T22 -167L28 -173Q61 -159 89 -128T147 -37L88 466H52L65 522H294L281 466H227L247 138H258L440
466H386L400 522H563L549 466H513L195 -62Q144 -147 99 -179T12 -212Z" />
<glyph unicode="z" glyph-name="z" horiz-adv-x="480" d="M-7 35Q-4 47 -1 55T6 70T17 85T34 103L318 385L139 414L120 402L88 315L49 321L84 464Q94 506 114 520T173 534Q195 534 216 531T264 520T324 501T407 474L419 522H483L474 487Q471 475 468 467T460 452T449
437T433 420L148 138L357 109L376 121L408 207L447 201L412 58Q402 16 382 2T323 -12Q300 -12 276 -9T222 2T152 21T59 48L47 0H-16L-7 35Z" />
<glyph unicode="{" glyph-name="braceleft" horiz-adv-x="347" d="M39 342Q78 342 108 365T150 431L209 664Q220 709 252 734T347 760H444L429 703H343L276 438Q270 415 258 395T229 359T190 332T146 317L143 305Q172 298 192 272T213 203Q213 194 212 185T208
162L146 -81H233L219 -138H97Q65 -138 47 -119T28 -69Q28 -57 32 -41L90 187Q93 198 94 206T95 221Q95 251 75 265T23 279L39 342Z" />
<glyph unicode="|" glyph-name="bar" horiz-adv-x="345" d="M30 -138L254 760H340L115 -138H30Z" />
<glyph unicode="}" glyph-name="braceright" horiz-adv-x="347" d="M333 280Q294 280 264 257T222 191L163 -42Q152 -87 120 -112T25 -138H-72L-57 -81H29L96 184Q102 206 114 226T143 263T182 290T226 305L229 317Q200 324 180 350T159 419Q159 428 160 437T164
460L226 703H139L153 760H275Q307 760 325 741T344 691Q344 679 340 663L282 435Q279 424 278 416T277 401Q277 371 297 357T349 343L333 280Z" />
<glyph unicode="~" glyph-name="asciitilde" horiz-adv-x="550" d="M371 237Q339 237 316 247T266 274Q246 288 226 297T179 307Q159 307 142 300T102 277L78 329Q101 354 129 369T199 384Q231 384 254 374T304 347Q324 333 344 324T391 314Q411 314 428 321T468
344L492 292Q469 267 441 252T371 237Z" />
<glyph unicode="&#xa0;" glyph-name="uni00A0" horiz-adv-x="212" />
<glyph unicode="&#xa1;" glyph-name="exclamdown" horiz-adv-x="286" d="M126 311H186L149 -14L109 -176H-38L2 -14L126 311ZM179 368Q143 368 123 388T102 437Q102 448 105 462Q113 495 138 514T200 534Q236 534 256 514T277 465Q277 453 274 440Q266 407 241
388T179 368Z" />
<glyph unicode="&#xa2;" glyph-name="cent" horiz-adv-x="488" d="M169 -11Q33 -2 33 158Q33 215 49 279T98 397T182 490T305 533L330 630H385L360 532Q422 524 451 495T481 424Q481 388 461 361T405 334Q377 334 364 350T350 387Q350 411 367 434T423 461V469Q412
475 392 480T348 487L242 64Q294 67 333 104T406 207L445 190Q424 146 402 111T353 51T295 10T224 -10L198 -114H143L169 -11ZM162 144Q162 115 168 97T191 71L293 482Q276 477 262 466T236 434T213 384T191 312Q177 261 170 217T162 144Z" />
<glyph unicode="&#xa3;" glyph-name="sterling" horiz-adv-x="546" d="M58 375H120Q118 389 117 405T115 446Q115 513 137 563T197 645T281 694T377 710Q412 710 445 703T503 680T544 641T559 584Q559 566 554 549T538 519T512 497T479 489Q448 489 432 508T416
551Q416 579 433 600T485 629V637Q466 644 449 647T409 650Q367 650 337 632T289 584T262 519T253 448Q253 431 253 413T254 375H400L385 317H254Q251 272 237 237T200 177T148 135T89 109L87 101H382L410 211H483L431 0H-34L-11 97Q8 106 32 126T77 175T113 240T127
317H44L58 375Z" />
<glyph unicode="&#xa5;" glyph-name="yen" horiz-adv-x="604" d="M108 353H233L163 641H116L130 698H390L375 641H305L354 384H361L544 641H474L488 698H693L678 641H631L410 353H543L528 296H378L356 206H506L491 149H341L319 57H392L378 0H98L112 57H185L207
149H57L72 206H222L244 296H94L108 353Z" />
<glyph unicode="&#xa6;" glyph-name="brokenbar" horiz-adv-x="345" d="M165 402L254 760H340L250 402H165ZM30 -138L120 220H205L115 -138H30Z" />
<glyph unicode="&#xa7;" glyph-name="section" horiz-adv-x="523" d="M154 -159Q121 -159 93 -152T45 -131T14 -99T2 -57Q2 -39 7 -23T23 5T47 24T78 32Q104 32 119 16T134 -23Q134 -46 117 -67T68 -93V-102Q96 -114 138 -114Q194 -114 227 -90T261 -28Q261 4
240 26T186 74L131 115Q108 133 88 150T53 186T29 228T20 279Q20 307 31 332T64 376T113 408T175 425L178 437Q162 456 154 477T146 528Q146 564 162 596T208 654T279 695T368 710Q401 710 428 703T476 682T507 649T519 608Q519 573 498 546T443 519Q417 519 403
535T388 574Q388 598 405 619T454 644V653Q424 665 384 665Q327 665 294 641T261 579Q261 547 281 525T336 477L391 436Q414 418 434 401T469 365T492 323T501 272Q501 243 490 219T457 175T408 143T347 126L344 113Q359 94 367 73T375 23Q375 -12 359 -45T313
-103T243 -144T154 -159ZM316 142Q351 151 368 173T386 223Q386 257 365 278T309 327L255 368Q241 379 229 389T205 408Q170 400 153 377T135 328Q135 311 140 298T156 273T180 249T212 224L267 183Q276 176 292 163T316 142Z" />
<glyph unicode="&#xa8;" glyph-name="dieresis" horiz-adv-x="600" d="M223 607Q194 607 178 624T162 663Q162 672 165 684Q170 707 190 723T239 739Q268 739 284 722T300 683Q300 678 300 673T298 662Q292 639 272 623T223 607ZM427 607Q397 607 381 624T365
663Q365 668 365 673T367 684Q373 707 393 723T442 739Q471 739 487 722T503 683Q503 674 500 662Q495 639 476 623T427 607Z" />
<glyph unicode="&#xa9;" glyph-name="copyright" horiz-adv-x="767" d="M342 -12Q277 -12 224 9T134 69T77 162T57 281Q57 356 84 432T162 570T287 671T456 710Q521 710 574 689T664 629T721 536T741 417Q741 342 714 266T636 128T511 27T342 -12ZM345 33Q403
33 454 52T545 106T614 188T654 289Q658 307 662 327T669 365T675 399T677 424Q677 479 661 523T616 599T546 648T453 665Q395 665 344 646T253 592T184 510T144 409Q140 391 136 371T129 333T123 299T121 274Q121 219 137 175T182 99T252 50T345 33ZM344 141Q227
141 227 271Q227 316 240 366T279 459T346 528T442 556Q494 556 522 531T550 468Q550 439 534 417T488 394Q465 394 454 408T442 439Q442 459 457 477T502 499V506Q482 519 454 519Q438 519 425 514T400 495T378 454T356 387Q345 348 340 316T334 261Q334 229 346
215T382 200Q415 200 443 228T498 308L528 295Q493 221 452 181T344 141Z" />
<glyph unicode="&#xaa;" glyph-name="ordfeminine" horiz-adv-x="408" d="M165 329Q131 329 109 348T87 400Q87 460 140 495T305 536Q308 553 313 578T319 619Q319 643 306 654T270 666Q261 666 250 664T230 660L229 653Q239 646 239 627Q239 607 226 591T188
574Q170 574 160 584T149 614Q149 630 160 646T190 675T236 696T293 704Q344 704 376 681T409 609Q409 597 407 580T400 548L361 391L376 385L437 459L460 445L420 387Q399 356 378 343T337 329Q308 329 295 344T281 381Q281 386 282 393T286 412L277 414Q263 379
235 354T165 329ZM208 380Q220 380 232 388T256 410T276 439T289 473L297 505Q241 500 216 484T183 438Q181 431 180 425T179 410Q179 395 187 388T208 380Z" />
<glyph unicode="&#xab;" glyph-name="guillemotleft" horiz-adv-x="508" d="M168 65L38 254L52 311L267 493L288 453L161 273L202 98L168 65ZM383 65L253 254L267 311L482 493L503 453L376 273L417 98L383 65Z" />
<glyph unicode="&#xac;" glyph-name="logicalnot" horiz-adv-x="550" d="M348 79L396 269H64L82 342H497L430 79H348Z" />
<glyph unicode="&#xad;" glyph-name="uni00AD" horiz-adv-x="371" d="M51 260L74 350H344L321 260H51Z" />
<glyph unicode="&#xae;" glyph-name="registered" horiz-adv-x="435" d="M257 298Q219 298 187 311T132 348T95 404T82 473Q82 524 98 567T144 642T213 692T300 710Q338 710 370 697T425 660T462 604T475 535Q475 484 459 441T413 366T344 316T257 298ZM260 331Q294
331 322 342T371 374T406 421T427 481Q429 492 430 509T432 533Q432 564 423 590T396 636T353 666T297 677Q263 677 235 666T186 634T151 587T130 527Q128 516 127 499T125 475Q125 444 134 418T161 372T204 342T260 331ZM374 567Q374 538 358 519T318 493L336
436Q340 421 356 421H359L353 398H327Q307 398 299 404T287 427L271 489H255L238 421H251L246 398H164L170 421H186L228 587H212L217 610H321Q374 610 374 567ZM287 513Q310 513 318 541Q320 546 321 553T323 566Q323 583 303 583H278L262 513H287Z" />
<glyph unicode="&#xaf;" glyph-name="overscore" horiz-adv-x="600" d="M200 712H483L464 635H181L200 712Z" />
<glyph unicode="&#xb0;" glyph-name="degree" horiz-adv-x="434" d="M265 343Q232 343 204 355T154 389T121 441T109 507Q109 550 124 587T165 652T226 694T303 710Q336 710 364 698T414 664T447 612T459 546Q459 502 444 465T403 401T342 359T265 343ZM273 410Q298
410 318 420T353 449T376 493T384 547Q384 587 360 615T296 643Q271 643 251 633T215 604T192 560T184 506Q184 466 208 438T273 410Z" />
<glyph unicode="&#xb1;" glyph-name="plusminus" horiz-adv-x="550" d="M259 361H87L105 434H277L322 615H405L359 434H531L513 361H341L296 180H213L259 361ZM15 73H442L424 0H-3L15 73Z" />
<glyph unicode="&#xb2;" glyph-name="twosuperior" horiz-adv-x="335" d="M67 397L187 498Q218 524 240 547T270 601Q272 606 273 613T275 629Q275 644 265 654T234 665Q224 665 214 664T195 659L193 654Q212 649 212 629Q212 610 198 595T161 580Q142 580 133
590T123 617Q123 636 134 652T163 679T205 697T255 704Q315 704 342 683T370 623Q370 594 357 571T325 528T282 494T238 466L133 402L132 396H276L286 439H338L311 329H50L67 397Z" />
<glyph unicode="&#xb3;" glyph-name="threesuperior" horiz-adv-x="327" d="M157 323Q110 323 84 341T58 390Q58 416 73 431T108 447Q125 447 136 438T147 411Q147 396 137 386T115 373L113 368Q120 364 129 363T147 361Q212 361 228 427Q230 433 231 442T233
458Q233 476 223 488T184 500H157L168 543H189Q224 543 242 561T268 606Q269 609 270 617T272 631Q272 666 230 666Q213 666 194 659L192 654Q209 648 209 628Q209 613 197 598T160 582Q122 582 122 619Q122 636 132 651T161 678T203 697T256 704Q369 704 369 629Q369
605 360 587T335 557T302 537T265 527L264 521Q296 515 313 497T330 451Q330 396 285 360T157 323Z" />
<glyph unicode="&#xb4;" glyph-name="acute" horiz-adv-x="600" d="M305 581L270 599L371 795L476 740L305 581Z" />
<glyph unicode="&#xb5;" glyph-name="mu" horiz-adv-x="603" d="M130 434H46L60 490L294 534L185 141Q182 130 180 120T177 103Q177 76 200 76Q221 76 247 98T299 161T350 260T393 391L426 522H560L448 73L466 65L560 180L594 158L534 71Q500 22 469 5T408 -12Q385
-12 370 -5T346 12T334 36T330 64Q330 78 333 95T339 123L347 156L336 159Q318 122 301 91T265 37T225 1T176 -12Q155 -12 141 0T122 41H111L105 -143L91 -200H-34L130 434Z" />
<glyph unicode="&#xb6;" glyph-name="paragraph" horiz-adv-x="567" d="M86 463Q86 520 109 564T172 637T262 682T370 698H633L618 641H554L415 87Q386 -29 316 -93T153 -157Q76 -157 37 -125T-3 -48Q-3 -30 2 -14T18 14T42 33T73 40Q102 40 116 23T130 -17Q130
-44 114 -62T64 -85V-93Q84 -102 103 -105T143 -108Q147 -108 153 -108T165 -106L264 289Q225 289 192 301T136 336T99 391T86 463ZM230 -89Q275 -67 307 -22T356 93L493 641H414L230 -89Z" />
<glyph unicode="&#xb7;" glyph-name="middot" horiz-adv-x="328" d="M164 223Q128 223 108 243T87 292Q87 303 90 317Q98 350 123 369T185 389Q221 389 241 369T262 320Q262 308 259 295Q251 262 226 243T164 223Z" />
<glyph unicode="&#xb8;" glyph-name="cedilla" horiz-adv-x="600" d="M272 -211Q230 -211 206 -196T171 -165L200 -134Q219 -161 261 -161Q290 -161 301 -146T313 -113Q313 -101 304 -92T264 -79L241 -76L280 13H331L299 -57L302 -61Q323 -54 341 -54Q367 -54
385 -67T403 -107Q403 -131 392 -150T363 -182T321 -203T272 -211Z" />
<glyph unicode="&#xb9;" glyph-name="onesuperior" horiz-adv-x="329" d="M72 371H157L222 632L129 596L122 631L268 698H329L247 371H322L311 329H62L72 371Z" />
<glyph unicode="&#xba;" glyph-name="ordmasculine" horiz-adv-x="394" d="M430 575Q430 533 417 490T377 411T312 352T223 329Q165 329 131 362T96 458Q96 500 109 543T149 622T214 681T303 704Q361 704 395 671T430 575ZM215 570Q206 533 200 509T189 468T184
441T182 422Q182 397 195 384T229 371Q260 371 280 396T311 463Q320 500 326 524T337 565T342 592T344 611Q344 636 331 649T297 662Q266 662 246 637T215 570Z" />
<glyph unicode="&#xbb;" glyph-name="guillemotright" horiz-adv-x="508" d="M135 285L94 460L128 493L258 304L244 247L29 65L8 105L135 285ZM350 285L309 460L343 493L473 304L459 247L244 65L223 105L350 285Z" />
<glyph unicode="&#xbc;" glyph-name="onequarter" horiz-adv-x="841" d="M72 371H157L222 632L129 596L122 631L268 698H329L247 371H322L311 329H62L72 371ZM728 698H806L157 0H78L728 698ZM578 73H426L442 135L634 369H738L680 135H723L707 73H664L646 0H560L578
73ZM487 135H594L637 311H630L487 135Z" />
<glyph unicode="&#xbd;" glyph-name="onehalf" horiz-adv-x="846" d="M72 371H157L222 632L129 596L122 631L268 698H329L247 371H322L311 329H62L72 371ZM728 698H806L157 0H78L728 698ZM465 68L585 169Q616 195 638 218T668 272Q670 277 671 284T673 300Q673
315 663 325T632 336Q622 336 612 335T593 330L591 325Q610 320 610 300Q610 281 596 266T559 251Q540 251 531 261T521 288Q521 307 532 323T561 350T603 368T653 375Q713 375 740 354T768 294Q768 265 755 242T723 199T680 165T636 137L531 73L530 67H674L684
110H736L709 0H448L465 68Z" />
<glyph unicode="&#xbe;" glyph-name="threequarters" horiz-adv-x="799" d="M157 323Q110 323 84 341T58 390Q58 416 73 431T108 447Q125 447 136 438T147 411Q147 396 137 386T115 373L113 368Q120 364 129 363T147 361Q212 361 228 427Q230 433 231 442T233
458Q233 476 223 488T184 500H157L168 543H189Q224 543 242 561T268 606Q269 609 270 617T272 631Q272 666 230 666Q213 666 194 659L192 654Q209 648 209 628Q209 613 197 598T160 582Q122 582 122 619Q122 636 132 651T161 678T203 697T256 704Q369 704 369 629Q369
605 360 587T335 557T302 537T265 527L264 521Q296 515 313 497T330 451Q330 396 285 360T157 323ZM686 698H764L115 0H36L686 698ZM536 73H384L400 135L592 369H696L638 135H681L665 73H622L604 0H518L536 73ZM445 135H552L595 311H588L445 135Z" />
<glyph unicode="&#xbf;" glyph-name="questiondown" horiz-adv-x="474" d="M143 -188Q93 -188 58 -178T1 -150T-32 -106T-43 -50Q-43 10 -18 55T47 133T140 183T246 206L268 296H338L299 141Q227 137 181 105T117 1Q115 -9 111 -26T107 -59Q107 -94 129 -113T186
-132Q206 -132 228 -129T266 -118L269 -110Q248 -105 237 -91T226 -57Q226 -27 247 -3T307 22Q337 22 355 5T373 -41Q373 -71 355 -97T306 -144T232 -176T143 -188ZM329 368Q293 368 273 388T252 437Q252 448 255 462Q263 495 288 514T350 534Q386 534 406 514T427
465Q427 453 424 440Q416 407 391 388T329 368Z" />
<glyph unicode="&#xc0;" glyph-name="Agrave" horiz-adv-x="659" d="M-53 0L-39 57H8L375 699H499L549 57H596L582 0H325L339 57H409L401 220H179L91 57H161L147 0H-53ZM377 594L210 280H398L386 594H377ZM349 915L466 960L484 758L447 746L349 915Z" />
<glyph unicode="&#xc1;" glyph-name="Aacute" horiz-adv-x="659" d="M-53 0L-39 57H8L375 699H499L549 57H596L582 0H325L339 57H409L401 220H179L91 57H161L147 0H-53ZM377 594L210 280H398L386 594H377ZM449 746L414 764L515 960L620 905L449 746Z" />
<glyph unicode="&#xc2;" glyph-name="Acircumflex" horiz-adv-x="659" d="M-53 0L-39 57H8L375 699H499L549 57H596L582 0H325L339 57H409L401 220H179L91 57H161L147 0H-53ZM377 594L210 280H398L386 594H377ZM536 951L613 767L579 748L481 856L332 748L303 772L455
951H536Z" />
<glyph unicode="&#xc3;" glyph-name="Atilde" horiz-adv-x="659" d="M-53 0L-39 57H8L375 699H499L549 57H596L582 0H325L339 57H409L401 220H179L91 57H161L147 0H-53ZM377 594L210 280H398L386 594H377ZM528 769Q505 769 487 778T449 798Q429 809 414 818T381
827Q368 827 356 821T320 793L293 821Q321 857 346 883T409 909Q432 909 450 900T488 880Q508 869 523 860T556 851Q569 851 581 857T617 885L644 857Q616 821 591 795T528 769Z" />
<glyph unicode="&#xc4;" glyph-name="Adieresis" horiz-adv-x="659" d="M-53 0L-39 57H8L375 699H499L549 57H596L582 0H325L339 57H409L401 220H179L91 57H161L147 0H-53ZM377 594L210 280H398L386 594H377ZM360 772Q331 772 315 789T299 828Q299 837 302 849Q307
872 327 888T376 904Q405 904 421 887T437 848Q437 843 437 838T435 827Q429 804 409 788T360 772ZM564 772Q534 772 518 789T502 828Q502 833 502 838T504 849Q510 872 530 888T579 904Q608 904 624 887T640 848Q640 839 637 827Q632 804 613 788T564 772Z" />
<glyph unicode="&#xc5;" glyph-name="Aring" horiz-adv-x="659" d="M-53 0L-39 57H8L375 699H499L549 57H596L582 0H325L339 57H409L401 220H179L91 57H161L147 0H-53ZM377 594L210 280H398L386 594H377ZM450 726Q423 726 402 735T367 758T346 791T338 830Q338
865 350 895T383 948T432 984T492 997Q519 997 540 988T575 965T596 932T604 893Q604 858 592 828T559 775T510 739T450 726ZM453 772Q499 772 513 827Q521 859 525 881T529 913Q529 930 520 940T489 951Q443 951 429 896Q421 864 417 842T413 810Q413 793 422
783T453 772Z" />
<glyph unicode="&#xc6;" glyph-name="AE" horiz-adv-x="937" d="M-52 0L-38 57H16L437 641H372L387 698H988L942 515H838L869 637H668L608 394H738L755 460H822L772 264H705L723 333H592L524 61H733L768 200H872L822 0H302L315 57H380L421 220H213L96 57H161L148
0H-52ZM436 280L526 641H516L256 280H436Z" />
<glyph unicode="&#xc7;" glyph-name="Ccedilla" horiz-adv-x="606" d="M246 -211Q204 -211 179 -196T144 -165L173 -134Q192 -161 234 -161Q263 -161 274 -146T286 -113Q286 -101 277 -92T238 -79L215 -76L243 -11Q202 -8 167 8T105 53T64 127T49 232Q49 284 60
339T92 448T146 549T219 632T310 689T420 710Q474 710 504 689T544 638H554L570 698H674L619 479H515L526 523Q528 532 529 540T531 556Q531 599 503 621T433 643Q397 643 368 628T315 587T276 526T249 451Q233 387 223 346T206 277T198 231T195 193Q195 137 223
101T311 64Q377 64 423 101T505 196L547 169Q528 137 503 107T445 51T375 10T294 -11L273 -57L275 -61Q286 -57 296 -56T314 -54Q341 -54 358 -67T376 -107Q376 -131 365 -150T336 -182T295 -203T246 -211Z" />
<glyph unicode="&#xc8;" glyph-name="Egrave" horiz-adv-x="605" d="M391 333H260L193 61H402L437 200H541L491 0H-29L-15 57H49L194 641H130L145 698H656L611 515H507L538 637H336L276 394H407L424 460H491L441 264H374L391 333ZM324 915L441 960L459 758L422
746L324 915Z" />
<glyph unicode="&#xc9;" glyph-name="Eacute" horiz-adv-x="605" d="M391 333H260L193 61H402L437 200H541L491 0H-29L-15 57H49L194 641H130L145 698H656L611 515H507L538 637H336L276 394H407L424 460H491L441 264H374L391 333ZM424 746L389 764L490 960L595
905L424 746Z" />
<glyph unicode="&#xca;" glyph-name="Ecircumflex" horiz-adv-x="605" d="M391 333H260L193 61H402L437 200H541L491 0H-29L-15 57H49L194 641H130L145 698H656L611 515H507L538 637H336L276 394H407L424 460H491L441 264H374L391 333ZM511 951L588 767L554 748L456
856L307 748L278 772L430 951H511Z" />
<glyph unicode="&#xcb;" glyph-name="Edieresis" horiz-adv-x="605" d="M391 333H260L193 61H402L437 200H541L491 0H-29L-15 57H49L194 641H130L145 698H656L611 515H507L538 637H336L276 394H407L424 460H491L441 264H374L391 333ZM335 772Q306 772 290 789T274
828Q274 837 277 849Q282 872 302 888T351 904Q380 904 396 887T412 848Q412 843 412 838T410 827Q404 804 384 788T335 772ZM539 772Q509 772 493 789T477 828Q477 833 477 838T479 849Q485 872 505 888T554 904Q583 904 599 887T615 848Q615 839 612 827Q607
804 588 788T539 772Z" />
<glyph unicode="&#xcc;" glyph-name="Igrave" horiz-adv-x="342" d="M-29 0L-15 57H49L194 641H130L145 698H416L401 641H337L191 57H255L241 0H-29ZM450 915L567 960L585 758L548 746L450 915Z" />
<glyph unicode="&#xcd;" glyph-name="Iacute" horiz-adv-x="342" d="M-29 0L-15 57H49L194 641H130L145 698H416L401 641H337L191 57H255L241 0H-29ZM550 746L515 764L616 960L721 905L550 746Z" />
<glyph unicode="&#xce;" glyph-name="Icircumflex" horiz-adv-x="342" d="M-29 0L-15 57H49L194 641H130L145 698H416L401 641H337L191 57H255L241 0H-29ZM637 951L714 767L680 748L582 856L433 748L404 772L556 951H637Z" />
<glyph unicode="&#xcf;" glyph-name="Idieresis" horiz-adv-x="342" d="M-29 0L-15 57H49L194 641H130L145 698H416L401 641H337L191 57H255L241 0H-29ZM461 772Q432 772 416 789T400 828Q400 837 403 849Q408 872 428 888T477 904Q506 904 522 887T538 848Q538
843 538 838T536 827Q530 804 510 788T461 772ZM665 772Q635 772 619 789T603 828Q603 833 603 838T605 849Q611 872 631 888T680 904Q709 904 725 887T741 848Q741 839 738 827Q733 804 714 788T665 772Z" />
<glyph unicode="&#xd0;" glyph-name="Eth" horiz-adv-x="690" d="M-14 57H50L115 321H37L52 382H131L195 641H131L146 698H434Q496 698 542 680T618 628T664 551T679 455Q679 408 669 356T637 254T582 157T505 76T403 21T276 0H-28L-14 57ZM256 61Q350 61 406
116T489 281Q506 348 516 388T531 454T538 493T540 522Q540 582 506 609T407 637H338L274 382H379L365 321H258L193 61H256Z" />
<glyph unicode="&#xd1;" glyph-name="Ntilde" horiz-adv-x="714" d="M-15 57H49L194 641H130L145 698H376L517 181H527L642 641H578L591 698H791L777 641H713L553 0H431L261 587H252L119 57H183L169 0H-29L-15 57ZM579 769Q556 769 538 778T500 798Q480 809 465
818T432 827Q419 827 407 821T371 793L344 821Q372 857 397 883T460 909Q483 909 501 900T539 880Q559 869 574 860T607 851Q620 851 632 857T668 885L695 857Q667 821 642 795T579 769Z" />
<glyph unicode="&#xd2;" glyph-name="Ograve" horiz-adv-x="697" d="M303 52Q337 52 366 65T417 102T456 158T483 228Q502 306 514 355T534 435T543 487T546 528Q546 579 518 612T432 646Q397 646 369 633T318 596T279 540T252 470Q233 392 221 343T201 263T192
211T189 170Q189 119 217 86T303 52ZM290 -12Q173 -12 112 57T50 244Q50 291 61 344T94 449T148 548T225 631T324 688T445 710Q562 710 623 641T685 454Q685 407 674 354T641 249T587 150T510 67T411 10T290 -12ZM355 915L472 960L490 758L453 746L355 915Z" />
<glyph unicode="&#xd3;" glyph-name="Oacute" horiz-adv-x="697" d="M303 52Q337 52 366 65T417 102T456 158T483 228Q502 306 514 355T534 435T543 487T546 528Q546 579 518 612T432 646Q397 646 369 633T318 596T279 540T252 470Q233 392 221 343T201 263T192
211T189 170Q189 119 217 86T303 52ZM290 -12Q173 -12 112 57T50 244Q50 291 61 344T94 449T148 548T225 631T324 688T445 710Q562 710 623 641T685 454Q685 407 674 354T641 249T587 150T510 67T411 10T290 -12ZM455 746L420 764L521 960L626 905L455 746Z" />
<glyph unicode="&#xd4;" glyph-name="Ocircumflex" horiz-adv-x="697" d="M303 52Q337 52 366 65T417 102T456 158T483 228Q502 306 514 355T534 435T543 487T546 528Q546 579 518 612T432 646Q397 646 369 633T318 596T279 540T252 470Q233 392 221 343T201 263T192
211T189 170Q189 119 217 86T303 52ZM290 -12Q173 -12 112 57T50 244Q50 291 61 344T94 449T148 548T225 631T324 688T445 710Q562 710 623 641T685 454Q685 407 674 354T641 249T587 150T510 67T411 10T290 -12ZM542 951L619 767L585 748L487 856L338 748L309
772L461 951H542Z" />
<glyph unicode="&#xd5;" glyph-name="Otilde" horiz-adv-x="697" d="M303 52Q337 52 366 65T417 102T456 158T483 228Q502 306 514 355T534 435T543 487T546 528Q546 579 518 612T432 646Q397 646 369 633T318 596T279 540T252 470Q233 392 221 343T201 263T192
211T189 170Q189 119 217 86T303 52ZM290 -12Q173 -12 112 57T50 244Q50 291 61 344T94 449T148 548T225 631T324 688T445 710Q562 710 623 641T685 454Q685 407 674 354T641 249T587 150T510 67T411 10T290 -12ZM534 769Q511 769 493 778T455 798Q435 809 420
818T387 827Q374 827 362 821T326 793L299 821Q327 857 352 883T415 909Q438 909 456 900T494 880Q514 869 529 860T562 851Q575 851 587 857T623 885L650 857Q622 821 597 795T534 769Z" />
<glyph unicode="&#xd6;" glyph-name="Odieresis" horiz-adv-x="697" d="M303 52Q337 52 366 65T417 102T456 158T483 228Q502 306 514 355T534 435T543 487T546 528Q546 579 518 612T432 646Q397 646 369 633T318 596T279 540T252 470Q233 392 221 343T201 263T192
211T189 170Q189 119 217 86T303 52ZM290 -12Q173 -12 112 57T50 244Q50 291 61 344T94 449T148 548T225 631T324 688T445 710Q562 710 623 641T685 454Q685 407 674 354T641 249T587 150T510 67T411 10T290 -12ZM366 772Q337 772 321 789T305 828Q305 837 308
849Q313 872 333 888T382 904Q411 904 427 887T443 848Q443 843 443 838T441 827Q435 804 415 788T366 772ZM570 772Q540 772 524 789T508 828Q508 833 508 838T510 849Q516 872 536 888T585 904Q614 904 630 887T646 848Q646 839 643 827Q638 804 619 788T570
772Z" />
<glyph unicode="&#xd7;" glyph-name="multiply" horiz-adv-x="550" d="M50 148L234 306L130 463L193 515L296 359L477 515L520 456L336 298L441 140L378 89L275 245L93 89L50 148Z" />
<glyph unicode="&#xd8;" glyph-name="Oslash" horiz-adv-x="696" d="M12 -5L91 84Q50 148 50 244Q50 291 61 344T93 449T148 548T224 631T323 688T444 710Q494 710 533 697T602 660L677 744L722 703L643 614Q684 550 684 454Q684 407 673 354T641 249T586 150T510
67T411 10T290 -12Q240 -12 201 1T132 38L57 -46L12 -5ZM537 585Q524 613 498 629T434 646Q400 646 371 633T317 596T276 540T248 470Q231 401 220 355T201 278T190 227T185 189L537 585ZM300 52Q334 52 363 65T417 102T458 158T486 228Q503 297 514 343T533 420T544
471T549 509L197 113Q210 85 236 69T300 52Z" />
<glyph unicode="&#xd9;" glyph-name="Ugrave" horiz-adv-x="698" d="M337 641L239 248Q225 194 225 155Q225 107 252 82T337 57Q417 57 463 106T537 264L631 641H567L582 698H780L766 641H702L606 256Q572 120 503 54T314 -12Q206 -12 147 28T87 164Q87 186 91
217T105 284L194 641H130L145 698H415L401 641H337ZM408 915L525 960L543 758L506 746L408 915Z" />
<glyph unicode="&#xda;" glyph-name="Uacute" horiz-adv-x="698" d="M337 641L239 248Q225 194 225 155Q225 107 252 82T337 57Q417 57 463 106T537 264L631 641H567L582 698H780L766 641H702L606 256Q572 120 503 54T314 -12Q206 -12 147 28T87 164Q87 186 91
217T105 284L194 641H130L145 698H415L401 641H337ZM508 746L473 764L574 960L679 905L508 746Z" />
<glyph unicode="&#xdb;" glyph-name="Ucircumflex" horiz-adv-x="698" d="M337 641L239 248Q225 194 225 155Q225 107 252 82T337 57Q417 57 463 106T537 264L631 641H567L582 698H780L766 641H702L606 256Q572 120 503 54T314 -12Q206 -12 147 28T87 164Q87 186
91 217T105 284L194 641H130L145 698H415L401 641H337ZM595 951L672 767L638 748L540 856L391 748L362 772L514 951H595Z" />
<glyph unicode="&#xdc;" glyph-name="Udieresis" horiz-adv-x="698" d="M337 641L239 248Q225 194 225 155Q225 107 252 82T337 57Q417 57 463 106T537 264L631 641H567L582 698H780L766 641H702L606 256Q572 120 503 54T314 -12Q206 -12 147 28T87 164Q87 186
91 217T105 284L194 641H130L145 698H415L401 641H337ZM419 772Q390 772 374 789T358 828Q358 837 361 849Q366 872 386 888T435 904Q464 904 480 887T496 848Q496 843 496 838T494 827Q488 804 468 788T419 772ZM623 772Q593 772 577 789T561 828Q561 833 561
838T563 849Q569 872 589 888T638 904Q667 904 683 887T699 848Q699 839 696 827Q691 804 672 788T623 772Z" />
<glyph unicode="&#xdd;" glyph-name="Yacute" horiz-adv-x="633" d="M114 57H194L250 281L156 641H109L123 698H386L372 641H302L368 366H376L577 641H507L521 698H725L711 641H664L398 300L337 57H417L403 0H101L114 57ZM468 746L433 764L534 960L639 905L468 746Z" />
<glyph unicode="&#xde;" glyph-name="Thorn" horiz-adv-x="608" d="M401 641H337L312 542H447Q523 542 570 511T617 410Q617 371 605 327T562 246T483 183T360 158H217L191 57H255L241 0H-29L-15 57H49L194 641H130L145 698H415L401 641ZM297 481L232 220H331Q427
220 456 328Q458 335 461 346T467 370T472 394T474 414Q474 445 455 463T396 481H297Z" />
<glyph unicode="&#xdf;" glyph-name="germandbls" horiz-adv-x="650" d="M357 -12Q288 -12 260 9T231 65Q231 78 235 91T249 114T271 130T301 137Q327 137 343 122T359 81Q359 67 354 52T337 26L345 16Q395 24 423 52T451 119Q451 154 432 179T387 233Q366 257
349 286T331 357Q331 390 344 416T378 462T427 494T481 510L497 579Q506 616 506 642Q506 680 488 700T439 720Q388 720 359 681T309 561L162 -26Q150 -74 128 -109T75 -167T10 -201T-64 -212Q-121 -212 -149 -189T-177 -130Q-177 -104 -159 -83T-109 -62Q-82 -62
-66 -78T-50 -117Q-50 -135 -61 -148T-87 -171L-80 -179Q-45 -178 -23 -158T12 -88L150 462H65L80 522H166L173 551Q186 601 208 641T264 710T343 754T446 770Q493 770 527 759T584 727T616 678T627 615Q627 578 618 542L606 499H574Q522 499 492 476T462 407Q462
375 481 350T524 297Q545 273 563 244T582 171Q582 127 564 93T514 36T443 0T357 -12Z" />
<glyph unicode="&#xe0;" glyph-name="agrave" horiz-adv-x="588" d="M143 -12Q83 -12 57 29T31 143Q31 206 49 275T101 401T183 496T293 534Q338 534 368 511T410 434H421L482 522H549L436 73L454 65L548 180L582 158L524 74Q492 27 463 8T402 -12Q379 -12 364
-6T339 12T326 36T322 64Q322 78 325 94T331 122L337 150L327 152Q311 118 293 88T253 36T204 1T143 -12ZM332 463Q294 463 258 423T197 294Q192 276 187 254T178 210T172 168T170 132Q170 106 176 91T201 76Q218 76 236 89T271 125T304 174T333 231T355 287T369
334L375 360Q386 408 377 435T332 463ZM237 750L354 795L372 593L335 581L237 750Z" />
<glyph unicode="&#xe1;" glyph-name="aacute" horiz-adv-x="588" d="M143 -12Q83 -12 57 29T31 143Q31 206 49 275T101 401T183 496T293 534Q338 534 368 511T410 434H421L482 522H549L436 73L454 65L548 180L582 158L524 74Q492 27 463 8T402 -12Q379 -12 364
-6T339 12T326 36T322 64Q322 78 325 94T331 122L337 150L327 152Q311 118 293 88T253 36T204 1T143 -12ZM332 463Q294 463 258 423T197 294Q192 276 187 254T178 210T172 168T170 132Q170 106 176 91T201 76Q218 76 236 89T271 125T304 174T333 231T355 287T369
334L375 360Q386 408 377 435T332 463ZM330 581L295 599L396 795L501 740L330 581Z" />
<glyph unicode="&#xe2;" glyph-name="acircumflex" horiz-adv-x="588" d="M143 -12Q83 -12 57 29T31 143Q31 206 49 275T101 401T183 496T293 534Q338 534 368 511T410 434H421L482 522H549L436 73L454 65L548 180L582 158L524 74Q492 27 463 8T402 -12Q379 -12
364 -6T339 12T326 36T322 64Q322 78 325 94T331 122L337 150L327 152Q311 118 293 88T253 36T204 1T143 -12ZM332 463Q294 463 258 423T197 294Q192 276 187 254T178 210T172 168T170 132Q170 106 176 91T201 76Q218 76 236 89T271 125T304 174T333 231T355 287T369
334L375 360Q386 408 377 435T332 463ZM419 788L496 604L462 585L364 693L215 585L186 609L338 788H419Z" />
<glyph unicode="&#xe3;" glyph-name="atilde" horiz-adv-x="588" d="M143 -12Q83 -12 57 29T31 143Q31 206 49 275T101 401T183 496T293 534Q338 534 368 511T410 434H421L482 522H549L436 73L454 65L548 180L582 158L524 74Q492 27 463 8T402 -12Q379 -12 364
-6T339 12T326 36T322 64Q322 78 325 94T331 122L337 150L327 152Q311 118 293 88T253 36T204 1T143 -12ZM332 463Q294 463 258 423T197 294Q192 276 187 254T178 210T172 168T170 132Q170 106 176 91T201 76Q218 76 236 89T271 125T304 174T333 231T355 287T369
334L375 360Q386 408 377 435T332 463ZM412 605Q389 605 371 614T333 634Q313 645 298 654T265 663Q252 663 240 657T204 629L177 657Q205 693 230 719T293 745Q316 745 334 736T372 716Q392 705 407 696T440 687Q453 687 465 693T501 721L528 693Q500 657 475
631T412 605Z" />
<glyph unicode="&#xe4;" glyph-name="adieresis" horiz-adv-x="588" d="M143 -12Q83 -12 57 29T31 143Q31 206 49 275T101 401T183 496T293 534Q338 534 368 511T410 434H421L482 522H549L436 73L454 65L548 180L582 158L524 74Q492 27 463 8T402 -12Q379 -12
364 -6T339 12T326 36T322 64Q322 78 325 94T331 122L337 150L327 152Q311 118 293 88T253 36T204 1T143 -12ZM332 463Q294 463 258 423T197 294Q192 276 187 254T178 210T172 168T170 132Q170 106 176 91T201 76Q218 76 236 89T271 125T304 174T333 231T355 287T369
334L375 360Q386 408 377 435T332 463ZM248 607Q219 607 203 624T187 663Q187 672 190 684Q195 707 215 723T264 739Q293 739 309 722T325 683Q325 678 325 673T323 662Q317 639 297 623T248 607ZM452 607Q422 607 406 624T390 663Q390 668 390 673T392 684Q398
707 418 723T467 739Q496 739 512 722T528 683Q528 674 525 662Q520 639 501 623T452 607Z" />
<glyph unicode="&#xe5;" glyph-name="aring" horiz-adv-x="588" d="M143 -12Q83 -12 57 29T31 143Q31 206 49 275T101 401T183 496T293 534Q338 534 368 511T410 434H421L482 522H549L436 73L454 65L548 180L582 158L524 74Q492 27 463 8T402 -12Q379 -12 364
-6T339 12T326 36T322 64Q322 78 325 94T331 122L337 150L327 152Q311 118 293 88T253 36T204 1T143 -12ZM332 463Q294 463 258 423T197 294Q192 276 187 254T178 210T172 168T170 132Q170 106 176 91T201 76Q218 76 236 89T271 125T304 174T333 231T355 287T369
334L375 360Q386 408 377 435T332 463ZM342 563Q315 563 294 572T259 595T238 628T230 667Q230 702 242 732T275 785T324 821T384 834Q411 834 432 825T467 802T488 769T496 730Q496 695 484 665T451 612T402 576T342 563ZM345 609Q391 609 405 664Q413 696 417
718T421 750Q421 767 412 777T381 788Q335 788 321 733Q313 701 309 679T305 647Q305 630 314 620T345 609Z" />
<glyph unicode="&#xe6;" glyph-name="ae" horiz-adv-x="720" d="M104 -12Q56 -12 28 16T-1 92Q-1 174 73 226T302 287Q305 299 309 315T317 347T323 379T326 407Q326 444 305 462T249 480Q220 480 194 472L192 464Q201 456 208 446T216 419Q216 390 197 366T140
342Q114 342 99 356T83 400Q83 425 99 449T143 492T208 522T289 534Q331 534 363 518T408 467H420Q444 497 482 515T569 534Q599 534 626 529T673 510T705 477T717 428Q717 404 705 377T661 325T573 282T429 259Q422 225 418 196T414 144Q414 100 431 82T478 64Q523
64 560 101T633 207L672 190Q627 93 571 41T431 -12Q363 -12 328 23T289 119H277Q266 93 250 70T211 28T162 -1T104 -12ZM164 63Q181 63 199 75T234 106T262 149T281 198L294 250Q219 239 180 216T130 148Q128 141 126 130T123 108Q123 85 134 74T164 63ZM439 297Q487
304 518 317T569 349T596 389T604 435Q604 457 593 470T559 483Q538 483 522 474T493 443T466 386T439 297Z" />
<glyph unicode="&#xe7;" glyph-name="ccedilla" horiz-adv-x="457" d="M162 -211Q120 -211 95 -196T60 -165L89 -134Q110 -161 150 -161Q179 -161 190 -146T202 -113Q202 -101 193 -92T154 -79L131 -76L159 -10Q94 -2 64 41T33 158Q33 218 50 284T101 405T187
497T309 534Q380 534 418 502T457 421Q457 380 434 350T370 320Q340 320 325 339T310 382Q310 408 330 432T392 461V470Q381 478 365 482T330 487Q310 487 293 480T261 454T231 400T201 312Q187 261 180 217T172 144Q172 101 188 83T235 64Q280 64 316 101T389
207L427 190Q405 145 383 110T336 49T280 8T210 -11L189 -57L191 -61Q202 -57 212 -56T230 -54Q257 -54 274 -67T292 -107Q292 -131 281 -150T252 -182T211 -203T162 -211Z" />
<glyph unicode="&#xe8;" glyph-name="egrave" horiz-adv-x="477" d="M186 -12Q107 -12 70 33T33 161Q33 219 50 285T102 406T193 497T326 534Q357 534 384 529T431 510T463 477T475 428Q475 404 463 377T419 325T331 282T187 259Q180 224 176 195T172 144Q172
101 188 83T235 64Q280 64 318 101T391 207L430 190Q407 142 383 105T330 41T266 2T186 -12ZM197 298Q245 305 276 318T327 349T354 389T362 435Q362 457 351 470T317 483Q296 483 280 474T251 443T224 386T197 298ZM239 750L356 795L374 593L337 581L239 750Z"
/>
<glyph unicode="&#xe9;" glyph-name="eacute" horiz-adv-x="477" d="M186 -12Q107 -12 70 33T33 161Q33 219 50 285T102 406T193 497T326 534Q357 534 384 529T431 510T463 477T475 428Q475 404 463 377T419 325T331 282T187 259Q180 224 176 195T172 144Q172
101 188 83T235 64Q280 64 318 101T391 207L430 190Q407 142 383 105T330 41T266 2T186 -12ZM197 298Q245 305 276 318T327 349T354 389T362 435Q362 457 351 470T317 483Q296 483 280 474T251 443T224 386T197 298ZM332 581L297 599L398 795L503 740L332 581Z"
/>
<glyph unicode="&#xea;" glyph-name="ecircumflex" horiz-adv-x="477" d="M186 -12Q107 -12 70 33T33 161Q33 219 50 285T102 406T193 497T326 534Q357 534 384 529T431 510T463 477T475 428Q475 404 463 377T419 325T331 282T187 259Q180 224 176 195T172 144Q172
101 188 83T235 64Q280 64 318 101T391 207L430 190Q407 142 383 105T330 41T266 2T186 -12ZM197 298Q245 305 276 318T327 349T354 389T362 435Q362 457 351 470T317 483Q296 483 280 474T251 443T224 386T197 298ZM421 788L498 604L464 585L366 693L217 585L188
609L340 788H421Z" />
<glyph unicode="&#xeb;" glyph-name="edieresis" horiz-adv-x="477" d="M186 -12Q107 -12 70 33T33 161Q33 219 50 285T102 406T193 497T326 534Q357 534 384 529T431 510T463 477T475 428Q475 404 463 377T419 325T331 282T187 259Q180 224 176 195T172 144Q172
101 188 83T235 64Q280 64 318 101T391 207L430 190Q407 142 383 105T330 41T266 2T186 -12ZM197 298Q245 305 276 318T327 349T354 389T362 435Q362 457 351 470T317 483Q296 483 280 474T251 443T224 386T197 298ZM250 607Q221 607 205 624T189 663Q189 672 192
684Q197 707 217 723T266 739Q295 739 311 722T327 683Q327 678 327 673T325 662Q319 639 299 623T250 607ZM454 607Q424 607 408 624T392 663Q392 668 392 673T394 684Q400 707 420 723T469 739Q498 739 514 722T530 683Q530 674 527 662Q522 639 503 623T454
607Z" />
<glyph unicode="&#xec;" glyph-name="igrave" horiz-adv-x="330" d="M135 -12Q110 -12 93 -5T66 13T51 38T46 67Q46 79 49 94T55 121L133 434H50L63 490L293 534L177 73L195 65L289 180L323 158L265 74Q247 48 230 31T197 5T165 -8T135 -12ZM381 750L498 795L516
593L479 581L381 750Z" />
<glyph unicode="&#xed;" glyph-name="iacute" horiz-adv-x="330" d="M135 -12Q110 -12 93 -5T66 13T51 38T46 67Q46 79 49 94T55 121L133 434H50L63 490L293 534L177 73L195 65L289 180L323 158L265 74Q247 48 230 31T197 5T165 -8T135 -12ZM474 581L439 599L540
795L645 740L474 581Z" />
<glyph unicode="&#xee;" glyph-name="icircumflex" horiz-adv-x="330" d="M135 -12Q110 -12 93 -5T66 13T51 38T46 67Q46 79 49 94T55 121L133 434H50L63 490L293 534L177 73L195 65L289 180L323 158L265 74Q247 48 230 31T197 5T165 -8T135 -12ZM563 788L640
604L606 585L508 693L359 585L330 609L482 788H563Z" />
<glyph unicode="&#xef;" glyph-name="idieresis" horiz-adv-x="330" d="M135 -12Q110 -12 93 -5T66 13T51 38T46 67Q46 79 49 94T55 121L133 434H50L63 490L293 534L177 73L195 65L289 180L323 158L265 74Q247 48 230 31T197 5T165 -8T135 -12ZM392 607Q363 607
347 624T331 663Q331 672 334 684Q339 707 359 723T408 739Q437 739 453 722T469 683Q469 678 469 673T467 662Q461 639 441 623T392 607ZM596 607Q566 607 550 624T534 663Q534 668 534 673T536 684Q542 707 562 723T611 739Q640 739 656 722T672 683Q672 674
669 662Q664 639 645 623T596 607Z" />
<glyph unicode="&#xf0;" glyph-name="eth" horiz-adv-x="548" d="M212 -12Q124 -12 80 40T35 181Q35 244 54 302T106 406T184 478T283 505Q327 505 354 482T387 416L397 420Q399 530 353 616L253 557L224 607L324 666Q306 692 285 714T238 758H319Q336 747 354
733T388 704L496 768L525 718L427 660Q468 608 491 543T515 397Q515 304 494 229T432 100T337 17T212 -12ZM218 42Q261 42 287 77T328 167Q344 229 353 265T366 321T372 352T374 372Q374 401 360 420T313 440Q270 440 244 405T203 315Q187 253 178 217T165 161T159
130T157 110Q157 81 171 62T218 42Z" />
<glyph unicode="&#xf1;" glyph-name="ntilde" horiz-adv-x="606" d="M133 434H50L64 490L280 534L238 366L249 363Q268 398 288 429T331 483T382 520T445 534Q496 534 519 506T543 433Q543 399 531 357L451 73L469 65L563 180L597 158L539 74Q506 26 475 7T408
-12Q383 -12 366 -5T339 13T324 38T319 66Q319 79 322 94T328 120L405 399Q408 411 408 420Q408 446 385 446Q363 446 337 423T284 358T233 258T192 131L159 0H25L133 434ZM435 605Q412 605 394 614T356 634Q336 645 321 654T288 663Q275 663 263 657T227 629L200
657Q228 693 253 719T316 745Q339 745 357 736T395 716Q415 705 430 696T463 687Q476 687 488 693T524 721L551 693Q523 657 498 631T435 605Z" />
<glyph unicode="&#xf2;" glyph-name="ograve" horiz-adv-x="543" d="M213 -12Q124 -12 79 40T33 181Q33 239 53 301T111 415T204 500T330 534Q419 534 464 482T510 341Q510 283 490 221T432 107T339 22T213 -12ZM219 42Q262 42 288 76T328 167Q345 233 356 275T373
345T381 387T384 412Q384 441 370 460T324 480Q281 480 255 446T215 355Q198 289 187 247T170 177T162 135T159 110Q159 81 173 62T219 42ZM246 750L363 795L381 593L344 581L246 750Z" />
<glyph unicode="&#xf3;" glyph-name="oacute" horiz-adv-x="543" d="M213 -12Q124 -12 79 40T33 181Q33 239 53 301T111 415T204 500T330 534Q419 534 464 482T510 341Q510 283 490 221T432 107T339 22T213 -12ZM219 42Q262 42 288 76T328 167Q345 233 356 275T373
345T381 387T384 412Q384 441 370 460T324 480Q281 480 255 446T215 355Q198 289 187 247T170 177T162 135T159 110Q159 81 173 62T219 42ZM339 581L304 599L405 795L510 740L339 581Z" />
<glyph unicode="&#xf4;" glyph-name="ocircumflex" horiz-adv-x="543" d="M213 -12Q124 -12 79 40T33 181Q33 239 53 301T111 415T204 500T330 534Q419 534 464 482T510 341Q510 283 490 221T432 107T339 22T213 -12ZM219 42Q262 42 288 76T328 167Q345 233 356
275T373 345T381 387T384 412Q384 441 370 460T324 480Q281 480 255 446T215 355Q198 289 187 247T170 177T162 135T159 110Q159 81 173 62T219 42ZM428 788L505 604L471 585L373 693L224 585L195 609L347 788H428Z" />
<glyph unicode="&#xf5;" glyph-name="otilde" horiz-adv-x="543" d="M213 -12Q124 -12 79 40T33 181Q33 239 53 301T111 415T204 500T330 534Q419 534 464 482T510 341Q510 283 490 221T432 107T339 22T213 -12ZM219 42Q262 42 288 76T328 167Q345 233 356 275T373
345T381 387T384 412Q384 441 370 460T324 480Q281 480 255 446T215 355Q198 289 187 247T170 177T162 135T159 110Q159 81 173 62T219 42ZM421 605Q398 605 380 614T342 634Q322 645 307 654T274 663Q261 663 249 657T213 629L186 657Q214 693 239 719T302 745Q325
745 343 736T381 716Q401 705 416 696T449 687Q462 687 474 693T510 721L537 693Q509 657 484 631T421 605Z" />
<glyph unicode="&#xf6;" glyph-name="odieresis" horiz-adv-x="543" d="M213 -12Q124 -12 79 40T33 181Q33 239 53 301T111 415T204 500T330 534Q419 534 464 482T510 341Q510 283 490 221T432 107T339 22T213 -12ZM219 42Q262 42 288 76T328 167Q345 233 356
275T373 345T381 387T384 412Q384 441 370 460T324 480Q281 480 255 446T215 355Q198 289 187 247T170 177T162 135T159 110Q159 81 173 62T219 42ZM257 607Q228 607 212 624T196 663Q196 672 199 684Q204 707 224 723T273 739Q302 739 318 722T334 683Q334 678
334 673T332 662Q326 639 306 623T257 607ZM461 607Q431 607 415 624T399 663Q399 668 399 673T401 684Q407 707 427 723T476 739Q505 739 521 722T537 683Q537 674 534 662Q529 639 510 623T461 607Z" />
<glyph unicode="&#xf7;" glyph-name="divide" horiz-adv-x="550" d="M64 269L82 342H509L491 269H64ZM229 50Q197 50 179 67T161 107Q161 119 164 131Q179 192 249 192Q281 192 299 175T317 134Q317 122 314 110Q299 50 229 50ZM323 419Q291 419 273 436T255 476Q255
488 258 500Q273 561 343 561Q375 561 393 544T411 504Q411 492 408 480Q393 419 323 419Z" />
<glyph unicode="&#xf8;" glyph-name="oslash" horiz-adv-x="543" d="M213 -12Q134 -12 88 31L17 -43L-21 -4L55 75Q33 118 33 181Q33 239 53 301T111 415T204 500T330 534Q409 534 454 491L525 565L564 526L487 447Q509 404 509 341Q509 283 490 221T432 107T339
22T213 -12ZM324 480Q281 480 255 446T215 355Q201 302 192 265T175 200L384 418Q382 444 368 462T324 480ZM219 42Q262 42 288 77T328 167Q342 221 352 259T368 324L159 105Q161 78 174 60T219 42Z" />
<glyph unicode="&#xf9;" glyph-name="ugrave" horiz-adv-x="604" d="M145 -12Q93 -12 70 16T46 90Q46 124 58 165L134 434H51L65 490L298 534L184 123Q181 111 181 102Q181 76 203 76Q225 76 252 99T305 164T356 264T397 391L430 522H564L452 73L470 65L564 180L598
158L540 74Q522 48 505 31T472 5T442 -8T414 -12Q391 -12 376 -5T351 12T338 36T334 64Q334 78 337 94T343 123L351 156L340 159Q320 124 301 93T258 39T208 2T145 -12ZM274 750L391 795L409 593L372 581L274 750Z" />
<glyph unicode="&#xfa;" glyph-name="uacute" horiz-adv-x="604" d="M145 -12Q93 -12 70 16T46 90Q46 124 58 165L134 434H51L65 490L298 534L184 123Q181 111 181 102Q181 76 203 76Q225 76 252 99T305 164T356 264T397 391L430 522H564L452 73L470 65L564 180L598
158L540 74Q522 48 505 31T472 5T442 -8T414 -12Q391 -12 376 -5T351 12T338 36T334 64Q334 78 337 94T343 123L351 156L340 159Q320 124 301 93T258 39T208 2T145 -12ZM367 581L332 599L433 795L538 740L367 581Z" />
<glyph unicode="&#xfb;" glyph-name="ucircumflex" horiz-adv-x="604" d="M145 -12Q93 -12 70 16T46 90Q46 124 58 165L134 434H51L65 490L298 534L184 123Q181 111 181 102Q181 76 203 76Q225 76 252 99T305 164T356 264T397 391L430 522H564L452 73L470 65L564
180L598 158L540 74Q522 48 505 31T472 5T442 -8T414 -12Q391 -12 376 -5T351 12T338 36T334 64Q334 78 337 94T343 123L351 156L340 159Q320 124 301 93T258 39T208 2T145 -12ZM456 788L533 604L499 585L401 693L252 585L223 609L375 788H456Z" />
<glyph unicode="&#xfc;" glyph-name="udieresis" horiz-adv-x="604" d="M145 -12Q93 -12 70 16T46 90Q46 124 58 165L134 434H51L65 490L298 534L184 123Q181 111 181 102Q181 76 203 76Q225 76 252 99T305 164T356 264T397 391L430 522H564L452 73L470 65L564
180L598 158L540 74Q522 48 505 31T472 5T442 -8T414 -12Q391 -12 376 -5T351 12T338 36T334 64Q334 78 337 94T343 123L351 156L340 159Q320 124 301 93T258 39T208 2T145 -12ZM285 607Q256 607 240 624T224 663Q224 672 227 684Q232 707 252 723T301 739Q330
739 346 722T362 683Q362 678 362 673T360 662Q354 639 334 623T285 607ZM489 607Q459 607 443 624T427 663Q427 668 427 673T429 684Q435 707 455 723T504 739Q533 739 549 722T565 683Q565 674 562 662Q557 639 538 623T489 607Z" />
<glyph unicode="&#xfd;" glyph-name="yacute" horiz-adv-x="500" d="M12 -212Q-33 -212 -60 -192T-88 -136Q-88 -107 -69 -84T-15 -61Q11 -61 27 -75T43 -115Q43 -130 37 -144T22 -167L28 -173Q61 -159 89 -128T147 -37L88 466H52L65 522H294L281 466H227L247
138H258L440 466H386L400 522H563L549 466H513L195 -62Q144 -147 99 -179T12 -212ZM356 581L321 599L422 795L527 740L356 581Z" />
<glyph unicode="&#xfe;" glyph-name="thorn" horiz-adv-x="560" d="M-24 -144L180 670H97L111 725L340 770L225 372L235 370Q251 403 269 433T308 485T357 521T418 534Q478 534 504 493T531 379Q531 316 513 248T461 121T378 26T268 -12Q224 -12 200 8T167 64H156L110
-144H198L184 -200H-103L-89 -144H-24ZM230 59Q268 59 304 99T365 228Q370 246 375 268T383 312T389 354T392 390Q392 416 386 431T361 446Q344 446 326 433T291 397T258 348T229 291T207 235T193 188L187 162Q176 114 185 87T230 59Z" />
<glyph unicode="&#xff;" glyph-name="ydieresis" horiz-adv-x="500" d="M12 -212Q-33 -212 -60 -192T-88 -136Q-88 -107 -69 -84T-15 -61Q11 -61 27 -75T43 -115Q43 -130 37 -144T22 -167L28 -173Q61 -159 89 -128T147 -37L88 466H52L65 522H294L281 466H227L247
138H258L440 466H386L400 522H563L549 466H513L195 -62Q144 -147 99 -179T12 -212ZM274 607Q245 607 229 624T213 663Q213 672 216 684Q221 707 241 723T290 739Q319 739 335 722T351 683Q351 678 351 673T349 662Q343 639 323 623T274 607ZM478 607Q448 607 432
624T416 663Q416 668 416 673T418 684Q424 707 444 723T493 739Q522 739 538 722T554 683Q554 674 551 662Q546 639 527 623T478 607Z" />
<glyph unicode="&#x2013;" glyph-name="endash" horiz-adv-x="555" d="M44 266L62 339H534L515 266H44Z" />
<glyph unicode="&#x2014;" glyph-name="emdash" horiz-adv-x="731" d="M44 266L62 339H709L691 266H44Z" />
<glyph unicode="&#x2018;" glyph-name="quoteleft" horiz-adv-x="276" d="M351 740Q309 709 281 680T233 616Q262 611 278 593T295 552Q295 546 294 539T291 525Q283 493 258 474T197 454Q162 454 142 476T122 528Q122 542 125 556Q131 583 146 609T182 659T226
703T273 740H351V740Z" />
<glyph unicode="&#x2019;" glyph-name="quoteright" horiz-adv-x="276" d="M92 454Q134 485 162 514T210 578Q181 583 165 601T148 642Q148 648 149 655T152 669Q160 701 185 720T246 740Q281 740 301 718T321 666Q321 651 318 638Q312 611 297 585T261 535T216
491T170 454H92V454Z" />
<glyph unicode="&#x201a;" glyph-name="quotesinglbase" horiz-adv-x="276" d="M-52 -118Q-10 -87 18 -58T66 6Q37 11 21 29T4 70Q4 76 5 83T8 97Q16 129 41 148T102 168Q137 168 157 146T177 94Q177 79 174 66Q168 39 153 13T117 -37T72 -81T26 -118H-52V-118Z" />
<glyph unicode="&#x201c;" glyph-name="quotedblleft" horiz-adv-x="506" d="M351 740Q309 709 281 680T233 616Q262 611 278 593T295 552Q295 546 294 539T291 525Q283 493 258 474T197 454Q162 454 142 476T122 528Q122 542 125 556Q131 583 146 609T182 659T226
703T273 740H351V740ZM581 740Q539 709 511 680T463 616Q492 611 508 593T525 552Q525 546 524 539T521 525Q513 493 488 474T427 454Q392 454 372 476T352 528Q352 542 355 556Q361 583 376 609T412 659T456 703T503 740H581V740Z" />
<glyph unicode="&#x201d;" glyph-name="quotedblright" horiz-adv-x="506" d="M92 454Q134 485 162 514T210 578Q181 583 165 601T148 642Q148 648 149 655T152 669Q160 701 185 720T246 740Q281 740 301 718T321 666Q321 651 318 638Q312 611 297 585T261 535T216
491T170 454H92V454ZM322 454Q364 485 392 514T440 578Q411 583 395 601T378 642Q378 648 379 655T382 669Q390 701 415 720T476 740Q511 740 531 718T551 666Q551 651 548 638Q542 611 527 585T491 535T446 491T400 454H322V454Z" />
<glyph unicode="&#x201e;" glyph-name="quotedblbase" horiz-adv-x="506" d="M-52 -118Q-10 -87 18 -58T66 6Q37 11 21 29T4 70Q4 76 5 83T8 97Q16 129 41 148T102 168Q137 168 157 146T177 94Q177 79 174 66Q168 39 153 13T117 -37T72 -81T26 -118H-52V-118ZM178
-118Q220 -87 248 -58T296 6Q267 11 251 29T234 70Q234 76 235 83T238 97Q246 129 271 148T332 168Q367 168 387 146T407 94Q407 79 404 66Q398 39 383 13T347 -37T302 -81T256 -118H178V-118Z" />
<glyph unicode="&#x2022;" glyph-name="bullet" horiz-adv-x="395" d="M188 167Q158 167 136 176T99 200T77 234T69 275Q69 287 71 302T76 328Q87 373 123 404T223 436Q253 436 275 427T312 403T334 369T342 328Q342 316 340 301T335 275Q324 230 288 199T188 167Z" />
<glyph unicode="&#x2039;" glyph-name="guilsinglleft" horiz-adv-x="292" d="M168 65L38 254L52 311L267 493L288 453L161 273L202 98L168 65Z" />
<glyph unicode="&#x203a;" glyph-name="guilsinglright" horiz-adv-x="292" d="M135 285L94 460L128 493L258 304L244 247L29 65L8 105L135 285Z" />
</font>
</defs>
</svg>
