<?xml version="1.0" standalone="no"?>
<!DOCTYPE svg PUBLIC "-//W3C//DTD SVG 1.1//EN" "http://www.w3.org/Graphics/SVG/1.1/DTD/svg11.dtd">
<svg xmlns="http://www.w3.org/2000/svg">
<defs >
<font id="IBMPlexSerif" horiz-adv-x="561" ><font-face
    font-family="IBM Plex Serif ExtraLight"
    units-per-em="1000"
    panose-1="2 6 3 3 5 4 6 0 2 3"
    ascent="1025"
    descent="-275"
    alphabetic="0" />
<glyph unicode=" " glyph-name="space" horiz-adv-x="212" />
<glyph unicode="!" glyph-name="exclam" horiz-adv-x="242" d="M147 434L212 698H249L184 434L110 178H92L147 434ZM61 -7Q45 -7 37 2T29 22Q29 31 33 42Q37 53 47 60T71 68Q87 68 95 59T103 39Q103 30 99 19Q95 8 85 1T61 -7Z" />
<glyph unicode="&quot;" glyph-name="quotedbl" horiz-adv-x="353" d="M185 659L205 740H240L219 659L166 483H149L185 659ZM336 659L356 740H391L370 659L317 483H300L336 659Z" />
<glyph unicode="#" glyph-name="numbersign" horiz-adv-x="671" d="M380 218H211L121 0H91L181 218H49L55 242H191L279 456H146L151 480H288L378 698H408L318 480H487L577 698H607L517 480H649L643 456H507L419 242H552L547 218H410L320 0H290L380 218ZM389 242L477
456H309L221 242H389Z" />
<glyph unicode="$" glyph-name="dollar" d="M202 0Q135 5 94 32T53 99Q53 118 63 130T91 142Q105 142 114 133T124 109Q124 93 114 82T84 67V64Q101 47 131 37T208 24L290 353L267 363Q210 386 180 422T150 516Q150 558 166 591T212 649T280 686T366 699H376L397
780H422L402 698Q462 692 500 665T539 599Q539 580 529 568T501 556Q487 556 478 565T468 589Q468 605 478 617T508 631V634Q491 650 464 661T396 674L322 380L354 367Q421 339 449 302T478 211Q478 167 462 129T415 62T338 16T233 -1H228L208 -82H182L202 0ZM443
204Q443 231 436 250T414 285T380 313T333 336L313 344L233 24H235Q282 24 320 38T386 76T428 133T443 204ZM185 523Q185 472 211 444T285 395L299 389L370 674H366Q321 674 288 661T231 627T197 579T185 523Z" />
<glyph unicode="%" glyph-name="percent" horiz-adv-x="831" d="M728 698H759L142 0H111L728 698ZM213 323Q169 323 140 351T110 441Q110 492 123 540T160 626T220 687T300 710Q345 710 374 683T403 592Q403 541 390 493T353 407T293 346T213 323ZM214 344Q235
344 255 352T295 379T330 428T357 504Q363 527 367 553T372 600Q372 648 351 668T299 689Q278 689 257 681T218 654T183 605T156 529Q150 506 146 480T141 433Q141 385 162 365T214 344ZM570 -12Q526 -12 497 16T467 106Q467 157 480 205T517 291T577 352T657 375Q702
375 731 348T760 257Q760 206 747 158T710 72T650 11T570 -12ZM571 9Q592 9 612 17T652 44T687 93T714 169Q720 192 724 218T729 265Q729 313 708 333T656 354Q635 354 614 346T575 319T540 270T513 194Q507 171 503 145T498 98Q498 50 519 30T571 9Z" />
<glyph unicode="&amp;" glyph-name="ampersand" horiz-adv-x="628" d="M200 -12Q113 -12 72 27T30 134Q30 186 48 224T95 291T157 340T221 375L213 389Q194 422 184 450T173 513Q173 553 187 589T226 652T287 694T366 710Q427 710 458 683T490 602Q490 567 474
537T428 478T356 423T262 370L408 118Q477 199 508 331H424L430 355H623L617 331H535Q517 253 488 195T422 95L439 65Q454 39 477 32T545 24L540 0H515Q474 0 451 11T408 54L398 70Q354 28 304 8T200 -12ZM203 13Q256 13 301 33T385 92L232 355Q207 342 183 327T137
292T101 247T78 189Q76 179 73 162T69 134Q69 69 107 41T203 13ZM209 518Q209 481 220 451T251 389Q323 424 377 467T448 559Q451 569 453 580T455 602Q455 642 433 664T364 686Q306 686 268 652T217 566Q214 555 212 543T209 518Z" />
<glyph unicode="&apos;" glyph-name="quotesingle" horiz-adv-x="202" d="M185 659L205 740H240L219 659L166 483H149L185 659Z" />
<glyph unicode="(" glyph-name="parenleft" horiz-adv-x="280" d="M404 757Q360 725 317 681T236 583T169 467T121 335L110 291Q99 245 94 210T89 143Q89 58 113 -16T179 -136L158 -142Q138 -121 119 -91T86 -23T64 60T55 156Q55 197 60 237T76 318Q94 388 125
453T198 576T286 682T384 765L404 757Z" />
<glyph unicode=")" glyph-name="parenright" horiz-adv-x="280" d="M-97 -133Q-53 -101 -10 -57T71 41T138 157T186 289L197 333Q208 379 213 414T218 481Q218 566 194 640T128 760L149 766Q169 745 187 715T220 647T243 564T252 468Q252 427 247 387T231 306Q213
235 182 170T109 48T21 -58T-77 -141L-97 -133Z" />
<glyph unicode="*" glyph-name="asterisk" horiz-adv-x="432" d="M309 698L322 747H356L344 698L311 603H296L309 698ZM183 600L140 615L156 644L199 630L279 591L272 579L183 600ZM323 591L417 629L467 645L473 613L422 598L324 577L323 591ZM213 471L174 430L149
451L189 491L272 562L283 553L213 471ZM314 560L360 486L379 448L348 431L330 471L302 554L314 560Z" />
<glyph unicode="+" glyph-name="plus" horiz-adv-x="550" d="M270 293H53L59 318H276L333 545H362L305 318H522L516 293H299L242 66H213L270 293Z" />
<glyph unicode="," glyph-name="comma" horiz-adv-x="216" d="M-56 -144Q-14 -112 12 -76T51 -5H46Q32 -5 24 3T15 25Q15 44 27 56T57 69Q74 69 82 59T91 34Q91 18 79 -9Q71 -27 59 -46T31 -84T-1 -118T-34 -144H-56Z" />
<glyph unicode="-" glyph-name="hyphen" horiz-adv-x="352" d="M75 290L82 320H302L295 290H75Z" />
<glyph unicode="." glyph-name="period" horiz-adv-x="216" d="M47 -7Q31 -7 23 2T15 22Q15 31 19 42Q23 53 33 60T57 68Q73 68 81 59T89 39Q89 30 85 19Q81 8 71 1T47 -7Z" />
<glyph unicode="/" glyph-name="slash" horiz-adv-x="324" d="M-86 -151L374 740H405L-55 -151H-86Z" />
<glyph unicode="0" glyph-name="zero" horiz-adv-x="550" d="M217 -12Q136 -12 96 41T56 195Q56 241 63 297T87 411T128 522T189 617T269 684T372 710Q453 710 493 657T533 503Q533 457 526 401T502 287T461 176T400 81T320 14T217 -12ZM219 13Q308 13 369 88T463
302Q474 347 481 379T491 436T496 479T498 515Q498 593 469 639T370 685Q281 685 220 610T126 396Q115 351 108 319T98 262T93 219T91 183Q91 105 120 59T219 13Z" />
<glyph unicode="1" glyph-name="one" horiz-adv-x="550" d="M54 24H209L367 662L186 575L183 600L379 698H414L247 24H407L401 0H48L54 24Z" />
<glyph unicode="2" glyph-name="two" horiz-adv-x="550" d="M20 29L308 287Q367 339 405 387T460 493Q468 523 470 538T473 564Q473 623 441 654T337 685Q298 685 265 674T209 643V639Q240 633 240 603Q240 589 231 578T204 566Q189 566 180 576T170 603Q170 623
185 642T224 677T280 701T344 710Q432 710 472 671T512 563Q512 521 498 482T458 406T399 335T325 266L58 35V31H378L405 137H437L404 0H13L20 29Z" />
<glyph unicode="3" glyph-name="three" horiz-adv-x="550" d="M199 -12Q161 -12 131 -3T80 20T48 52T37 84Q37 104 49 117T78 130Q95 130 102 122T110 100Q110 83 98 72T69 58L68 53Q93 31 126 22T194 13Q270 13 323 50T393 154Q397 170 401 192T406 232Q406 294
365 323T264 353H212L218 378H274Q343 378 394 410T459 499Q464 516 468 537T472 578Q472 626 441 655T342 685Q303 685 268 675T207 643V639Q238 632 238 604Q238 590 229 578T202 566Q187 566 178 576T168 603Q168 624 183 643T224 677T282 701T348 710Q427 710
469 673T511 572Q511 529 498 494T460 433T403 391T331 368V363Q354 359 375 348T411 320T436 279T445 225Q445 173 427 130T377 55T299 6T199 -12Z" />
<glyph unicode="4" glyph-name="four" horiz-adv-x="550" d="M326 156H13L19 183L449 698H498L370 184H457L450 156H363L324 0H287L326 156ZM333 184L453 664H450L51 184H333Z" />
<glyph unicode="5" glyph-name="five" horiz-adv-x="550" d="M209 -12Q173 -12 145 -3T96 20T66 52T55 84Q55 104 67 117T96 130Q113 130 120 122T128 100Q128 83 116 72T87 58V53Q109 32 140 23T204 13Q282 13 337 58T413 183Q417 197 421 219T425 261Q425 332
391 362T302 392Q253 392 217 373T152 317L122 325L231 698H545L538 667H248L155 344L159 343Q188 381 226 400T315 419Q382 419 423 380T464 262Q464 209 446 160T395 72T315 11T209 -12Z" />
<glyph unicode="6" glyph-name="six" horiz-adv-x="550" d="M228 -12Q153 -12 113 30T72 154Q72 225 100 310T182 474T316 617T500 710L506 692Q437 670 377 629T269 534T187 421T134 300L139 299Q170 356 214 387T328 419Q396 419 436 381T476 263Q476 204 457
154T404 66T325 9T228 -12ZM231 13Q304 13 354 59T425 183Q430 198 434 220T438 264Q438 332 406 363T316 394Q243 394 193 348T122 224Q117 209 113 187T109 143Q109 75 141 44T231 13Z" />
<glyph unicode="7" glyph-name="seven" horiz-adv-x="550" d="M545 667H219L179 508H147L194 698H585L578 672L154 0H114L545 667Z" />
<glyph unicode="8" glyph-name="eight" horiz-adv-x="550" d="M218 -12Q134 -12 87 31T40 145Q40 189 55 227T97 293T159 340T235 365L237 370Q197 383 174 416T150 498Q150 542 167 581T215 648T287 693T377 710Q451 710 492 672T534 569Q534 530 520 496T483
434T430 390T366 366L365 361Q411 345 440 310T469 219Q469 171 451 129T399 56T319 6T218 -12ZM221 13Q298 13 351 55T422 169Q427 189 429 201T431 226Q431 284 393 318T289 352Q212 352 159 310T88 197Q83 177 81 165T79 140Q79 82 117 48T221 13ZM310 377Q379
377 425 417T487 518Q496 552 496 572Q496 625 464 655T373 685Q304 685 258 645T196 544Q191 527 189 514T187 490Q187 437 219 407T310 377Z" />
<glyph unicode="9" glyph-name="nine" horiz-adv-x="550" d="M82 6Q151 28 211 69T319 164T401 277T454 398L449 399Q418 342 374 311T260 279Q192 279 152 317T112 435Q112 494 131 544T184 631T263 689T360 710Q435 710 475 668T516 544Q516 473 488 388T406
224T272 81T88 -12L82 6ZM272 304Q345 304 395 350T466 474Q471 489 475 511T479 555Q479 623 447 654T357 685Q284 685 234 639T163 515Q158 500 154 478T150 434Q150 366 182 335T272 304Z" />
<glyph unicode=":" glyph-name="colon" horiz-adv-x="235" d="M56 -7Q40 -7 32 2T24 22Q24 31 28 42Q32 53 42 60T66 68Q82 68 90 59T98 39Q98 30 94 19Q90 8 80 1T56 -7ZM163 424Q147 424 139 433T131 453Q131 462 135 473Q139 484 149 491T173 499Q189 499 197
490T205 470Q205 461 201 450Q197 439 187 432T163 424Z" />
<glyph unicode=";" glyph-name="semicolon" horiz-adv-x="235" d="M-48 -144Q-6 -112 20 -76T59 -5H54Q40 -5 32 3T23 25Q23 44 35 56T65 69Q82 69 90 59T99 34Q99 18 87 -9Q79 -27 67 -46T39 -84T7 -118T-26 -144H-48ZM163 424Q147 424 139 433T131 453Q131 462
135 473Q139 484 149 491T173 499Q189 499 197 490T205 470Q205 461 201 450Q197 439 187 432T163 424Z" />
<glyph unicode="&lt;" glyph-name="less" horiz-adv-x="550" d="M84 283L90 308L533 566L524 532L118 294V290L405 54L399 26L84 283Z" />
<glyph unicode="=" glyph-name="equal" horiz-adv-x="550" d="M76 386L82 411H545L539 386H76ZM30 200L36 225H499L493 200H30Z" />
<glyph unicode="&gt;" glyph-name="greater" horiz-adv-x="550" d="M46 60L452 298V302L165 538L172 566L486 309L480 284L37 26L46 60Z" />
<glyph unicode="?" glyph-name="question" horiz-adv-x="479" d="M198 354Q285 361 342 403T417 505Q424 529 427 547T431 580Q431 631 399 658T312 685Q270 685 235 673T179 642V638Q208 632 208 603Q208 589 199 578T172 566Q155 566 147 576T138 600Q138 621
153 641T193 676T251 700T319 710Q396 710 433 673T470 579Q470 531 452 489T401 414T322 360T219 332L182 184H156L198 354ZM127 -7Q111 -7 103 2T95 22Q95 31 99 42Q103 53 113 60T137 68Q153 68 161 59T169 39Q169 30 165 19Q161 8 151 1T127 -7Z" />
<glyph unicode="@" glyph-name="at" horiz-adv-x="837" d="M341 95Q361 95 381 109T421 146T457 197T487 253T510 304T523 342L533 383Q545 430 534 457T477 484Q440 484 413 467T366 421T332 356T308 281Q306 275 304 263T300 237T297 206T295 176Q295 143 304
119T341 95ZM535 -114Q497 -117 452 -119T378 -121Q229 -121 148 -44T66 185Q66 287 99 382T192 549T335 666T519 710Q581 710 630 692T713 639T766 553T784 434Q784 372 769 307T725 189T656 103T565 69Q543 69 528 76T504 96T491 125T487 161Q487 189 495 223L502
248L495 249Q483 218 467 186T430 128T384 86T331 69Q292 69 277 101T262 183Q262 235 276 292T316 397T381 476T470 507Q501 507 523 494T551 449H556L577 495H593L523 213Q519 197 517 184T514 158Q514 126 526 108T566 90Q590 90 615 102T663 141T705 208T739
303Q749 346 753 377T757 438Q757 556 696 622T519 689Q448 689 384 664T267 592T175 478T115 327Q107 295 101 256T95 182Q95 45 169 -27T381 -100H539L535 -114Z" />
<glyph unicode="A" glyph-name="A" horiz-adv-x="649" d="M-46 0L-40 24H15L413 698H457L518 24H573L567 0H380L386 24H480L462 233H171L49 24H143L137 0H-46ZM422 662L184 258H460L425 662H422Z" />
<glyph unicode="B" glyph-name="B" horiz-adv-x="618" d="M-9 0L-3 24H75L237 674H159L165 698H449Q594 698 594 568Q594 529 582 496T548 436T496 391T428 367V363Q485 354 510 321T536 233Q536 185 521 143T476 69T404 19T309 0H-9ZM300 25Q369 25 418 60T483
159Q488 176 492 198T497 239Q497 293 470 322T376 351H195L113 25H300ZM369 376Q430 376 477 408T542 495Q548 512 552 533T556 574Q556 619 531 646T446 673H275L201 376H369Z" />
<glyph unicode="C" glyph-name="C" horiz-adv-x="602" d="M527 145Q509 114 486 86T432 36T366 1T284 -12Q186 -12 130 43T74 217Q74 267 83 323T110 434T156 539T224 627T312 687T424 710Q483 710 524 688T578 625H582L600 698H632L581 493H549L566 562Q569 575
569 585Q569 609 558 627T528 659T483 678T427 685Q374 685 329 665T248 607T186 516T143 397Q133 357 127 328T118 277T114 240T113 212Q113 13 291 13Q364 13 416 53T507 156L527 145V145Z" />
<glyph unicode="D" glyph-name="D" horiz-adv-x="672" d="M-3 24H75L237 674H159L165 698H413Q464 698 505 685T576 645T621 577T637 478Q637 430 629 376T602 268T554 167T485 81T392 22T274 0H-9L-3 24ZM273 25Q324 25 370 44T455 99T523 186T569 301Q579 341
585 370T594 420T597 457T598 485Q598 673 410 673H275L113 25H273Z" />
<glyph unicode="E" glyph-name="E" horiz-adv-x="585" d="M423 353H195L113 25H438L471 156H503L464 0H-9L-3 24H75L237 674H159L165 698H619L581 545H549L581 673H275L201 378H429L450 463H478L429 269H401L423 353Z" />
<glyph unicode="F" glyph-name="F" horiz-adv-x="554" d="M-3 24H75L237 674H159L165 698H612L574 545H542L574 673H275L198 367H426L447 452H475L426 258H398L420 342H192L113 24H211L205 0H-9L-3 24Z" />
<glyph unicode="G" glyph-name="G" horiz-adv-x="687" d="M492 98H488Q462 51 412 20T295 -12Q192 -12 133 43T74 217Q74 267 83 323T111 434T160 539T231 627T324 687T442 710Q471 710 498 705T548 688T586 659T607 619H611L631 698H663L612 493H580L597 562Q600
575 600 585Q600 609 588 627T554 659T504 678T443 685Q389 685 341 665T252 605T182 504T134 362Q122 311 118 274T113 212Q113 13 299 13Q338 13 372 25T434 60T481 110T508 171L539 299H412L417 324H651L645 299H576L502 0H481L492 98Z" />
<glyph unicode="H" glyph-name="H" horiz-adv-x="726" d="M413 0L419 24H497L578 351H195L113 24H191L185 0H-9L-3 24H75L237 674H159L165 698H359L353 674H275L201 376H584L658 674H580L586 698H781L775 674H697L535 24H613L607 0H413Z" />
<glyph unicode="I" glyph-name="I" horiz-adv-x="304" d="M-9 0L-3 24H75L237 674H159L165 698H359L353 674H275L113 24H191L185 0H-9Z" />
<glyph unicode="J" glyph-name="J" horiz-adv-x="423" d="M25 26Q33 19 51 15T90 11Q201 11 231 134L365 674H267L273 698H487L481 674H403L267 128Q250 57 206 23T95 -12Q44 -12 15 8T-15 61Q-15 78 -6 89T21 100Q38 100 46 91T55 67Q55 42 25 29V26V26Z" />
<glyph unicode="K" glyph-name="K" horiz-adv-x="648" d="M374 0L380 24H468L315 380L167 240L113 24H191L185 0H-9L-3 24H75L237 674H159L165 698H359L353 674H275L178 284H181L315 411L597 674H509L515 698H700L694 674H634L343 403L508 24H568L562 0H374Z" />
<glyph unicode="L" glyph-name="L" horiz-adv-x="554" d="M275 674L113 25H407L440 156H472L433 0H-9L-3 24H75L237 674H159L165 698H359L353 674H275Z" />
<glyph unicode="M" glyph-name="M" horiz-adv-x="811" d="M860 674H782L620 24H698L692 0H498L504 24H582L739 658H735L606 490L389 205L312 490L266 656H262L105 24H183L177 0H-9L-3 24H75L237 674H159L165 698H291L406 276H410L731 698H866L860 674Z" />
<glyph unicode="N" glyph-name="N" horiz-adv-x="736" d="M-3 24H75L237 674H159L165 698H290L522 55H525L681 674H603L609 698H795L789 674H711L542 0H503L267 655H263L105 24H183L177 0H-9L-3 24Z" />
<glyph unicode="O" glyph-name="O" horiz-adv-x="683" d="M290 -12Q185 -12 130 48T74 220Q74 268 82 322T109 431T156 536T223 625T314 687T430 710Q535 710 590 650T646 478Q646 430 638 376T611 267T564 162T497 73T406 11T290 -12ZM293 14Q346 14 391 34T472
92T535 183T578 303Q588 342 593 371T602 422T606 459T607 488Q607 582 563 633T427 684Q374 684 329 664T248 606T185 515T142 395Q132 356 127 327T118 276T114 239T113 210Q113 116 157 65T293 14Z" />
<glyph unicode="P" glyph-name="P" horiz-adv-x="571" d="M456 698Q529 698 565 665T602 569Q602 528 589 486T547 409T476 352T372 330H189L113 24H211L205 0H-9L-3 24H75L237 674H159L165 698H456ZM196 355H372Q438 355 485 391T550 492Q554 509 559 531T564
573Q564 619 539 646T454 673H275L196 355Z" />
<glyph unicode="Q" glyph-name="Q" horiz-adv-x="683" d="M460 -173Q437 -173 420 -171T391 -162T369 -147T350 -125L272 -11Q175 -6 125 54T74 220Q74 268 82 322T109 431T156 536T223 625T314 687T430 710Q535 710 590 650T646 478Q646 432 638 379T613 273T570
171T506 82T421 18T313 -11L386 -111Q401 -131 420 -140T475 -149H487L481 -173H460ZM293 14Q346 14 391 34T472 92T535 183T578 303Q588 342 593 371T602 422T606 459T607 488Q607 582 563 633T427 684Q374 684 329 664T248 606T185 515T142 395Q132 356 127 327T118
276T114 239T113 210Q113 116 157 65T293 14Z" />
<glyph unicode="R" glyph-name="R" horiz-adv-x="624" d="M-3 24H75L237 674H159L165 698H456Q529 698 565 665T602 569Q602 526 589 485T549 411T483 357T391 332L459 71Q471 24 521 24H551L545 0H506Q468 0 449 15T420 68L354 330H189L113 24H191L185 0H-9L-3
24ZM372 355Q438 355 485 391T550 492Q554 509 559 531T564 573Q564 619 539 646T454 673H275L195 355H372Z" />
<glyph unicode="S" glyph-name="S" horiz-adv-x="564" d="M234 13Q282 13 321 27T389 65T432 124T447 199Q447 227 440 247T418 284T383 312T334 336L267 363Q209 386 178 424T146 522Q146 565 163 600T212 659T284 697T372 710Q400 710 426 705T473 689T509 663T530
626H534L552 698H584L534 496H502L518 562Q521 575 521 587Q521 611 510 629T478 660T430 679T372 685Q325 685 290 672T231 638T195 588T183 529Q183 475 211 445T291 393L357 367Q426 339 455 301T484 206Q484 161 468 122T419 52T341 5T236 -12Q207 -12 180
-7T130 10T93 37T71 74H67L48 0H16L69 212H101L83 138Q80 124 80 113Q80 64 124 39T234 13Z" />
<glyph unicode="T" glyph-name="T" horiz-adv-x="608" d="M129 24H227L389 673H177L145 545H113L151 698H678L639 545H607L639 673H427L265 24H363L357 0H123L129 24Z" />
<glyph unicode="U" glyph-name="U" horiz-adv-x="691" d="M265 674L162 260Q153 222 148 192T142 135Q142 78 177 46T290 13Q343 13 382 26T451 69T502 145T539 257L642 674H564L570 698H756L750 674H672L569 257Q550 180 525 128T465 45T387 1T288 -12Q199 -12
152 25T104 141Q104 168 110 199T125 265L227 674H149L155 698H349L343 674H265Z" />
<glyph unicode="V" glyph-name="V" horiz-adv-x="616" d="M649 674L265 0H222L174 674H119L125 698H313L307 674H212L238 305L255 41H258L407 305L616 674H521L527 698H710L704 674H649Z" />
<glyph unicode="W" glyph-name="W" horiz-adv-x="863" d="M171 674H116L122 698H308L302 674H207L202 45H205L517 698H565L562 45H565L861 674H766L772 698H955L949 674H894L571 0H527L530 656H527L212 0H167L171 674Z" />
<glyph unicode="X" glyph-name="X" horiz-adv-x="609" d="M353 24H438L323 330H319L52 24H137L131 0H-49L-43 24H17L310 356L188 674H128L134 698H317L311 674H226L338 379H342L603 674H518L524 698H704L698 674H638L350 354L476 24H536L530 0H347L353 24Z" />
<glyph unicode="Y" glyph-name="Y" horiz-adv-x="596" d="M124 24H222L286 285L179 674H124L130 698H319L313 674H218L315 315H317L592 674H497L503 698H687L681 674H626L324 285L260 24H358L352 0H118L124 24Z" />
<glyph unicode="Z" glyph-name="Z" horiz-adv-x="590" d="M-1 25L568 673H203L171 545H139L177 698H619L613 673L44 25H437L470 156H502L463 0H-7L-1 25Z" />
<glyph unicode="[" glyph-name="bracketleft" horiz-adv-x="274" d="M216 760H356L350 737H243L30 -115H136L130 -138H-8L216 760Z" />
<glyph unicode="\" glyph-name="backslash" horiz-adv-x="324" d="M178 -151L166 740H193L205 -151H178Z" />
<glyph unicode="]" glyph-name="bracketright" horiz-adv-x="274" d="M87 -138H-53L-47 -115H60L273 737H167L173 760H311L87 -138Z" />
<glyph unicode="^" glyph-name="asciicircum" horiz-adv-x="550" d="M494 320L377 670H373L85 320L63 335L364 698H396L519 330L494 320Z" />
<glyph unicode="_" glyph-name="underscore" horiz-adv-x="537" d="M-65 -119H416L410 -144H-71L-65 -119Z" />
<glyph unicode="`" glyph-name="grave" horiz-adv-x="600" d="M227 739L261 755L335 595L320 587L227 739Z" />
<glyph unicode="a" glyph-name="a" horiz-adv-x="516" d="M139 -12Q112 -12 95 -2T67 27T52 69T47 121Q47 187 63 257T113 386T194 482T305 520Q341 520 366 504T401 446H407L434 508H454L333 24L351 16L480 130L492 119L408 36Q379 7 364 -2T335 -12Q321 -12
310 -4T299 21Q299 34 304 54L344 209L338 211Q323 176 303 137T259 64T204 10T139 -12ZM312 494Q274 494 242 478T184 431T139 360T107 268Q96 225 91 188T86 121Q86 99 88 81T97 48T116 26T149 18Q168 18 190 29T235 67Q258 94 280 130T321 203T354 277T375 341L381
362Q398 429 379 461T312 494Z" />
<glyph unicode="b" glyph-name="b" horiz-adv-x="492" d="M186 -12Q150 -12 125 4T89 62H84L57 0H37L220 730H133L137 747L265 765L147 299L153 297Q168 333 188 372T233 444T287 498T351 520Q378 520 396 510T424 481T439 439T444 387Q444 321 428 251T378 122T297
26T186 -12ZM179 14Q216 14 248 30T306 76T351 147T384 240Q395 283 400 320T405 387Q405 409 403 427T394 460T375 482T342 490Q324 490 302 479T256 441Q233 414 212 379T171 307T138 234T116 168L111 149Q94 85 110 50T179 14Z" />
<glyph unicode="c" glyph-name="c" horiz-adv-x="406" d="M159 -12Q102 -12 76 23T49 131Q49 185 62 252T104 379T178 479T287 520Q336 520 365 497T394 442Q394 423 384 412T357 401Q342 401 334 409T325 430Q325 446 336 457T368 470V474Q357 485 338 491T289
498Q232 498 183 443T107 269Q102 249 95 210T88 129Q88 107 91 87T103 51T127 26T167 16Q212 16 256 56T339 168L356 161Q308 67 261 28T159 -12Z" />
<glyph unicode="d" glyph-name="d" horiz-adv-x="520" d="M139 -12Q112 -12 95 -2T67 27T52 69T47 121Q47 187 63 257T113 386T194 482T305 520Q342 520 366 504T399 450H404L473 730H386L390 747L518 765L333 24L351 16L480 130L492 119L408 36Q379 7 364 -2T335
-12Q321 -12 310 -4T299 21Q299 34 304 54L344 209L338 211Q323 176 303 137T259 64T204 10T139 -12ZM312 494Q274 494 242 478T184 431T139 360T107 268Q96 225 91 188T86 121Q86 99 88 81T97 48T116 26T149 18Q168 18 190 29T235 67Q258 94 280 130T321 203T354
277T375 341L381 362Q398 429 379 461T312 494Z" />
<glyph unicode="e" glyph-name="e" horiz-adv-x="432" d="M160 -12Q101 -12 75 24T49 132Q49 186 63 253T107 379T184 479T297 520Q316 520 335 516T370 500T394 472T404 427Q404 394 388 367T337 318T244 283T105 262Q99 231 94 198T88 130Q88 107 91 87T103
51T127 26T167 16Q215 16 263 55T351 168L368 161Q320 66 269 27T160 -12ZM110 278Q234 292 301 325T368 424Q368 452 353 475T295 498Q236 498 186 445T110 278Z" />
<glyph unicode="f" glyph-name="f" horiz-adv-x="289" d="M-66 -212Q-97 -212 -113 -199T-130 -166Q-130 -152 -121 -142T-97 -131Q-82 -131 -74 -140T-65 -161Q-65 -170 -70 -179T-86 -193L-85 -197H-74Q-29 -197 -3 -166T38 -75L177 484H79L85 508H183L214 634Q230
697 268 733T365 770Q396 770 412 757T429 724Q429 710 420 700T396 689Q381 689 373 698T364 719Q364 728 369 737T385 751L384 755H373Q324 755 294 722T250 633L219 508H343L337 484H213L74 -76Q58 -140 23 -176T-66 -212Z" />
<glyph unicode="g" glyph-name="g" horiz-adv-x="460" d="M214 190Q193 190 178 194Q169 193 155 190T128 178T106 158T96 129Q96 113 108 103T154 79L267 36Q314 18 342 -5T370 -71Q370 -109 349 -136T295 -180T221 -204T137 -212Q49 -212 3 -184T-44 -104Q-44
-73 -27 -50T16 -9T76 21T141 41L143 45L130 50Q98 62 80 78T62 120Q62 140 71 154T93 177T123 191T154 200V202Q124 217 109 247T94 318Q94 361 109 398T149 462T209 504T283 520Q312 520 333 511T371 484L388 532Q403 575 437 575Q452 575 460 567T469 545Q469
531 460 522T437 513Q426 513 419 520T411 540H407L379 473Q403 441 403 392Q403 349 388 312T348 248T288 206T214 190ZM165 38Q131 28 100 15T45 -16T7 -54T-8 -100Q-8 -123 3 -140T35 -168T83 -185T141 -191Q169 -191 203 -186T265 -167T313 -132T333 -77Q333
-41 310 -25T253 5L165 38ZM219 212Q243 212 265 221T305 247T336 285T355 331Q362 359 364 375T366 398Q366 446 346 472T278 498Q254 498 232 489T192 463T161 425T142 379Q135 351 133 335T131 312Q131 264 151 238T219 212Z" />
<glyph unicode="h" glyph-name="h" horiz-adv-x="529" d="M345 -12Q331 -12 320 -4T309 22Q309 33 314 53L412 421Q416 437 416 452Q416 490 376 490Q327 490 269 432Q246 409 222 378T177 310T140 237T115 164L74 0H38L220 730H133L137 747L265 765L145 290L151
288Q169 322 192 362T246 438T311 496T387 520Q422 520 437 503T453 457Q453 438 447 417L343 24L361 16L490 130L502 119L418 36Q389 8 374 -2T345 -12Z" />
<glyph unicode="i" glyph-name="i" horiz-adv-x="279" d="M96 -12Q83 -12 72 -4T61 22Q61 33 66 53L173 480H86L90 497L218 516L95 24L113 16L242 130L254 119L170 36Q141 7 126 -2T96 -12ZM238 662Q224 662 217 670T209 688Q209 697 213 706Q217 714 225 720T246
726Q260 726 267 718T275 700Q275 691 271 682Q267 674 259 668T238 662Z" />
<glyph unicode="j" glyph-name="j" horiz-adv-x="252" d="M-66 -212Q-95 -212 -112 -199T-129 -166Q-129 -152 -120 -142T-95 -132Q-80 -132 -72 -141T-64 -162Q-64 -171 -69 -180T-85 -194L-84 -198H-72Q-30 -197 -6 -166T34 -75L173 480H86L90 497L218 516L70
-76Q54 -140 21 -176T-66 -212ZM238 662Q224 662 217 670T209 688Q209 697 213 706Q217 714 225 720T246 726Q260 726 267 718T275 700Q275 691 271 682Q267 674 259 668T238 662Z" />
<glyph unicode="k" glyph-name="k" horiz-adv-x="503" d="M321 -12Q311 -12 303 -7T288 14L196 219Q305 274 360 336T416 449Q416 490 374 490Q324 490 264 427Q241 404 218 373T175 307T138 235T114 164L73 0H37L220 730H133L137 747L265 765L144 290L150 288Q168
323 192 363T245 439T310 497T386 520Q421 520 436 503T452 455Q452 416 428 379T370 311T299 256T234 220L325 22H341L464 129L475 119L391 35Q363 6 349 -3T321 -12Z" />
<glyph unicode="l" glyph-name="l" horiz-adv-x="267" d="M81 -12Q67 -12 57 -4T46 22Q46 33 51 53L220 730H133L137 747L265 765L80 24L98 16L227 130L239 119L155 36Q126 7 111 -2T81 -12Z" />
<glyph unicode="m" glyph-name="m" horiz-adv-x="812" d="M173 480H86L90 497L218 516L160 290L166 288Q184 322 207 362T260 438T325 496T401 520Q436 520 451 502T466 454Q466 433 460 412L428 290L434 288Q451 321 475 361T529 437T594 496T670 520Q706 520
721 503T736 457Q736 439 730 417L626 24L644 16L773 130L785 119L701 36Q672 7 657 -2T628 -12Q614 -12 603 -4T592 22Q592 33 597 53L695 421Q699 438 699 452Q699 490 659 490Q610 490 552 432Q529 409 505 378T460 311T423 237T398 164L357 0H321L426 420Q430
436 430 451Q430 490 391 490Q342 490 284 432Q261 409 237 378T192 310T155 237T130 164L89 0H53L173 480Z" />
<glyph unicode="n" glyph-name="n" horiz-adv-x="544" d="M173 480H86L90 497L218 516L160 290L166 288Q184 322 207 362T261 438T326 496T402 520Q437 520 452 503T468 457Q468 438 462 417L358 24L376 16L505 130L517 119L432 35Q403 6 388 -3T359 -12Q345 -12
335 -4T324 22Q324 33 329 53L427 421Q431 438 431 452Q431 490 391 490Q342 490 284 432Q261 409 237 378T192 310T155 237T130 164L89 0H53L173 480Z" />
<glyph unicode="o" glyph-name="o" horiz-adv-x="471" d="M180 -12Q109 -12 78 33T47 154Q47 219 65 284T115 402T192 487T291 520Q362 520 393 475T424 354Q424 289 406 224T356 106T279 21T180 -12ZM181 11Q217 11 247 29T300 79T340 152T368 240Q374 265 378
283T384 316T386 342T387 364Q387 394 383 418T367 460T337 487T290 497Q254 497 224 479T171 429T131 356T103 268Q97 242 93 224T87 192T85 166T84 144Q84 114 88 90T104 48T134 21T181 11Z" />
<glyph unicode="p" glyph-name="p" horiz-adv-x="507" d="M8 -177L173 480H86L90 497L218 516L162 299L168 297Q183 332 203 371T247 444T302 498T367 520Q394 520 411 510T439 481T454 439T459 387Q459 321 443 251T393 122T312 26T201 -12Q164 -12 140 4T108
59H102L44 -177H140L135 -200H-70L-65 -177H8ZM194 14Q231 14 263 30T321 76T366 147T399 240Q410 283 415 320T420 387Q420 409 418 427T409 460T390 482T357 490Q339 490 317 479T271 441Q248 414 227 379T186 307T153 234T131 168L126 149Q109 85 125 50T194
14Z" />
<glyph unicode="q" glyph-name="q" horiz-adv-x="494" d="M150 -177H246L344 209L338 211Q323 176 303 137T259 64T204 10T139 -12Q112 -12 95 -2T67 27T52 69T47 121Q47 187 63 257T113 386T194 482T305 520Q341 520 366 504T401 446H407L434 508H454L282 -177H355L350
-200H145L150 -177ZM312 494Q274 494 242 478T184 431T139 360T107 268Q96 225 91 188T86 121Q86 99 88 81T97 48T116 26T149 18Q168 18 190 29T235 67Q258 94 280 130T321 203T354 277T375 341L381 362Q398 429 379 461T312 494Z" />
<glyph unicode="r" glyph-name="r" horiz-adv-x="389" d="M173 480H86L90 497L218 516L163 301L169 300Q184 334 203 373T245 444T297 498T360 520Q388 520 402 508T417 476Q417 459 407 448T381 437Q367 437 359 446T350 467Q350 478 356 486T370 500L368 503H357Q336
503 312 483T260 428Q246 410 227 379T189 309T154 231T128 155L89 0H53L173 480Z" />
<glyph unicode="s" glyph-name="s" horiz-adv-x="353" d="M95 -12Q53 -12 31 2T9 39Q9 53 18 62T42 72Q56 72 64 64T73 43Q73 33 67 25T53 11L54 7Q64 4 84 4Q108 4 134 10T183 29T219 66T233 123Q233 141 230 155T218 184T195 214T161 251Q130 283 113 310T96
375Q96 409 109 436T144 482T197 510T262 520Q304 520 326 506T348 469Q348 455 339 446T314 436Q300 436 292 444T284 466Q284 475 289 483T303 497L302 501Q297 503 290 503T275 504Q250 504 225 498T179 479T145 442T132 385Q132 367 135 353T147 325T170 295T204
257Q236 225 252 198T269 133Q269 99 255 72T218 27T163 -2T95 -12Z" />
<glyph unicode="t" glyph-name="t" horiz-adv-x="326" d="M92 508H129Q155 508 168 516T189 546L228 650H246L211 508H348L342 484H205L90 25L108 16L266 122L276 109L161 24Q131 1 118 -5T91 -12Q77 -12 67 -4T56 22Q56 33 61 53L169 484H86L92 508Z" />
<glyph unicode="u" glyph-name="u" horiz-adv-x="538" d="M128 -12Q92 -12 77 6T62 52Q62 69 68 92L172 480H85L89 497L217 516L103 87Q99 71 99 57Q99 18 139 18Q188 18 246 76Q270 99 293 131T338 198T375 271T400 344L441 508H477L356 24L374 16L503 130L515
119L431 36Q402 7 387 -2T358 -12Q344 -12 333 -4T322 21Q322 28 324 37T328 56L370 218L364 220Q347 187 324 147T270 71T204 12T128 -12Z" />
<glyph unicode="v" glyph-name="v" horiz-adv-x="442" d="M169 43L421 484H351L358 508H502L496 484H451L168 0H135L94 484H49L55 508H206L200 484H130L164 43H169Z" />
<glyph unicode="w" glyph-name="w" horiz-adv-x="654" d="M365 465L145 0H107V484H62L69 508H218L211 484H141L138 45H143L365 512H400L397 45H401L617 484H547L553 508H698L692 484H647L401 0H366L370 465H365Z" />
<glyph unicode="x" glyph-name="x" horiz-adv-x="532" d="M331 21H349L468 124L479 114L399 36Q370 7 357 -2T330 -12Q302 -12 297 14L258 221H253Q237 186 212 139T154 54Q129 24 101 6T41 -12Q14 -12 -2 0T-18 33Q-18 50 -8 60T17 71Q31 71 39 62T48 41Q48 29
42 21T28 9L29 5H40Q85 5 137 63T250 251L201 487H183L64 384L53 394L133 472Q162 501 175 510T202 520Q215 520 224 514T235 494L274 287H279Q295 322 320 369T378 454Q403 484 431 502T491 520Q518 520 534 508T550 475Q550 458 540 448T515 437Q501 437 493
446T484 467Q484 479 490 487T504 499L503 503H492Q447 503 395 445T282 257L331 21Z" />
<glyph unicode="y" glyph-name="y" horiz-adv-x="443" d="M-51 -212Q-79 -212 -95 -199T-112 -166Q-112 -151 -103 -141T-77 -130Q-61 -130 -53 -138T-45 -161Q-45 -183 -65 -192L-64 -196H-59Q-10 -196 27 -166T99 -75L135 -11L94 484H49L55 508H206L200 484H130L164
40H170L423 484H353L359 508H504L497 484H452L120 -86Q82 -152 41 -182T-51 -212Z" />
<glyph unicode="z" glyph-name="z" horiz-adv-x="467" d="M13 42Q17 59 25 68T45 89L404 441L161 489L145 481L103 345L88 348L119 481Q124 502 135 511T170 520Q196 520 261 503T419 462L430 508H456L446 466Q441 450 434 441T415 420L55 67L334 19L350 27L392
163L407 160L376 27Q371 6 360 -3T324 -12Q310 -12 283 -8T219 5T137 23T40 46L29 0H3L13 42Z" />
<glyph unicode="{" glyph-name="braceleft" horiz-adv-x="304" d="M47 333Q92 333 123 353T166 422L242 728Q246 745 255 752T285 760H382L376 737H277L199 425Q187 374 154 347T72 318L68 304Q103 300 124 279T145 224Q145 212 141 195L64 -115H163L157 -138H63Q33
-138 33 -115Q33 -111 35 -101T41 -79L111 202Q115 218 115 229Q115 260 93 274T35 288L47 333Z" />
<glyph unicode="|" glyph-name="bar" horiz-adv-x="322" d="M49 -138L273 760H301L77 -138H49Z" />
<glyph unicode="}" glyph-name="braceright" horiz-adv-x="305" d="M287 289Q242 289 211 269T168 200L92 -106Q88 -123 79 -130T49 -138H-48L-42 -115H57L135 197Q147 248 180 275T262 304L266 318Q231 322 210 343T189 398Q189 410 193 427L270 737H171L177
760H271Q301 760 301 737Q301 733 299 723T293 701L223 420Q219 404 219 393Q219 362 241 348T299 334L287 289Z" />
<glyph unicode="~" glyph-name="asciitilde" horiz-adv-x="550" d="M403 254Q390 254 378 256T352 262T320 274T279 293Q258 303 243 310T216 321T192 327T167 329Q140 329 118 321T70 289L56 307Q82 333 109 344T169 355Q182 355 194 353T220 347T252 335T293
316Q314 306 329 299T356 288T380 282T405 280Q432 280 454 288T502 320L516 302Q490 276 463 265T403 254Z" />
<glyph unicode="&#xa0;" glyph-name="uni00A0" horiz-adv-x="212" />
<glyph unicode="&#xa1;" glyph-name="exclamdown" horiz-adv-x="242" d="M131 330H149L94 74L29 -190H-8L57 74L131 330ZM170 440Q154 440 146 449T138 469Q138 478 142 489Q146 500 156 507T180 515Q196 515 204 506T212 486Q212 477 208 466Q204 455 194 448T170 440Z" />
<glyph unicode="&#xa2;" glyph-name="cent" horiz-adv-x="409" d="M144 -11Q94 -6 72 29T49 131Q49 166 54 208T72 292T102 375T145 446T202 497T276 520L302 622H328L302 519Q345 515 369 494T394 442Q394 423 384 412T357 401Q342 401 334 409T325 430Q325 446
336 457T368 470V474Q357 484 340 490T296 498L176 16Q219 21 260 60T339 168L356 161Q310 72 265 32T169 -12L143 -114H118L144 -11ZM88 129Q88 88 100 56T151 17L271 497Q219 489 175 434T107 269Q102 249 95 210T88 129Z" />
<glyph unicode="&#xa3;" glyph-name="sterling" horiz-adv-x="543" d="M72 336H155Q153 370 150 405T147 473Q147 522 161 565T203 641T274 691T373 710Q406 710 434 702T484 681T518 649T530 610Q530 590 520 578T493 565Q478 565 469 574T460 599Q460 633 500
641V644Q481 661 450 672T371 684Q321 684 286 667T229 622T197 556T186 478Q186 448 189 410T194 336H385L379 311H194V295Q192 197 149 135T35 32V29H389L420 152H452L414 0H-1L8 35Q37 53 64 76T111 131T144 201T157 288Q157 293 157 299T156 311H66L72 336Z"
/>
<glyph unicode="&#xa5;" glyph-name="yen" horiz-adv-x="595" d="M133 344H291L185 674H130L136 698H325L319 674H224L324 353H327L588 674H493L499 698H683L677 674H622L350 344H508L502 320H333L300 189H469L463 165H294L260 24H358L352 0H119L125 24H223L257
165H88L94 189H263L296 320H127L133 344Z" />
<glyph unicode="&#xa6;" glyph-name="brokenbar" horiz-adv-x="322" d="M186 409L274 760H302L214 409H186ZM50 -138L137 213H165L78 -138H50Z" />
<glyph unicode="&#xa7;" glyph-name="section" horiz-adv-x="512" d="M156 -154Q108 -154 77 -135T46 -84Q46 -67 56 -56T81 -45Q95 -45 103 -53T112 -75Q112 -90 102 -99T77 -111V-116Q100 -134 150 -134Q181 -134 207 -125T253 -100T282 -60T293 -8Q293 25 277
48T233 100L168 165Q135 198 110 231T85 309Q85 366 124 405T229 460V466Q211 488 202 510T192 558Q192 592 205 620T242 668T297 699T364 710Q412 710 443 691T474 640Q474 623 464 612T439 601Q425 601 417 609T408 631Q408 646 418 655T443 667V672Q420 690
370 690Q339 690 313 681T267 656T238 616T227 564Q227 531 243 508T287 456L352 391Q385 358 410 325T435 247Q435 190 396 151T291 96V90Q309 68 318 46T328 -2Q328 -37 315 -65T278 -112T223 -143T156 -154ZM276 107Q333 123 366 156T399 241Q399 281 378 310T331
363L266 428Q260 434 255 439T244 449Q187 433 154 400T121 315Q121 295 127 278T142 246T164 218T189 193L254 128Q260 122 265 117T276 107Z" />
<glyph unicode="&#xa8;" glyph-name="dieresis" horiz-adv-x="600" d="M235 636Q221 636 215 644T209 662Q209 668 212 676Q215 684 223 690T243 697Q257 697 263 689T269 671Q269 664 266 657Q263 649 255 643T235 636ZM416 636Q402 636 396 644T390 662Q390
668 393 676Q396 684 404 690T424 697Q438 697 444 689T450 671Q450 664 447 657Q444 649 436 643T416 636Z" />
<glyph unicode="&#xa9;" glyph-name="copyright" horiz-adv-x="743" d="M318 -12Q258 -12 212 6T135 59T88 141T72 249Q72 324 97 405T171 554T293 666T464 710Q524 710 570 692T647 639T694 557T710 449Q710 374 685 293T611 144T489 32T318 -12ZM323 9Q388 9
443 32T543 99T619 204T668 339Q677 379 680 406T684 452Q684 563 626 626T459 689Q394 689 339 666T239 599T163 494T114 359Q105 319 102 292T98 246Q98 135 156 72T323 9ZM330 151Q251 151 251 257Q251 296 261 345T295 438T353 512T439 542Q476 542 496 524T517
482Q517 468 509 459T488 450Q477 450 471 456T464 474Q464 485 472 493T496 504V507Q487 515 475 519T443 523Q395 523 358 486T299 360Q290 320 287 298T283 255Q283 239 285 225T294 199T310 182T338 175Q370 175 405 202T471 284L482 278Q446 207 408 179T330
151Z" />
<glyph unicode="&#xaa;" glyph-name="ordfeminine" horiz-adv-x="363" d="M145 352Q115 352 101 369T86 410Q86 463 142 499T305 545L312 578Q315 590 318 605T321 631Q321 687 254 687Q212 687 182 669V666Q200 660 200 643Q200 618 175 618Q152 618 152 642Q152
664 181 684T261 704Q307 704 329 685T351 631Q351 618 349 606T343 582L290 376L299 371L388 452L396 444L329 376Q315 361 306 357T287 352Q275 352 269 358T263 375Q263 385 267 398L287 465L282 466Q273 446 259 426T226 389T188 362T145 352ZM153 371Q175
371 199 387T244 426T280 474T299 519L301 529Q207 519 161 487T115 413Q115 395 124 383T153 371Z" />
<glyph unicode="&#xab;" glyph-name="guillemotleft" horiz-adv-x="458" d="M185 100L52 279L57 304L280 483L288 467L91 287L199 113L185 100ZM368 100L235 279L240 304L463 483L471 467L274 287L382 113L368 100Z" />
<glyph unicode="&#xac;" glyph-name="logicalnot" horiz-adv-x="550" d="M424 98L473 293H53L59 318H508L453 98H424Z" />
<glyph unicode="&#xad;" glyph-name="uni00AD" horiz-adv-x="352" d="M75 290L82 320H302L295 290H75Z" />
<glyph unicode="&#xae;" glyph-name="registered" horiz-adv-x="462" d="M256 298Q184 298 138 339T91 459Q91 509 107 554T154 634T227 689T322 710Q394 710 440 669T487 549Q487 499 471 454T424 374T351 319T256 298ZM257 316Q287 316 317 326T375 356T423
409T456 485Q461 504 463 522T465 552Q465 588 454 614T423 657T377 683T321 692Q291 692 261 682T203 652T155 599T122 523Q117 504 115 486T113 456Q113 420 124 394T155 351T201 325T257 316ZM375 567Q375 538 358 519T307 495L328 428Q333 412 355 412H361L358
398H342Q327 398 320 404T307 426L286 494H246L225 412H250L246 398H177L180 412H204L250 596H227L230 610H322Q348 610 361 598T375 567ZM298 509Q336 509 347 543Q350 552 351 558T352 569Q352 580 344 587T318 595H271L250 509H298Z" />
<glyph unicode="&#xaf;" glyph-name="overscore" horiz-adv-x="600" d="M206 682H464L457 655H199L206 682Z" />
<glyph unicode="&#xb0;" glyph-name="degree" horiz-adv-x="460" d="M279 372Q249 372 223 382T178 412T148 459T137 520Q137 560 150 594T187 654T244 695T317 710Q347 710 373 700T418 670T448 623T459 562Q459 522 446 488T409 428T352 387T279 372ZM283 397Q316
397 343 410T389 445T420 498T431 563Q431 619 398 652T313 685Q280 685 253 672T207 637T176 584T165 519Q165 463 198 430T283 397Z" />
<glyph unicode="&#xb1;" glyph-name="plusminus" horiz-adv-x="550" d="M285 354H68L74 379H291L348 606H377L320 379H537L531 354H314L257 127H228L285 354ZM-14 25H449L443 0H-20L-14 25Z" />
<glyph unicode="&#xb2;" glyph-name="twosuperior" horiz-adv-x="339" d="M69 355L219 468Q264 503 289 531T324 590Q329 608 329 626Q329 684 251 684Q227 684 206 679T167 663V660Q190 653 190 633Q190 620 182 613T163 605Q151 605 144 612T136 632Q136 644
145 657T169 680T207 697T257 704Q307 704 333 683T360 627Q360 579 326 537T234 453L96 356L95 353H292L308 416H332L311 329H62L69 355Z" />
<glyph unicode="&#xb3;" glyph-name="threesuperior" horiz-adv-x="342" d="M182 323Q131 323 104 343T76 387Q76 402 84 412T107 422Q118 422 125 416T132 398Q132 387 124 378T101 366L100 364Q115 352 136 348T177 343Q197 343 217 348T253 362T281 387T298
423Q300 430 301 439T302 455Q302 481 281 496T218 511H181L186 531H221Q272 531 298 550T333 602Q335 607 336 613T337 627Q337 684 259 684Q208 684 175 663V660Q197 653 197 633Q197 621 190 613T170 605Q158 605 151 612T143 633Q143 645 152 658T177 681T215
697T265 704Q314 704 340 684T367 629Q367 605 359 587T337 555T306 533T271 522L270 519Q297 514 314 497T332 453Q332 424 320 400T288 359T240 333T182 323Z" />
<glyph unicode="&#xb4;" glyph-name="acute" horiz-adv-x="600" d="M295 587L281 596L402 755L432 737L295 587Z" />
<glyph unicode="&#xb5;" glyph-name="mu" horiz-adv-x="538" d="M172 480H85L89 497L217 516L103 87Q99 71 99 57Q99 18 139 18Q188 18 246 76Q270 99 293 131T338 198T375 271T400 344L441 508H477L356 24L374 16L503 130L515 119L431 36Q402 7 387 -2T357 -12Q343
-12 333 -4T322 21Q322 28 324 37T328 56L370 218L364 220Q346 184 322 143T267 68T203 11T129 -12Q103 -12 91 0T74 38H70L59 -70L27 -200H-10L172 480Z" />
<glyph unicode="&#xb6;" glyph-name="paragraph" horiz-adv-x="559" d="M124 473Q124 523 143 564T198 635T283 681T393 698H614L608 674H530L368 23Q346 -65 302 -108T184 -152Q127 -152 90 -127T52 -60Q52 -40 62 -29T88 -17Q103 -17 111 -25T119 -47Q119 -62
109 -73T79 -86L78 -90Q110 -131 185 -131H190L303 324Q264 324 231 333T175 362T138 409T124 473ZM216 -128Q310 -109 343 23L505 674H416L216 -128Z" />
<glyph unicode="&#xb7;" glyph-name="middot" horiz-adv-x="229" d="M121 268Q105 268 97 277T89 297Q89 306 93 317Q97 328 107 335T131 343Q147 343 155 334T163 314Q163 305 159 294Q155 283 145 276T121 268Z" />
<glyph unicode="&#xb8;" glyph-name="cedilla" horiz-adv-x="600" d="M260 -203Q231 -203 213 -192T188 -168L200 -157Q216 -183 259 -183Q277 -183 291 -177T314 -162T328 -141T333 -120Q333 -102 321 -94T281 -83L249 -82L291 4H314L278 -70L279 -72Q295 -69
311 -69Q336 -69 350 -82T365 -117Q365 -152 335 -177T260 -203Z" />
<glyph unicode="&#xb9;" glyph-name="onesuperior" horiz-adv-x="351" d="M82 350H200L279 669L143 614L138 632L292 698H316L230 350H336L331 329H77L82 350Z" />
<glyph unicode="&#xba;" glyph-name="ordmasculine" horiz-adv-x="360" d="M390 584Q390 539 377 498T341 424T284 372T211 352Q157 352 131 383T105 472Q105 517 118 558T154 632T211 684T284 704Q338 704 364 673T390 584ZM149 557Q140 521 137 500T133 462Q133
421 152 396T212 370Q237 370 258 380T297 407T327 448T346 499Q355 535 358 556T362 594Q362 635 343 660T283 686Q258 686 236 676T197 649T168 608T149 557Z" />
<glyph unicode="&#xbb;" glyph-name="guillemotright" horiz-adv-x="457" d="M204 297L96 471L110 484L243 305L238 280L15 101L7 117L204 297ZM387 297L279 471L293 484L426 305L421 280L198 101L190 117L387 297Z" />
<glyph unicode="&#xbc;" glyph-name="onequarter" horiz-adv-x="837" d="M82 350H200L279 669L143 614L138 632L292 698H316L230 350H336L331 329H77L82 350ZM755 698H786L196 0H165L755 698ZM666 85H472L477 108L734 369H766L701 107H763L757 85H695L674 0H645L666
85ZM501 107H672L728 333H724L501 107Z" />
<glyph unicode="&#xbd;" glyph-name="onehalf" horiz-adv-x="860" d="M82 350H200L279 669L143 614L138 632L292 698H316L230 350H336L331 329H77L82 350ZM755 698H786L196 0H165L755 698ZM507 26L657 139Q702 174 727 202T762 261Q767 279 767 297Q767 355 689
355Q665 355 644 350T605 334V331Q628 324 628 304Q628 291 620 284T601 276Q589 276 582 283T574 303Q574 315 583 328T607 351T645 368T695 375Q745 375 771 354T798 298Q798 250 764 208T672 124L534 27L533 24H730L746 87H770L749 0H500L507 26Z" />
<glyph unicode="&#xbe;" glyph-name="threequarters" horiz-adv-x="788" d="M182 323Q131 323 104 343T76 387Q76 402 84 412T107 422Q118 422 125 416T132 398Q132 387 124 378T101 366L100 364Q115 352 136 348T177 343Q197 343 217 348T253 362T281 387T298
423Q300 430 301 439T302 455Q302 481 281 496T218 511H181L186 531H221Q272 531 298 550T333 602Q335 607 336 613T337 627Q337 684 259 684Q208 684 175 663V660Q197 653 197 633Q197 621 190 613T170 605Q158 605 151 612T143 633Q143 645 152 658T177 681T215
697T265 704Q314 704 340 684T367 629Q367 605 359 587T337 555T306 533T271 522L270 519Q297 514 314 497T332 453Q332 424 320 400T288 359T240 333T182 323ZM706 698H737L147 0H116L706 698ZM617 85H423L428 108L685 369H717L652 107H714L708 85H646L625 0H596L617
85ZM452 107H623L679 333H675L452 107Z" />
<glyph unicode="&#xbf;" glyph-name="questiondown" horiz-adv-x="479" d="M158 -202Q81 -202 44 -165T7 -71Q7 -23 25 19T76 94T155 148T258 176L295 324H321L279 154Q192 147 135 105T60 3Q53 -21 50 -39T46 -72Q46 -123 78 -150T165 -177Q207 -177 242 -165T298
-134V-130Q269 -124 269 -95Q269 -81 278 -70T305 -58Q322 -58 330 -68T339 -92Q339 -113 324 -133T284 -168T226 -192T158 -202ZM340 440Q324 440 316 449T308 469Q308 478 312 489Q316 500 326 507T350 515Q366 515 374 506T382 486Q382 477 378 466Q374 455
364 448T340 440Z" />
<glyph unicode="&#xc0;" glyph-name="Agrave" horiz-adv-x="649" d="M-46 0L-40 24H15L413 698H457L518 24H573L567 0H380L386 24H480L462 233H171L49 24H143L137 0H-46ZM422 662L184 258H460L425 662H422ZM359 919L393 935L467 775L452 767L359 919Z" />
<glyph unicode="&#xc1;" glyph-name="Aacute" horiz-adv-x="649" d="M-46 0L-40 24H15L413 698H457L518 24H573L567 0H380L386 24H480L462 233H171L49 24H143L137 0H-46ZM422 662L184 258H460L425 662H422ZM439 767L425 776L546 935L576 917L439 767Z" />
<glyph unicode="&#xc2;" glyph-name="Acircumflex" horiz-adv-x="649" d="M-46 0L-40 24H15L413 698H457L518 24H573L567 0H380L386 24H480L462 233H171L49 24H143L137 0H-46ZM422 662L184 258H460L425 662H422ZM507 925L597 787L583 778L486 894L335 778L323
789L474 925H507Z" />
<glyph unicode="&#xc3;" glyph-name="Atilde" horiz-adv-x="649" d="M-46 0L-40 24H15L413 698H457L518 24H573L567 0H380L386 24H480L462 233H171L49 24H143L137 0H-46ZM422 662L184 258H460L425 662H422ZM532 803Q512 803 496 810T458 832Q438 846 424 852T394
859Q361 859 326 827L315 839Q337 859 357 872T400 885Q420 885 436 878T474 856Q494 842 508 836T538 829Q571 829 606 861L617 849Q595 829 575 816T532 803Z" />
<glyph unicode="&#xc4;" glyph-name="Adieresis" horiz-adv-x="649" d="M-46 0L-40 24H15L413 698H457L518 24H573L567 0H380L386 24H480L462 233H171L49 24H143L137 0H-46ZM422 662L184 258H460L425 662H422ZM377 812Q363 812 357 820T351 838Q351 844 354 852Q357
860 365 866T385 873Q399 873 405 865T411 847Q411 840 408 833Q405 825 397 819T377 812ZM558 812Q544 812 538 820T532 838Q532 844 535 852Q538 860 546 866T566 873Q580 873 586 865T592 847Q592 840 589 833Q586 825 578 819T558 812Z" />
<glyph unicode="&#xc5;" glyph-name="Aring" horiz-adv-x="649" d="M-46 0L-40 24H15L413 698H457L518 24H573L567 0H380L386 24H480L462 233H171L49 24H143L137 0H-46ZM422 662L184 258H460L425 662H422ZM460 764Q423 764 401 784T379 837Q379 862 387 884T411
922T448 947T494 957Q531 957 553 937T575 884Q575 859 567 837T543 799T506 774T460 764ZM463 785Q492 785 514 803T542 850Q544 861 546 870T548 886Q548 909 533 922T491 936Q462 936 440 918T412 871Q410 860 408 851T406 835Q406 812 421 799T463 785Z" />
<glyph unicode="&#xc6;" glyph-name="AE" horiz-adv-x="915" d="M-46 0L-40 24H15L527 674H436L442 698H950L912 545H880L912 673H606L532 378H760L781 463H809L760 269H732L754 353H526L444 25H769L802 156H834L795 0H322L328 24H406L458 233H214L49 24H143L137
0H-46ZM464 258L568 674H560L232 258H464Z" />
<glyph unicode="&#xc7;" glyph-name="Ccedilla" horiz-adv-x="602" d="M246 -203Q217 -203 199 -192T174 -168L186 -157Q202 -183 245 -183Q263 -183 277 -177T300 -162T314 -141T319 -120Q319 -102 307 -94T267 -83L235 -82L269 -12Q178 -8 126 47T74 217Q74
267 83 323T110 434T156 539T224 627T312 687T424 710Q483 710 524 688T578 625H582L600 698H632L581 493H549L566 562Q569 575 569 585Q569 609 558 627T528 659T483 678T427 685Q374 685 329 665T248 607T186 516T143 397Q133 357 127 328T118 277T114 240T113
212Q113 13 291 13Q364 13 416 53T507 156L527 145Q510 115 487 87T435 38T371 3T292 -12L264 -70L265 -72Q281 -69 297 -69Q322 -69 336 -82T351 -117Q351 -152 321 -177T246 -203Z" />
<glyph unicode="&#xc8;" glyph-name="Egrave" horiz-adv-x="585" d="M423 353H195L113 25H438L471 156H503L464 0H-9L-3 24H75L237 674H159L165 698H619L581 545H549L581 673H275L201 378H429L450 463H478L429 269H401L423 353ZM327 919L361 935L435 775L420 767L327
919Z" />
<glyph unicode="&#xc9;" glyph-name="Eacute" horiz-adv-x="585" d="M423 353H195L113 25H438L471 156H503L464 0H-9L-3 24H75L237 674H159L165 698H619L581 545H549L581 673H275L201 378H429L450 463H478L429 269H401L423 353ZM407 767L393 776L514 935L544 917L407
767Z" />
<glyph unicode="&#xca;" glyph-name="Ecircumflex" horiz-adv-x="585" d="M423 353H195L113 25H438L471 156H503L464 0H-9L-3 24H75L237 674H159L165 698H619L581 545H549L581 673H275L201 378H429L450 463H478L429 269H401L423 353ZM475 925L565 787L551 778L454
894L303 778L291 789L442 925H475Z" />
<glyph unicode="&#xcb;" glyph-name="Edieresis" horiz-adv-x="585" d="M423 353H195L113 25H438L471 156H503L464 0H-9L-3 24H75L237 674H159L165 698H619L581 545H549L581 673H275L201 378H429L450 463H478L429 269H401L423 353ZM345 812Q331 812 325 820T319
838Q319 844 322 852Q325 860 333 866T353 873Q367 873 373 865T379 847Q379 840 376 833Q373 825 365 819T345 812ZM526 812Q512 812 506 820T500 838Q500 844 503 852Q506 860 514 866T534 873Q548 873 554 865T560 847Q560 840 557 833Q554 825 546 819T526
812Z" />
<glyph unicode="&#xcc;" glyph-name="Igrave" horiz-adv-x="304" d="M-9 0L-3 24H75L237 674H159L165 698H359L353 674H275L113 24H191L185 0H-9ZM443 919L477 935L551 775L536 767L443 919Z" />
<glyph unicode="&#xcd;" glyph-name="Iacute" horiz-adv-x="304" d="M-9 0L-3 24H75L237 674H159L165 698H359L353 674H275L113 24H191L185 0H-9ZM523 767L509 776L630 935L660 917L523 767Z" />
<glyph unicode="&#xce;" glyph-name="Icircumflex" horiz-adv-x="304" d="M-9 0L-3 24H75L237 674H159L165 698H359L353 674H275L113 24H191L185 0H-9ZM591 925L681 787L667 778L570 894L419 778L407 789L558 925H591Z" />
<glyph unicode="&#xcf;" glyph-name="Idieresis" horiz-adv-x="304" d="M-9 0L-3 24H75L237 674H159L165 698H359L353 674H275L113 24H191L185 0H-9ZM461 812Q447 812 441 820T435 838Q435 844 438 852Q441 860 449 866T469 873Q483 873 489 865T495 847Q495 840
492 833Q489 825 481 819T461 812ZM642 812Q628 812 622 820T616 838Q616 844 619 852Q622 860 630 866T650 873Q664 873 670 865T676 847Q676 840 673 833Q670 825 662 819T642 812Z" />
<glyph unicode="&#xd0;" glyph-name="Eth" horiz-adv-x="672" d="M-3 24H75L154 339H60L66 363H160L237 674H159L165 698H413Q464 698 505 685T576 645T621 577T637 478Q637 430 629 376T602 268T554 167T485 81T393 22T275 0H-9L-3 24ZM273 25Q324 25 370 44T455
99T523 186T569 301Q579 341 585 370T594 420T597 457T598 485Q598 673 410 673H275L198 363H354L348 339H192L113 25H273Z" />
<glyph unicode="&#xd1;" glyph-name="Ntilde" horiz-adv-x="736" d="M-3 24H75L237 674H159L165 698H290L522 55H525L681 674H603L609 698H795L789 674H711L542 0H503L267 655H263L105 24H183L177 0H-9L-3 24ZM575 803Q555 803 539 810T501 832Q481 846 467 852T437
859Q404 859 369 827L358 839Q380 859 400 872T443 885Q463 885 479 878T517 856Q537 842 551 836T581 829Q614 829 649 861L660 849Q638 829 618 816T575 803Z" />
<glyph unicode="&#xd2;" glyph-name="Ograve" horiz-adv-x="683" d="M290 -12Q185 -12 130 48T74 220Q74 268 82 322T109 431T156 536T223 625T314 687T430 710Q535 710 590 650T646 478Q646 430 638 376T611 267T564 162T497 73T406 11T290 -12ZM293 14Q346 14
391 34T472 92T535 183T578 303Q588 342 593 371T602 422T606 459T607 488Q607 582 563 633T427 684Q374 684 329 664T248 606T185 515T142 395Q132 356 127 327T118 276T114 239T113 210Q113 116 157 65T293 14ZM360 919L394 935L468 775L453 767L360 919Z" />
<glyph unicode="&#xd3;" glyph-name="Oacute" horiz-adv-x="683" d="M290 -12Q185 -12 130 48T74 220Q74 268 82 322T109 431T156 536T223 625T314 687T430 710Q535 710 590 650T646 478Q646 430 638 376T611 267T564 162T497 73T406 11T290 -12ZM293 14Q346 14
391 34T472 92T535 183T578 303Q588 342 593 371T602 422T606 459T607 488Q607 582 563 633T427 684Q374 684 329 664T248 606T185 515T142 395Q132 356 127 327T118 276T114 239T113 210Q113 116 157 65T293 14ZM440 767L426 776L547 935L577 917L440 767Z" />
<glyph unicode="&#xd4;" glyph-name="Ocircumflex" horiz-adv-x="683" d="M290 -12Q185 -12 130 48T74 220Q74 268 82 322T109 431T156 536T223 625T314 687T430 710Q535 710 590 650T646 478Q646 430 638 376T611 267T564 162T497 73T406 11T290 -12ZM293 14Q346
14 391 34T472 92T535 183T578 303Q588 342 593 371T602 422T606 459T607 488Q607 582 563 633T427 684Q374 684 329 664T248 606T185 515T142 395Q132 356 127 327T118 276T114 239T113 210Q113 116 157 65T293 14ZM508 925L598 787L584 778L487 894L336 778L324
789L475 925H508Z" />
<glyph unicode="&#xd5;" glyph-name="Otilde" horiz-adv-x="683" d="M290 -12Q185 -12 130 48T74 220Q74 268 82 322T109 431T156 536T223 625T314 687T430 710Q535 710 590 650T646 478Q646 430 638 376T611 267T564 162T497 73T406 11T290 -12ZM293 14Q346 14
391 34T472 92T535 183T578 303Q588 342 593 371T602 422T606 459T607 488Q607 582 563 633T427 684Q374 684 329 664T248 606T185 515T142 395Q132 356 127 327T118 276T114 239T113 210Q113 116 157 65T293 14ZM533 803Q513 803 497 810T459 832Q439 846 425
852T395 859Q362 859 327 827L316 839Q338 859 358 872T401 885Q421 885 437 878T475 856Q495 842 509 836T539 829Q572 829 607 861L618 849Q596 829 576 816T533 803Z" />
<glyph unicode="&#xd6;" glyph-name="Odieresis" horiz-adv-x="683" d="M290 -12Q185 -12 130 48T74 220Q74 268 82 322T109 431T156 536T223 625T314 687T430 710Q535 710 590 650T646 478Q646 430 638 376T611 267T564 162T497 73T406 11T290 -12ZM293 14Q346
14 391 34T472 92T535 183T578 303Q588 342 593 371T602 422T606 459T607 488Q607 582 563 633T427 684Q374 684 329 664T248 606T185 515T142 395Q132 356 127 327T118 276T114 239T113 210Q113 116 157 65T293 14ZM378 812Q364 812 358 820T352 838Q352 844 355
852Q358 860 366 866T386 873Q400 873 406 865T412 847Q412 840 409 833Q406 825 398 819T378 812ZM559 812Q545 812 539 820T533 838Q533 844 536 852Q539 860 547 866T567 873Q581 873 587 865T593 847Q593 840 590 833Q587 825 579 819T559 812Z" />
<glyph unicode="&#xd7;" glyph-name="multiply" horiz-adv-x="550" d="M50 126L271 306L142 487L163 502L291 323L510 502L527 484L306 303L435 123L413 108L285 287L67 108L50 126Z" />
<glyph unicode="&#xd8;" glyph-name="Oslash" horiz-adv-x="683" d="M110 75Q74 130 74 220Q74 268 82 322T109 431T156 536T224 625T314 687T430 710Q540 710 596 643L673 733L691 718L610 623Q646 567 646 478Q646 430 638 376T611 267T565 162T497 73T406 11T290
-12Q180 -12 124 56L47 -34L29 -19L110 75ZM427 684Q374 684 329 664T248 606T185 515T142 395Q132 356 127 327T118 276T114 239T113 210Q113 148 133 103L574 617Q530 684 427 684ZM293 14Q346 14 391 34T473 92T535 183T578 303Q588 342 593 371T602 422T606
459T607 488Q607 552 586 596L146 81Q190 14 293 14Z" />
<glyph unicode="&#xd9;" glyph-name="Ugrave" horiz-adv-x="691" d="M265 674L162 260Q153 222 148 192T142 135Q142 78 177 46T290 13Q343 13 382 26T451 69T502 145T539 257L642 674H564L570 698H756L750 674H672L569 257Q550 180 525 128T465 45T387 1T288
-12Q199 -12 152 25T104 141Q104 168 110 199T125 265L227 674H149L155 698H349L343 674H265ZM384 919L418 935L492 775L477 767L384 919Z" />
<glyph unicode="&#xda;" glyph-name="Uacute" horiz-adv-x="691" d="M265 674L162 260Q153 222 148 192T142 135Q142 78 177 46T290 13Q343 13 382 26T451 69T502 145T539 257L642 674H564L570 698H756L750 674H672L569 257Q550 180 525 128T465 45T387 1T288
-12Q199 -12 152 25T104 141Q104 168 110 199T125 265L227 674H149L155 698H349L343 674H265ZM464 767L450 776L571 935L601 917L464 767Z" />
<glyph unicode="&#xdb;" glyph-name="Ucircumflex" horiz-adv-x="691" d="M265 674L162 260Q153 222 148 192T142 135Q142 78 177 46T290 13Q343 13 382 26T451 69T502 145T539 257L642 674H564L570 698H756L750 674H672L569 257Q550 180 525 128T465 45T387 1T288
-12Q199 -12 152 25T104 141Q104 168 110 199T125 265L227 674H149L155 698H349L343 674H265ZM532 925L622 787L608 778L511 894L360 778L348 789L499 925H532Z" />
<glyph unicode="&#xdc;" glyph-name="Udieresis" horiz-adv-x="691" d="M265 674L162 260Q153 222 148 192T142 135Q142 78 177 46T290 13Q343 13 382 26T451 69T502 145T539 257L642 674H564L570 698H756L750 674H672L569 257Q550 180 525 128T465 45T387 1T288
-12Q199 -12 152 25T104 141Q104 168 110 199T125 265L227 674H149L155 698H349L343 674H265ZM402 812Q388 812 382 820T376 838Q376 844 379 852Q382 860 390 866T410 873Q424 873 430 865T436 847Q436 840 433 833Q430 825 422 819T402 812ZM583 812Q569 812
563 820T557 838Q557 844 560 852Q563 860 571 866T591 873Q605 873 611 865T617 847Q617 840 614 833Q611 825 603 819T583 812Z" />
<glyph unicode="&#xdd;" glyph-name="Yacute" horiz-adv-x="596" d="M124 24H222L286 285L179 674H124L130 698H319L313 674H218L315 315H317L592 674H497L503 698H687L681 674H626L324 285L260 24H358L352 0H118L124 24ZM416 767L402 776L523 935L553 917L416 767Z" />
<glyph unicode="&#xde;" glyph-name="Thorn" horiz-adv-x="569" d="M353 674H275L240 534H415Q489 534 525 501T561 405Q561 364 548 322T506 245T435 188T332 166H148L113 24H192L186 0H-9L-3 24H75L237 674H159L165 698H359L353 674ZM234 509L155 191H332Q398
191 445 227T509 328Q513 345 518 367T523 409Q523 455 498 482T413 509H234Z" />
<glyph unicode="&#xdf;" glyph-name="germandbls" horiz-adv-x="549" d="M309 -12Q268 -12 247 2T226 39Q226 53 235 63T259 73Q273 73 281 65T290 43Q290 21 271 11V7Q281 4 300 4Q324 4 350 10T399 29T435 66T450 123Q450 141 446 155T434 184T411 214T377 251Q346
283 330 310T313 375Q313 409 328 435T368 478T426 505T497 515L506 552Q511 574 514 592T517 628Q517 689 488 718T407 748Q346 748 302 708T239 591L73 -76Q57 -140 22 -176T-67 -212Q-97 -212 -114 -200T-131 -166Q-131 -152 -122 -142T-98 -131Q-83 -131 -75
-140T-66 -161Q-66 -170 -71 -179T-87 -193L-86 -197H-75Q-30 -197 -4 -166T37 -75L177 484H78L84 508H182L202 587Q222 672 276 721T407 770Q476 770 513 732T550 625Q550 611 547 591T539 549L526 498H501Q472 498 445 491T396 470T361 435T348 384Q348 366 351
353T363 325T386 295T421 257Q452 225 468 198T485 133Q485 99 472 72T434 27T378 -2T309 -12Z" />
<glyph unicode="&#xe0;" glyph-name="agrave" horiz-adv-x="516" d="M139 -12Q112 -12 95 -2T67 27T52 69T47 121Q47 187 63 257T113 386T194 482T305 520Q341 520 366 504T401 446H407L434 508H454L333 24L351 16L480 130L492 119L408 36Q379 7 364 -2T335 -12Q321
-12 310 -4T299 21Q299 34 304 54L344 209L338 211Q323 176 303 137T259 64T204 10T139 -12ZM312 494Q274 494 242 478T184 431T139 360T107 268Q96 225 91 188T86 121Q86 99 88 81T97 48T116 26T149 18Q168 18 190 29T235 67Q258 94 280 130T321 203T354 277T375
341L381 362Q398 429 379 461T312 494ZM238 739L272 755L346 595L331 587L238 739Z" />
<glyph unicode="&#xe1;" glyph-name="aacute" horiz-adv-x="516" d="M139 -12Q112 -12 95 -2T67 27T52 69T47 121Q47 187 63 257T113 386T194 482T305 520Q341 520 366 504T401 446H407L434 508H454L333 24L351 16L480 130L492 119L408 36Q379 7 364 -2T335 -12Q321
-12 310 -4T299 21Q299 34 304 54L344 209L338 211Q323 176 303 137T259 64T204 10T139 -12ZM312 494Q274 494 242 478T184 431T139 360T107 268Q96 225 91 188T86 121Q86 99 88 81T97 48T116 26T149 18Q168 18 190 29T235 67Q258 94 280 130T321 203T354 277T375
341L381 362Q398 429 379 461T312 494ZM306 587L292 596L413 755L443 737L306 587Z" />
<glyph unicode="&#xe2;" glyph-name="acircumflex" horiz-adv-x="516" d="M139 -12Q112 -12 95 -2T67 27T52 69T47 121Q47 187 63 257T113 386T194 482T305 520Q341 520 366 504T401 446H407L434 508H454L333 24L351 16L480 130L492 119L408 36Q379 7 364 -2T335
-12Q321 -12 310 -4T299 21Q299 34 304 54L344 209L338 211Q323 176 303 137T259 64T204 10T139 -12ZM312 494Q274 494 242 478T184 431T139 360T107 268Q96 225 91 188T86 121Q86 99 88 81T97 48T116 26T149 18Q168 18 190 29T235 67Q258 94 280 130T321 203T354
277T375 341L381 362Q398 429 379 461T312 494ZM379 747L469 609L455 600L358 716L207 600L195 611L346 747H379Z" />
<glyph unicode="&#xe3;" glyph-name="atilde" horiz-adv-x="516" d="M139 -12Q112 -12 95 -2T67 27T52 69T47 121Q47 187 63 257T113 386T194 482T305 520Q341 520 366 504T401 446H407L434 508H454L333 24L351 16L480 130L492 119L408 36Q379 7 364 -2T335 -12Q321
-12 310 -4T299 21Q299 34 304 54L344 209L338 211Q323 176 303 137T259 64T204 10T139 -12ZM312 494Q274 494 242 478T184 431T139 360T107 268Q96 225 91 188T86 121Q86 99 88 81T97 48T116 26T149 18Q168 18 190 29T235 67Q258 94 280 130T321 203T354 277T375
341L381 362Q398 429 379 461T312 494ZM402 626Q382 626 366 633T328 655Q308 669 294 675T264 682Q231 682 196 650L185 662Q207 682 227 695T270 708Q290 708 306 701T344 679Q364 665 378 659T408 652Q441 652 476 684L487 672Q465 652 445 639T402 626Z" />
<glyph unicode="&#xe4;" glyph-name="adieresis" horiz-adv-x="516" d="M139 -12Q112 -12 95 -2T67 27T52 69T47 121Q47 187 63 257T113 386T194 482T305 520Q341 520 366 504T401 446H407L434 508H454L333 24L351 16L480 130L492 119L408 36Q379 7 364 -2T335
-12Q321 -12 310 -4T299 21Q299 34 304 54L344 209L338 211Q323 176 303 137T259 64T204 10T139 -12ZM312 494Q274 494 242 478T184 431T139 360T107 268Q96 225 91 188T86 121Q86 99 88 81T97 48T116 26T149 18Q168 18 190 29T235 67Q258 94 280 130T321 203T354
277T375 341L381 362Q398 429 379 461T312 494ZM246 636Q232 636 226 644T220 662Q220 668 223 676Q226 684 234 690T254 697Q268 697 274 689T280 671Q280 664 277 657Q274 649 266 643T246 636ZM427 636Q413 636 407 644T401 662Q401 668 404 676Q407 684 415
690T435 697Q449 697 455 689T461 671Q461 664 458 657Q455 649 447 643T427 636Z" />
<glyph unicode="&#xe5;" glyph-name="aring" horiz-adv-x="516" d="M139 -12Q112 -12 95 -2T67 27T52 69T47 121Q47 187 63 257T113 386T194 482T305 520Q341 520 366 504T401 446H407L434 508H454L333 24L351 16L480 130L492 119L408 36Q379 7 364 -2T335 -12Q321
-12 310 -4T299 21Q299 34 304 54L344 209L338 211Q323 176 303 137T259 64T204 10T139 -12ZM312 494Q274 494 242 478T184 431T139 360T107 268Q96 225 91 188T86 121Q86 99 88 81T97 48T116 26T149 18Q168 18 190 29T235 67Q258 94 280 130T321 203T354 277T375
341L381 362Q398 429 379 461T312 494ZM331 593Q294 593 272 613T250 666Q250 691 258 713T282 751T319 776T365 786Q402 786 424 766T446 713Q446 688 438 666T414 628T377 603T331 593ZM334 614Q363 614 385 632T413 679Q415 690 417 699T419 715Q419 738 404
751T362 765Q333 765 311 747T283 700Q281 689 279 680T277 664Q277 641 292 628T334 614Z" />
<glyph unicode="&#xe6;" glyph-name="ae" horiz-adv-x="687" d="M116 -12Q70 -12 49 15T28 81Q28 117 46 149T101 207T194 251T326 276Q327 280 328 284T332 297T337 317T346 349Q351 366 353 382T356 415Q356 498 265 498Q236 498 209 491T161 466V462Q172 459
179 451T187 428Q187 413 177 403T153 393Q139 393 130 402T120 427Q120 445 133 461T167 491T215 512T271 520Q326 521 355 494T384 423Q384 414 382 404H387Q413 455 456 487T551 520Q571 520 590 516T625 500T649 472T659 427Q659 394 643 367T591 318T498 283T359
262Q353 233 348 202T342 130Q342 107 345 87T358 51T382 26T422 16Q470 16 518 55T606 168L623 161Q575 66 523 27T414 -12Q355 -12 332 23T309 126Q309 134 309 143T311 161H306Q294 132 274 102T230 46T176 4T116 -12ZM364 278Q426 285 474 296T555 324T605
366T623 424Q623 438 620 451T608 474T585 491T549 498Q490 498 441 445T364 278ZM127 15Q158 15 189 38T246 96T291 169T318 240L323 259Q255 251 207 234T127 194T80 142T65 83Q65 54 78 35T127 15Z" />
<glyph unicode="&#xe7;" glyph-name="ccedilla" horiz-adv-x="406" d="M121 -203Q92 -203 74 -192T49 -168L61 -157Q77 -183 120 -183Q138 -183 152 -177T175 -162T189 -141T194 -120Q194 -102 182 -94T142 -83L110 -82L145 -11Q95 -6 72 29T49 131Q49 185 62
252T104 379T178 479T287 520Q336 520 365 497T394 442Q394 423 384 412T357 401Q342 401 334 409T325 430Q325 446 336 457T368 470V474Q357 485 338 491T289 498Q232 498 183 443T107 269Q102 249 95 210T88 129Q88 107 91 87T103 51T127 26T167 16Q212 16 256
56T339 168L356 161Q309 71 264 31T167 -12L139 -70L140 -72Q156 -69 172 -69Q197 -69 211 -82T226 -117Q226 -152 196 -177T121 -203Z" />
<glyph unicode="&#xe8;" glyph-name="egrave" horiz-adv-x="432" d="M160 -12Q101 -12 75 24T49 132Q49 186 63 253T107 379T184 479T297 520Q316 520 335 516T370 500T394 472T404 427Q404 394 388 367T337 318T244 283T105 262Q99 231 94 198T88 130Q88 107
91 87T103 51T127 26T167 16Q215 16 263 55T351 168L368 161Q320 66 269 27T160 -12ZM110 278Q234 292 301 325T368 424Q368 452 353 475T295 498Q236 498 186 445T110 278ZM479 739L513 755L587 595L572 587L479 739Z" />
<glyph unicode="&#xe9;" glyph-name="eacute" horiz-adv-x="432" d="M160 -12Q101 -12 75 24T49 132Q49 186 63 253T107 379T184 479T297 520Q316 520 335 516T370 500T394 472T404 427Q404 394 388 367T337 318T244 283T105 262Q99 231 94 198T88 130Q88 107
91 87T103 51T127 26T167 16Q215 16 263 55T351 168L368 161Q320 66 269 27T160 -12ZM110 278Q234 292 301 325T368 424Q368 452 353 475T295 498Q236 498 186 445T110 278ZM547 587L533 596L654 755L684 737L547 587Z" />
<glyph unicode="&#xea;" glyph-name="ecircumflex" horiz-adv-x="432" d="M160 -12Q101 -12 75 24T49 132Q49 186 63 253T107 379T184 479T297 520Q316 520 335 516T370 500T394 472T404 427Q404 394 388 367T337 318T244 283T105 262Q99 231 94 198T88 130Q88
107 91 87T103 51T127 26T167 16Q215 16 263 55T351 168L368 161Q320 66 269 27T160 -12ZM110 278Q234 292 301 325T368 424Q368 452 353 475T295 498Q236 498 186 445T110 278ZM620 747L710 609L696 600L599 716L448 600L436 611L587 747H620Z" />
<glyph unicode="&#xeb;" glyph-name="edieresis" horiz-adv-x="432" d="M160 -12Q101 -12 75 24T49 132Q49 186 63 253T107 379T184 479T297 520Q316 520 335 516T370 500T394 472T404 427Q404 394 388 367T337 318T244 283T105 262Q99 231 94 198T88 130Q88 107
91 87T103 51T127 26T167 16Q215 16 263 55T351 168L368 161Q320 66 269 27T160 -12ZM110 278Q234 292 301 325T368 424Q368 452 353 475T295 498Q236 498 186 445T110 278ZM487 636Q473 636 467 644T461 662Q461 668 464 676Q467 684 475 690T495 697Q509 697
515 689T521 671Q521 664 518 657Q515 649 507 643T487 636ZM668 636Q654 636 648 644T642 662Q642 668 645 676Q648 684 656 690T676 697Q690 697 696 689T702 671Q702 664 699 657Q696 649 688 643T668 636Z" />
<glyph unicode="&#xec;" glyph-name="igrave" horiz-adv-x="279" d="M96 -12Q83 -12 72 -4T61 22Q61 33 66 53L173 480H86L90 497L218 516L95 24L113 16L242 130L254 119L170 36Q141 7 126 -2T96 -12ZM376 739L410 755L484 595L469 587L376 739Z" />
<glyph unicode="&#xed;" glyph-name="iacute" horiz-adv-x="279" d="M96 -12Q83 -12 72 -4T61 22Q61 33 66 53L173 480H86L90 497L218 516L95 24L113 16L242 130L254 119L170 36Q141 7 126 -2T96 -12ZM444 587L430 596L551 755L581 737L444 587Z" />
<glyph unicode="&#xee;" glyph-name="icircumflex" horiz-adv-x="279" d="M96 -12Q83 -12 72 -4T61 22Q61 33 66 53L173 480H86L90 497L218 516L95 24L113 16L242 130L254 119L170 36Q141 7 126 -2T96 -12ZM517 747L607 609L593 600L496 716L345 600L333 611L484
747H517Z" />
<glyph unicode="&#xef;" glyph-name="idieresis" horiz-adv-x="279" d="M96 -12Q83 -12 72 -4T61 22Q61 33 66 53L173 480H86L90 497L218 516L95 24L113 16L242 130L254 119L170 36Q141 7 126 -2T96 -12ZM384 636Q370 636 364 644T358 662Q358 668 361 676Q364
684 372 690T392 697Q406 697 412 689T418 671Q418 664 415 657Q412 649 404 643T384 636ZM565 636Q551 636 545 644T539 662Q539 668 542 676Q545 684 553 690T573 697Q587 697 593 689T599 671Q599 664 596 657Q593 649 585 643T565 636Z" />
<glyph unicode="&#xf0;" glyph-name="eth" horiz-adv-x="507" d="M189 -12Q118 -12 85 35T51 158Q51 212 67 274T116 390T197 479T311 515Q355 515 381 493T417 431H421Q416 491 391 551T328 661L225 589L212 608L312 680Q270 730 221 758H262Q279 747 298 731T334
695L442 770L455 750L350 676Q395 619 425 544T456 384Q456 316 439 246T388 118T305 25T189 -12ZM191 11Q232 11 265 29T323 79T367 150T396 236Q403 262 406 280T412 311T414 334T415 355Q415 385 410 410T393 453T361 482T312 492Q271 492 238 474T180 424T136
353T107 267Q100 241 97 223T91 192T89 169T88 148Q88 118 93 93T110 50T142 21T191 11Z" />
<glyph unicode="&#xf1;" glyph-name="ntilde" horiz-adv-x="544" d="M173 480H86L90 497L218 516L160 290L166 288Q184 322 207 362T261 438T326 496T402 520Q437 520 452 503T468 457Q468 438 462 417L358 24L376 16L505 130L517 119L432 35Q403 6 388 -3T359
-12Q345 -12 335 -4T324 22Q324 33 329 53L427 421Q431 438 431 452Q431 490 391 490Q342 490 284 432Q261 409 237 378T192 310T155 237T130 164L89 0H53L173 480ZM436 626Q416 626 400 633T362 655Q342 669 328 675T298 682Q265 682 230 650L219 662Q241 682
261 695T304 708Q324 708 340 701T378 679Q398 665 412 659T442 652Q475 652 510 684L521 672Q499 652 479 639T436 626Z" />
<glyph unicode="&#xf2;" glyph-name="ograve" horiz-adv-x="471" d="M180 -12Q109 -12 78 33T47 154Q47 219 65 284T115 402T192 487T291 520Q362 520 393 475T424 354Q424 289 406 224T356 106T279 21T180 -12ZM181 11Q217 11 247 29T300 79T340 152T368 240Q374
265 378 283T384 316T386 342T387 364Q387 394 383 418T367 460T337 487T290 497Q254 497 224 479T171 429T131 356T103 268Q97 242 93 224T87 192T85 166T84 144Q84 114 88 90T104 48T134 21T181 11ZM478 739L512 755L586 595L571 587L478 739Z" />
<glyph unicode="&#xf3;" glyph-name="oacute" horiz-adv-x="471" d="M180 -12Q109 -12 78 33T47 154Q47 219 65 284T115 402T192 487T291 520Q362 520 393 475T424 354Q424 289 406 224T356 106T279 21T180 -12ZM181 11Q217 11 247 29T300 79T340 152T368 240Q374
265 378 283T384 316T386 342T387 364Q387 394 383 418T367 460T337 487T290 497Q254 497 224 479T171 429T131 356T103 268Q97 242 93 224T87 192T85 166T84 144Q84 114 88 90T104 48T134 21T181 11ZM546 587L532 596L653 755L683 737L546 587Z" />
<glyph unicode="&#xf4;" glyph-name="ocircumflex" horiz-adv-x="471" d="M180 -12Q109 -12 78 33T47 154Q47 219 65 284T115 402T192 487T291 520Q362 520 393 475T424 354Q424 289 406 224T356 106T279 21T180 -12ZM181 11Q217 11 247 29T300 79T340 152T368
240Q374 265 378 283T384 316T386 342T387 364Q387 394 383 418T367 460T337 487T290 497Q254 497 224 479T171 429T131 356T103 268Q97 242 93 224T87 192T85 166T84 144Q84 114 88 90T104 48T134 21T181 11ZM619 747L709 609L695 600L598 716L447 600L435 611L586
747H619Z" />
<glyph unicode="&#xf5;" glyph-name="otilde" horiz-adv-x="471" d="M180 -12Q109 -12 78 33T47 154Q47 219 65 284T115 402T192 487T291 520Q362 520 393 475T424 354Q424 289 406 224T356 106T279 21T180 -12ZM181 11Q217 11 247 29T300 79T340 152T368 240Q374
265 378 283T384 316T386 342T387 364Q387 394 383 418T367 460T337 487T290 497Q254 497 224 479T171 429T131 356T103 268Q97 242 93 224T87 192T85 166T84 144Q84 114 88 90T104 48T134 21T181 11ZM642 626Q622 626 606 633T568 655Q548 669 534 675T504 682Q471
682 436 650L425 662Q447 682 467 695T510 708Q530 708 546 701T584 679Q604 665 618 659T648 652Q681 652 716 684L727 672Q705 652 685 639T642 626Z" />
<glyph unicode="&#xf6;" glyph-name="odieresis" horiz-adv-x="471" d="M180 -12Q109 -12 78 33T47 154Q47 219 65 284T115 402T192 487T291 520Q362 520 393 475T424 354Q424 289 406 224T356 106T279 21T180 -12ZM181 11Q217 11 247 29T300 79T340 152T368 240Q374
265 378 283T384 316T386 342T387 364Q387 394 383 418T367 460T337 487T290 497Q254 497 224 479T171 429T131 356T103 268Q97 242 93 224T87 192T85 166T84 144Q84 114 88 90T104 48T134 21T181 11ZM486 636Q472 636 466 644T460 662Q460 668 463 676Q466 684
474 690T494 697Q508 697 514 689T520 671Q520 664 517 657Q514 649 506 643T486 636ZM667 636Q653 636 647 644T641 662Q641 668 644 676Q647 684 655 690T675 697Q689 697 695 689T701 671Q701 664 698 657Q695 649 687 643T667 636Z" />
<glyph unicode="&#xf7;" glyph-name="divide" horiz-adv-x="550" d="M53 293L59 318H522L516 293H53ZM235 80Q220 80 213 88T205 108Q205 118 209 127Q214 138 222 144T245 151Q260 151 267 143T275 123Q275 113 271 104Q266 93 258 87T235 80ZM331 461Q316 461
309 469T301 489Q301 499 305 508Q310 519 318 525T341 532Q356 532 363 524T371 504Q371 494 367 485Q362 474 354 468T331 461Z" />
<glyph unicode="&#xf8;" glyph-name="oslash" horiz-adv-x="471" d="M180 -12Q141 -12 115 2T72 43L9 -32L-8 -16L61 65Q53 84 50 106T47 154Q47 219 65 284T115 402T192 487T291 520Q365 520 399 466L461 540L478 524L410 443Q418 424 421 402T424 354Q424 289
406 224T356 106T279 21T180 -12ZM290 497Q254 497 224 479T171 429T131 356T103 268Q97 242 93 224T87 192T85 166T84 144Q84 115 88 95L376 441Q366 467 346 482T290 497ZM181 11Q217 11 247 29T300 79T340 152T368 240Q374 265 378 283T384 316T386 342T387
364Q387 393 383 413L94 69Q104 42 125 27T181 11Z" />
<glyph unicode="&#xf9;" glyph-name="ugrave" horiz-adv-x="538" d="M128 -12Q92 -12 77 6T62 52Q62 69 68 92L172 480H85L89 497L217 516L103 87Q99 71 99 57Q99 18 139 18Q188 18 246 76Q270 99 293 131T338 198T375 271T400 344L441 508H477L356 24L374 16L503
130L515 119L431 36Q402 7 387 -2T358 -12Q344 -12 333 -4T322 21Q322 28 324 37T328 56L370 218L364 220Q347 187 324 147T270 71T204 12T128 -12ZM257 739L291 755L365 595L350 587L257 739Z" />
<glyph unicode="&#xfa;" glyph-name="uacute" horiz-adv-x="538" d="M128 -12Q92 -12 77 6T62 52Q62 69 68 92L172 480H85L89 497L217 516L103 87Q99 71 99 57Q99 18 139 18Q188 18 246 76Q270 99 293 131T338 198T375 271T400 344L441 508H477L356 24L374 16L503
130L515 119L431 36Q402 7 387 -2T358 -12Q344 -12 333 -4T322 21Q322 28 324 37T328 56L370 218L364 220Q347 187 324 147T270 71T204 12T128 -12ZM325 587L311 596L432 755L462 737L325 587Z" />
<glyph unicode="&#xfb;" glyph-name="ucircumflex" horiz-adv-x="538" d="M128 -12Q92 -12 77 6T62 52Q62 69 68 92L172 480H85L89 497L217 516L103 87Q99 71 99 57Q99 18 139 18Q188 18 246 76Q270 99 293 131T338 198T375 271T400 344L441 508H477L356 24L374
16L503 130L515 119L431 36Q402 7 387 -2T358 -12Q344 -12 333 -4T322 21Q322 28 324 37T328 56L370 218L364 220Q347 187 324 147T270 71T204 12T128 -12ZM398 747L488 609L474 600L377 716L226 600L214 611L365 747H398Z" />
<glyph unicode="&#xfc;" glyph-name="udieresis" horiz-adv-x="538" d="M128 -12Q92 -12 77 6T62 52Q62 69 68 92L172 480H85L89 497L217 516L103 87Q99 71 99 57Q99 18 139 18Q188 18 246 76Q270 99 293 131T338 198T375 271T400 344L441 508H477L356 24L374
16L503 130L515 119L431 36Q402 7 387 -2T358 -12Q344 -12 333 -4T322 21Q322 28 324 37T328 56L370 218L364 220Q347 187 324 147T270 71T204 12T128 -12ZM265 636Q251 636 245 644T239 662Q239 668 242 676Q245 684 253 690T273 697Q287 697 293 689T299 671Q299
664 296 657Q293 649 285 643T265 636ZM446 636Q432 636 426 644T420 662Q420 668 423 676Q426 684 434 690T454 697Q468 697 474 689T480 671Q480 664 477 657Q474 649 466 643T446 636Z" />
<glyph unicode="&#xfd;" glyph-name="yacute" horiz-adv-x="443" d="M-51 -212Q-79 -212 -95 -199T-112 -166Q-112 -151 -103 -141T-77 -130Q-61 -130 -53 -138T-45 -161Q-45 -183 -65 -192L-64 -196H-59Q-10 -196 27 -166T99 -75L135 -11L94 484H49L55 508H206L200
484H130L164 40H170L423 484H353L359 508H504L497 484H452L120 -86Q82 -152 41 -182T-51 -212ZM541 587L527 596L648 755L678 737L541 587Z" />
<glyph unicode="&#xfe;" glyph-name="thorn" horiz-adv-x="493" d="M-6 -177L221 730H134L138 747L266 765L148 299L154 297Q169 332 189 371T233 444T288 498T353 520Q380 520 397 510T425 481T440 439T445 387Q445 321 429 251T379 122T298 26T187 -12Q150 -12
126 4T94 59H88L31 -177H127L122 -200H-84L-78 -177H-6ZM180 14Q217 14 249 30T307 76T352 147T385 240Q396 283 401 320T406 387Q406 409 404 427T395 460T376 482T343 490Q325 490 303 479T257 441Q234 414 213 379T172 307T139 234T117 168L112 149Q95 85 111
50T180 14Z" />
<glyph unicode="&#xff;" glyph-name="ydieresis" horiz-adv-x="443" d="M-51 -212Q-79 -212 -95 -199T-112 -166Q-112 -151 -103 -141T-77 -130Q-61 -130 -53 -138T-45 -161Q-45 -183 -65 -192L-64 -196H-59Q-10 -196 27 -166T99 -75L135 -11L94 484H49L55 508H206L200
484H130L164 40H170L423 484H353L359 508H504L497 484H452L120 -86Q82 -152 41 -182T-51 -212ZM481 636Q467 636 461 644T455 662Q455 668 458 676Q461 684 469 690T489 697Q503 697 509 689T515 671Q515 664 512 657Q509 649 501 643T481 636ZM662 636Q648 636
642 644T636 662Q636 668 639 676Q642 684 650 690T670 697Q684 697 690 689T696 671Q696 664 693 657Q690 649 682 643T662 636Z" />
<glyph unicode="&#x2013;" glyph-name="endash" horiz-adv-x="572" d="M52 292L58 317H546L540 292H52Z" />
<glyph unicode="&#x2014;" glyph-name="emdash" horiz-adv-x="754" d="M52 292L58 317H728L722 292H52Z" />
<glyph unicode="&#x2018;" glyph-name="quoteleft" horiz-adv-x="216" d="M288 740Q246 708 220 672T181 601H186Q200 601 208 593T217 571Q217 552 205 540T175 527Q158 527 150 537T141 562Q141 578 153 605Q161 623 173 642T201 680T232 713T266 740H288Z" />
<glyph unicode="&#x2019;" glyph-name="quoteright" horiz-adv-x="242" d="M120 527Q162 559 188 595T227 666H222Q208 666 200 674T191 696Q191 715 203 727T233 740Q250 740 258 730T267 705Q267 689 255 662Q247 644 235 625T207 587T175 553T142 527H120Z" />
<glyph unicode="&#x201a;" glyph-name="quotesinglbase" horiz-adv-x="217" d="M-58 -132Q-16 -100 10 -64T49 7H44Q30 7 22 15T13 37Q13 56 25 68T55 81Q72 81 80 71T89 46Q89 30 77 3Q69 -15 57 -34T29 -72T-3 -106T-36 -132H-58Z" />
<glyph unicode="&#x201c;" glyph-name="quotedblleft" horiz-adv-x="377" d="M288 740Q246 708 220 672T181 601H186Q200 601 208 593T217 571Q217 552 205 540T175 527Q158 527 150 537T141 562Q141 578 153 605Q161 623 173 642T201 680T232 713T266 740H288ZM449
740Q407 708 381 672T342 601H347Q361 601 369 593T378 571Q378 552 366 540T336 527Q319 527 311 537T302 562Q302 578 314 605Q322 623 334 642T362 680T393 713T427 740H449Z" />
<glyph unicode="&#x201d;" glyph-name="quotedblright" horiz-adv-x="403" d="M120 527Q162 559 188 595T227 666H222Q208 666 200 674T191 696Q191 715 203 727T233 740Q250 740 258 730T267 705Q267 689 255 662Q247 644 235 625T207 587T175 553T142 527H120ZM281
527Q323 559 349 595T388 666H383Q369 666 361 674T352 696Q352 715 364 727T394 740Q411 740 419 730T428 705Q428 689 416 662Q408 644 396 625T368 587T336 553T303 527H281Z" />
<glyph unicode="&#x201e;" glyph-name="quotedblbase" horiz-adv-x="378" d="M-58 -132Q-16 -100 10 -64T49 7H44Q30 7 22 15T13 37Q13 56 25 68T55 81Q72 81 80 71T89 46Q89 30 77 3Q69 -15 57 -34T29 -72T-3 -106T-36 -132H-58ZM103 -132Q145 -100 171 -64T210
7H205Q191 7 183 15T174 37Q174 56 186 68T216 81Q233 81 241 71T250 46Q250 30 238 3Q230 -15 218 -34T190 -72T158 -106T125 -132H103Z" />
<glyph unicode="&#x2022;" glyph-name="bullet" horiz-adv-x="359" d="M178 211Q139 211 117 233T94 287Q94 302 98 318Q107 355 134 376T203 397Q242 397 264 375T287 321Q287 306 283 290Q274 253 247 232T178 211Z" />
<glyph unicode="&#x2039;" glyph-name="guilsinglleft" horiz-adv-x="275" d="M185 100L52 279L57 304L280 483L288 467L91 287L199 113L185 100Z" />
<glyph unicode="&#x203a;" glyph-name="guilsinglright" horiz-adv-x="274" d="M204 297L96 471L110 484L243 305L238 280L15 101L7 117L204 297Z" />
</font>
</defs>
</svg>
